<svg width="12" height="16" viewBox="0 0 12 16" fill="none" xmlns="http://www.w3.org/2000/svg">
<path d="M5.11106 15.6134C5.34681 15.861 5.66639 16 5.99958 16C6.33278 16 6.65235 15.861 6.8881 15.6134L11.6316 10.629C11.8675 10.381 12 10.0446 12 9.69394C12 9.34323 11.8675 9.0069 11.6316 8.75891C11.3957 8.51093 11.0758 8.37161 10.7423 8.37161C10.4087 8.37161 10.0888 8.51093 9.8529 8.75891L7.25692 11.4873L7.25692 1.3219C7.25692 0.97131 7.12445 0.63508 6.88865 0.387176C6.65286 0.139272 6.33305 0 5.99958 0C5.66611 0 5.3463 0.139272 5.11051 0.387176C4.87471 0.63508 4.74224 0.97131 4.74224 1.3219L4.74224 11.4873L2.1471 8.75891C2.0303 8.63612 1.89165 8.53872 1.73906 8.47227C1.58646 8.40582 1.42291 8.37161 1.25774 8.37161C1.09257 8.37161 0.929021 8.40582 0.776424 8.47227C0.623828 8.53872 0.485175 8.63612 0.368383 8.75891C0.251592 8.8817 0.158948 9.02747 0.0957403 9.1879C0.0325327 9.34834 0 9.52029 0 9.69394C0 9.86759 0.0325327 10.0395 0.0957403 10.2C0.158948 10.3604 0.251592 10.5062 0.368383 10.629L5.11106 15.6134Z" fill="white"/>
</svg>
