<svg width="19" height="13" viewBox="0 0 19 13" fill="none" xmlns="http://www.w3.org/2000/svg">
<path d="M5.7 6.5C7.53766 6.5 9.025 5.04621 9.025 3.25C9.025 1.45379 7.53766 0 5.7 0C3.86234 0 2.375 1.45379 2.375 3.25C2.375 5.04621 3.86234 6.5 5.7 6.5ZM7.98 7.42857H7.73359C7.11609 7.71875 6.43031 7.89286 5.7 7.89286C4.96969 7.89286 4.28687 7.71875 3.66641 7.42857H3.42C1.53187 7.42857 0 8.92589 0 10.7714V11.6071C0 12.3761 0.638281 13 1.425 13H9.975C10.7617 13 11.4 12.3761 11.4 11.6071V10.7714C11.4 8.92589 9.86812 7.42857 7.98 7.42857ZM14.25 6.5C15.8234 6.5 17.1 5.25223 17.1 3.71429C17.1 2.17634 15.8234 0.928571 14.25 0.928571C12.6766 0.928571 11.4 2.17634 11.4 3.71429C11.4 5.25223 12.6766 6.5 14.25 6.5ZM15.675 7.42857H15.5622C15.1495 7.56786 14.7131 7.66071 14.25 7.66071C13.7869 7.66071 13.3505 7.56786 12.9378 7.42857H12.825C12.2194 7.42857 11.6612 7.59978 11.1714 7.87545C11.8958 8.63862 12.35 9.65134 12.35 10.7714V11.8857C12.35 11.9496 12.3352 12.0105 12.3322 12.0714H17.575C18.3617 12.0714 19 11.4475 19 10.6786C19 8.88237 17.5127 7.42857 15.675 7.42857Z" fill="white"/>
</svg>
