<svg width="16" height="15" viewBox="0 0 16 15" fill="none" xmlns="http://www.w3.org/2000/svg">
<path d="M12.8251 0.927466C12.8355 0.361676 12.8169 0.00417776 12.8169 0.00417776L8.02431 0H7.97569L3.18262 0.00417776C3.18262 0.00417776 3.16451 0.361676 3.17486 0.927466H0V1.53145C0 1.66932 0.0201759 4.92142 1.75996 6.70294C2.48577 7.44599 3.3911 7.8196 4.45835 7.8202C4.61976 7.8202 4.78583 7.80766 4.95396 7.79095C5.56027 8.74886 6.26073 9.41969 7.04863 9.75391V12.4068H4.73564V14.0684H3.97155V15H12.0285V14.069H11.2638V12.4074H8.95085V9.75451C9.73823 9.42028 10.4392 8.74945 11.0455 7.79155C11.2147 7.80826 11.3808 7.8202 11.5422 7.8202C12.6089 7.819 13.5142 7.44599 14.24 6.70234C15.9798 4.92082 16 1.66872 16 1.53086V0.927466H12.8251ZM2.45835 5.80233C1.46456 4.78773 1.17072 3.05097 1.08381 2.13544H3.23487C3.32592 3.27597 3.54009 4.69701 4.03414 5.94617C4.12468 6.17535 4.21987 6.39259 4.31712 6.60506C3.57579 6.57224 2.95189 6.30546 2.45835 5.80233ZM13.5416 5.80233C13.0486 6.30605 12.4242 6.57224 11.6834 6.60506C11.7807 6.39319 11.8758 6.17535 11.9664 5.94617C12.4604 4.69701 12.6746 3.27597 12.7651 2.13544H14.9162C14.8293 3.05037 14.536 4.78713 13.5416 5.80233Z" fill="white"/>
</svg>
