<svg width="12" height="16" viewBox="0 0 12 16" fill="none" xmlns="http://www.w3.org/2000/svg">
<path d="M6.88894 0.386594C6.65319 0.139046 6.33361 0 6.00042 0C5.66722 0 5.34765 0.139046 5.1119 0.386594L0.368384 5.37104C0.132512 5.61902 -3.51477e-09 5.95536 0 6.30606C3.51477e-09 6.65677 0.132512 6.9931 0.368384 7.24109C0.604256 7.48907 0.924167 7.62839 1.25774 7.62839C1.59131 7.62839 1.91123 7.48907 2.1471 7.24109L4.74308 4.51269V14.6781C4.74308 15.0287 4.87555 15.3649 5.11135 15.6128C5.34714 15.8607 5.66695 16 6.00042 16C6.33389 16 6.6537 15.8607 6.88949 15.6128C7.12529 15.3649 7.25776 15.0287 7.25776 14.6781V4.51269L9.8529 7.24109C9.9697 7.36388 10.1083 7.46128 10.2609 7.52773C10.4135 7.59418 10.5771 7.62839 10.7423 7.62839C10.9074 7.62839 11.071 7.59418 11.2236 7.52773C11.3762 7.46128 11.5148 7.36388 11.6316 7.24109C11.7484 7.1183 11.8411 6.97253 11.9043 6.8121C11.9675 6.65166 12 6.47971 12 6.30606C12 6.13241 11.9675 5.96046 11.9043 5.80003C11.8411 5.6396 11.7484 5.49383 11.6316 5.37104L6.88894 0.386594Z" fill="white"/>
</svg>
