<svg width="75" height="116" viewBox="0 0 75 116" fill="none" xmlns="http://www.w3.org/2000/svg">
<path d="M0 19.7584L37.4212 0L74.8424 19.7584V96.397L37.4212 115.856L0 96.397V19.7584Z" fill="#F8CBAE"/>
<path d="M0 19.7584L37.4212 0V33.23V51.7909V115.856L0 96.397V19.7584Z" fill="#ECA678"/>
<path d="M0 68.8543L37.4212 44.9048V96.3963V103.282V115.855L0 96.3963V68.8543Z" fill="#D7834E"/>
<path d="M37.4199 109.867V85.0192L74.8411 50.8911V96.3953L37.4199 115.854V112.561V109.867Z" fill="#EAAA7C"/>
<path d="M2.80371 22.4682L37.4207 4.19043L72.0377 22.4682V93.3639L37.4207 111.365L2.80371 93.3639V22.4682Z" fill="#CC7763"/>
<path opacity="0.46" d="M2.69556 60.7716L16.7659 51.7905L48.1997 69.7527L20.9571 102.683L2.69556 93.4029V60.7716Z" fill="#A56559"/>
<g clip-path="url(#clip0_4607_403)">
<path d="M45.0354 77.4689C45.0354 77.4689 45.0352 77.4689 45.035 77.4688V77.469H45.0354V77.4689Z" fill="#FEE7DC"/>
<path d="M37.962 65.4486C37.8396 65.4567 37.7068 65.4675 37.5648 65.4806C37.5142 65.4857 37.4625 65.4907 37.4092 65.4965C37.3803 65.4992 37.3509 65.5026 37.3212 65.5057C37.1645 65.5227 36.9985 65.5424 36.8244 65.5644C36.785 65.5694 36.7449 65.5744 36.7044 65.5798C36.5306 65.6022 36.35 65.6273 36.1636 65.6543C36.1045 65.6628 36.045 65.6717 35.9848 65.6806C35.9547 65.6848 35.9246 65.6895 35.8945 65.6941C35.8563 65.6999 35.8177 65.7057 35.7791 65.7115C35.7552 65.7153 35.7312 65.7188 35.7073 65.7227C35.6224 65.7358 35.5367 65.7489 35.4502 65.7628C35.0032 65.8338 34.5346 65.9137 34.0583 66.0002C33.9425 66.0211 33.8259 66.0423 33.7089 66.0643C33.6491 66.0751 33.5893 66.0863 33.5298 66.0979C33.5039 66.1025 33.4777 66.1075 33.4514 66.1125C33.2986 66.1411 33.1457 66.1704 32.9929 66.2005C30.5745 66.6726 28.2179 67.2513 27.7134 67.5964C27.7424 64.8136 27.3328 60.9663 25.5884 58.7984C23.8286 56.6117 20.4939 55.244 17.9651 56.465C15.7676 57.5269 14.3884 59.7438 13.5465 61.7788C13.1937 62.6311 12.935 63.4514 12.7497 64.1416C12.6702 64.4376 12.6046 64.7098 12.5506 64.9503C12.5178 64.9487 12.4849 64.9464 12.4517 64.9425C12.3985 64.9368 12.3448 64.9286 12.2912 64.9175C12.2908 64.9117 12.2904 64.9063 12.2904 64.9005C12.2877 64.8387 12.2846 64.7746 12.2819 64.7086V64.7075C12.2777 64.6017 12.2734 64.4901 12.2695 64.3739C12.268 64.3272 12.2665 64.2798 12.2649 64.2311C12.2638 64.1933 12.2626 64.1551 12.2618 64.1165C12.2433 63.3954 12.2425 62.5165 12.2977 61.5511C12.4236 59.3385 12.8416 56.6727 14.005 54.4184C14.2255 53.9914 14.4725 53.5792 14.7489 53.1874C14.8245 53.0808 14.9021 52.9755 14.982 52.8716C15.0619 52.7682 15.1442 52.6663 15.2287 52.5659C15.3136 52.4659 15.4005 52.3675 15.4896 52.2706C15.5491 52.2065 15.6097 52.1428 15.6715 52.0803C15.7023 52.049 15.7336 52.0178 15.7649 51.9869C16.7384 51.0292 17.9744 50.2865 19.5424 49.8889C21.626 49.3609 23.7672 49.3323 25.8308 49.7256C25.9019 49.7392 25.9725 49.7531 26.0435 49.7677H26.0439C26.1146 49.7824 26.1852 49.7974 26.2558 49.8129C26.362 49.836 26.4678 49.8604 26.5735 49.8858C26.6438 49.9032 26.7136 49.9206 26.7839 49.9383C27.0645 50.0101 27.3432 50.0897 27.6196 50.1773C27.6887 50.1993 27.7574 50.2213 27.8261 50.2441C27.9983 50.3012 28.1693 50.361 28.3395 50.4236C28.4754 50.4737 28.6109 50.5258 28.7456 50.5795H28.746C28.9143 50.6471 29.0818 50.7173 29.2478 50.7899C29.2478 50.7899 29.2479 50.7899 29.2482 50.7899C30.0797 51.1547 30.8829 51.5893 31.6469 52.0873C31.7078 52.1266 31.7688 52.1672 31.8298 52.2081C32.0722 52.371 32.3104 52.54 32.5443 52.7153C32.6613 52.8029 32.7771 52.8921 32.8917 52.9832C33.0635 53.1194 33.233 53.2592 33.3997 53.402C33.7329 53.688 34.0552 53.9876 34.3651 54.3003C34.4686 54.4045 34.5705 54.5102 34.6712 54.6172C34.8724 54.831 35.0681 55.0507 35.2576 55.2757C35.2966 55.322 35.3352 55.3683 35.3734 55.415C35.8134 55.952 36.2149 56.5244 36.5361 57.139C36.5361 57.139 36.5364 57.139 36.5364 57.1394C36.592 57.2463 36.6453 57.3544 36.6959 57.4636C36.7337 57.5458 36.7704 57.6284 36.8051 57.7122C36.9012 57.9426 36.9846 58.1773 37.0583 58.4155C37.088 58.5105 37.1162 58.6062 37.1429 58.7023C37.2637 59.135 37.3579 59.5762 37.4428 60.0171C37.5127 60.3764 37.5721 60.7586 37.6231 61.1539C37.6447 61.3229 37.6651 61.4943 37.6844 61.6676V61.6684C37.7416 62.1884 37.7867 62.7234 37.8249 63.2526C37.8253 63.2526 37.8249 63.253 37.8249 63.253C37.8547 63.6645 37.8801 64.0729 37.9037 64.4677C37.9238 64.8067 37.9423 65.1355 37.9612 65.4486H37.962Z" fill="#F5C19A"/>
<path d="M32.9921 66.1989C32.9921 66.1989 32.9923 66.1989 32.9925 66.1987V66.199H32.9921V66.1989Z" fill="#FEE7DC"/>
<path d="M37.9622 65.4486C37.8398 65.4567 37.707 65.4675 37.565 65.4806C37.5144 65.4857 37.4627 65.4907 37.4094 65.4965C37.3804 65.4992 37.3511 65.5026 37.3214 65.5057C37.1647 65.5227 36.9987 65.5424 36.8246 65.5644C36.7848 65.5694 36.7451 65.5744 36.7045 65.5798C36.5308 65.6022 36.3502 65.6273 36.1637 65.6543C36.1047 65.6628 36.0452 65.6717 35.985 65.6806C35.9549 65.6848 35.9248 65.6895 35.8947 65.6941C35.8565 65.6999 35.8179 65.7057 35.7793 65.7115C35.7553 65.7153 35.7314 65.7188 35.7075 65.7227C35.6226 65.7358 35.5369 65.7489 35.4504 65.7628C35.0034 65.8338 34.5348 65.9137 34.0584 66.0002C33.9423 66.0211 33.8261 66.0427 33.7091 66.0643C33.6497 66.0755 33.5898 66.0867 33.53 66.0979C33.5041 66.1025 33.4779 66.1075 33.4516 66.1125C33.2988 66.1415 33.1459 66.1708 32.9931 66.2006C32.9946 66.0905 33.1355 54.626 21.617 53.5502C16.4302 53.0654 14.121 57.8021 13.1078 61.5839C12.8418 62.5763 12.6654 63.5027 12.5496 64.2516C12.5102 64.5033 12.4782 64.7349 12.4519 64.9425C12.3987 64.9368 12.345 64.9286 12.2914 64.9175C12.291 64.9117 12.2906 64.9063 12.2906 64.9005C12.2875 64.8387 12.2848 64.7746 12.2821 64.7086V64.7075C12.2775 64.6013 12.2732 64.4901 12.2694 64.374C12.2678 64.3272 12.2663 64.2794 12.2651 64.2311C12.2639 64.1933 12.2628 64.1551 12.262 64.1165C12.2431 63.3954 12.2427 62.5169 12.2975 61.5514C12.3527 60.5833 12.4639 59.5284 12.6689 58.4595C12.9321 57.0849 13.351 55.6868 14.0052 54.4184C14.2253 53.9914 14.4723 53.5792 14.7491 53.1874C14.8244 53.0808 14.9019 52.9755 14.9822 52.8716C15.0621 52.7682 15.1444 52.6663 15.2289 52.5659C15.3134 52.4659 15.4003 52.3675 15.4898 52.2706C15.5493 52.2065 15.6099 52.1428 15.6716 52.0803C15.7025 52.049 15.7338 52.0178 15.7651 51.9869C16.7386 51.0292 17.9746 50.2865 19.5425 49.8889C21.6262 49.3609 23.7674 49.3323 25.831 49.7256C25.9021 49.7392 25.9727 49.7531 26.0437 49.7677H26.0441C26.1147 49.7824 26.1854 49.7971 26.256 49.8129C26.3622 49.836 26.4679 49.8604 26.5737 49.8858C26.644 49.9028 26.7138 49.9206 26.7841 49.9383C27.0647 50.0101 27.3434 50.0897 27.6198 50.1773C27.6889 50.1989 27.758 50.2213 27.8263 50.2441C27.9985 50.3008 28.1695 50.3606 28.3397 50.4236C28.4756 50.4734 28.6111 50.5255 28.7458 50.5795H28.7462C28.9145 50.6467 29.082 50.7165 29.248 50.7899C29.248 50.7899 29.2481 50.7899 29.2484 50.7899C30.0798 51.1543 30.8831 51.5885 31.647 52.0873C31.708 52.1266 31.769 52.1672 31.83 52.2081C32.0724 52.3706 32.3106 52.5397 32.5445 52.7153C32.6615 52.8029 32.7773 52.8921 32.8919 52.9832C33.0641 53.1191 33.2335 53.2588 33.3999 53.402C33.733 53.688 34.0554 53.9876 34.3653 54.3003C34.4688 54.4041 34.5707 54.5099 34.6714 54.6172C34.8725 54.831 35.0682 55.0507 35.2578 55.2757C35.2968 55.322 35.3354 55.3683 35.3736 55.4151C35.8148 55.9524 36.2162 56.5244 36.5362 57.139C36.5362 57.139 36.5366 57.139 36.5366 57.1394C36.5922 57.2459 36.6455 57.3544 36.696 57.4636C36.7339 57.5458 36.7705 57.6284 36.8053 57.7122C36.9014 57.9426 36.9848 58.1773 37.0585 58.4155C37.0882 58.5105 37.116 58.6062 37.143 58.7023C37.2631 59.135 37.3569 59.5762 37.443 60.0171C37.5128 60.3764 37.5723 60.7586 37.6232 61.1539C37.6452 61.3229 37.6657 61.4943 37.6846 61.6676V61.6684C37.7418 62.1884 37.7869 62.7234 37.8251 63.2526C37.8255 63.2526 37.8251 63.253 37.8251 63.253C37.8548 63.6645 37.8803 64.0729 37.9039 64.4678C37.9239 64.8067 37.9425 65.1356 37.9614 65.4486H37.9622Z" fill="#FEE7DC"/>
<path d="M63.1801 63.9556C63.1728 64.3131 63.1601 64.635 63.1473 64.9137C63.1068 64.9226 63.0655 64.9295 63.0242 64.9345C63.0126 64.9361 63.001 64.9376 62.9891 64.9388C62.9563 64.943 62.9234 64.9453 62.8903 64.9469C62.8362 64.7068 62.771 64.435 62.6915 64.1397C62.5058 63.4496 62.2475 62.6293 61.8951 61.777C61.1694 60.0222 60.0434 58.1323 58.338 56.965C58.3056 56.9426 58.2728 56.9206 58.24 56.899C58.2072 56.877 58.174 56.8554 58.1404 56.8341C58.1099 56.8148 58.0794 56.7955 58.0485 56.7766C58.0177 56.7577 57.9864 56.7392 57.9555 56.7206C57.893 56.6836 57.8297 56.6477 57.766 56.6126C57.671 56.5604 57.5741 56.5106 57.4761 56.4632C57.3124 56.384 57.1457 56.3161 56.9758 56.2582C56.9546 56.2512 56.9333 56.2439 56.9121 56.237C56.8202 56.2072 56.728 56.1802 56.6346 56.1567C56.6342 56.1567 56.6342 56.1563 56.6338 56.1563C56.572 56.1405 56.5099 56.1258 56.4474 56.1127C56.447 56.1127 56.4466 56.1127 56.4462 56.1123C55.4129 55.8919 54.3069 56.0177 53.2624 56.3894C53.1045 56.4458 52.9482 56.5076 52.7934 56.5747C52.7625 56.5886 52.7312 56.6021 52.7004 56.616C52.5463 56.6847 52.3946 56.7592 52.2453 56.8388C52.2152 56.855 52.185 56.8712 52.1553 56.8874C52.0364 56.9519 51.9191 57.0202 51.8041 57.0912C51.6886 57.1622 51.5751 57.236 51.4636 57.3128C51.4076 57.3514 51.3524 57.3904 51.2976 57.4301C51.2154 57.4892 51.1347 57.5502 51.0556 57.6127H51.0552C51.0023 57.6544 50.9498 57.6965 50.8985 57.7393H50.8981C50.7946 57.825 50.6935 57.913 50.5955 58.0033H50.5951C50.5213 58.0713 50.4492 58.14 50.3789 58.2102C50.1905 58.3978 50.0137 58.5936 49.8505 58.7962C49.8242 58.829 49.798 58.8622 49.7721 58.8958C49.7208 58.9626 49.6706 59.0309 49.6216 59.1008C49.6216 59.1012 49.6212 59.1012 49.6212 59.1015C49.5721 59.171 49.5243 59.2424 49.4776 59.315C49.4776 59.3154 49.4772 59.3158 49.4772 59.3158C49.4305 59.3883 49.3849 59.4621 49.3405 59.5373C49.2514 59.6887 49.1668 59.8446 49.0865 60.0056C49.0059 60.1658 48.9302 60.331 48.8588 60.4997C48.787 60.6684 48.7194 60.8409 48.6558 61.0169C48.6237 61.1049 48.5932 61.1937 48.5635 61.2833C48.0713 62.759 47.8405 64.4362 47.7594 65.9733C47.7571 66.02 47.7548 66.0663 47.7525 66.1126C47.7286 66.6272 47.7208 67.1251 47.7259 67.5926V67.5934C47.7259 67.5934 47.7255 67.5934 47.7255 67.593C47.7135 67.5849 47.7004 67.5764 47.6865 67.5679C47.6726 67.5594 47.6571 67.5509 47.6409 67.542C47.6247 67.5332 47.6074 67.5243 47.5892 67.5158C47.5803 67.5112 47.5711 67.5069 47.5614 67.5023C47.5518 67.4976 47.5421 67.493 47.5321 67.4888C47.4908 67.4699 47.4452 67.4502 47.3958 67.4301C47.2279 67.3622 47.016 67.2896 46.7682 67.2132C46.6998 67.1919 46.6288 67.1707 46.5551 67.1491C46.5285 67.1414 46.5018 67.1336 46.4748 67.1259C46.4235 67.1109 46.371 67.0962 46.3173 67.0811C46.2637 67.0661 46.2092 67.051 46.1536 67.036C46.1486 67.0348 46.1432 67.0333 46.1382 67.0317C46.1069 67.0232 46.0753 67.0147 46.0432 67.0063C45.0543 66.7415 43.7608 66.4543 42.4491 66.1979C42.0986 66.1296 41.747 66.0636 41.3992 66.0007C41.2922 65.9814 41.1861 65.9625 41.0803 65.9436C41.0047 65.9301 40.929 65.9169 40.8541 65.9038C39.5104 65.671 38.2744 65.4973 37.4773 65.4456C37.5777 63.7757 37.6765 61.6565 37.9957 60.0141C38.1474 59.2301 38.3265 58.4461 38.6334 57.7092C39.0059 56.8171 39.5594 56.0115 40.1813 55.2727C43.9754 50.7715 50.1535 48.4303 55.8973 49.8859C61.5686 51.3234 62.8987 57.2803 63.1415 61.5492C63.1929 62.4448 63.196 63.2658 63.1809 63.9556H63.1801Z" fill="#F5C19A"/>
<path d="M62.9888 64.9369C62.956 64.9411 62.9231 64.9435 62.8899 64.945C62.8359 64.7049 62.7707 64.4331 62.6912 64.1378C62.5055 63.4477 62.2472 62.6274 61.8948 61.7751C61.1691 60.0203 60.0431 58.1304 58.3377 56.9631C58.3053 56.9403 58.2725 56.9183 58.2397 56.8971C58.2069 56.8751 58.1737 56.8535 58.1401 56.8322C58.1096 56.8125 58.0791 56.7932 58.0482 56.7747C58.0173 56.7554 57.9865 56.7369 57.9552 56.7187C57.8927 56.6813 57.8297 56.6454 57.7657 56.6107C57.6707 56.5585 57.5738 56.5088 57.4758 56.4613C57.3121 56.3821 57.1453 56.3142 56.9755 56.2563C56.9543 56.2494 56.933 56.242 56.9118 56.2351C56.8199 56.2053 56.7273 56.1787 56.6343 56.1548C56.6339 56.1548 56.6339 56.1544 56.6335 56.1544C56.5717 56.1386 56.5092 56.1243 56.4471 56.1108C56.4467 56.1108 56.4463 56.1108 56.4459 56.1104C56.3907 56.0988 56.3355 56.0884 56.2799 56.0787C56.2645 56.076 56.2494 56.0733 56.234 56.0706C56.1865 56.0625 56.1386 56.0556 56.0904 56.049C56.0664 56.0459 56.0421 56.0425 56.0182 56.0397C55.9788 56.0351 55.9391 56.0305 55.8993 56.0266C55.8653 56.0231 55.8314 56.0204 55.797 56.0177C55.7793 56.0162 55.7619 56.015 55.7441 56.0139C55.6843 56.01 55.6241 56.0069 55.5639 56.005C55.5569 56.005 55.5504 56.0046 55.5438 56.0042C53.4335 55.9456 51.1888 57.1333 49.8521 58.7943C48.1077 60.9621 47.6985 64.8095 47.7275 67.5923C47.7267 67.5915 47.7259 67.5911 47.7248 67.5903C47.7128 67.5822 47.6997 67.5741 47.6854 67.5656C47.6715 67.5571 47.6561 67.5486 47.6399 67.5398C47.6236 67.5309 47.6063 67.522 47.5881 67.5135C47.5792 67.5085 47.57 67.5042 47.5603 67.5C47.5507 67.4954 47.541 67.4907 47.531 67.4865C47.4897 67.4672 47.4441 67.4475 47.3947 67.4278C47.2268 67.3599 47.0149 67.2873 46.7671 67.2109C46.6988 67.1896 46.6277 67.1684 46.554 67.1468C46.5274 67.1391 46.5007 67.1314 46.4737 67.1236C46.4224 67.1086 46.3699 67.0939 46.3162 67.0789C46.2626 67.0638 46.2081 67.0487 46.1526 67.0337C46.1475 67.0325 46.1421 67.031 46.1371 67.0294C46.1059 67.021 46.0742 67.0125 46.0422 67.004C45.0532 66.7399 43.7589 66.5392 42.448 66.2833C42.4472 66.2833 41.7154 66.1196 41.7146 66.1192V66.1185C41.7131 65.9621 42.3291 54.6196 53.8245 53.5461C59.0109 53.0613 61.32 57.798 62.3333 61.5798C62.5993 62.5722 62.7753 63.4986 62.8911 64.2475C62.9305 64.4984 62.9629 64.7292 62.9888 64.9365V64.9369Z" fill="#FEE7DC"/>
<path d="M42.1642 65.1591C42.1511 65.2332 42.1375 65.3073 42.124 65.3814L39.4316 65.3073C39.4308 65.3143 39.4301 65.3208 39.4289 65.3278C39.427 65.3455 39.4247 65.3637 39.422 65.3814L30.5349 65.7732C30.5349 65.7732 37.4695 50.7679 30.3287 32.7412C30.3291 32.7412 30.3291 32.7412 30.3295 32.742C30.3303 32.7424 30.3307 32.7431 30.3314 32.7435C30.3519 32.7601 30.4619 32.8493 30.6453 33.0095C32.8258 34.9094 45.4267 46.7978 42.1642 65.1591Z" fill="#F5C19A"/>
<path d="M42.164 65.1592L40.7277 65.1349L37.3922 65.0886C43.9605 49.0877 32.7211 34.8659 30.3313 32.7437C30.3518 32.7603 30.4618 32.8494 30.6451 33.0096C32.8257 34.9096 45.4266 46.7979 42.164 65.1592Z" fill="#FEE7DC"/>
<path d="M30.008 35.3687C31.2988 35.7378 32.6444 34.9904 33.0138 33.6992C33.3829 32.408 32.6352 31.0624 31.3443 30.6934C30.0535 30.3244 28.7079 31.0717 28.3385 32.3629C27.9695 33.6537 28.7172 34.9997 30.008 35.3687Z" fill="#F5C19A"/>
<path d="M29.1118 34.8912C29.367 35.1054 29.6681 35.2687 30.0077 35.366C31.2989 35.735 32.6442 34.9877 33.0136 33.6965C33.1696 33.1518 33.1275 32.5971 32.9271 32.1104C32.9271 32.1104 31.9544 33.5687 31.0087 34.2037C30.0641 34.8364 29.1122 34.8912 29.1122 34.8912H29.1118Z" fill="#FEE7DC"/>
<path fill-rule="evenodd" clip-rule="evenodd" d="M48.2795 70.2251L36.7455 70.2255C36.6664 70.2251 36.5884 70.2251 36.5124 70.2255H27.1331C27.1331 70.2255 26.4669 67.6095 26.7637 67.1949C26.8683 67.0498 26.9976 66.9259 27.1327 66.8101C28.202 65.8944 29.5916 65.4799 30.9531 65.1672C35.5161 64.1192 38.2683 63.9505 42.1751 64.6943C42.8908 64.8229 43.647 64.9804 44.4595 65.1672C45.0324 65.2988 45.6106 65.4486 46.1676 65.6462C46.9343 65.9176 47.6607 66.2797 48.2795 66.8101C48.415 66.9259 48.5443 67.0498 48.6489 67.1949C48.9434 67.606 48.2899 70.1842 48.2795 70.2251Z" fill="#F5C19A"/>
<path fill-rule="evenodd" clip-rule="evenodd" d="M48.3162 70.2208L36.7822 70.2212C36.703 70.2208 36.6251 70.2208 36.549 70.2212H32.3778C39.5603 69.4785 44.8089 67.621 45.4354 65.3999C45.6944 65.4725 45.9518 65.5524 46.2043 65.6419C46.9709 65.9133 47.6974 66.2754 48.3162 66.8058C48.4516 66.9216 48.581 67.0455 48.6856 67.1906C48.9801 67.6017 48.3266 70.1799 48.3162 70.2208Z" fill="#FEE7DC"/>
<path d="M62.1613 65.3419C63.4521 65.7109 64.7978 64.9636 65.1672 63.6724C65.5362 62.3812 64.7885 61.0355 63.4977 60.6665C62.2069 60.2975 60.8612 61.0448 60.4918 62.336C60.1228 63.6268 60.8705 64.9728 62.1613 65.3419Z" fill="#F5C19A"/>
<path d="M61.266 64.8677C61.5211 65.082 61.8222 65.2452 62.1619 65.3425C63.4531 65.7115 64.7984 64.9642 65.1678 63.673C65.3237 63.1284 65.2816 62.5737 65.0813 62.0869C65.0813 62.0869 64.1086 63.5453 63.1628 64.1802C62.2183 64.8129 61.2664 64.8677 61.2664 64.8677H61.266Z" fill="#FEE7DC"/>
<path d="M11.9405 65.3419C13.2313 65.7109 14.5769 64.9636 14.9463 63.6724C15.3154 62.3812 14.5677 61.0355 13.2768 60.6665C11.986 60.2975 10.6404 61.0448 10.271 62.336C9.90196 63.6268 10.6497 64.9728 11.9405 65.3419Z" fill="#F5C19A"/>
<path d="M11.0441 64.8677C11.2992 65.082 11.6003 65.2452 11.94 65.3425C13.2312 65.7115 14.5764 64.9642 14.9459 63.673C15.1018 63.1284 15.0597 62.5737 14.8594 62.0869C14.8594 62.0869 13.8866 63.5453 12.9409 64.1802C11.9964 64.8129 11.0445 64.8677 11.0445 64.8677H11.0441Z" fill="#FEE7DC"/>
</g>
<defs>
<clipPath id="clip0_4607_403">
<rect width="55.084" height="46.8724" fill="white" transform="translate(10.1766 30.5996)"/>
</clipPath>
</defs>
</svg>
