<svg width="77" height="119" viewBox="0 0 77 119" fill="none" xmlns="http://www.w3.org/2000/svg">
<path d="M0.122559 20.1628L38.3097 0L76.4968 20.1628V98.37L38.3097 118.227L0.122559 98.37V20.1628Z" fill="#EAEAF6"/>
<path d="M0.122559 20.1628L38.3097 0V33.9101V52.851V118.227L0.122559 98.37V20.1628Z" fill="#FFE49B"/>
<path d="M0.122559 70.2642L38.3097 45.8245V98.3699V105.396V118.227L0.122559 98.3699V70.2642Z" fill="#E7AE67"/>
<path d="M38.3096 112.117V86.7612L76.4967 51.9346V98.3701L38.3096 118.227V114.867V112.117Z" fill="#FFBF67"/>
<path d="M2.98413 22.9287L38.3097 4.27686L73.6352 22.9287V95.2754L38.3097 113.645L2.98413 95.2754V22.9287Z" fill="#85A6CF"/>
<path opacity="0.46" d="M2.87207 62.016L17.2304 52.8511L49.3076 71.1809L21.5074 104.786L2.87207 95.3151V62.016Z" fill="#BF8A3A"/>
<g clip-path="url(#clip0_4977_1465)">
<path d="M46.0813 79.0566C46.0813 79.0566 46.0803 79.0566 46.0798 79.0562V79.0571H46.0813V79.0566Z" fill="#FFF4DD"/>
<path d="M38.862 66.7886C38.7371 66.7969 38.6016 66.8079 38.4567 66.8213C38.4051 66.8264 38.3523 66.8315 38.2979 66.8374C38.2684 66.8402 38.2384 66.8437 38.2081 66.8469C38.0482 66.8642 37.8788 66.8843 37.7012 66.9068C37.661 66.9119 37.62 66.917 37.5786 66.9225C37.4014 66.9454 37.217 66.971 37.0268 66.9985C36.9665 67.0072 36.9058 67.0163 36.8444 67.0253C36.8137 67.0297 36.7829 67.0344 36.7522 67.0391C36.7132 67.045 36.6738 67.0509 36.6344 67.0568C36.61 67.0608 36.5856 67.0643 36.5612 67.0683C36.4745 67.0817 36.3871 67.095 36.2988 67.1092C35.8427 67.1817 35.3645 67.2632 34.8784 67.3515C34.7602 67.3728 34.6413 67.3944 34.5219 67.4169C34.4608 67.4279 34.3998 67.4393 34.3391 67.4511C34.3127 67.4559 34.2859 67.461 34.2592 67.4661C34.1032 67.4953 33.9472 67.5252 33.7912 67.5559C31.3233 68.0377 28.9185 68.6281 28.4037 68.9803C28.4332 66.1406 28.0153 62.2145 26.2352 60.0023C24.4394 57.7708 21.0364 56.3752 18.4559 57.6211C16.2133 58.7048 14.8059 60.967 13.9468 63.0437C13.5867 63.9134 13.3228 64.7505 13.1337 65.4548C13.0526 65.7569 12.9856 66.0346 12.9305 66.28C12.897 66.2785 12.8635 66.2761 12.8296 66.2722C12.7753 66.2663 12.7205 66.258 12.6658 66.2466C12.6654 66.2407 12.665 66.2351 12.665 66.2292C12.6622 66.1662 12.6591 66.1008 12.6563 66.0335V66.0323C12.652 65.9243 12.6477 65.8105 12.6437 65.6919C12.6421 65.6443 12.6406 65.5958 12.639 65.5462C12.6378 65.5076 12.6366 65.4686 12.6358 65.4292C12.6169 64.6934 12.6161 63.7964 12.6725 62.8113C12.8009 60.5534 13.2275 57.833 14.4147 55.5326C14.6397 55.0969 14.8918 54.6762 15.1738 54.2764C15.251 54.1677 15.3302 54.0602 15.4117 53.9542C15.4933 53.8486 15.5772 53.7446 15.6634 53.6422C15.7501 53.5402 15.8387 53.4397 15.9297 53.3409C15.9904 53.2755 16.0522 53.2105 16.1152 53.1467C16.1468 53.1148 16.1787 53.0829 16.2106 53.0514C17.204 52.0741 18.4653 51.3162 20.0654 50.9104C22.1917 50.3716 24.3767 50.3424 26.4826 50.7438C26.5551 50.7576 26.6271 50.7718 26.6996 50.7868H26.7C26.7721 50.8017 26.8442 50.8171 26.9163 50.8328C27.0246 50.8565 27.1325 50.8813 27.2405 50.9073C27.3122 50.925 27.3835 50.9427 27.4551 50.9609C27.7415 51.0341 28.0259 51.1153 28.308 51.2047C28.3785 51.2272 28.4486 51.2496 28.5187 51.2728C28.6944 51.3311 28.8689 51.3922 29.0426 51.456C29.1813 51.5072 29.3195 51.5604 29.457 51.6152H29.4574C29.6291 51.6841 29.8001 51.7558 29.9695 51.8298C29.9695 51.8298 29.9696 51.8298 29.9699 51.8298C30.8184 52.2021 31.6381 52.6456 32.4176 53.1538C32.4799 53.1939 32.5421 53.2353 32.6043 53.2771C32.8517 53.4433 33.0948 53.6158 33.3335 53.7947C33.4528 53.8841 33.571 53.9751 33.688 54.068C33.8633 54.2071 34.0362 54.3497 34.2064 54.4954C34.5463 54.7873 34.8752 55.093 35.1915 55.4121C35.2971 55.5184 35.4011 55.6263 35.5039 55.7355C35.7091 55.9537 35.9089 56.1778 36.1023 56.4075C36.1421 56.4547 36.1814 56.502 36.2204 56.5497C36.6695 57.0976 37.0792 57.6818 37.4069 58.3089C37.4069 58.3089 37.4073 58.3089 37.4073 58.3093C37.464 58.4184 37.5184 58.5287 37.57 58.6402C37.6086 58.7241 37.646 58.8084 37.6815 58.8938C37.7795 59.129 37.8646 59.3685 37.9399 59.6115C37.9702 59.7084 37.9989 59.8061 38.0261 59.9042C38.1494 60.3458 38.2455 60.796 38.3322 61.2459C38.4035 61.6126 38.4642 62.0026 38.5162 62.4059C38.5382 62.5785 38.5591 62.7534 38.5788 62.9302V62.931C38.6371 63.4616 38.6832 64.0076 38.7222 64.5476C38.7226 64.5476 38.7222 64.548 38.7222 64.548C38.7525 64.9679 38.7785 65.3847 38.8025 65.7877C38.823 66.1335 38.8419 66.4691 38.8612 66.7886H38.862Z" fill="#FEDC9C"/>
<path d="M33.79 67.5564C33.79 67.5564 33.791 67.5564 33.7915 67.5559V67.5569H33.79V67.5564Z" fill="#FFF4DD"/>
<path d="M38.862 66.7886C38.7371 66.7969 38.6016 66.8079 38.4566 66.8213C38.405 66.8264 38.3522 66.8315 38.2979 66.8374C38.2683 66.8402 38.2384 66.8437 38.2081 66.8469C38.0481 66.8642 37.8788 66.8843 37.7011 66.9068C37.6605 66.9119 37.62 66.917 37.5786 66.9225C37.4013 66.9454 37.217 66.971 37.0267 66.9985C36.9665 67.0072 36.9058 67.0163 36.8443 67.0253C36.8136 67.0297 36.7829 67.0344 36.7522 67.0391C36.7132 67.045 36.6738 67.0509 36.6344 67.0568C36.61 67.0608 36.5855 67.0643 36.5611 67.0683C36.4745 67.0817 36.387 67.095 36.2988 67.1092C35.8426 67.1817 35.3644 67.2632 34.8783 67.3515C34.7598 67.3728 34.6412 67.3948 34.5218 67.4169C34.4612 67.4283 34.4001 67.4397 34.3391 67.4511C34.3127 67.4559 34.2859 67.461 34.2591 67.4661C34.1031 67.4957 33.9471 67.5256 33.7911 67.5559C33.7927 67.4437 33.9365 55.7445 22.1822 54.6467C16.8892 54.1519 14.5329 58.9856 13.4988 62.8448C13.2274 63.8575 13.0474 64.8029 12.9293 65.5671C12.8891 65.8239 12.8564 66.0602 12.8296 66.2722C12.7752 66.2663 12.7205 66.258 12.6657 66.2466C12.6653 66.2407 12.6649 66.2351 12.6649 66.2292C12.6618 66.1662 12.659 66.1008 12.6563 66.0335V66.0323C12.6515 65.924 12.6472 65.8105 12.6433 65.6919C12.6417 65.6443 12.6401 65.5954 12.6389 65.5462C12.6378 65.5076 12.6366 65.4686 12.6358 65.4292C12.6165 64.6934 12.6161 63.7968 12.672 62.8117C12.7284 61.8237 12.8418 60.7472 13.051 59.6564C13.3196 58.2537 13.747 56.827 14.4147 55.5326C14.6392 55.0969 14.8913 54.6762 15.1738 54.2764C15.2506 54.1677 15.3297 54.0602 15.4117 53.9542C15.4932 53.8486 15.5771 53.7446 15.6634 53.6422C15.7497 53.5402 15.8383 53.4397 15.9297 53.3409C15.9903 53.2755 16.0522 53.2105 16.1152 53.1467C16.1467 53.1148 16.1786 53.0829 16.2105 53.0514C17.204 52.0741 18.4653 51.3162 20.0653 50.9104C22.1917 50.3716 24.3767 50.3424 26.4825 50.7438C26.555 50.7576 26.6271 50.7718 26.6996 50.7868H26.7C26.7721 50.8017 26.8441 50.8167 26.9162 50.8328C27.0246 50.8565 27.1325 50.8813 27.2404 50.9073C27.3121 50.9246 27.3834 50.9427 27.4551 50.9609C27.7415 51.0341 28.0259 51.1153 28.3079 51.2047C28.3784 51.2268 28.4489 51.2496 28.5187 51.2728C28.6943 51.3307 28.8688 51.3918 29.0426 51.456C29.1812 51.5068 29.3195 51.56 29.4569 51.6152H29.4573C29.6291 51.6837 29.8 51.755 29.9694 51.8298C29.9694 51.8298 29.9696 51.8298 29.9698 51.8298C30.8183 52.2017 31.638 52.6448 32.4176 53.1538C32.4798 53.1939 32.5421 53.2353 32.6043 53.2771C32.8517 53.4429 33.0947 53.6154 33.3334 53.7947C33.4528 53.8841 33.5709 53.9751 33.6879 54.068C33.8636 54.2067 34.0366 54.3493 34.2063 54.4954C34.5463 54.7873 34.8752 55.093 35.1915 55.4121C35.2971 55.518 35.4011 55.6259 35.5039 55.7355C35.7091 55.9537 35.9088 56.1778 36.1022 56.4075C36.142 56.4547 36.1814 56.502 36.2204 56.5497C36.6706 57.098 37.0803 57.6818 37.4068 58.3089C37.4068 58.3089 37.4072 58.3089 37.4072 58.3093C37.464 58.418 37.5183 58.5287 37.5699 58.6402C37.6085 58.7241 37.646 58.8084 37.6814 58.8938C37.7795 59.129 37.8646 59.3685 37.9398 59.6115C37.9701 59.7084 37.9985 59.8061 38.0261 59.9042C38.1486 60.3458 38.2443 60.796 38.3321 61.2459C38.4034 61.6126 38.4641 62.0026 38.5161 62.4059C38.5386 62.5785 38.5594 62.7534 38.5787 62.9302V62.931C38.637 63.4616 38.6831 64.0076 38.7221 64.5476C38.7225 64.5476 38.7221 64.548 38.7221 64.548C38.7524 64.9679 38.7784 65.3847 38.8025 65.7877C38.823 66.1335 38.8419 66.4691 38.8612 66.7886H38.862Z" fill="#FFF4DD"/>
<path d="M64.5966 65.2649C64.5891 65.6296 64.5761 65.9581 64.5631 66.2425C64.5218 66.2516 64.4796 66.2587 64.4375 66.2638C64.4256 66.2654 64.4138 66.267 64.4016 66.2681C64.3681 66.2725 64.3346 66.2748 64.3008 66.2764C64.2456 66.0314 64.1791 65.7541 64.0979 65.4528C63.9084 64.7484 63.6449 63.9114 63.2853 63.0416C62.5447 61.2509 61.3957 59.3223 59.6554 58.1311C59.6223 58.1083 59.5888 58.0858 59.5553 58.0638C59.5219 58.0413 59.488 58.0193 59.4537 57.9976C59.4226 57.9779 59.3915 57.9582 59.36 57.9389C59.3284 57.9196 59.2965 57.9007 59.265 57.8818C59.2012 57.844 59.1366 57.8073 59.0716 57.7715C58.9747 57.7183 58.8758 57.6675 58.7758 57.6191C58.6088 57.5383 58.4386 57.469 58.2653 57.4099C58.2436 57.4028 58.2219 57.3953 58.2003 57.3882C58.1065 57.3579 58.0124 57.3303 57.9171 57.3063C57.9167 57.3063 57.9167 57.3059 57.9163 57.3059C57.8532 57.2897 57.7898 57.2748 57.726 57.2614C57.7256 57.2614 57.7252 57.2614 57.7248 57.261C56.6703 57.0361 55.5418 57.1645 54.4759 57.5438C54.3147 57.6013 54.1552 57.6644 53.9973 57.7329C53.9657 57.7471 53.9338 57.7609 53.9023 57.775C53.7452 57.8452 53.5903 57.9212 53.4379 58.0023C53.4072 58.0189 53.3765 58.0354 53.3461 58.052C53.2248 58.1177 53.105 58.1875 52.9877 58.2599C52.8699 58.3324 52.7541 58.4077 52.6402 58.4861C52.5831 58.5254 52.5268 58.5652 52.4709 58.6058C52.387 58.6661 52.3046 58.7283 52.2239 58.7921H52.2235C52.1695 58.8347 52.1159 58.8776 52.0636 58.9213H52.0632C51.9576 59.0088 51.8544 59.0986 51.7543 59.1908H51.7539C51.6787 59.2601 51.605 59.3302 51.5333 59.4019C51.3411 59.5933 51.1607 59.793 50.9941 59.9999C50.9673 60.0333 50.9405 60.0672 50.9141 60.1015C50.8617 60.1696 50.8105 60.2393 50.7605 60.3106C50.7605 60.311 50.7601 60.311 50.7601 60.3114C50.7101 60.3823 50.6612 60.4552 50.6136 60.5293C50.6136 60.5297 50.6132 60.5301 50.6132 60.5301C50.5655 60.6041 50.519 60.6793 50.4737 60.7562C50.3827 60.9106 50.2965 61.0697 50.2145 61.234C50.1322 61.3974 50.055 61.566 49.9821 61.7382C49.9089 61.9103 49.8399 62.0864 49.7749 62.266C49.7422 62.3558 49.7111 62.4464 49.6808 62.5378C49.1785 64.0437 48.943 65.7553 48.8603 67.3238C48.8579 67.3715 48.8555 67.4188 48.8532 67.466C48.8288 67.9911 48.8209 68.4993 48.826 68.9763V68.9771C48.826 68.9771 48.8256 68.9771 48.8256 68.9767C48.8134 68.9684 48.8 68.9597 48.7858 68.9511C48.7716 68.9424 48.7559 68.9337 48.7393 68.9247C48.7228 68.9156 48.7051 68.9066 48.6866 68.8979C48.6775 68.8932 48.668 68.8888 48.6582 68.8841C48.6483 68.8794 48.6385 68.8747 48.6283 68.8703C48.5861 68.851 48.5396 68.8309 48.4892 68.8104C48.3179 68.7411 48.1016 68.6671 47.8487 68.5891C47.779 68.5674 47.7065 68.5457 47.6313 68.5237C47.6041 68.5158 47.5769 68.5079 47.5493 68.5C47.4969 68.4847 47.4434 68.4697 47.3886 68.4544C47.3339 68.439 47.2783 68.4236 47.2216 68.4083C47.2165 68.4071 47.211 68.4055 47.2058 68.4039C47.1739 68.3953 47.1416 68.3866 47.1089 68.3779C46.0997 68.1077 44.7798 67.8146 43.4412 67.5531C43.0836 67.4834 42.7247 67.416 42.3698 67.3518C42.2607 67.3321 42.1524 67.3128 42.0444 67.2935C41.9672 67.2797 41.89 67.2663 41.8136 67.2529C40.4424 67.0154 39.1811 66.8381 38.3677 66.7854C38.4701 65.0813 38.5709 62.9187 38.8967 61.2426C39.0515 60.4426 39.2343 59.6426 39.5474 58.8906C39.9276 57.9803 40.4924 57.1582 41.127 56.4042C44.9988 51.8108 51.3033 49.4218 57.1647 50.9072C62.952 52.3741 64.3094 58.453 64.5572 62.8092C64.6096 63.7231 64.6127 64.5609 64.5974 65.2649H64.5966Z" fill="#FEDC9C"/>
<path d="M64.4017 66.2681C64.3682 66.2725 64.3348 66.2748 64.3009 66.2764C64.2457 66.0314 64.1792 65.7541 64.098 65.4528C63.9086 64.7484 63.645 63.9114 63.2854 63.0416C62.5448 61.2509 61.3958 59.3223 59.6555 58.1311C59.6224 58.1079 59.5889 58.0854 59.5554 58.0638C59.522 58.0413 59.4881 58.0193 59.4538 57.9976C59.4227 57.9775 59.3916 57.9578 59.3601 57.9389C59.3286 57.9192 59.297 57.9003 59.2651 57.8818C59.2013 57.8436 59.1371 57.8069 59.0717 57.7715C58.9748 57.7183 58.876 57.6675 58.7759 57.6191C58.6089 57.5383 58.4387 57.469 58.2654 57.4099C58.2437 57.4028 58.2221 57.3953 58.2004 57.3882C58.1066 57.3579 58.0121 57.3307 57.9172 57.3063C57.9168 57.3063 57.9168 57.3059 57.9164 57.3059C57.8534 57.2897 57.7896 57.2752 57.7261 57.2614C57.7257 57.2614 57.7253 57.2614 57.7249 57.261C57.6686 57.2492 57.6123 57.2385 57.5556 57.2287C57.5398 57.2259 57.5244 57.2232 57.5087 57.2204C57.4602 57.2121 57.4114 57.2051 57.3622 57.1984C57.3377 57.1952 57.3129 57.1917 57.2885 57.1889C57.2483 57.1842 57.2077 57.1794 57.1672 57.1755C57.1325 57.172 57.0978 57.1692 57.0628 57.1665C57.0447 57.1649 57.0269 57.1637 57.0088 57.1625C56.9478 57.1586 56.8863 57.1554 56.8249 57.1535C56.8178 57.1535 56.8111 57.1531 56.8044 57.1527C54.6509 57.0928 52.3603 58.3049 50.9962 59.9998C49.2161 62.2121 48.7985 66.1382 48.8281 68.9779C48.8273 68.9771 48.8265 68.9767 48.8253 68.9759C48.8131 68.9676 48.7997 68.9593 48.7851 68.9507C48.771 68.942 48.7552 68.9333 48.7387 68.9243C48.7221 68.9152 48.7044 68.9062 48.6859 68.8975C48.6768 68.8924 48.6674 68.888 48.6575 68.8837C48.6477 68.879 48.6378 68.8743 48.6276 68.8699C48.5854 68.8502 48.539 68.8301 48.4885 68.8101C48.3172 68.7407 48.1009 68.6667 47.848 68.5887C47.7783 68.567 47.7058 68.5453 47.6306 68.5233C47.6034 68.5154 47.5762 68.5075 47.5487 68.4997C47.4963 68.4843 47.4427 68.4693 47.3879 68.454C47.3332 68.4386 47.2777 68.4232 47.2209 68.4079C47.2158 68.4067 47.2103 68.4051 47.2052 68.4035C47.1733 68.3949 47.141 68.3862 47.1083 68.3775C46.0991 68.1081 44.7783 67.9033 43.4406 67.6421C43.4398 67.6421 42.6929 67.4751 42.6921 67.4747V67.4739C42.6906 67.3144 43.3192 55.7397 55.0499 54.6442C60.3425 54.1495 62.6989 58.9832 63.7329 62.8423C64.0043 63.8551 64.1839 64.8004 64.3021 65.5646C64.3423 65.8207 64.3753 66.0562 64.4017 66.2678V66.2681Z" fill="#FFF4DD"/>
<path d="M43.1497 66.4935C43.1363 66.5691 43.1225 66.6448 43.1087 66.7204L40.3612 66.6448C40.3604 66.6519 40.3596 66.6585 40.3585 66.6656C40.3565 66.6838 40.3541 66.7023 40.3514 66.7204L31.2824 67.1202C31.2824 67.1202 38.359 51.8077 31.072 33.4121C31.0724 33.4121 31.0724 33.4121 31.0728 33.4129C31.0736 33.4133 31.074 33.4141 31.0748 33.4145C31.0957 33.4314 31.2079 33.5224 31.395 33.6859C33.6202 35.6247 46.479 47.7564 43.1497 66.4935Z" fill="#FEDC9C"/>
<path d="M43.1496 66.4936L41.6839 66.4688L38.2801 66.4215C44.9829 50.0931 33.5134 35.5803 31.0747 33.4146C31.0956 33.4315 31.2078 33.5225 31.395 33.686C33.6202 35.6248 46.479 47.7564 43.1496 66.4936Z" fill="#FFF4DD"/>
<path d="M30.7439 36.0923C32.0611 36.4689 33.4343 35.7063 33.8113 34.3887C34.1879 33.071 33.4249 31.6979 32.1076 31.3213C30.7904 30.9447 29.4172 31.7073 29.0402 33.0249C28.6637 34.3422 29.4267 35.7157 30.7439 36.0923Z" fill="#FEDC9C"/>
<path d="M29.8296 35.6078C30.09 35.8264 30.3972 35.993 30.7439 36.0923C32.0615 36.4688 33.4343 35.7062 33.8112 34.3886C33.9704 33.8328 33.9274 33.2667 33.723 32.77C33.723 32.77 32.7303 34.2582 31.7653 34.9062C30.8014 35.5518 29.83 35.6078 29.83 35.6078H29.8296Z" fill="#FFF4DD"/>
<path fill-rule="evenodd" clip-rule="evenodd" d="M49.3911 71.664L37.6211 71.6644C37.5403 71.664 37.4607 71.664 37.3831 71.6644H27.8119C27.8119 71.6644 27.132 68.9949 27.4349 68.5718C27.5417 68.4237 27.6736 68.2973 27.8115 68.1791C28.9026 67.2448 30.3207 66.8217 31.71 66.5026C36.3665 65.4332 39.175 65.261 43.1618 66.0201C43.8921 66.1513 44.6638 66.312 45.493 66.5026C46.0775 66.637 46.6676 66.7898 47.236 66.9915C48.0183 67.2684 48.7597 67.6379 49.3911 68.1791C49.5294 68.2973 49.6613 68.4237 49.7681 68.5718C50.0686 68.9914 49.4017 71.6223 49.3911 71.664Z" fill="#FEDC9C"/>
<path fill-rule="evenodd" clip-rule="evenodd" d="M49.4279 71.66L37.6578 71.6604C37.5771 71.66 37.4975 71.66 37.4199 71.6604H33.1633C40.4928 70.9025 45.8488 69.007 46.4881 66.7405C46.7525 66.8145 47.0152 66.8961 47.2728 66.9875C48.0551 67.2644 48.7965 67.6339 49.4279 68.1751C49.5662 68.2933 49.6981 68.4197 49.8049 68.5678C50.1054 68.9873 49.4385 71.6183 49.4279 71.66Z" fill="#FFF4DD"/>
<path d="M63.5571 66.68C64.8744 67.0566 66.2476 66.2939 66.6245 64.9763C67.0011 63.6587 66.2381 62.2855 64.9209 61.9089C63.6036 61.5324 62.2305 62.295 61.8535 63.6126C61.4769 64.9298 62.2399 66.3034 63.5571 66.68Z" fill="#FEDC9C"/>
<path d="M62.6426 66.1954C62.903 66.414 63.2102 66.5806 63.5568 66.6799C64.8745 67.0565 66.2473 66.2939 66.6242 64.9762C66.7834 64.4204 66.7404 63.8544 66.536 63.3577C66.536 63.3577 65.5433 64.8459 64.5783 65.4938C63.6144 66.1395 62.643 66.1954 62.643 66.1954H62.6426Z" fill="#FFF4DD"/>
<path d="M12.3093 66.68C13.6266 67.0566 14.9997 66.2939 15.3767 64.9763C15.7533 63.6587 14.9903 62.2855 13.6731 61.9089C12.3558 61.5324 10.9826 62.295 10.6057 63.6126C10.2291 64.9298 10.9921 66.3034 12.3093 66.68Z" fill="#FEDC9C"/>
<path d="M11.395 66.1954C11.6554 66.414 11.9626 66.5806 12.3093 66.6799C13.6269 67.0565 14.9997 66.2939 15.3767 64.9762C15.5358 64.4204 15.4929 63.8544 15.2884 63.3577C15.2884 63.3577 14.2958 64.8459 13.3307 65.4938C12.3668 66.1395 11.3954 66.1954 11.3954 66.1954H11.395Z" fill="#FFF4DD"/>
</g>
<defs>
<clipPath id="clip0_4977_1465">
<rect width="56.2114" height="47.8318" fill="white" transform="translate(10.5095 31.2251)"/>
</clipPath>
</defs>
</svg>
