<svg width="126" height="194" viewBox="0 0 126 194" fill="none" xmlns="http://www.w3.org/2000/svg">
<path d="M0.200195 32.8704L62.6882 0L125.176 32.8704V160.368L62.6882 192.74L0.200195 160.368V32.8704Z" fill="#EAEAF6"/>
<path d="M0.200195 32.8704L62.6882 0V55.282V86.1605V192.74L0.200195 160.368V32.8704Z" fill="#FFE49B"/>
<path d="M0.200195 114.548L62.6882 74.7051V160.367V171.822V192.739L0.200195 160.367V114.548Z" fill="#E7AE67"/>
<path d="M62.6885 182.778V141.442L125.176 84.666V160.368L62.6885 192.739V187.262V182.778Z" fill="#FFBF67"/>
<path d="M4.88281 37.3799L62.6883 6.97266L120.494 37.3799V155.323L62.6883 185.27L4.88281 155.323V37.3799Z" fill="#85A6CF"/>
<path opacity="0.46" d="M5 101.5L64 52L73.5 79L94.5 100.118L54 181L5 155.5V101.5Z" fill="#B58F55"/>
<mask id="mask0_5369_1143" style="mask-type:luminance" maskUnits="userSpaceOnUse" x="33" y="52" width="63" height="76">
<path d="M95.0898 52H33V127.846H95.0898V52Z" fill="white"/>
</mask>
<g mask="url(#mask0_5369_1143)">
<path d="M90.6519 84.1537C87.1017 79.6755 78.4681 76.4076 73.1426 68.702C67.8575 60.9965 64.0651 52 64.0651 52C64.0651 52 60.2727 60.9965 54.9876 68.702C49.7025 76.448 41.0285 79.6755 37.4782 84.1537C35.219 86.9777 33 91.012 33 94.885C33 101.985 38.7692 107.755 45.8699 107.755C51.5584 107.755 59.7482 102.147 62.8145 96.2567C61.7251 104.083 58.3362 120.18 48.2097 127.845C52.4056 125.949 58.0135 124.779 64.1458 124.779C70.2781 124.779 75.4018 125.869 79.5573 127.603C69.6326 119.898 66.3243 103.962 65.2351 96.2163C68.3012 102.106 76.4912 107.755 82.2201 107.755C89.3207 107.755 95.0898 101.985 95.0898 94.885C95.0898 91.012 92.8709 86.9777 90.6117 84.1537H90.6519Z" fill="#FEDC9C"/>
<path d="M62.2057 124.779C62.5392 124.779 62.8697 124.783 63.1972 124.789C57.4364 124.903 52.1884 126.048 48.21 127.846C48.7582 127.431 49.2852 126.989 49.7945 126.528C53.4024 125.423 57.66 124.779 62.2057 124.779Z" fill="#FFF4DD"/>
<path d="M65.2578 96.3838C65.5004 97.839 65.6015 98.6296 65.8226 99.8309C67.3598 108.186 70.9967 120.957 79.5577 127.604C78.5042 127.164 77.3882 126.765 76.2095 126.416C67.3752 118.359 66.2939 103.751 65.2578 96.3838Z" fill="#FFF4DD"/>
<path d="M64.0654 52C64.0774 52.0284 67.8659 61.0087 73.1427 68.702C78.4681 76.4076 87.102 79.6755 90.6524 84.1536H90.6116C92.8708 86.9777 95.09 91.0122 95.09 94.8852C95.0899 101.985 89.3209 107.755 82.2203 107.755C81.931 107.755 81.6353 107.739 81.3345 107.711C87.9429 107.173 93.1496 101.63 93.1497 94.8852C93.1497 91.0122 90.9305 86.9777 88.6713 84.1536H88.7121C85.1617 79.6755 76.5278 76.4076 71.2024 68.702C67.5091 63.3174 64.7728 55.6379 64.0654 52Z" fill="#FFF4DD"/>
</g>
</svg>
