<svg width="78" height="119" viewBox="0 0 78 119" fill="none" xmlns="http://www.w3.org/2000/svg">
<path d="M0.748535 20.1628L38.9356 0L77.1227 20.1628V98.37L38.9356 118.227L0.748535 98.37V20.1628Z" fill="#FFEED6"/>
<path d="M0.748535 20.1628L38.9356 0V33.9101V52.851V118.227L0.748535 98.37V20.1628Z" fill="#FFE49B"/>
<path d="M0.748535 70.2642L38.9356 45.8245V98.3699V105.396V118.227L0.748535 98.3699V70.2642Z" fill="#E7AE67"/>
<path d="M38.9355 112.117V86.7612L77.1227 51.9346V98.3701L38.9355 118.227V114.867V112.117Z" fill="#FFBF67"/>
<path d="M3.61011 22.9287L38.9356 4.27686L74.2612 22.9287V95.2754L38.9356 113.645L3.61011 95.2754V22.9287Z" fill="#DDA244"/>
<path opacity="0.46" d="M3.49805 62.016L17.8564 52.8511L49.9336 71.1809L22.1334 104.786L3.49805 95.3151V62.016Z" fill="#BF8A3A"/>
<g clip-path="url(#clip0_4977_1490)">
<path d="M46.7072 79.0566C46.7072 79.0566 46.7063 79.0566 46.7058 79.0562V79.0571H46.7072V79.0566Z" fill="#FFF4DD"/>
<path d="M39.488 66.7886C39.3631 66.7969 39.2276 66.8079 39.0826 66.8213C39.031 66.8264 38.9783 66.8315 38.9239 66.8374C38.8944 66.8402 38.8644 66.8437 38.8341 66.8469C38.6742 66.8642 38.5048 66.8843 38.3271 66.9068C38.2869 66.9119 38.246 66.917 38.2046 66.9225C38.0274 66.9454 37.843 66.971 37.6528 66.9985C37.5925 67.0072 37.5318 67.0163 37.4704 67.0253C37.4396 67.0297 37.4089 67.0344 37.3782 67.0391C37.3392 67.045 37.2998 67.0509 37.2604 67.0568C37.236 67.0608 37.2116 67.0643 37.1872 67.0683C37.1005 67.0817 37.013 67.095 36.9248 67.1092C36.4687 67.1817 35.9905 67.2632 35.5044 67.3515C35.3862 67.3728 35.2672 67.3944 35.1479 67.4169C35.0868 67.4279 35.0258 67.4393 34.9651 67.4511C34.9387 67.4559 34.9119 67.461 34.8851 67.4661C34.7291 67.4953 34.5732 67.5252 34.4172 67.5559C31.9493 68.0377 29.5445 68.6281 29.0297 68.9803C29.0592 66.1406 28.6413 62.2145 26.8612 60.0023C25.0653 57.7708 21.6624 56.3752 19.0818 57.6211C16.8393 58.7048 15.4319 60.967 14.5727 63.0437C14.2127 63.9134 13.9488 64.7505 13.7597 65.4548C13.6786 65.7569 13.6116 66.0346 13.5565 66.28C13.523 66.2785 13.4895 66.2761 13.4556 66.2722C13.4013 66.2663 13.3465 66.258 13.2918 66.2466C13.2914 66.2407 13.291 66.2351 13.291 66.2292C13.2882 66.1662 13.2851 66.1008 13.2823 66.0335V66.0323C13.278 65.9243 13.2736 65.8105 13.2697 65.6919C13.2681 65.6443 13.2665 65.5958 13.265 65.5462C13.2638 65.5076 13.2626 65.4686 13.2618 65.4292C13.2429 64.6934 13.2421 63.7964 13.2984 62.8113C13.4269 60.5534 13.8535 57.833 15.0407 55.5326C15.2656 55.0969 15.5177 54.6762 15.7998 54.2764C15.877 54.1677 15.9562 54.0602 16.0377 53.9542C16.1192 53.8486 16.2031 53.7446 16.2894 53.6422C16.3761 53.5402 16.4647 53.4397 16.5557 53.3409C16.6164 53.2755 16.6782 53.2105 16.7412 53.1467C16.7727 53.1148 16.8046 53.0829 16.8366 53.0514C17.83 52.0741 19.0913 51.3162 20.6914 50.9104C22.8177 50.3716 25.0027 50.3424 27.1086 50.7438C27.181 50.7576 27.2531 50.7718 27.3256 50.7868H27.326C27.3981 50.8017 27.4702 50.8171 27.5423 50.8328C27.6506 50.8565 27.7585 50.8813 27.8664 50.9073C27.9381 50.925 28.0094 50.9427 28.0811 50.9609C28.3675 51.0341 28.6519 51.1153 28.9339 51.2047C29.0044 51.2272 29.0746 51.2496 29.1447 51.2728C29.3204 51.3311 29.4949 51.3922 29.6686 51.456C29.8072 51.5072 29.9455 51.5604 30.083 51.6152H30.0834C30.2551 51.6841 30.4261 51.7558 30.5955 51.8298C30.5955 51.8298 30.5956 51.8298 30.5958 51.8298C31.4443 52.2021 32.2641 52.6456 33.0436 53.1538C33.1058 53.1939 33.1681 53.2353 33.2303 53.2771C33.4777 53.4433 33.7207 53.6158 33.9594 53.7947C34.0788 53.8841 34.197 53.9751 34.314 54.068C34.4893 54.2071 34.6622 54.3497 34.8324 54.4954C35.1723 54.7873 35.5012 55.093 35.8175 55.4121C35.9231 55.5184 36.0271 55.6263 36.1299 55.7355C36.3351 55.9537 36.5348 56.1778 36.7282 56.4075C36.768 56.4547 36.8074 56.502 36.8464 56.5497C37.2955 57.0976 37.7051 57.6818 38.0329 58.3089C38.0329 58.3089 38.0333 58.3089 38.0333 58.3093C38.09 58.4184 38.1444 58.5287 38.196 58.6402C38.2346 58.7241 38.272 58.8084 38.3074 58.8938C38.4055 59.129 38.4906 59.3685 38.5658 59.6115C38.5962 59.7084 38.6249 59.8061 38.6521 59.9042C38.7754 60.3458 38.8715 60.796 38.9582 61.2459C39.0295 61.6126 39.0901 62.0026 39.1421 62.4059C39.1642 62.5785 39.1851 62.7534 39.2048 62.9302V62.931C39.2631 63.4616 39.3091 64.0076 39.3481 64.5476C39.3485 64.5476 39.3481 64.548 39.3481 64.548C39.3785 64.9679 39.4045 65.3847 39.4285 65.7877C39.449 66.1335 39.4679 66.4691 39.4872 66.7886H39.488Z" fill="#FEDC9C"/>
<path d="M34.416 67.5564C34.416 67.5564 34.417 67.5564 34.4174 67.5559V67.5569H34.416V67.5564Z" fill="#FFF4DD"/>
<path d="M39.4879 66.7886C39.3631 66.7969 39.2276 66.8079 39.0826 66.8213C39.031 66.8264 38.9782 66.8315 38.9239 66.8374C38.8943 66.8402 38.8644 66.8437 38.834 66.8469C38.6741 66.8642 38.5047 66.8843 38.3271 66.9068C38.2865 66.9119 38.2459 66.917 38.2046 66.9225C38.0273 66.9454 37.843 66.971 37.6527 66.9985C37.5924 67.0072 37.5318 67.0163 37.4703 67.0253C37.4396 67.0297 37.4089 67.0344 37.3781 67.0391C37.3391 67.045 37.2998 67.0509 37.2604 67.0568C37.2359 67.0608 37.2115 67.0643 37.1871 67.0683C37.1004 67.0817 37.013 67.095 36.9248 67.1092C36.4686 67.1817 35.9904 67.2632 35.5043 67.3515C35.3857 67.3728 35.2672 67.3948 35.1478 67.4169C35.0872 67.4283 35.0261 67.4397 34.9651 67.4511C34.9387 67.4559 34.9119 67.461 34.8851 67.4661C34.7291 67.4957 34.5731 67.5256 34.4171 67.5559C34.4187 67.4437 34.5625 55.7445 22.8082 54.6467C17.5152 54.1519 15.1588 58.9856 14.1248 62.8448C13.8534 63.8575 13.6734 64.8029 13.5552 65.5671C13.515 65.8239 13.4824 66.0602 13.4556 66.2722C13.4012 66.2663 13.3465 66.258 13.2917 66.2466C13.2913 66.2407 13.2909 66.2351 13.2909 66.2292C13.2878 66.1662 13.285 66.1008 13.2822 66.0335V66.0323C13.2775 65.924 13.2732 65.8105 13.2692 65.6919C13.2677 65.6443 13.2661 65.5954 13.2649 65.5462C13.2637 65.5076 13.2626 65.4686 13.2618 65.4292C13.2425 64.6934 13.2421 63.7968 13.298 62.8117C13.3543 61.8237 13.4678 60.7472 13.6769 59.6564C13.9456 58.2537 14.373 56.827 15.0407 55.5326C15.2652 55.0969 15.5173 54.6762 15.7997 54.2764C15.8765 54.1677 15.9557 54.0602 16.0377 53.9542C16.1192 53.8486 16.2031 53.7446 16.2894 53.6422C16.3756 53.5402 16.4643 53.4397 16.5556 53.3409C16.6163 53.2755 16.6782 53.2105 16.7412 53.1467C16.7727 53.1148 16.8046 53.0829 16.8365 53.0514C17.8299 52.0741 19.0912 51.3162 20.6913 50.9104C22.8176 50.3716 25.0027 50.3424 27.1085 50.7438C27.181 50.7576 27.2531 50.7718 27.3256 50.7868H27.3259C27.398 50.8017 27.4701 50.8167 27.5422 50.8328C27.6505 50.8565 27.7585 50.8813 27.8664 50.9073C27.9381 50.9246 28.0094 50.9427 28.0811 50.9609C28.3674 51.0341 28.6518 51.1153 28.9339 51.2047C29.0044 51.2268 29.0749 51.2496 29.1446 51.2728C29.3203 51.3307 29.4948 51.3918 29.6685 51.456C29.8072 51.5068 29.9454 51.56 30.0829 51.6152H30.0833C30.2551 51.6837 30.426 51.755 30.5954 51.8298C30.5954 51.8298 30.5955 51.8298 30.5958 51.8298C31.4443 52.2017 32.264 52.6448 33.0436 53.1538C33.1058 53.1939 33.168 53.2353 33.2303 53.2771C33.4776 53.4429 33.7207 53.6154 33.9594 53.7947C34.0788 53.8841 34.1969 53.9751 34.3139 54.068C34.4896 54.2067 34.6625 54.3493 34.8323 54.4954C35.1722 54.7873 35.5012 55.093 35.8175 55.4121C35.923 55.518 36.027 55.6259 36.1298 55.7355C36.3351 55.9537 36.5348 56.1778 36.7282 56.4075C36.768 56.4547 36.8074 56.502 36.8464 56.5497C37.2966 57.098 37.7063 57.6818 38.0328 58.3089C38.0328 58.3089 38.0332 58.3089 38.0332 58.3093C38.0899 58.418 38.1443 58.5287 38.1959 58.6402C38.2345 58.7241 38.2719 58.8084 38.3074 58.8938C38.4055 59.129 38.4905 59.3685 38.5658 59.6115C38.5961 59.7084 38.6245 59.8061 38.6521 59.9042C38.7746 60.3458 38.8703 60.796 38.9581 61.2459C39.0294 61.6126 39.0901 62.0026 39.1421 62.4059C39.1645 62.5785 39.1854 62.7534 39.2047 62.9302V62.931C39.263 63.4616 39.3091 64.0076 39.3481 64.5476C39.3485 64.5476 39.3481 64.548 39.3481 64.548C39.3784 64.9679 39.4044 65.3847 39.4285 65.7877C39.4489 66.1335 39.4678 66.4691 39.4871 66.7886H39.4879Z" fill="#FFF4DD"/>
<path d="M65.2226 65.2649C65.2151 65.6296 65.2021 65.9581 65.1891 66.2425C65.1477 66.2516 65.1056 66.2587 65.0634 66.2638C65.0516 66.2654 65.0398 66.267 65.0276 66.2681C64.9941 66.2725 64.9606 66.2748 64.9267 66.2764C64.8716 66.0314 64.805 65.7541 64.7239 65.4528C64.5344 64.7484 64.2709 63.9114 63.9113 63.0416C63.1707 61.2509 62.0217 59.3223 60.2814 58.1311C60.2483 58.1083 60.2148 58.0858 60.1813 58.0638C60.1478 58.0413 60.114 58.0193 60.0797 57.9976C60.0486 57.9779 60.0174 57.9582 59.9859 57.9389C59.9544 57.9196 59.9225 57.9007 59.891 57.8818C59.8272 57.844 59.7626 57.8073 59.6976 57.7715C59.6007 57.7183 59.5018 57.6675 59.4018 57.6191C59.2347 57.5383 59.0646 57.469 58.8913 57.4099C58.8696 57.4028 58.8479 57.3953 58.8263 57.3882C58.7325 57.3579 58.6384 57.3303 58.543 57.3063C58.5426 57.3063 58.5426 57.3059 58.5422 57.3059C58.4792 57.2897 58.4158 57.2748 58.352 57.2614C58.3516 57.2614 58.3512 57.2614 58.3508 57.261C57.2963 57.0361 56.1678 57.1645 55.1018 57.5438C54.9407 57.6013 54.7812 57.6644 54.6232 57.7329C54.5917 57.7471 54.5598 57.7609 54.5283 57.775C54.3711 57.8452 54.2163 57.9212 54.0639 58.0023C54.0332 58.0189 54.0024 58.0354 53.9721 58.052C53.8508 58.1177 53.731 58.1875 53.6136 58.2599C53.4959 58.3324 53.3801 58.4077 53.2662 58.4861C53.2091 58.5254 53.1528 58.5652 53.0968 58.6058C53.0129 58.6661 52.9306 58.7283 52.8498 58.7921H52.8495C52.7955 58.8347 52.7419 58.8776 52.6895 58.9213H52.6891C52.5836 59.0088 52.4804 59.0986 52.3803 59.1908H52.3799C52.3047 59.2601 52.231 59.3302 52.1593 59.4019C51.9671 59.5933 51.7867 59.793 51.6201 59.9999C51.5933 60.0333 51.5665 60.0672 51.5401 60.1015C51.4877 60.1696 51.4365 60.2393 51.3865 60.3106C51.3865 60.311 51.3861 60.311 51.3861 60.3114C51.3361 60.3823 51.2872 60.4552 51.2395 60.5293C51.2395 60.5297 51.2391 60.5301 51.2391 60.5301C51.1915 60.6041 51.145 60.6793 51.0997 60.7562C51.0087 60.9106 50.9224 61.0697 50.8405 61.234C50.7582 61.3974 50.681 61.566 50.6081 61.7382C50.5348 61.9103 50.4659 62.0864 50.4009 62.266C50.3682 62.3558 50.3371 62.4464 50.3068 62.5378C49.8045 64.0437 49.569 65.7553 49.4862 67.3238C49.4839 67.3715 49.4815 67.4188 49.4792 67.466C49.4547 67.9911 49.4469 68.4993 49.452 68.9763V68.9771C49.452 68.9771 49.4516 68.9771 49.4516 68.9767C49.4394 68.9684 49.426 68.9597 49.4118 68.9511C49.3976 68.9424 49.3819 68.9337 49.3653 68.9247C49.3488 68.9156 49.331 68.9066 49.3125 68.8979C49.3035 68.8932 49.294 68.8888 49.2842 68.8841C49.2743 68.8794 49.2645 68.8747 49.2542 68.8703C49.2121 68.851 49.1656 68.8309 49.1152 68.8104C48.9438 68.7411 48.7276 68.6671 48.4747 68.5891C48.405 68.5674 48.3325 68.5457 48.2572 68.5237C48.2301 68.5158 48.2029 68.5079 48.1753 68.5C48.1229 68.4847 48.0694 68.4697 48.0146 68.4544C47.9598 68.439 47.9043 68.4236 47.8476 68.4083C47.8425 68.4071 47.8369 68.4055 47.8318 68.4039C47.7999 68.3953 47.7676 68.3866 47.7349 68.3779C46.7257 68.1077 45.4057 67.8146 44.0672 67.5531C43.7096 67.4834 43.3507 67.416 42.9958 67.3518C42.8867 67.3321 42.7783 67.3128 42.6704 67.2935C42.5932 67.2797 42.516 67.2663 42.4396 67.2529C41.0684 67.0154 39.8071 66.8381 38.9937 66.7854C39.0961 65.0813 39.1969 62.9187 39.5227 61.2426C39.6775 60.4426 39.8603 59.6426 40.1734 58.8906C40.5535 57.9803 41.1184 57.1582 41.753 56.4042C45.6247 51.8108 51.9293 49.4218 57.7907 50.9072C63.578 52.3741 64.9354 58.453 65.1832 62.8092C65.2356 63.7231 65.2387 64.5609 65.2234 65.2649H65.2226Z" fill="#FEDC9C"/>
<path d="M65.0277 66.2681C64.9942 66.2725 64.9607 66.2748 64.9269 66.2764C64.8717 66.0314 64.8052 65.7541 64.724 65.4528C64.5345 64.7484 64.271 63.9114 63.9114 63.0416C63.1708 61.2509 62.0218 59.3223 60.2815 58.1311C60.2484 58.1079 60.2149 58.0854 60.1814 58.0638C60.1479 58.0413 60.1141 58.0193 60.0798 57.9976C60.0487 57.9775 60.0176 57.9578 59.986 57.9389C59.9545 57.9192 59.923 57.9003 59.8911 57.8818C59.8273 57.8436 59.7631 57.8069 59.6977 57.7715C59.6008 57.7183 59.5019 57.6675 59.4019 57.6191C59.2349 57.5383 59.0647 57.469 58.8914 57.4099C58.8697 57.4028 58.848 57.3953 58.8264 57.3882C58.7326 57.3579 58.6381 57.3307 58.5432 57.3063C58.5428 57.3063 58.5428 57.3059 58.5424 57.3059C58.4793 57.2897 58.4155 57.2752 58.3521 57.2614C58.3517 57.2614 58.3513 57.2614 58.3509 57.261C58.2946 57.2492 58.2383 57.2385 58.1815 57.2287C58.1658 57.2259 58.1504 57.2232 58.1347 57.2204C58.0862 57.2121 58.0374 57.2051 57.9881 57.1984C57.9637 57.1952 57.9389 57.1917 57.9145 57.1889C57.8743 57.1842 57.8337 57.1794 57.7931 57.1755C57.7585 57.172 57.7238 57.1692 57.6888 57.1665C57.6706 57.1649 57.6529 57.1637 57.6348 57.1625C57.5737 57.1586 57.5123 57.1554 57.4508 57.1535C57.4438 57.1535 57.4371 57.1531 57.4304 57.1527C55.2768 57.0928 52.9863 58.3049 51.6221 59.9998C49.8421 62.2121 49.4245 66.1382 49.4541 68.9779C49.4533 68.9771 49.4525 68.9767 49.4513 68.9759C49.4391 68.9676 49.4257 68.9593 49.4111 68.9507C49.3969 68.942 49.3812 68.9333 49.3646 68.9243C49.3481 68.9152 49.3304 68.9062 49.3119 68.8975C49.3028 68.8924 49.2933 68.888 49.2835 68.8837C49.2737 68.879 49.2638 68.8743 49.2536 68.8699C49.2114 68.8502 49.1649 68.8301 49.1145 68.8101C48.9432 68.7407 48.7269 68.6667 48.474 68.5887C48.4043 68.567 48.3318 68.5453 48.2566 68.5233C48.2294 68.5154 48.2022 68.5075 48.1746 68.4997C48.1223 68.4843 48.0687 68.4693 48.0139 68.454C47.9592 68.4386 47.9036 68.4232 47.8469 68.4079C47.8418 68.4067 47.8363 68.4051 47.8312 68.4035C47.7992 68.3949 47.7669 68.3862 47.7342 68.3775C46.725 68.1081 45.4043 67.9033 44.0665 67.6421C44.0658 67.6421 43.3189 67.4751 43.3181 67.4747V67.4739C43.3165 67.3144 43.9452 55.7397 55.6759 54.6442C60.9685 54.1495 63.3248 58.9832 64.3588 62.8423C64.6303 63.8551 64.8099 64.8004 64.928 65.5646C64.9682 65.8207 65.0013 66.0562 65.0277 66.2678V66.2681Z" fill="#FFF4DD"/>
<path d="M43.7757 66.4935C43.7623 66.5691 43.7485 66.6448 43.7347 66.7204L40.9872 66.6448C40.9864 66.6519 40.9856 66.6585 40.9844 66.6656C40.9825 66.6838 40.9801 66.7023 40.9773 66.7204L31.9083 67.1202C31.9083 67.1202 38.9849 51.8077 31.698 33.4121C31.6984 33.4121 31.6984 33.4121 31.6988 33.4129C31.6996 33.4133 31.7 33.4141 31.7008 33.4145C31.7216 33.4314 31.8339 33.5224 32.021 33.6859C34.2462 35.6247 47.105 47.7564 43.7757 66.4935Z" fill="#FEDC9C"/>
<path d="M43.7756 66.4936L42.3099 66.4688L38.9061 66.4215C45.6089 50.0931 34.1394 35.5803 31.7007 33.4146C31.7216 33.4315 31.8338 33.5225 32.0209 33.686C34.2461 35.6248 47.1049 47.7564 43.7756 66.4936Z" fill="#FFF4DD"/>
<path d="M31.3699 36.0923C32.6871 36.4689 34.0603 35.7063 34.4373 34.3887C34.8138 33.071 34.0508 31.6979 32.7336 31.3213C31.4164 30.9447 30.0432 31.7073 29.6662 33.0249C29.2896 34.3422 30.0526 35.7157 31.3699 36.0923Z" fill="#FEDC9C"/>
<path d="M30.4556 35.6078C30.7159 35.8264 31.0232 35.993 31.3698 36.0923C32.6875 36.4688 34.0602 35.7062 34.4372 34.3886C34.5964 33.8328 34.5534 33.2667 34.349 32.77C34.349 32.77 33.3563 34.2582 32.3912 34.9062C31.4273 35.5518 30.456 35.6078 30.456 35.6078H30.4556Z" fill="#FFF4DD"/>
<path fill-rule="evenodd" clip-rule="evenodd" d="M50.0171 71.664L38.247 71.6644C38.1663 71.664 38.0867 71.664 38.0091 71.6644H28.4379C28.4379 71.6644 27.758 68.9949 28.0609 68.5718C28.1677 68.4237 28.2996 68.2973 28.4375 68.1791C29.5286 67.2448 30.9467 66.8217 32.336 66.5026C36.9924 65.4332 39.801 65.261 43.7878 66.0201C44.5181 66.1513 45.2898 66.312 46.1189 66.5026C46.7035 66.637 47.2936 66.7898 47.862 66.9915C48.6443 67.2684 49.3856 67.6379 50.0171 68.1791C50.1553 68.2973 50.2873 68.4237 50.3941 68.5718C50.6946 68.9914 50.0277 71.6223 50.0171 71.664Z" fill="#FEDC9C"/>
<path fill-rule="evenodd" clip-rule="evenodd" d="M50.0539 71.66L38.2838 71.6604C38.2031 71.66 38.1235 71.66 38.0459 71.6604H33.7893C41.1188 70.9025 46.4748 69.007 47.1141 66.7405C47.3784 66.8145 47.6412 66.8961 47.8988 66.9875C48.6811 67.2644 49.4224 67.6339 50.0539 68.1751C50.1921 68.2933 50.3241 68.4197 50.4308 68.5678C50.7314 68.9873 50.0645 71.6183 50.0539 71.66Z" fill="#FFF4DD"/>
<path d="M64.1831 66.68C65.5004 67.0566 66.8735 66.2939 67.2505 64.9763C67.6271 63.6587 66.8641 62.2855 65.5468 61.9089C64.2296 61.5324 62.8564 62.295 62.4795 63.6126C62.1029 64.9298 62.8659 66.3034 64.1831 66.68Z" fill="#FEDC9C"/>
<path d="M63.2686 66.1954C63.5289 66.414 63.8362 66.5806 64.1828 66.6799C65.5005 67.0565 66.8732 66.2939 67.2502 64.9762C67.4093 64.4204 67.3664 63.8544 67.162 63.3577C67.162 63.3577 66.1693 64.8459 65.2042 65.4938C64.2403 66.1395 63.2689 66.1954 63.2689 66.1954H63.2686Z" fill="#FFF4DD"/>
<path d="M12.9353 66.68C14.2526 67.0566 15.6257 66.2939 16.0027 64.9763C16.3793 63.6587 15.6163 62.2855 14.299 61.9089C12.9818 61.5324 11.6086 62.295 11.2317 63.6126C10.8551 64.9298 11.6181 66.3034 12.9353 66.68Z" fill="#FEDC9C"/>
<path d="M12.021 66.1954C12.2814 66.414 12.5886 66.5806 12.9353 66.6799C14.2529 67.0565 15.6257 66.2939 16.0026 64.9762C16.1618 64.4204 16.1188 63.8544 15.9144 63.3577C15.9144 63.3577 14.9218 64.8459 13.9567 65.4938C12.9928 66.1395 12.0214 66.1954 12.0214 66.1954H12.021Z" fill="#FFF4DD"/>
</g>
<defs>
<clipPath id="clip0_4977_1490">
<rect width="56.2114" height="47.8318" fill="white" transform="translate(11.1355 31.2251)"/>
</clipPath>
</defs>
</svg>
