<svg width="77" height="119" viewBox="0 0 77 119" fill="none" xmlns="http://www.w3.org/2000/svg">
<path d="M0.496826 20.1628L38.6839 0L76.871 20.1628V98.37L38.6839 118.227L0.496826 98.37V20.1628Z" fill="#FFEED6"/>
<path d="M0.496826 20.1628L38.6839 0V33.9101V52.851V118.227L0.496826 98.37V20.1628Z" fill="#FFE49B"/>
<path d="M0.496826 70.2642L38.6839 45.8245V98.3699V105.396V118.227L0.496826 98.3699V70.2642Z" fill="#E7AE67"/>
<path d="M38.684 112.117V86.7612L76.8711 51.9346V98.3701L38.684 118.227V114.867V112.117Z" fill="#FFBF67"/>
<path d="M3.3584 22.9287L38.6839 4.27686L74.0095 22.9287V95.2754L38.6839 113.645L3.3584 95.2754V22.9287Z" fill="#A579C6"/>
<path opacity="0.46" d="M3.24634 62.016L17.6047 52.8511L49.6819 71.1809L21.8816 104.786L3.24634 95.3151V62.016Z" fill="#BF8A3A"/>
<g clip-path="url(#clip0_4977_1440)">
<path d="M46.4553 79.0566C46.4553 79.0566 46.4543 79.0566 46.4539 79.0562V79.0571H46.4553V79.0566Z" fill="#FFF4DD"/>
<path d="M39.2362 66.7886C39.1113 66.7969 38.9758 66.8079 38.8308 66.8213C38.7792 66.8264 38.7264 66.8315 38.6721 66.8374C38.6425 66.8402 38.6126 66.8437 38.5823 66.8469C38.4223 66.8642 38.253 66.8843 38.0753 66.9068C38.0351 66.9119 37.9942 66.917 37.9528 66.9225C37.7755 66.9454 37.5912 66.971 37.4009 66.9985C37.3407 67.0072 37.28 67.0163 37.2185 67.0253C37.1878 67.0297 37.1571 67.0344 37.1264 67.0391C37.0874 67.045 37.048 67.0509 37.0086 67.0568C36.9842 67.0608 36.9597 67.0643 36.9353 67.0683C36.8487 67.0817 36.7612 67.095 36.673 67.1092C36.2168 67.1817 35.7386 67.2632 35.2525 67.3515C35.1344 67.3728 35.0154 67.3944 34.896 67.4169C34.835 67.4279 34.7739 67.4393 34.7133 67.4511C34.6869 67.4559 34.6601 67.461 34.6333 67.4661C34.4773 67.4953 34.3213 67.5252 34.1653 67.5559C31.6975 68.0377 29.2927 68.6281 28.7778 68.9803C28.8074 66.1406 28.3894 62.2145 26.6094 60.0023C24.8135 57.7708 21.4105 56.3752 18.83 57.6211C16.5875 58.7048 15.18 60.967 14.3209 63.0437C13.9609 63.9134 13.697 64.7505 13.5079 65.4548C13.4267 65.7569 13.3598 66.0346 13.3046 66.28C13.2711 66.2785 13.2377 66.2761 13.2038 66.2722C13.1494 66.2663 13.0947 66.258 13.0399 66.2466C13.0395 66.2407 13.0391 66.2351 13.0391 66.2292C13.0364 66.1662 13.0332 66.1008 13.0305 66.0335V66.0323C13.0261 65.9243 13.0218 65.8105 13.0179 65.6919C13.0163 65.6443 13.0147 65.5958 13.0131 65.5462C13.012 65.5076 13.0108 65.4686 13.01 65.4292C12.9911 64.6934 12.9903 63.7964 13.0466 62.8113C13.175 60.5534 13.6016 57.833 14.7889 55.5326C15.0138 55.0969 15.2659 54.6762 15.5479 54.2764C15.6252 54.1677 15.7043 54.0602 15.7859 53.9542C15.8674 53.8486 15.9513 53.7446 16.0376 53.6422C16.1242 53.5402 16.2129 53.4397 16.3039 53.3409C16.3645 53.2755 16.4264 53.2105 16.4894 53.1467C16.5209 53.1148 16.5528 53.0829 16.5847 53.0514C17.5782 52.0741 18.8395 51.3162 20.4395 50.9104C22.5659 50.3716 24.7509 50.3424 26.8567 50.7438C26.9292 50.7576 27.0013 50.7718 27.0738 50.7868H27.0742C27.1463 50.8017 27.2183 50.8171 27.2904 50.8328C27.3987 50.8565 27.5067 50.8813 27.6146 50.9073C27.6863 50.925 27.7576 50.9427 27.8293 50.9609C28.1157 51.0341 28.4001 51.1153 28.6821 51.2047C28.7526 51.2272 28.8227 51.2496 28.8929 51.2728C29.0685 51.3311 29.243 51.3922 29.4168 51.456C29.5554 51.5072 29.6937 51.5604 29.8311 51.6152H29.8315C30.0033 51.6841 30.1742 51.7558 30.3436 51.8298C30.3436 51.8298 30.3438 51.8298 30.344 51.8298C31.1925 52.2021 32.0122 52.6456 32.7918 53.1538C32.854 53.1939 32.9163 53.2353 32.9785 53.2771C33.2259 53.4433 33.4689 53.6158 33.7076 53.7947C33.827 53.8841 33.9451 53.9751 34.0621 54.068C34.2374 54.2071 34.4104 54.3497 34.5805 54.4954C34.9205 54.7873 35.2494 55.093 35.5657 55.4121C35.6713 55.5184 35.7753 55.6263 35.8781 55.7355C36.0833 55.9537 36.283 56.1778 36.4764 56.4075C36.5162 56.4547 36.5556 56.502 36.5946 56.5497C37.0436 57.0976 37.4533 57.6818 37.781 58.3089C37.781 58.3089 37.7814 58.3089 37.7814 58.3093C37.8382 58.4184 37.8925 58.5287 37.9441 58.6402C37.9827 58.7241 38.0201 58.8084 38.0556 58.8938C38.1537 59.129 38.2388 59.3685 38.314 59.6115C38.3443 59.7084 38.3731 59.8061 38.4003 59.9042C38.5236 60.3458 38.6197 60.796 38.7063 61.2459C38.7776 61.6126 38.8383 62.0026 38.8903 62.4059C38.9124 62.5785 38.9332 62.7534 38.9529 62.9302V62.931C39.0112 63.4616 39.0573 64.0076 39.0963 64.5476C39.0967 64.5476 39.0963 64.548 39.0963 64.548C39.1266 64.9679 39.1526 65.3847 39.1767 65.7877C39.1972 66.1335 39.2161 66.4691 39.2354 66.7886H39.2362Z" fill="#FEDC9C"/>
<path d="M34.1642 67.5564C34.1642 67.5564 34.1651 67.5564 34.1656 67.5559V67.5569H34.1642V67.5564Z" fill="#FFF4DD"/>
<path d="M39.2361 66.7886C39.1112 66.7969 38.9757 66.8079 38.8308 66.8213C38.7792 66.8264 38.7264 66.8315 38.672 66.8374C38.6425 66.8402 38.6125 66.8437 38.5822 66.8469C38.4223 66.8642 38.2529 66.8843 38.0752 66.9068C38.0347 66.9119 37.9941 66.917 37.9527 66.9225C37.7755 66.9454 37.5911 66.971 37.4009 66.9985C37.3406 67.0072 37.2799 67.0163 37.2185 67.0253C37.1878 67.0297 37.157 67.0344 37.1263 67.0391C37.0873 67.045 37.0479 67.0509 37.0085 67.0568C36.9841 67.0608 36.9597 67.0643 36.9353 67.0683C36.8486 67.0817 36.7612 67.095 36.6729 67.1092C36.2168 67.1817 35.7386 67.2632 35.2525 67.3515C35.1339 67.3728 35.0153 67.3948 34.896 67.4169C34.8353 67.4283 34.7743 67.4397 34.7132 67.4511C34.6868 67.4559 34.66 67.461 34.6333 67.4661C34.4773 67.4957 34.3213 67.5256 34.1653 67.5559C34.1669 67.4437 34.3106 55.7445 22.5564 54.6467C17.2634 54.1519 14.907 58.9856 13.873 62.8448C13.6016 63.8575 13.4216 64.8029 13.3034 65.5671C13.2632 65.8239 13.2305 66.0602 13.2037 66.2722C13.1494 66.2663 13.0946 66.258 13.0399 66.2466C13.0395 66.2407 13.0391 66.2351 13.0391 66.2292C13.0359 66.1662 13.0332 66.1008 13.0304 66.0335V66.0323C13.0257 65.924 13.0214 65.8105 13.0174 65.6919C13.0158 65.6443 13.0143 65.5954 13.0131 65.5462C13.0119 65.5076 13.0107 65.4686 13.0099 65.4292C12.9906 64.6934 12.9902 63.7968 13.0462 62.8117C13.1025 61.8237 13.2159 60.7472 13.4251 59.6564C13.6938 58.2537 14.1212 56.827 14.7888 55.5326C15.0134 55.0969 15.2655 54.6762 15.5479 54.2764C15.6247 54.1677 15.7039 54.0602 15.7858 53.9542C15.8674 53.8486 15.9513 53.7446 16.0375 53.6422C16.1238 53.5402 16.2124 53.4397 16.3038 53.3409C16.3645 53.2755 16.4263 53.2105 16.4893 53.1467C16.5209 53.1148 16.5528 53.0829 16.5847 53.0514C17.5781 52.0741 18.8394 51.3162 20.4395 50.9104C22.5658 50.3716 24.7508 50.3424 26.8567 50.7438C26.9292 50.7576 27.0012 50.7718 27.0737 50.7868H27.0741C27.1462 50.8017 27.2183 50.8167 27.2904 50.8328C27.3987 50.8565 27.5066 50.8813 27.6146 50.9073C27.6863 50.9246 27.7575 50.9427 27.8292 50.9609C28.1156 51.0341 28.4 51.1153 28.6821 51.2047C28.7526 51.2268 28.8231 51.2496 28.8928 51.2728C29.0685 51.3307 29.243 51.3918 29.4167 51.456C29.5554 51.5068 29.6936 51.56 29.8311 51.6152H29.8315C30.0032 51.6837 30.1742 51.755 30.3436 51.8298C30.3436 51.8298 30.3437 51.8298 30.344 51.8298C31.1924 52.2017 32.0122 52.6448 32.7917 53.1538C32.854 53.1939 32.9162 53.2353 32.9784 53.2771C33.2258 53.4429 33.4689 53.6154 33.7076 53.7947C33.8269 53.8841 33.9451 53.9751 34.0621 54.068C34.2378 54.2067 34.4107 54.3493 34.5805 54.4954C34.9204 54.7873 35.2493 55.093 35.5656 55.4121C35.6712 55.518 35.7752 55.6259 35.878 55.7355C36.0832 55.9537 36.283 56.1778 36.4764 56.4075C36.5161 56.4547 36.5555 56.502 36.5945 56.5497C37.0448 57.098 37.4544 57.6818 37.781 58.3089C37.781 58.3089 37.7814 58.3089 37.7814 58.3093C37.8381 58.418 37.8925 58.5287 37.9441 58.6402C37.9827 58.7241 38.0201 58.8084 38.0555 58.8938C38.1536 59.129 38.2387 59.3685 38.314 59.6115C38.3443 59.7084 38.3726 59.8061 38.4002 59.9042C38.5227 60.3458 38.6184 60.796 38.7063 61.2459C38.7776 61.6126 38.8382 62.0026 38.8902 62.4059C38.9127 62.5785 38.9336 62.7534 38.9529 62.9302V62.931C39.0112 63.4616 39.0573 64.0076 39.0963 64.5476C39.0967 64.5476 39.0963 64.548 39.0963 64.548C39.1266 64.9679 39.1526 65.3847 39.1766 65.7877C39.1971 66.1335 39.216 66.4691 39.2353 66.7886H39.2361Z" fill="#FFF4DD"/>
<path d="M64.9707 65.2649C64.9633 65.6296 64.9503 65.9581 64.9373 66.2425C64.8959 66.2516 64.8538 66.2587 64.8116 66.2638C64.7998 66.2654 64.788 66.267 64.7758 66.2681C64.7423 66.2725 64.7088 66.2748 64.6749 66.2764C64.6198 66.0314 64.5532 65.7541 64.4721 65.4528C64.2826 64.7484 64.0191 63.9114 63.6594 63.0416C62.9189 61.2509 61.7698 59.3223 60.0295 58.1311C59.9964 58.1083 59.963 58.0858 59.9295 58.0638C59.896 58.0413 59.8621 58.0193 59.8279 57.9976C59.7967 57.9779 59.7656 57.9582 59.7341 57.9389C59.7026 57.9196 59.6707 57.9007 59.6392 57.8818C59.5754 57.844 59.5108 57.8073 59.4458 57.7715C59.3489 57.7183 59.25 57.6675 59.1499 57.6191C58.9829 57.5383 58.8127 57.469 58.6394 57.4099C58.6178 57.4028 58.5961 57.3953 58.5744 57.3882C58.4807 57.3579 58.3865 57.3303 58.2912 57.3063C58.2908 57.3063 58.2908 57.3059 58.2904 57.3059C58.2274 57.2897 58.164 57.2748 58.1002 57.2614C58.0998 57.2614 58.0994 57.2614 58.099 57.261C57.0445 57.0361 55.9159 57.1645 54.85 57.5438C54.6889 57.6013 54.5294 57.6644 54.3714 57.7329C54.3399 57.7471 54.308 57.7609 54.2765 57.775C54.1193 57.8452 53.9645 57.9212 53.8121 58.0023C53.7813 58.0189 53.7506 58.0354 53.7203 58.052C53.5989 58.1177 53.4792 58.1875 53.3618 58.2599C53.244 58.3324 53.1282 58.4077 53.0144 58.4861C52.9573 58.5254 52.9009 58.5652 52.845 58.6058C52.7611 58.6661 52.6788 58.7283 52.598 58.7921H52.5976C52.5437 58.8347 52.4901 58.8776 52.4377 58.9213H52.4373C52.3317 59.0088 52.2285 59.0986 52.1285 59.1908H52.1281C52.0528 59.2601 51.9792 59.3302 51.9075 59.4019C51.7153 59.5933 51.5349 59.793 51.3682 59.9999C51.3414 60.0333 51.3147 60.0672 51.2883 60.1015C51.2359 60.1696 51.1847 60.2393 51.1346 60.3106C51.1346 60.311 51.1342 60.311 51.1342 60.3114C51.0842 60.3823 51.0354 60.4552 50.9877 60.5293C50.9877 60.5297 50.9873 60.5301 50.9873 60.5301C50.9397 60.6041 50.8932 60.6793 50.8479 60.7562C50.7569 60.9106 50.6706 61.0697 50.5887 61.234C50.5064 61.3974 50.4291 61.566 50.3563 61.7382C50.283 61.9103 50.2141 62.0864 50.1491 62.266C50.1164 62.3558 50.0853 62.4464 50.0549 62.5378C49.5527 64.0437 49.3171 65.7553 49.2344 67.3238C49.2321 67.3715 49.2297 67.4188 49.2273 67.466C49.2029 67.9911 49.195 68.4993 49.2001 68.9763V68.9771C49.2001 68.9771 49.1998 68.9771 49.1998 68.9767C49.1875 68.9684 49.1741 68.9597 49.16 68.9511C49.1458 68.9424 49.13 68.9337 49.1135 68.9247C49.0969 68.9156 49.0792 68.9066 49.0607 68.8979C49.0516 68.8932 49.0422 68.8888 49.0323 68.8841C49.0225 68.8794 49.0126 68.8747 49.0024 68.8703C48.9603 68.851 48.9138 68.8309 48.8634 68.8104C48.692 68.7411 48.4757 68.6671 48.2229 68.5891C48.1531 68.5674 48.0807 68.5457 48.0054 68.5237C47.9782 68.5158 47.9511 68.5079 47.9235 68.5C47.8711 68.4847 47.8175 68.4697 47.7628 68.4544C47.708 68.439 47.6525 68.4236 47.5957 68.4083C47.5906 68.4071 47.5851 68.4055 47.58 68.4039C47.5481 68.3953 47.5158 68.3866 47.4831 68.3779C46.4739 68.1077 45.1539 67.8146 43.8154 67.5531C43.4577 67.4834 43.0989 67.416 42.744 67.3518C42.6348 67.3321 42.5265 67.3128 42.4186 67.2935C42.3414 67.2797 42.2642 67.2663 42.1878 67.2529C40.8165 67.0154 39.5552 66.8381 38.7418 66.7854C38.8442 65.0813 38.9451 62.9187 39.2708 61.2426C39.4257 60.4426 39.6084 59.6426 39.9216 58.8906C40.3017 57.9803 40.8666 57.1582 41.5012 56.4042C45.3729 51.8108 51.6775 49.4218 57.5388 50.9072C63.3262 52.3741 64.6836 58.453 64.9314 62.8092C64.9837 63.7231 64.9869 64.5609 64.9715 65.2649H64.9707Z" fill="#FEDC9C"/>
<path d="M64.7759 66.2681C64.7424 66.2725 64.7089 66.2748 64.675 66.2764C64.6199 66.0314 64.5533 65.7541 64.4722 65.4528C64.2827 64.7484 64.0192 63.9114 63.6595 63.0416C62.919 61.2509 61.7699 59.3223 60.0296 58.1311C59.9966 58.1079 59.9631 58.0854 59.9296 58.0638C59.8961 58.0413 59.8622 58.0193 59.828 57.9976C59.7968 57.9775 59.7657 57.9578 59.7342 57.9389C59.7027 57.9192 59.6712 57.9003 59.6393 57.8818C59.5755 57.8436 59.5113 57.8069 59.4459 57.7715C59.349 57.7183 59.2501 57.6675 59.15 57.6191C58.983 57.5383 58.8129 57.469 58.6395 57.4099C58.6179 57.4028 58.5962 57.3953 58.5745 57.3882C58.4808 57.3579 58.3863 57.3307 58.2913 57.3063C58.2909 57.3063 58.2909 57.3059 58.2905 57.3059C58.2275 57.2897 58.1637 57.2752 58.1003 57.2614C58.0999 57.2614 58.0995 57.2614 58.0991 57.261C58.0428 57.2492 57.9864 57.2385 57.9297 57.2287C57.914 57.2259 57.8986 57.2232 57.8828 57.2204C57.8344 57.2121 57.7855 57.2051 57.7363 57.1984C57.7119 57.1952 57.6871 57.1917 57.6626 57.1889C57.6225 57.1842 57.5819 57.1794 57.5413 57.1755C57.5067 57.172 57.472 57.1692 57.4369 57.1665C57.4188 57.1649 57.4011 57.1637 57.383 57.1625C57.3219 57.1586 57.2605 57.1554 57.199 57.1535C57.1919 57.1535 57.1852 57.1531 57.1785 57.1527C55.025 57.0928 52.7344 58.3049 51.3703 59.9998C49.5902 62.2121 49.1727 66.1382 49.2022 68.9779C49.2014 68.9771 49.2007 68.9767 49.1995 68.9759C49.1873 68.9676 49.1739 68.9593 49.1593 68.9507C49.1451 68.942 49.1294 68.9333 49.1128 68.9243C49.0963 68.9152 49.0785 68.9062 49.06 68.8975C49.051 68.8924 49.0415 68.888 49.0317 68.8837C49.0218 68.879 49.012 68.8743 49.0017 68.8699C48.9596 68.8502 48.9131 68.8301 48.8627 68.8101C48.6913 68.7407 48.4751 68.6667 48.2222 68.5887C48.1525 68.567 48.08 68.5453 48.0047 68.5233C47.9776 68.5154 47.9504 68.5075 47.9228 68.4997C47.8704 68.4843 47.8168 68.4693 47.7621 68.454C47.7073 68.4386 47.6518 68.4232 47.5951 68.4079C47.59 68.4067 47.5844 68.4051 47.5793 68.4035C47.5474 68.3949 47.5151 68.3862 47.4824 68.3775C46.4732 68.1081 45.1524 67.9033 43.8147 67.6421C43.8139 67.6421 43.0671 67.4751 43.0663 67.4747V67.4739C43.0647 67.3144 43.6934 55.7397 55.424 54.6442C60.7166 54.1495 63.073 58.9832 64.107 62.8423C64.3784 63.8551 64.558 64.8004 64.6762 65.5646C64.7164 65.8207 64.7495 66.0562 64.7759 66.2678V66.2681Z" fill="#FFF4DD"/>
<path d="M43.5239 66.4935C43.5105 66.5691 43.4967 66.6448 43.4829 66.7204L40.7354 66.6448C40.7346 66.6519 40.7338 66.6585 40.7326 66.6656C40.7306 66.6838 40.7283 66.7023 40.7255 66.7204L31.6565 67.1202C31.6565 67.1202 38.7331 51.8077 31.4462 33.4121C31.4466 33.4121 31.4466 33.4121 31.447 33.4129C31.4477 33.4133 31.4481 33.4141 31.4489 33.4145C31.4698 33.4314 31.5821 33.5224 31.7692 33.6859C33.9944 35.6247 46.8532 47.7564 43.5239 66.4935Z" fill="#FEDC9C"/>
<path d="M43.5238 66.4936L42.058 66.4688L38.6543 66.4215C45.357 50.0931 33.8876 35.5803 31.4489 33.4146C31.4697 33.4315 31.582 33.5225 31.7691 33.686C33.9943 35.6248 46.8531 47.7564 43.5238 66.4936Z" fill="#FFF4DD"/>
<path d="M31.1181 36.0923C32.4353 36.4689 33.8085 35.7063 34.1854 34.3887C34.562 33.071 33.799 31.6979 32.4818 31.3213C31.1645 30.9447 29.7914 31.7073 29.4144 33.0249C29.0378 34.3422 29.8008 35.7157 31.1181 36.0923Z" fill="#FEDC9C"/>
<path d="M30.2037 35.6078C30.4641 35.8264 30.7714 35.993 31.118 36.0923C32.4356 36.4688 33.8084 35.7062 34.1854 34.3886C34.3445 33.8328 34.3016 33.2667 34.0971 32.77C34.0971 32.77 33.1045 34.2582 32.1394 34.9062C31.1755 35.5518 30.2041 35.6078 30.2041 35.6078H30.2037Z" fill="#FFF4DD"/>
<path fill-rule="evenodd" clip-rule="evenodd" d="M49.7653 71.664L37.9952 71.6644C37.9145 71.664 37.8349 71.664 37.7573 71.6644H28.186C28.186 71.6644 27.5062 68.9949 27.8091 68.5718C27.9158 68.4237 28.0478 68.2973 28.1857 68.1791C29.2768 67.2448 30.6949 66.8217 32.0842 66.5026C36.7406 65.4332 39.5492 65.261 43.536 66.0201C44.2663 66.1513 45.0379 66.312 45.8671 66.5026C46.4517 66.637 47.0418 66.7898 47.6102 66.9915C48.3925 67.2684 49.1338 67.6379 49.7653 68.1791C49.9035 68.2973 50.0355 68.4237 50.1422 68.5718C50.4428 68.9914 49.7759 71.6223 49.7653 71.664Z" fill="#FEDC9C"/>
<path fill-rule="evenodd" clip-rule="evenodd" d="M49.802 71.66L38.032 71.6604C37.9512 71.66 37.8717 71.66 37.7941 71.6604H33.5375C40.867 70.9025 46.223 69.007 46.8623 66.7405C47.1266 66.8145 47.3893 66.8961 47.647 66.9875C48.4293 67.2644 49.1706 67.6339 49.802 68.1751C49.9403 68.2933 50.0723 68.4197 50.179 68.5678C50.4796 68.9873 49.8127 71.6183 49.802 71.66Z" fill="#FFF4DD"/>
<path d="M63.9312 66.68C65.2484 67.0566 66.6216 66.2939 66.9986 64.9763C67.3751 63.6587 66.6121 62.2855 65.2949 61.9089C63.9777 61.5324 62.6045 62.295 62.2275 63.6126C61.8509 64.9298 62.6139 66.3034 63.9312 66.68Z" fill="#FEDC9C"/>
<path d="M63.0168 66.1954C63.2772 66.414 63.5845 66.5806 63.9311 66.6799C65.2487 67.0565 66.6215 66.2939 66.9985 64.9762C67.1576 64.4204 67.1147 63.8544 66.9103 63.3577C66.9103 63.3577 65.9176 64.8459 64.9525 65.4938C63.9886 66.1395 63.0172 66.1954 63.0172 66.1954H63.0168Z" fill="#FFF4DD"/>
<path d="M12.6835 66.68C14.0007 67.0566 15.3739 66.2939 15.7509 64.9763C16.1274 63.6587 15.3644 62.2855 14.0472 61.9089C12.73 61.5324 11.3568 62.295 10.9798 63.6126C10.6032 64.9298 11.3662 66.3034 12.6835 66.68Z" fill="#FEDC9C"/>
<path d="M11.769 66.1954C12.0294 66.414 12.3367 66.5806 12.6833 66.6799C14.0009 67.0565 15.3737 66.2939 15.7507 64.9762C15.9098 64.4204 15.8669 63.8544 15.6625 63.3577C15.6625 63.3577 14.6698 64.8459 13.7047 65.4938C12.7408 66.1395 11.7694 66.1954 11.7694 66.1954H11.769Z" fill="#FFF4DD"/>
</g>
<defs>
<clipPath id="clip0_4977_1440">
<rect width="56.2114" height="47.8318" fill="white" transform="translate(10.8837 31.2251)"/>
</clipPath>
</defs>
</svg>
