<svg width="125" height="194" viewBox="0 0 125 194" fill="none" xmlns="http://www.w3.org/2000/svg">
<path d="M0 33L62.5 0L125 33V161L62.5 193.5L0 161V33Z" fill="#F1525A"/>
<path d="M0 33L62.5 0V55.5V86.5V193.5L0 161V33Z" fill="#C84148"/>
<path d="M0 115L62.5 75V161V172.5V193.5L0 161V115Z" fill="#A6252D"/>
<path d="M62.5 183.5V142L125 85V161L62.5 193.5V188V183.5Z" fill="#C2313E"/>
<path d="M13 46.093L62.5 20L112 46.093V147.302L62.5 173L13 147.302V46.093Z" fill="#A31122"/>
<path d="M13 46.093L62.5 20L112 46.093V147.302L62.5 173L13 147.302V46.093Z" fill="#A31122"/>
<path d="M13 46.093L62.5 20L112 46.093V147.302L62.5 173L13 147.302V46.093Z" fill="#A31122"/>
<path opacity="0.46" d="M13 99.2353L33.7171 86L80 112.471L39.8882 161L13 147.324V99.2353Z" fill="#780A17"/>
<g clip-path="url(#clip0_5009_527)">
<path d="M75.2182 129.39C75.2182 129.39 75.2173 129.39 75.2168 129.39V129.391H75.2182V129.39Z" fill="#FFF4DD"/>
<path d="M63.4037 109.312C63.1993 109.325 62.9775 109.343 62.7403 109.365C62.6558 109.374 62.5694 109.382 62.4805 109.392C62.4321 109.396 62.3831 109.402 62.3335 109.407C62.0717 109.435 61.7945 109.468 61.5037 109.505C61.438 109.513 61.3709 109.522 61.3032 109.531C61.0131 109.568 60.7114 109.61 60.4 109.655C60.3013 109.669 60.2021 109.684 60.1015 109.699C60.0512 109.706 60.0009 109.714 59.9506 109.722C59.8868 109.731 59.8223 109.741 59.7579 109.751C59.7179 109.757 59.6779 109.763 59.6379 109.769C59.4961 109.791 59.353 109.813 59.2086 109.836C58.462 109.955 57.6793 110.088 56.8838 110.233C56.6904 110.268 56.4957 110.303 56.3003 110.34C56.2004 110.358 56.1005 110.377 56.0012 110.396C55.958 110.404 55.9141 110.412 55.8703 110.421C55.615 110.468 55.3597 110.517 55.1044 110.567C51.0653 111.356 47.1294 112.322 46.2868 112.899C46.3351 108.251 45.6511 101.825 42.7377 98.2046C39.7985 94.5524 34.2288 92.2682 30.0054 94.3074C26.3351 96.081 24.0316 99.7835 22.6255 103.182C22.0362 104.606 21.6042 105.976 21.2948 107.129C21.162 107.623 21.0524 108.078 20.9621 108.479C20.9073 108.477 20.8525 108.473 20.7971 108.466C20.7081 108.457 20.6185 108.443 20.5289 108.424C20.5282 108.415 20.5276 108.406 20.5276 108.396C20.5231 108.293 20.5179 108.186 20.5134 108.076V108.074C20.5063 107.897 20.4992 107.711 20.4928 107.517C20.4902 107.439 20.4876 107.359 20.485 107.278C20.4831 107.215 20.4812 107.151 20.4799 107.087C20.4489 105.882 20.4476 104.414 20.5398 102.802C20.75 99.1066 21.4482 94.6543 23.3914 90.8892C23.7595 90.1761 24.1721 89.4876 24.6337 88.8332C24.7601 88.6553 24.8897 88.4793 25.0231 88.3058C25.1566 88.1331 25.2939 87.9629 25.4351 87.7952C25.5769 87.6283 25.722 87.4639 25.8709 87.302C25.9702 87.195 26.0714 87.0886 26.1746 86.9842C26.2261 86.932 26.2783 86.8798 26.3306 86.8282C27.9565 85.2287 30.0209 83.9883 32.6397 83.3242C36.1198 82.4423 39.6959 82.3945 43.1425 83.0515C43.2612 83.0741 43.3791 83.0973 43.4978 83.1218H43.4984C43.6164 83.1463 43.7344 83.1714 43.8524 83.1972C44.0296 83.2359 44.2063 83.2765 44.3829 83.3191C44.5003 83.3481 44.617 83.3771 44.7343 83.4067C45.203 83.5266 45.6685 83.6595 46.1301 83.8058C46.2455 83.8426 46.3603 83.8793 46.475 83.9173C46.7626 84.0128 47.0482 84.1127 47.3325 84.2171C47.5594 84.3009 47.7857 84.388 48.0107 84.4776H48.0113C48.2924 84.5904 48.5722 84.7077 48.8495 84.829C48.8495 84.829 48.8497 84.829 48.8501 84.829C50.2388 85.4382 51.5804 86.1641 52.8563 86.9958C52.9582 87.0616 53.06 87.1293 53.1619 87.1976C53.5668 87.4697 53.9645 87.752 54.3552 88.0447C54.5506 88.1911 54.744 88.34 54.9355 88.4922C55.2224 88.7197 55.5054 88.9531 55.7839 89.1917C56.3403 89.6694 56.8786 90.1697 57.3963 90.6919C57.5691 90.866 57.7393 91.0426 57.9076 91.2212C58.2435 91.5784 58.5703 91.9452 58.8869 92.3211C58.952 92.3984 59.0165 92.4758 59.0803 92.5538C59.8152 93.4506 60.4857 94.4067 61.0221 95.4331C61.0221 95.4331 61.0228 95.4331 61.0228 95.4337C61.1156 95.6123 61.2046 95.7928 61.289 95.9753C61.3522 96.1126 61.4135 96.2505 61.4715 96.3904C61.632 96.7753 61.7713 97.1673 61.8944 97.5651C61.9441 97.7237 61.9911 97.8836 62.0356 98.0441C62.2374 98.7668 62.3947 99.5037 62.5365 100.24C62.6532 100.84 62.7525 101.478 62.8376 102.139C62.8737 102.421 62.9079 102.707 62.9401 102.997V102.998C63.0355 103.866 63.111 104.76 63.1748 105.644C63.1754 105.644 63.1748 105.645 63.1748 105.645C63.2244 106.332 63.267 107.014 63.3063 107.673C63.3398 108.239 63.3708 108.789 63.4024 109.312H63.4037Z" fill="#FFBBBC"/>
<path d="M55.103 110.568C55.103 110.568 55.104 110.568 55.1045 110.567V110.568H55.103V110.568Z" fill="white"/>
<path d="M63.404 109.312C63.1996 109.325 62.9778 109.343 62.7406 109.365C62.6561 109.374 62.5697 109.382 62.4808 109.392C62.4324 109.396 62.3834 109.402 62.3338 109.407C62.072 109.435 61.7948 109.468 61.504 109.505C61.4376 109.513 61.3712 109.522 61.3035 109.531C61.0134 109.568 60.7117 109.61 60.4003 109.655C60.3017 109.669 60.2024 109.684 60.1018 109.699C60.0515 109.706 60.0012 109.714 59.9509 109.722C59.8871 109.731 59.8226 109.741 59.7582 109.751C59.7182 109.757 59.6782 109.763 59.6383 109.769C59.4964 109.791 59.3533 109.813 59.2089 109.836C58.4623 109.955 57.6796 110.088 56.8841 110.233C56.69 110.268 56.496 110.304 56.3006 110.34C56.2013 110.359 56.1014 110.377 56.0015 110.396C55.9583 110.404 55.9144 110.412 55.8706 110.421C55.6153 110.469 55.36 110.518 55.1047 110.568C55.1073 110.384 55.3426 91.236 36.1046 89.4392C27.4417 88.6295 23.5851 96.5407 21.8927 102.857C21.4485 104.514 21.1539 106.062 20.9605 107.312C20.8947 107.733 20.8412 108.12 20.7974 108.466C20.7084 108.457 20.6188 108.443 20.5292 108.425C20.5285 108.415 20.5279 108.406 20.5279 108.396C20.5227 108.293 20.5182 108.186 20.5137 108.076V108.074C20.506 107.896 20.4989 107.711 20.4924 107.517C20.4899 107.439 20.4873 107.359 20.4854 107.278C20.4834 107.215 20.4815 107.151 20.4802 107.087C20.4486 105.882 20.448 104.415 20.5395 102.803C20.6317 101.186 20.8174 99.4238 21.1597 97.6386C21.5994 95.3428 22.2989 93.0077 23.3917 90.8892C23.7592 90.1761 24.1718 89.4876 24.634 88.8332C24.7597 88.6553 24.8893 88.4793 25.0234 88.3058C25.1569 88.1331 25.2942 87.9629 25.4354 87.7952C25.5766 87.6283 25.7216 87.4639 25.8712 87.302C25.9705 87.195 26.0717 87.0886 26.1749 86.9842C26.2264 86.932 26.2787 86.8798 26.3309 86.8282C27.9568 85.2287 30.0212 83.9883 32.64 83.3242C36.1201 82.4423 39.6963 82.3945 43.1428 83.0515C43.2615 83.0741 43.3795 83.0973 43.4981 83.1218H43.4987C43.6167 83.1463 43.7347 83.1708 43.8527 83.1972C44.03 83.2359 44.2066 83.2765 44.3833 83.3191C44.5006 83.3474 44.6173 83.3771 44.7346 83.4067C45.2033 83.5266 45.6688 83.6595 46.1304 83.8058C46.2458 83.8419 46.3612 83.8793 46.4753 83.9173C46.7629 84.0121 47.0485 84.112 47.3328 84.2171C47.5597 84.3003 47.786 84.3873 48.011 84.4776H48.0117C48.2927 84.5898 48.5726 84.7065 48.8498 84.829C48.8498 84.829 48.85 84.829 48.8504 84.829C50.2391 85.4376 51.5807 86.1628 52.8566 86.9958C52.9585 87.0616 53.0603 87.1293 53.1622 87.1976C53.5671 87.469 53.9649 87.7514 54.3556 88.0447C54.5509 88.1911 54.7443 88.34 54.9358 88.4922C55.2233 88.7191 55.5064 88.9525 55.7842 89.1917C56.3406 89.6694 56.8789 90.1697 57.3966 90.6919C57.5694 90.8653 57.7396 91.042 57.9079 91.2212C58.2438 91.5784 58.5706 91.9452 58.8872 92.3211C58.9523 92.3984 59.0168 92.4758 59.0806 92.5538C59.8175 93.4512 60.488 94.4067 61.0224 95.4331C61.0224 95.4331 61.0231 95.4331 61.0231 95.4337C61.1159 95.6116 61.2049 95.7928 61.2893 95.9753C61.3525 96.1126 61.4138 96.2505 61.4718 96.3904C61.6323 96.7753 61.7716 97.1673 61.8947 97.5651C61.9444 97.7237 61.9908 97.8836 62.0359 98.0441C62.2364 98.7668 62.3931 99.5037 62.5369 100.24C62.6535 100.84 62.7528 101.478 62.8379 102.139C62.8747 102.421 62.9089 102.707 62.9404 102.997V102.998C63.0359 103.866 63.1113 104.76 63.1751 105.644C63.1758 105.644 63.1751 105.645 63.1751 105.645C63.2248 106.332 63.2673 107.014 63.3066 107.673C63.3402 108.239 63.3711 108.789 63.4027 109.312H63.404Z" fill="white"/>
<path d="M105.523 106.818C105.511 107.415 105.49 107.952 105.468 108.418C105.401 108.433 105.332 108.444 105.263 108.453C105.243 108.455 105.224 108.458 105.204 108.46C105.149 108.467 105.094 108.471 105.039 108.473C104.949 108.072 104.84 107.618 104.707 107.125C104.397 105.972 103.965 104.602 103.377 103.179C102.165 100.248 100.284 97.0916 97.4359 95.142C97.3817 95.1046 97.3269 95.0678 97.2721 95.0317C97.2173 94.995 97.1619 94.9589 97.1058 94.9234C97.0548 94.8912 97.0039 94.859 96.9523 94.8274C96.9008 94.7958 96.8485 94.7648 96.797 94.7339C96.6925 94.672 96.5868 94.612 96.4804 94.5534C96.3218 94.4663 96.16 94.3832 95.9962 94.3039C95.7229 94.1717 95.4444 94.0582 95.1607 93.9615C95.1252 93.9499 95.0898 93.9377 95.0543 93.9261C94.9009 93.8764 94.7468 93.8313 94.5908 93.792C94.5901 93.792 94.5901 93.7913 94.5895 93.7913C94.4863 93.7649 94.3825 93.7404 94.2781 93.7185C94.2775 93.7185 94.2768 93.7185 94.2762 93.7178C92.5503 93.3497 90.7032 93.5599 88.9586 94.1807C88.695 94.2749 88.4338 94.378 88.1753 94.4902C88.1237 94.5134 88.0715 94.536 88.0199 94.5592C87.7627 94.6739 87.5093 94.7984 87.2598 94.9312C87.2096 94.9582 87.1593 94.9853 87.1096 95.0124C86.9111 95.1201 86.7151 95.2342 86.5229 95.3528C86.3302 95.4714 86.1406 95.5946 85.9543 95.7229C85.8608 95.7873 85.7686 95.8524 85.6771 95.9189C85.5398 96.0175 85.405 96.1194 85.2729 96.2238H85.2722C85.1839 96.2934 85.0962 96.3637 85.0105 96.4353H85.0098C84.837 96.5784 84.6681 96.7254 84.5044 96.8762H84.5037C84.3806 96.9897 84.26 97.1045 84.1427 97.2218C83.8281 97.5351 83.5328 97.862 83.2601 98.2005C83.2163 98.2553 83.1724 98.3107 83.1292 98.3668C83.0435 98.4783 82.9597 98.5924 82.8778 98.7091C82.8778 98.7098 82.8771 98.7098 82.8771 98.7104C82.7953 98.8265 82.7153 98.9457 82.6373 99.0669C82.6373 99.0676 82.6367 99.0682 82.6367 99.0682C82.5587 99.1894 82.4826 99.3126 82.4084 99.4383C82.2595 99.691 82.1183 99.9515 81.9842 100.22C81.8495 100.488 81.7231 100.764 81.6038 101.046C81.4839 101.327 81.3711 101.615 81.2647 101.909C81.2112 102.056 81.1603 102.205 81.1106 102.354C80.2886 104.819 79.9031 107.62 79.7677 110.187C79.7639 110.265 79.76 110.343 79.7561 110.42C79.7162 111.28 79.7033 112.111 79.7116 112.892V112.893C79.7116 112.893 79.711 112.893 79.711 112.893C79.691 112.879 79.6691 112.865 79.6459 112.851C79.6227 112.837 79.5969 112.822 79.5698 112.808C79.5427 112.793 79.5137 112.778 79.4834 112.764C79.4686 112.756 79.4531 112.749 79.437 112.741C79.4209 112.733 79.4048 112.726 79.388 112.719C79.319 112.687 79.2429 112.654 79.1604 112.621C78.88 112.507 78.526 112.386 78.1121 112.258C77.998 112.223 77.8794 112.187 77.7562 112.151C77.7118 112.138 77.6673 112.125 77.6222 112.113C77.5364 112.087 77.4487 112.063 77.3591 112.038C77.2695 112.013 77.1786 111.987 77.0858 111.962C77.0774 111.96 77.0684 111.958 77.06 111.955C77.0077 111.941 76.9549 111.927 76.9014 111.913C75.2496 111.47 73.0892 110.991 70.8985 110.563C70.3131 110.449 69.7258 110.338 69.1449 110.233C68.9663 110.201 68.7891 110.169 68.6124 110.138C68.486 110.115 68.3597 110.093 68.2346 110.071C65.9904 109.683 63.926 109.393 62.5947 109.306C62.7623 106.517 62.9274 102.978 63.4606 100.235C63.7139 98.9251 64.0131 97.6157 64.5256 96.385C65.1478 94.8951 66.0723 93.5496 67.1109 92.3156C73.4477 84.7977 83.7662 80.8876 93.3594 83.3187C102.831 85.7196 105.053 95.6687 105.459 102.798C105.544 104.294 105.549 105.666 105.524 106.818H105.523Z" fill="#FFBBBC"/>
<path d="M105.204 108.46C105.15 108.467 105.095 108.471 105.039 108.474C104.949 108.073 104.84 107.619 104.707 107.125C104.397 105.973 103.966 104.603 103.377 103.179C102.165 100.248 100.285 97.0919 97.4364 95.1423C97.3823 95.1043 97.3275 95.0675 97.2727 95.0321C97.2179 94.9953 97.1624 94.9592 97.1063 94.9238C97.0554 94.8909 97.0045 94.8587 96.9529 94.8277C96.9013 94.7955 96.8497 94.7645 96.7975 94.7342C96.6931 94.6717 96.588 94.6117 96.481 94.5537C96.3224 94.4667 96.1606 94.3835 95.9968 94.3042C95.7234 94.172 95.4449 94.0586 95.1613 93.9619C95.1258 93.9503 95.0903 93.938 95.0549 93.9264C94.9014 93.8768 94.7467 93.8323 94.5913 93.7923L94.59 93.7917C94.4869 93.7652 94.3825 93.7414 94.2787 93.7188L94.2767 93.7182C94.1845 93.6988 94.0923 93.6814 93.9995 93.6653C93.9737 93.6608 93.9486 93.6563 93.9228 93.6518C93.8435 93.6382 93.7635 93.6266 93.683 93.6157C93.643 93.6105 93.6024 93.6047 93.5624 93.6002C93.4966 93.5925 93.4302 93.5847 93.3638 93.5783C93.3071 93.5725 93.2503 93.568 93.193 93.5634C93.1633 93.5609 93.1343 93.5589 93.1046 93.557C93.0047 93.5505 92.9041 93.5454 92.8036 93.5422C92.792 93.5422 92.781 93.5415 92.77 93.5409C89.2454 93.4429 85.4965 95.4266 83.2639 98.2008C80.3505 101.821 79.6671 108.247 79.7154 112.895C79.7154 112.895 79.7128 112.893 79.7109 112.892C79.6909 112.878 79.669 112.865 79.6451 112.85C79.6219 112.836 79.5962 112.822 79.5691 112.807C79.542 112.792 79.513 112.778 79.4827 112.763C79.4679 112.755 79.4524 112.748 79.4363 112.741C79.4201 112.733 79.404 112.725 79.3873 112.718C79.3183 112.686 79.2422 112.653 79.1597 112.62C78.8792 112.507 78.5253 112.386 78.1114 112.258C77.9973 112.222 77.8787 112.187 77.7555 112.151C77.711 112.138 77.6665 112.125 77.6214 112.112C77.5357 112.087 77.448 112.063 77.3584 112.037C77.2688 112.012 77.1779 111.987 77.085 111.962C77.0766 111.96 77.0676 111.958 77.0592 111.955C77.007 111.941 76.9542 111.927 76.9006 111.912C75.2489 111.471 73.0872 111.136 70.8978 110.709L69.6729 110.435V110.433C69.6703 110.172 70.6992 91.2283 89.8985 89.4354C98.5608 88.6256 102.417 96.5368 104.11 102.853C104.554 104.511 104.848 106.058 105.041 107.309C105.107 107.728 105.161 108.114 105.204 108.46Z" fill="white"/>
<path d="M70.4216 108.829C70.3997 108.952 70.3771 109.076 70.3545 109.2L65.8577 109.076C65.8564 109.088 65.8551 109.099 65.8532 109.11C65.85 109.14 65.8461 109.17 65.8416 109.2L50.9986 109.854C50.9986 109.854 62.5807 84.7928 50.6543 54.6851C50.6549 54.6851 50.6549 54.6851 50.6556 54.6863C50.6569 54.687 50.6575 54.6883 50.6588 54.6889C50.693 54.7166 50.8767 54.8656 51.183 55.1331C54.8249 58.3064 75.8706 78.162 70.4216 108.829Z" fill="#FFBBBC"/>
<path d="M70.4215 108.829L68.0225 108.788L62.4516 108.711C73.4219 81.9864 54.6501 58.2336 50.6587 54.689C50.6929 54.7167 50.8766 54.8656 51.1828 55.1332C54.8248 58.3064 75.8705 78.162 70.4215 108.829Z" fill="white"/>
<path d="M50.1171 59.0716C52.273 59.6879 54.5204 58.4397 55.1374 56.2832C55.7538 54.1267 54.505 51.8792 52.3491 51.2629C50.1932 50.6466 47.9457 51.8947 47.3288 54.0512C46.7124 56.2071 47.9612 58.4552 50.1171 59.0716Z" fill="#FFBBBC"/>
<path d="M48.6206 58.2787C49.0468 58.6365 49.5496 58.9093 50.117 59.0717C52.2735 59.6881 54.5203 58.4399 55.1373 56.2834C55.3977 55.3737 55.3275 54.4472 54.9929 53.6343C54.9929 53.6343 53.3682 56.07 51.7887 57.1305C50.2111 58.1872 48.6213 58.2787 48.6213 58.2787H48.6206Z" fill="white"/>
<path fill-rule="evenodd" clip-rule="evenodd" d="M80.6367 117.291L61.3729 117.292C61.2407 117.291 61.1105 117.291 60.9835 117.292H45.3185C45.3185 117.292 44.2057 112.923 44.7015 112.23C44.8762 111.988 45.0922 111.781 45.3178 111.587C47.1036 110.058 49.4246 109.366 51.6985 108.844C59.3195 107.093 63.9163 106.811 70.4413 108.054C71.6366 108.269 72.8996 108.532 74.2567 108.844C75.2134 109.063 76.1792 109.314 77.1095 109.644C78.3899 110.097 79.6032 110.702 80.6367 111.587C80.863 111.781 81.0789 111.988 81.2537 112.23C81.7456 112.917 80.6541 117.223 80.6367 117.291Z" fill="#FFBBBC"/>
<path fill-rule="evenodd" clip-rule="evenodd" d="M80.697 117.285L61.4332 117.285C61.3011 117.285 61.1708 117.285 61.0438 117.285H54.0771C66.0732 116.045 74.8392 112.943 75.8856 109.233C76.3182 109.354 76.7482 109.488 77.1698 109.637C78.4502 110.09 79.6635 110.695 80.697 111.581C80.9233 111.774 81.1393 111.981 81.314 112.224C81.8059 112.91 80.7144 117.216 80.697 117.285Z" fill="white"/>
<path d="M103.822 109.134C105.978 109.75 108.225 108.502 108.842 106.345C109.458 104.189 108.21 101.941 106.054 101.325C103.898 100.709 101.65 101.957 101.033 104.113C100.417 106.269 101.666 108.517 103.822 109.134Z" fill="#FFBBBC"/>
<path d="M102.325 108.341C102.751 108.699 103.254 108.971 103.822 109.134C105.978 109.75 108.225 108.502 108.842 106.345C109.102 105.436 109.032 104.509 108.697 103.696C108.697 103.696 107.073 106.132 105.493 107.193C103.916 108.249 102.326 108.341 102.326 108.341H102.325Z" fill="white"/>
<path d="M19.9457 109.134C22.1016 109.75 24.3491 108.502 24.966 106.345C25.5824 104.189 24.3336 101.941 22.1777 101.325C20.0218 100.709 17.7744 101.957 17.1574 104.113C16.541 106.269 17.7898 108.517 19.9457 109.134Z" fill="#FFBBBC"/>
<path d="M18.4492 108.341C18.8754 108.699 19.3782 108.971 19.9456 109.134C22.1021 109.75 24.3489 108.502 24.9659 106.345C25.2264 105.436 25.1561 104.509 24.8215 103.696C24.8215 103.696 23.1968 106.132 21.6173 107.193C20.0397 108.249 18.4499 108.341 18.4499 108.341H18.4492Z" fill="white"/>
</g>
<defs>
<clipPath id="clip0_5009_527">
<rect width="92" height="78.2852" fill="white" transform="translate(17 51.1055)"/>
</clipPath>
</defs>
</svg>
