<svg width="77" height="119" viewBox="0 0 77 119" fill="none" xmlns="http://www.w3.org/2000/svg">
<path d="M0.374268 20.1628L38.5614 0L76.7485 20.1628V98.37L38.5614 118.227L0.374268 98.37V20.1628Z" fill="#F1FAFF"/>
<path d="M0.374268 20.1628L38.5614 0V33.9101V52.851V118.227L0.374268 98.37V20.1628Z" fill="#E0EAF3"/>
<path d="M0.374268 70.2642L38.5614 45.8245V98.3699V105.396V118.227L0.374268 98.3699V70.2642Z" fill="#BDD1DF"/>
<path d="M38.5613 112.117V86.7612L76.7484 51.9346V98.3701L38.5613 118.227V114.867V112.117Z" fill="#DEE8F1"/>
<path d="M3.23584 22.9287L38.5614 4.27686L73.8869 22.9287V95.2754L38.5614 113.645L3.23584 95.2754V22.9287Z" fill="#92B2BF"/>
<path opacity="0.46" d="M3.12378 62.0157L17.4821 52.8508L49.5593 71.1806L21.7591 104.785L3.12378 95.3149V62.0157Z" fill="#779FA7"/>
<g clip-path="url(#clip0_4977_1515)">
<path d="M46.333 79.0566C46.333 79.0566 46.332 79.0566 46.3315 79.0562V79.0571H46.333V79.0566Z" fill="#F2FAFD"/>
<path d="M39.1137 66.7886C38.9888 66.7969 38.8533 66.8079 38.7084 66.8213C38.6568 66.8264 38.604 66.8315 38.5496 66.8374C38.5201 66.8402 38.4902 66.8437 38.4598 66.8469C38.2999 66.8642 38.1305 66.8843 37.9529 66.9068C37.9127 66.9119 37.8717 66.917 37.8304 66.9225C37.6531 66.9454 37.4687 66.971 37.2785 66.9985C37.2182 67.0072 37.1576 67.0163 37.0961 67.0253C37.0654 67.0297 37.0347 67.0344 37.0039 67.0391C36.9649 67.045 36.9255 67.0509 36.8861 67.0568C36.8617 67.0608 36.8373 67.0643 36.8129 67.0683C36.7262 67.0817 36.6388 67.095 36.5505 67.1092C36.0944 67.1817 35.6162 67.2632 35.1301 67.3515C35.0119 67.3728 34.893 67.3944 34.7736 67.4169C34.7126 67.4279 34.6515 67.4393 34.5908 67.4511C34.5644 67.4559 34.5377 67.461 34.5109 67.4661C34.3549 67.4953 34.1989 67.5252 34.0429 67.5559C31.5751 68.0377 29.1702 68.6281 28.6554 68.9803C28.6849 66.1406 28.267 62.2145 26.4869 60.0023C24.6911 57.7708 21.2881 56.3752 18.7076 57.6211C16.465 58.7048 15.0576 60.967 14.1985 63.0437C13.8384 63.9134 13.5745 64.7505 13.3855 65.4548C13.3043 65.7569 13.2373 66.0346 13.1822 66.28C13.1487 66.2785 13.1152 66.2761 13.0814 66.2722C13.027 66.2663 12.9722 66.258 12.9175 66.2466C12.9171 66.2407 12.9167 66.2351 12.9167 66.2292C12.9139 66.1662 12.9108 66.1008 12.908 66.0335V66.0323C12.9037 65.9243 12.8994 65.8105 12.8954 65.6919C12.8939 65.6443 12.8923 65.5958 12.8907 65.5462C12.8895 65.5076 12.8883 65.4686 12.8875 65.4292C12.8686 64.6934 12.8679 63.7964 12.9242 62.8113C13.0526 60.5534 13.4792 57.833 14.6664 55.5326C14.8914 55.0969 15.1435 54.6762 15.4255 54.2764C15.5027 54.1677 15.5819 54.0602 15.6634 53.9542C15.745 53.8486 15.8289 53.7446 15.9151 53.6422C16.0018 53.5402 16.0904 53.4397 16.1814 53.3409C16.2421 53.2755 16.3039 53.2105 16.367 53.1467C16.3985 53.1148 16.4304 53.0829 16.4623 53.0514C17.4557 52.0741 18.717 51.3162 20.3171 50.9104C22.4434 50.3716 24.6284 50.3424 26.7343 50.7438C26.8068 50.7576 26.8789 50.7718 26.9513 50.7868H26.9517C27.0238 50.8017 27.0959 50.8171 27.168 50.8328C27.2763 50.8565 27.3842 50.8813 27.4922 50.9073C27.5639 50.925 27.6352 50.9427 27.7069 50.9609C27.9932 51.0341 28.2776 51.1153 28.5597 51.2047C28.6302 51.2272 28.7003 51.2496 28.7704 51.2728C28.9461 51.3311 29.1206 51.3922 29.2943 51.456C29.433 51.5072 29.5712 51.5604 29.7087 51.6152H29.7091C29.8808 51.6841 30.0518 51.7558 30.2212 51.8298C30.2212 51.8298 30.2213 51.8298 30.2216 51.8298C31.0701 52.2021 31.8898 52.6456 32.6693 53.1538C32.7316 53.1939 32.7938 53.2353 32.8561 53.2771C33.1034 53.4433 33.3465 53.6158 33.5852 53.7947C33.7045 53.8841 33.8227 53.9751 33.9397 54.068C34.115 54.2071 34.2879 54.3497 34.4581 54.4954C34.798 54.7873 35.1269 55.093 35.4433 55.4121C35.5488 55.5184 35.6528 55.6263 35.7556 55.7355C35.9609 55.9537 36.1606 56.1778 36.354 56.4075C36.3938 56.4547 36.4332 56.502 36.4722 56.5497C36.9212 57.0976 37.3309 57.6818 37.6586 58.3089C37.6586 58.3089 37.659 58.3089 37.659 58.3093C37.7157 58.4184 37.7701 58.5287 37.8217 58.6402C37.8603 58.7241 37.8977 58.8084 37.9332 58.8938C38.0312 59.129 38.1163 59.3685 38.1916 59.6115C38.2219 59.7084 38.2507 59.8061 38.2778 59.9042C38.4011 60.3458 38.4972 60.796 38.5839 61.2459C38.6552 61.6126 38.7159 62.0026 38.7679 62.4059C38.7899 62.5785 38.8108 62.7534 38.8305 62.9302V62.931C38.8888 63.4616 38.9349 64.0076 38.9739 64.5476C38.9743 64.5476 38.9739 64.548 38.9739 64.548C39.0042 64.9679 39.0302 65.3847 39.0542 65.7877C39.0747 66.1335 39.0936 66.4691 39.1129 66.7886H39.1137Z" fill="#BDD8E3"/>
<path d="M34.0417 67.5564C34.0417 67.5564 34.0427 67.5564 34.0432 67.5559V67.5569H34.0417V67.5564Z" fill="#F2FAFD"/>
<path d="M39.1137 66.7886C38.9888 66.7969 38.8533 66.8079 38.7083 66.8213C38.6567 66.8264 38.6039 66.8315 38.5496 66.8374C38.52 66.8402 38.4901 66.8437 38.4598 66.8469C38.2998 66.8642 38.1305 66.8843 37.9528 66.9068C37.9122 66.9119 37.8717 66.917 37.8303 66.9225C37.653 66.9454 37.4687 66.971 37.2784 66.9985C37.2182 67.0072 37.1575 67.0163 37.0961 67.0253C37.0653 67.0297 37.0346 67.0344 37.0039 67.0391C36.9649 67.045 36.9255 67.0509 36.8861 67.0568C36.8617 67.0608 36.8373 67.0643 36.8128 67.0683C36.7262 67.0817 36.6387 67.095 36.5505 67.1092C36.0943 67.1817 35.6161 67.2632 35.13 67.3515C35.0115 67.3728 34.8929 67.3948 34.7736 67.4169C34.7129 67.4283 34.6518 67.4397 34.5908 67.4511C34.5644 67.4559 34.5376 67.461 34.5108 67.4661C34.3548 67.4957 34.1988 67.5256 34.0429 67.5559C34.0444 67.4437 34.1882 55.7445 22.4339 54.6467C17.1409 54.1519 14.7846 58.9856 13.7506 62.8448C13.4792 63.8575 13.2991 64.8029 13.181 65.5671C13.1408 65.8239 13.1081 66.0602 13.0813 66.2722C13.0269 66.2663 12.9722 66.258 12.9174 66.2466C12.917 66.2407 12.9166 66.2351 12.9166 66.2292C12.9135 66.1662 12.9107 66.1008 12.908 66.0335V66.0323C12.9033 65.924 12.8989 65.8105 12.895 65.6919C12.8934 65.6443 12.8918 65.5954 12.8906 65.5462C12.8895 65.5076 12.8883 65.4686 12.8875 65.4292C12.8682 64.6934 12.8678 63.7968 12.9237 62.8117C12.9801 61.8237 13.0935 60.7472 13.3027 59.6564C13.5713 58.2537 13.9987 56.827 14.6664 55.5326C14.8909 55.0969 15.143 54.6762 15.4255 54.2764C15.5023 54.1677 15.5815 54.0602 15.6634 53.9542C15.7449 53.8486 15.8288 53.7446 15.9151 53.6422C16.0014 53.5402 16.09 53.4397 16.1814 53.3409C16.242 53.2755 16.3039 53.2105 16.3669 53.1467C16.3984 53.1148 16.4303 53.0829 16.4622 53.0514C17.4557 52.0741 18.717 51.3162 20.317 50.9104C22.4434 50.3716 24.6284 50.3424 26.7342 50.7438C26.8067 50.7576 26.8788 50.7718 26.9513 50.7868H26.9517C27.0238 50.8017 27.0958 50.8167 27.1679 50.8328C27.2763 50.8565 27.3842 50.8813 27.4921 50.9073C27.5638 50.9246 27.6351 50.9427 27.7068 50.9609C27.9932 51.0341 28.2776 51.1153 28.5596 51.2047C28.6301 51.2268 28.7006 51.2496 28.7704 51.2728C28.946 51.3307 29.1205 51.3918 29.2943 51.456C29.4329 51.5068 29.5712 51.56 29.7087 51.6152H29.709C29.8808 51.6837 30.0518 51.755 30.2211 51.8298C30.2211 51.8298 30.2213 51.8298 30.2215 51.8298C31.07 52.2017 31.8897 52.6448 32.6693 53.1538C32.7315 53.1939 32.7938 53.2353 32.856 53.2771C33.1034 53.4429 33.3464 53.6154 33.5851 53.7947C33.7045 53.8841 33.8227 53.9751 33.9396 54.068C34.1153 54.2067 34.2883 54.3493 34.458 54.4954C34.798 54.7873 35.1269 55.093 35.4432 55.4121C35.5488 55.518 35.6528 55.6259 35.7556 55.7355C35.9608 55.9537 36.1605 56.1778 36.3539 56.4075C36.3937 56.4547 36.4331 56.502 36.4721 56.5497C36.9223 57.098 37.332 57.6818 37.6586 58.3089C37.6586 58.3089 37.659 58.3089 37.659 58.3093C37.7157 58.418 37.77 58.5287 37.8216 58.6402C37.8602 58.7241 37.8977 58.8084 37.9331 58.8938C38.0312 59.129 38.1163 59.3685 38.1915 59.6115C38.2218 59.7084 38.2502 59.8061 38.2778 59.9042C38.4003 60.3458 38.496 60.796 38.5839 61.2459C38.6552 61.6126 38.7158 62.0026 38.7678 62.4059C38.7903 62.5785 38.8111 62.7534 38.8304 62.9302V62.931C38.8887 63.4616 38.9348 64.0076 38.9738 64.5476C38.9742 64.5476 38.9738 64.548 38.9738 64.548C39.0042 64.9679 39.0302 65.3847 39.0542 65.7877C39.0747 66.1335 39.0936 66.4691 39.1129 66.7886H39.1137Z" fill="#F2FAFD"/>
<path d="M64.8483 65.2649C64.8408 65.6296 64.8278 65.9581 64.8148 66.2425C64.7735 66.2516 64.7313 66.2587 64.6892 66.2638C64.6774 66.2654 64.6655 66.267 64.6533 66.2681C64.6198 66.2725 64.5864 66.2748 64.5525 66.2764C64.4973 66.0314 64.4308 65.7541 64.3496 65.4528C64.1601 64.7484 63.8966 63.9114 63.537 63.0416C62.7964 61.2509 61.6474 59.3223 59.9071 58.1311C59.874 58.1083 59.8405 58.0858 59.807 58.0638C59.7736 58.0413 59.7397 58.0193 59.7054 57.9976C59.6743 57.9779 59.6432 57.9582 59.6117 57.9389C59.5802 57.9196 59.5482 57.9007 59.5167 57.8818C59.4529 57.844 59.3883 57.8073 59.3233 57.7715C59.2264 57.7183 59.1275 57.6675 59.0275 57.6191C58.8605 57.5383 58.6903 57.469 58.517 57.4099C58.4953 57.4028 58.4737 57.3953 58.452 57.3882C58.3582 57.3579 58.2641 57.3303 58.1688 57.3063C58.1684 57.3063 58.1684 57.3059 58.168 57.3059C58.105 57.2897 58.0415 57.2748 57.9777 57.2614C57.9773 57.2614 57.9769 57.2614 57.9765 57.261C56.922 57.0361 55.7935 57.1645 54.7276 57.5438C54.5665 57.6013 54.4069 57.6644 54.249 57.7329C54.2175 57.7471 54.1855 57.7609 54.154 57.775C53.9969 57.8452 53.8421 57.9212 53.6896 58.0023C53.6589 58.0189 53.6282 58.0354 53.5978 58.052C53.4765 58.1177 53.3568 58.1875 53.2394 58.2599C53.1216 58.3324 53.0058 58.4077 52.8919 58.4861C52.8348 58.5254 52.7785 58.5652 52.7226 58.6058C52.6387 58.6661 52.5563 58.7283 52.4756 58.7921H52.4752C52.4212 58.8347 52.3677 58.8776 52.3153 58.9213H52.3149C52.2093 59.0088 52.1061 59.0986 52.006 59.1908H52.0056C51.9304 59.2601 51.8567 59.3302 51.7851 59.4019C51.5928 59.5933 51.4124 59.793 51.2458 59.9999C51.219 60.0333 51.1922 60.0672 51.1658 60.1015C51.1134 60.1696 51.0622 60.2393 51.0122 60.3106C51.0122 60.311 51.0118 60.311 51.0118 60.3114C50.9618 60.3823 50.9129 60.4552 50.8653 60.5293C50.8653 60.5297 50.8649 60.5301 50.8649 60.5301C50.8172 60.6041 50.7707 60.6793 50.7254 60.7562C50.6344 60.9106 50.5482 61.0697 50.4662 61.234C50.3839 61.3974 50.3067 61.566 50.2338 61.7382C50.1606 61.9103 50.0916 62.0864 50.0266 62.266C49.9939 62.3558 49.9628 62.4464 49.9325 62.5378C49.4303 64.0437 49.1947 65.7553 49.112 67.3238C49.1096 67.3715 49.1073 67.4188 49.1049 67.466C49.0805 67.9911 49.0726 68.4993 49.0777 68.9763V68.9771C49.0777 68.9771 49.0773 68.9771 49.0773 68.9767C49.0651 68.9684 49.0517 68.9597 49.0375 68.9511C49.0234 68.9424 49.0076 68.9337 48.991 68.9247C48.9745 68.9156 48.9568 68.9066 48.9383 68.8979C48.9292 68.8932 48.9198 68.8888 48.9099 68.8841C48.9001 68.8794 48.8902 68.8747 48.88 68.8703C48.8378 68.851 48.7913 68.8309 48.7409 68.8104C48.5696 68.7411 48.3533 68.6671 48.1004 68.5891C48.0307 68.5674 47.9582 68.5457 47.883 68.5237C47.8558 68.5158 47.8286 68.5079 47.801 68.5C47.7487 68.4847 47.6951 68.4697 47.6403 68.4544C47.5856 68.439 47.53 68.4236 47.4733 68.4083C47.4682 68.4071 47.4627 68.4055 47.4576 68.4039C47.4256 68.3953 47.3933 68.3866 47.3607 68.3779C46.3515 68.1077 45.0315 67.8146 43.693 67.5531C43.3353 67.4834 42.9764 67.416 42.6215 67.3518C42.5124 67.3321 42.4041 67.3128 42.2961 67.2935C42.2189 67.2797 42.1417 67.2663 42.0653 67.2529C40.6941 67.0154 39.4328 66.8381 38.6194 66.7854C38.7218 65.0813 38.8226 62.9187 39.1484 61.2426C39.3032 60.4426 39.486 59.6426 39.7991 58.8906C40.1793 57.9803 40.7441 57.1582 41.3787 56.4042C45.2505 51.8108 51.555 49.4218 57.4164 50.9072C63.2037 52.3741 64.5611 58.453 64.8089 62.8092C64.8613 63.7231 64.8645 64.5609 64.8491 65.2649H64.8483Z" fill="#BDD8E3"/>
<path d="M64.6534 66.2681C64.62 66.2725 64.5865 66.2748 64.5526 66.2764C64.4974 66.0314 64.4309 65.7541 64.3497 65.4528C64.1603 64.7484 63.8967 63.9114 63.5371 63.0416C62.7965 61.2509 61.6475 59.3223 59.9072 58.1311C59.8741 58.1079 59.8406 58.0854 59.8072 58.0638C59.7737 58.0413 59.7398 58.0193 59.7055 57.9976C59.6744 57.9775 59.6433 57.9578 59.6118 57.9389C59.5803 57.9192 59.5488 57.9003 59.5168 57.8818C59.453 57.8436 59.3888 57.8069 59.3234 57.7715C59.2265 57.7183 59.1277 57.6675 59.0276 57.6191C58.8606 57.5383 58.6904 57.469 58.5171 57.4099C58.4954 57.4028 58.4738 57.3953 58.4521 57.3882C58.3584 57.3579 58.2638 57.3307 58.1689 57.3063C58.1685 57.3063 58.1685 57.3059 58.1681 57.3059C58.1051 57.2897 58.0413 57.2752 57.9778 57.2614C57.9774 57.2614 57.9771 57.2614 57.9767 57.261C57.9203 57.2492 57.864 57.2385 57.8073 57.2287C57.7915 57.2259 57.7762 57.2232 57.7604 57.2204C57.7119 57.2121 57.6631 57.2051 57.6139 57.1984C57.5894 57.1952 57.5646 57.1917 57.5402 57.1889C57.5 57.1842 57.4595 57.1794 57.4189 57.1755C57.3842 57.172 57.3495 57.1692 57.3145 57.1665C57.2964 57.1649 57.2786 57.1637 57.2605 57.1625C57.1995 57.1586 57.138 57.1554 57.0766 57.1535C57.0695 57.1535 57.0628 57.1531 57.0561 57.1527C54.9026 57.0928 52.612 58.3049 51.2479 59.9998C49.4678 62.2121 49.0503 66.1382 49.0798 68.9779C49.079 68.9771 49.0782 68.9767 49.077 68.9759C49.0648 68.9676 49.0514 68.9593 49.0369 68.9507C49.0227 68.942 49.0069 68.9333 48.9904 68.9243C48.9738 68.9152 48.9561 68.9062 48.9376 68.8975C48.9285 68.8924 48.9191 68.888 48.9092 68.8837C48.8994 68.879 48.8895 68.8743 48.8793 68.8699C48.8371 68.8502 48.7907 68.8301 48.7402 68.8101C48.5689 68.7407 48.3526 68.6667 48.0997 68.5887C48.03 68.567 47.9575 68.5453 47.8823 68.5233C47.8551 68.5154 47.8279 68.5075 47.8004 68.4997C47.748 68.4843 47.6944 68.4693 47.6397 68.454C47.5849 68.4386 47.5294 68.4232 47.4726 68.4079C47.4675 68.4067 47.462 68.4051 47.4569 68.4035C47.425 68.3949 47.3927 68.3862 47.36 68.3775C46.3508 68.1081 45.03 67.9033 43.6923 67.6421C43.6915 67.6421 42.9446 67.4751 42.9439 67.4747V67.4739C42.9423 67.3144 43.571 55.7397 55.3016 54.6442C60.5942 54.1495 62.9506 58.9832 63.9846 62.8423C64.256 63.8551 64.4356 64.8004 64.5538 65.5646C64.594 65.8207 64.627 66.0562 64.6534 66.2678V66.2681Z" fill="#F2FAFD"/>
<path d="M43.4014 66.4935C43.388 66.5691 43.3742 66.6448 43.3605 66.7204L40.6129 66.6448C40.6121 66.6519 40.6114 66.6585 40.6102 66.6656C40.6082 66.6838 40.6058 66.7023 40.6031 66.7204L31.5341 67.1202C31.5341 67.1202 38.6107 51.8077 31.3237 33.4121C31.3241 33.4121 31.3241 33.4121 31.3245 33.4129C31.3253 33.4133 31.3257 33.4141 31.3265 33.4145C31.3474 33.4314 31.4596 33.5224 31.6467 33.6859C33.8719 35.6247 46.7307 47.7564 43.4014 66.4935Z" fill="#BDD8E3"/>
<path d="M43.4013 66.4936L41.9356 66.4688L38.5318 66.4215C45.2346 50.0931 33.7651 35.5803 31.3264 33.4146C31.3473 33.4315 31.4596 33.5225 31.6467 33.686C33.8719 35.6248 46.7307 47.7564 43.4013 66.4936Z" fill="#F2FAFD"/>
<path d="M30.9956 36.0923C32.3129 36.4689 33.686 35.7063 34.063 34.3887C34.4396 33.071 33.6766 31.6979 32.3593 31.3213C31.0421 30.9447 29.6689 31.7073 29.292 33.0249C28.9154 34.3422 29.6784 35.7157 30.9956 36.0923Z" fill="#BDD8E3"/>
<path d="M30.0813 35.6078C30.3417 35.8264 30.6489 35.993 30.9956 36.0923C32.3132 36.4688 33.686 35.7062 34.0629 34.3886C34.2221 33.8328 34.1791 33.2667 33.9747 32.77C33.9747 32.77 32.9821 34.2582 32.017 34.9062C31.0531 35.5518 30.0817 35.6078 30.0817 35.6078H30.0813Z" fill="#F2FAFD"/>
<path fill-rule="evenodd" clip-rule="evenodd" d="M49.6428 71.664L37.8728 71.6644C37.792 71.664 37.7124 71.664 37.6348 71.6644H28.0636C28.0636 71.6644 27.3837 68.9949 27.6866 68.5718C27.7934 68.4237 27.9253 68.2973 28.0632 68.1791C29.1544 67.2448 30.5724 66.8217 31.9618 66.5026C36.6182 65.4332 39.4267 65.261 43.4135 66.0201C44.1438 66.1513 44.9155 66.312 45.7447 66.5026C46.3292 66.637 46.9193 66.7898 47.4877 66.9915C48.27 67.2684 49.0114 67.6379 49.6428 68.1791C49.7811 68.2973 49.913 68.4237 50.0198 68.5718C50.3203 68.9914 49.6535 71.6223 49.6428 71.664Z" fill="#BDD8E3"/>
<path fill-rule="evenodd" clip-rule="evenodd" d="M49.6796 71.66L37.9096 71.6604C37.8288 71.66 37.7492 71.66 37.6716 71.6604H33.415C40.7445 70.9025 46.1005 69.007 46.7398 66.7405C47.0042 66.8145 47.2669 66.8961 47.5245 66.9875C48.3068 67.2644 49.0482 67.6339 49.6796 68.1751C49.8179 68.2933 49.9498 68.4197 50.0566 68.5678C50.3571 68.9873 49.6902 71.6183 49.6796 71.66Z" fill="#F2FAFD"/>
<path d="M63.8089 66.68C65.1261 67.0566 66.4993 66.2939 66.8762 64.9763C67.2528 63.6587 66.4898 62.2855 65.1726 61.9089C63.8553 61.5324 62.4822 62.295 62.1052 63.6126C61.7286 64.9298 62.4916 66.3034 63.8089 66.68Z" fill="#BDD8E3"/>
<path d="M62.8943 66.1954C63.1547 66.414 63.4619 66.5806 63.8086 66.6799C65.1262 67.0565 66.499 66.2939 66.8759 64.9762C67.0351 64.4204 66.9921 63.8544 66.7877 63.3577C66.7877 63.3577 65.795 64.8459 64.83 65.4938C63.8661 66.1395 62.8947 66.1954 62.8947 66.1954H62.8943Z" fill="#F2FAFD"/>
<path d="M12.561 66.68C13.8783 67.0566 15.2515 66.2939 15.6284 64.9763C16.005 63.6587 15.242 62.2855 13.9248 61.9089C12.6075 61.5324 11.2344 62.295 10.8574 63.6126C10.4808 64.9298 11.2438 66.3034 12.561 66.68Z" fill="#BDD8E3"/>
<path d="M11.6467 66.1954C11.9071 66.414 12.2144 66.5806 12.561 66.6799C13.8786 67.0565 15.2514 66.2939 15.6284 64.9762C15.7875 64.4204 15.7446 63.8544 15.5401 63.3577C15.5401 63.3577 14.5475 64.8459 13.5824 65.4938C12.6185 66.1395 11.6471 66.1954 11.6471 66.1954H11.6467Z" fill="#F2FAFD"/>
</g>
<defs>
<clipPath id="clip0_4977_1515">
<rect width="56.2114" height="47.8318" fill="white" transform="translate(10.7612 31.2251)"/>
</clipPath>
</defs>
</svg>
