<svg width="66" height="96" viewBox="0 0 66 96" fill="none" xmlns="http://www.w3.org/2000/svg">
<g clip-path="url(#clip0_3556_1350)">
<rect width="65.4895" height="95" transform="translate(0.489563 0.545929)" fill="white"/>
<path d="M4.98944 0.545929L61.4792 0.545929C63.9602 0.545929 65.9791 2.56485 65.9791 5.04582V91.046C65.9791 93.527 63.9602 95.5459 61.4792 95.5459H4.98944C2.50847 95.5459 0.489563 93.527 0.489563 91.046L0.489563 5.04582C0.489563 2.56485 2.50847 0.545929 4.98944 0.545929Z" fill="white"/>
<path d="M53.1947 64.4335C54.4485 64.4335 55.485 63.1797 56.8224 62.7952C56.4044 64.4669 55.2509 65.2359 55.2509 66.824C55.2509 67.7769 56.02 68.5459 56.9729 68.5459C57.9258 68.5459 58.6947 67.7769 58.6947 66.824C58.6947 65.2359 57.5245 64.4669 57.1233 62.7952C58.4439 63.1797 59.4804 64.4335 60.7509 64.4335C61.7038 64.4335 62.4728 63.6645 62.4728 62.7116C62.4728 61.7587 61.7038 60.9897 60.7509 60.9897C59.4804 60.9897 58.4272 62.2602 57.0898 62.628C57.0898 62.628 57.0898 62.6113 57.0898 62.5946C57.1567 61.8423 57.5413 58.8499 59.2631 57.5459C58.6446 57.8301 57.8422 57.9973 56.9561 57.9973C56.0701 57.9973 55.3178 57.8468 54.716 57.5794C56.4211 58.9 56.7722 61.8924 56.8391 62.6113C55.5184 62.2268 54.482 60.973 53.2115 60.973C52.2586 60.973 51.4895 61.742 51.4895 62.6949C51.4895 63.6478 52.2586 64.4167 53.2115 64.4167L53.1947 64.4335Z" fill="black"/>
<path d="M13.561 31.6584C12.3072 31.6584 11.2707 32.9122 9.93336 33.2967C10.3513 31.625 11.5048 30.856 11.5048 29.2678C11.5048 28.3149 10.7357 27.5459 9.78286 27.5459C8.82997 27.5459 8.06103 28.3149 8.06103 29.2678C8.06103 30.856 9.23125 31.625 9.63246 33.2967C8.31179 32.9122 7.27535 31.6584 6.00483 31.6584C5.05194 31.6584 4.2829 32.4274 4.2829 33.3803C4.2829 34.3332 5.05194 35.1022 6.00483 35.1022C7.27535 35.1022 8.32854 33.8317 9.66593 33.4639C9.66593 33.4639 9.66593 33.4806 9.66593 33.4973C9.59906 34.2496 9.21448 37.242 7.49259 38.5459C8.11114 38.2617 8.91358 38.0946 9.79959 38.0946C10.6856 38.0946 11.4379 38.245 12.0398 38.5125C10.3346 37.1918 9.9835 34.1994 9.91663 33.4806C11.2373 33.8651 12.2737 35.1189 13.5443 35.1189C14.4971 35.1189 15.2662 34.3499 15.2662 33.397C15.2662 32.4441 14.4971 31.6751 13.5443 31.6751L13.561 31.6584Z" fill="black"/>
<path d="M13.4782 19.3993C13.4782 20.5515 13.3245 21.4989 12.9917 22.2158L14.3999 23.3424L13.427 24.5458L12.0699 23.4704C11.4298 23.9825 10.5593 24.2386 9.48387 24.2386C8.05001 24.2386 7.02584 23.8545 6.41133 23.0607C5.79682 22.267 5.48956 21.2428 5.48956 19.9626V11.4107C5.48956 10.7962 5.54077 10.2073 5.64318 9.61835C5.7456 9.02945 5.95043 8.51736 6.23208 8.05648C6.51373 7.59559 6.9234 7.23713 7.43549 6.95548C7.94759 6.67383 8.61333 6.54581 9.45828 6.54581C10.3032 6.54581 11.0201 6.67383 11.5322 6.90427C12.0699 7.13471 12.454 7.49318 12.7357 7.90285C13.0173 8.33813 13.1965 8.85022 13.299 9.41352C13.4014 10.0024 13.427 10.6425 13.427 11.3339V19.3737L13.4782 19.3993ZM11.5066 11.0522C11.5066 10.745 11.5066 10.4377 11.4554 10.1304C11.4042 9.82319 11.3274 9.54154 11.1994 9.25989C11.0713 9.00384 10.8665 8.7734 10.5849 8.61978C10.3032 8.44054 9.94473 8.36373 9.50946 8.36373C9.02297 8.36373 8.63891 8.49175 8.35726 8.72219C8.10121 8.95263 7.89639 9.25989 7.76837 9.59275C7.64034 9.92561 7.56354 10.2841 7.53793 10.6425C7.53793 11.0266 7.51231 11.3339 7.51231 11.5643V19.9626C7.51231 20.2186 7.5123 20.4747 7.58912 20.7563C7.64032 21.038 7.74277 21.294 7.8964 21.5501C8.05002 21.8061 8.25484 22.011 8.51088 22.1646C8.76693 22.3182 9.09981 22.395 9.53509 22.395C9.97036 22.395 10.3032 22.3182 10.5849 22.1646L9.09981 20.9356L10.0728 19.7578L11.4298 20.8587C11.5322 20.5003 11.5835 20.0906 11.5835 19.6041V11.001L11.5066 11.0522Z" fill="black"/>
<path d="M53.501 76.6923C53.501 75.5401 53.6546 74.5927 53.9874 73.8758L52.5792 72.7492L53.5522 71.5458L54.9092 72.6212C55.5493 72.1091 56.4199 71.8531 57.4953 71.8531C58.9291 71.8531 59.9533 72.2371 60.5678 73.0309C61.1823 73.8246 61.4896 74.8488 61.4896 76.129L61.4896 84.6809C61.4896 85.2955 61.4384 85.8844 61.3359 86.4733C61.2335 87.0622 61.0287 87.5743 60.747 88.0351C60.4654 88.496 60.0557 88.8545 59.5436 89.1361C59.0315 89.4178 58.3658 89.5458 57.5208 89.5458C56.6759 89.5458 55.959 89.4178 55.4469 89.1873C54.9092 88.9569 54.5251 88.5984 54.2435 88.1888C53.9618 87.7535 53.7826 87.2414 53.6802 86.6781C53.5777 86.0892 53.5522 85.4491 53.5522 84.7578L53.5522 76.7179L53.501 76.6923ZM55.4725 85.0394C55.4725 85.3467 55.4725 85.6539 55.5237 85.9612C55.5749 86.2684 55.6517 86.5501 55.7798 86.8317C55.9078 87.0878 56.1126 87.3182 56.3942 87.4718C56.6759 87.6511 57.0344 87.7279 57.4697 87.7279C57.9562 87.7279 58.3402 87.5999 58.6219 87.3694C58.8779 87.139 59.0827 86.8317 59.2108 86.4989C59.3388 86.166 59.4156 85.8075 59.4412 85.4491C59.4412 85.065 59.4668 84.7578 59.4668 84.5273L59.4668 76.129C59.4668 75.873 59.4668 75.6169 59.39 75.3353C59.3388 75.0536 59.2364 74.7976 59.0827 74.5415C58.9291 74.2855 58.7243 74.0807 58.4682 73.927C58.2122 73.7734 57.8793 73.6966 57.444 73.6966C57.0088 73.6966 56.6759 73.7734 56.3942 73.927L57.8793 75.156L56.9064 76.3339L55.5493 75.2329C55.4469 75.5913 55.3957 76.001 55.3957 76.4875L55.3957 85.0906L55.4725 85.0394Z" fill="black"/>
<path d="M25.6553 47.9029L27.0102 44.4526L25.2766 37.1734C25.2766 37.1734 23.7282 38.0486 23.1139 38.7975C22.508 39.5381 21.5739 40.1187 21.0437 40.6994C20.5136 41.28 19.3102 43.569 18.9483 44.3096C18.6538 44.9239 17.6776 46.7332 17.2821 47.9029H25.6385H25.6553Z" fill="#024BD3"/>
<path d="M16.9876 47.5831C16.9623 47.6336 16.8277 47.7514 16.6846 47.9113H23.3832C23.4926 47.5831 23.3832 47.2465 22.9372 47.0109C21.8011 46.4134 22.2724 46.5059 22.6595 46.0852C23.0466 45.6644 23.5347 45.4624 23.1897 45.3446C22.8446 45.2268 22.4239 43.4849 21.0185 43.4428C19.6048 43.4007 18.3088 43.5858 18.3088 43.5858C18.3088 43.5858 15.8094 43.0977 16.0198 43.9309C16.2302 44.764 17.0381 45.109 16.6426 45.4793C16.247 45.8495 15.1615 45.9421 15.3045 46.5228C15.4392 47.1034 17.0886 47.398 16.996 47.5831H16.9876Z" fill="#CDD9DD"/>
<path d="M34.1632 29.5996C34.1632 29.5996 33.187 34.8339 32.3118 36.3318C31.4367 37.8298 30.0229 38.646 30.8392 39.6727C31.6554 40.6994 30.4016 43.4091 36.5952 43.4259C42.7889 43.4428 47.0554 38.3599 47.2574 36.7021C47.4594 35.0443 41.9305 28.5309 41.9305 28.5309L34.1548 29.5912L34.1632 29.5996Z" fill="#D78E69"/>
<path d="M41.3751 42.3572C41.3751 42.3572 42.5364 42.3151 41.7454 40.733C41.6444 40.5395 41.5855 40.3712 41.5434 40.2281C41.2489 40.4385 40.9544 40.7667 40.9544 40.9939C40.9544 41.4568 39.6332 41.1875 39.6668 40.9939C39.6921 40.8004 38.3625 40.8424 37.8996 40.9939C37.4284 41.1454 36.8309 40.9687 36.8729 39.9336C36.915 38.8985 34.281 39.7821 33.9949 39.9168C33.7425 40.0346 33.0692 39.5717 32.4044 38.4777C32.2866 38.5366 32.1856 38.5871 32.1267 38.6208C31.8406 38.7723 31.9752 39.5465 31.6639 39.8747C31.403 40.1524 31.2347 40.7162 30.6456 41.0696C33.1366 41.9364 37.4704 44.3095 37.4704 44.3095C37.4704 44.3095 44.026 42.5087 44.2027 42.374C44.2448 42.3403 44.1522 42.2225 43.9923 42.0626C43.1592 43.2155 41.3667 42.3572 41.3667 42.3572H41.3751Z" fill="#CDD9DD"/>
<path d="M41.0217 17.7929C41.0217 17.7929 39.5827 17.3553 38.514 17.7929C37.4452 18.2305 36.8141 18.382 36.3176 17.9444C35.8126 17.5068 34.1801 17.3133 33.7257 17.9023C33.2712 18.4914 32.7663 19.577 32.9178 21.3442C33.0693 23.1114 33.0356 23.4312 32.8925 24.5672C32.7495 25.7033 33.3975 27.6388 34.0286 29.2714C34.6598 30.904 35.6443 31.6866 37.9249 31.8381C40.2139 31.9895 41.9727 29.9446 42.4355 28.8759C42.8899 27.8071 43.1256 27.5799 43.1256 27.5799C43.1256 27.5799 44.2784 26.4691 44.5562 25.5855C44.8423 24.685 44.9601 23.6416 44.4467 23.2797C44.0007 22.9683 43.4706 23.7341 43.4706 23.7341L43.0835 24.5252L42.6206 24.786C42.6206 24.786 42.7721 23.7341 43.0162 22.9431C43.2602 22.152 42.9488 21.3442 42.9067 21.0328C42.8647 20.7214 42.141 17.9781 41.0301 17.7929H41.0217Z" fill="#F1A882"/>
<path d="M37.2012 28.0596C37.1675 27.622 37.1086 27.4032 37.1254 27.3275C37.1423 27.2433 36.9908 26.7721 36.8982 26.7721C36.8057 26.7721 36.4017 26.5953 36.2671 26.3597C36.1408 26.1241 36.7467 25.3162 36.7636 24.7356C36.7804 24.1549 36.8898 23.0862 36.5869 22.3372C36.2755 21.5882 34.9038 21.1759 34.1801 21.2432C33.4564 21.3105 33.5489 21.0917 33.5489 21.0917C33.3133 20.1829 33.9192 18.3231 34.1717 17.6246C33.9865 17.6835 33.8266 17.7761 33.7257 17.9023C33.2712 18.4914 32.7663 19.577 32.9178 21.3442C33.0693 23.1114 33.0356 23.4312 32.8925 24.5673C32.7495 25.7033 33.3975 27.6388 34.0286 29.2714C34.5756 30.6852 35.3835 31.4594 37.075 31.7455C36.8898 31.0807 37.2769 30.357 37.4284 30.1298C37.5883 29.8941 37.319 29.3387 37.2517 29.0358C37.1843 28.7412 37.2348 28.4972 37.2096 28.0596H37.2012Z" fill="#D78E69"/>
<path d="M18.0563 45.3614C18.0984 45.454 20.0424 47.5831 21.3888 45.5045C22.7353 43.4259 21.515 43.8298 21.6665 43.165C21.818 42.5002 21.7591 40.0682 21.7843 39.1846C21.8096 38.3094 21.7338 36.4075 21.7338 36.4075C21.7338 36.4075 21.7843 36.012 20.7156 35.8101C19.6468 35.5997 17.8965 35.465 17.7282 35.8101C17.5683 36.1551 17.6019 36.1214 17.1307 36.5927C16.6594 37.0639 16.3396 38.3094 16.3901 38.9321C16.4322 39.5549 16.3901 39.9925 16.3901 40.4132C16.3901 40.8256 16.6931 41.4736 17.4336 42.6349C18.1742 43.7962 18.0563 45.3614 18.0563 45.3614Z" fill="#F1A882"/>
<path d="M21.5066 36.9125C21.5066 36.9798 21.2794 37.8129 21.1363 37.956C21.0017 38.0906 20.1601 38.301 19.8151 38.301C19.4701 38.301 19.1167 38.5114 18.8389 38.6713C18.5612 38.8312 18.2583 39.4792 18.2162 40.0177C18.1741 40.5479 18.5192 41.0612 18.8137 41.5409C19.1166 42.029 20.7829 42.9547 20.968 43.7373C21.0858 44.2422 21.1195 45.2184 21.1279 45.8327C21.2121 45.7317 21.3046 45.6223 21.3804 45.4961C22.7268 43.4175 21.5066 43.8214 21.6581 43.1566C21.8095 42.4918 21.7506 40.0598 21.7759 39.1762C21.7927 38.5114 21.7591 37.2744 21.7422 36.7021C21.5992 36.8115 21.4982 36.8957 21.4982 36.9125H21.5066Z" fill="#D78E69"/>
<path d="M36.5111 47.9029C36.5448 47.1539 36.5784 46.4975 36.5869 46.4049C36.6037 46.1693 34.9459 44.4021 34.8112 44.3095C34.6766 44.2254 30.2838 41.8523 30.2838 41.8523C30.2838 41.8523 28.6176 44.3095 28.1295 46.7247C28.0453 47.1455 28.0285 47.5326 28.0622 47.9029H36.5111Z" fill="#024BD3"/>
<path d="M30.1659 42.8369C31.7817 43.5185 34.4661 44.7556 34.8953 45.5466C35.2235 46.1525 35.274 47.1287 35.2572 47.9113H36.5363C37.7313 47.2549 38.9683 46.3376 39.6836 45.1595C40.0203 44.6041 40.4074 44.0066 40.8197 43.3923C39.1451 43.8635 37.4704 44.318 37.4704 44.318C37.4704 44.318 33.1365 41.9448 30.6456 41.0781C30.5362 41.1454 30.4184 41.1959 30.2837 41.2464C29.4843 41.5241 30.2669 42.1216 30.1659 42.8453V42.8369Z" fill="#E13F00"/>
<path d="M56.4048 40.0682C55.9083 38.7638 51.4061 34.6908 51.0106 34.2112C50.6151 33.7315 47.2322 33.9503 46.0035 34.2112C44.7749 34.472 45.1283 37.855 44.7917 38.0738C44.4551 38.2926 41.3751 42.3572 39.6836 45.1426C38.9683 46.3208 37.7313 47.238 36.5363 47.8944H56.4048V40.0598V40.0682Z" fill="#024BD3"/>
<path d="M46.4159 47.9029C48.7469 46.3545 50.7329 44.7977 51.2967 43.8636C52.5675 41.7681 52.214 39.3277 51.5324 39.0332C50.8507 38.7386 48.0316 40.5984 46.4495 43.4344C45.7342 44.7219 42.9572 46.4302 40.1296 47.9113H46.4075L46.4159 47.9029Z" fill="#1B337F"/>
<path d="M44.2616 14.1828C44.0175 14.2248 43.8492 14.452 43.8913 14.6877C43.8913 14.7298 43.9166 14.755 43.9334 14.7887C43.7567 14.7298 43.4958 14.7887 43.3275 14.7718C43.0666 14.7718 43.2265 14.1491 43.0161 13.8293C43.0077 13.8125 42.9909 13.8041 42.9741 13.7872C43.0582 13.8209 43.1424 13.8377 43.2349 13.8293C43.5126 13.7872 43.6978 13.5264 43.6557 13.2571C43.6136 12.9794 43.3527 12.7942 43.0835 12.8363C42.8058 12.8784 42.6206 13.1393 42.6627 13.4085C42.6795 13.5348 42.7468 13.6358 42.8394 13.7115C42.5869 13.6442 42.2083 13.8461 41.9895 13.7283C41.7202 13.5853 41.9642 13.0467 41.5687 12.7522C41.6276 12.769 41.6949 12.769 41.7622 12.7606C42.04 12.7185 42.2251 12.4576 42.183 12.1883C42.1409 11.9106 41.8801 11.7255 41.6108 11.7676C41.3331 11.8096 41.1479 12.0705 41.19 12.3398C41.2068 12.4745 41.2826 12.5923 41.3836 12.668C41.0385 12.6175 40.9123 13.2823 40.2222 13.1561C39.5322 13.0299 39.9698 12.2809 39.4144 11.9864C39.1535 11.6329 39.0862 11.1112 39.0694 10.9681C39.3891 11.0607 39.6332 11.3552 39.9361 11.3552C40.1633 11.3552 40.3485 11.1701 40.3485 10.9429C40.3485 10.7157 40.1633 10.5305 39.9361 10.5305C39.6332 10.5305 39.3891 10.8251 39.0694 10.9176C39.1703 10.5221 39.448 10.337 39.448 9.95828C39.448 9.73107 39.2629 9.54593 39.0357 9.54593C38.8085 9.54593 38.6233 9.73107 38.6233 9.95828C38.6233 10.337 38.901 10.5221 39.002 10.9176C38.6907 10.8251 38.4382 10.5305 38.1353 10.5305C37.908 10.5305 37.7229 10.7157 37.7229 10.9429C37.7229 11.1701 37.908 11.3552 38.1353 11.3552C38.4382 11.3552 38.6907 11.0523 39.0104 10.9597C38.9936 11.1028 38.9347 11.5908 38.6991 11.9359C38.3204 12.1463 38.3456 12.7858 37.8744 12.9205C37.2769 13.0804 37.2432 12.2388 36.8309 12.2641C37.0918 12.2136 37.2685 11.9611 37.2264 11.7002C37.1843 11.4225 36.9235 11.2374 36.6542 11.2795C36.3765 11.3216 36.1913 11.5824 36.2334 11.8517C36.2755 12.1126 36.5195 12.2977 36.7804 12.2725C36.3765 12.3651 36.5195 13.2066 36.1661 13.3496C35.8379 13.4843 35.7116 12.9962 35.333 12.9794C35.5181 12.8868 35.6359 12.6764 35.6023 12.4576C35.5602 12.1799 35.2993 11.9948 35.03 12.0369C34.7523 12.0789 34.5672 12.3398 34.6092 12.6091C34.6513 12.8531 34.8617 13.0215 35.0973 13.0215C34.8196 13.2066 34.9711 13.8041 34.9122 13.964C34.8449 14.1407 34.5672 14.0144 34.2474 14.0649C33.9276 14.1154 34.1969 15.0748 34.1969 15.0748C34.1969 15.0748 35.7537 14.856 38.4382 14.8139C41.1227 14.7718 43.4537 16.9851 43.4537 16.9851C43.4537 16.9851 44.1522 15.3272 44.1101 14.9822C44.1943 15.0327 44.2953 15.0579 44.4047 15.0411C44.6487 15.0075 44.817 14.7718 44.7749 14.5362C44.7329 14.3006 44.5056 14.1239 44.27 14.1659L44.2616 14.1828Z" fill="#FFC33E"/>
<path d="M56.4048 37.7288C55.74 37.207 55.4371 37.2407 55.3445 36.5843C55.2099 35.7259 54.3599 33.8577 53.4511 33.4033C52.5506 32.9405 50.8171 32.4356 50.7245 32.3682C50.6404 32.3009 49.9587 30.702 49.6474 30.0624C49.336 29.4229 48.6628 29.3135 48.1326 28.9011C47.6108 28.4804 46.8366 28.5309 47.148 27.5799C47.4594 26.6374 48.5534 25.3162 47.9811 24.2811C47.4089 23.246 46.4832 22.7916 46.357 21.9501C46.2223 21.117 46.5758 17.6246 44.3625 16.3539C42.1409 15.0832 41.7454 15.3188 41.7454 15.3188C41.7454 15.3188 41.9221 14.1239 39.1787 14.2838C37.4115 14.3847 36.9402 14.6793 36.9402 14.6793C36.9402 14.6793 35.4676 13.8041 34.3483 14.4857C33.2291 15.1674 33.1365 15.2515 33.1197 15.9332C33.0944 16.6148 32.3707 16.2614 32.1772 16.9682C31.9836 17.6751 32.1519 17.389 31.6049 17.6751C31.058 17.9612 30.7887 17.6499 31.0579 18.8364C31.3188 20.023 32.0678 19.779 31.4955 20.3344C30.9233 20.8814 29.762 20.7299 30.1575 22.2446C30.553 23.7594 30.6624 23.6247 30.553 24.3737C30.4436 25.1227 31.2767 25.0974 30.755 25.779C30.2248 26.4607 29.3244 27.2938 30.2501 28.1942C31.1758 29.0947 32.9093 31.0302 32.1351 31.594C31.3693 32.1663 30.0902 30.1634 29.3244 31.4173C28.5586 32.6712 29.5011 34.1607 28.1126 34.3795C26.7325 34.5983 25.8741 34.5141 25.8489 35.6502C25.8236 36.7947 25.4281 37.1397 24.5108 37.7372C23.5852 38.3347 24.4856 40.2197 23.3664 40.6405C22.2471 41.0612 21.7422 41.3221 22.2724 42.576C22.8025 43.8299 23.6777 44.2422 23.6104 45.0164C23.5431 45.7822 21.8516 45.8075 22.062 46.7921C22.1461 47.1792 22.2471 47.5494 22.3986 47.9029H28.971C28.8026 47.0361 28.6848 46.0768 28.8447 45.6055C29.1729 44.6209 29.7031 43.9393 30.0986 43.0978C30.4941 42.2646 29.4001 41.5409 30.3006 41.2296C31.201 40.9182 31.3777 40.1945 31.6807 39.8663C31.992 39.5381 31.8574 38.7639 32.1435 38.6124C32.4296 38.4609 33.4816 38.646 34.0117 38.1327C35.0973 37.0724 34.0117 36.5927 34.2305 36.2645C34.5251 35.8185 35.619 35.1789 35.7032 34.7077C35.9725 33.2013 35.4339 32.3093 35.2572 31.0218C34.7102 30.6094 34.3399 30.0288 34.0454 29.2714C33.4142 27.6388 32.7578 25.6949 32.9093 24.5673C33.0608 23.4312 33.086 23.1114 32.9346 21.3442C32.7831 19.577 33.2796 18.4914 33.7424 17.9023C34.1969 17.3133 35.8378 17.5068 36.3343 17.9444C36.8393 18.382 37.4704 18.2305 38.5307 17.7929C39.5995 17.3553 41.0385 17.7929 41.0385 17.7929C42.1493 17.9781 42.8646 20.7299 42.9151 21.0328C42.9572 21.3442 43.2685 22.1521 43.0245 22.9431C42.7805 23.7341 42.629 24.7861 42.629 24.7861L43.0918 24.5252L43.4789 23.7341C43.4789 23.7341 44.0091 22.9599 44.4551 23.2797C44.9769 23.6416 44.8506 24.6935 44.5645 25.5855C44.2868 26.4691 43.1339 27.5799 43.1339 27.5799C43.1339 27.5799 42.9067 27.8071 42.4438 28.8759C42.3344 29.1368 42.1493 29.4481 41.8969 29.7763C41.7454 30.5926 41.6528 31.6529 42.1409 31.9559C42.9488 32.4692 42.7131 32.3598 42.6458 33.1929C42.5785 34.0261 44.817 34.7329 44.1353 35.4146C43.4537 36.0962 42.2503 36.3992 42.8394 37.2996C43.4369 38.2 44.6487 38.4272 43.4369 38.9237C42.2166 39.4202 40.9796 39.1426 41.7706 40.7246C42.5617 42.3067 41.4004 42.3488 41.4004 42.3488C41.4004 42.3488 43.42 43.3165 44.169 41.8186C44.9179 40.3291 44.5393 39.5381 45.0442 39.5381C45.5491 39.5381 44.3878 40.0178 46.0119 40.5732C47.6361 41.1202 48.2504 40.8593 48.2504 39.8915C48.2504 38.9238 47.4846 39.1005 47.6361 38.3515C47.7876 37.6025 48.5786 37.8214 47.6613 36.9882C46.7441 36.1551 45.5743 35.9784 46.0119 35.6081C46.4495 35.2379 47.1732 34.5983 47.7034 35.2126C48.2252 35.8269 48.4103 35.1285 49.3276 35.7175C50.2533 36.3066 52.3823 35.8942 53.3501 37.3838C54.3178 38.8733 54.8228 38.3683 55.4371 39.9083C55.7989 40.8088 56.1103 41.5746 56.4385 41.9701V37.7119L56.4048 37.7288Z" fill="#572B16"/>
<path d="M56.4049 44.7892C55.597 44.9743 54.8733 45.1426 54.3347 45.2268C53.2407 45.3951 52.0626 46.5985 51.0527 47.9113H56.4049V44.7892Z" fill="#1B337F"/>
<path d="M24.452 31.8633C24.452 31.8633 26.8587 31.0891 26.1771 33.4454C25.4955 35.8017 25.7227 31.6361 24.452 31.8633Z" fill="#63A518"/>
<path d="M21.5655 36.2645C21.5066 36.2393 21.4729 36.1635 21.4897 36.0962C21.5487 35.9111 23.0297 31.6361 26.3117 30.4748C26.379 30.4495 26.6062 30.5085 26.6062 30.5085C26.6062 30.5337 26.4716 30.702 26.4043 30.7273C23.2485 31.8465 21.759 36.1383 21.7506 36.1804C21.7254 36.2477 21.6496 36.2898 21.5823 36.2645C21.5823 36.2645 21.5823 36.2645 21.5739 36.2645H21.5655Z" fill="#8DC63F"/>
<path d="M22.0283 35.1537C22.0283 35.1537 22.0788 32.4187 19.8488 33.8662C17.6187 35.3136 21.8685 33.7736 22.0283 35.1537Z" fill="#63A518"/>
<path d="M22.6006 33.7483C22.6006 33.7483 23.2149 31.1901 20.825 32.0905C18.435 32.9825 22.7352 32.4187 22.6006 33.7483Z" fill="#63A518"/>
<path d="M23.6525 32.3767C23.6525 32.3767 24.5445 30.0119 22.1546 30.5842C19.7646 31.148 23.9386 31.1312 23.6525 32.3767Z" fill="#63A518"/>
<path d="M24.8895 31.2743C24.8895 31.2743 26.0256 29.1873 23.7282 29.4061C21.4308 29.6249 25.3187 30.1466 24.8895 31.2743Z" fill="#63A518"/>
<path d="M25.9499 30.6263C25.9499 30.6263 27.5909 29.7763 26.0172 28.918C24.4435 28.0512 26.7241 30.0877 25.9499 30.6263Z" fill="#63A518"/>
<path d="M22.4828 34.5814C22.4828 34.5814 25.1504 33.9924 24.1743 36.4581C23.1981 38.9322 23.8629 34.4636 22.4828 34.5814Z" fill="#63A518"/>
<path d="M23.2822 33.2266C23.2822 33.2266 25.6637 32.1158 25.2598 34.6404C24.8559 37.165 24.5529 32.8311 23.2822 33.2266Z" fill="#63A518"/>
<path d="M25.7142 31.0386C25.7142 31.0386 27.5656 30.3654 27.0943 32.2252C26.6231 34.085 26.6904 30.8282 25.7142 31.0386Z" fill="#63A518"/>
<path d="M26.5389 30.5842C26.5389 30.5842 27.4562 28.9769 28.2557 30.5842C29.0551 32.1999 27.1112 29.8352 26.5389 30.5842Z" fill="#63A518"/>
<path d="M40.2727 48.1974L38.9178 51.6477L40.6514 58.9269C40.6514 58.9269 42.1998 58.0517 42.8141 57.3027C43.42 56.5622 44.3541 55.9815 44.8843 55.4009C45.4145 54.8202 46.6178 52.5313 46.9797 51.7907C47.2742 51.1764 48.2504 49.3671 48.6459 48.1974H40.2895H40.2727Z" fill="#024BD3"/>
<path d="M48.9405 48.5172C48.9657 48.4667 49.1004 48.3489 49.2434 48.189H42.5448C42.4354 48.5172 42.5448 48.8538 42.9909 49.0894C44.1269 49.6869 43.6557 49.5943 43.2686 50.0151C42.8815 50.4359 42.3934 50.6378 42.7384 50.7556C43.0834 50.8734 43.5042 52.6154 44.9095 52.6575C46.3233 52.6996 47.6193 52.5144 47.6193 52.5144C47.6193 52.5144 50.1186 53.0025 49.9082 52.1694C49.6978 51.3363 48.89 50.9913 49.2855 50.621C49.681 50.2507 50.7666 50.1581 50.6235 49.5775C50.4889 48.9968 48.8395 48.7023 48.9321 48.5172H48.9405Z" fill="#CDD9DD"/>
<path d="M31.7648 66.5007C31.7648 66.5007 32.741 61.2663 33.6162 59.7684C34.4914 58.2705 35.9052 57.4542 35.0889 56.4275C34.2726 55.4009 35.5265 52.6912 29.3328 52.6743C23.1391 52.6575 18.8726 57.7403 18.6706 59.3981C18.4687 61.056 23.9975 67.5694 23.9975 67.5694L31.7733 66.5091L31.7648 66.5007Z" fill="#D78E69"/>
<path d="M24.5529 53.7346C24.5529 53.7346 23.3916 53.7767 24.1827 55.3588C24.2837 55.5523 24.3426 55.7207 24.3846 55.8637C24.6792 55.6533 24.9737 55.3251 24.9737 55.0979C24.9737 54.6351 26.2949 54.9044 26.2613 55.0979C26.236 55.2915 27.5656 55.2494 28.0285 55.0979C28.4997 54.9464 29.0972 55.1232 29.0551 56.1583C29.0131 57.1933 31.647 56.3097 31.9332 56.1751C32.1856 56.0573 32.8589 56.5201 33.5237 57.6141C33.6415 57.5552 33.7425 57.5047 33.8014 57.471C34.0875 57.3196 33.9528 56.5454 34.2642 56.2172C34.5251 55.9395 34.6934 55.3756 35.2825 55.0222C32.7915 54.1554 28.4576 51.7823 28.4576 51.7823C28.4576 51.7823 21.9021 53.5832 21.7254 53.7178C21.6833 53.7515 21.7759 53.8693 21.9358 54.0292C22.7689 52.8763 24.5614 53.7346 24.5614 53.7346H24.5529Z" fill="#CDD9DD"/>
<path d="M24.9148 78.3074C24.9148 78.3074 26.3538 78.7449 27.4225 78.3074C28.4913 77.8698 29.1224 77.7183 29.6189 78.1559C30.1239 78.5935 31.7564 78.787 32.2109 78.1979C32.6653 77.6089 33.1702 76.5233 33.0187 74.7561C32.8672 72.9889 32.9009 72.6691 33.044 71.533C33.187 70.397 32.5391 68.4614 31.9079 66.8289C31.2768 65.1963 30.2922 64.4137 28.0116 64.2622C25.7227 64.1107 23.9639 66.1556 23.501 67.2244C23.0466 68.2931 22.811 68.5204 22.811 68.5204C22.811 68.5204 21.6581 69.6312 21.3804 70.5148C21.0942 71.4152 20.9764 72.4587 21.4898 72.8206C21.9358 73.1319 22.4659 72.3662 22.4659 72.3662L22.853 71.5835L23.3159 71.3226C23.3159 71.3226 23.1644 72.3746 22.9204 73.1656C22.6763 73.9566 22.9877 74.7645 23.0298 75.0759C23.0718 75.3872 23.7955 78.1306 24.9064 78.3157L24.9148 78.3074Z" fill="#F1A882"/>
<path d="M28.7353 68.0406C28.769 68.4782 28.8279 68.697 28.8111 68.7728C28.7942 68.8569 28.9457 69.3282 29.0383 69.3282C29.1309 69.3282 29.5348 69.5049 29.6694 69.7405C29.7957 69.9762 29.1898 70.784 29.1729 71.3647C29.1561 71.9454 29.0467 73.0141 29.3497 73.7631C29.661 74.512 31.0327 74.9244 31.7564 74.857C32.4802 74.7897 32.3876 75.0085 32.3876 75.0085C32.6232 75.9174 32.0173 77.7771 31.7649 78.4756C31.95 78.4167 32.1099 78.3241 32.2109 78.1979C32.6653 77.6088 33.1702 76.5233 33.0187 74.7561C32.8673 72.9888 32.9009 72.6691 33.044 71.533C33.187 70.3969 32.5391 68.4614 31.9079 66.8288C31.3609 65.4151 30.553 64.6409 28.8616 64.3547C29.0467 65.0195 28.6596 65.7433 28.5081 65.9705C28.3482 66.2061 28.6175 66.7615 28.6849 67.0645C28.7522 67.359 28.7017 67.603 28.7269 68.0406H28.7353Z" fill="#D78E69"/>
<path d="M47.8717 50.7388C47.8297 50.6462 45.8857 48.5172 44.5393 50.5958C43.1928 52.6743 44.413 52.2704 44.2616 52.9352C44.1101 53.6 44.169 56.032 44.1438 56.9156C44.1185 57.7908 44.1942 59.6927 44.1942 59.6927C44.1942 59.6927 44.1438 60.0882 45.2125 60.2902C46.2812 60.5006 48.0316 60.6352 48.1999 60.2902C48.3598 59.9451 48.3262 59.9788 48.7974 59.5076C49.2687 59.0363 49.5885 57.7908 49.538 57.1681C49.4959 56.5454 49.538 56.1078 49.538 55.687C49.538 55.2746 49.235 54.6267 48.4945 53.4653C47.7539 52.304 47.8717 50.7388 47.8717 50.7388Z" fill="#F1A882"/>
<path d="M44.4215 59.1878C44.4215 59.1204 44.6487 58.2873 44.7917 58.1443C44.9264 58.0096 45.7679 57.7993 46.1129 57.7993C46.458 57.7993 46.8114 57.5889 47.0891 57.429C47.3668 57.2691 47.6698 56.6211 47.7119 56.0825C47.7539 55.5524 47.4089 55.039 47.1144 54.5594C46.8114 54.0713 45.1452 53.1456 44.9601 52.3629C44.8422 51.858 44.8086 50.8819 44.8002 50.2675C44.716 50.3685 44.6234 50.4779 44.5477 50.6042C43.2012 52.6827 44.4215 52.2788 44.27 52.9436C44.1185 53.6084 44.1774 56.0404 44.1522 56.9241C44.1353 57.5889 44.169 58.8259 44.1858 59.3982C44.3289 59.2888 44.4299 59.2046 44.4299 59.1878H44.4215Z" fill="#D78E69"/>
<path d="M29.4254 48.1974C29.3917 48.9463 29.3581 49.6027 29.3497 49.6953C29.3328 49.9309 30.9907 51.6981 31.1253 51.7907C31.2599 51.8749 35.6527 54.248 35.6527 54.248C35.6527 54.248 37.319 51.7907 37.8071 49.3755C37.8912 48.9548 37.908 48.5677 37.8744 48.1974H29.4254Z" fill="#024BD3"/>
<path d="M35.7621 53.2634C34.1464 52.5818 31.4619 51.3447 31.0327 50.5537C30.7045 49.9478 30.654 48.9716 30.6709 48.189H29.3917C28.1967 48.8454 26.9597 49.7626 26.2444 50.9408C25.9078 51.4962 25.5207 52.0937 25.1083 52.708C26.783 52.2367 28.4576 51.7823 28.4576 51.7823C28.4576 51.7823 32.7915 54.1554 35.2824 55.0222C35.3918 54.9549 35.5096 54.9044 35.6443 54.8539C36.4437 54.5762 35.6611 53.9787 35.7621 53.255V53.2634Z" fill="#E13F00"/>
<path d="M9.52319 56.032C10.0197 57.3364 14.5219 61.4094 14.9174 61.8891C15.3129 62.3687 18.6959 62.1499 19.9245 61.8891C21.1531 61.6282 20.7997 58.2452 21.1363 58.0264C21.4729 57.8076 24.5529 53.7431 26.2444 50.9576C26.9597 49.7795 28.1967 48.8622 29.3917 48.2058H9.52319V56.0404V56.032Z" fill="#024BD3"/>
<path d="M19.5122 48.1974C17.1811 49.7458 15.1951 51.3026 14.6313 52.2367C13.3606 54.3321 13.714 56.7726 14.3957 57.0671C15.0773 57.3616 17.8964 55.5019 19.4785 52.6659C20.1938 51.3784 22.9709 49.6701 25.7984 48.189H19.5206L19.5122 48.1974Z" fill="#001C8C"/>
<path d="M21.6749 81.9175C21.919 81.8754 22.0873 81.6482 22.0452 81.4126C22.0452 81.3705 22.02 81.3453 22.0031 81.3116C22.1799 81.3705 22.4407 81.3116 22.609 81.32C22.8699 81.32 22.71 81.9427 22.9204 82.2625C22.9288 82.2793 22.9456 82.2878 22.9625 82.3046C22.8783 82.2709 22.7942 82.2541 22.7016 82.2625C22.4239 82.3046 22.2388 82.5655 22.2808 82.8348C22.3229 83.1125 22.5838 83.2976 22.8531 83.2555C23.1308 83.2135 23.3159 82.9526 23.2738 82.6833C23.257 82.557 23.1897 82.4561 23.0971 82.3803C23.3496 82.4477 23.7283 82.2457 23.9471 82.3635C24.2164 82.5066 23.9723 83.0451 24.3678 83.3397C24.3089 83.3228 24.2416 83.3228 24.1743 83.3313C23.8966 83.3733 23.7114 83.6342 23.7535 83.9035C23.7956 84.1812 24.0565 84.3663 24.3258 84.3243C24.6035 84.2822 24.7886 84.0213 24.7465 83.752C24.7297 83.6174 24.654 83.4996 24.553 83.4238C24.898 83.4743 25.0242 82.8095 25.7143 82.9357C26.4043 83.062 25.9667 83.8109 26.5221 84.1055C26.783 84.4589 26.8503 84.9807 26.8672 85.1237C26.5474 85.0312 26.3034 84.7366 26.0004 84.7366C25.7732 84.7366 25.588 84.9218 25.588 85.149C25.588 85.3762 25.7732 85.5613 26.0004 85.5613C26.3034 85.5613 26.5474 85.2668 26.8672 85.1742C26.7662 85.5697 26.4885 85.7549 26.4885 86.1335C26.4885 86.3608 26.6736 86.5459 26.9008 86.5459C27.128 86.5459 27.3132 86.3608 27.3132 86.1335C27.3132 85.7549 27.0355 85.5697 26.9345 85.1742C27.2459 85.2668 27.4983 85.5613 27.8013 85.5613C28.0285 85.5613 28.2136 85.3762 28.2136 85.149C28.2136 84.9218 28.0285 84.7366 27.8013 84.7366C27.4983 84.7366 27.2459 85.0396 26.9261 85.1321C26.9429 84.9891 27.0018 84.501 27.2375 84.1559C27.6161 83.9456 27.5909 83.306 28.0621 83.1714C28.6596 83.0115 28.6933 83.853 29.1057 83.8278C28.8448 83.8783 28.6681 84.1307 28.7101 84.3916C28.7522 84.6693 29.0131 84.8544 29.2824 84.8123C29.5601 84.7703 29.7452 84.5094 29.7031 84.2401C29.6611 83.9792 29.417 83.7941 29.1561 83.8193C29.5601 83.7268 29.417 82.8852 29.7705 82.7422C30.0987 82.6075 30.2249 83.0956 30.6036 83.1125C30.4184 83.205 30.3006 83.4154 30.3343 83.6342C30.3764 83.9119 30.6372 84.097 30.9065 84.055C31.1842 84.0129 31.3694 83.752 31.3273 83.4827C31.2852 83.2387 31.0748 83.0704 30.8392 83.0704C31.1169 82.8853 30.9654 82.2878 31.0243 82.1279C31.0917 81.9512 31.3694 82.0774 31.6891 82.0269C32.0089 81.9764 31.7396 81.0171 31.7396 81.0171C31.7396 81.0171 30.1828 81.2359 27.4983 81.2779C24.8138 81.32 22.4828 79.1068 22.4828 79.1068C22.4828 79.1068 21.7843 80.7646 21.8264 81.1096C21.7423 81.0591 21.6413 81.0339 21.5319 81.0507C21.2878 81.0928 21.1195 81.32 21.1616 81.5556C21.2037 81.7912 21.4309 81.968 21.6665 81.9259L21.6749 81.9175Z" fill="#FFC33E"/>
<path d="M9.52322 58.3715C10.188 58.8932 10.491 58.8596 10.5835 59.516C10.7182 60.3743 11.5681 62.2425 12.477 62.6969C13.3774 63.1598 15.111 63.6647 15.2035 63.732C15.2877 63.7993 15.9693 65.3982 16.2807 66.0378C16.5921 66.6774 17.2653 66.7868 17.7955 67.1991C18.3172 67.6199 19.0914 67.5694 18.78 68.5203C18.4687 69.4628 17.3747 70.7841 17.9469 71.8191C18.5192 72.8542 19.4449 73.3086 19.5711 74.1502C19.7057 74.9833 19.3523 78.4756 21.5655 79.7463C23.7872 81.0171 24.1827 80.7814 24.1827 80.7814C24.1827 80.7814 24.006 81.9764 26.7493 81.8165C28.5166 81.7155 28.9878 81.421 28.9878 81.421C28.9878 81.421 30.4605 82.2962 31.5797 81.6145C32.699 80.9329 32.7915 80.8487 32.8084 80.1671C32.8336 79.4855 33.5573 79.8389 33.7509 79.132C33.9444 78.4251 33.7761 78.7113 34.3231 78.4251C34.8701 78.139 35.1394 78.4504 34.8701 77.2638C34.6092 76.0773 33.8603 76.3213 34.4325 75.7659C35.0048 75.2189 36.1661 75.3704 35.7705 73.8556C35.375 72.3409 35.2656 72.4755 35.375 71.7266C35.4844 70.9776 34.6513 71.0028 35.1731 70.3212C35.7032 69.6396 36.6037 68.8064 35.678 67.906C34.7523 67.0056 33.0187 65.0701 33.7929 64.5062C34.5587 63.934 35.8379 65.9368 36.6037 64.683C37.3695 63.4291 36.4269 61.9396 37.8155 61.7208C39.1956 61.502 40.0539 61.5861 40.0792 60.4501C40.1044 59.3056 40.4999 58.9605 41.4172 58.3631C42.3429 57.7656 41.4424 55.8806 42.5617 55.4598C43.6809 55.039 44.1858 54.7781 43.6557 53.5243C43.1255 52.2704 42.2503 51.858 42.3176 51.0838C42.385 50.318 44.0764 50.2928 43.8661 49.3082C43.7819 48.9211 43.6809 48.5508 43.5294 48.1974H36.9571C37.1254 49.0642 37.2432 50.0235 37.0833 50.4947C36.7551 51.4793 36.225 52.161 35.8294 53.0025C35.4339 53.8356 36.5279 54.5593 35.6275 54.8707C34.727 55.1821 34.5503 55.9058 34.2474 56.234C33.936 56.5622 34.0707 57.3364 33.7845 57.4879C33.4984 57.6393 32.4465 57.4542 31.9163 57.9675C30.8308 59.0279 31.9163 59.5075 31.6975 59.8357C31.403 60.2817 30.309 60.9213 30.2249 61.3926C29.9556 62.8989 30.4942 63.7909 30.6709 65.0785C31.2179 65.4908 31.5881 66.0715 31.8827 66.8289C32.5138 68.4614 33.1702 70.4054 33.0187 71.533C32.8673 72.6691 32.842 72.9889 32.9935 74.7561C33.145 76.5233 32.6485 77.6089 32.1856 78.1979C31.7312 78.787 30.0902 78.5935 29.5937 78.1559C29.0888 77.7183 28.4576 77.8697 27.3973 78.3073C26.3286 78.7449 24.8896 78.3073 24.8896 78.3073C23.7787 78.1222 23.0634 75.3704 23.0129 75.0674C22.9709 74.7561 22.6595 73.9482 22.9035 73.1572C23.1476 72.3661 23.2991 71.3142 23.2991 71.3142L22.8362 71.5751L22.4491 72.3577C22.4491 72.3577 21.919 73.1319 21.4729 72.8121C20.9512 72.4503 21.0774 71.3984 21.3636 70.5063C21.6413 69.6227 22.7942 68.5119 22.7942 68.5119C22.7942 68.5119 23.0214 68.2847 23.4842 67.216C23.5936 66.9551 23.7787 66.6437 24.0312 66.3155C24.1827 65.4992 24.2752 64.4389 23.7871 64.136C22.9793 63.6226 23.2149 63.732 23.2822 62.8989C23.3496 62.0658 21.1111 61.3589 21.7927 60.6773C22.4744 59.9956 23.6777 59.6927 23.0887 58.7922C22.4912 57.8918 21.2794 57.6646 22.4912 57.1681C23.7114 56.6716 24.9485 56.9493 24.1574 55.3672C23.3664 53.7851 24.5277 53.7431 24.5277 53.7431C24.5277 53.7431 22.508 52.7753 21.7591 54.2732C21.0101 55.7627 21.3888 56.5538 20.8839 56.5538C20.379 56.5538 21.5403 56.0741 19.9161 55.5187C18.292 54.9717 17.6776 55.2326 17.6776 56.2003C17.6776 57.1681 18.4434 56.9914 18.292 57.7403C18.1405 58.4893 17.3494 58.2705 18.2667 59.1036C19.184 59.9367 20.3537 60.1135 19.9161 60.4837C19.4785 60.854 18.7548 61.4936 18.2246 60.8793C17.7029 60.2649 17.5178 60.9634 16.6005 60.3743C15.6748 59.7853 13.5457 60.1976 12.578 58.7081C11.6102 57.2186 11.1053 57.7235 10.491 56.1835C10.1291 55.2831 9.81776 54.5173 9.48956 54.1217V58.3799L9.52322 58.3715Z" fill="#572B16"/>
<path d="M9.52319 51.311C10.3311 51.1259 11.0548 50.9576 11.5934 50.8734C12.6874 50.7051 13.8655 49.5018 14.8753 48.189H9.52319V51.311Z" fill="#001C8C"/>
<path d="M41.4761 64.2369C41.4761 64.2369 39.0693 65.0111 39.751 62.6549C40.4326 60.2986 40.2054 64.4641 41.4761 64.2369Z" fill="#63A518"/>
<path d="M44.3625 59.8357C44.4214 59.861 44.4551 59.9367 44.4383 60.0041C44.3794 60.1892 42.8983 64.4642 39.6163 65.6255C39.549 65.6507 39.3218 65.5918 39.3218 65.5918C39.3218 65.5666 39.4564 65.3983 39.5237 65.373C42.6795 64.2538 44.169 59.962 44.1774 59.9199C44.2027 59.8526 44.2784 59.8105 44.3457 59.8357C44.3457 59.8357 44.3457 59.8357 44.3541 59.8357H44.3625Z" fill="#8DC63F"/>
<path d="M43.8998 60.9466C43.8998 60.9466 43.8493 63.6815 46.0793 62.2341C48.3094 60.7867 44.0596 62.3267 43.8998 60.9466Z" fill="#63A518"/>
<path d="M43.3275 62.3435C43.3275 62.3435 42.7132 64.9018 45.1031 64.0013C47.493 63.1093 43.1928 63.6731 43.3275 62.3435Z" fill="#63A518"/>
<path d="M42.2756 63.7236C42.2756 63.7236 41.3835 66.0883 43.7735 65.5161C46.1634 64.9522 41.9895 64.9691 42.2756 63.7236Z" fill="#63A518"/>
<path d="M41.0385 64.826C41.0385 64.826 39.9025 66.913 42.1998 66.6942C44.4972 66.4754 40.6093 65.9536 41.0385 64.826Z" fill="#63A518"/>
<path d="M39.9782 65.474C39.9782 65.474 38.3372 66.3239 39.9109 67.1823C41.4845 68.0491 39.204 66.0126 39.9782 65.474Z" fill="#63A518"/>
<path d="M43.4453 61.5188C43.4453 61.5188 40.7776 62.1079 41.7538 59.6422C42.73 57.1681 42.0652 61.6366 43.4453 61.5188Z" fill="#63A518"/>
<path d="M42.6459 62.8737C42.6459 62.8737 40.2643 63.9845 40.6683 61.4599C41.0722 58.9353 41.3752 63.2692 42.6459 62.8737Z" fill="#63A518"/>
<path d="M40.2222 65.0616C40.2222 65.0616 38.3709 65.7349 38.8421 63.8751C39.3134 62.0153 39.2461 65.272 40.2222 65.0616Z" fill="#63A518"/>
<path d="M39.3891 65.516C39.3891 65.516 38.4719 67.1234 37.6724 65.516C36.8729 63.9003 38.8169 66.265 39.3891 65.516Z" fill="#63A518"/>
</g>
<defs>
<clipPath id="clip0_3556_1350">
<rect width="65.4895" height="95" fill="white" transform="translate(0.489563 0.545929)"/>
</clipPath>
</defs>
</svg>
