<svg width="66" height="96" viewBox="0 0 66 96" fill="none" xmlns="http://www.w3.org/2000/svg">
<g clip-path="url(#clip0_3556_1633)">
<rect width="65.4895" height="95" transform="translate(0.489624 0.545929)" fill="white"/>
<path d="M4.9895 0.545929L61.4793 0.545929C63.9602 0.545929 65.9791 2.56485 65.9791 5.04582V91.046C65.9791 93.527 63.9602 95.5459 61.4793 95.5459H4.9895C2.50853 95.5459 0.489624 93.527 0.489624 91.046L0.489624 5.04582C0.489624 2.56485 2.50853 0.545929 4.9895 0.545929Z" fill="white"/>
<path d="M28.0115 22.7831C26.7138 22.7831 25.6506 24.0651 24.2903 24.4638C24.7125 22.7518 25.9163 21.9622 25.9163 20.3205C25.9163 19.3433 25.1268 18.5459 24.1418 18.5459C23.1568 18.5459 22.3672 19.3433 22.3672 20.3205C22.3672 21.9622 23.5633 22.7518 23.9932 24.4638C22.633 24.0651 21.562 22.7831 20.2642 22.7831C19.287 22.7831 18.4896 23.5726 18.4896 24.5577C18.4896 25.5427 19.287 26.3322 20.2642 26.3322C21.5698 26.3322 22.6486 25.0267 24.0323 24.6437C24.0323 24.6515 24.0323 24.6593 24.0323 24.6749C23.9541 25.441 23.5711 28.5212 21.7965 29.8658C22.4219 29.5844 23.2584 29.4046 24.173 29.4046C25.0877 29.4046 25.8538 29.5687 26.4714 29.8267C24.7203 28.4664 24.3528 25.3863 24.2747 24.6515C25.6349 25.0423 26.7059 26.3322 28.0037 26.3322C28.9809 26.3322 29.7782 25.5427 29.7782 24.5577C29.7782 23.5726 28.9887 22.7831 28.0037 22.7831H28.0115Z" fill="black"/>
<path d="M47.3078 22.7831C46.0101 22.7831 44.9469 24.0651 43.5788 24.4638C44.001 22.7518 45.2049 21.9622 45.2049 20.3205C45.2049 19.3433 44.4153 18.5459 43.4303 18.5459C42.4453 18.5459 41.6557 19.3433 41.6557 20.3205C41.6557 21.9622 42.8518 22.7518 43.2818 24.4638C41.9215 24.0651 40.8505 22.7831 39.5528 22.7831C38.5756 22.7831 37.7782 23.5726 37.7782 24.5577C37.7782 25.5427 38.5678 26.3322 39.5528 26.3322C40.8583 26.3322 41.9372 25.0267 43.3209 24.6437C43.3209 24.6515 43.3209 24.6593 43.3209 24.6749C43.2427 25.441 42.8596 28.5212 41.085 29.8658C41.7104 29.5844 42.5469 29.4046 43.4616 29.4046C44.3763 29.4046 45.1424 29.5687 45.76 29.8267C44.0088 28.4664 43.6414 25.3863 43.5711 24.6515C44.9313 25.0423 46.0023 26.3322 47.3 26.3322C48.2772 26.3322 49.0746 25.5427 49.0746 24.5577C49.0746 23.5726 48.285 22.7831 47.3 22.7831H47.3078Z" fill="black"/>
<path d="M28.0115 74.2606C26.7138 74.2606 25.6506 72.9785 24.2903 72.5798C24.7125 74.2919 25.9163 75.0815 25.9163 76.7232C25.9163 77.7004 25.1268 78.4978 24.1418 78.4978C23.1568 78.4978 22.3672 77.7004 22.3672 76.7232C22.3672 75.0893 23.5633 74.2919 23.9932 72.5798C22.633 72.9785 21.562 74.2606 20.2642 74.2606C19.287 74.2606 18.4896 73.4711 18.4896 72.486C18.4896 71.501 19.287 70.7115 20.2642 70.7115C21.5698 70.7115 22.6486 72.017 24.0323 72.4001C24.0323 72.3922 24.0323 72.3844 24.0323 72.3688C23.9541 71.6027 23.5711 68.5225 21.7965 67.1779C22.4219 67.4593 23.2584 67.6313 24.173 67.6313C25.0877 67.6313 25.8538 67.475 26.4714 67.2092C24.7203 68.5694 24.3528 71.6496 24.2747 72.3844C25.6349 71.9935 26.7059 70.7036 28.0037 70.7036C28.9809 70.7036 29.7782 71.4932 29.7782 72.4782C29.7782 73.4632 28.9887 74.2528 28.0037 74.2528L28.0115 74.2606Z" fill="black"/>
<path d="M47.3078 74.2606C46.0101 74.2606 44.9469 72.9785 43.5788 72.5798C44.001 74.2919 45.2049 75.0815 45.2049 76.7232C45.2049 77.7004 44.4153 78.4978 43.4303 78.4978C42.4453 78.4978 41.6557 77.7004 41.6557 76.7232C41.6557 75.0893 42.8518 74.2919 43.2818 72.5798C41.9215 72.9785 40.8505 74.2606 39.5528 74.2606C38.5756 74.2606 37.7782 73.4711 37.7782 72.486C37.7782 71.501 38.5678 70.7115 39.5528 70.7115C40.8583 70.7115 41.9372 72.017 43.3209 72.4001C43.3209 72.3922 43.3209 72.3844 43.3209 72.3688C43.2427 71.6027 42.8596 68.5225 41.085 67.1779C41.7104 67.4593 42.5469 67.6313 43.4616 67.6313C44.3763 67.6313 45.1424 67.475 45.76 67.2092C44.0088 68.5694 43.6414 71.6496 43.5711 72.3844C44.9313 71.9935 46.0023 70.7036 47.3 70.7036C48.2772 70.7036 49.0746 71.4932 49.0746 72.4782C49.0746 73.4632 48.285 74.2528 47.3 74.2528L47.3078 74.2606Z" fill="black"/>
<path d="M28.0115 47.103C26.7138 47.103 25.6506 48.385 24.2903 48.7837C24.7125 47.0717 25.9163 46.2821 25.9163 44.6404C25.9163 43.6632 25.1268 42.8658 24.1418 42.8658C23.1568 42.8658 22.3672 43.6632 22.3672 44.6404C22.3672 46.2821 23.5633 47.0717 23.9932 48.7837C22.633 48.385 21.562 47.103 20.2642 47.103C19.287 47.103 18.4896 47.8925 18.4896 48.8775C18.4896 49.8626 19.287 50.6521 20.2642 50.6521C21.5698 50.6521 22.6486 49.3466 24.0323 48.9635C24.0323 48.9713 24.0323 48.9792 24.0323 48.987C23.9541 49.7531 23.5711 52.8332 21.7965 54.1779C22.4219 53.8964 23.2584 53.7166 24.173 53.7166C25.0877 53.7166 25.8538 53.873 26.4714 54.1388C24.7203 52.7785 24.3528 49.6984 24.2747 48.9635C25.6349 49.3544 26.7059 50.6443 28.0037 50.6443C28.9809 50.6443 29.7782 49.8547 29.7782 48.8697C29.7782 47.8847 28.9887 47.0951 28.0037 47.0951L28.0115 47.103Z" fill="black"/>
<path d="M37.0115 34.7831C35.7138 34.7831 34.6506 36.0652 33.2903 36.4639C33.7125 34.7518 34.9163 33.9622 34.9163 32.3205C34.9163 31.3433 34.1268 30.5459 33.1418 30.5459C32.1568 30.5459 31.3672 31.3433 31.3672 32.3205C31.3672 33.9622 32.5633 34.7518 32.9932 36.4639C31.633 36.0652 30.562 34.7831 29.2642 34.7831C28.287 34.7831 27.4896 35.5726 27.4896 36.5577C27.4896 37.5427 28.287 38.3322 29.2642 38.3322C30.5698 38.3322 31.6486 37.0267 33.0323 36.6436C33.0323 36.6515 33.0323 36.6593 33.0323 36.6671C32.9541 37.4332 32.5711 40.5134 30.7965 41.858C31.4219 41.5766 32.2584 41.3967 33.173 41.3967C34.0877 41.3967 34.8538 41.5531 35.4714 41.8189C33.7203 40.4586 33.3528 37.3785 33.2747 36.6436C34.6349 37.0345 35.7059 38.3244 37.0037 38.3244C37.9809 38.3244 38.7782 37.5348 38.7782 36.5498C38.7782 35.5648 37.9887 34.7752 37.0037 34.7752L37.0115 34.7831Z" fill="black"/>
<path d="M29.2563 61.6208C30.5541 61.6208 31.6173 60.3387 32.9775 59.94C32.5554 61.6521 31.3515 62.4417 31.3515 64.0834C31.3515 65.0606 32.141 65.858 33.126 65.858C34.1111 65.858 34.9007 65.0606 34.9007 64.0834C34.9007 62.4417 33.7046 61.6521 33.2746 59.94C34.6348 60.3387 35.7059 61.6208 37.0036 61.6208C37.9808 61.6208 38.7782 60.8313 38.7782 59.8462C38.7782 58.8612 37.9808 58.0717 37.0036 58.0717C35.6981 58.0717 34.6192 59.3772 33.2355 59.7603C33.2355 59.7524 33.2355 59.7446 33.2355 59.7368C33.3137 58.9707 33.6967 55.8905 35.4713 54.5459C34.8459 54.8273 34.0095 55.0072 33.0948 55.0071C32.1801 55.0071 31.414 54.8508 30.7964 54.585C32.5476 55.9453 32.915 59.0254 32.9932 59.7603C31.6329 59.3694 30.5619 58.0795 29.2642 58.0795C28.287 58.0795 27.4896 58.869 27.4896 59.8541C27.4896 60.8391 28.2791 61.6287 29.2642 61.6287L29.2563 61.6208Z" fill="black"/>
<path d="M47.3078 47.103C46.0101 47.103 44.9469 48.385 43.5788 48.7837C44.001 47.0717 45.2049 46.2821 45.2049 44.6404C45.2049 43.6632 44.4153 42.8658 43.4303 42.8658C42.4453 42.8658 41.6557 43.6632 41.6557 44.6404C41.6557 46.2821 42.8518 47.0717 43.2818 48.7837C41.9215 48.385 40.8505 47.103 39.5528 47.103C38.5756 47.103 37.7782 47.8925 37.7782 48.8775C37.7782 49.8626 38.5678 50.6521 39.5528 50.6521C40.8583 50.6521 41.9372 49.3466 43.3209 48.9635C43.3209 48.9713 43.3209 48.9792 43.3209 48.987C43.2427 49.7531 42.8596 52.8332 41.085 54.1779C41.7104 53.8964 42.5469 53.7166 43.4616 53.7166C44.3763 53.7166 45.1424 53.873 45.76 54.1388C44.0088 52.7785 43.6414 49.6984 43.5711 48.9635C44.9313 49.3544 46.0023 50.6443 47.3 50.6443C48.2772 50.6443 49.0746 49.8547 49.0746 48.8697C49.0746 47.8847 48.285 47.0951 47.3 47.0951L47.3078 47.103Z" fill="black"/>
<path d="M53.1948 64.4335C54.4486 64.4335 55.4851 63.1797 56.8224 62.7952C56.4045 64.4669 55.251 65.2359 55.251 66.824C55.251 67.7769 56.0201 68.5459 56.9729 68.5459C57.9258 68.5459 58.6948 67.7769 58.6948 66.824C58.6948 65.2359 57.5246 64.4669 57.1233 62.7952C58.444 63.1797 59.4805 64.4335 60.751 64.4335C61.7039 64.4335 62.4729 63.6645 62.4729 62.7116C62.4729 61.7587 61.7039 60.9897 60.751 60.9897C59.4805 60.9897 58.4273 62.2602 57.0899 62.628C57.0899 62.628 57.0899 62.6113 57.0899 62.5946C57.1567 61.8423 57.5413 58.8499 59.2632 57.5459C58.6447 57.8301 57.8422 57.9973 56.9562 57.9973C56.0702 57.9973 55.3179 57.8468 54.716 57.5794C56.4212 58.9 56.7723 61.8924 56.8392 62.6113C55.5185 62.2268 54.4821 60.973 53.2115 60.973C52.2587 60.973 51.4896 61.742 51.4896 62.6949C51.4896 63.6478 52.2587 64.4167 53.2115 64.4167L53.1948 64.4335Z" fill="black"/>
<path d="M13.5611 31.6584C12.3073 31.6584 11.2708 32.9122 9.93342 33.2967C10.3514 31.625 11.5049 30.856 11.5049 29.2678C11.5049 28.3149 10.7358 27.5459 9.78292 27.5459C8.83003 27.5459 8.06109 28.3149 8.06109 29.2678C8.06109 30.856 9.23131 31.625 9.63252 33.2967C8.31185 32.9122 7.27541 31.6584 6.00489 31.6584C5.052 31.6584 4.28296 32.4274 4.28296 33.3803C4.28296 34.3332 5.052 35.1022 6.00489 35.1022C7.27541 35.1022 8.3286 33.8317 9.66599 33.4639C9.66599 33.4639 9.66599 33.4806 9.66599 33.4973C9.59912 34.2496 9.21454 37.242 7.49266 38.5459C8.1112 38.2617 8.91364 38.0946 9.79965 38.0946C10.6857 38.0946 11.438 38.245 12.0398 38.5125C10.3347 37.1918 9.98356 34.1994 9.91669 33.4806C11.2374 33.8651 12.2738 35.1189 13.5443 35.1189C14.4972 35.1189 15.2663 34.3499 15.2663 33.397C15.2663 32.4441 14.4972 31.6751 13.5443 31.6751L13.5611 31.6584Z" fill="black"/>
<path d="M13.4896 10.9713C13.4896 11.6949 13.3437 12.3027 13.0517 12.7947C12.7597 13.3157 12.4093 13.7209 11.9422 14.0393C12.4093 14.3577 12.7597 14.7629 13.0517 15.2839C13.3437 15.8049 13.4896 16.4127 13.4896 17.1363V20.7542C13.4896 21.362 13.3728 21.9119 13.1684 22.404C12.9348 22.8671 12.6429 23.2723 12.2925 23.5907C11.913 23.909 11.5042 24.1406 11.0078 24.3143C10.5115 24.4879 10.0152 24.5458 9.48962 24.5458C8.96407 24.5458 8.43847 24.459 7.97131 24.3143C7.47496 24.1695 7.06619 23.909 6.68663 23.5907C6.30707 23.2723 6.01513 22.8671 5.81075 22.404C5.57717 21.9409 5.48962 21.391 5.48962 20.7542V17.1363C5.48962 16.4127 5.63556 15.8049 5.89834 15.2839C6.16111 14.7629 6.54069 14.3577 7.00785 14.0393C6.54069 13.7209 6.16111 13.3157 5.89834 12.7947C5.63556 12.2737 5.48962 11.6659 5.48962 10.9713V8.36636C5.48962 7.7296 5.60637 7.17967 5.81075 6.71657C6.04433 6.22453 6.30707 5.84827 6.68663 5.52989C7.06619 5.21151 7.47496 4.95102 7.97131 4.8063C8.46767 4.66158 8.96407 4.54581 9.48962 4.54581C10.0152 4.54581 10.5407 4.63264 11.0078 4.8063C11.475 4.97996 11.913 5.21151 12.2925 5.52989C12.6721 5.84827 12.964 6.25348 13.1684 6.71657C13.3728 7.17967 13.4896 7.7296 13.4896 8.36636V10.9713ZM11.2415 8.1927C11.2415 7.70066 11.0663 7.32439 10.7451 7.00601C10.4239 6.71657 9.98598 6.57186 9.48962 6.57186C8.99327 6.57186 8.55525 6.71657 8.23408 7.00601C7.91291 7.29544 7.73778 7.70066 7.73778 8.1927V11.4054C7.73778 11.8975 7.91291 12.3027 8.23408 12.5921C8.55525 12.8816 8.99327 13.0552 9.48962 13.0552C9.98598 13.0552 10.4239 12.9105 10.7451 12.5921C11.0663 12.3027 11.2415 11.8975 11.2415 11.4054V8.1927ZM11.2415 16.6153C11.2415 16.1232 11.0663 15.718 10.7451 15.3996C10.4239 15.0813 9.98598 14.9076 9.48962 14.9076C8.99327 14.9076 8.55525 15.0813 8.23408 15.3996C7.91291 15.718 7.73778 16.1232 7.73778 16.6153V20.8989C7.73778 21.391 7.91291 21.7672 8.23408 22.0277C8.55525 22.2882 8.99327 22.4329 9.48962 22.4329C9.98598 22.4329 10.4239 22.2882 10.7451 22.0277C11.0663 21.7672 11.2415 21.362 11.2415 20.8989V16.6153Z" fill="black"/>
<path d="M60.4896 77.9713C60.4896 78.6949 60.3437 79.3027 60.0517 79.7947C59.7597 80.3157 59.4093 80.7209 58.9422 81.0393C59.4093 81.3577 59.7597 81.7629 60.0517 82.2839C60.3437 82.8049 60.4896 83.4127 60.4896 84.1363V87.7542C60.4896 88.362 60.3728 88.9119 60.1684 89.404C59.9348 89.8671 59.6429 90.2723 59.2925 90.5907C58.913 90.909 58.5042 91.1406 58.0078 91.3143C57.5115 91.4879 57.0152 91.5458 56.4896 91.5458C55.9641 91.5458 55.4385 91.459 54.9713 91.3143C54.475 91.1695 54.0662 90.909 53.6866 90.5907C53.3071 90.2723 53.0151 89.8671 52.8108 89.404C52.5772 88.9409 52.4896 88.391 52.4896 87.7542V84.1363C52.4896 83.4127 52.6356 82.8049 52.8983 82.2839C53.1611 81.7629 53.5407 81.3577 54.0078 81.0393C53.5407 80.7209 53.1611 80.3157 52.8983 79.7947C52.6356 79.2737 52.4896 78.6659 52.4896 77.9713V75.3664C52.4896 74.7296 52.6064 74.1797 52.8108 73.7166C53.0443 73.2245 53.3071 72.8483 53.6866 72.5299C54.0662 72.2115 54.475 71.951 54.9713 71.8063C55.4677 71.6616 55.9641 71.5458 56.4896 71.5458C57.0152 71.5458 57.5407 71.6326 58.0078 71.8063C58.475 71.98 58.913 72.2115 59.2925 72.5299C59.6721 72.8483 59.964 73.2535 60.1684 73.7166C60.3728 74.1797 60.4896 74.7296 60.4896 75.3664V77.9713ZM58.2415 75.1927C58.2415 74.7007 58.0663 74.3244 57.7451 74.006C57.4239 73.7166 56.986 73.5719 56.4896 73.5719C55.9933 73.5719 55.5552 73.7166 55.2341 74.006C54.9129 74.2954 54.7378 74.7007 54.7378 75.1927V78.4054C54.7378 78.8975 54.9129 79.3027 55.2341 79.5921C55.5552 79.8816 55.9933 80.0552 56.4896 80.0552C56.986 80.0552 57.4239 79.9105 57.7451 79.5921C58.0663 79.3027 58.2415 78.8975 58.2415 78.4054V75.1927ZM58.2415 83.6153C58.2415 83.1232 58.0663 82.718 57.7451 82.3996C57.4239 82.0813 56.986 81.9076 56.4896 81.9076C55.9933 81.9076 55.5552 82.0813 55.2341 82.3996C54.9129 82.718 54.7378 83.1232 54.7378 83.6153V87.8989C54.7378 88.391 54.9129 88.7672 55.2341 89.0277C55.5552 89.2882 55.9933 89.4329 56.4896 89.4329C56.986 89.4329 57.4239 89.2882 57.7451 89.0277C58.0663 88.7672 58.2415 88.362 58.2415 87.8989V83.6153Z" fill="black"/>
</g>
<defs>
<clipPath id="clip0_3556_1633">
<rect width="65.4895" height="95" fill="white" transform="translate(0.489624 0.545929)"/>
</clipPath>
</defs>
</svg>
