<svg width="66" height="96" viewBox="0 0 66 96" fill="none" xmlns="http://www.w3.org/2000/svg">
<g clip-path="url(#clip0_3556_1419)">
<rect width="65.4895" height="95" transform="translate(0.489563 0.545929)" fill="white"/>
<path d="M4.98944 0.545929L61.4792 0.545929C63.9602 0.545929 65.9791 2.56485 65.9791 5.04582V91.046C65.9791 93.527 63.9602 95.5459 61.4792 95.5459H4.98944C2.50847 95.5459 0.489563 93.527 0.489563 91.046L0.489563 5.04582C0.489563 2.56485 2.50847 0.545929 4.98944 0.545929Z" fill="white"/>
<path d="M53.1947 64.4335C54.4485 64.4335 55.485 63.1797 56.8224 62.7952C56.4044 64.4669 55.2509 65.2359 55.2509 66.824C55.2509 67.7769 56.02 68.5459 56.9729 68.5459C57.9258 68.5459 58.6947 67.7769 58.6947 66.824C58.6947 65.2359 57.5245 64.4669 57.1233 62.7952C58.4439 63.1797 59.4804 64.4335 60.7509 64.4335C61.7038 64.4335 62.4728 63.6645 62.4728 62.7116C62.4728 61.7587 61.7038 60.9897 60.7509 60.9897C59.4804 60.9897 58.4272 62.2602 57.0898 62.628C57.0898 62.628 57.0898 62.6113 57.0898 62.5946C57.1567 61.8423 57.5413 58.8499 59.2631 57.5459C58.6446 57.8301 57.8422 57.9973 56.9561 57.9973C56.0701 57.9973 55.3178 57.8468 54.716 57.5794C56.4211 58.9 56.7722 61.8924 56.8391 62.6113C55.5184 62.2268 54.482 60.973 53.2115 60.973C52.2586 60.973 51.4895 61.742 51.4895 62.6949C51.4895 63.6478 52.2586 64.4167 53.2115 64.4167L53.1947 64.4335Z" fill="black"/>
<path d="M13.561 31.6584C12.3072 31.6584 11.2707 32.9122 9.93336 33.2967C10.3513 31.625 11.5048 30.856 11.5048 29.2678C11.5048 28.3149 10.7357 27.5459 9.78286 27.5459C8.82997 27.5459 8.06103 28.3149 8.06103 29.2678C8.06103 30.856 9.23125 31.625 9.63246 33.2967C8.31179 32.9122 7.27535 31.6584 6.00483 31.6584C5.05194 31.6584 4.2829 32.4274 4.2829 33.3803C4.2829 34.3332 5.05194 35.1022 6.00483 35.1022C7.27535 35.1022 8.32854 33.8317 9.66593 33.4639C9.66593 33.4639 9.66593 33.4806 9.66593 33.4973C9.59906 34.2496 9.21448 37.242 7.49259 38.5459C8.11114 38.2617 8.91358 38.0946 9.79959 38.0946C10.6856 38.0946 11.4379 38.245 12.0398 38.5125C10.3346 37.1918 9.9835 34.1994 9.91663 33.4806C11.2373 33.8651 12.2737 35.1189 13.5443 35.1189C14.4971 35.1189 15.2662 34.3499 15.2662 33.397C15.2662 32.4441 14.4971 31.6751 13.5443 31.6751L13.561 31.6584Z" fill="black"/>
<path d="M12.5411 24.5458L9.28043 15.9037L7.53079 19.3234V24.5458H5.48956V6.54581H7.53079V15.506H7.58382L11.9314 6.54581H13.9726L10.4734 13.6504L14.6088 24.5193H12.5411V24.5458Z" fill="black"/>
<path d="M54.5573 71.5458L57.818 80.1879L59.5676 76.7682L59.5676 71.5458L61.6088 71.5458L61.6088 89.5458L59.5676 89.5458L59.5676 80.5856L59.5146 80.5856L55.167 89.5458L53.1258 89.5458L56.625 82.4412L52.4895 71.5723L54.5573 71.5723L54.5573 71.5458Z" fill="black"/>
<path d="M58.0836 43.118C57.5852 41.3565 57.4134 39.3802 56.3908 37.971C55.3683 36.5618 51.9828 34.2933 50.6079 33.6316C49.2331 32.97 40.7349 31.028 38.1571 32.3685C35.5793 33.709 32.4085 36.3555 29.6932 37.9022C26.9779 39.4575 21.8653 42.4993 19.6741 42.7915C17.4916 43.0836 14.7419 43.814 13.9256 44.2608C13.1179 44.7077 12.018 47.9299 12.018 47.9299H57.9032C57.9032 47.9299 58.5648 44.8795 58.0664 43.118H58.0836Z" fill="#024BD3"/>
<path d="M38.7156 18.3022C34.3161 17.5546 32.0906 17.5804 32.0906 17.5804V17.5031C32.0648 17.546 32.0391 17.5976 32.0219 17.6492C31.7469 18.3881 32.2796 20.0379 32.0219 20.648C31.7641 21.2581 29.5386 23.4836 29.8651 24.0164C30.1916 24.5491 31.2657 24.4976 31.2657 24.4976C31.2657 24.4976 31.893 25.2451 31.7985 25.8982C31.7039 26.5512 32.4515 28.0635 32.2625 28.7166C32.0734 29.3696 34.213 30.8648 35.923 30.8218C37.6243 30.7874 40.5201 26.8176 40.8294 25.1162C41.0528 23.8789 40.0217 20.3129 39.4288 18.4311C39.1968 18.3881 38.9648 18.3452 38.7156 18.3022Z" fill="#F1A882"/>
<path d="M56.9236 36.5446C56.3393 35.608 55.2824 34.1214 54.3887 32.7981C53.4951 31.4749 52.0515 30.8476 51.4242 30.9249C50.797 31.0023 51.1922 29.2837 50.6079 28.4674C50.0236 27.6511 48.1504 27.3761 47.6434 25.8552C47.1365 24.3343 47.0935 22.2119 46.1741 20.7769C46.1741 20.7769 44.7047 19.3161 38.7242 18.3022C38.2258 18.2163 37.7532 18.1389 37.315 18.0788C37.5899 18.3881 37.8563 18.8264 37.8563 19.3849C37.8563 20.6308 36.4557 22.8993 37.8563 24.1796C39.2569 25.4685 41.0958 26.4395 40.3482 27.9261C39.6092 29.404 39.6436 30.4953 39.5663 31.9818C39.4889 33.4684 37.7532 33.1333 39.6866 34.362C41.6199 35.5908 42.4534 34.3191 43.8626 33.4254C45.2633 32.5318 47.2911 33.4254 48.812 34.319C50.333 35.2213 51.5445 34.6284 51.6992 35.6423C51.8539 36.6563 54.7067 36.8883 55.3253 37.2062C55.9526 37.5155 57.5079 37.4812 56.9236 36.5446Z" fill="#45200D"/>
<path d="M52.5671 42.2759C49.3534 41.1932 48.2536 42.9289 45.6757 44.8795C44.0947 46.0739 41.4309 47.2253 39.5835 47.9213H56.5541C56.683 47.0621 56.7604 46.1512 56.7174 45.6443C56.6143 44.553 55.7894 43.3586 52.5757 42.2759H52.5671Z" fill="#4A7FAD"/>
<path d="M39.5835 47.9213H46.3718C46.9561 46.2543 47.6607 44.2007 48.0817 42.9547C47.3599 43.4789 46.6124 44.1663 45.6757 44.8709C44.0947 46.0653 41.4309 47.2167 39.5835 47.9127V47.9213Z" fill="#E13F00"/>
<path d="M56.3909 37.9624C55.3683 36.5532 51.9828 34.2847 50.608 33.6231C49.2331 32.9614 40.7349 31.0195 38.1571 32.3599C35.6051 33.6918 32.4515 36.304 29.7534 37.8593L31.472 39.4575C35.1497 39.9301 36.9885 37.3093 38.5266 36.6993C40.0561 36.0892 41.9035 35.3502 46.1913 36.6993C50.4877 38.0483 54.7153 39.5177 53.4264 45.4381C53.2287 46.3575 52.971 47.1824 52.7046 47.9214H57.9118C57.9118 47.9214 58.5734 44.8709 58.075 43.1094C57.5767 41.3479 57.4048 39.3716 56.3823 37.9624H56.3909Z" fill="#1B337F"/>
<path d="M38.286 23.75C38.286 23.75 37.4181 25.8724 37.0314 26.4223C36.6448 26.9809 35.7082 26.8434 35.1926 26.534C34.677 26.2247 32.6835 25.0045 32.2023 24.8327C31.7211 24.6608 30.8017 24.6952 30.69 25.0647C30.5783 25.4342 30.6213 26.2075 31.0509 26.2677C31.4805 26.3364 32.9069 26.2677 33.4826 26.8004C34.0584 27.3418 34.0154 27.6253 33.5428 28.012C33.0616 28.3987 31.9875 28.4932 30.9392 29.0689C29.8823 29.6446 29.2121 31.5006 28.7137 32.2482C28.2153 32.9958 28.0778 33.3567 26.8061 33.9925C25.5344 34.6284 26.2132 37.0773 25.7578 38.1256C25.3024 39.174 24.6665 40.1277 24.7095 40.9441C24.7524 41.7604 25.2594 42.6712 26.3936 42.1213C27.5279 41.5713 27.8028 40.8066 29.1175 40.8066C30.4322 40.8066 31.4032 40.2137 31.7125 39.9473C32.0219 39.6723 35.0637 40.6261 35.7941 39.088C35.7941 39.088 34.2474 40.0418 33.981 39.088C33.7061 38.1342 34.1615 37.2234 34.4794 36.8195C34.7973 36.4071 36.7049 35.3674 37.5642 34.9549C38.4235 34.5511 40.4084 32.7896 40.8466 31.2429C41.2848 29.6876 41.4223 25.4685 41.4223 25.4685L38.2774 23.7672L38.286 23.75Z" fill="#572B16"/>
<path d="M53.1428 29.1978L52.8077 28.708C52.8077 28.708 52.0258 27.9003 51.5188 27.6597C51.4586 27.6339 51.3641 27.5308 51.1579 27.6081C50.4275 27.9003 50.4017 28.4846 50.4017 28.4846L51.0806 29.1634C51.0806 29.1634 46.6038 31.6553 44.8766 32.7294C43.1495 33.8035 43.2268 34.9463 43.2268 34.9463H42.8487C42.6253 34.9463 42.0582 34.9463 42.2129 35.2814C42.3675 35.6166 41.5684 35.9259 41.5684 35.9259L40.8466 35.4017C40.1248 34.8776 39.1624 36.304 39.1624 36.304C39.1624 36.304 39.7296 36.304 39.7296 36.9055C39.7296 37.507 37.5126 38.5209 35.3387 39.3114C33.1647 40.102 32.7952 42.5767 32.7952 42.5767C30.3721 42.5423 30.0284 44.4928 30.0284 44.4928L31.2485 45.902C32.9241 45.5411 33.6373 43.5133 33.6373 43.5133C33.6373 43.5133 35.2184 43.4016 36.1206 42.6884C37.0229 41.9752 40.2967 38.5896 41.0271 38.4264C41.7575 38.2545 41.8004 39.1997 41.8004 39.1997C43.0378 38.899 42.4792 37.5843 42.4792 37.5843L42.6683 36.7594C44.0947 36.7594 43.7166 35.7111 43.7166 35.7111C43.7166 35.7111 45.6328 35.5564 46.9475 34.2847C48.2621 33.0044 51.6821 30.0742 51.6821 30.0742L52.7991 30.7015C52.7991 30.7015 52.8507 30.7617 53.2459 29.7477C53.3405 29.5157 53.1428 29.215 53.1428 29.215V29.1978Z" fill="#F4AE00"/>
<path d="M28.327 47.7925C28.3528 47.8354 28.3785 47.8784 28.4129 47.9214H35.373C34.9949 46.9676 34.4106 45.567 33.9724 44.8709C33.2764 43.7625 31.7899 42.3962 30.8017 42.0182C29.8221 41.6401 29.1519 41.8893 29.1261 42.2759C29.0917 42.654 28.7738 42.4306 28.2411 42.8173C27.6997 43.1954 27.356 43.1953 27.4505 43.4531C27.5451 43.7109 26.3077 43.6078 26.5913 44.6218C26.5913 44.6218 25.9296 44.8795 26.0843 45.5412C26.239 46.2028 27.7341 46.8387 28.3356 47.7925H28.327Z" fill="#F1A882"/>
<path d="M28.4129 47.9213H35.3731C34.995 46.9676 34.4107 45.5669 33.9724 44.8709C33.8436 44.6733 33.6975 44.4585 33.5256 44.2523C32.5461 45.0858 31.8157 45.7216 30.9048 46.4262C29.9596 47.1566 28.7395 46.8988 28.0864 47.4659C28.1809 47.569 28.2583 47.6722 28.3356 47.7925C28.3614 47.8354 28.3872 47.8784 28.4215 47.9213H28.4129Z" fill="#D78E69"/>
<path d="M20.7654 34.9205C19.8546 33.9839 19.6397 32.4287 19.5968 32.0162C20.5506 32.2654 21.2981 33.0645 22.2004 33.0645C22.8878 33.0645 23.4377 32.5747 23.4377 31.9646C23.4377 31.3546 22.8792 30.8648 22.2004 30.8648C21.2981 30.8648 20.5506 31.6639 19.5968 31.9045C19.8975 30.839 20.731 30.3492 20.731 29.3267C20.731 28.7166 20.1725 28.2268 19.4937 28.2268C18.8148 28.2268 18.2563 28.7166 18.2563 29.3267C18.2563 30.3492 19.0984 30.839 19.3905 31.9045C18.4368 31.6553 17.6892 30.8648 16.7869 30.8648C16.0995 30.8648 15.5496 31.3546 15.5496 31.9646C15.5496 32.5747 16.1081 33.0645 16.7869 33.0645C17.6978 33.0645 18.4539 32.2482 19.4163 32.0162C19.4163 32.0162 19.4163 32.0248 19.4163 32.0334C19.3734 32.4544 19.1499 33.9839 18.2563 34.9119C15.9878 35.4017 14.3036 37.2148 14.3036 39.3802C14.3036 41.9236 16.6237 43.9859 19.4851 43.9859C22.3464 43.9859 24.6665 41.9236 24.6665 39.3802C24.6665 37.2234 22.9995 35.4275 20.7568 34.9205H20.7654Z" fill="url(#paint0_radial_3556_1419)"/>
<path d="M15.4637 43.4789C15.7129 43.8226 16.8901 44.9998 16.8901 44.9998L18.5914 47.9213H24.0478C23.9275 47.3027 23.6611 46.0567 23.5494 45.7903C23.3948 45.438 23.1971 45.249 23.1971 45.249C23.1971 45.249 23.7986 42.2416 23.8588 41.8291C23.9189 41.4167 23.4463 40.6519 23.1971 41.0987C22.9394 41.5455 21.9598 44.0718 21.7707 44.2523C21.5817 44.4327 20.817 43.6679 20.817 43.6679C20.817 43.6679 21.0661 40.059 20.817 39.8356C20.5592 39.6122 19.7085 39.2341 19.5796 41.2276C19.4507 43.2211 19.3304 43.8828 19.4507 44.2523C19.5796 44.6217 19.5968 44.8537 19.3992 44.8022C19.2015 44.7506 17.9899 43.1953 17.9899 43.1953C17.9899 43.1953 18.368 40.7894 18.4368 40.2137C18.4969 39.6465 17.7751 38.3748 17.3885 40.3683C17.0104 42.3618 16.8471 42.8087 16.8471 42.8087L16.3745 42.3361C16.3745 42.3361 16.1511 39.3544 15.9277 38.9162C15.7043 38.4693 14.6903 38.5381 14.9739 40.6863C15.2575 42.843 15.1973 43.1266 15.4465 43.4789H15.4637Z" fill="#F1A882"/>
<path d="M30.733 13.37C30.733 13.37 30.8705 9.24548 35.7855 9.56341C40.7005 9.88134 39.1453 11.7546 40.649 11.9522C42.1441 12.1584 43.4072 9.70089 47.2052 11.4538C50.9946 13.2067 49.6284 16.7469 49.6284 16.7469C49.6284 16.7469 43.7853 19.6169 43.8025 19.4966C43.8197 19.3763 32.357 17.5461 32.2281 17.2625C32.0906 16.9789 30.7416 13.3614 30.7416 13.3614L30.733 13.37Z" fill="#4A7FAD"/>
<path d="M31.9102 18.2936C31.9102 18.2936 31.197 13.5418 29.8737 12.0037C29.8737 12.0037 32.0305 12.5021 32.125 12.9575C32.2195 13.4129 31.7727 14.1004 32.2367 14.6159C32.7007 15.1315 33.8006 14.6761 33.7147 13.9371C33.6287 13.1981 32.8554 12.7599 32.8554 12.7599L33.9037 11.2046L35.4848 12.5537C35.4848 12.5537 34.6685 13.0521 34.8059 13.877C34.952 14.7019 36.6276 15.037 36.7049 13.8941C36.7909 12.7513 35.9144 12.5794 35.9144 12.5794L37.4783 11.2562L38.5953 12.7083C38.5953 12.7083 37.779 13.0864 37.7618 13.7738C37.7447 14.4613 38.3118 14.8737 38.8187 14.9511C39.3257 15.0284 39.6608 14.6331 39.7897 14.0832C39.9186 13.5246 39.2312 12.7599 39.2312 12.7599L41.07 11.6514L41.8949 13.3528C41.8949 13.3528 41.1989 13.6192 41.0786 14.3496C40.9583 15.0799 41.4997 15.3979 41.9293 15.4752C42.359 15.5611 42.9089 15.5525 43.0979 14.7964C43.287 14.0488 42.7972 13.5418 42.7972 13.5418L44.4126 12.9489L45.0742 14.487C45.0742 14.487 44.3181 14.5386 44.1119 15.1315C43.897 15.733 44.1119 16.1454 44.5415 16.4376C44.9711 16.7297 45.5812 16.6094 45.8562 16.0853C46.1312 15.5611 45.7445 14.6503 45.7445 14.6503L47.274 14.3324L47.6091 15.8189C47.6091 15.8189 46.7498 15.8017 46.5608 16.5235C46.3718 17.2453 46.6897 17.4687 47.1279 17.7781C47.5661 18.0874 48.4942 16.3087 48.4942 16.3087L50.7455 16.2228C50.7455 16.2228 47.3771 18.5342 46.1569 21.0691C46.1569 21.0691 42.9948 19.4279 39.1453 18.6459C35.2957 17.864 31.9188 18.2678 31.9188 18.2678L31.9102 18.2936Z" fill="#F4AE00"/>
<path d="M57.0353 27.5909C56.5197 27.0066 55.5058 27.041 54.784 26.5856C55.7292 26.0872 56.5627 26.3106 57.3017 25.6576C57.7399 25.2623 57.7829 24.5921 57.3876 24.1453C56.9923 23.707 56.3221 23.6641 55.8753 24.0593C55.1363 24.721 55.2652 25.5717 54.6637 26.4567C54.2942 25.6834 54.4489 24.6866 53.9247 24.1023C53.5295 23.6641 52.8592 23.6211 52.4124 24.0164C51.9742 24.4116 51.9312 25.0819 52.3265 25.5287C52.8507 26.1216 53.8732 26.0786 54.595 26.5426C54.595 26.5426 54.595 26.5512 54.5864 26.5598C54.2083 26.8348 52.6702 27.9003 51.3469 27.6339C51.725 27.8058 52.1375 28.1065 52.5069 28.519C52.8592 28.9142 53.1084 29.3439 53.2373 29.7219C53.1514 28.3901 54.3887 26.9809 54.6895 26.6543C55.059 27.4277 54.9129 28.4244 55.4285 29.0087C55.8237 29.447 56.494 29.4899 56.9408 29.0947C57.379 28.6994 57.422 28.0292 57.0267 27.5823L57.0353 27.5909Z" fill="#F4AE00"/>
<path d="M8.66686 52.9739C9.16524 54.7354 9.33709 56.7117 10.3596 58.1209C11.3822 59.5301 14.7677 61.7986 16.1425 62.4602C17.5174 63.1219 26.0156 65.0638 28.5934 63.7234C31.1712 62.3829 34.3419 59.7363 37.0572 58.1897C39.7725 56.6344 44.8852 53.5925 47.0763 53.3004C49.2589 53.0082 52.0086 52.2778 52.8249 51.831C53.6326 51.3842 54.7325 48.1619 54.7325 48.1619H8.8473C8.8473 48.1619 8.18566 51.2123 8.68404 52.9739H8.66686Z" fill="#024BD3"/>
<path d="M28.0263 77.781C32.4257 78.5286 34.6512 78.5028 34.6512 78.5028V78.5802C34.677 78.5372 34.7028 78.4857 34.72 78.4341C34.995 77.6951 34.4622 76.0453 34.72 75.4352C34.9778 74.8251 37.2033 72.5996 36.8768 72.0669C36.5502 71.5341 35.4761 71.5857 35.4761 71.5857C35.4761 71.5857 34.8489 70.8381 34.9434 70.1851C35.0379 69.532 34.2904 68.0197 34.4794 67.3667C34.6684 66.7136 32.5288 65.2185 30.8189 65.2614C29.1175 65.2958 26.2218 69.2657 25.9124 70.967C25.689 72.2044 26.7202 75.7704 27.3131 77.6522C27.5451 77.6951 27.7771 77.7381 28.0263 77.781Z" fill="#F1A882"/>
<path d="M9.82686 59.5387C10.4112 60.4753 11.4681 61.9619 12.3617 63.2851C13.2554 64.6084 14.6989 65.2357 15.3262 65.1583C15.9535 65.081 15.5582 66.7996 16.1425 67.6159C16.7268 68.4322 18.6 68.7071 19.107 70.228C19.614 71.749 19.6569 73.8714 20.5764 75.3064C20.5764 75.3064 22.0457 76.7671 28.0263 77.7811C28.5246 77.867 28.9972 77.9443 29.4355 78.0045C29.1605 77.6951 28.8941 77.2569 28.8941 76.6984C28.8941 75.4524 30.2947 73.184 28.8941 71.9036C27.4935 70.6147 25.6547 69.6437 26.4022 68.1572C27.1412 66.6792 27.1068 65.588 27.1842 64.1014C27.2615 62.6149 28.9972 62.95 27.0639 61.7213C25.1305 60.4925 24.297 61.7642 22.8878 62.6579C21.4872 63.5515 19.4593 62.6579 17.9384 61.7642C16.4175 60.862 15.2059 61.4549 15.0512 60.4409C14.8966 59.427 12.0438 59.195 11.4251 58.8771C10.7978 58.5677 9.24256 58.6021 9.82686 59.5387Z" fill="#45200D"/>
<path d="M14.1834 53.816C17.3971 54.8986 18.497 53.1629 21.0748 51.2123C22.6558 50.0179 25.3196 48.8665 27.167 48.1705H10.1964C10.0675 49.0298 9.99015 49.9406 10.0331 50.4476C10.1362 51.5389 10.9611 52.7333 14.1748 53.816H14.1834Z" fill="#4A7FAD"/>
<path d="M27.167 48.1705H20.3787C19.7944 49.8375 19.0898 51.8912 18.6688 53.1371C19.3906 52.613 20.1381 51.9255 21.0747 51.2209C22.6558 50.0266 25.3195 48.8751 27.167 48.1791V48.1705Z" fill="#E13F00"/>
<path d="M10.3596 58.1209C11.3821 59.5301 14.7677 61.7986 16.1425 62.4602C17.5173 63.1219 26.0156 65.0638 28.5934 63.7234C31.1454 62.3915 34.2989 59.7793 36.9971 58.224L35.2785 56.6258C31.6008 56.1532 29.762 58.7739 28.2239 59.384C26.6944 59.9941 24.8469 60.7331 20.5592 59.384C16.2628 58.035 12.0352 56.5656 13.3241 50.6452C13.5217 49.7258 13.7795 48.9009 14.0459 48.1619H8.83869C8.83869 48.1619 8.17706 51.2123 8.67544 52.9739C9.17381 54.7354 9.34566 56.7117 10.3682 58.1209H10.3596Z" fill="#1B337F"/>
<path d="M28.4559 72.3419C28.4559 72.3419 29.3237 70.2195 29.7104 69.6695C30.0971 69.111 31.0337 69.2485 31.5492 69.5578C32.0648 69.8672 34.0583 71.0873 34.5395 71.2592C35.0207 71.431 35.9401 71.3967 36.0518 71.0272C36.1635 70.6663 36.1206 69.8843 35.6909 69.8242C35.2613 69.7555 33.8349 69.8242 33.2592 69.2915C32.6835 68.7501 32.7264 68.4665 33.199 68.0799C33.6802 67.6932 34.7543 67.5987 35.8027 67.023C36.8596 66.4473 37.5298 64.5912 38.0282 63.8437C38.5265 63.0961 38.664 62.7352 39.9358 62.0993C41.2075 61.4635 40.5287 59.0146 40.9841 57.9662C41.4395 56.9179 42.0753 55.9641 42.0324 55.1478C41.9894 54.3315 41.4824 53.4207 40.3482 53.9706C39.214 54.5206 38.939 55.2853 37.6243 55.2853C36.3096 55.2853 35.3386 55.8782 35.0293 56.1446C34.72 56.4196 31.6781 55.4658 30.9478 57.0039C30.9478 57.0039 32.4944 56.0501 32.7608 57.0039C33.0358 57.9577 32.5804 58.8685 32.2624 59.2723C31.9445 59.6848 30.0369 60.7245 29.1777 61.137C28.3184 61.5408 26.3335 63.3023 25.8952 64.849C25.457 66.4043 25.3195 70.6233 25.3195 70.6233L28.4645 72.3247L28.4559 72.3419Z" fill="#572B16"/>
<path d="M13.5991 66.8941L13.9342 67.3839C13.9342 67.3839 14.7161 68.1916 15.2231 68.4322C15.2832 68.4579 15.3777 68.5611 15.584 68.4837C16.3144 68.1916 16.3401 67.6073 16.3401 67.6073L15.6613 66.9284C15.6613 66.9284 20.1381 64.4366 21.8653 63.3625C23.5924 62.2884 23.5151 61.1455 23.5151 61.1455H23.8931C24.1166 61.1455 24.6837 61.1455 24.529 60.8104C24.3743 60.4753 25.1735 60.166 25.1735 60.166L25.8952 60.6901C26.617 61.2143 27.5794 59.7879 27.5794 59.7879C27.5794 59.7879 27.0123 59.7879 27.0123 59.1864C27.0123 58.5849 29.2292 57.571 31.4032 56.7804C33.5771 55.9899 33.9466 53.5152 33.9466 53.5152C36.3698 53.5496 36.7135 51.599 36.7135 51.599L35.4933 50.1898C33.8177 50.5507 33.1045 52.5786 33.1045 52.5786C33.1045 52.5786 31.5235 52.6903 30.6212 53.4035C29.719 54.1167 26.4452 57.5022 25.7148 57.6655C24.9844 57.8373 24.9415 56.8921 24.9415 56.8921C23.7041 57.1929 24.2626 58.5076 24.2626 58.5076L24.0736 59.3325C22.6472 59.3325 23.0253 60.3808 23.0253 60.3808C23.0253 60.3808 21.1091 60.5355 19.7944 61.8072C18.4797 63.0875 15.0598 66.0176 15.0598 66.0176L13.9428 65.3903C13.9428 65.3903 13.8912 65.3302 13.4959 66.3441C13.4014 66.5761 13.5991 66.8769 13.5991 66.8769V66.8941Z" fill="#F4AE00"/>
<path d="M38.4149 48.2994C38.3891 48.2565 38.3633 48.2135 38.3289 48.1705H31.3688C31.7469 49.1243 32.3312 50.5249 32.7694 51.2209C33.4655 52.3294 34.952 53.6957 35.9402 54.0737C36.9197 54.4518 37.59 54.2026 37.6158 53.816C37.6501 53.4379 37.9681 53.6613 38.5008 53.2746C39.0421 52.8965 39.3859 52.8965 39.2913 52.6387C39.1968 52.381 40.4342 52.4841 40.1506 51.4701C40.1506 51.4701 40.8122 51.2123 40.6576 50.5507C40.5029 49.8891 39.0078 49.2532 38.4063 48.2994H38.4149Z" fill="#F1A882"/>
<path d="M38.3375 48.1705H31.3774C31.7555 49.1243 32.3398 50.5249 32.7781 51.2209C32.9069 51.4186 33.053 51.6334 33.2249 51.8396C34.2045 51.0061 34.9348 50.3703 35.8457 49.6657C36.7909 48.9353 38.011 49.1931 38.6641 48.6259C38.5696 48.5228 38.4922 48.4197 38.4149 48.2994C38.3891 48.2565 38.3633 48.2135 38.329 48.1705H38.3375Z" fill="#D78E69"/>
<path d="M45.9851 61.1713C46.8959 62.1079 47.1107 63.6632 47.1537 64.0757C46.1999 63.8265 45.4523 63.0273 44.5501 63.0273C43.8627 63.0273 43.3127 63.5171 43.3127 64.1272C43.3127 64.7373 43.8713 65.2271 44.5501 65.2271C45.4523 65.2271 46.1999 64.428 47.1537 64.1874C46.8529 65.2529 46.0195 65.7426 46.0195 66.7652C46.0195 67.3753 46.578 67.865 47.2568 67.865C47.9356 67.865 48.4942 67.3753 48.4942 66.7652C48.4942 65.7426 47.6521 65.2529 47.3599 64.1874C48.3137 64.4365 49.0613 65.2271 49.9635 65.2271C50.6509 65.2271 51.2009 64.7373 51.2009 64.1272C51.2009 63.5171 50.6423 63.0273 49.9635 63.0273C49.0527 63.0273 48.2965 63.8436 47.3341 64.0757C47.3341 64.0757 47.3341 64.0671 47.3341 64.0585C47.3771 63.6374 47.6005 62.1079 48.4942 61.1799C50.7626 60.6901 52.4468 58.8771 52.4468 56.7117C52.4468 54.1683 50.1268 52.106 47.2654 52.106C44.404 52.106 42.084 54.1683 42.084 56.7117C42.084 58.8685 43.751 60.6644 45.9937 61.1713H45.9851Z" fill="url(#paint1_radial_3556_1419)"/>
<path d="M51.2868 52.613C51.0376 52.2692 49.8604 51.0921 49.8604 51.0921L48.159 48.1705H42.7026C42.8229 48.7892 43.0893 50.0351 43.201 50.3015C43.3557 50.6538 43.5533 50.8429 43.5533 50.8429C43.5533 50.8429 42.9518 53.8503 42.8917 54.2628C42.8315 54.6752 43.3041 55.44 43.5533 54.9932C43.8111 54.5463 44.7907 52.0201 44.9797 51.8396C45.1688 51.6592 45.9335 52.4239 45.9335 52.4239C45.9335 52.4239 45.6843 56.0329 45.9335 56.2563C46.1913 56.4797 47.042 56.8578 47.1709 54.8642C47.2997 52.8707 47.42 52.2091 47.2997 51.8396C47.1709 51.4701 47.1537 51.2381 47.3513 51.2897C47.5489 51.3413 48.7605 52.8965 48.7605 52.8965C48.7605 52.8965 48.3824 55.3025 48.3137 55.8782C48.2535 56.4453 48.9753 57.717 49.362 55.7235C49.7401 53.73 49.9033 53.2832 49.9033 53.2832L50.3759 53.7558C50.3759 53.7558 50.5994 56.7375 50.8228 57.1757C51.0462 57.6225 52.0601 57.5538 51.7766 55.397C51.493 53.2402 51.5531 52.9567 51.304 52.6044L51.2868 52.613Z" fill="#F1A882"/>
<path d="M36.0089 82.7219C36.0089 82.7219 35.8714 86.8464 30.9564 86.5285C26.0413 86.2105 27.5966 84.3373 26.0929 84.1397C24.5892 83.942 23.3346 86.391 19.5366 84.6381C15.7472 82.8852 17.1135 79.3449 17.1135 79.3449C17.1135 79.3449 22.9565 76.475 22.9394 76.5953C22.9222 76.7156 34.3849 78.5458 34.5138 78.8294C34.6512 79.1129 36.0003 82.7305 36.0003 82.7305L36.0089 82.7219Z" fill="#4A7FAD"/>
<path d="M34.8403 77.7982C34.8403 77.7982 35.5535 82.55 36.8767 84.0881C36.8767 84.0881 34.72 83.5897 34.6254 83.1343C34.5309 82.6789 34.9777 81.9915 34.5137 81.4759C34.0497 80.9604 32.9499 81.4158 33.0358 82.1548C33.1217 82.8937 33.8951 83.332 33.8951 83.332L32.8468 84.8872L31.2657 83.5382C31.2657 83.5382 32.082 83.0398 31.9445 82.2149C31.7984 81.39 30.1229 81.0549 30.0455 82.1977C29.9596 83.3406 30.836 83.5124 30.836 83.5124L29.2722 84.8357L28.1551 83.3835C28.1551 83.3835 28.9714 83.0054 28.9886 82.318C29.0058 81.6306 28.4387 81.2181 27.9317 81.1408C27.4247 81.0635 27.0896 81.4588 26.9607 82.0087C26.8318 82.5672 27.5193 83.332 27.5193 83.332L25.6804 84.4404L24.8555 82.739C24.8555 82.739 25.5515 82.4727 25.6718 81.7423C25.7921 81.0119 25.2508 80.694 24.8211 80.6166C24.3915 80.5307 23.8416 80.5479 23.6525 81.2955C23.4635 82.043 23.9533 82.55 23.9533 82.55L22.3378 83.1429L21.6762 81.6048C21.6762 81.6048 22.4324 81.5533 22.6386 80.9604C22.8534 80.3589 22.6386 79.9464 22.209 79.6543C21.7793 79.3621 21.1692 79.4824 20.8943 80.0066C20.6193 80.5307 21.006 81.4416 21.006 81.4416L19.4765 81.7595L19.1414 80.2729C19.1414 80.2729 20.0006 80.2901 20.1897 79.5683C20.3787 78.8465 20.0608 78.6231 19.6225 78.3138C19.1843 78.0045 18.2563 79.7831 18.2563 79.7831L16.005 79.8691C16.005 79.8691 19.3734 77.5577 20.5935 75.0228C20.5935 75.0228 23.7556 76.664 27.6052 77.446C31.4547 78.2279 34.8317 77.824 34.8317 77.824L34.8403 77.7982Z" fill="#F4AE00"/>
<path d="M9.70659 68.5009C10.2222 69.0852 11.2361 69.0509 11.9579 69.5063C11.0127 70.0047 10.1792 69.7813 9.44022 70.4343C9.00199 70.8296 8.95902 71.4998 9.35429 71.9466C9.74955 72.3848 10.4198 72.4278 10.8666 72.0325C11.6056 71.3709 11.4767 70.5202 12.0782 69.6352C12.4477 70.4085 12.293 71.4053 12.8172 71.9896C13.2124 72.4278 13.8827 72.4708 14.3295 72.0755C14.7677 71.6803 14.8107 71.01 14.4154 70.5632C13.8913 69.9703 12.8687 70.0133 12.1469 69.5493C12.1469 69.5493 12.1469 69.5406 12.1555 69.5321C12.5336 69.2571 14.0717 68.1916 15.395 68.458C15.0169 68.2861 14.6044 67.9854 14.235 67.5729C13.8827 67.1776 13.6335 66.748 13.5046 66.3699C13.5905 67.7018 12.3532 69.111 12.0524 69.4375C11.6829 68.6642 11.829 67.6674 11.3134 67.0831C10.9182 66.6449 10.2479 66.6019 9.80111 66.9972C9.36288 67.3925 9.31992 68.0627 9.71518 68.5095L9.70659 68.5009Z" fill="#F4AE00"/>
</g>
<defs>
<radialGradient id="paint0_radial_3556_1419" cx="0" cy="0" r="1" gradientUnits="userSpaceOnUse" gradientTransform="translate(19.4937 36.339) scale(7.26085 6.46217)">
<stop stop-color="#FEF2C6"/>
<stop offset="0.1" stop-color="#FEE795"/>
<stop offset="0.19" stop-color="#FEDD6B"/>
<stop offset="0.29" stop-color="#FDD548"/>
<stop offset="0.39" stop-color="#FDCE2E"/>
<stop offset="0.49" stop-color="#FDCA1B"/>
<stop offset="0.59" stop-color="#FDC70F"/>
<stop offset="0.7" stop-color="#FDC70C"/>
<stop offset="1" stop-color="#FF7539"/>
</radialGradient>
<radialGradient id="paint1_radial_3556_1419" cx="0" cy="0" r="1" gradientUnits="userSpaceOnUse" gradientTransform="translate(47.2568 59.8097) rotate(180) scale(7.26085 6.46216)">
<stop stop-color="#FEF2C6"/>
<stop offset="0.1" stop-color="#FEE795"/>
<stop offset="0.19" stop-color="#FEDD6B"/>
<stop offset="0.29" stop-color="#FDD548"/>
<stop offset="0.39" stop-color="#FDCE2E"/>
<stop offset="0.49" stop-color="#FDCA1B"/>
<stop offset="0.59" stop-color="#FDC70F"/>
<stop offset="0.7" stop-color="#FDC70C"/>
<stop offset="1" stop-color="#FF7539"/>
</radialGradient>
<clipPath id="clip0_3556_1419">
<rect width="65.4895" height="95" fill="white" transform="translate(0.489563 0.545929)"/>
</clipPath>
</defs>
</svg>
