<svg width="66" height="96" viewBox="0 0 66 96" fill="none" xmlns="http://www.w3.org/2000/svg">
<g clip-path="url(#clip0_3556_1921)">
<rect width="65.4895" height="95" transform="translate(0.489624 0.545929)" fill="white"/>
<path d="M4.9895 0.545929L61.4793 0.545929C63.9602 0.545929 65.9792 2.56485 65.9792 5.04582V91.046C65.9792 93.527 63.9602 95.5459 61.4793 95.5459H4.9895C2.50853 95.5459 0.489624 93.527 0.489624 91.046L0.489624 5.04582C0.489624 2.56485 2.50853 0.545929 4.9895 0.545929Z" fill="white"/>
<path d="M28.0115 22.7831C26.7138 22.7831 25.6506 24.0651 24.2903 24.4638C24.7125 22.7518 25.9163 21.9622 25.9163 20.3205C25.9163 19.3433 25.1268 18.5459 24.1418 18.5459C23.1568 18.5459 22.3672 19.3433 22.3672 20.3205C22.3672 21.9622 23.5633 22.7518 23.9932 24.4638C22.633 24.0651 21.562 22.7831 20.2642 22.7831C19.287 22.7831 18.4896 23.5726 18.4896 24.5577C18.4896 25.5427 19.287 26.3322 20.2642 26.3322C21.5698 26.3322 22.6486 25.0267 24.0323 24.6437C24.0323 24.6515 24.0323 24.6593 24.0323 24.6749C23.9541 25.441 23.5711 28.5212 21.7965 29.8658C22.4219 29.5844 23.2584 29.4046 24.173 29.4046C25.0877 29.4046 25.8538 29.5687 26.4714 29.8267C24.7203 28.4664 24.3528 25.3863 24.2747 24.6515C25.6349 25.0423 26.7059 26.3322 28.0037 26.3322C28.9809 26.3322 29.7782 25.5427 29.7782 24.5577C29.7782 23.5726 28.9887 22.7831 28.0037 22.7831H28.0115Z" fill="black"/>
<path d="M47.3078 22.7831C46.0101 22.7831 44.9469 24.0651 43.5788 24.4638C44.001 22.7518 45.2049 21.9622 45.2049 20.3205C45.2049 19.3433 44.4153 18.5459 43.4303 18.5459C42.4453 18.5459 41.6557 19.3433 41.6557 20.3205C41.6557 21.9622 42.8518 22.7518 43.2818 24.4638C41.9215 24.0651 40.8505 22.7831 39.5528 22.7831C38.5756 22.7831 37.7782 23.5726 37.7782 24.5577C37.7782 25.5427 38.5678 26.3322 39.5528 26.3322C40.8583 26.3322 41.9372 25.0267 43.3209 24.6437C43.3209 24.6515 43.3209 24.6593 43.3209 24.6749C43.2427 25.441 42.8596 28.5212 41.085 29.8658C41.7104 29.5844 42.5469 29.4046 43.4616 29.4046C44.3763 29.4046 45.1424 29.5687 45.76 29.8267C44.0088 28.4664 43.6414 25.3863 43.5711 24.6515C44.9313 25.0423 46.0023 26.3322 47.3 26.3322C48.2772 26.3322 49.0746 25.5427 49.0746 24.5577C49.0746 23.5726 48.285 22.7831 47.3 22.7831H47.3078Z" fill="black"/>
<path d="M28.0115 74.2606C26.7138 74.2606 25.6506 72.9785 24.2903 72.5798C24.7125 74.2919 25.9163 75.0815 25.9163 76.7232C25.9163 77.7004 25.1268 78.4978 24.1418 78.4978C23.1568 78.4978 22.3672 77.7004 22.3672 76.7232C22.3672 75.0893 23.5633 74.2919 23.9932 72.5798C22.633 72.9785 21.562 74.2606 20.2642 74.2606C19.287 74.2606 18.4896 73.4711 18.4896 72.486C18.4896 71.501 19.287 70.7115 20.2642 70.7115C21.5698 70.7115 22.6486 72.017 24.0323 72.4001C24.0323 72.3922 24.0323 72.3844 24.0323 72.3688C23.9541 71.6027 23.5711 68.5225 21.7965 67.1779C22.4219 67.4593 23.2584 67.6313 24.173 67.6313C25.0877 67.6313 25.8538 67.475 26.4714 67.2092C24.7203 68.5694 24.3528 71.6496 24.2747 72.3844C25.6349 71.9935 26.7059 70.7036 28.0037 70.7036C28.9809 70.7036 29.7782 71.4932 29.7782 72.4782C29.7782 73.4632 28.9887 74.2528 28.0037 74.2528L28.0115 74.2606Z" fill="black"/>
<path d="M47.3078 74.2606C46.0101 74.2606 44.9469 72.9785 43.5788 72.5798C44.001 74.2919 45.2049 75.0815 45.2049 76.7232C45.2049 77.7004 44.4153 78.4978 43.4303 78.4978C42.4453 78.4978 41.6557 77.7004 41.6557 76.7232C41.6557 75.0893 42.8518 74.2919 43.2818 72.5798C41.9215 72.9785 40.8505 74.2606 39.5528 74.2606C38.5756 74.2606 37.7782 73.4711 37.7782 72.486C37.7782 71.501 38.5678 70.7115 39.5528 70.7115C40.8583 70.7115 41.9372 72.017 43.3209 72.4001C43.3209 72.3922 43.3209 72.3844 43.3209 72.3688C43.2427 71.6027 42.8596 68.5225 41.085 67.1779C41.7104 67.4593 42.5469 67.6313 43.4616 67.6313C44.3763 67.6313 45.1424 67.475 45.76 67.2092C44.0088 68.5694 43.6414 71.6496 43.5711 72.3844C44.9313 71.9935 46.0023 70.7036 47.3 70.7036C48.2772 70.7036 49.0746 71.4932 49.0746 72.4782C49.0746 73.4632 48.285 74.2528 47.3 74.2528L47.3078 74.2606Z" fill="black"/>
<path d="M53.1948 64.4335C54.4486 64.4335 55.4851 63.1797 56.8224 62.7952C56.4045 64.4669 55.251 65.2359 55.251 66.824C55.251 67.7769 56.0201 68.5459 56.9729 68.5459C57.9258 68.5459 58.6948 67.7769 58.6948 66.824C58.6948 65.2359 57.5246 64.4669 57.1233 62.7952C58.444 63.1797 59.4805 64.4335 60.751 64.4335C61.7039 64.4335 62.4729 63.6645 62.4729 62.7116C62.4729 61.7587 61.7039 60.9897 60.751 60.9897C59.4805 60.9897 58.4273 62.2602 57.0899 62.628C57.0899 62.628 57.0899 62.6113 57.0899 62.5946C57.1567 61.8423 57.5413 58.8499 59.2632 57.5459C58.6447 57.8301 57.8422 57.9973 56.9562 57.9973C56.0702 57.9973 55.3179 57.8468 54.716 57.5794C56.4212 58.9 56.7723 61.8924 56.8392 62.6113C55.5185 62.2268 54.4821 60.973 53.2115 60.973C52.2587 60.973 51.4896 61.742 51.4896 62.6949C51.4896 63.6478 52.2587 64.4167 53.2115 64.4167L53.1948 64.4335Z" fill="black"/>
<path d="M13.5611 31.6584C12.3073 31.6584 11.2708 32.9122 9.93342 33.2967C10.3514 31.625 11.5049 30.856 11.5049 29.2678C11.5049 28.3149 10.7358 27.5459 9.78292 27.5459C8.83003 27.5459 8.06109 28.3149 8.06109 29.2678C8.06109 30.856 9.23131 31.625 9.63252 33.2967C8.31185 32.9122 7.27541 31.6584 6.00489 31.6584C5.052 31.6584 4.28296 32.4274 4.28296 33.3803C4.28296 34.3332 5.052 35.1022 6.00489 35.1022C7.27541 35.1022 8.3286 33.8317 9.66599 33.4639C9.66599 33.4639 9.66599 33.4806 9.66599 33.4973C9.59912 34.2496 9.21454 37.242 7.49266 38.5459C8.1112 38.2617 8.91364 38.0946 9.79965 38.0946C10.6857 38.0946 11.438 38.245 12.0398 38.5125C10.3347 37.1918 9.98356 34.1994 9.91669 33.4806C11.2374 33.8651 12.2738 35.1189 13.5443 35.1189C14.4972 35.1189 15.2663 34.3499 15.2663 33.397C15.2663 32.4441 14.4972 31.6751 13.5443 31.6751L13.5611 31.6584Z" fill="black"/>
<path d="M12.6607 21.3897V24.5459H10.3893V21.3897H4.48962V19.3542L8.67841 4.54593H10.9203L6.70201 19.3542H10.3893V13.8085H12.6607V19.3542H14.0766V21.3897H12.6607Z" fill="black"/>
<path d="M53.9056 74.7022L53.9056 71.5459L56.177 71.5459L56.177 74.7022L62.0767 74.7022L62.0767 76.7376L57.8879 91.5459L55.646 91.5459L59.8643 76.7376L56.177 76.7376L56.177 82.2833L53.9056 82.2833L53.9056 76.7376L52.4896 76.7376L52.4896 74.7022L53.9056 74.7022Z" fill="black"/>
</g>
<defs>
<clipPath id="clip0_3556_1921">
<rect width="65.4895" height="95" fill="white" transform="translate(0.489624 0.545929)"/>
</clipPath>
</defs>
</svg>
