<svg width="66" height="96" viewBox="0 0 66 96" fill="none" xmlns="http://www.w3.org/2000/svg">
<g clip-path="url(#clip0_3556_1834)">
<rect width="65.4895" height="95" transform="translate(0.489624 0.545929)" fill="white"/>
<path d="M4.9895 0.545929L61.4793 0.545929C63.9602 0.545929 65.9792 2.56485 65.9792 5.04582V91.046C65.9792 93.527 63.9602 95.5459 61.4793 95.5459H4.9895C2.50853 95.5459 0.489624 93.527 0.489624 91.046L0.489624 5.04582C0.489624 2.56485 2.50853 0.545929 4.9895 0.545929Z" fill="white"/>
<path d="M37.0193 22.7831C35.7215 22.7831 34.6583 24.0651 33.2903 24.4638C33.7124 22.7518 34.9163 21.9622 34.9163 20.3205C34.9163 19.3433 34.1267 18.5459 33.1417 18.5459C32.1567 18.5459 31.3672 19.3433 31.3672 20.3205C31.3672 21.9622 32.5632 22.7518 32.9932 24.4638C31.6329 24.0651 30.562 22.7831 29.2642 22.7831C28.287 22.7831 27.4896 23.5726 27.4896 24.5577C27.4896 25.5427 28.2792 26.3322 29.2642 26.3322C30.5698 26.3322 31.6486 25.0267 33.0323 24.6437C33.0323 24.6515 33.0323 24.6593 33.0323 24.6749C32.9541 25.441 32.571 28.5212 30.7964 29.8658C31.4219 29.5844 32.2584 29.4046 33.173 29.4046C34.0877 29.4046 34.8538 29.5687 35.4714 29.8267C33.7203 28.4664 33.3528 25.3863 33.2825 24.6515C34.6427 25.0423 35.7137 26.3322 37.0114 26.3322C37.9886 26.3322 38.7861 25.5427 38.7861 24.5577C38.7861 23.5726 37.9965 22.7831 37.0114 22.7831H37.0193Z" fill="black"/>
<path d="M37.0193 74.2606C35.7215 74.2606 34.6583 72.9785 33.2903 72.5798C33.7124 74.2919 34.9163 75.0815 34.9163 76.7232C34.9163 77.7004 34.1267 78.4978 33.1417 78.4978C32.1567 78.4978 31.3672 77.7004 31.3672 76.7232C31.3672 75.0893 32.5632 74.2919 32.9932 72.5798C31.6329 72.9785 30.562 74.2606 29.2642 74.2606C28.287 74.2606 27.4896 73.4711 27.4896 72.486C27.4896 71.501 28.2792 70.7115 29.2642 70.7115C30.5698 70.7115 31.6486 72.017 33.0323 72.4001C33.0323 72.3922 33.0323 72.3844 33.0323 72.3688C32.9541 71.6027 32.571 68.5225 30.7964 67.1779C31.4219 67.4593 32.2584 67.6313 33.173 67.6313C34.0877 67.6313 34.8538 67.475 35.4714 67.2092C33.7203 68.5694 33.3528 71.6496 33.2825 72.3844C34.6427 71.9935 35.7137 70.7036 37.0114 70.7036C37.9886 70.7036 38.7861 71.4932 38.7861 72.4782C38.7861 73.4632 37.9965 74.2528 37.0114 74.2528L37.0193 74.2606Z" fill="black"/>
<path d="M37.0193 47.103C35.7215 47.103 34.6583 48.385 33.2903 48.7837C33.7124 47.0717 34.9163 46.2821 34.9163 44.6404C34.9163 43.6632 34.1267 42.8658 33.1417 42.8658C32.1567 42.8658 31.3672 43.6632 31.3672 44.6404C31.3672 46.2821 32.5632 47.0717 32.9932 48.7837C31.6329 48.385 30.562 47.103 29.2642 47.103C28.287 47.103 27.4896 47.8925 27.4896 48.8775C27.4896 49.8626 28.2792 50.6521 29.2642 50.6521C30.5698 50.6521 31.6486 49.3466 33.0323 48.9635C33.0323 48.9713 33.0323 48.9792 33.0323 48.987C32.9541 49.7531 32.571 52.8332 30.7964 54.1779C31.4219 53.8964 32.2584 53.7166 33.173 53.7166C34.0877 53.7166 34.8538 53.873 35.4714 54.1388C33.7203 52.7785 33.3528 49.6984 33.2825 48.9635C34.6427 49.3544 35.7137 50.6443 37.0114 50.6443C37.9886 50.6443 38.7861 49.8547 38.7861 48.8697C38.7861 47.8847 37.9965 47.0951 37.0114 47.0951L37.0193 47.103Z" fill="black"/>
<path d="M53.1948 64.4335C54.4486 64.4335 55.4851 63.1797 56.8224 62.7952C56.4045 64.4669 55.251 65.2359 55.251 66.824C55.251 67.7769 56.0201 68.5459 56.9729 68.5459C57.9258 68.5459 58.6948 67.7769 58.6948 66.824C58.6948 65.2359 57.5246 64.4669 57.1233 62.7952C58.444 63.1797 59.4805 64.4335 60.751 64.4335C61.7039 64.4335 62.4729 63.6645 62.4729 62.7116C62.4729 61.7587 61.7039 60.9897 60.751 60.9897C59.4805 60.9897 58.4273 62.2602 57.0899 62.628C57.0899 62.628 57.0899 62.6113 57.0899 62.5946C57.1567 61.8423 57.5413 58.8499 59.2632 57.5459C58.6447 57.8301 57.8422 57.9973 56.9562 57.9973C56.0702 57.9973 55.3179 57.8468 54.716 57.5794C56.4212 58.9 56.7723 61.8924 56.8392 62.6113C55.5185 62.2268 54.4821 60.973 53.2115 60.973C52.2587 60.973 51.4896 61.742 51.4896 62.6949C51.4896 63.6478 52.2587 64.4167 53.2115 64.4167L53.1948 64.4335Z" fill="black"/>
<path d="M13.5611 31.6584C12.3073 31.6584 11.2708 32.9122 9.93342 33.2967C10.3514 31.625 11.5049 30.856 11.5049 29.2678C11.5049 28.3149 10.7358 27.5459 9.78292 27.5459C8.83003 27.5459 8.06109 28.3149 8.06109 29.2678C8.06109 30.856 9.23131 31.625 9.63252 33.2967C8.31185 32.9122 7.27541 31.6584 6.00489 31.6584C5.052 31.6584 4.28296 32.4274 4.28296 33.3803C4.28296 34.3332 5.052 35.1022 6.00489 35.1022C7.27541 35.1022 8.3286 33.8317 9.66599 33.4639C9.66599 33.4639 9.66599 33.4806 9.66599 33.4973C9.59912 34.2496 9.21454 37.242 7.49266 38.5459C8.1112 38.2617 8.91364 38.0946 9.79965 38.0946C10.6857 38.0946 11.438 38.245 12.0398 38.5125C10.3347 37.1918 9.98356 34.1994 9.91669 33.4806C11.2374 33.8651 12.2738 35.1189 13.5443 35.1189C14.4972 35.1189 15.2663 34.3499 15.2663 33.397C15.2663 32.4441 14.4972 31.6751 13.5443 31.6751L13.5611 31.6584Z" fill="black"/>
<path d="M13.8651 20.3263C13.8651 21.0777 13.7495 21.7136 13.5183 22.2627C13.2871 22.8118 12.9981 23.2454 12.6223 23.5633C12.2466 23.9101 11.842 24.1413 11.3507 24.3147C10.8593 24.4881 10.368 24.5459 9.81887 24.5459C9.03852 24.5459 8.40269 24.4303 7.88246 24.1991C7.36222 23.9679 6.95758 23.65 6.63966 23.2743C6.32174 22.8696 6.11947 22.4072 6.00386 21.8581C5.88825 21.3089 5.85933 20.702 5.88823 20.0084L8.11367 19.6904C8.02697 20.5286 8.11366 21.2222 8.37378 21.7136C8.63389 22.2338 9.12521 22.465 9.84775 22.465C10.3391 22.465 10.7437 22.3205 11.0905 22.0026C11.4374 21.6847 11.6108 21.1644 11.6108 20.3841V17.4361C11.6108 16.6558 11.4663 16.0777 11.1484 15.7309C10.8304 15.3841 10.3102 15.2107 9.61658 15.2107H8.74952V13.2743H9.67435C10.368 13.2743 10.8593 13.1008 11.1773 12.7829C11.4663 12.465 11.6397 11.9159 11.6397 11.1644V8.64998C11.6397 8.41876 11.6397 8.15865 11.553 7.92743C11.4952 7.69622 11.4374 7.465 11.3218 7.29159C11.2062 7.11818 11.0617 6.94477 10.8304 6.82917C10.6281 6.71356 10.3391 6.65576 10.0212 6.65576C9.35646 6.65576 8.86513 6.91587 8.57611 7.4072C8.25819 7.89853 8.11367 8.56327 8.11367 9.40142L5.88823 9.0835C5.88823 8.44766 6.00384 7.84073 6.20615 7.29159C6.40846 6.74246 6.66857 6.25113 7.01539 5.84651C7.36222 5.44188 7.79573 5.12396 8.31596 4.89275C8.83619 4.66154 9.47203 4.54593 10.1657 4.54593C10.8593 4.54593 11.4374 4.66154 11.8998 4.86385C12.3622 5.06616 12.7379 5.38408 13.027 5.7309C13.316 6.10662 13.5183 6.51125 13.6339 7.00258C13.7495 7.49391 13.8073 7.98524 13.8073 8.53437V10.5286C13.8073 10.9043 13.8073 11.2511 13.7784 11.6269C13.7495 11.9737 13.6917 12.2916 13.5761 12.6095C13.4605 12.8985 13.316 13.1875 13.0848 13.4477C12.8536 13.7078 12.5645 13.939 12.1599 14.1413V14.228C12.5356 14.4014 12.8246 14.6037 13.0558 14.806C13.2582 15.0373 13.4316 15.2685 13.5472 15.5575C13.6628 15.8465 13.7206 16.1644 13.7495 16.5402C13.7495 16.9159 13.7784 17.3205 13.7784 17.754V20.2974L13.8651 20.3263Z" fill="black"/>
<path d="M52.4896 75.7656C52.4896 75.0141 52.6052 74.3783 52.8365 73.8292C53.0677 73.28 53.3567 72.8465 53.7324 72.5286C54.1081 72.1818 54.5128 71.9506 55.0041 71.7771C55.4954 71.6037 55.9867 71.5459 56.5359 71.5459C57.3162 71.5459 57.9521 71.6615 58.4723 71.8927C58.9925 72.124 59.3972 72.4419 59.7151 72.8176C60.033 73.2222 60.2353 73.6847 60.3509 74.2338C60.4665 74.7829 60.4954 75.3899 60.4665 76.0835L58.2411 76.4014C58.3278 75.5633 58.2411 74.8696 57.981 74.3783C57.7208 73.8581 57.2295 73.6269 56.507 73.6269C56.0157 73.6269 55.611 73.7714 55.2642 74.0893C54.9174 74.4072 54.744 74.9274 54.744 75.7078L54.744 78.6558C54.744 79.4361 54.8885 80.0141 55.2064 80.361C55.5243 80.7078 56.0445 80.8812 56.7382 80.8812L57.6052 80.8812L57.6052 82.8176L56.6804 82.8176C55.9867 82.8176 55.4954 82.991 55.1775 83.3089C54.8885 83.6269 54.715 84.176 54.715 84.9274L54.715 87.4419C54.715 87.6731 54.715 87.9332 54.8017 88.1644C54.8596 88.3956 54.9174 88.6269 55.033 88.8003C55.1486 88.9737 55.2931 89.1471 55.5243 89.2627C55.7266 89.3783 56.0156 89.4361 56.3335 89.4361C56.9983 89.4361 57.4896 89.176 57.7786 88.6847C58.0965 88.1933 58.2411 87.5286 58.2411 86.6904L60.4665 87.0084C60.4665 87.6442 60.3509 88.2511 60.1486 88.8003C59.9463 89.3494 59.6862 89.8407 59.3393 90.2453C58.9925 90.65 58.559 90.9679 58.0388 91.1991C57.5185 91.4303 56.8827 91.5459 56.1891 91.5459C55.4954 91.5459 54.9174 91.4303 54.4549 91.228C53.9925 91.0257 53.6168 90.7078 53.3278 90.361C53.0388 89.9852 52.8364 89.5806 52.7208 89.0893C52.6052 88.598 52.5474 88.1066 52.5474 87.5575L52.5474 85.5633C52.5474 85.1875 52.5474 84.8407 52.5763 84.465C52.6052 84.1182 52.663 83.8003 52.7786 83.4823C52.8942 83.1933 53.0387 82.9043 53.27 82.6442C53.5012 82.3841 53.7902 82.1529 54.1948 81.9506L54.1948 81.8638C53.8191 81.6904 53.5301 81.4881 53.2989 81.2858C53.0966 81.0546 52.9232 80.8234 52.8076 80.5344C52.692 80.2453 52.6341 79.9274 52.6052 79.5517C52.6052 79.176 52.5763 78.7714 52.5763 78.3378L52.5763 75.7945L52.4896 75.7656Z" fill="black"/>
</g>
<defs>
<clipPath id="clip0_3556_1834">
<rect width="65.4895" height="95" fill="white" transform="translate(0.489624 0.545929)"/>
</clipPath>
</defs>
</svg>
