<svg width="66" height="96" viewBox="0 0 66 96" fill="none" xmlns="http://www.w3.org/2000/svg">
<g clip-path="url(#clip0_3556_1462)">
<rect width="65.4895" height="95" transform="translate(0.489563 0.545929)" fill="white"/>
<path d="M4.98944 0.545929L61.4792 0.545929C63.9602 0.545929 65.9791 2.56485 65.9791 5.04582V91.046C65.9791 93.527 63.9602 95.5459 61.4792 95.5459H4.98944C2.50847 95.5459 0.489563 93.527 0.489563 91.046L0.489563 5.04582C0.489563 2.56485 2.50847 0.545929 4.98944 0.545929Z" fill="white"/>
<path d="M53.1947 64.4335C54.4485 64.4335 55.485 63.1797 56.8224 62.7952C56.4044 64.4669 55.2509 65.2359 55.2509 66.824C55.2509 67.7769 56.02 68.5459 56.9729 68.5459C57.9258 68.5459 58.6947 67.7769 58.6947 66.824C58.6947 65.2359 57.5245 64.4669 57.1233 62.7952C58.4439 63.1797 59.4804 64.4335 60.7509 64.4335C61.7038 64.4335 62.4728 63.6645 62.4728 62.7116C62.4728 61.7587 61.7038 60.9897 60.7509 60.9897C59.4804 60.9897 58.4272 62.2602 57.0898 62.628C57.0898 62.628 57.0898 62.6113 57.0898 62.5946C57.1567 61.8423 57.5413 58.8499 59.2631 57.5459C58.6446 57.8301 57.8422 57.9973 56.9561 57.9973C56.0701 57.9973 55.3178 57.8468 54.716 57.5794C56.4211 58.9 56.7722 61.8924 56.8391 62.6113C55.5184 62.2268 54.482 60.973 53.2115 60.973C52.2586 60.973 51.4895 61.742 51.4895 62.6949C51.4895 63.6478 52.2586 64.4167 53.2115 64.4167L53.1947 64.4335Z" fill="black"/>
<path d="M13.561 31.6584C12.3072 31.6584 11.2707 32.9122 9.93336 33.2967C10.3513 31.625 11.5048 30.856 11.5048 29.2678C11.5048 28.3149 10.7357 27.5459 9.78286 27.5459C8.82997 27.5459 8.06103 28.3149 8.06103 29.2678C8.06103 30.856 9.23125 31.625 9.63246 33.2967C8.31179 32.9122 7.27535 31.6584 6.00483 31.6584C5.05194 31.6584 4.2829 32.4274 4.2829 33.3803C4.2829 34.3332 5.05194 35.1022 6.00483 35.1022C7.27535 35.1022 8.32854 33.8317 9.66593 33.4639C9.66593 33.4639 9.66593 33.4806 9.66593 33.4973C9.59906 34.2496 9.21448 37.242 7.49259 38.5459C8.11114 38.2617 8.91358 38.0946 9.79959 38.0946C10.6856 38.0946 11.4379 38.245 12.0398 38.5125C10.3346 37.1918 9.9835 34.1994 9.91663 33.4806C11.2373 33.8651 12.2737 35.1189 13.5443 35.1189C14.4971 35.1189 15.2662 34.3499 15.2662 33.397C15.2662 32.4441 14.4971 31.6751 13.5443 31.6751L13.561 31.6584Z" fill="black"/>
<path d="M12.0825 24.5458L11.2595 20.537H7.25062L6.45416 24.5458H4.48956L8.31257 6.54581H10.2241L14.1002 24.5458H12.0825ZM9.18868 10.2361L8.44531 14.4308L7.59576 18.652H10.9143L10.0382 14.3777L9.32142 10.2361H9.21523H9.18868Z" fill="black"/>
<path d="M54.5072 71.5458L55.3302 75.5547L59.3391 75.5547L60.1356 71.5458L62.1002 71.5458L58.2771 89.5458L56.3656 89.5458L52.4895 71.5458L54.5072 71.5458ZM57.401 85.8555L58.1444 81.6608L58.994 77.4396L55.6754 77.4396L56.5515 81.7139L57.2683 85.8555L57.3745 85.8555L57.401 85.8555Z" fill="black"/>
<path d="M39.5296 45.9559C37.3796 45.9559 35.5996 48.0859 33.3396 48.7459C34.0496 45.8959 36.0396 44.5759 36.0396 41.8559C36.0396 40.2259 34.7196 38.9059 33.0896 38.9059C31.4596 38.9059 30.1396 40.2259 30.1396 41.8559C30.1396 44.5759 32.1296 45.8959 32.8396 48.7459C30.5796 48.0859 28.7996 45.9559 26.6496 45.9559C25.0196 45.9559 23.6996 47.2759 23.6996 48.8959C23.6996 50.5159 25.0196 51.8459 26.6496 51.8459C28.8196 51.8459 30.6196 49.6659 32.9096 49.0359C32.9096 49.0559 32.9096 49.0659 32.9096 49.0859C32.7796 50.3659 32.1396 55.4859 29.1896 57.7159C30.2296 57.2459 31.6196 56.9559 33.1396 56.9559C34.6596 56.9559 35.9296 57.2259 36.9596 57.6659C34.0496 55.3959 33.4296 50.2859 33.3096 49.0559C35.5796 49.7159 37.3496 51.8459 39.5096 51.8459C41.1396 51.8459 42.4596 50.5259 42.4596 48.8959C42.4596 47.2659 41.1396 45.9559 39.5096 45.9559H39.5296Z" fill="black"/>
</g>
<defs>
<clipPath id="clip0_3556_1462">
<rect width="65.4895" height="95" fill="white" transform="translate(0.489563 0.545929)"/>
</clipPath>
</defs>
</svg>
