<svg width="66" height="96" viewBox="0 0 66 96" fill="none" xmlns="http://www.w3.org/2000/svg">
<g clip-path="url(#clip0_3556_1591)">
<rect width="65.4895" height="95" transform="translate(0.489563 0.545929)" fill="white"/>
<path d="M4.98944 0.545929L61.4792 0.545929C63.9602 0.545929 65.9791 2.56485 65.9791 5.04582V91.046C65.9791 93.527 63.9602 95.5459 61.4792 95.5459H4.98944C2.50847 95.5459 0.489563 93.527 0.489563 91.046L0.489563 5.04582C0.489563 2.56485 2.50847 0.545929 4.98944 0.545929Z" fill="white"/>
<path d="M28.0114 22.7831C26.7137 22.7831 25.6505 24.0651 24.2903 24.4638C24.7124 22.7518 25.9163 21.9622 25.9163 20.3205C25.9163 19.3433 25.1267 18.5459 24.1417 18.5459C23.1567 18.5459 22.3671 19.3433 22.3671 20.3205C22.3671 21.9622 23.5632 22.7518 23.9932 24.4638C22.6329 24.0651 21.5619 22.7831 20.2642 22.7831C19.287 22.7831 18.4896 23.5726 18.4896 24.5577C18.4896 25.5427 19.287 26.3322 20.2642 26.3322C21.5697 26.3322 22.6485 25.0267 24.0323 24.6437C24.0323 24.6515 24.0323 24.6593 24.0323 24.6749C23.9541 25.441 23.571 28.5212 21.7964 29.8658C22.4218 29.5844 23.2583 29.4046 24.173 29.4046C25.0876 29.4046 25.8538 29.5687 26.4713 29.8267C24.7202 28.4664 24.3528 25.3863 24.2746 24.6515C25.6349 25.0423 26.7059 26.3322 28.0036 26.3322C28.9808 26.3322 29.7782 25.5427 29.7782 24.5577C29.7782 23.5726 28.9886 22.7831 28.0036 22.7831H28.0114Z" fill="black"/>
<path d="M28.0114 39.1029C26.7137 39.1029 25.6505 40.385 24.2903 40.7837C24.7124 39.0717 25.9163 38.2821 25.9163 36.6404C25.9163 35.6632 25.1267 34.8658 24.1417 34.8658C23.1567 34.8658 22.3671 35.6632 22.3671 36.6404C22.3671 38.2821 23.5632 39.0717 23.9932 40.7837C22.6329 40.385 21.5619 39.1029 20.2642 39.1029C19.287 39.1029 18.4896 39.8925 18.4896 40.8775C18.4896 41.8625 19.287 42.6521 20.2642 42.6521C21.5697 42.6521 22.6485 41.3466 24.0323 40.9635C24.0323 40.9713 24.0323 40.9791 24.0323 40.9869C23.9541 41.7531 23.571 44.8332 21.7964 46.1778C22.4218 45.8964 23.2583 45.7166 24.173 45.7166C25.0876 45.7166 25.8538 45.873 26.4713 46.1388C24.7202 44.7785 24.3528 41.6983 24.2746 40.9635C25.6349 41.3544 26.7059 42.6443 28.0036 42.6443C28.9808 42.6443 29.7782 41.8547 29.7782 40.8697C29.7782 39.8847 28.9886 39.0951 28.0036 39.0951L28.0114 39.1029Z" fill="black"/>
<path d="M20.2563 58.2528C21.554 58.2528 22.6172 56.9707 23.9775 56.572C23.5554 58.2841 22.3515 59.0737 22.3515 60.7153C22.3515 61.6925 23.141 62.4899 24.126 62.4899C25.1111 62.4899 25.9007 61.6925 25.9007 60.7153C25.9007 59.0737 24.7046 58.2841 24.2746 56.572C25.6348 56.9707 26.7059 58.2528 28.0036 58.2528C28.9808 58.2528 29.7782 57.4632 29.7782 56.4782C29.7782 55.4932 28.9808 54.7036 28.0036 54.7036C26.6981 54.7036 25.6192 56.0092 24.2355 56.3922C24.2355 56.3844 24.2355 56.3766 24.2355 56.3688C24.3137 55.6026 24.6967 52.5225 26.4713 51.1779C25.8459 51.4593 25.0095 51.6391 24.0948 51.6391C23.1801 51.6391 22.414 51.4828 21.7964 51.217C23.5476 52.5772 23.915 55.6574 23.9932 56.3922C22.6329 56.0013 21.5619 54.7114 20.2642 54.7114C19.287 54.7114 18.4896 55.501 18.4896 56.486C18.4896 57.471 19.2791 58.2606 20.2642 58.2606L20.2563 58.2528Z" fill="black"/>
<path d="M28.0114 74.5727C26.7137 74.5727 25.6505 73.2906 24.2903 72.8919C24.7124 74.6039 25.9163 75.3935 25.9163 77.0352C25.9163 78.0124 25.1267 78.8098 24.1417 78.8098C23.1567 78.8098 22.3671 78.0124 22.3671 77.0352C22.3671 75.4013 23.5632 74.6039 23.9932 72.8919C22.6329 73.2906 21.5619 74.5727 20.2642 74.5727C19.287 74.5727 18.4896 73.7831 18.4896 72.7981C18.4896 71.8131 19.287 71.0235 20.2642 71.0235C21.5697 71.0235 22.6485 72.329 24.0323 72.7121C24.0323 72.7043 24.0323 72.6965 24.0323 72.6808C23.9541 71.9147 23.571 68.8346 21.7964 67.4899C22.4218 67.7714 23.2583 67.9434 24.173 67.9434C25.0876 67.9434 25.8538 67.787 26.4713 67.5212C24.7202 68.8815 24.3528 71.9616 24.2746 72.6964C25.6349 72.3056 26.7059 71.0157 28.0036 71.0157C28.9808 71.0157 29.7782 71.8052 29.7782 72.7903C29.7782 73.7753 28.9886 74.5649 28.0036 74.5649L28.0114 74.5727Z" fill="black"/>
<path d="M38.0114 31.7831C36.7137 31.7831 35.6505 33.0652 34.2903 33.4639C34.7124 31.7518 35.9163 30.9622 35.9163 29.3205C35.9163 28.3433 35.1267 27.5459 34.1417 27.5459C33.1567 27.5459 32.3671 28.3433 32.3671 29.3205C32.3671 30.9622 33.5632 31.7518 33.9932 33.4639C32.6329 33.0652 31.5619 31.7831 30.2642 31.7831C29.287 31.7831 28.4896 32.5726 28.4896 33.5577C28.4896 34.5427 29.287 35.3322 30.2642 35.3322C31.5697 35.3322 32.6485 34.0267 34.0323 33.6436C34.0323 33.6515 34.0323 33.6593 34.0323 33.6671C33.9541 34.4332 33.571 37.5134 31.7964 38.858C32.4218 38.5766 33.2583 38.3967 34.173 38.3967C35.0876 38.3967 35.8538 38.5531 36.4713 38.8189C34.7202 37.4586 34.3528 34.3785 34.2746 33.6436C35.6349 34.0345 36.7059 35.3244 38.0036 35.3244C38.9808 35.3244 39.7782 34.5348 39.7782 33.5498C39.7782 32.5648 38.9886 31.7752 38.0036 31.7752L38.0114 31.7831Z" fill="black"/>
<path d="M30.2563 66.6208C31.554 66.6208 32.6172 65.3388 33.9775 64.9401C33.5553 66.6521 32.3514 67.4417 32.3514 69.0834C32.3514 70.0606 33.141 70.858 34.126 70.858C35.111 70.858 35.9006 70.0606 35.9006 69.0834C35.9006 67.4417 34.7045 66.6521 34.2745 64.9401C35.6348 65.3388 36.7058 66.6208 38.0035 66.6208C38.9807 66.6208 39.7781 65.8313 39.7781 64.8463C39.7781 63.8612 38.9807 63.0717 38.0035 63.0717C36.698 63.0717 35.6192 64.3772 34.2354 64.7603C34.2354 64.7525 34.2354 64.7446 34.2354 64.7368C34.3136 63.9707 34.6967 60.8906 36.4713 59.5459C35.8459 59.8274 35.0094 60.0072 34.0947 60.0072C33.1801 60.0072 32.4139 59.8508 31.7964 59.585C33.5475 60.9453 33.9149 64.0254 33.9931 64.7603C32.6328 64.3694 31.5618 63.0795 30.2641 63.0795C29.2869 63.0795 28.4895 63.8691 28.4895 64.8541C28.4895 65.8391 29.2791 66.6287 30.2641 66.6287L30.2563 66.6208Z" fill="black"/>
<path d="M53.1947 64.4335C54.4485 64.4335 55.485 63.1797 56.8224 62.7952C56.4044 64.4669 55.2509 65.2359 55.2509 66.824C55.2509 67.7769 56.02 68.5459 56.9729 68.5459C57.9258 68.5459 58.6947 67.7769 58.6947 66.824C58.6947 65.2359 57.5245 64.4669 57.1233 62.7952C58.4439 63.1797 59.4804 64.4335 60.7509 64.4335C61.7038 64.4335 62.4728 63.6645 62.4728 62.7116C62.4728 61.7587 61.7038 60.9897 60.7509 60.9897C59.4804 60.9897 58.4272 62.2602 57.0898 62.628C57.0898 62.628 57.0898 62.6113 57.0898 62.5946C57.1567 61.8423 57.5413 58.8499 59.2631 57.5459C58.6446 57.8301 57.8422 57.9973 56.9561 57.9973C56.0701 57.9973 55.3178 57.8468 54.716 57.5794C56.4211 58.9 56.7722 61.8924 56.8391 62.6113C55.5184 62.2268 54.482 60.973 53.2115 60.973C52.2586 60.973 51.4895 61.742 51.4895 62.6949C51.4895 63.6478 52.2586 64.4167 53.2115 64.4167L53.1947 64.4335Z" fill="black"/>
<path d="M13.561 31.6584C12.3072 31.6584 11.2707 32.9122 9.93336 33.2967C10.3513 31.625 11.5048 30.856 11.5048 29.2678C11.5048 28.3149 10.7357 27.5459 9.78286 27.5459C8.82997 27.5459 8.06103 28.3149 8.06103 29.2678C8.06103 30.856 9.23125 31.625 9.63246 33.2967C8.31179 32.9122 7.27535 31.6584 6.00483 31.6584C5.05194 31.6584 4.2829 32.4274 4.2829 33.3803C4.2829 34.3332 5.05194 35.1022 6.00483 35.1022C7.27535 35.1022 8.32854 33.8317 9.66593 33.4639C9.66593 33.4639 9.66593 33.4806 9.66593 33.4973C9.59906 34.2496 9.21448 37.242 7.49259 38.5459C8.11114 38.2617 8.91358 38.0946 9.79959 38.0946C10.6856 38.0946 11.4379 38.245 12.0398 38.5125C10.3346 37.1918 9.9835 34.1994 9.91663 33.4806C11.2373 33.8651 12.2737 35.1189 13.5443 35.1189C14.4971 35.1189 15.2662 34.3499 15.2662 33.397C15.2662 32.4441 14.4971 31.6751 13.5443 31.6751L13.561 31.6584Z" fill="black"/>
<path d="M48.0192 74.2606C46.7215 74.2606 45.6583 72.9785 44.2902 72.5798C44.7124 74.2919 45.9163 75.0815 45.9163 76.7232C45.9163 77.7004 45.1267 78.4978 44.1417 78.4978C43.1566 78.4978 42.3671 77.7004 42.3671 76.7232C42.3671 75.0893 43.5632 74.2919 43.9931 72.5798C42.6329 72.9785 41.5619 74.2606 40.2642 74.2606C39.287 74.2606 38.4896 73.4711 38.4896 72.486C38.4896 71.501 39.2792 70.7115 40.2642 70.7115C41.5697 70.7115 42.6485 72.017 44.0323 72.4001C44.0323 72.3922 44.0323 72.3844 44.0323 72.3688C43.9541 71.6027 43.571 68.5225 41.7964 67.1779C42.4218 67.4593 43.2583 67.6313 44.173 67.6313C45.0876 67.6313 45.8538 67.475 46.4713 67.2092C44.7202 68.5694 44.3528 71.6496 44.2824 72.3844C45.6427 71.9935 46.7137 70.7036 48.0114 70.7036C48.9886 70.7036 49.786 71.4932 49.786 72.4782C49.786 73.4632 48.9964 74.2528 48.0114 74.2528L48.0192 74.2606Z" fill="black"/>
<path d="M48.0114 22.7831C46.7137 22.7831 45.6505 24.0651 44.2903 24.4638C44.7124 22.7518 45.9163 21.9622 45.9163 20.3205C45.9163 19.3433 45.1267 18.5459 44.1417 18.5459C43.1567 18.5459 42.3671 19.3433 42.3671 20.3205C42.3671 21.9622 43.5632 22.7518 43.9932 24.4638C42.6329 24.0651 41.5619 22.7831 40.2642 22.7831C39.287 22.7831 38.4896 23.5726 38.4896 24.5577C38.4896 25.5427 39.287 26.3322 40.2642 26.3322C41.5697 26.3322 42.6485 25.0267 44.0323 24.6437C44.0323 24.6515 44.0323 24.6593 44.0323 24.6749C43.9541 25.441 43.571 28.5212 41.7964 29.8658C42.4218 29.5844 43.2583 29.4046 44.173 29.4046C45.0876 29.4046 45.8538 29.5687 46.4713 29.8267C44.7202 28.4664 44.3528 25.3863 44.2746 24.6515C45.6349 25.0423 46.7059 26.3322 48.0036 26.3322C48.9808 26.3322 49.7782 25.5427 49.7782 24.5577C49.7782 23.5726 48.9886 22.7831 48.0036 22.7831H48.0114Z" fill="black"/>
<path d="M48.0114 39.1029C46.7137 39.1029 45.6505 40.385 44.2903 40.7837C44.7124 39.0717 45.9163 38.2821 45.9163 36.6404C45.9163 35.6632 45.1267 34.8658 44.1417 34.8658C43.1567 34.8658 42.3671 35.6632 42.3671 36.6404C42.3671 38.2821 43.5632 39.0717 43.9932 40.7837C42.6329 40.385 41.5619 39.1029 40.2642 39.1029C39.287 39.1029 38.4896 39.8925 38.4896 40.8775C38.4896 41.8625 39.287 42.6521 40.2642 42.6521C41.5697 42.6521 42.6485 41.3466 44.0323 40.9635C44.0323 40.9713 44.0323 40.9791 44.0323 40.9869C43.9541 41.7531 43.571 44.8332 41.7964 46.1778C42.4218 45.8964 43.2583 45.7166 44.173 45.7166C45.0876 45.7166 45.8538 45.873 46.4713 46.1388C44.7202 44.7785 44.3528 41.6983 44.2746 40.9635C45.6349 41.3544 46.7059 42.6443 48.0036 42.6443C48.9808 42.6443 49.7782 41.8547 49.7782 40.8697C49.7782 39.8847 48.9886 39.0951 48.0036 39.0951L48.0114 39.1029Z" fill="black"/>
<path d="M40.2563 58.2528C41.554 58.2528 42.6172 56.9707 43.9775 56.572C43.5554 58.2841 42.3515 59.0737 42.3515 60.7153C42.3515 61.6925 43.141 62.4899 44.126 62.4899C45.1111 62.4899 45.9007 61.6925 45.9007 60.7153C45.9007 59.0737 44.7046 58.2841 44.2746 56.572C45.6348 56.9707 46.7059 58.2528 48.0036 58.2528C48.9808 58.2528 49.7782 57.4632 49.7782 56.4782C49.7782 55.4932 48.9808 54.7036 48.0036 54.7036C46.6981 54.7036 45.6192 56.0092 44.2355 56.3922C44.2355 56.3844 44.2355 56.3766 44.2355 56.3688C44.3137 55.6026 44.6967 52.5225 46.4713 51.1779C45.8459 51.4593 45.0095 51.6391 44.0948 51.6391C43.1801 51.6391 42.414 51.4828 41.7964 51.217C43.5476 52.5772 43.915 55.6574 43.9932 56.3922C42.6329 56.0013 41.5619 54.7114 40.2642 54.7114C39.287 54.7114 38.4896 55.501 38.4896 56.486C38.4896 57.471 39.2791 58.2606 40.2642 58.2606L40.2563 58.2528Z" fill="black"/>
<path d="M60.8311 71.7282L60.8311 87.3056L63.3839 85.2477L63.3839 87.3838L60.8571 89.4156L58.7992 89.4156L58.7992 71.7543L60.805 71.7543L60.8311 71.7282Z" fill="black"/>
<path d="M50.4896 74.9583C50.4896 74.4112 50.5937 73.9163 50.7761 73.4734C50.9584 73.0567 51.245 72.692 51.5576 72.4054C51.8962 72.1189 52.2609 71.9105 52.7038 71.7542C53.1205 71.5979 53.5894 71.5458 54.0583 71.5458C54.5272 71.5458 54.996 71.624 55.4128 71.7542C55.8557 71.8844 56.2203 72.1189 56.559 72.4054C56.8976 72.692 57.1582 73.0567 57.3405 73.4734C57.5229 73.8902 57.627 74.3852 57.627 74.9583L57.627 86.1073C57.627 86.6804 57.5229 87.1753 57.3405 87.5921C57.1582 88.035 56.8716 88.3736 56.559 88.6601C56.2203 88.9467 55.8557 89.1811 55.4128 89.3114C54.97 89.4677 54.5272 89.5458 54.0583 89.5458C53.0163 89.5458 52.1567 89.2593 51.4794 88.6601C50.8022 88.061 50.4896 87.2014 50.4896 86.1073L50.4896 74.9583ZM52.4953 86.1855C52.4953 86.6283 52.6516 86.993 52.9382 87.2535C53.2247 87.514 53.6155 87.6703 54.0583 87.6703C54.5011 87.6703 54.8918 87.54 55.1784 87.2535C55.4649 86.993 55.6213 86.6283 55.6213 86.1855L55.6213 74.8801C55.6213 74.4373 55.4649 74.0726 55.1784 73.8121C54.8658 73.5516 54.5011 73.3953 54.0583 73.3953C53.6155 73.3953 53.2247 73.5255 52.9382 73.8121C52.6516 74.0726 52.4953 74.4373 52.4953 74.8801L52.4953 86.1855Z" fill="black"/>
<path d="M5.04233 24.3634V8.78598L2.48956 10.8439V8.70783L5.01634 6.67599H7.07417V24.3374H5.06841L5.04233 24.3634Z" fill="black"/>
<path d="M15.3839 21.1334C15.3839 21.6804 15.2797 22.1753 15.0974 22.6182C14.915 23.035 14.6284 23.3996 14.3158 23.6862C13.9772 23.9727 13.6125 24.1811 13.1697 24.3374C12.7529 24.4937 12.284 24.5458 11.8151 24.5458C11.3462 24.5458 10.8774 24.4677 10.4606 24.3374C10.0178 24.2072 9.65307 23.9727 9.31443 23.6862C8.97579 23.3996 8.71525 23.035 8.5329 22.6182C8.35056 22.2014 8.2464 21.7064 8.2464 21.1334V9.9843C8.2464 9.41122 8.35056 8.91628 8.5329 8.4995C8.71525 8.05666 9.00184 7.71802 9.31443 7.43148C9.65307 7.14494 10.0178 6.9105 10.4606 6.78025C10.9034 6.62395 11.3462 6.54581 11.8151 6.54581C12.8571 6.54581 13.7167 6.83235 14.394 7.43148C15.0713 8.03061 15.3839 8.89024 15.3839 9.9843V21.1334ZM13.3781 9.90615C13.3781 9.46332 13.2218 9.09863 12.9352 8.83814C12.6487 8.57765 12.258 8.42135 11.8151 8.42135C11.3723 8.42135 10.9816 8.5516 10.695 8.83814C10.4085 9.09863 10.2522 9.46332 10.2522 9.90615V21.2115C10.2522 21.6543 10.4085 22.019 10.695 22.2795C11.0076 22.54 11.3723 22.6963 11.8151 22.6963C12.258 22.6963 12.6487 22.5661 12.9352 22.2795C13.2218 22.019 13.3781 21.6543 13.3781 21.2115V9.90615Z" fill="black"/>
</g>
<defs>
<clipPath id="clip0_3556_1591">
<rect width="65.4895" height="95" fill="white" transform="translate(0.489563 0.545929)"/>
</clipPath>
</defs>
</svg>
