<svg width="66" height="96" viewBox="0 0 66 96" fill="none" xmlns="http://www.w3.org/2000/svg">
<g clip-path="url(#clip0_3556_1786)">
<rect width="65.4895" height="95" transform="translate(0.489624 0.545929)" fill="white"/>
<path d="M4.9895 0.545929L61.4793 0.545929C63.9602 0.545929 65.9791 2.56485 65.9791 5.04582V91.046C65.9791 93.527 63.9602 95.5459 61.4793 95.5459H4.9895C2.50853 95.5459 0.489624 93.527 0.489624 91.046L0.489624 5.04582C0.489624 2.56485 2.50853 0.545929 4.9895 0.545929Z" fill="white"/>
<path d="M28.0115 22.7831C26.7138 22.7831 25.6506 24.0651 24.2903 24.4638C24.7125 22.7518 25.9163 21.9622 25.9163 20.3205C25.9163 19.3433 25.1268 18.5459 24.1418 18.5459C23.1568 18.5459 22.3672 19.3433 22.3672 20.3205C22.3672 21.9622 23.5633 22.7518 23.9932 24.4638C22.633 24.0651 21.562 22.7831 20.2642 22.7831C19.287 22.7831 18.4896 23.5726 18.4896 24.5577C18.4896 25.5427 19.287 26.3322 20.2642 26.3322C21.5698 26.3322 22.6486 25.0267 24.0323 24.6437C24.0323 24.6515 24.0323 24.6593 24.0323 24.6749C23.9541 25.441 23.5711 28.5212 21.7965 29.8658C22.4219 29.5844 23.2584 29.4046 24.173 29.4046C25.0877 29.4046 25.8538 29.5687 26.4714 29.8267C24.7203 28.4664 24.3528 25.3863 24.2747 24.6515C25.6349 25.0423 26.7059 26.3322 28.0037 26.3322C28.9809 26.3322 29.7782 25.5427 29.7782 24.5577C29.7782 23.5726 28.9887 22.7831 28.0037 22.7831H28.0115Z" fill="black"/>
<path d="M47.3078 22.7831C46.0101 22.7831 44.9469 24.0651 43.5788 24.4638C44.001 22.7518 45.2049 21.9622 45.2049 20.3205C45.2049 19.3433 44.4153 18.5459 43.4303 18.5459C42.4453 18.5459 41.6557 19.3433 41.6557 20.3205C41.6557 21.9622 42.8518 22.7518 43.2818 24.4638C41.9215 24.0651 40.8505 22.7831 39.5528 22.7831C38.5756 22.7831 37.7782 23.5726 37.7782 24.5577C37.7782 25.5427 38.5678 26.3322 39.5528 26.3322C40.8583 26.3322 41.9372 25.0267 43.3209 24.6437C43.3209 24.6515 43.3209 24.6593 43.3209 24.6749C43.2427 25.441 42.8596 28.5212 41.085 29.8658C41.7104 29.5844 42.5469 29.4046 43.4616 29.4046C44.3763 29.4046 45.1424 29.5687 45.76 29.8267C44.0088 28.4664 43.6414 25.3863 43.5711 24.6515C44.9313 25.0423 46.0023 26.3322 47.3 26.3322C48.2772 26.3322 49.0746 25.5427 49.0746 24.5577C49.0746 23.5726 48.285 22.7831 47.3 22.7831H47.3078Z" fill="black"/>
<path d="M28.0115 74.2606C26.7138 74.2606 25.6506 72.9785 24.2903 72.5798C24.7125 74.2919 25.9163 75.0815 25.9163 76.7232C25.9163 77.7004 25.1268 78.4978 24.1418 78.4978C23.1568 78.4978 22.3672 77.7004 22.3672 76.7232C22.3672 75.0893 23.5633 74.2919 23.9932 72.5798C22.633 72.9785 21.562 74.2606 20.2642 74.2606C19.287 74.2606 18.4896 73.4711 18.4896 72.486C18.4896 71.501 19.287 70.7115 20.2642 70.7115C21.5698 70.7115 22.6486 72.017 24.0323 72.4001C24.0323 72.3922 24.0323 72.3844 24.0323 72.3688C23.9541 71.6027 23.5711 68.5225 21.7965 67.1779C22.4219 67.4593 23.2584 67.6313 24.173 67.6313C25.0877 67.6313 25.8538 67.475 26.4714 67.2092C24.7203 68.5694 24.3528 71.6496 24.2747 72.3844C25.6349 71.9935 26.7059 70.7036 28.0037 70.7036C28.9809 70.7036 29.7782 71.4932 29.7782 72.4782C29.7782 73.4632 28.9887 74.2528 28.0037 74.2528L28.0115 74.2606Z" fill="black"/>
<path d="M47.3078 74.2606C46.0101 74.2606 44.9469 72.9785 43.5788 72.5798C44.001 74.2919 45.2049 75.0815 45.2049 76.7232C45.2049 77.7004 44.4153 78.4978 43.4303 78.4978C42.4453 78.4978 41.6557 77.7004 41.6557 76.7232C41.6557 75.0893 42.8518 74.2919 43.2818 72.5798C41.9215 72.9785 40.8505 74.2606 39.5528 74.2606C38.5756 74.2606 37.7782 73.4711 37.7782 72.486C37.7782 71.501 38.5678 70.7115 39.5528 70.7115C40.8583 70.7115 41.9372 72.017 43.3209 72.4001C43.3209 72.3922 43.3209 72.3844 43.3209 72.3688C43.2427 71.6027 42.8596 68.5225 41.085 67.1779C41.7104 67.4593 42.5469 67.6313 43.4616 67.6313C44.3763 67.6313 45.1424 67.475 45.76 67.2092C44.0088 68.5694 43.6414 71.6496 43.5711 72.3844C44.9313 71.9935 46.0023 70.7036 47.3 70.7036C48.2772 70.7036 49.0746 71.4932 49.0746 72.4782C49.0746 73.4632 48.285 74.2528 47.3 74.2528L47.3078 74.2606Z" fill="black"/>
<path d="M37.0193 47.103C35.7215 47.103 34.6583 48.385 33.2903 48.7837C33.7124 47.0717 34.9163 46.2821 34.9163 44.6404C34.9163 43.6632 34.1267 42.8658 33.1417 42.8658C32.1567 42.8658 31.3672 43.6632 31.3672 44.6404C31.3672 46.2821 32.5632 47.0717 32.9932 48.7837C31.6329 48.385 30.562 47.103 29.2642 47.103C28.287 47.103 27.4896 47.8925 27.4896 48.8775C27.4896 49.8626 28.2792 50.6521 29.2642 50.6521C30.5698 50.6521 31.6486 49.3466 33.0323 48.9635C33.0323 48.9713 33.0323 48.9792 33.0323 48.987C32.9541 49.7531 32.571 52.8332 30.7964 54.1779C31.4219 53.8964 32.2584 53.7166 33.173 53.7166C34.0877 53.7166 34.8538 53.873 35.4714 54.1388C33.7203 52.7785 33.3528 49.6984 33.2825 48.9635C34.6427 49.3544 35.7137 50.6443 37.0114 50.6443C37.9886 50.6443 38.7861 49.8547 38.7861 48.8697C38.7861 47.8847 37.9965 47.0951 37.0114 47.0951L37.0193 47.103Z" fill="black"/>
<path d="M53.1948 64.4335C54.4486 64.4335 55.4851 63.1797 56.8224 62.7952C56.4045 64.4669 55.251 65.2359 55.251 66.824C55.251 67.7769 56.0201 68.5459 56.9729 68.5459C57.9258 68.5459 58.6948 67.7769 58.6948 66.824C58.6948 65.2359 57.5246 64.4669 57.1233 62.7952C58.444 63.1797 59.4805 64.4335 60.751 64.4335C61.7039 64.4335 62.4729 63.6645 62.4729 62.7116C62.4729 61.7587 61.7039 60.9897 60.751 60.9897C59.4805 60.9897 58.4273 62.2602 57.0899 62.628C57.0899 62.628 57.0899 62.6113 57.0899 62.5946C57.1567 61.8423 57.5413 58.8499 59.2632 57.5459C58.6447 57.8301 57.8422 57.9973 56.9562 57.9973C56.0702 57.9973 55.3179 57.8468 54.716 57.5794C56.4212 58.9 56.7723 61.8924 56.8392 62.6113C55.5185 62.2268 54.4821 60.973 53.2115 60.973C52.2587 60.973 51.4896 61.742 51.4896 62.6949C51.4896 63.6478 52.2587 64.4167 53.2115 64.4167L53.1948 64.4335Z" fill="black"/>
<path d="M13.5611 31.6584C12.3073 31.6584 11.2708 32.9122 9.93342 33.2967C10.3514 31.625 11.5049 30.856 11.5049 29.2678C11.5049 28.3149 10.7358 27.5459 9.78292 27.5459C8.83003 27.5459 8.06109 28.3149 8.06109 29.2678C8.06109 30.856 9.23131 31.625 9.63252 33.2967C8.31185 32.9122 7.27541 31.6584 6.00489 31.6584C5.052 31.6584 4.28296 32.4274 4.28296 33.3803C4.28296 34.3332 5.052 35.1022 6.00489 35.1022C7.27541 35.1022 8.3286 33.8317 9.66599 33.4639C9.66599 33.4639 9.66599 33.4806 9.66599 33.4973C9.59912 34.2496 9.21454 37.242 7.49266 38.5459C8.1112 38.2617 8.91364 38.0946 9.79965 38.0946C10.6857 38.0946 11.438 38.245 12.0398 38.5125C10.3347 37.1918 9.98356 34.1994 9.91669 33.4806C11.2374 33.8651 12.2738 35.1189 13.5443 35.1189C14.4972 35.1189 15.2663 34.3499 15.2663 33.397C15.2663 32.4441 14.4972 31.6751 13.5443 31.6751L13.5611 31.6584Z" fill="black"/>
<path d="M9.57126 24.5459C8.78408 24.5459 8.14268 24.4293 7.64706 24.1961C7.15143 23.9628 6.71411 23.6421 6.42257 23.234C6.10187 22.8258 5.86863 22.3593 5.72286 21.7762C5.57709 21.2223 5.48962 20.6101 5.48962 19.9687L7.73452 19.648C7.73452 20.0561 7.73452 20.4351 7.79283 20.785C7.82199 21.1348 7.90945 21.4264 8.05522 21.6596C8.20099 21.8929 8.37592 22.0969 8.63831 22.2427C8.87155 22.3885 9.2214 22.4468 9.65872 22.4468C10.1543 22.4468 10.5625 22.301 10.8832 21.9803C11.2039 21.6596 11.3788 21.1348 11.408 20.3477V15.2456C11.408 14.1378 10.8541 13.5547 9.74618 13.5547C9.30886 13.5547 8.92986 13.6421 8.63831 13.8462C8.34677 14.0503 8.11353 14.3127 7.96776 14.6625H6.0144V4.54593H13.682V6.55759H7.99691V12.5343H8.14268C8.43423 12.2427 8.78408 12.0386 9.19225 11.8929C9.60041 11.7471 10.0377 11.6888 10.475 11.6888C11.5829 11.6888 12.3992 12.0095 12.8657 12.6217C13.3613 13.234 13.5946 14.0211 13.5946 14.9249V20.2602C13.5946 21.0182 13.478 21.6596 13.2739 22.2136C13.0698 22.7675 12.7783 23.2048 12.3992 23.5255C12.0202 23.8754 11.6121 24.1086 11.1164 24.2835C10.6208 24.4585 10.1252 24.5168 9.57126 24.5168V24.5459Z" fill="black"/>
<path d="M56.6004 71.5459C57.3875 71.5459 58.0289 71.6625 58.5246 71.8958C59.0202 72.129 59.4575 72.4497 59.7491 72.8579C60.0698 73.266 60.303 73.7325 60.4488 74.3156C60.5945 74.8695 60.682 75.4818 60.682 76.1232L58.4371 76.4439C58.4371 76.0357 58.4371 75.6567 58.3788 75.3069C58.3496 74.957 58.2622 74.6655 58.1164 74.4322C57.9706 74.199 57.7957 73.9949 57.5333 73.8491C57.3001 73.7034 56.9502 73.6451 56.5129 73.6451C56.0173 73.6451 55.6091 73.7908 55.2884 74.1115C54.9677 74.4322 54.7928 74.957 54.7636 75.7442L54.7636 80.8462C54.7636 81.9541 55.3176 82.5372 56.4254 82.5372C56.8628 82.5372 57.2418 82.4497 57.5333 82.2456C57.8249 82.0416 58.0581 81.7792 58.2039 81.4293L60.1572 81.4293L60.1572 91.5459L52.4896 91.5459L52.4896 89.5343L58.1747 89.5343L58.1747 83.5576L58.0289 83.5576C57.7374 83.8491 57.3875 84.0532 56.9794 84.199C56.5712 84.3448 56.1339 84.4031 55.6966 84.4031C54.5887 84.4031 53.7724 84.0824 53.3059 83.4701C52.8103 82.8579 52.5771 82.0707 52.5771 81.1669L52.5771 75.8316C52.5771 75.0736 52.6937 74.4322 52.8978 73.8783C53.1018 73.3244 53.3934 72.887 53.7724 72.5663C54.1514 72.2165 54.5596 71.9832 55.0552 71.8083C55.5508 71.6334 56.0464 71.5751 56.6004 71.5751L56.6004 71.5459Z" fill="black"/>
</g>
<defs>
<clipPath id="clip0_3556_1786">
<rect width="65.4895" height="95" fill="white" transform="translate(0.489624 0.545929)"/>
</clipPath>
</defs>
</svg>
