<svg width="66" height="96" viewBox="0 0 66 96" fill="none" xmlns="http://www.w3.org/2000/svg">
<g clip-path="url(#clip0_3556_1876)">
<rect width="65.4895" height="95" transform="translate(0.489624 0.545929)" fill="white"/>
<path d="M4.9895 0.545929L61.4793 0.545929C63.9602 0.545929 65.9792 2.56485 65.9792 5.04582V91.046C65.9792 93.527 63.9602 95.5459 61.4793 95.5459H4.9895C2.50853 95.5459 0.489624 93.527 0.489624 91.046L0.489624 5.04582C0.489624 2.56485 2.50853 0.545929 4.9895 0.545929Z" fill="white"/>
<path d="M37.0193 22.7831C35.7215 22.7831 34.6583 24.0651 33.2903 24.4638C33.7124 22.7518 34.9163 21.9622 34.9163 20.3205C34.9163 19.3433 34.1267 18.5459 33.1417 18.5459C32.1567 18.5459 31.3672 19.3433 31.3672 20.3205C31.3672 21.9622 32.5632 22.7518 32.9932 24.4638C31.6329 24.0651 30.562 22.7831 29.2642 22.7831C28.287 22.7831 27.4896 23.5726 27.4896 24.5577C27.4896 25.5427 28.2792 26.3322 29.2642 26.3322C30.5698 26.3322 31.6486 25.0267 33.0323 24.6437C33.0323 24.6515 33.0323 24.6593 33.0323 24.6749C32.9541 25.441 32.571 28.5212 30.7964 29.8658C31.4219 29.5844 32.2584 29.4046 33.173 29.4046C34.0877 29.4046 34.8538 29.5687 35.4714 29.8267C33.7203 28.4664 33.3528 25.3863 33.2825 24.6515C34.6427 25.0423 35.7137 26.3322 37.0114 26.3322C37.9886 26.3322 38.7861 25.5427 38.7861 24.5577C38.7861 23.5726 37.9965 22.7831 37.0114 22.7831H37.0193Z" fill="black"/>
<path d="M37.0193 74.2606C35.7215 74.2606 34.6583 72.9785 33.2903 72.5798C33.7124 74.2919 34.9163 75.0815 34.9163 76.7232C34.9163 77.7004 34.1267 78.4978 33.1417 78.4978C32.1567 78.4978 31.3672 77.7004 31.3672 76.7232C31.3672 75.0893 32.5632 74.2919 32.9932 72.5798C31.6329 72.9785 30.562 74.2606 29.2642 74.2606C28.287 74.2606 27.4896 73.4711 27.4896 72.486C27.4896 71.501 28.2792 70.7115 29.2642 70.7115C30.5698 70.7115 31.6486 72.017 33.0323 72.4001C33.0323 72.3922 33.0323 72.3844 33.0323 72.3688C32.9541 71.6027 32.571 68.5225 30.7964 67.1779C31.4219 67.4593 32.2584 67.6313 33.173 67.6313C34.0877 67.6313 34.8538 67.475 35.4714 67.2092C33.7203 68.5694 33.3528 71.6496 33.2825 72.3844C34.6427 71.9935 35.7137 70.7036 37.0114 70.7036C37.9886 70.7036 38.7861 71.4932 38.7861 72.4782C38.7861 73.4632 37.9965 74.2528 37.0114 74.2528L37.0193 74.2606Z" fill="black"/>
<path d="M53.1948 64.4335C54.4486 64.4335 55.4851 63.1797 56.8224 62.7952C56.4045 64.4669 55.251 65.2359 55.251 66.824C55.251 67.7769 56.0201 68.5459 56.9729 68.5459C57.9258 68.5459 58.6948 67.7769 58.6948 66.824C58.6948 65.2359 57.5246 64.4669 57.1233 62.7952C58.444 63.1797 59.4805 64.4335 60.751 64.4335C61.7039 64.4335 62.4729 63.6645 62.4729 62.7116C62.4729 61.7587 61.7039 60.9897 60.751 60.9897C59.4805 60.9897 58.4273 62.2602 57.0899 62.628C57.0899 62.628 57.0899 62.6113 57.0899 62.5946C57.1567 61.8423 57.5413 58.8499 59.2632 57.5459C58.6447 57.8301 57.8422 57.9973 56.9562 57.9973C56.0702 57.9973 55.3179 57.8468 54.716 57.5794C56.4212 58.9 56.7723 61.8924 56.8392 62.6113C55.5185 62.2268 54.4821 60.973 53.2115 60.973C52.2587 60.973 51.4896 61.742 51.4896 62.6949C51.4896 63.6478 52.2587 64.4167 53.2115 64.4167L53.1948 64.4335Z" fill="black"/>
<path d="M13.5611 31.6584C12.3073 31.6584 11.2708 32.9122 9.93342 33.2967C10.3514 31.625 11.5049 30.856 11.5049 29.2678C11.5049 28.3149 10.7358 27.5459 9.78292 27.5459C8.83003 27.5459 8.06109 28.3149 8.06109 29.2678C8.06109 30.856 9.23131 31.625 9.63252 33.2967C8.31185 32.9122 7.27541 31.6584 6.00489 31.6584C5.052 31.6584 4.28296 32.4274 4.28296 33.3803C4.28296 34.3332 5.052 35.1022 6.00489 35.1022C7.27541 35.1022 8.3286 33.8317 9.66599 33.4639C9.66599 33.4639 9.66599 33.4806 9.66599 33.4973C9.59912 34.2496 9.21454 37.242 7.49266 38.5459C8.1112 38.2617 8.91364 38.0946 9.79965 38.0946C10.6857 38.0946 11.438 38.245 12.0398 38.5125C10.3347 37.1918 9.98356 34.1994 9.91669 33.4806C11.2374 33.8651 12.2738 35.1189 13.5443 35.1189C14.4972 35.1189 15.2663 34.3499 15.2663 33.397C15.2663 32.4441 14.4972 31.6751 13.5443 31.6751L13.5611 31.6584Z" fill="black"/>
<path d="M9.84077 6.70964C9.19749 6.70964 8.72965 7.00204 8.46649 7.52835C8.20334 8.05467 8.05714 8.84414 8.05714 9.89677V10.0722L5.80566 9.66289V9.54591C5.80566 8.78567 5.89339 8.11312 6.03959 7.49909C6.18579 6.88505 6.4197 6.35871 6.77058 5.92011C7.09222 5.48152 7.53082 5.13071 8.05714 4.89679C8.58346 4.66287 9.19749 4.54593 9.92848 4.54593C10.6595 4.54593 11.3028 4.66285 11.7998 4.86752C12.3261 5.0722 12.7355 5.36456 13.0572 5.74468C13.3788 6.1248 13.6127 6.59264 13.7589 7.11895C13.9051 7.67451 13.9636 8.25938 13.9636 8.9319C13.9636 10.5108 13.6127 12.0313 12.8817 13.4933L8.43727 22.4698H13.8174V24.5459H5.86416V22.5868L11.0103 12.2945C11.2735 11.7681 11.449 11.2418 11.5075 10.657C11.5659 10.1015 11.5952 9.51663 11.5952 8.96108C11.5952 8.69792 11.5952 8.43476 11.5367 8.14236C11.5074 7.84997 11.4197 7.61605 11.3028 7.41137C11.1858 7.20669 11.0104 7.00203 10.7765 6.88508C10.5425 6.73888 10.2209 6.68038 9.81154 6.68038L9.84077 6.70964Z" fill="black"/>
<path d="M56.6124 89.3822C57.2556 89.3822 57.7235 89.0898 57.9866 88.5635C58.2498 88.0372 58.396 87.2477 58.396 86.1951L58.396 86.0197L60.6475 86.429L60.6475 86.546C60.6475 87.3062 60.5597 87.9787 60.4135 88.5928C60.2673 89.2068 60.0334 89.7331 59.6825 90.1717C59.3609 90.6103 58.9223 90.9611 58.396 91.1951C57.8697 91.429 57.2556 91.5459 56.5246 91.5459C55.7936 91.5459 55.1504 91.429 54.6533 91.2243C54.127 91.0197 53.7176 90.7273 53.396 90.3472C53.0743 89.9671 52.8404 89.4992 52.6942 88.9729C52.548 88.4173 52.4895 87.8325 52.4895 87.16C52.4895 85.581 52.8404 84.0606 53.5714 82.5986L58.0159 73.622L52.6357 73.622L52.6357 71.5459L60.589 71.5459L60.589 73.505L55.4428 83.7974C55.1796 84.3237 55.0041 84.85 54.9457 85.4348C54.8872 85.9904 54.858 86.5752 54.858 87.1308C54.858 87.3939 54.858 87.6571 54.9164 87.9495C54.9457 88.2419 55.0334 88.4758 55.1504 88.6805C55.2673 88.8852 55.4427 89.0898 55.6767 89.2068C55.9106 89.353 56.2322 89.4115 56.6416 89.4115L56.6124 89.3822Z" fill="black"/>
</g>
<defs>
<clipPath id="clip0_3556_1876">
<rect width="65.4895" height="95" fill="white" transform="translate(0.489624 0.545929)"/>
</clipPath>
</defs>
</svg>
