<svg width="66" height="96" viewBox="0 0 66 96" fill="none" xmlns="http://www.w3.org/2000/svg">
<g clip-path="url(#clip0_3556_1038)">
<rect width="65.4895" height="95" transform="translate(0.489563 0.545929)" fill="white"/>
<path d="M4.98944 0.545929L61.4792 0.545929C63.9602 0.545929 65.9791 2.56485 65.9791 5.04582V91.046C65.9791 93.527 63.9602 95.5459 61.4792 95.5459H4.98944C2.50847 95.5459 0.489563 93.527 0.489563 91.046L0.489563 5.04582C0.489563 2.56485 2.50847 0.545929 4.98944 0.545929Z" fill="white"/>
<path d="M12.4896 6.54581V19.7965C12.4896 21.3446 12.1703 22.5254 11.5562 23.3388C10.9176 24.1522 9.95971 24.5458 8.65796 24.5458C7.97024 24.5458 7.35621 24.4146 6.81586 24.126C6.27551 23.8374 5.83342 23.4175 5.48956 22.8403L6.88954 21.6333C7.06147 21.8957 7.30711 22.1581 7.65097 22.368C7.97027 22.5779 8.3141 22.6828 8.65796 22.6828C9.37024 22.6828 9.86147 22.4467 10.1562 21.9481C10.4509 21.4758 10.5983 20.8461 10.5983 20.0589V6.54581H12.4896Z" fill="black"/>
<path d="M54.4896 89.5458L54.4896 76.2951C54.4896 74.747 54.8089 73.5662 55.4229 72.7528C56.0615 71.9394 57.0194 71.5458 58.3212 71.5458C59.0089 71.5458 59.6229 71.677 60.1633 71.9656C60.7036 72.2543 61.1457 72.6741 61.4896 73.2513L60.0896 74.4583C59.9177 74.196 59.672 73.9336 59.3282 73.7236C59.0089 73.5137 58.665 73.4088 58.3212 73.4088C57.6089 73.4088 57.1177 73.6449 56.8229 74.1435C56.5282 74.6158 56.3808 75.2455 56.3808 76.0327L56.3808 89.5458L54.4896 89.5458Z" fill="black"/>
<path d="M53.1947 64.4335C54.4485 64.4335 55.485 63.1797 56.8224 62.7952C56.4044 64.4669 55.2509 65.2359 55.2509 66.824C55.2509 67.7769 56.02 68.5459 56.9729 68.5459C57.9258 68.5459 58.6947 67.7769 58.6947 66.824C58.6947 65.2359 57.5245 64.4669 57.1233 62.7952C58.4439 63.1797 59.4804 64.4335 60.7509 64.4335C61.7038 64.4335 62.4728 63.6645 62.4728 62.7116C62.4728 61.7587 61.7038 60.9897 60.7509 60.9897C59.4804 60.9897 58.4272 62.2602 57.0898 62.628C57.0898 62.628 57.0898 62.6113 57.0898 62.5946C57.1567 61.8423 57.5413 58.8499 59.2631 57.5459C58.6446 57.8301 57.8422 57.9973 56.9561 57.9973C56.0701 57.9973 55.3178 57.8468 54.716 57.5794C56.4211 58.9 56.7722 61.8924 56.8391 62.6113C55.5184 62.2268 54.482 60.973 53.2115 60.973C52.2586 60.973 51.4895 61.742 51.4895 62.6949C51.4895 63.6478 52.2586 64.4167 53.2115 64.4167L53.1947 64.4335Z" fill="black"/>
<path d="M13.561 31.6584C12.3072 31.6584 11.2707 32.9122 9.93336 33.2967C10.3513 31.625 11.5048 30.856 11.5048 29.2678C11.5048 28.3149 10.7357 27.5459 9.78286 27.5459C8.82997 27.5459 8.06103 28.3149 8.06103 29.2678C8.06103 30.856 9.23125 31.625 9.63246 33.2967C8.31179 32.9122 7.27535 31.6584 6.00483 31.6584C5.05194 31.6584 4.2829 32.4274 4.2829 33.3803C4.2829 34.3332 5.05194 35.1022 6.00483 35.1022C7.27535 35.1022 8.32854 33.8317 9.66593 33.4639C9.66593 33.4639 9.66593 33.4806 9.66593 33.4973C9.59906 34.2496 9.21448 37.242 7.49259 38.5459C8.11114 38.2617 8.91358 38.0946 9.79959 38.0946C10.6856 38.0946 11.4379 38.245 12.0398 38.5125C10.3346 37.1918 9.9835 34.1994 9.91663 33.4806C11.2373 33.8651 12.2737 35.1189 13.5443 35.1189C14.4971 35.1189 15.2662 34.3499 15.2662 33.397C15.2662 32.4441 14.4971 31.6751 13.5443 31.6751L13.561 31.6584Z" fill="black"/>
<path d="M22.4636 59.1933L34.576 58.7774L41.3975 48.179H9.90204L22.4636 59.1933Z" fill="#024BD3"/>
<path d="M19.5853 59.8255C19.5853 59.8255 13.4293 58.0786 11.4244 55.6661C9.41955 53.2536 7.48956 50.6581 7.48956 50.6581V48.179H8.97033C8.97033 48.179 14.6355 50.4834 16.3492 51.2903C18.0629 52.0973 23.5118 54.934 23.778 55.924C24.0442 56.9139 24.8179 59.4928 24.56 59.5261C24.3021 59.5594 19.5853 59.8172 19.5853 59.8172V59.8255Z" fill="#C25E12"/>
<path d="M36.5393 63.4859C36.5393 63.4859 41.3393 62.9535 42.9615 60.6491C44.5837 58.3448 46.2142 56.3066 46.2142 56.3066L50.3736 52.5631L50.565 50.6747C50.565 50.6747 47.1625 50.0674 46.1476 50.0674C45.1244 50.0674 33.4945 52.7545 31.9056 54.4183C30.3167 56.082 30.7742 59.2932 30.7742 59.2932L36.5559 63.4859H36.5393Z" fill="#F4AE00"/>
<path d="M30.1337 56.9389C30.1337 56.9389 32.4131 54.2269 35.7074 53.7361C38.9933 53.2453 44.4339 53.212 45.7566 52.5631C47.0793 51.9226 50.5567 50.6747 50.5567 50.6747V48.179H39.7504C39.7504 48.179 29.3434 52.1305 28.811 55.8907L30.1337 56.9389Z" fill="#D82F00"/>
<path d="M7.86391 49.4685C7.86391 49.4685 10.6258 52.247 13.8619 52.1555C17.0979 52.064 23.4453 55.3333 23.7031 57.6294L24.352 57.0969C24.352 57.0969 24.2272 53.6945 21.4404 52.1555C18.6536 50.6165 15.9915 49.9843 14.8019 49.6182C13.6123 49.2439 9.90205 48.179 9.90205 48.179H7.48956L7.86391 49.4685Z" fill="#D82F00"/>
<path d="M30.3832 50.4834C30.3832 50.4834 33.3032 52.5798 33.428 51.7728C33.5528 50.9742 33.428 50.0508 33.428 50.0508L35.1167 49.8927L34.0685 48.179H30.1337L30.3832 50.4751V50.4834Z" fill="#CDD9DD"/>
<path d="M16.3575 52.1555C16.3575 52.1555 18.8782 50.3835 17.8965 49.7097C16.9149 49.0359 16.2328 49.3187 16.1413 49.0858C16.0497 48.8529 15.1846 48.7863 13.9284 48.6366C12.6639 48.4785 12.5475 49.3104 11.4993 49.3437C10.4511 49.377 11.0418 49.926 10.5426 50.5083C10.0518 51.0906 9.36964 51.2154 9.67744 51.7978C9.98524 52.3801 11.3412 52.6297 12.1731 53.2453C13.005 53.8609 14.8518 52.9375 16.3575 52.1555Z" fill="#CDD9DD"/>
<path d="M31.7642 67.6121C31.7642 67.6121 33.8522 65.6405 35.699 64.8419C37.5458 64.0432 41.4225 62.5375 40.341 62.446C39.2679 62.3545 37.1133 62.8453 37.263 62.446C37.4211 62.0467 39.0516 61.3729 37.7871 60.6658C36.5226 59.9587 35.333 60.541 35.333 60.541C35.333 60.541 37.4793 58.4529 36.0069 58.3864C34.5344 58.3281 33.7025 58.6359 33.7025 58.6359C33.7025 58.6359 35.4994 56.7725 34.2931 56.5063C33.0869 56.2401 32.2883 56.9472 32.2883 56.9472C32.2883 56.9472 32.8124 54.7011 31.7642 54.6678C30.716 54.6345 30.533 56.3898 30.4748 56.2983C30.4165 56.2068 29.4598 54.5097 28.811 54.6678C28.1621 54.8259 28.0456 56.7808 28.0456 56.7808C28.0456 56.7808 26.3818 55.6162 26.1739 56.1403C25.9576 56.6727 24.6349 57.2883 24.6349 57.2883C24.6349 57.2883 22.5718 55.8408 21.6234 56.3649C20.6667 56.889 19.5354 55.741 18.8199 56.1403C18.1128 56.5479 19.8016 58.4862 19.0695 58.4196C18.3291 58.3614 17.647 60.4495 17.647 60.4495C17.647 60.4495 23.1957 63.4526 23.437 64.2096C23.6699 64.9666 29.1853 69.1178 31.7725 67.6121H31.7642Z" fill="#CDD9DD"/>
<path d="M32.0055 75.5816C31.5978 75.7812 31.2651 76.1223 31.0987 76.5799C31.0238 76.7878 30.9906 76.9958 30.9906 77.2038C30.9906 77.5282 30.9822 77.861 30.9739 78.1854C30.9573 78.9924 30.9573 80.6561 30.9573 81.488C33.453 81.488 37.6124 82.3199 37.6457 79.217C37.9036 79.1088 38.1116 78.9092 38.2197 78.6263C38.3029 78.3851 38.2863 78.1438 38.2031 77.9192C38.411 77.7611 38.5774 77.5449 38.6772 77.2787C38.8103 76.9209 38.7771 76.5466 38.6356 76.2221C38.8519 76.0058 39.035 75.7397 39.1514 75.4319C39.5591 74.3005 38.9767 73.061 37.8537 72.645C37.654 72.5701 37.4544 72.5452 37.2547 72.5285C37.1965 72.0294 36.8637 71.5802 36.3646 71.3972C35.6492 71.1393 34.8589 71.5053 34.601 72.2207C34.576 72.2873 34.5594 72.3538 34.5511 72.4287C33.7608 72.2041 32.9289 72.6201 32.6377 73.402C32.5379 73.6849 32.5212 73.976 32.5795 74.2506C32.3632 74.4086 32.1885 74.6332 32.0887 74.9078C32.0055 75.1241 31.9888 75.3487 32.0138 75.565L32.0055 75.5816Z" fill="#CDD9DD"/>
<path d="M25.8744 86.5459C25.8744 86.5459 16.2327 77.1456 14.2778 76.8294L18.9946 72.5868C20.3256 77.4118 26.9725 79.2003 26.9725 79.2003C31.6394 79.375 34.343 75.4069 34.343 75.4069L37.7288 77.7612L25.866 86.5459H25.8744Z" fill="#F4AE00"/>
<path d="M37.238 77.4617L33.7607 73.61C33.7607 73.61 32.1468 78.3352 27.4799 78.1605L26.3735 85.5061L37.238 77.4617Z" fill="#1A64A0"/>
<path d="M14.8851 76.4468C16.84 76.7629 26.3735 85.5061 26.3735 85.5061L27.4799 78.1605C27.4799 78.1605 20.8331 76.3802 19.5021 71.5469L14.8934 76.4468H14.8851Z" fill="#014B87"/>
<path d="M16.3575 60.8155H14.8019V65.1496H16.3575V60.8155Z" fill="#711A11"/>
<path d="M18.0047 60.333C18.0047 60.333 17.7967 61.2065 17.7967 61.8304C17.7967 62.4543 17.3808 62.9368 17.0813 62.4543C16.7818 61.9718 16.5239 61.7139 16.5239 61.7139C16.5239 61.7139 14.727 62.4294 14.1697 62.0633C13.6123 61.6973 12.6223 59.7507 12.4393 58.6027C12.2563 57.4463 12.4393 55.6744 12.4393 55.3916C12.4393 55.1087 12.6473 51.9059 12.8553 51.6314C13.0632 51.3569 13.9201 50.916 14.6106 50.891C15.301 50.8661 16.3908 51.1905 16.4574 51.3985C16.5239 51.6064 16.2993 53.0623 16.9648 54.0273C17.6303 55.0006 30.3333 49.7596 30.3749 50.4751C30.4248 51.1905 18.1794 59.3181 17.9964 60.3247L18.0047 60.333Z" fill="#F1A882"/>
<path d="M15.8001 82.6194C15.8001 82.6194 16.3159 78.826 17.1228 77.5781V75.5982C17.1228 75.5982 16.0913 74.941 16.1911 73.0776C16.291 71.2142 17.2227 70.898 17.7052 70.898C18.1877 70.898 18.8282 71.9213 18.8282 71.9213L21.249 70.5487L19.0445 68.9098C19.0445 68.9098 18.3873 69.8166 17.5804 69.6669C16.7735 69.5171 16.5738 68.8599 16.5073 68.0779C16.4324 67.296 16.5572 65.1414 16.5572 65.1414H14.7187V68.394C14.7187 68.394 14.2528 70.1577 13.4542 69.6585C12.6556 69.1594 12.8303 66.905 13.4542 66.489L11.9235 63.8686C11.9235 63.8686 9.32802 65.2329 9.30306 71.3556C9.29474 74.6832 11.9235 76.4717 11.9235 76.4717L13.7287 74.5168C13.7287 74.5168 12.8303 73.1941 13.0549 72.096C13.2712 70.9979 15.1097 70.5819 15.1097 73.1026C15.1097 75.6232 14.1114 75.5234 14.1114 75.5234L14.0615 77.7528C14.0615 77.7528 15.509 79.9158 15.8001 82.6194Z" fill="#91A3BD"/>
<g style="mix-blend-mode:multiply" opacity="0.5">
<path d="M11.9402 76.48L13.7454 74.5251C13.7454 74.5251 12.8469 73.2024 13.0715 72.1043C13.2878 71.0062 15.1263 70.5902 15.1263 73.1109C15.1263 75.6315 14.128 75.5317 14.128 75.5317L14.0781 77.7612C14.0781 77.7612 15.0265 79.1837 15.5423 81.1553V65.158H14.7436V68.4107C14.7436 68.4107 14.2778 70.1743 13.4792 69.6752C12.6806 69.176 12.8553 66.9216 13.4792 66.5057L11.9485 63.8852C11.9485 63.8852 9.35298 65.2495 9.32802 71.3722C9.3197 74.6998 11.9485 76.4884 11.9485 76.4884L11.9402 76.48Z" fill="#91A3BD"/>
</g>
<path d="M26.3902 48.179C25.9493 48.6033 25.5583 49.0026 25.4668 49.1357C25.2588 49.4352 23.9694 49.4602 23.2539 49.8012C22.5385 50.1506 23.021 50.1922 22.5635 51.074C22.1059 51.9475 22.5635 52.8543 22.5635 53.5198C22.5635 54.1853 23.3454 54.3018 24.5018 54.7427C25.6581 55.1836 25.6581 54.8092 26.9475 54.4432C28.237 54.0772 30.2501 52.1555 31.1236 50.9992C31.6893 50.2588 31.6727 48.986 31.5812 48.1707H26.3902V48.179Z" fill="#F1A882"/>
<path d="M15.0182 50.9077C14.8767 50.891 14.7353 50.8827 14.6189 50.891C13.9284 50.916 13.0715 51.3569 12.8636 51.6314C12.6556 51.9059 12.4476 55.117 12.4476 55.3916C12.4476 55.6661 12.2646 57.4463 12.4476 58.6027C12.6306 59.759 13.6289 61.6973 14.178 62.0633C14.2029 62.08 14.2362 62.0966 14.2695 62.1049C14.4358 61.6973 14.6105 61.1566 14.6438 60.6491C14.7104 59.6342 15.3592 57.0969 15.0348 56.5645C14.7104 56.0321 14.8268 53.5864 14.8934 51.8311C14.91 51.49 14.9599 51.1822 15.0182 50.8993V50.9077Z" fill="#D78E69"/>
<path d="M22.5552 51.0741C22.0976 51.9475 22.5552 52.8543 22.5552 53.5198C22.5552 54.1853 23.3371 54.3018 24.4935 54.7427C25.0425 54.9507 25.3254 54.9756 25.6165 54.9091C25.9576 53.237 26.3403 50.5499 25.5001 49.0858C25.4834 49.1025 25.4668 49.1191 25.4585 49.1357C25.2505 49.4352 23.9611 49.4602 23.2456 49.8013C22.5302 50.1507 23.0127 50.1922 22.5552 51.0741Z" fill="#D78E69"/>
<path d="M16.3575 48.179H14.8019V56.1319H16.3575V48.179Z" fill="#711A11"/>
<path d="M32.646 76.2388C32.646 76.2388 32.6793 74.1174 32.8374 73.2523C32.9954 72.3871 32.9954 70.8814 32.8374 69.8249C32.6793 68.7684 32.0055 67.1295 31.8474 66.1729C31.6893 65.2079 30.7909 64.2179 29.8592 64.1181C28.9275 64.0183 27.0058 64.4924 25.6581 65.1496C24.3105 65.8151 22.4553 68.7351 22.4553 68.7351C22.4553 68.7351 21.5319 68.81 21.2657 69.7583C20.9995 70.7067 20.4338 71.9046 20.4338 71.9046C20.4338 71.9046 20.5586 74.6665 23.5451 76.2304C26.5233 77.8027 29.9923 78.41 32.6543 76.2304L32.646 76.2388Z" fill="#F1A882"/>
<path d="M30.2085 68.8932C30.0838 69.2426 30.4498 69.6169 30.6578 69.6918C30.8657 69.775 30.8491 70.0162 30.8158 70.3656C30.7825 70.715 29.9839 72.9278 30.5247 74.1174C30.8325 74.783 31.8474 74.9577 32.6793 74.9743C32.7042 74.3587 32.7541 73.6599 32.829 73.244C32.9871 72.3788 32.9871 70.8731 32.829 69.8166C32.6709 68.7601 31.9971 67.1212 31.839 66.1645C31.6976 65.341 31.0155 64.4924 30.2418 64.2096C29.5929 65.5157 30.1004 66.88 30.1753 67.1961C30.2668 67.5372 30.3333 68.5438 30.2002 68.8932H30.2085Z" fill="#D78E69"/>
<path d="M25.6498 65.1496C26.9975 64.4841 28.9191 64.0183 29.8508 64.1181C30.4914 64.1847 31.1236 64.6755 31.498 65.2994C31.2567 63.3029 25.9992 59.5344 25.9992 59.5344C23.6949 61.1981 23.6616 64.7919 23.6616 64.7919L22.4553 68.7185C22.6134 68.4689 24.3604 65.7902 25.6498 65.158V65.1496Z" fill="#D78E69"/>
<path d="M19.9597 72.7448C19.9597 72.7448 20.6002 74.8578 23.5867 76.4301C23.7115 76.4967 23.7947 76.3636 23.9195 76.4301C23.9943 76.0225 24.0942 75.4984 24.1108 74.9743C24.1358 74.1923 22.9545 73.244 23.2124 72.5119C23.4619 71.7798 23.5701 71.6717 23.6449 71.5968C23.7198 71.522 23.3205 70.7649 22.7299 70.6485C22.3888 70.5819 21.7981 70.1743 21.1326 70.1577C20.8498 71.0145 19.9597 72.7448 19.9597 72.7448Z" fill="#572B16"/>
<path d="M32.8374 69.8249C32.9954 70.8814 32.9954 72.3871 32.8374 73.2523C32.7292 73.8596 32.6793 75.0825 32.6543 75.7646C33.2367 75.2821 34.0602 74.5251 34.2183 73.9178C34.4679 72.9611 33.9937 72.2291 33.8273 71.8381C33.6609 71.4471 33.3448 70.7649 33.6027 70.1577C33.8606 69.5504 34.3764 69.3424 33.5195 68.8516C33.2533 68.7018 32.8956 68.602 32.5212 68.5438C32.6627 69.0013 32.7791 69.4506 32.8374 69.8166V69.8249Z" fill="#572B16"/>
<path d="M30.6661 69.2343C30.6661 69.2343 29.7427 69.3923 29.3101 69.0096C28.8775 68.6353 27.8044 68.5271 27.663 68.394C27.5215 68.2609 26.8976 68.1112 26.7562 68.2277C26.6148 68.3441 26.7395 67.8533 27.1638 67.7951C27.5798 67.7369 29.1437 67.9115 29.4515 67.9864C29.751 68.0613 30.2751 68.1611 30.5746 68.1195C30.8824 68.0779 32.5462 68.2942 32.7541 68.6436C32.9621 68.9847 32.6293 68.9181 32.4713 68.835C32.3132 68.7518 32.0221 69.567 30.6744 69.2426L30.6661 69.2343Z" fill="#572B16"/>
<path d="M30.8075 65.9316C30.6744 66.098 30.0089 66.1895 29.9174 66.1895C29.8259 66.1895 29.5181 65.7153 29.1437 65.4491C28.7694 65.1912 28.5032 64.8169 28.5364 64.4675C28.5614 64.1181 29.4432 63.6606 29.9174 63.386C30.3832 63.1115 31.2235 62.9119 31.2401 63.5441C31.2567 64.1763 31.6893 65.2744 31.3732 65.4242C31.0571 65.5656 31.0571 65.6238 30.8075 65.9316Z" fill="#572B16"/>
<path d="M32.9538 75.9393C33.2283 76.1805 33.0536 77.104 32.3715 77.1788C31.6893 77.262 31.6561 77.6114 31.4315 77.3618C31.2068 77.1123 31.2817 77.1372 30.9573 77.445C30.6328 77.7528 30.3916 78.1521 30.3167 78.019C30.2335 77.8859 30.0505 77.7112 29.9174 77.7611C29.7843 77.8111 28.786 78.3019 28.5365 78.5348C28.2869 78.7677 28.1039 78.9008 27.9708 78.5348C27.8377 78.1688 28.0872 78.4682 26.9891 78.5348C25.891 78.6013 25.4418 78.3934 25.3586 78.1605C25.2754 77.9192 24.4103 78.2936 24.1191 77.8443C23.8279 77.3951 23.5451 76.2388 23.5451 76.2388C23.5451 76.2388 23.1541 75.0409 24.0775 75.5317C25.0009 76.0225 24.0442 75.7729 24.9676 76.2554C25.891 76.7379 25.3004 77.1622 26.3819 76.7296C27.4633 76.297 26.9392 76.4301 27.7628 76.4634C28.5781 76.4967 28.578 76.3968 29.0938 76.4301C29.6096 76.4634 29.593 76.4384 29.7593 76.2554C29.9257 76.0724 29.8509 75.5649 30.4831 75.6232C31.1153 75.6814 30.4831 75.7812 31.1153 75.6814C31.7476 75.5816 31.7808 74.8578 32.2217 75.3154C32.6627 75.7729 32.9621 75.9476 32.9621 75.9476L32.9538 75.9393Z" fill="#572B16"/>
<path d="M44.6835 36.8903L32.5628 37.3062L25.7413 47.9045H57.2367L44.6835 36.8903Z" fill="#024BD3"/>
<path d="M47.5535 36.2663C47.5535 36.2663 53.7095 38.0133 55.7144 40.4258C57.7193 42.8383 59.6492 45.4338 59.6492 45.4338V47.9128H58.1685C58.1685 47.9128 52.5033 45.6085 50.7896 44.8015C49.0759 43.9946 43.627 41.1578 43.3608 40.1679C43.0946 39.1779 42.3209 36.5991 42.5788 36.5658C42.8367 36.5325 47.5535 36.2746 47.5535 36.2746V36.2663Z" fill="#C25E12"/>
<path d="M30.6079 32.606C30.6079 32.606 25.8078 33.1384 24.1857 35.4427C22.5635 37.7471 20.9329 39.7852 20.9329 39.7852L16.7735 43.5287L16.5822 45.4171C16.5822 45.4171 19.9846 46.0244 20.9995 46.0244C22.0227 46.0244 33.6526 43.3374 35.2415 41.6736C36.8304 40.0098 36.3729 36.7987 36.3729 36.7987L30.5912 32.606H30.6079Z" fill="#F4AE00"/>
<path d="M37.0051 39.1447C37.0051 39.1447 34.7257 41.8566 31.4314 42.3475C28.1455 42.8383 22.7049 42.8715 21.3822 43.5204C20.0595 44.161 16.5822 45.4088 16.5822 45.4088V47.9045H27.3884C27.3884 47.9045 37.7954 43.953 38.3278 40.1929L37.0051 39.1447Z" fill="#D82F00"/>
<path d="M59.2749 46.6151C59.2749 46.6151 56.513 43.8366 53.277 43.9281C50.0409 44.0196 43.6936 40.7502 43.4357 38.4542L42.7868 38.9866C42.7868 38.9866 42.9116 42.3891 45.6984 43.9281C48.4853 45.4671 51.1473 46.0993 52.3369 46.4653C53.5265 46.8397 57.2368 47.9045 57.2368 47.9045H59.6493L59.2749 46.6151Z" fill="#D82F00"/>
<path d="M36.7556 45.6085C36.7556 45.6085 33.8356 43.5121 33.7108 44.3191C33.5861 45.1177 33.7108 46.0411 33.7108 46.0411L32.0221 46.1991L33.0703 47.9128H37.0051L36.7556 45.6168V45.6085Z" fill="#CDD9DD"/>
<path d="M50.7813 43.9281C50.7813 43.9281 48.2606 45.7 49.2423 46.3739C50.2239 47.0477 50.9061 46.7648 50.9976 46.9978C51.0891 47.2307 51.9542 47.2972 53.2104 47.447C54.4749 47.605 54.5914 46.7731 55.6395 46.7399C56.6877 46.7066 56.0971 46.1575 56.5962 45.5752C57.087 44.9929 57.7692 44.8681 57.4614 44.2858C57.1536 43.7035 55.7976 43.4539 54.9657 42.8383C54.1338 42.2227 52.287 43.1461 50.7813 43.9281Z" fill="#CDD9DD"/>
<path d="M35.3746 28.4715C35.3746 28.4715 33.2866 30.4431 31.4398 31.2417C29.593 32.0403 25.7164 33.546 26.7978 33.6375C27.871 33.7291 30.0256 33.2382 29.8758 33.6375C29.7178 34.0369 28.0873 34.7107 29.3517 35.4261C30.6162 36.1332 31.8058 35.5509 31.8058 35.5509C31.8058 35.5509 29.6595 37.639 31.132 37.7055C32.6044 37.7637 33.4363 37.4559 33.4363 37.4559C33.4363 37.4559 31.6394 39.3194 32.8457 39.5856C34.0519 39.8518 34.8505 39.1447 34.8505 39.1447C34.8505 39.1447 34.3264 41.3908 35.3746 41.4241C36.4228 41.4573 36.6058 39.7021 36.6641 39.7936C36.7223 39.8851 37.679 41.5821 38.3279 41.4241C38.9767 41.266 39.0932 39.3111 39.0932 39.3111C39.0932 39.3111 40.757 40.4757 40.965 39.9516C41.1812 39.4192 42.504 38.8036 42.504 38.8036C42.504 38.8036 44.567 40.2511 45.5154 39.727C46.4721 39.2029 47.6035 40.3509 48.3189 39.9516C49.026 39.544 47.3373 37.6057 48.0693 37.6722C48.8097 37.7305 49.4919 35.6424 49.4919 35.6424C49.4919 35.6424 43.9431 32.6393 43.7019 31.8823C43.469 31.1252 37.9535 26.9741 35.3663 28.4798L35.3746 28.4715Z" fill="#CDD9DD"/>
<path d="M36.847 18.1227C37.2547 17.9231 37.5874 17.582 37.7538 17.1245C37.8287 16.9165 37.862 16.7085 37.862 16.5006C37.862 16.1761 37.8703 15.8434 37.8786 15.5189C37.8952 14.712 37.8952 13.0482 37.8952 12.2163C35.3996 12.2163 31.2401 11.3844 31.2068 14.4874C30.9489 14.5955 30.741 14.7952 30.6328 15.078C30.5496 15.3193 30.5663 15.5605 30.6495 15.7851C30.4415 15.9432 30.2751 16.1595 30.1753 16.4257C30.0422 16.7834 30.0754 17.1578 30.2169 17.4822C30.0006 17.6985 29.8176 17.9647 29.7011 18.2725C29.2935 19.4039 29.8758 20.6434 30.9988 21.0593C31.1985 21.1342 31.3982 21.1592 31.5978 21.1758C31.656 21.6749 31.9888 22.1242 32.4879 22.3072C33.2034 22.5651 33.9937 22.199 34.2515 21.4836C34.2765 21.417 34.2931 21.3505 34.3015 21.2756C35.0918 21.5002 35.9237 21.0843 36.2148 20.3023C36.3146 20.0195 36.3313 19.7283 36.273 19.4538C36.4893 19.2957 36.664 19.0711 36.7639 18.7966C36.847 18.5803 36.8637 18.3557 36.8387 18.1394L36.847 18.1227Z" fill="#CDD9DD"/>
<path d="M41.2644 9.54593C41.2644 9.54593 50.906 18.9463 52.861 19.2624L48.1441 23.5051C46.8131 18.6801 40.1663 16.8915 40.1663 16.8915C35.4994 16.7168 32.7957 20.685 32.7957 20.685L29.4099 18.3307L41.2727 9.54593H41.2644Z" fill="#F4AE00"/>
<path d="M29.9007 18.6219L33.378 22.4736C33.378 22.4736 34.9919 17.7484 39.6588 17.9231L40.7652 10.5775L29.9007 18.6219Z" fill="#1A64A0"/>
<path d="M52.2537 19.6368C50.2987 19.3207 40.7652 10.5775 40.7652 10.5775L39.6588 17.9231C39.6588 17.9231 46.3056 19.7033 47.6367 24.5366L52.2453 19.6368H52.2537Z" fill="#014B87"/>
<path d="M52.3369 30.9339H50.7812V35.2681H52.3369V30.9339Z" fill="#711A11"/>
<path d="M49.1341 35.7505C49.1341 35.7505 49.3421 34.8771 49.3421 34.2531C49.3421 33.6292 49.7581 33.1467 50.0575 33.6292C50.357 34.1117 50.6149 34.3696 50.6149 34.3696C50.6149 34.3696 52.4118 33.6542 52.9691 34.0202C53.5265 34.3862 54.5165 36.3329 54.6995 37.4809C54.8825 38.6372 54.6995 40.4091 54.6995 40.692C54.6995 40.9748 54.4915 44.1776 54.2836 44.4521C54.0756 44.7267 53.2187 45.1676 52.5282 45.1925C51.8378 45.2175 50.748 44.893 50.6815 44.6851C50.6149 44.4771 50.8395 43.0213 50.174 42.0563C49.5085 41.083 49.6416 40.2095 49.6 39.4941C49.5501 38.7786 48.9594 36.7571 49.1341 35.7505Z" fill="#F1A882"/>
<path d="M51.3386 13.4641C51.3386 13.4641 50.8228 17.2576 50.0159 18.5054V20.4853C50.0159 20.4853 51.0474 21.1425 50.9476 23.006C50.8478 24.8694 49.9161 25.1855 49.4336 25.1855C48.9511 25.1855 48.3105 24.1623 48.3105 24.1623L45.8897 25.5349L48.0942 27.1737C48.0942 27.1737 48.7514 26.267 49.5584 26.4167C50.3653 26.5664 50.5649 27.2236 50.6315 28.0056C50.7064 28.7876 50.5816 30.9422 50.5816 30.9422H52.4201V27.6895C52.4201 27.6895 52.8859 25.9259 53.6846 26.425C54.4832 26.9242 54.3085 29.1786 53.6846 29.5945L55.2152 32.215C55.2152 32.215 57.8107 30.8507 57.8357 24.728C57.844 21.4004 55.2152 19.6118 55.2152 19.6118L53.41 21.5668C53.41 21.5668 54.3085 22.8895 54.0838 23.9876C53.8676 25.0857 52.0291 25.5016 52.0291 22.981C52.0291 20.4604 53.0274 20.5602 53.0274 20.5602L53.0773 18.3307C53.0773 18.3307 51.6298 16.1678 51.3386 13.4641Z" fill="#91A3BD"/>
<g style="mix-blend-mode:multiply" opacity="0.5">
<path d="M55.2069 19.6035L53.4017 21.5585C53.4017 21.5585 54.3002 22.8812 54.0756 23.9793C53.8593 25.0774 52.0208 25.4933 52.0208 22.9727C52.0208 20.4521 53.0191 20.5519 53.0191 20.5519L53.069 18.3224C53.069 18.3224 52.1206 16.8999 51.6049 14.9283V30.9256H52.4035V27.6729C52.4035 27.6729 52.8693 25.9093 53.6679 26.4084C54.4666 26.9075 54.2919 29.162 53.6679 29.5779L55.1986 32.1984C55.1986 32.1984 57.7941 30.8341 57.8191 24.7114C57.8274 21.3838 55.1986 19.5952 55.1986 19.5952L55.2069 19.6035Z" fill="#91A3BD"/>
</g>
<path d="M40.7487 47.9045C41.1896 47.4803 41.5806 47.0809 41.6721 46.9478C41.8801 46.6483 43.1695 46.6234 43.8849 46.2823C44.6003 45.9329 44.1178 45.8913 44.5754 45.0095C45.0329 44.136 44.5754 43.2293 44.5754 42.5638C44.5754 41.8982 43.7934 41.7818 42.6371 41.3409C41.4807 40.9 41.4807 41.2743 40.1913 41.6404C38.9019 42.0064 36.8887 43.9281 36.0152 45.0844C35.4495 45.8248 35.4662 47.0976 35.5577 47.9128H40.7487V47.9045Z" fill="#F1A882"/>
<path d="M52.1289 45.1759C52.2704 45.1926 52.4118 45.2009 52.5282 45.1925C53.2187 45.1676 54.0756 44.7267 54.2835 44.4522C54.4915 44.1776 54.6995 40.9665 54.6995 40.692C54.6995 40.4175 54.8825 38.6372 54.6995 37.4809C54.5165 36.3246 53.5182 34.3863 52.9691 34.0202C52.9442 34.0036 52.9109 33.987 52.8776 33.9786C52.7113 34.3863 52.5366 34.927 52.5033 35.4345C52.4367 36.4494 51.7879 38.9866 52.1123 39.519C52.4367 40.0514 52.3203 42.4972 52.2537 44.2525C52.2371 44.5936 52.1872 44.9014 52.1289 45.1842V45.1759Z" fill="#D78E69"/>
<path d="M44.5837 45.0095C45.0412 44.136 44.5837 43.2293 44.5837 42.5638C44.5837 41.8983 43.8017 41.7818 42.6454 41.3409C42.0963 41.1329 41.8135 41.108 41.5223 41.1745C41.1812 42.8466 40.7986 45.5336 41.6388 46.9978C41.6554 46.9811 41.6721 46.9645 41.6804 46.9478C41.8883 46.6484 43.1778 46.6234 43.8932 46.2823C44.6086 45.9329 44.1261 45.8913 44.5837 45.0095Z" fill="#D78E69"/>
<path d="M52.3369 39.9516H50.7812V47.9045H52.3369V39.9516Z" fill="#711A11"/>
<path d="M34.4928 19.8531C34.4928 19.8531 34.4595 21.9744 34.3015 22.8396C34.1434 23.7048 34.1434 25.2105 34.3015 26.267C34.4595 27.3235 35.1334 28.9623 35.2914 29.919C35.4495 30.884 36.3479 31.8739 37.2796 31.9738C38.2114 32.0736 40.133 31.5994 41.4807 30.9422C42.8284 30.2767 44.6835 27.3568 44.6835 27.3568C44.6835 27.3568 45.6069 27.2819 45.8731 26.3335C46.1393 25.3852 46.705 24.1873 46.705 24.1873C46.705 24.1873 46.5802 21.4254 43.5937 19.8614C40.6155 18.2891 37.1465 17.6819 34.4845 19.8614L34.4928 19.8531Z" fill="#F1A882"/>
<path d="M36.9302 27.1987C37.055 26.8493 36.689 26.4749 36.481 26.4001C36.273 26.3169 36.2897 26.0756 36.3229 25.7262C36.3562 25.3769 37.1548 23.164 36.6141 21.9744C36.3063 21.3089 35.2914 21.1342 34.4595 21.1176C34.4346 21.7332 34.3846 22.4319 34.3098 22.8479C34.1517 23.7131 34.1517 25.2188 34.3098 26.2753C34.4678 27.3318 35.1417 28.9706 35.2997 29.9273C35.4411 30.7509 36.1233 31.5994 36.897 31.8822C37.5458 30.5762 37.0384 29.2119 36.9635 28.8958C36.872 28.5547 36.8054 27.5481 36.9386 27.1987H36.9302Z" fill="#D78E69"/>
<path d="M41.489 30.9339C40.1413 31.5994 38.2197 32.0653 37.288 31.9655C36.6474 31.8989 36.0152 31.4081 35.6408 30.7842C35.8821 32.7807 41.1396 36.5492 41.1396 36.5492C43.444 34.8854 43.4772 31.2916 43.4772 31.2916L44.6835 27.3651C44.5254 27.6146 42.7784 30.2934 41.489 30.9256V30.9339Z" fill="#D78E69"/>
<path d="M47.1792 23.3387C47.1792 23.3387 46.5386 21.2257 43.5521 19.6534C43.4274 19.5869 43.3442 19.72 43.2194 19.6534C43.1445 20.0611 43.0447 20.5851 43.028 21.1092C43.0031 21.8912 44.1844 22.8396 43.9265 23.5716C43.6769 24.3037 43.5688 24.4119 43.4939 24.4867C43.419 24.5616 43.8183 25.3186 44.409 25.4351C44.7501 25.5016 45.3407 25.9093 46.0062 25.9259C46.2891 25.069 47.1792 23.3387 47.1792 23.3387Z" fill="#572B16"/>
<path d="M34.3015 26.267C34.1434 25.2105 34.1434 23.7048 34.3015 22.8396C34.4096 22.2323 34.4595 21.0094 34.4845 20.3273C33.9021 20.8098 33.0786 21.5668 32.9205 22.1741C32.6709 23.1308 33.1451 23.8628 33.3115 24.2538C33.4779 24.6448 33.794 25.327 33.5361 25.9342C33.2782 26.5415 32.7624 26.7495 33.6193 27.2403C33.8855 27.39 34.2432 27.4899 34.6176 27.5481C34.4761 27.0906 34.3597 26.6413 34.3015 26.2753V26.267Z" fill="#572B16"/>
<path d="M36.4727 26.8576C36.4727 26.8576 37.3961 26.6996 37.8287 27.0822C38.2613 27.4566 39.3344 27.5647 39.4758 27.6978C39.6173 27.8309 40.2412 27.9807 40.3826 27.8642C40.524 27.7477 40.3992 28.2386 39.975 28.2968C39.559 28.355 37.9951 28.1803 37.6873 28.1054C37.3878 28.0306 36.8637 27.9308 36.5642 27.9724C36.2564 28.014 34.5926 27.7977 34.3846 27.4483C34.1767 27.1072 34.5094 27.1737 34.6675 27.2569C34.8256 27.3401 35.1167 26.5249 36.4644 26.8493L36.4727 26.8576Z" fill="#572B16"/>
<path d="M36.3313 30.1519C36.4644 29.9855 37.1299 29.894 37.2214 29.894C37.3129 29.894 37.6207 30.3682 37.9951 30.6344C38.3694 30.8923 38.6356 31.2667 38.6023 31.6161C38.5774 31.9654 37.6956 32.423 37.2214 32.6975C36.7555 32.972 35.9153 33.1717 35.8987 32.5395C35.8821 31.9072 35.4495 30.8091 35.7656 30.6594C36.0817 30.518 36.0817 30.4597 36.3313 30.1519Z" fill="#572B16"/>
<path d="M34.185 20.1526C33.9105 19.9113 34.0852 18.9879 34.7673 18.9131C35.4495 18.8299 35.4828 18.4805 35.7074 18.73C35.932 18.9796 35.8571 18.9546 36.1815 18.6468C36.506 18.339 36.7472 17.9397 36.8221 18.0728C36.9053 18.2059 37.0883 18.3806 37.2214 18.3307C37.3545 18.2808 38.3528 17.79 38.6024 17.5571C38.8519 17.3241 39.0349 17.191 39.168 17.5571C39.3011 17.9231 39.0516 17.6236 40.1497 17.5571C41.2478 17.4905 41.697 17.6985 41.7802 17.9314C41.8634 18.1727 42.7285 17.7983 43.0197 18.2475C43.3109 18.6968 43.5937 19.8531 43.5937 19.8531C43.5937 19.8531 43.9847 21.051 43.0613 20.5602C42.1379 20.0694 43.0946 20.319 42.1712 19.8365C41.2478 19.354 41.8384 18.9297 40.7569 19.3623C39.6672 19.7949 40.1996 19.6618 39.376 19.6285C38.5607 19.5952 38.5608 19.695 38.045 19.6617C37.5292 19.6285 37.5458 19.6534 37.3795 19.8365C37.2131 20.0195 37.288 20.5269 36.6557 20.4687C36.0235 20.4105 36.6557 20.3106 36.0235 20.4104C35.3912 20.5186 35.358 21.234 34.9171 20.7765C34.4762 20.3189 34.1767 20.1442 34.1767 20.1442L34.185 20.1526Z" fill="#572B16"/>
</g>
<defs>
<clipPath id="clip0_3556_1038">
<rect width="65.4895" height="95" fill="white" transform="translate(0.489563 0.545929)"/>
</clipPath>
</defs>
</svg>
