<svg width="66" height="96" viewBox="0 0 66 96" fill="none" xmlns="http://www.w3.org/2000/svg">
<g clip-path="url(#clip0_3556_1570)">
<rect width="65.4895" height="95" transform="translate(0.489563 0.545929)" fill="white"/>
<path d="M4.98944 0.545929L61.4792 0.545929C63.9602 0.545929 65.9791 2.56485 65.9791 5.04582V91.046C65.9791 93.527 63.9602 95.5459 61.4792 95.5459H4.98944C2.50847 95.5459 0.489563 93.527 0.489563 91.046L0.489563 5.04582C0.489563 2.56485 2.50847 0.545929 4.98944 0.545929Z" fill="white"/>
<path d="M28.0114 22.7831C26.7137 22.7831 25.6505 24.0651 24.2902 24.4638C24.7123 22.7518 25.9162 21.9622 25.9162 20.3205C25.9162 19.3433 25.1267 18.5459 24.1417 18.5459C23.1566 18.5459 22.367 19.3433 22.367 20.3205C22.367 21.9622 23.5631 22.7518 23.9931 24.4638C22.6329 24.0651 21.5618 22.7831 20.2641 22.7831C19.2869 22.7831 18.4895 23.5726 18.4895 24.5577C18.4895 25.5427 19.2869 26.3322 20.2641 26.3322C21.5696 26.3322 22.6485 25.0267 24.0322 24.6437C24.0322 24.6515 24.0322 24.6593 24.0322 24.6749C23.954 25.441 23.571 28.5212 21.7964 29.8658C22.4218 29.5844 23.2582 29.4046 24.1729 29.4046C25.0876 29.4046 25.8537 29.5687 26.4713 29.8267C24.7201 28.4664 24.3527 25.3863 24.2745 24.6515C25.6348 25.0423 26.7058 26.3322 28.0035 26.3322C28.9807 26.3322 29.7781 25.5427 29.7781 24.5577C29.7781 23.5726 28.9886 22.7831 28.0035 22.7831H28.0114Z" fill="black"/>
<path d="M28.0114 39.1029C26.7137 39.1029 25.6505 40.385 24.2902 40.7837C24.7123 39.0717 25.9162 38.2821 25.9162 36.6404C25.9162 35.6632 25.1267 34.8658 24.1417 34.8658C23.1566 34.8658 22.367 35.6632 22.367 36.6404C22.367 38.2821 23.5631 39.0717 23.9931 40.7837C22.6329 40.385 21.5618 39.1029 20.2641 39.1029C19.2869 39.1029 18.4895 39.8925 18.4895 40.8775C18.4895 41.8625 19.2869 42.6521 20.2641 42.6521C21.5696 42.6521 22.6485 41.3466 24.0322 40.9635C24.0322 40.9713 24.0322 40.9791 24.0322 40.9869C23.954 41.7531 23.571 44.8332 21.7964 46.1778C22.4218 45.8964 23.2582 45.7166 24.1729 45.7166C25.0876 45.7166 25.8537 45.873 26.4713 46.1388C24.7201 44.7785 24.3527 41.6983 24.2745 40.9635C25.6348 41.3544 26.7058 42.6443 28.0035 42.6443C28.9807 42.6443 29.7781 41.8547 29.7781 40.8697C29.7781 39.8847 28.9886 39.0951 28.0035 39.0951L28.0114 39.1029Z" fill="black"/>
<path d="M20.2562 58.2528C21.5539 58.2528 22.6171 56.9707 23.9774 56.572C23.5552 58.2841 22.3514 59.0736 22.3514 60.7153C22.3514 61.6925 23.1409 62.4899 24.1259 62.4899C25.1109 62.4899 25.9005 61.6925 25.9005 60.7153C25.9005 59.0737 24.7044 58.2841 24.2745 56.572C25.6347 56.9707 26.7057 58.2528 28.0035 58.2528C28.9807 58.2528 29.7781 57.4632 29.7781 56.4782C29.7781 55.4932 28.9807 54.7036 28.0035 54.7036C26.6979 54.7036 25.6191 56.0092 24.2354 56.3922C24.2354 56.3844 24.2354 56.3766 24.2354 56.3688C24.3136 55.6026 24.6966 52.5225 26.4712 51.1779C25.8458 51.4593 25.0093 51.6391 24.0947 51.6391C23.18 51.6391 22.4139 51.4827 21.7963 51.217C23.5474 52.5772 23.9149 55.6574 23.993 56.3922C22.6328 56.0013 21.5618 54.7114 20.264 54.7114C19.2868 54.7114 18.4895 55.501 18.4895 56.486C18.4895 57.471 19.279 58.2606 20.264 58.2606L20.2562 58.2528Z" fill="black"/>
<path d="M28.0114 74.5727C26.7137 74.5727 25.6505 73.2906 24.2902 72.8919C24.7123 74.6039 25.9162 75.3935 25.9162 77.0352C25.9162 78.0124 25.1267 78.8098 24.1417 78.8098C23.1566 78.8098 22.367 78.0124 22.367 77.0352C22.367 75.4013 23.5631 74.6039 23.9931 72.8919C22.6329 73.2906 21.5618 74.5727 20.2641 74.5727C19.2869 74.5727 18.4895 73.7831 18.4895 72.7981C18.4895 71.8131 19.2869 71.0235 20.2641 71.0235C21.5696 71.0235 22.6485 72.329 24.0322 72.7121C24.0322 72.7043 24.0322 72.6965 24.0322 72.6808C23.954 71.9147 23.571 68.8346 21.7964 67.4899C22.4218 67.7714 23.2582 67.9434 24.1729 67.9434C25.0876 67.9434 25.8537 67.787 26.4713 67.5212C24.7201 68.8815 24.3527 71.9616 24.2745 72.6964C25.6348 72.3056 26.7058 71.0157 28.0035 71.0157C28.9807 71.0157 29.7781 71.8052 29.7781 72.7903C29.7781 73.7753 28.9886 74.5649 28.0035 74.5649L28.0114 74.5727Z" fill="black"/>
<path d="M38.0114 46.7831C36.7137 46.7831 35.6505 48.0652 34.2902 48.4639C34.7123 46.7518 35.9162 45.9622 35.9162 44.3205C35.9162 43.3433 35.1267 42.5459 34.1417 42.5459C33.1566 42.5459 32.367 43.3433 32.367 44.3205C32.367 45.9622 33.5631 46.7518 33.9931 48.4639C32.6329 48.0652 31.5618 46.7831 30.2641 46.7831C29.2869 46.7831 28.4895 47.5726 28.4895 48.5577C28.4895 49.5427 29.2869 50.3322 30.2641 50.3322C31.5696 50.3322 32.6485 49.0267 34.0322 48.6436C34.0322 48.6515 34.0322 48.6593 34.0322 48.6671C33.954 49.4332 33.571 52.5134 31.7964 53.858C32.4218 53.5766 33.2582 53.3967 34.1729 53.3967C35.0876 53.3967 35.8537 53.5531 36.4713 53.8189C34.7201 52.4586 34.3527 49.3785 34.2745 48.6436C35.6348 49.0345 36.7058 50.3244 38.0035 50.3244C38.9807 50.3244 39.7781 49.5348 39.7781 48.5498C39.7781 47.5648 38.9886 46.7752 38.0035 46.7752L38.0114 46.7831Z" fill="black"/>
<path d="M53.1948 64.4335C54.4486 64.4335 55.4851 63.1797 56.8224 62.7952C56.4045 64.4669 55.251 65.2359 55.251 66.824C55.251 67.7769 56.0201 68.5459 56.9729 68.5459C57.9258 68.5459 58.6948 67.7769 58.6948 66.824C58.6948 65.2359 57.5246 64.4669 57.1233 62.7952C58.444 63.1797 59.4805 64.4335 60.751 64.4335C61.7039 64.4335 62.4729 63.6645 62.4729 62.7116C62.4729 61.7587 61.7039 60.9897 60.751 60.9897C59.4805 60.9897 58.4273 62.2602 57.0899 62.628C57.0899 62.628 57.0899 62.6113 57.0899 62.5946C57.1567 61.8423 57.5413 58.8499 59.2632 57.5459C58.6447 57.8301 57.8422 57.9973 56.9562 57.9973C56.0702 57.9973 55.3179 57.8468 54.716 57.5794C56.4212 58.9 56.7723 61.8924 56.8392 62.6113C55.5185 62.2268 54.4821 60.973 53.2115 60.973C52.2587 60.973 51.4896 61.742 51.4896 62.6949C51.4896 63.6478 52.2587 64.4167 53.2115 64.4167L53.1948 64.4335Z" fill="black"/>
<path d="M13.561 31.6584C12.3072 31.6584 11.2707 32.9122 9.93336 33.2967C10.3513 31.625 11.5048 30.856 11.5048 29.2678C11.5048 28.3149 10.7357 27.5459 9.78286 27.5459C8.82997 27.5459 8.06103 28.3149 8.06103 29.2678C8.06103 30.856 9.23125 31.625 9.63246 33.2967C8.31179 32.9122 7.27535 31.6584 6.00483 31.6584C5.05194 31.6584 4.2829 32.4274 4.2829 33.3803C4.2829 34.3332 5.05194 35.1022 6.00483 35.1022C7.27535 35.1022 8.32854 33.8317 9.66593 33.4639C9.66593 33.4639 9.66593 33.4806 9.66593 33.4973C9.59906 34.2496 9.21448 37.242 7.49259 38.5459C8.11114 38.2617 8.91358 38.0946 9.79959 38.0946C10.6856 38.0946 11.4379 38.245 12.0398 38.5125C10.3346 37.1918 9.9835 34.1994 9.91663 33.4806C11.2373 33.8651 12.2737 35.1189 13.5443 35.1189C14.4971 35.1189 15.2662 34.3499 15.2662 33.397C15.2662 32.4441 14.4971 31.6751 13.5443 31.6751L13.561 31.6584Z" fill="black"/>
<path d="M48.0191 74.2606C46.7214 74.2606 45.6582 72.9785 44.2901 72.5798C44.7123 74.2919 45.9162 75.0815 45.9162 76.7232C45.9162 77.7004 45.1266 78.4978 44.1416 78.4978C43.1566 78.4978 42.367 77.7004 42.367 76.7232C42.367 75.0893 43.5631 74.2919 43.9931 72.5798C42.6328 72.9785 41.5618 74.2606 40.2641 74.2606C39.2869 74.2606 38.4895 73.4711 38.4895 72.486C38.4895 71.501 39.2791 70.7115 40.2641 70.7115C41.5696 70.7115 42.6485 72.017 44.0322 72.4001C44.0322 72.3922 44.0322 72.3844 44.0322 72.3688C43.954 71.6027 43.5709 68.5225 41.7963 67.1779C42.4217 67.4593 43.2582 67.6313 44.1729 67.6313C45.0876 67.6313 45.8537 67.475 46.4713 67.2092C44.7201 68.5694 44.3527 71.6496 44.2824 72.3844C45.6426 71.9935 46.7136 70.7036 48.0113 70.7036C48.9885 70.7036 49.7859 71.4932 49.7859 72.4782C49.7859 73.4632 48.9963 74.2528 48.0113 74.2528L48.0191 74.2606Z" fill="black"/>
<path d="M48.0114 22.7831C46.7137 22.7831 45.6505 24.0651 44.2902 24.4638C44.7123 22.7518 45.9162 21.9622 45.9162 20.3205C45.9162 19.3433 45.1267 18.5459 44.1417 18.5459C43.1566 18.5459 42.367 19.3433 42.367 20.3205C42.367 21.9622 43.5631 22.7518 43.9931 24.4638C42.6329 24.0651 41.5618 22.7831 40.2641 22.7831C39.2869 22.7831 38.4895 23.5726 38.4895 24.5577C38.4895 25.5427 39.2869 26.3322 40.2641 26.3322C41.5696 26.3322 42.6485 25.0267 44.0322 24.6437C44.0322 24.6515 44.0322 24.6593 44.0322 24.6749C43.954 25.441 43.571 28.5212 41.7964 29.8658C42.4218 29.5844 43.2582 29.4046 44.1729 29.4046C45.0876 29.4046 45.8537 29.5687 46.4713 29.8267C44.7201 28.4664 44.3527 25.3863 44.2745 24.6515C45.6348 25.0423 46.7058 26.3322 48.0035 26.3322C48.9807 26.3322 49.7781 25.5427 49.7781 24.5577C49.7781 23.5726 48.9886 22.7831 48.0035 22.7831H48.0114Z" fill="black"/>
<path d="M48.0114 39.1029C46.7137 39.1029 45.6505 40.385 44.2902 40.7837C44.7123 39.0717 45.9162 38.2821 45.9162 36.6404C45.9162 35.6632 45.1267 34.8658 44.1417 34.8658C43.1566 34.8658 42.367 35.6632 42.367 36.6404C42.367 38.2821 43.5631 39.0717 43.9931 40.7837C42.6329 40.385 41.5618 39.1029 40.2641 39.1029C39.2869 39.1029 38.4895 39.8925 38.4895 40.8775C38.4895 41.8625 39.2869 42.6521 40.2641 42.6521C41.5696 42.6521 42.6485 41.3466 44.0322 40.9635C44.0322 40.9713 44.0322 40.9791 44.0322 40.9869C43.954 41.7531 43.571 44.8332 41.7964 46.1778C42.4218 45.8964 43.2582 45.7166 44.1729 45.7166C45.0876 45.7166 45.8537 45.873 46.4713 46.1388C44.7201 44.7785 44.3527 41.6983 44.2745 40.9635C45.6348 41.3544 46.7058 42.6443 48.0035 42.6443C48.9807 42.6443 49.7781 41.8547 49.7781 40.8697C49.7781 39.8847 48.9886 39.0951 48.0035 39.0951L48.0114 39.1029Z" fill="black"/>
<path d="M40.2562 58.2528C41.5539 58.2528 42.6171 56.9707 43.9774 56.572C43.5552 58.2841 42.3514 59.0736 42.3514 60.7153C42.3514 61.6925 43.1409 62.4899 44.1259 62.4899C45.1109 62.4899 45.9005 61.6925 45.9005 60.7153C45.9005 59.0737 44.7044 58.2841 44.2745 56.572C45.6347 56.9707 46.7057 58.2528 48.0035 58.2528C48.9807 58.2528 49.7781 57.4632 49.7781 56.4782C49.7781 55.4932 48.9807 54.7036 48.0035 54.7036C46.6979 54.7036 45.6191 56.0092 44.2354 56.3922C44.2354 56.3844 44.2354 56.3766 44.2354 56.3688C44.3136 55.6026 44.6966 52.5225 46.4712 51.1779C45.8458 51.4593 45.0093 51.6391 44.0947 51.6391C43.18 51.6391 42.4139 51.4827 41.7963 51.217C43.5474 52.5772 43.9149 55.6574 43.993 56.3922C42.6328 56.0013 41.5618 54.7114 40.264 54.7114C39.2868 54.7114 38.4895 55.501 38.4895 56.486C38.4895 57.471 39.279 58.2606 40.264 58.2606L40.2562 58.2528Z" fill="black"/>
<path d="M9.9882 15.9992C9.58223 16.2892 9.11832 16.4632 8.50935 16.4632C7.90039 16.4632 7.37842 16.3762 6.97244 16.1732C6.56647 15.9702 6.24741 15.7092 5.98642 15.3613C5.75444 15.0133 5.58047 14.6363 5.46448 14.1723C5.34848 13.7084 5.31952 13.2444 5.31952 12.7514V8.63365C5.31952 8.02468 5.43547 7.47372 5.63846 6.98074C5.87044 6.51677 6.16048 6.11079 6.50846 5.79181C6.88544 5.47283 7.29142 5.24085 7.78439 5.06686C8.24837 4.89287 8.7703 4.83487 9.29227 4.83487C10.5682 4.83487 11.5252 5.15385 12.2211 5.79181C12.9171 6.42978 13.265 7.38672 13.265 8.63365V11.9105C13.265 12.7514 13.207 13.4764 13.091 14.0273C12.9751 14.5783 12.8301 15.1003 12.6561 15.5352L9.00227 24.7277H6.74041L10.0172 16.1152L9.93024 16.0282L9.9882 15.9992ZM7.55236 12.8674C7.55236 13.3604 7.72639 13.7374 8.04537 14.0273C8.36435 14.3173 8.7703 14.4623 9.29227 14.4623C9.64025 14.4623 9.90126 14.4043 10.1332 14.2593C10.3652 14.1143 10.5392 13.9693 10.6842 13.7663C10.8292 13.5634 10.9161 13.3314 10.9741 13.0994C11.0321 12.8384 11.0611 12.6064 11.0611 12.3454V8.43066C11.0611 7.93769 10.8872 7.56071 10.5682 7.27073C10.2492 7.00974 9.81427 6.86475 9.3213 6.86475C8.82833 6.86475 8.39329 7.00974 8.07431 7.27073C7.75532 7.56071 7.58138 7.93769 7.58138 8.43066V12.8384L7.55236 12.8674Z" fill="black"/>
<path d="M56.1163 80.0923C56.5223 79.8023 56.9862 79.6283 57.5952 79.6283C58.2042 79.6283 58.7261 79.7153 59.1321 79.9183C59.5381 80.1213 59.8571 80.3823 60.1181 80.7302C60.3501 81.0782 60.5241 81.4552 60.6401 81.9192C60.7561 82.3831 60.785 82.8471 60.785 83.3401L60.785 87.4578C60.785 88.0668 60.6691 88.6178 60.4661 89.1107C60.2341 89.5747 59.9441 89.9807 59.5961 90.2997C59.2191 90.6187 58.8131 90.8506 58.3202 91.0246C57.8562 91.1986 57.3342 91.2566 56.8123 91.2566C55.5364 91.2566 54.5794 90.9376 53.8834 90.2997C53.1875 89.6617 52.8395 88.7048 52.8395 87.4578L52.8395 84.181C52.8395 83.3401 52.8975 82.6151 53.0135 82.0642C53.1295 81.5132 53.2745 80.9912 53.4485 80.5562L57.1023 71.3638L59.3641 71.3638L56.0873 79.9763L56.1743 80.0633L56.1163 80.0923ZM58.5522 83.2241C58.5522 82.7311 58.3782 82.3541 58.0592 82.0642C57.7402 81.7742 57.3343 81.6292 56.8123 81.6292C56.4643 81.6292 56.2033 81.6872 55.9713 81.8322C55.7393 81.9772 55.5653 82.1222 55.4203 82.3251C55.2753 82.5281 55.1884 82.7601 55.1304 82.9921C55.0724 83.2531 55.0434 83.4851 55.0434 83.7461L55.0434 87.6608C55.0434 88.1538 55.2174 88.5308 55.5363 88.8208C55.8553 89.0817 56.2903 89.2267 56.7833 89.2267C57.2762 89.2267 57.7113 89.0817 58.0302 88.8208C58.3492 88.5308 58.5232 88.1538 58.5232 87.6608L58.5232 83.2531L58.5522 83.2241Z" fill="black"/>
</g>
<defs>
<clipPath id="clip0_3556_1570">
<rect width="65.4895" height="95" fill="white" transform="translate(0.489563 0.545929)"/>
</clipPath>
</defs>
</svg>
