<svg width="66" height="96" viewBox="0 0 66 96" fill="none" xmlns="http://www.w3.org/2000/svg">
<g clip-path="url(#clip0_3556_1541)">
<rect width="65.4895" height="95" transform="translate(0.489624 0.545929)" fill="white"/>
<path d="M4.9895 0.545929L61.4793 0.545929C63.9602 0.545929 65.9792 2.56485 65.9792 5.04582V91.046C65.9792 93.527 63.9602 95.5459 61.4793 95.5459H4.9895C2.50853 95.5459 0.489624 93.527 0.489624 91.046L0.489624 5.04582C0.489624 2.56485 2.50853 0.545929 4.9895 0.545929Z" fill="white"/>
<path d="M4.09668 33.0459C6.72116 33.9208 8.77513 35.9747 9.59671 38.5459C10.4107 35.9747 12.4722 33.9284 15.0967 33.0459C12.4722 32.1711 10.4183 30.1172 9.59671 27.5459C8.77513 30.1172 6.72116 32.1635 4.09668 33.0459Z" fill="#CB0D07"/>
<path d="M51.4896 63.0459C54.1141 63.9208 56.1681 65.9747 56.9897 68.5459C57.8036 65.9747 59.8652 63.9284 62.4896 63.0459C59.8652 62.1711 57.8112 60.1172 56.9897 57.5459C56.1681 60.1172 54.1141 62.1635 51.4896 63.0459Z" fill="#CB0D07"/>
<path d="M18.4896 23.8494C21.0203 24.693 23.0009 26.6736 23.7932 29.1529C24.578 26.6736 26.5659 24.7003 29.0966 23.8494C26.5659 23.0059 24.5854 21.0253 23.7932 18.5459C23.0009 21.0253 21.0203 22.9985 18.4896 23.8494Z" fill="#CB0D07"/>
<path d="M37.0967 23.8494C39.6274 24.693 41.6079 26.6736 42.4002 29.1529C43.1851 26.6736 45.173 24.7003 47.7037 23.8494C45.173 23.0059 43.1924 21.0253 42.4002 18.5459C41.6079 21.0253 39.6274 22.9985 37.0967 23.8494Z" fill="#CB0D07"/>
<path d="M18.4896 48.4564C21.0203 49.3 23.0009 51.2806 23.7932 53.7599C24.578 51.2806 26.5659 49.3073 29.0966 48.4564C26.5659 47.6128 24.5854 45.6323 23.7932 43.1529C23.0009 45.6323 21.0203 47.6055 18.4896 48.4564Z" fill="#CB0D07"/>
<path d="M27.4896 35.8494C30.0203 36.693 32.0009 38.6736 32.7932 41.1529C33.578 38.6736 35.5659 36.7003 38.0966 35.8494C35.5659 35.0059 33.5854 33.0253 32.7932 30.5459C32.0009 33.0253 30.0203 34.9985 27.4896 35.8494Z" fill="#CB0D07"/>
<path d="M37.0967 48.4564C39.6274 49.3 41.6079 51.2806 42.4002 53.7599C43.1851 51.2806 45.173 49.3073 47.7037 48.4564C45.173 47.6128 43.1924 45.6323 42.4002 43.1529C41.6079 45.6323 39.6274 47.6055 37.0967 48.4564Z" fill="#CB0D07"/>
<path d="M18.4896 73.0634C21.0203 73.907 23.0009 75.8875 23.7932 78.3669C24.578 75.8875 26.5659 73.9143 29.0966 73.0634C26.5659 72.2198 24.5854 70.2393 23.7932 67.7599C23.0009 70.2393 21.0203 72.2125 18.4896 73.0634Z" fill="#CB0D07"/>
<path d="M37.0967 73.0634C39.6274 73.907 41.6079 75.8875 42.4002 78.3669C43.1851 75.8875 45.173 73.9143 47.7037 73.0634C45.173 72.2198 43.1924 70.2393 42.4002 67.7599C41.6079 70.2393 39.6274 72.2125 37.0967 73.0634Z" fill="#CB0D07"/>
<path d="M8.8646 24.5458H6.48605L11.9825 6.58121H7.64315V8.97059H5.48962V4.54581H14.4896V6.40421L8.89677 24.5458H8.8646Z" fill="#CB0D07"/>
<path d="M57.1147 71.5458L59.4932 71.5458L53.9968 89.5104L58.3361 89.5104L58.3361 87.121L60.4896 87.121L60.4896 91.5458L51.4896 91.5458L51.4896 89.6874L57.0825 71.5458L57.1147 71.5458Z" fill="#CB0D07"/>
</g>
<defs>
<clipPath id="clip0_3556_1541">
<rect width="65.4895" height="95" fill="white" transform="translate(0.489624 0.545929)"/>
</clipPath>
</defs>
</svg>
