<svg width="66" height="96" viewBox="0 0 66 96" fill="none" xmlns="http://www.w3.org/2000/svg">
<g clip-path="url(#clip0_3556_1866)">
<rect width="65.4895" height="95" transform="translate(0.489624 0.545929)" fill="white"/>
<path d="M4.9895 0.545929L61.4793 0.545929C63.9602 0.545929 65.9792 2.56485 65.9792 5.04582V91.046C65.9792 93.527 63.9602 95.5459 61.4793 95.5459H4.9895C2.50853 95.5459 0.489624 93.527 0.489624 91.046L0.489624 5.04582C0.489624 2.56485 2.50853 0.545929 4.9895 0.545929Z" fill="white"/>
<path d="M4.09668 33.0459C6.72116 33.9208 8.77513 35.9747 9.59671 38.5459C10.4107 35.9747 12.4722 33.9284 15.0967 33.0459C12.4722 32.1711 10.4183 30.1172 9.59671 27.5459C8.77513 30.1172 6.72116 32.1635 4.09668 33.0459Z" fill="#CB0D07"/>
<path d="M51.4896 63.0459C54.1141 63.9208 56.1681 65.9747 56.9897 68.5459C57.8036 65.9747 59.8652 63.9284 62.4896 63.0459C59.8652 62.1711 57.8112 60.1172 56.9897 57.5459C56.1681 60.1172 54.1141 62.1635 51.4896 63.0459Z" fill="#CB0D07"/>
<path d="M27.4896 23.8494C30.0203 24.693 32.0009 26.6736 32.7932 29.1529C33.578 26.6736 35.5659 24.7003 38.0966 23.8494C35.5659 23.0059 33.5854 21.0253 32.7932 18.5459C32.0009 21.0253 30.0203 22.9985 27.4896 23.8494Z" fill="#CB0D07"/>
<path d="M27.4896 73.0634C30.0203 73.907 32.0009 75.8875 32.7932 78.3669C33.578 75.8875 35.5659 73.9143 38.0966 73.0634C35.5659 72.2198 33.5854 70.2393 32.7932 67.7599C32.0009 70.2393 30.0203 72.2125 27.4896 73.0634Z" fill="#CB0D07"/>
<path d="M9.84077 6.70964C9.19749 6.70964 8.72965 7.00204 8.46649 7.52835C8.20334 8.05467 8.05714 8.84414 8.05714 9.89677V10.0722L5.80566 9.66289V9.54591C5.80566 8.78567 5.89339 8.11312 6.03959 7.49909C6.18579 6.88505 6.4197 6.35871 6.77058 5.92011C7.09222 5.48152 7.53082 5.13071 8.05714 4.89679C8.58346 4.66287 9.19749 4.54593 9.92848 4.54593C10.6595 4.54593 11.3028 4.66285 11.7998 4.86752C12.3261 5.0722 12.7355 5.36456 13.0572 5.74468C13.3788 6.1248 13.6127 6.59264 13.7589 7.11895C13.9051 7.67451 13.9636 8.25938 13.9636 8.9319C13.9636 10.5108 13.6127 12.0313 12.8817 13.4933L8.43727 22.4698H13.8174V24.5459H5.86416V22.5868L11.0103 12.2945C11.2735 11.7681 11.449 11.2418 11.5075 10.657C11.5659 10.1015 11.5952 9.51663 11.5952 8.96108C11.5952 8.69792 11.5952 8.43476 11.5367 8.14236C11.5074 7.84997 11.4197 7.61605 11.3028 7.41137C11.1858 7.20669 11.0104 7.00203 10.7765 6.88508C10.5425 6.73888 10.2209 6.68038 9.81154 6.68038L9.84077 6.70964Z" fill="#CB0D07"/>
<path d="M56.6124 89.3822C57.2556 89.3822 57.7235 89.0898 57.9866 88.5635C58.2498 88.0372 58.396 87.2477 58.396 86.1951L58.396 86.0197L60.6475 86.429L60.6475 86.546C60.6475 87.3062 60.5597 87.9787 60.4135 88.5928C60.2673 89.2068 60.0334 89.7331 59.6825 90.1717C59.3609 90.6103 58.9223 90.9611 58.396 91.1951C57.8697 91.429 57.2556 91.5459 56.5246 91.5459C55.7936 91.5459 55.1504 91.429 54.6533 91.2243C54.127 91.0197 53.7176 90.7273 53.396 90.3472C53.0743 89.9671 52.8404 89.4992 52.6942 88.9729C52.548 88.4173 52.4895 87.8325 52.4895 87.16C52.4895 85.581 52.8404 84.0606 53.5714 82.5986L58.0159 73.622L52.6357 73.622L52.6357 71.5459L60.589 71.5459L60.589 73.505L55.4428 83.7974C55.1796 84.3237 55.0041 84.85 54.9457 85.4348C54.8872 85.9904 54.858 86.5752 54.858 87.1308C54.858 87.3939 54.858 87.6571 54.9164 87.9495C54.9457 88.2419 55.0334 88.4758 55.1504 88.6805C55.2673 88.8852 55.4427 89.0898 55.6767 89.2068C55.9106 89.353 56.2322 89.4115 56.6416 89.4115L56.6124 89.3822Z" fill="#CB0D07"/>
</g>
<defs>
<clipPath id="clip0_3556_1866">
<rect width="65.4895" height="95" fill="white" transform="translate(0.489624 0.545929)"/>
</clipPath>
</defs>
</svg>
