<svg width="66" height="96" viewBox="0 0 66 96" fill="none" xmlns="http://www.w3.org/2000/svg">
<g clip-path="url(#clip0_3556_1823)">
<rect width="65.4895" height="95" transform="translate(0.489624 0.545929)" fill="white"/>
<path d="M4.9895 0.545929L61.4793 0.545929C63.9602 0.545929 65.9792 2.56485 65.9792 5.04582V91.046C65.9792 93.527 63.9602 95.5459 61.4793 95.5459H4.9895C2.50853 95.5459 0.489624 93.527 0.489624 91.046L0.489624 5.04582C0.489624 2.56485 2.50853 0.545929 4.9895 0.545929Z" fill="white"/>
<path d="M4.09668 33.0459C6.72116 33.9208 8.77513 35.9747 9.59671 38.5459C10.4107 35.9747 12.4722 33.9284 15.0967 33.0459C12.4722 32.1711 10.4183 30.1172 9.59671 27.5459C8.77513 30.1172 6.72116 32.1635 4.09668 33.0459Z" fill="#CB0D07"/>
<path d="M51.4896 63.0459C54.1141 63.9208 56.1681 65.9747 56.9897 68.5459C57.8036 65.9747 59.8652 63.9284 62.4896 63.0459C59.8652 62.1711 57.8112 60.1172 56.9897 57.5459C56.1681 60.1172 54.1141 62.1635 51.4896 63.0459Z" fill="#CB0D07"/>
<path d="M27.4896 23.8494C30.0203 24.693 32.0009 26.6736 32.7932 29.1529C33.578 26.6736 35.5659 24.7003 38.0966 23.8494C35.5659 23.0059 33.5854 21.0253 32.7932 18.5459C32.0009 21.0253 30.0203 22.9985 27.4896 23.8494Z" fill="#CB0D07"/>
<path d="M27.4896 48.4564C30.0203 49.3 32.0009 51.2806 32.7931 53.7599C33.578 51.2806 35.5659 49.3073 38.0966 48.4564C35.5659 47.6128 33.5853 45.6323 32.7931 43.1529C32.0009 45.6323 30.0203 47.6055 27.4896 48.4564Z" fill="#CB0D07"/>
<path d="M27.4896 73.0634C30.0203 73.907 32.0009 75.8875 32.7932 78.3669C33.578 75.8875 35.5659 73.9143 38.0966 73.0634C35.5659 72.2198 33.5854 70.2393 32.7932 67.7599C32.0009 70.2393 30.0203 72.2125 27.4896 73.0634Z" fill="#CB0D07"/>
<path d="M13.8651 20.3263C13.8651 21.0777 13.7495 21.7136 13.5183 22.2627C13.2871 22.8118 12.9981 23.2454 12.6223 23.5633C12.2466 23.9101 11.842 24.1413 11.3507 24.3147C10.8593 24.4881 10.368 24.5459 9.81887 24.5459C9.03852 24.5459 8.40269 24.4303 7.88246 24.1991C7.36222 23.9679 6.95758 23.65 6.63966 23.2743C6.32174 22.8696 6.11947 22.4072 6.00386 21.8581C5.88825 21.3089 5.85933 20.702 5.88823 20.0084L8.11367 19.6904C8.02697 20.5286 8.11366 21.2222 8.37378 21.7136C8.63389 22.2338 9.12521 22.465 9.84775 22.465C10.3391 22.465 10.7437 22.3205 11.0905 22.0026C11.4374 21.6847 11.6108 21.1644 11.6108 20.3841V17.4361C11.6108 16.6558 11.4663 16.0777 11.1484 15.7309C10.8304 15.3841 10.3102 15.2107 9.61658 15.2107H8.74952V13.2743H9.67435C10.368 13.2743 10.8593 13.1008 11.1773 12.7829C11.4663 12.465 11.6397 11.9159 11.6397 11.1644V8.64998C11.6397 8.41876 11.6397 8.15865 11.553 7.92743C11.4952 7.69622 11.4374 7.465 11.3218 7.29159C11.2062 7.11818 11.0617 6.94477 10.8304 6.82917C10.6281 6.71356 10.3391 6.65576 10.0212 6.65576C9.35646 6.65576 8.86513 6.91587 8.57611 7.4072C8.25819 7.89853 8.11367 8.56327 8.11367 9.40142L5.88823 9.0835C5.88823 8.44766 6.00384 7.84073 6.20615 7.29159C6.40846 6.74246 6.66857 6.25113 7.01539 5.84651C7.36222 5.44188 7.79573 5.12396 8.31596 4.89275C8.83619 4.66154 9.47203 4.54593 10.1657 4.54593C10.8593 4.54593 11.4374 4.66154 11.8998 4.86385C12.3622 5.06616 12.7379 5.38408 13.027 5.7309C13.316 6.10662 13.5183 6.51125 13.6339 7.00258C13.7495 7.49391 13.8073 7.98524 13.8073 8.53437V10.5286C13.8073 10.9043 13.8073 11.2511 13.7784 11.6269C13.7495 11.9737 13.6917 12.2916 13.5761 12.6095C13.4605 12.8985 13.316 13.1875 13.0848 13.4477C12.8536 13.7078 12.5645 13.939 12.1599 14.1413V14.228C12.5356 14.4014 12.8246 14.6037 13.0558 14.806C13.2582 15.0373 13.4316 15.2685 13.5472 15.5575C13.6628 15.8465 13.7206 16.1644 13.7495 16.5402C13.7495 16.9159 13.7784 17.3205 13.7784 17.754V20.2974L13.8651 20.3263Z" fill="#CB0D07"/>
<path d="M52.4896 75.7656C52.4896 75.0141 52.6052 74.3783 52.8365 73.8292C53.0677 73.28 53.3567 72.8465 53.7324 72.5286C54.1081 72.1818 54.5128 71.9506 55.0041 71.7771C55.4954 71.6037 55.9867 71.5459 56.5359 71.5459C57.3162 71.5459 57.9521 71.6615 58.4723 71.8927C58.9925 72.124 59.3972 72.4419 59.7151 72.8176C60.033 73.2222 60.2353 73.6847 60.3509 74.2338C60.4665 74.7829 60.4954 75.3899 60.4665 76.0835L58.2411 76.4014C58.3278 75.5633 58.2411 74.8696 57.981 74.3783C57.7208 73.8581 57.2295 73.6269 56.507 73.6269C56.0157 73.6269 55.611 73.7714 55.2642 74.0893C54.9174 74.4072 54.744 74.9274 54.744 75.7078L54.744 78.6558C54.744 79.4361 54.8885 80.0141 55.2064 80.361C55.5243 80.7078 56.0445 80.8812 56.7382 80.8812L57.6052 80.8812L57.6052 82.8176L56.6804 82.8176C55.9867 82.8176 55.4954 82.991 55.1775 83.3089C54.8885 83.6269 54.715 84.176 54.715 84.9274L54.715 87.4419C54.715 87.6731 54.715 87.9332 54.8017 88.1644C54.8596 88.3956 54.9174 88.6269 55.033 88.8003C55.1486 88.9737 55.2931 89.1471 55.5243 89.2627C55.7266 89.3783 56.0156 89.4361 56.3335 89.4361C56.9983 89.4361 57.4896 89.176 57.7786 88.6847C58.0965 88.1933 58.2411 87.5286 58.2411 86.6904L60.4665 87.0084C60.4665 87.6442 60.3509 88.2511 60.1486 88.8003C59.9463 89.3494 59.6862 89.8407 59.3393 90.2453C58.9925 90.65 58.559 90.9679 58.0388 91.1991C57.5185 91.4303 56.8827 91.5459 56.1891 91.5459C55.4954 91.5459 54.9174 91.4303 54.4549 91.228C53.9925 91.0257 53.6168 90.7078 53.3278 90.361C53.0388 89.9852 52.8364 89.5806 52.7208 89.0893C52.6052 88.598 52.5474 88.1066 52.5474 87.5575L52.5474 85.5633C52.5474 85.1875 52.5474 84.8407 52.5763 84.465C52.6052 84.1182 52.663 83.8003 52.7786 83.4823C52.8942 83.1933 53.0387 82.9043 53.27 82.6442C53.5012 82.3841 53.7902 82.1529 54.1948 81.9506L54.1948 81.8638C53.8191 81.6904 53.5301 81.4881 53.2989 81.2858C53.0966 81.0546 52.9232 80.8234 52.8076 80.5344C52.692 80.2453 52.6341 79.9274 52.6052 79.5517C52.6052 79.176 52.5763 78.7714 52.5763 78.3378L52.5763 75.7945L52.4896 75.7656Z" fill="#CB0D07"/>
</g>
<defs>
<clipPath id="clip0_3556_1823">
<rect width="65.4895" height="95" fill="white" transform="translate(0.489624 0.545929)"/>
</clipPath>
</defs>
</svg>
