<svg width="66" height="96" viewBox="0 0 66 96" fill="none" xmlns="http://www.w3.org/2000/svg">
<g clip-path="url(#clip0_3556_1480)">
<rect width="65.4895" height="95" transform="translate(0.489563 0.545929)" fill="white"/>
<path d="M4.98944 0.545929L61.4792 0.545929C63.9602 0.545929 65.9791 2.56485 65.9791 5.04582V91.046C65.9791 93.527 63.9602 95.5459 61.4792 95.5459H4.98944C2.50847 95.5459 0.489563 93.527 0.489563 91.046L0.489563 5.04582C0.489563 2.56485 2.50847 0.545929 4.98944 0.545929Z" fill="white"/>
<path d="M4.09656 33.0459C6.72104 33.9208 8.77501 35.9747 9.59659 38.5459C10.4106 35.9747 12.4721 33.9284 15.0966 33.0459C12.4721 32.1711 10.4182 30.1172 9.59659 27.5459C8.77501 30.1172 6.72104 32.1635 4.09656 33.0459Z" fill="#CB0D07"/>
<path d="M51.4896 63.0459C54.114 63.9208 56.168 65.9747 56.9896 68.5459C57.8036 65.9747 59.8651 63.9284 62.4896 63.0459C59.8651 62.1711 57.8112 60.1172 56.9896 57.5459C56.168 60.1172 54.114 62.1635 51.4896 63.0459Z" fill="#CB0D07"/>
<path d="M27.4896 64.8494C30.0203 65.693 32.0009 67.6736 32.7931 70.1529C33.578 67.6736 35.5659 65.7003 38.0966 64.8494C35.5659 64.0059 33.5853 62.0253 32.7931 59.5459C32.0009 62.0253 30.0203 63.9985 27.4896 64.8494Z" fill="#CB0D07"/>
<path d="M27.4896 31.8494C30.0203 32.693 32.0009 34.6736 32.7931 37.1529C33.578 34.6736 35.5659 32.7003 38.0966 31.8494C35.5659 31.0059 33.5853 29.0253 32.7931 26.5459C32.0009 29.0253 30.0203 30.9985 27.4896 31.8494Z" fill="#CB0D07"/>
<path d="M17.4896 23.8494C20.0203 24.693 22.0009 26.6736 22.7931 29.1529C23.578 26.6736 25.5659 24.7003 28.0966 23.8494C25.5659 23.0059 23.5853 21.0253 22.7931 18.5459C22.0009 21.0253 20.0203 22.9985 17.4896 23.8494Z" fill="#CB0D07"/>
<path d="M17.4896 40.4564C20.0203 41.3 22.0009 43.2806 22.7931 45.7599C23.578 43.2806 25.5659 41.3073 28.0966 40.4564C25.5659 39.6128 23.5853 37.6323 22.7931 35.1529C22.0009 37.6323 20.0203 39.6055 17.4896 40.4564Z" fill="#CB0D07"/>
<path d="M17.4896 57.0634C20.0203 57.907 22.0009 59.8876 22.7931 62.3669C23.578 59.8876 25.5659 57.9143 28.0966 57.0634C25.5659 56.2198 23.5853 54.2393 22.7931 51.7599C22.0009 54.2393 20.0203 56.2125 17.4896 57.0634Z" fill="#CB0D07"/>
<path d="M17.4896 73.6704C20.0203 74.514 22.0009 76.4946 22.7931 78.9739C23.578 76.4946 25.5659 74.5213 28.0966 73.6704C25.5659 72.8269 23.5853 70.8463 22.7931 68.3669C22.0009 70.8463 20.0203 72.8195 17.4896 73.6704Z" fill="#CB0D07"/>
<path d="M37.4896 73.0634C40.0203 73.907 42.0008 75.8875 42.793 78.3669C43.5779 75.8875 45.5659 73.9143 48.0966 73.0634C45.5659 72.2198 43.5853 70.2393 42.793 67.7599C42.0008 70.2393 40.0203 72.2125 37.4896 73.0634Z" fill="#CB0D07"/>
<path d="M37.4896 23.8494C40.0203 24.693 42.0009 26.6736 42.7931 29.1529C43.578 26.6736 45.5659 24.7003 48.0966 23.8494C45.5659 23.0059 43.5853 21.0253 42.7931 18.5459C42.0009 21.0253 40.0203 22.9985 37.4896 23.8494Z" fill="#CB0D07"/>
<path d="M37.4896 40.4564C40.0203 41.3 42.0009 43.2806 42.7931 45.7599C43.578 43.2806 45.5659 41.3073 48.0966 40.4564C45.5659 39.6128 43.5853 37.6323 42.7931 35.1529C42.0009 37.6323 40.0203 39.6055 37.4896 40.4564Z" fill="#CB0D07"/>
<path d="M37.4896 57.0634C40.0203 57.907 42.0009 59.8876 42.7931 62.3669C43.578 59.8876 45.5659 57.9143 48.0966 57.0634C45.5659 56.2198 43.5853 54.2393 42.7931 51.7599C42.0009 54.2393 40.0203 56.2125 37.4896 57.0634Z" fill="#CB0D07"/>
<path d="M60.8311 71.7282L60.8311 87.3056L63.3839 85.2477L63.3839 87.3838L60.8571 89.4156L58.7992 89.4156L58.7992 71.7543L60.805 71.7543L60.8311 71.7282Z" fill="#CB0D07"/>
<path d="M50.4896 74.9583C50.4896 74.4112 50.5937 73.9163 50.7761 73.4734C50.9584 73.0567 51.245 72.692 51.5576 72.4054C51.8962 72.1189 52.2609 71.9105 52.7038 71.7542C53.1205 71.5979 53.5894 71.5458 54.0583 71.5458C54.5272 71.5458 54.996 71.624 55.4128 71.7542C55.8557 71.8844 56.2203 72.1189 56.559 72.4054C56.8976 72.692 57.1582 73.0567 57.3405 73.4734C57.5229 73.8902 57.627 74.3852 57.627 74.9583L57.627 86.1073C57.627 86.6804 57.5229 87.1753 57.3405 87.5921C57.1582 88.035 56.8716 88.3736 56.559 88.6601C56.2203 88.9467 55.8557 89.1811 55.4128 89.3114C54.97 89.4677 54.5272 89.5458 54.0583 89.5458C53.0163 89.5458 52.1567 89.2593 51.4794 88.6601C50.8022 88.061 50.4896 87.2014 50.4896 86.1073L50.4896 74.9583ZM52.4953 86.1855C52.4953 86.6283 52.6516 86.993 52.9382 87.2535C53.2247 87.514 53.6155 87.6703 54.0583 87.6703C54.5011 87.6703 54.8918 87.54 55.1784 87.2535C55.4649 86.993 55.6213 86.6283 55.6213 86.1855L55.6213 74.8801C55.6213 74.4373 55.4649 74.0726 55.1784 73.8121C54.8658 73.5516 54.5011 73.3953 54.0583 73.3953C53.6155 73.3953 53.2247 73.5255 52.9382 73.8121C52.6516 74.0726 52.4953 74.4373 52.4953 74.8801L52.4953 86.1855Z" fill="#CB0D07"/>
<path d="M5.04233 24.3634V8.78598L2.48956 10.8439V8.70783L5.01634 6.67599H7.07417V24.3374H5.06841L5.04233 24.3634Z" fill="#CB0D07"/>
<path d="M15.3839 21.1334C15.3839 21.6804 15.2797 22.1753 15.0974 22.6182C14.915 23.035 14.6284 23.3996 14.3158 23.6862C13.9772 23.9727 13.6125 24.1811 13.1697 24.3374C12.7529 24.4937 12.284 24.5458 11.8151 24.5458C11.3462 24.5458 10.8774 24.4677 10.4606 24.3374C10.0178 24.2072 9.65307 23.9727 9.31443 23.6862C8.97579 23.3996 8.71525 23.035 8.5329 22.6182C8.35056 22.2014 8.2464 21.7064 8.2464 21.1334V9.9843C8.2464 9.41122 8.35056 8.91628 8.5329 8.4995C8.71525 8.05666 9.00184 7.71802 9.31443 7.43148C9.65307 7.14494 10.0178 6.9105 10.4606 6.78025C10.9034 6.62395 11.3462 6.54581 11.8151 6.54581C12.8571 6.54581 13.7167 6.83235 14.394 7.43148C15.0713 8.03061 15.3839 8.89024 15.3839 9.9843V21.1334ZM13.3781 9.90615C13.3781 9.46332 13.2218 9.09863 12.9352 8.83814C12.6487 8.57765 12.258 8.42135 11.8151 8.42135C11.3723 8.42135 10.9816 8.5516 10.695 8.83814C10.4085 9.09863 10.2522 9.46332 10.2522 9.90615V21.2115C10.2522 21.6543 10.4085 22.019 10.695 22.2795C11.0076 22.54 11.3723 22.6963 11.8151 22.6963C12.258 22.6963 12.6487 22.5661 12.9352 22.2795C13.2218 22.019 13.3781 21.6543 13.3781 21.2115V9.90615Z" fill="#CB0D07"/>
</g>
<defs>
<clipPath id="clip0_3556_1480">
<rect width="65.4895" height="95" fill="white" transform="translate(0.489563 0.545929)"/>
</clipPath>
</defs>
</svg>
