<svg width="66" height="96" viewBox="0 0 66 96" fill="none" xmlns="http://www.w3.org/2000/svg">
<g clip-path="url(#clip0_3556_910)">
<rect width="65.4895" height="95" transform="translate(0.489563 0.545929)" fill="white"/>
<path d="M4.98944 0.545929L61.4792 0.545929C63.9602 0.545929 65.9791 2.56485 65.9791 5.04582V91.046C65.9791 93.527 63.9602 95.5459 61.4792 95.5459H4.98944C2.50847 95.5459 0.489563 93.527 0.489563 91.046L0.489563 5.04582C0.489563 2.56485 2.50847 0.545929 4.98944 0.545929Z" fill="white"/>
<path d="M4.09656 33.0459C6.72104 33.9208 8.77501 35.9747 9.59659 38.5459C10.4106 35.9747 12.4721 33.9284 15.0966 33.0459C12.4721 32.1711 10.4182 30.1172 9.59659 27.5459C8.77501 30.1172 6.72104 32.1635 4.09656 33.0459Z" fill="#CB0D07"/>
<path d="M51.4896 63.0459C54.114 63.9208 56.168 65.9747 56.9896 68.5459C57.8036 65.9747 59.8651 63.9284 62.4896 63.0459C59.8651 62.1711 57.8112 60.1172 56.9896 57.5459C56.168 60.1172 54.114 62.1635 51.4896 63.0459Z" fill="#CB0D07"/>
<path d="M13.4782 19.3993C13.4782 20.5515 13.3245 21.4989 12.9917 22.2158L14.3999 23.3424L13.427 24.5458L12.0699 23.4704C11.4298 23.9825 10.5593 24.2386 9.48387 24.2386C8.05001 24.2386 7.02584 23.8545 6.41133 23.0607C5.79682 22.267 5.48956 21.2428 5.48956 19.9626V11.4107C5.48956 10.7962 5.54077 10.2073 5.64318 9.61835C5.7456 9.02945 5.95043 8.51736 6.23208 8.05648C6.51373 7.59559 6.9234 7.23713 7.43549 6.95548C7.94759 6.67383 8.61333 6.54581 9.45828 6.54581C10.3032 6.54581 11.0201 6.67383 11.5322 6.90427C12.0699 7.13471 12.454 7.49318 12.7357 7.90285C13.0173 8.33813 13.1965 8.85022 13.299 9.41352C13.4014 10.0024 13.427 10.6425 13.427 11.3339V19.3737L13.4782 19.3993ZM11.5066 11.0522C11.5066 10.745 11.5066 10.4377 11.4554 10.1304C11.4042 9.82319 11.3274 9.54154 11.1994 9.25989C11.0713 9.00384 10.8665 8.7734 10.5849 8.61978C10.3032 8.44054 9.94473 8.36373 9.50946 8.36373C9.02297 8.36373 8.63891 8.49175 8.35726 8.72219C8.10121 8.95263 7.89639 9.25989 7.76837 9.59275C7.64034 9.92561 7.56354 10.2841 7.53793 10.6425C7.53793 11.0266 7.51231 11.3339 7.51231 11.5643V19.9626C7.51231 20.2186 7.5123 20.4747 7.58912 20.7563C7.64032 21.038 7.74277 21.294 7.8964 21.5501C8.05002 21.8061 8.25484 22.011 8.51088 22.1646C8.76693 22.3182 9.09981 22.395 9.53509 22.395C9.97036 22.395 10.3032 22.3182 10.5849 22.1646L9.09981 20.9356L10.0728 19.7578L11.4298 20.8587C11.5322 20.5003 11.5835 20.0906 11.5835 19.6041V11.001L11.5066 11.0522Z" fill="#CB0D07"/>
<path d="M53.501 76.6923C53.501 75.5401 53.6546 74.5927 53.9874 73.8758L52.5792 72.7492L53.5522 71.5458L54.9092 72.6212C55.5493 72.1091 56.4199 71.8531 57.4953 71.8531C58.9291 71.8531 59.9533 72.2371 60.5678 73.0309C61.1823 73.8246 61.4896 74.8488 61.4896 76.129L61.4896 84.6809C61.4896 85.2955 61.4384 85.8844 61.3359 86.4733C61.2335 87.0622 61.0287 87.5743 60.747 88.0351C60.4654 88.496 60.0557 88.8545 59.5436 89.1361C59.0315 89.4178 58.3658 89.5458 57.5208 89.5458C56.6759 89.5458 55.959 89.4178 55.4469 89.1873C54.9092 88.9569 54.5251 88.5984 54.2435 88.1888C53.9618 87.7535 53.7826 87.2414 53.6802 86.6781C53.5777 86.0892 53.5522 85.4491 53.5522 84.7578L53.5522 76.7179L53.501 76.6923ZM55.4725 85.0394C55.4725 85.3467 55.4725 85.6539 55.5237 85.9612C55.5749 86.2684 55.6517 86.5501 55.7798 86.8317C55.9078 87.0878 56.1126 87.3182 56.3942 87.4718C56.6759 87.6511 57.0344 87.7279 57.4697 87.7279C57.9562 87.7279 58.3402 87.5999 58.6219 87.3694C58.8779 87.139 59.0827 86.8317 59.2108 86.4989C59.3388 86.166 59.4156 85.8075 59.4412 85.4491C59.4412 85.065 59.4668 84.7578 59.4668 84.5273L59.4668 76.129C59.4668 75.873 59.4668 75.6169 59.39 75.3353C59.3388 75.0536 59.2364 74.7976 59.0827 74.5415C58.9291 74.2855 58.7243 74.0807 58.4682 73.927C58.2122 73.7734 57.8793 73.6966 57.444 73.6966C57.0088 73.6966 56.6759 73.7734 56.3942 73.927L57.8793 75.156L56.9064 76.3339L55.5493 75.2329C55.4469 75.5913 55.3957 76.001 55.3957 76.4875L55.3957 85.0906L55.4725 85.0394Z" fill="#CB0D07"/>
<path d="M46.7423 22.0994C46.7423 22.0994 44.8476 33.8821 47.5459 35.5231C50.2441 37.164 57.1209 42.6705 57.1209 42.6705L55.0655 47.4834L18.6346 46.4346L16.6215 42.7974C16.6215 42.7974 26.2134 20.2893 32.8449 18.4707C39.4764 16.6521 46.7423 22.0994 46.7423 22.0994Z" fill="#D8EFF6"/>
<path d="M22.8977 43.7617C23.549 45.0812 23.8197 47.4581 27.7783 46.6291C31.7369 45.7917 33.9107 44.4553 37.4548 43.9816C40.999 43.5079 43.8664 43.5756 46.5139 44.3453C49.153 45.1151 53.4668 46.5445 52.9932 45.1743C52.5195 43.804 50.9124 41.3933 49.9904 40.2345C49.0938 39.101 48.1633 37.7223 48.5355 37.68C48.1295 36.9949 48.1464 36.1828 48.1464 36.1828C47.0468 39.2787 44.0694 42.2561 40.9736 42.9074C37.8778 43.5587 31.0602 39.9638 28.3873 39.3379C26.6702 38.9403 24.9362 39.4901 23.9043 39.9384C23.2783 41.0803 22.4071 42.7636 22.9062 43.7617H22.8977Z" fill="#D33302"/>
<path d="M24.361 39.0672C24.2595 39.2787 24.0904 39.5832 23.8958 39.9384C24.9278 39.4901 26.6618 38.9403 28.3788 39.3379C31.0602 39.9638 37.8693 43.5671 40.9651 42.9074C44.061 42.2476 47.0384 39.2787 48.138 36.1828C48.138 36.1828 48.0196 35.6161 47.5459 35.5315C47.0722 35.4385 45.389 38.196 43.6127 39.4309C41.8448 40.6659 38.5206 41.5456 35.3064 39.9977C32.2698 38.5343 27.4822 37.2909 24.4287 38.5851C24.4795 38.6866 24.4625 38.8388 24.3526 39.0757L24.361 39.0672Z" fill="#F1F2F2"/>
<path d="M57.1125 42.6705C56.8841 42.4506 56.5711 42.2053 56.1144 41.9177C54.3888 40.8435 49.0007 37.6884 48.5524 37.6631C48.1041 37.6292 49.0599 39.0587 49.9819 40.226C50.9039 41.3848 52.511 43.7955 52.9847 45.1658C53.4584 46.5361 49.1445 45.1066 46.5055 44.3369C43.8664 43.5671 40.9905 43.4995 37.4464 43.9731C33.9022 44.4468 31.7284 45.7917 27.7698 46.6207C23.8112 47.4496 23.5405 45.0727 22.8892 43.7532C22.2379 42.4337 23.9296 39.9553 24.3441 39.0587C24.7586 38.1621 23.8281 38.4413 23.3291 38.5258C20.4109 38.9995 19.2859 41.7401 18.5669 41.8331C18.1778 41.8839 17.4504 42.2391 16.5961 42.7974V47.8641H57.0956V42.679L57.1125 42.6705Z" fill="#63A518"/>
<path d="M35.3063 39.9892C38.5206 41.5371 41.8363 40.6574 43.6126 39.4225C44.5515 38.7627 46.7592 37.0372 47.4866 36.1744C47.3682 35.65 45.7696 35.5315 44.9237 35.2524C43.5873 34.8041 40.7875 33.6453 40.7875 33.6453L42.0055 31.6829C42.0055 31.6829 43.5872 31.9536 44.0863 31.2684C44.5938 30.5833 46.3447 27.4875 46.59 26.7769C46.8269 26.0664 46.5308 24.6369 46.59 23.9772C46.6492 23.3174 46.7423 22.0994 46.7423 22.0994C46.7423 22.0994 46.0571 19.1812 45.7273 18.6483C45.3974 18.1154 43.1643 18.2338 40.8467 18.293C38.529 18.3522 38.4952 19.9002 38.6221 20.5515C38.749 21.2028 38.6982 21.355 38.1061 22.277C37.514 23.199 37.0911 24.2732 37.1249 24.5693C37.1588 24.8653 37.4802 25.229 36.7697 25.4912C36.0507 25.7619 35.8308 23.6388 34.8919 23.1144C34.4182 22.8437 33.8007 23.605 33.9107 24.6031C34.046 25.8888 35.3063 27.4029 35.4924 27.4283C35.6701 27.4621 36.0592 27.6397 36.2029 28.4433C36.3552 29.2468 35.5178 30.7017 34.3252 30.9724C34.1221 31.0147 33.9276 31.0231 33.75 30.9978C33.6315 31.1246 33.5554 31.2177 33.5554 31.2346C33.5723 31.2938 30.6034 32.3765 30.5188 32.3765C30.4342 32.3765 26.0527 34.4573 26.0527 34.6095C26.0527 34.7618 24.9193 38.2383 24.9193 38.2383C24.9193 38.2383 24.9531 38.289 25.0123 38.3651C28.0658 37.4347 32.4558 38.6189 35.3063 39.9892Z" fill="#F1A882"/>
<path d="M44.9237 35.2524C43.5873 34.8041 40.7875 33.6453 40.7875 33.6453L42.0055 31.6829C42.0055 31.6829 37.2011 29.7966 35.8308 28.3164C35.6109 28.0796 35.3402 27.9781 35.0441 27.9781C35.2387 28.3672 35.374 28.6124 35.374 28.6124L34.5451 30.1942C34.5451 30.1942 33.547 31.1669 33.5639 31.2261C33.5723 31.2515 32.9041 31.5137 32.1936 31.7759C34.0037 33.9498 37.9962 38.4497 39.6963 38.0183C41.9294 37.4516 41.185 35.7853 41.185 35.7853C41.185 35.7853 44.8476 36.6311 46.2348 36.9356C46.1417 36.4197 45.8541 35.5569 44.9406 35.2524H44.9237Z" fill="#D78E69"/>
<path d="M34.4774 37.0964C35.6362 37.0964 34.5113 39.1772 35.4924 38.9995C36.4736 38.8219 37.3956 38.1029 37.4295 37.0964C37.4633 36.0813 36.0592 35.9968 36.5667 35.2778C37.0742 34.5673 37.4887 33.493 36.8374 32.6556C36.1776 31.8267 34.6635 31.6744 33.86 31.4376C33.0564 31.2008 34.1898 30.7863 33.86 29.8558C33.5301 28.9254 32.2528 28.4602 31.3562 28.0965C30.4596 27.7412 27.8121 26.9377 27.0085 28.3079C26.205 29.6782 26.9493 30.0927 26.7717 30.541C26.5941 30.9893 25.5537 30.7186 24.8939 31.6152C24.2426 32.5034 25.0715 32.9263 24.4456 33.5184C23.8197 34.1105 22.6608 33.9075 22.8046 34.7111C22.9569 35.5146 24.4964 34.9225 22.9569 35.7853C21.409 36.648 20.1064 39.0841 22.5001 38.7373C24.8939 38.3905 25.1561 38.7373 27.1185 37.3332C29.0809 35.9375 28.1589 35.2778 29.0217 34.4488C29.8844 33.6199 28.8102 33.4338 31.0179 33.6199C33.2256 33.806 32.6504 33.5607 32.3882 34.6349C32.1175 35.7092 30.5696 37.1048 34.469 37.1048L34.4774 37.0964Z" fill="#8B5E3C"/>
<path d="M31.3477 28.1134C32.2443 28.4686 33.5216 28.9423 33.8515 29.8728C33.9953 30.2788 33.8515 30.5833 33.7246 30.8201C34.1391 30.5748 34.5197 30.1265 34.5366 29.3399C34.5704 27.6397 32.3205 25.9903 30.3158 27.7835C30.7387 27.8935 31.1109 28.0203 31.3477 28.1134Z" fill="#63A518"/>
<path d="M46.59 16.5337C46.2348 15.6709 45.3381 14.9265 43.3166 14.5966C41.295 14.2668 34.5535 15.1972 33.9614 16.0854C33.3778 16.9735 33.936 17.5656 32.8364 18.4622C31.7368 19.3588 31.2547 19.7733 31.7368 20.6953C32.2105 21.6172 32.9549 21.4396 32.0075 22.7676C31.0517 24.0871 30.4934 24.9245 31.0517 25.7619C31.3816 26.2441 31.8552 26.6416 32.1259 27.0053C33.4624 26.9884 34.5535 28.1472 34.5366 29.3314C34.5197 30.1265 34.1475 30.5664 33.7246 30.8117C33.6738 30.9047 33.6231 30.9893 33.5892 31.0654C33.8599 31.04 34.1137 31.0147 34.3251 30.9639C35.5178 30.6932 36.3467 29.2384 36.2029 28.4348C36.0507 27.6312 35.67 27.4536 35.4924 27.4198C35.3148 27.386 34.046 25.8803 33.9107 24.5946C33.8092 23.5965 34.4182 22.8353 34.8919 23.1059C35.8223 23.6304 36.0507 25.7535 36.7697 25.4828C37.4802 25.2206 37.1587 24.8569 37.1249 24.5608C37.0911 24.2648 37.514 23.1905 38.1061 22.2685C38.6982 21.3466 38.7574 21.1943 38.6221 20.543C38.4952 19.8917 38.5206 18.3438 40.8467 18.2846C43.1643 18.2254 45.3974 18.1069 45.7272 18.6398C46.0571 19.1727 46.7423 22.0909 46.7423 22.0909C46.7423 22.0909 47.5797 21.3466 47.5458 19.8917C47.512 18.4368 46.9537 17.388 46.59 16.5252V16.5337Z" fill="#8B5E3C"/>
<path d="M44.0863 31.2684C44.5939 30.5833 46.3448 27.4875 46.5901 26.7769C46.8269 26.0664 46.5309 24.6369 46.5901 23.9772C46.6493 23.3174 46.7423 22.0994 46.7423 22.0994C46.7423 22.0994 46.7423 22.0994 46.7423 22.0825C46.2433 22.1078 45.5412 22.2178 45.2959 22.6069C44.9068 23.2328 44.5431 23.9772 44.8984 25.1952C45.2536 26.4217 45.3551 26.5063 45.2536 26.7516C45.1521 26.9969 44.8222 27.2506 44.7546 27.2506C44.6869 27.2506 44.7546 28.1472 44.7546 28.1472C44.7546 28.1472 44.8645 28.5448 44.7207 28.6463C44.5854 28.7478 44.4247 28.8324 44.4247 28.9085C44.4247 28.9846 44.4247 29.2553 44.1709 29.3737C43.9087 29.4921 43.8157 30.0335 43.8241 30.3126C43.8326 30.5241 43.8918 31.1416 43.6127 31.5899C43.8072 31.5222 43.9764 31.4122 44.0863 31.26V31.2684Z" fill="#D78E69"/>
<path d="M46.9199 44.303C46.9199 44.303 46.4124 43.5841 45.9388 43.7955C45.4651 44.007 44.0356 45.5803 45.7273 47.0944C47.4275 48.6084 49.8635 47.6019 48.9246 46.3246C47.9857 45.0474 46.9115 44.303 46.9115 44.303H46.9199Z" fill="white"/>
<path d="M56.9856 30.2619C56.9856 30.2619 55.7084 31.8267 54.6849 33.1039C54.1858 33.7299 53.7121 34.6011 53.3569 35.3201C53.6106 33.4677 53.0862 32.1143 53.0608 32.0382L52.7309 32.165C52.7309 32.165 53.5091 34.1697 52.6971 36.5804C52.621 36.3943 52.4349 35.9629 52.1304 35.2355C51.7159 34.2458 50.7263 34.6265 50.3118 33.9583C49.8973 33.29 48.9415 33.5269 48.9415 33.5269C49.965 34.5588 49.5759 36.4874 50.2526 37.1556C50.9208 37.8238 52.9763 37.6377 52.9763 37.6377C52.9763 37.6377 55.5223 36.0052 56.5119 34.8887C57.5016 33.7722 56.9941 30.2619 56.9941 30.2619H56.9856Z" fill="#63A518"/>
<path d="M47.4782 47.8641C46.9114 47.8218 46.2771 47.6019 45.7188 47.1028C44.8899 46.3585 44.8053 45.6057 44.9914 45.0051C44.6361 45.0305 44.1455 45.1235 43.7226 45.4365C42.9528 46.0032 42.4707 46.8321 42.4707 47.4919C42.4707 47.6272 42.5299 47.7457 42.6145 47.8641H47.4697H47.4782Z" fill="#D33302"/>
<path d="M16.613 47.8641H23.1768C22.2464 47.1789 20.7915 45.7917 21.3329 44.0831C22.1111 41.6301 22.4663 41.0211 20.2417 42.07C19.2521 42.5352 17.8649 43.491 16.6046 44.5568V47.8641H16.613Z" fill="#317400"/>
<path d="M57.1125 42.6705C56.8841 42.4506 56.5711 42.2053 56.1144 41.9177C55.7337 41.6809 55.1755 41.3425 54.5326 40.9619C53.8982 41.5202 53.4922 42.163 53.9236 42.7636C54.9725 44.1931 55.2093 44.819 54.668 45.8087C54.1182 46.8068 51.3607 47.5427 51.3184 47.7034C51.3184 47.7287 51.2169 47.7795 51.0815 47.8641H57.1125V42.679V42.6705Z" fill="#317400"/>
<path d="M45.9387 44.7767C45.9387 44.7767 47.1567 44.0323 47.6389 42.7805C48.1126 41.5286 49.7789 38.6696 50.8785 37.8069C51.9781 36.9441 54.8709 37.4516 55.2854 37.8069C55.6999 38.1621 55.5815 38.2805 55.2854 38.3144C54.9894 38.3482 54.3634 38.2213 54.5157 38.5512C54.6679 38.8811 54.5749 39.3886 55.0993 39.3125C55.6237 39.2364 56.3935 39.3294 56.2497 39.6255C56.0974 39.9215 54.135 40.9027 53.5429 41.5032C52.9509 42.0953 50.9546 44.8697 49.9988 45.5803C49.043 46.2992 48.2394 46.7729 48.2394 46.7729C48.2394 46.7729 46.3616 47.0436 45.9472 44.7767H45.9387Z" fill="#F1A882"/>
<path d="M49.4828 30.8117C50.9969 31.3192 52.1811 32.5034 52.6548 33.9836C53.1285 32.5034 54.3127 31.3192 55.8268 30.8117C54.3127 30.3041 53.1285 29.12 52.6548 27.6397C52.1811 29.12 50.9969 30.3041 49.4828 30.8117Z" fill="#F1F2F2"/>
<path d="M50.4302 28.5532C51.1323 29.9827 51.1323 31.6575 50.4048 33.0363C51.792 32.3257 53.4668 32.3426 54.8879 33.0616C54.1858 31.6321 54.1858 29.9574 54.9132 28.5786C53.526 29.2891 51.8513 29.2722 50.4302 28.5532Z" fill="#F1F2F2"/>
<path d="M52.1812 31.6914C51.7244 31.4291 51.5637 30.837 51.8344 30.3803C52.0966 29.9235 52.6887 29.7628 53.1454 30.0335C53.6022 30.2957 53.7629 30.8878 53.4922 31.3446C53.23 31.8013 52.6379 31.962 52.1812 31.6914Z" fill="#FFF200"/>
<path d="M47.5458 20.1708C47.5458 20.1708 47.825 14.5374 41.9632 14.5374C37.7339 14.5374 36.1353 16.7113 35.4079 20.7375L35.1541 21.2451C35.1541 21.2451 33.3101 18.9697 33.5554 17.3118C33.8092 15.654 35.5686 8.94635 42.3354 9.58919C49.1022 10.2405 49.3729 16.2545 47.8081 19.7902C47.6558 20.1116 47.5458 20.1708 47.5458 20.1708Z" fill="#FFC33E"/>
<path d="M41.0413 11.9999C41.7433 12.2367 42.3016 12.7865 42.5215 13.4801C42.7414 12.7865 43.2912 12.2367 44.0017 11.9999C43.2997 11.763 42.7414 11.2132 42.5215 10.5196C42.3016 11.2132 41.7518 11.763 41.0413 11.9999Z" fill="#CB0D07"/>
<path d="M18.8714 73.9925C18.8714 73.9925 20.7661 62.2098 18.0679 60.5688C15.3696 58.9278 8.4928 53.4213 8.4928 53.4213L10.5482 48.6084L46.9791 49.6573L48.9923 53.2945C48.9923 53.2945 39.4003 75.8026 32.7688 77.6212C26.1373 79.4313 18.8714 73.9925 18.8714 73.9925Z" fill="#D8EFF6"/>
<path d="M42.7075 52.3302C42.0562 51.0106 41.7856 48.6338 37.827 49.4627C33.8684 50.3001 31.6945 51.6366 28.1504 52.1103C24.6063 52.5839 21.7388 52.5163 19.0913 51.7466C16.4523 50.9768 12.1384 49.5473 12.6121 50.9176C13.0858 52.2879 14.6929 54.6986 15.6149 55.8574C16.5115 56.9908 17.4419 58.3696 17.0697 58.4119C17.4757 59.097 17.4588 59.909 17.4588 59.909C18.5584 56.8132 21.5358 53.8358 24.6317 53.1845C27.7275 52.5332 34.5451 56.1281 37.218 56.754C38.935 57.1516 40.6691 56.6017 41.701 56.1534C42.3269 55.0115 43.1981 53.3283 42.6991 52.3302H42.7075Z" fill="#D33302"/>
<path d="M41.2527 57.0246C41.3542 56.8132 41.5234 56.5087 41.7179 56.1534C40.686 56.6017 38.952 57.1515 37.2349 56.754C34.5536 56.128 27.7444 52.5247 24.6486 53.1845C21.5528 53.8442 18.5754 56.8132 17.4758 59.909C17.4758 59.909 17.5942 60.4757 18.0679 60.5603C18.5415 60.6534 20.2248 57.8959 22.0011 56.6609C23.7689 55.426 27.0931 54.5463 30.3074 56.0942C33.344 57.5575 38.1315 58.8009 41.185 57.5068C41.1343 57.4053 41.1512 57.253 41.2612 57.0162L41.2527 57.0246Z" fill="#F1F2F2"/>
<path d="M8.4928 53.4213C8.72118 53.6412 9.03415 53.8865 9.49091 54.1741C11.2165 55.2484 16.6045 58.4034 17.0528 58.4288C17.5011 58.4626 16.5453 57.0331 15.6234 55.8658C14.7014 54.707 13.0942 52.2963 12.6206 50.9261C12.1469 49.5558 16.4607 50.9853 19.0998 51.755C21.7389 52.5247 24.6148 52.5924 28.1589 52.1187C31.703 51.645 33.8769 50.3001 37.8355 49.4712C41.7941 48.6423 42.0647 51.0191 42.716 52.3386C43.3674 53.6582 41.6756 56.1365 41.2612 57.0331C40.8467 57.9297 41.7771 57.6506 42.2762 57.566C45.1944 57.0923 46.3194 54.3518 47.0384 54.2587C47.4275 54.208 48.1549 53.8527 49.0092 53.2944V48.2278H8.50972V53.4129L8.4928 53.4213Z" fill="#63A518"/>
<path d="M30.2989 56.1027C27.0846 54.5548 23.7689 55.4344 21.9926 56.6694C21.0537 57.3292 18.846 59.0547 18.1186 59.9175C18.237 60.4419 19.8357 60.5603 20.6815 60.8395C22.018 61.2878 24.8178 62.4466 24.8178 62.4466L23.5997 64.409C23.5997 64.409 22.018 64.1383 21.5189 64.8234C21.0114 65.5086 19.2605 68.6044 19.0152 69.3149C18.7784 70.0254 19.0744 71.4549 19.0152 72.1147C18.956 72.7744 18.8629 73.9925 18.8629 73.9925C18.8629 73.9925 19.5481 76.9107 19.878 77.4436C20.2079 77.9764 22.4409 77.858 24.7585 77.7988C27.0762 77.7396 27.11 76.1917 26.9831 75.5404C26.8563 74.8891 26.907 74.7368 27.4991 73.8149C28.0912 72.8929 28.5141 71.8186 28.4803 71.5226C28.4465 71.2265 28.125 70.8628 28.8356 70.6006C29.5545 70.3299 29.7745 72.453 30.7134 72.9775C31.187 73.2481 31.8045 72.4869 31.6945 71.4888C31.5592 70.2031 30.2989 68.689 30.1128 68.6636C29.9352 68.6298 29.5461 68.4521 29.4023 67.6486C29.25 66.845 30.0874 65.3901 31.2801 65.1195C31.4831 65.0772 31.6776 65.0687 31.8553 65.0941C31.9737 64.9672 32.0498 64.8742 32.0498 64.8573C32.0329 64.7981 35.0018 63.7154 35.0864 63.7154C35.171 63.7154 39.5525 61.6346 39.5525 61.4823C39.5525 61.33 40.686 57.8536 40.686 57.8536C40.686 57.8536 40.6521 57.8028 40.5929 57.7267C37.5394 58.6571 33.1494 57.473 30.2989 56.1027Z" fill="#F1A882"/>
<path d="M20.69 60.8395C22.0264 61.2878 24.8262 62.4466 24.8262 62.4466L23.6082 64.409C23.6082 64.409 28.4126 66.2952 29.7829 67.7755C30.0028 68.0123 30.2735 68.1138 30.5695 68.1138C30.375 67.7247 30.2397 67.4794 30.2397 67.4794L31.0686 65.8977C31.0686 65.8977 32.0667 64.9249 32.0498 64.8657C32.0413 64.8404 32.7096 64.5781 33.4201 64.3159C31.6099 62.1421 27.6175 57.6421 25.9174 58.0735C23.6843 58.6402 24.4287 60.3066 24.4287 60.3066C24.4287 60.3066 20.7661 59.4607 19.3789 59.1562C19.472 59.6722 19.7595 60.535 20.6731 60.8395H20.69Z" fill="#D78E69"/>
<path d="M31.1363 58.9955C29.9775 58.9955 31.1025 56.9147 30.1213 57.0923C29.1401 57.27 28.2181 57.9889 28.1843 58.9955C28.1504 60.0105 29.5545 60.0951 29.047 60.8141C28.5395 61.5246 28.1251 62.5988 28.7764 63.4362C29.4361 64.2652 30.9502 64.4174 31.7538 64.6543C32.5573 64.8911 31.4239 65.3056 31.7538 66.236C32.0836 67.1664 33.3609 67.6317 34.2575 67.9954C35.1541 68.3506 37.8016 69.1542 38.6052 67.7839C39.4087 66.4136 38.6644 65.9992 38.842 65.5509C39.0196 65.1026 40.06 65.3732 40.7198 64.4766C41.3711 63.5885 40.5422 63.1656 41.1681 62.5735C41.794 61.9814 42.9529 62.1844 42.8091 61.3808C42.6568 60.5773 41.1174 61.1693 42.6568 60.3066C44.2047 59.4438 45.5073 57.0077 43.1136 57.3545C40.7198 57.7013 40.4576 57.3545 38.4952 58.7587C36.5328 60.1543 37.4548 60.8141 36.592 61.643C35.7293 62.472 36.8035 62.658 34.5958 62.472C32.3882 62.2859 32.9633 62.5312 33.2256 61.4569C33.4962 60.3827 35.0441 58.987 31.1447 58.987L31.1363 58.9955Z" fill="#8B5E3C"/>
<path d="M34.2575 67.9785C33.3609 67.6232 32.0836 67.1495 31.7538 66.2191C31.61 65.8131 31.7538 65.5086 31.8806 65.2717C31.4662 65.517 31.0855 65.9653 31.0686 66.752C31.0348 68.4521 33.2848 70.1016 35.2894 68.3083C34.8665 68.1984 34.4943 68.0715 34.2575 67.9785Z" fill="#63A518"/>
<path d="M19.0152 79.5582C19.3705 80.421 20.2671 81.1653 22.2887 81.4952C24.3103 81.8251 31.0517 80.8946 31.6438 80.0065C32.2275 79.1183 31.6692 78.5262 32.7688 77.6296C33.8684 76.733 34.3506 76.3186 33.8684 75.3966C33.3947 74.4746 32.6504 74.6522 33.5978 73.3243C34.5536 72.0047 35.1118 71.1673 34.5536 70.3299C34.2237 69.8478 33.75 69.4502 33.4793 69.0865C32.1429 69.1034 31.0517 67.9446 31.0686 66.7604C31.0856 65.9653 31.4577 65.5255 31.8807 65.2802C31.9314 65.1871 31.9822 65.1026 32.016 65.0264C31.7453 65.0518 31.4916 65.0772 31.2801 65.1279C30.0875 65.3986 29.2585 66.8535 29.4023 67.657C29.5546 68.4606 29.9352 68.6382 30.1128 68.6721C30.2905 68.7059 31.5592 70.2115 31.6946 71.4972C31.7961 72.4953 31.1871 73.2566 30.7134 72.9859C29.7829 72.4615 29.5546 70.3384 28.8356 70.6091C28.1251 70.8713 28.4465 71.235 28.4803 71.531C28.5142 71.8271 28.0912 72.9013 27.4991 73.8233C26.907 74.7453 26.8478 74.8975 26.9832 75.5489C27.11 76.2002 27.0847 77.7481 24.7586 77.8073C22.4409 77.8665 20.2079 77.9849 19.878 77.452C19.5481 76.9191 18.863 74.0009 18.863 74.0009C18.863 74.0009 18.0256 74.7453 18.0594 76.2001C18.0932 77.655 18.6515 78.7039 19.0152 79.5667V79.5582Z" fill="#8B5E3C"/>
<path d="M21.519 64.8234C21.0114 65.5086 19.2605 68.6044 19.0152 69.3149C18.7784 70.0254 19.0744 71.4549 19.0152 72.1147C18.956 72.7745 18.863 73.9925 18.863 73.9925C18.863 73.9925 18.863 73.9925 18.863 74.0094C19.362 73.984 20.0641 73.8741 20.3094 73.485C20.6985 72.8591 21.0622 72.1147 20.7069 70.8967C20.3517 69.6702 20.2502 69.5856 20.3517 69.3403C20.4532 69.095 20.7831 68.8412 20.8507 68.8412C20.9184 68.8412 20.8507 67.9446 20.8507 67.9446C20.8507 67.9446 20.7408 67.5471 20.8846 67.4456C21.0199 67.3441 21.1806 67.2595 21.1806 67.1834C21.1806 67.1073 21.1806 66.8366 21.4344 66.7182C21.6966 66.5997 21.7896 66.0584 21.7812 65.7793C21.7727 65.5678 21.7135 64.9503 21.9926 64.502C21.7981 64.5697 21.6289 64.6797 21.519 64.8319V64.8234Z" fill="#D78E69"/>
<path d="M18.6938 51.7888C18.6938 51.7888 19.2013 52.5078 19.675 52.2964C20.1487 52.0849 21.5782 50.5116 19.8865 48.9975C18.1863 47.4834 15.7502 48.49 16.6891 49.7672C17.628 51.0445 18.7023 51.7888 18.7023 51.7888H18.6938Z" fill="white"/>
<path d="M8.62813 65.83C8.62813 65.83 9.90537 64.2652 10.9289 62.9879C11.4279 62.362 11.9016 61.4908 12.2568 60.7718C12.0031 62.6242 12.5275 63.9776 12.5529 64.0537L12.8828 63.9268C12.8828 63.9268 12.1046 61.9221 12.9166 59.5115C12.9927 59.6975 13.1788 60.1289 13.4833 60.8564C13.8978 61.846 14.8874 61.4654 15.3019 62.1336C15.7164 62.8018 16.6722 62.565 16.6722 62.565C15.6487 61.533 16.0378 59.6045 15.3611 58.9363C14.6929 58.2681 12.6375 58.4541 12.6375 58.4541C12.6375 58.4541 10.0915 60.0866 9.10181 61.2032C8.11216 62.3197 8.61968 65.83 8.61968 65.83H8.62813Z" fill="#63A518"/>
<path d="M18.1271 48.2278C18.6938 48.2701 19.3282 48.49 19.8865 48.989C20.7154 49.7334 20.8 50.4862 20.6139 51.0868C20.9691 51.0614 21.4597 50.9683 21.8827 50.6554C22.6524 50.0887 23.1345 49.2597 23.1345 48.6C23.1345 48.4646 23.0753 48.3462 22.9907 48.2278H18.1355H18.1271Z" fill="#D33302"/>
<path d="M48.9923 48.2278H42.4285C43.3589 48.9129 44.8138 50.3001 44.2724 52.0088C43.4942 54.4617 43.139 55.0707 45.3636 54.0219C46.3532 53.5567 47.7404 52.6009 49.0007 51.5351V48.2278H48.9923Z" fill="#317400"/>
<path d="M8.4928 53.4213C8.72118 53.6412 9.03415 53.8865 9.49091 54.1741C9.87155 54.411 10.4298 54.7493 11.0727 55.13C11.707 54.5717 12.1131 53.9288 11.6817 53.3283C10.6328 51.8988 10.396 51.2729 10.9373 50.2832C11.4871 49.2851 14.2446 48.5492 14.2869 48.3885C14.2869 48.3631 14.3884 48.3124 14.5237 48.2278H8.4928V53.4129V53.4213Z" fill="#317400"/>
<path d="M19.675 51.3151C19.675 51.3151 18.457 52.0595 17.9748 53.3114C17.5011 54.5632 15.8348 57.4222 14.7352 58.285C13.6356 59.1478 10.7428 58.6402 10.3283 58.285C9.91383 57.9297 10.0322 57.8113 10.3283 57.7775C10.6243 57.7436 11.2503 57.8705 11.098 57.5406C10.9458 57.2107 11.0388 56.7032 10.5144 56.7794C9.98996 56.8555 9.22023 56.7624 9.36402 56.4664C9.51628 56.1703 11.4787 55.1892 12.0708 54.5886C12.6629 53.9965 14.6591 51.2221 15.6149 50.5116C16.5707 49.7926 17.3743 49.3189 17.3743 49.3189C17.3743 49.3189 19.2521 49.0483 19.6665 51.3151H19.675Z" fill="#F1A882"/>
<path d="M16.1224 65.2802C14.6083 64.7727 13.4241 63.5885 12.9505 62.1082C12.4768 63.5885 11.2926 64.7727 9.7785 65.2802C11.2926 65.7877 12.4768 66.9719 12.9505 68.4521C13.4241 66.9719 14.6083 65.7877 16.1224 65.2802Z" fill="#F1F2F2"/>
<path d="M15.1835 67.5386C14.4814 66.1091 14.4814 64.4343 15.2088 63.0556C13.8216 63.7661 12.1468 63.7492 10.7258 63.0302C11.4279 64.4597 11.4279 66.1345 10.7004 67.5132C12.0876 66.8027 13.7624 66.8196 15.1835 67.5386Z" fill="#F1F2F2"/>
<path d="M13.4326 64.4005C13.8894 64.6627 14.0501 65.2548 13.7794 65.7116C13.5172 66.1683 12.9251 66.3291 12.4683 66.0584C12.0116 65.7962 11.8509 65.2041 12.1215 64.7473C12.3837 64.2906 12.9758 64.1298 13.4326 64.4005Z" fill="#FFF200"/>
<path d="M18.0678 75.921C18.0678 75.921 17.7887 81.5544 23.6505 81.5544C27.8797 81.5544 29.4784 79.3806 30.2058 75.3543L30.4596 74.8468C30.4596 74.8468 32.3035 77.1221 32.0582 78.78C31.8045 80.4379 30.0451 87.1455 23.2783 86.5027C16.5115 85.8514 16.2408 79.8373 17.8056 76.3017C17.9579 75.9802 18.0678 75.921 18.0678 75.921Z" fill="#FFC33E"/>
<path d="M24.5725 84.092C23.8704 83.8551 23.3122 83.3053 23.0922 82.6117C22.8723 83.3053 22.3225 83.8551 21.612 84.092C22.3141 84.3288 22.8723 84.8786 23.0922 85.5722C23.3122 84.8786 23.862 84.3288 24.5725 84.092Z" fill="#CB0D07"/>
</g>
<defs>
<clipPath id="clip0_3556_910">
<rect width="65.4895" height="95" fill="white" transform="translate(0.489563 0.545929)"/>
</clipPath>
</defs>
</svg>
