<svg width="66" height="96" viewBox="0 0 66 96" fill="none" xmlns="http://www.w3.org/2000/svg">
<g clip-path="url(#clip0_3556_1556)">
<rect width="65.4895" height="95" transform="translate(0.489624 0.545929)" fill="white"/>
<path d="M4.9895 0.545929L61.4793 0.545929C63.9602 0.545929 65.9792 2.56485 65.9792 5.04582V91.046C65.9792 93.527 63.9602 95.5459 61.4793 95.5459H4.9895C2.50853 95.5459 0.489624 93.527 0.489624 91.046L0.489624 5.04582C0.489624 2.56485 2.50853 0.545929 4.9895 0.545929Z" fill="white"/>
<path d="M4.09668 33.0459C6.72116 33.9208 8.77513 35.9747 9.59671 38.5459C10.4107 35.9747 12.4722 33.9284 15.0967 33.0459C12.4722 32.1711 10.4183 30.1172 9.59671 27.5459C8.77513 30.1172 6.72116 32.1635 4.09668 33.0459Z" fill="#CB0D07"/>
<path d="M51.4896 63.0459C54.1141 63.9208 56.1681 65.9747 56.9897 68.5459C57.8036 65.9747 59.8652 63.9284 62.4896 63.0459C59.8652 62.1711 57.8112 60.1172 56.9897 57.5459C56.1681 60.1172 54.1141 62.1635 51.4896 63.0459Z" fill="#CB0D07"/>
<path d="M18.4896 23.8494C21.0203 24.693 23.0009 26.6736 23.7932 29.1529C24.578 26.6736 26.5659 24.7003 29.0966 23.8494C26.5659 23.0059 24.5854 21.0253 23.7932 18.5459C23.0009 21.0253 21.0203 22.9985 18.4896 23.8494Z" fill="#CB0D07"/>
<path d="M37.0967 23.8494C39.6274 24.693 41.6079 26.6736 42.4002 29.1529C43.1851 26.6736 45.173 24.7003 47.7037 23.8494C45.173 23.0059 43.1924 21.0253 42.4002 18.5459C41.6079 21.0253 39.6274 22.9985 37.0967 23.8494Z" fill="#CB0D07"/>
<path d="M18.4896 48.4564C21.0203 49.3 23.0009 51.2806 23.7932 53.7599C24.578 51.2806 26.5659 49.3073 29.0966 48.4564C26.5659 47.6128 24.5854 45.6323 23.7932 43.1529C23.0009 45.6323 21.0203 47.6055 18.4896 48.4564Z" fill="#CB0D07"/>
<path d="M37.0967 48.4564C39.6274 49.3 41.6079 51.2806 42.4002 53.7599C43.1851 51.2806 45.173 49.3073 47.7037 48.4564C45.173 47.6128 43.1924 45.6323 42.4002 43.1529C41.6079 45.6323 39.6274 47.6055 37.0967 48.4564Z" fill="#CB0D07"/>
<path d="M18.4896 73.0634C21.0203 73.907 23.0009 75.8875 23.7932 78.3669C24.578 75.8875 26.5659 73.9143 29.0966 73.0634C26.5659 72.2198 24.5854 70.2393 23.7932 67.7599C23.0009 70.2393 21.0203 72.2125 18.4896 73.0634Z" fill="#CB0D07"/>
<path d="M37.0967 73.0634C39.6274 73.907 41.6079 75.8875 42.4002 78.3669C43.1851 75.8875 45.173 73.9143 47.7037 73.0634C45.173 72.2198 43.1924 70.2393 42.4002 67.7599C41.6079 70.2393 39.6274 72.2125 37.0967 73.0634Z" fill="#CB0D07"/>
<path d="M8.59645 13.5633C9.00243 13.2733 9.46634 13.0993 10.0753 13.0993C10.6843 13.0993 11.2062 13.1863 11.6122 13.3893C12.0182 13.5922 12.3372 13.8532 12.5982 14.2012C12.8302 14.5492 13.0042 14.9262 13.1202 15.3901C13.2362 15.8541 13.2651 16.3181 13.2651 16.8111L13.2651 20.9288C13.2651 21.5378 13.1492 22.0888 12.9462 22.5817C12.7142 23.0457 12.4242 23.4517 12.0762 23.7707C11.6992 24.0896 11.2932 24.3216 10.8003 24.4956C10.3363 24.6696 9.81435 24.7276 9.29238 24.7276C8.01646 24.7276 7.05948 24.4086 6.36352 23.7707C5.66757 23.1327 5.31963 22.1757 5.31963 20.9288L5.31963 17.652C5.31963 16.8111 5.37762 16.0861 5.49361 15.5351C5.6096 14.9842 5.75458 14.4622 5.92857 14.0272L9.58238 4.83476L11.8442 4.83476L8.56743 13.4473L8.65442 13.5343L8.59645 13.5633ZM11.0323 16.6951C11.0323 16.2021 10.8583 15.8251 10.5393 15.5351C10.2203 15.2452 9.81435 15.1002 9.29238 15.1002C8.9444 15.1002 8.68339 15.1582 8.45141 15.3031C8.21942 15.4481 8.04542 15.5931 7.90043 15.7961C7.75544 15.9991 7.66852 16.2311 7.61052 16.4631C7.55252 16.7241 7.52353 16.9561 7.52353 17.217L7.52353 21.1318C7.52353 21.6248 7.69747 22.0018 8.01645 22.2917C8.33543 22.5527 8.77038 22.6977 9.26336 22.6977C9.75633 22.6977 10.1914 22.5527 10.5104 22.2917C10.8293 22.0018 11.0033 21.6248 11.0033 21.1318L11.0033 16.7241L11.0323 16.6951Z" fill="#CB0D07"/>
<path d="M57.5083 82.528C57.1023 82.818 56.6384 82.992 56.0294 82.992C55.4205 82.992 54.8985 82.905 54.4925 82.702C54.0865 82.499 53.7675 82.238 53.5065 81.89C53.2745 81.5421 53.1005 81.1651 52.9846 80.7011C52.8686 80.2371 52.8396 79.7732 52.8396 79.2802V75.1624C52.8396 74.5535 52.9556 74.0025 53.1585 73.5095C53.3905 73.0455 53.6806 72.6396 54.0285 72.3206C54.4055 72.0016 54.8115 71.7696 55.3045 71.5956C55.7684 71.4216 56.2904 71.3636 56.8124 71.3636C58.0883 71.3636 59.0453 71.6826 59.7412 72.3206C60.4372 72.9586 60.7851 73.9155 60.7851 75.1624V78.4392C60.7851 79.2802 60.7271 80.0051 60.6111 80.5561C60.4951 81.1071 60.3502 81.629 60.1762 82.064L56.5224 91.2565H54.2605L57.5373 82.644L57.4503 82.557L57.5083 82.528ZM55.0724 79.3962C55.0724 79.8892 55.2465 80.2661 55.5654 80.5561C55.8844 80.8461 56.2904 80.9911 56.8124 80.9911C57.1603 80.9911 57.4213 80.9331 57.6533 80.7881C57.8853 80.6431 58.0593 80.4981 58.2043 80.2951C58.3493 80.0921 58.4362 79.8602 58.4942 79.6282C58.5522 79.3672 58.5812 79.1352 58.5812 78.8742V74.9594C58.5812 74.4665 58.4073 74.0895 58.0883 73.7995C57.7693 73.5385 57.3344 73.3935 56.8414 73.3935C56.3484 73.3935 55.9134 73.5385 55.5944 73.7995C55.2754 74.0895 55.1015 74.4665 55.1015 74.9594V79.3672L55.0724 79.3962Z" fill="#CB0D07"/>
</g>
<defs>
<clipPath id="clip0_3556_1556">
<rect width="65.4895" height="95" fill="white" transform="translate(0.489624 0.545929)"/>
</clipPath>
</defs>
</svg>
