<svg width="66" height="96" viewBox="0 0 66 96" fill="none" xmlns="http://www.w3.org/2000/svg">
<g clip-path="url(#clip0_3556_901)">
<rect width="65.4895" height="95" transform="translate(0.489563 0.545929)" fill="white"/>
<path d="M4.98944 0.545929L61.4792 0.545929C63.9602 0.545929 65.9791 2.56485 65.9791 5.04582V91.046C65.9791 93.527 63.9602 95.5459 61.4792 95.5459H4.98944C2.50847 95.5459 0.489563 93.527 0.489563 91.046L0.489563 5.04582C0.489563 2.56485 2.50847 0.545929 4.98944 0.545929Z" fill="white"/>
<path d="M23.6896 47.5859C28.1696 49.0859 31.6896 52.5859 33.0896 56.9859C34.4896 52.5959 37.9996 49.0959 42.4896 47.5859C37.9996 46.0859 34.4896 42.5859 33.0896 38.1959C31.6896 42.5859 28.1796 46.0859 23.6896 47.5859Z" fill="#CB0D07"/>
<path d="M4.09656 33.0459C6.72104 33.9208 8.77501 35.9747 9.59659 38.5459C10.4106 35.9747 12.4721 33.9284 15.0966 33.0459C12.4721 32.1711 10.4182 30.1172 9.59659 27.5459C8.77501 30.1172 6.72104 32.1635 4.09656 33.0459Z" fill="#CB0D07"/>
<path d="M51.4896 63.0459C54.114 63.9208 56.168 65.9747 56.9896 68.5459C57.8036 65.9747 59.8651 63.9284 62.4896 63.0459C59.8651 62.1711 57.8112 60.1172 56.9896 57.5459C56.168 60.1172 54.114 62.1635 51.4896 63.0459Z" fill="#CB0D07"/>
<path d="M12.0825 24.5458L11.2595 20.537H7.25062L6.45416 24.5458H4.48956L8.31257 6.54581H10.2241L14.1002 24.5458H12.0825ZM9.18868 10.2361L8.44531 14.4308L7.59576 18.652H10.9143L10.0382 14.3777L9.32142 10.2361H9.21523H9.18868Z" fill="#CB0D07"/>
<path d="M54.5072 71.5458L55.3302 75.5547L59.3391 75.5547L60.1356 71.5458L62.1002 71.5458L58.2771 89.5458L56.3656 89.5458L52.4895 71.5458L54.5072 71.5458ZM57.401 85.8555L58.1444 81.6608L58.994 77.4396L55.6754 77.4396L56.5515 81.7139L57.2683 85.8555L57.3745 85.8555L57.401 85.8555Z" fill="#CB0D07"/>
</g>
<defs>
<clipPath id="clip0_3556_901">
<rect width="65.4895" height="95" fill="white" transform="translate(0.489563 0.545929)"/>
</clipPath>
</defs>
</svg>
