<svg width="66" height="96" viewBox="0 0 66 96" fill="none" xmlns="http://www.w3.org/2000/svg">
<g clip-path="url(#clip0_3556_1525)">
<rect width="65.4895" height="95" transform="translate(0.489624 0.545929)" fill="white"/>
<path d="M4.9895 0.545929L61.4793 0.545929C63.9602 0.545929 65.9792 2.56485 65.9792 5.04582V91.046C65.9792 93.527 63.9602 95.5459 61.4793 95.5459H4.9895C2.50853 95.5459 0.489624 93.527 0.489624 91.046L0.489624 5.04582C0.489624 2.56485 2.50853 0.545929 4.9895 0.545929Z" fill="white"/>
<path d="M4.09668 33.0459C6.72116 33.9208 8.77513 35.9747 9.59671 38.5459C10.4107 35.9747 12.4722 33.9284 15.0967 33.0459C12.4722 32.1711 10.4183 30.1172 9.59671 27.5459C8.77513 30.1172 6.72116 32.1635 4.09668 33.0459Z" fill="#CB0D07"/>
<path d="M51.4896 63.0459C54.1141 63.9208 56.1681 65.9747 56.9897 68.5459C57.8036 65.9747 59.8652 63.9284 62.4896 63.0459C59.8652 62.1711 57.8112 60.1172 56.9897 57.5459C56.1681 60.1172 54.1141 62.1635 51.4896 63.0459Z" fill="#CB0D07"/>
<path d="M18.4896 23.8494C21.0203 24.693 23.0009 26.6736 23.7932 29.1529C24.578 26.6736 26.5659 24.7003 29.0966 23.8494C26.5659 23.0059 24.5854 21.0253 23.7932 18.5459C23.0009 21.0253 21.0203 22.9985 18.4896 23.8494Z" fill="#CB0D07"/>
<path d="M37.0967 23.8494C39.6274 24.693 41.6079 26.6736 42.4002 29.1529C43.1851 26.6736 45.173 24.7003 47.7037 23.8494C45.173 23.0059 43.1924 21.0253 42.4002 18.5459C41.6079 21.0253 39.6274 22.9985 37.0967 23.8494Z" fill="#CB0D07"/>
<path d="M18.4896 48.4564C21.0203 49.3 23.0009 51.2806 23.7932 53.7599C24.578 51.2806 26.5659 49.3073 29.0966 48.4564C26.5659 47.6128 24.5854 45.6323 23.7932 43.1529C23.0009 45.6323 21.0203 47.6055 18.4896 48.4564Z" fill="#CB0D07"/>
<path d="M27.4896 35.8494C30.0203 36.693 32.0009 38.6736 32.7932 41.1529C33.578 38.6736 35.5659 36.7003 38.0966 35.8494C35.5659 35.0059 33.5854 33.0253 32.7932 30.5459C32.0009 33.0253 30.0203 34.9985 27.4896 35.8494Z" fill="#CB0D07"/>
<path d="M27.4896 60.8494C30.0203 61.693 32.0009 63.6736 32.7932 66.1529C33.578 63.6736 35.5659 61.7003 38.0966 60.8494C35.5659 60.0059 33.5854 58.0253 32.7932 55.5459C32.0009 58.0253 30.0203 59.9985 27.4896 60.8494Z" fill="#CB0D07"/>
<path d="M37.0967 48.4564C39.6274 49.3 41.6079 51.2806 42.4002 53.7599C43.1851 51.2806 45.173 49.3073 47.7037 48.4564C45.173 47.6128 43.1924 45.6323 42.4002 43.1529C41.6079 45.6323 39.6274 47.6055 37.0967 48.4564Z" fill="#CB0D07"/>
<path d="M18.4896 73.0634C21.0203 73.907 23.0009 75.8875 23.7932 78.3669C24.578 75.8875 26.5659 73.9143 29.0966 73.0634C26.5659 72.2198 24.5854 70.2393 23.7932 67.7599C23.0009 70.2393 21.0203 72.2125 18.4896 73.0634Z" fill="#CB0D07"/>
<path d="M37.0967 73.0634C39.6274 73.907 41.6079 75.8875 42.4002 78.3669C43.1851 75.8875 45.173 73.9143 47.7037 73.0634C45.173 72.2198 43.1924 70.2393 42.4002 67.7599C41.6079 70.2393 39.6274 72.2125 37.0967 73.0634Z" fill="#CB0D07"/>
<path d="M13.4896 10.9713C13.4896 11.6949 13.3437 12.3027 13.0517 12.7947C12.7597 13.3157 12.4093 13.7209 11.9422 14.0393C12.4093 14.3577 12.7597 14.7629 13.0517 15.2839C13.3437 15.8049 13.4896 16.4127 13.4896 17.1363V20.7542C13.4896 21.362 13.3728 21.9119 13.1684 22.404C12.9348 22.8671 12.6429 23.2723 12.2925 23.5907C11.913 23.909 11.5042 24.1406 11.0078 24.3143C10.5115 24.4879 10.0152 24.5458 9.48962 24.5458C8.96407 24.5458 8.43847 24.459 7.97131 24.3143C7.47496 24.1695 7.06619 23.909 6.68663 23.5907C6.30707 23.2723 6.01513 22.8671 5.81075 22.404C5.57717 21.9409 5.48962 21.391 5.48962 20.7542V17.1363C5.48962 16.4127 5.63556 15.8049 5.89834 15.2839C6.16111 14.7629 6.54069 14.3577 7.00785 14.0393C6.54069 13.7209 6.16111 13.3157 5.89834 12.7947C5.63556 12.2737 5.48962 11.6659 5.48962 10.9713V8.36636C5.48962 7.7296 5.60637 7.17967 5.81075 6.71657C6.04433 6.22453 6.30707 5.84827 6.68663 5.52989C7.06619 5.21151 7.47496 4.95102 7.97131 4.8063C8.46767 4.66158 8.96407 4.54581 9.48962 4.54581C10.0152 4.54581 10.5407 4.63264 11.0078 4.8063C11.475 4.97996 11.913 5.21151 12.2925 5.52989C12.6721 5.84827 12.964 6.25348 13.1684 6.71657C13.3728 7.17967 13.4896 7.7296 13.4896 8.36636V10.9713ZM11.2415 8.1927C11.2415 7.70066 11.0663 7.32439 10.7451 7.00601C10.4239 6.71657 9.98598 6.57186 9.48962 6.57186C8.99327 6.57186 8.55525 6.71657 8.23408 7.00601C7.91291 7.29544 7.73778 7.70066 7.73778 8.1927V11.4054C7.73778 11.8975 7.91291 12.3027 8.23408 12.5921C8.55525 12.8816 8.99327 13.0552 9.48962 13.0552C9.98598 13.0552 10.4239 12.9105 10.7451 12.5921C11.0663 12.3027 11.2415 11.8975 11.2415 11.4054V8.1927ZM11.2415 16.6153C11.2415 16.1232 11.0663 15.718 10.7451 15.3996C10.4239 15.0813 9.98598 14.9076 9.48962 14.9076C8.99327 14.9076 8.55525 15.0813 8.23408 15.3996C7.91291 15.718 7.73778 16.1232 7.73778 16.6153V20.8989C7.73778 21.391 7.91291 21.7672 8.23408 22.0277C8.55525 22.2882 8.99327 22.4329 9.48962 22.4329C9.98598 22.4329 10.4239 22.2882 10.7451 22.0277C11.0663 21.7672 11.2415 21.362 11.2415 20.8989V16.6153Z" fill="#CB0D07"/>
<path d="M60.4896 77.9713C60.4896 78.6949 60.3437 79.3027 60.0517 79.7947C59.7597 80.3157 59.4093 80.7209 58.9422 81.0393C59.4093 81.3577 59.7597 81.7629 60.0517 82.2839C60.3437 82.8049 60.4896 83.4127 60.4896 84.1363V87.7542C60.4896 88.362 60.3728 88.9119 60.1684 89.404C59.9348 89.8671 59.6429 90.2723 59.2925 90.5907C58.913 90.909 58.5042 91.1406 58.0078 91.3143C57.5115 91.4879 57.0152 91.5458 56.4896 91.5458C55.9641 91.5458 55.4385 91.459 54.9713 91.3143C54.475 91.1695 54.0662 90.909 53.6866 90.5907C53.3071 90.2723 53.0151 89.8671 52.8108 89.404C52.5772 88.9409 52.4896 88.391 52.4896 87.7542V84.1363C52.4896 83.4127 52.6356 82.8049 52.8983 82.2839C53.1611 81.7629 53.5407 81.3577 54.0078 81.0393C53.5407 80.7209 53.1611 80.3157 52.8983 79.7947C52.6356 79.2737 52.4896 78.6659 52.4896 77.9713V75.3664C52.4896 74.7296 52.6064 74.1797 52.8108 73.7166C53.0443 73.2245 53.3071 72.8483 53.6866 72.5299C54.0662 72.2115 54.475 71.951 54.9713 71.8063C55.4677 71.6616 55.9641 71.5458 56.4896 71.5458C57.0152 71.5458 57.5407 71.6326 58.0078 71.8063C58.475 71.98 58.913 72.2115 59.2925 72.5299C59.6721 72.8483 59.964 73.2535 60.1684 73.7166C60.3728 74.1797 60.4896 74.7296 60.4896 75.3664V77.9713ZM58.2415 75.1927C58.2415 74.7007 58.0663 74.3244 57.7451 74.006C57.4239 73.7166 56.986 73.5719 56.4896 73.5719C55.9933 73.5719 55.5552 73.7166 55.2341 74.006C54.9129 74.2954 54.7378 74.7007 54.7378 75.1927V78.4054C54.7378 78.8975 54.9129 79.3027 55.2341 79.5921C55.5552 79.8816 55.9933 80.0552 56.4896 80.0552C56.986 80.0552 57.4239 79.9105 57.7451 79.5921C58.0663 79.3027 58.2415 78.8975 58.2415 78.4054V75.1927ZM58.2415 83.6153C58.2415 83.1232 58.0663 82.718 57.7451 82.3996C57.4239 82.0813 56.986 81.9076 56.4896 81.9076C55.9933 81.9076 55.5552 82.0813 55.2341 82.3996C54.9129 82.718 54.7378 83.1232 54.7378 83.6153V87.8989C54.7378 88.391 54.9129 88.7672 55.2341 89.0277C55.5552 89.2882 55.9933 89.4329 56.4896 89.4329C56.986 89.4329 57.4239 89.2882 57.7451 89.0277C58.0663 88.7672 58.2415 88.362 58.2415 87.8989V83.6153Z" fill="#CB0D07"/>
</g>
<defs>
<clipPath id="clip0_3556_1525">
<rect width="65.4895" height="95" fill="white" transform="translate(0.489624 0.545929)"/>
</clipPath>
</defs>
</svg>
