<svg width="66" height="96" viewBox="0 0 66 96" fill="none" xmlns="http://www.w3.org/2000/svg">
<g clip-path="url(#clip0_3556_965)">
<rect width="65.4895" height="95" transform="translate(0.489563 0.545929)" fill="white"/>
<path d="M4.98944 0.545929L61.4792 0.545929C63.9602 0.545929 65.9791 2.56485 65.9791 5.04582V91.046C65.9791 93.527 63.9602 95.5459 61.4792 95.5459H4.98944C2.50847 95.5459 0.489563 93.527 0.489563 91.046L0.489563 5.04582C0.489563 2.56485 2.50847 0.545929 4.98944 0.545929Z" fill="white"/>
<path d="M4.09656 33.0459C6.72104 33.9208 8.77501 35.9747 9.59659 38.5459C10.4106 35.9747 12.4721 33.9284 15.0966 33.0459C12.4721 32.1711 10.4182 30.1172 9.59659 27.5459C8.77501 30.1172 6.72104 32.1635 4.09656 33.0459Z" fill="#CB0D07"/>
<path d="M51.4896 63.0459C54.114 63.9208 56.168 65.9747 56.9896 68.5459C57.8036 65.9747 59.8651 63.9284 62.4896 63.0459C59.8651 62.1711 57.8112 60.1172 56.9896 57.5459C56.168 60.1172 54.114 62.1635 51.4896 63.0459Z" fill="#CB0D07"/>
<path d="M12.4896 6.54581V19.7965C12.4896 21.3446 12.1703 22.5254 11.5562 23.3388C10.9176 24.1522 9.95971 24.5458 8.65796 24.5458C7.97024 24.5458 7.35621 24.4146 6.81586 24.126C6.27551 23.8374 5.83342 23.4175 5.48956 22.8403L6.88954 21.6333C7.06147 21.8957 7.30711 22.1581 7.65097 22.368C7.97027 22.5779 8.3141 22.6828 8.65796 22.6828C9.37024 22.6828 9.86147 22.4467 10.1562 21.9481C10.4509 21.4758 10.5983 20.8461 10.5983 20.0589V6.54581H12.4896Z" fill="#CB0D07"/>
<path d="M54.4896 89.5458L54.4896 76.2951C54.4896 74.747 54.8089 73.5662 55.4229 72.7528C56.0615 71.9394 57.0194 71.5458 58.3212 71.5458C59.0089 71.5458 59.6229 71.677 60.1633 71.9656C60.7036 72.2543 61.1457 72.6741 61.4896 73.2513L60.0896 74.4583C59.9177 74.196 59.672 73.9336 59.3282 73.7236C59.0089 73.5137 58.665 73.4088 58.3212 73.4088C57.6089 73.4088 57.1177 73.6449 56.8229 74.1435C56.5282 74.6158 56.3808 75.2455 56.3808 76.0327L56.3808 89.5458L54.4896 89.5458Z" fill="#CB0D07"/>
<path d="M26.3867 47.9791H31.5852C32.7136 46.8006 34.3851 45.572 36.7755 44.9535C42.2415 43.5327 43.6456 41.1424 43.6456 41.1424C43.6456 41.1424 44.6987 39.1616 45.359 37.3563C44.3477 36.5456 42.3752 34.9826 41.7484 34.6316C40.8959 34.1385 40.1353 35.2417 39.6088 36.6459C39.0822 38.05 37.7115 39.1365 37.2268 39.3204C36.7337 39.5042 36.6334 38.8523 35.4299 37.5485C34.2263 36.2447 31.6772 33.4699 31.7608 32.6174C31.7942 32.2663 31.7608 31.932 31.7775 31.6562C30.6659 32.0574 29.0946 32.7093 28.2672 33.4699C26.8965 34.7319 26.1025 35.3504 25.8768 35.9689C25.6512 36.5873 24.899 41.7859 25.0661 43.19C25.1581 43.959 25.7682 46.1153 26.3867 47.9707V47.9791Z" fill="#63A518"/>
<path d="M36.2405 27.7447C36.2405 27.7447 35.3045 27.5024 34.5439 28.4802C33.7917 29.4581 33.5493 30.8037 32.5297 30.9291C31.51 31.0544 31.836 31.7649 31.7524 32.6174C31.6688 33.4782 34.2179 36.2447 35.4215 37.5485C36.625 38.8523 36.7253 39.5042 37.2184 39.3204C37.7032 39.1365 39.0738 38.0583 39.6004 36.6458C40.1269 35.2417 40.8875 34.1385 41.74 34.6316C42.6008 35.1247 45.9607 37.8494 45.9607 37.8494C45.9607 37.8494 47.415 33.0603 46.5374 31.2634C45.6598 29.4665 40.829 26.9257 36.2405 27.7364V27.7447Z" fill="#CDD9DD"/>
<path d="M46.4371 47.9791H59.8264C59.793 46.6669 58.5727 41.1089 57.3107 38.6768C55.9484 36.0608 54.4941 35.9772 51.8447 34.7653C50.3486 34.08 49.3122 33.4448 48.6854 33.0269C49.3039 34.2221 50.0143 36.1193 50.1731 37.3479C50.357 38.7771 48.7355 44.8031 46.4371 47.9791Z" fill="#4A8C00"/>
<path d="M48.585 47.9791C50.8834 44.8114 51.4852 36.7043 51.3014 35.2751C51.0757 33.5283 48.6101 32.5254 48 31.9989C47.3899 31.464 47.0138 29.9094 46.2699 30.2939C45.5261 30.67 45.8771 33.4448 45.8771 35.1916C45.8771 36.9384 43.6372 41.1507 43.6372 41.1507C43.6372 41.1507 42.2331 43.5411 36.7671 44.9619C34.3767 45.5804 32.7052 46.809 31.5768 47.9874H48.585V47.9791Z" fill="#F4AE00"/>
<path d="M38.8314 12.8511C38.8565 12.7173 38.6643 11.9484 40.0015 10.653C41.3388 9.35749 41.6062 9.39927 44.0384 9.77538C46.4705 10.1515 46.8717 9.71688 48.1421 11.1377C49.4208 12.5585 50.5407 12.7591 51.1759 13.8874C51.8111 15.0157 51.97 14.9071 52.1371 15.8097C52.3043 16.7207 53.4994 17.0133 53.0648 17.9159C52.6302 18.8102 52.9144 18.7768 52.1622 19.3785C51.41 19.9803 51.5604 20.6991 50.9001 21.0501C50.2399 21.4011 50.5408 22.053 49.4208 20.791C48.3009 19.529 49.4459 19.6042 47.3146 18.5344C45.1917 17.4646 45.0747 17.3476 43.7208 17.1386C42.3668 16.9297 43.2611 18.4675 41.9489 16.1608C40.6367 13.854 38.8314 12.8427 38.8314 12.8427V12.8511Z" fill="#F4AE00"/>
<path d="M29.2701 21.351C29.2701 21.351 31.0419 22.1283 32.3625 22.1701C33.683 22.2119 36.0065 19.1194 39.149 18.526C42.2916 17.9326 46.3451 18.526 47.3899 20.0722C48.4346 21.6184 48.2591 23.9921 50.6244 24.4016C52.9896 24.8111 54.7197 24.4016 54.7197 24.4016C54.7197 24.4016 52.1204 24.0422 50.6244 21.4429C49.12 18.8436 48.6686 11.7896 42.6092 11.9735C36.5498 12.1574 35.8226 14.5226 34.3182 16.8461C32.8138 19.1696 33.6329 21.7605 29.2617 21.351H29.2701Z" fill="#D63A24"/>
<path d="M29.2701 21.351C29.2701 21.351 31.4933 22.4041 32.7302 22.4459C33.9672 22.4877 37.0679 19.3117 40.0183 18.7601C42.9686 18.2084 44.4981 19.2699 45.4843 20.7158C46.4705 22.1701 47.6323 24.201 49.8554 24.5855C52.0786 24.9699 54.3603 24.4685 54.3603 24.4685C54.3603 24.4685 51.5019 24.6607 50.0978 22.2286C48.6853 19.7964 48.2591 13.177 42.5841 13.3442C36.9008 13.5113 36.2238 15.7345 34.8113 17.9159C33.3989 20.0973 33.3821 21.7438 29.2784 21.3593L29.2701 21.351Z" fill="#446411"/>
<path d="M40.3944 12.6421C40.0684 13.7286 39.6255 14.5477 39.3998 14.4808C39.1741 14.414 39.2661 13.4779 39.592 12.3997C39.918 11.3216 40.361 10.4941 40.5866 10.561C40.8123 10.6279 40.7203 11.5639 40.3944 12.6421Z" fill="#94B0D5"/>
<path d="M37.887 13.2439C38.8648 13.8122 39.5669 14.4307 39.4499 14.6313C39.3329 14.8319 38.447 14.5393 37.4691 13.971C36.4912 13.4027 35.7892 12.7842 35.9062 12.5836C36.0232 12.383 36.9091 12.6755 37.887 13.2439Z" fill="#94B0D5"/>
<path d="M38.9568 12.3914C39.2911 13.4695 39.3831 14.4056 39.1574 14.4725C38.9317 14.5393 38.4888 13.7203 38.1545 12.6421C37.8202 11.5639 37.7282 10.6279 37.9539 10.561C38.1795 10.4941 38.6225 11.3132 38.9568 12.3914Z" fill="#94B0D5"/>
<path d="M39.2828 15.2247C38.7646 15.2247 38.3383 14.7984 38.3383 14.2802C38.3383 13.7621 38.7646 13.3358 39.2828 13.3358C39.8009 13.3358 40.2272 13.7621 40.2272 14.2802C40.2272 14.7984 39.8009 15.2247 39.2828 15.2247Z" fill="#FFF200"/>
<path d="M39.6004 31.2467C38.0459 30.4192 36.5916 26.9925 36.1319 25.8475L35.7809 28.756C35.7809 28.756 36.5498 30.7285 38.2548 32.0825C39.9598 33.4364 41.5645 33.8543 41.5645 33.8543C41.5645 33.8543 43.7041 32.9015 44.682 31.3303C44.7405 31.23 44.7656 31.1213 44.7488 31.0043C43.3949 31.6646 41.0296 32.0156 39.6004 31.2467Z" fill="#D78E69"/>
<path d="M54.4857 33.2693H52.6219V39.195H54.4857V33.2693Z" fill="#91A3BD"/>
<path d="M59.6425 43.3906L53.6165 44.6861L47.5905 43.3906L49.0699 46.5165L53.6165 46.1236L58.1716 46.5165L59.6425 43.3906Z" fill="#91A3BD"/>
<g style="mix-blend-mode:multiply" opacity="0.5">
<path d="M53.558 44.6777V46.132L53.6165 46.1236L58.1715 46.5165L59.6425 43.3906L53.6165 44.6861L53.558 44.6777Z" fill="#91A3BD"/>
</g>
<path d="M51.4435 41.46C51.5605 42.2707 51.5856 43.2485 51.7694 43.5243C51.9533 43.8002 52.0954 43.6915 52.4631 44.1512C52.8309 44.6109 53.6667 45.5219 53.7586 46.4747C53.8004 46.926 53.9007 47.5027 53.9926 47.9874H58.2468C57.8874 46.6753 57.1602 44.2013 57.2104 43.7416C57.2772 43.1148 57.3692 41.1173 57.2522 40.6325C57.1352 40.1478 55.4469 37.6404 55.1376 37.5736C54.8368 37.5067 53.1903 37.4565 52.7473 37.5736C52.7473 37.5736 52.9312 36.7629 52.4882 36.579C52.0452 36.3951 51.7193 36.4369 51.6775 37.2058C51.6357 37.9747 51.8196 38.0165 51.4685 38.7102C51.1175 39.4039 51.3515 39.5209 51.4685 40.0057C51.5855 40.4904 51.3098 40.6576 51.4268 41.4683L51.4435 41.46Z" fill="#F1A882"/>
<path d="M53.9007 42.5465C54.9955 43.3572 55.2045 43.0145 55.2212 43.9422C55.2463 44.8699 55.4803 45.4299 55.497 46.3075C55.5054 46.6836 55.4218 47.3439 55.3298 47.9791H58.2467C57.8874 46.6669 57.1602 44.193 57.2104 43.7333C57.2772 43.1064 57.3692 41.1089 57.2522 40.6242C57.1352 40.1394 55.4469 37.632 55.1376 37.5652C55.1209 37.5652 55.0958 37.5568 55.0624 37.5485C54.9538 38.0666 54.7782 38.6266 54.4857 38.7018C54.026 38.8189 53.792 38.7269 53.8171 39.3036C53.8421 39.8803 53.7252 41.017 53.7001 41.4349C53.675 41.8528 52.7974 41.7357 53.884 42.5465H53.9007Z" fill="#D78E69"/>
<path d="M54.703 45.6807H52.6219V47.9791H54.703V45.6807Z" fill="#91A3BD"/>
<path d="M46.4956 19.5875C46.4956 19.5875 46.5959 21.7772 46.4956 22.5462C46.3953 23.3234 46.2365 25.321 46.2365 26.2153C46.2365 27.1095 46.3953 29.3411 45.6598 30.3357C44.916 31.3386 41.4725 32.2329 39.6004 31.2383C37.7282 30.2354 35.9898 25.4714 35.9898 25.4714C35.9898 25.4714 34.4436 24.4768 34.3767 23.2817C34.3099 22.0865 35.3713 19.8967 36.6668 19.2866C37.9539 18.6765 39.826 18.0914 42.1412 18.384C44.4563 18.6765 44.9243 18.0162 46.4872 19.5791L46.4956 19.5875Z" fill="#F1A882"/>
<path d="M45.6598 30.344C46.4037 29.3411 46.2365 27.1179 46.2365 26.2236C46.2365 25.3293 46.3953 23.3234 46.4956 22.5545C46.5374 22.2453 46.5458 21.7104 46.5374 21.1755C45.6515 21.117 44.356 21.1337 43.9465 21.6853C43.3029 22.5545 43.4032 23.3903 43.4032 24.1676C43.4032 24.9448 43.5035 25.6803 43.5286 26.1317C43.562 26.583 43.7877 27.0343 43.9465 27.6779C44.1053 28.3214 44.0133 29.2575 43.9799 29.9679C43.9548 30.5279 42.7597 30.9541 43.2611 31.5141C44.3644 31.2717 45.3088 30.8288 45.6598 30.3607V30.344Z" fill="#D78E69"/>
<path d="M46.5374 29.1739C46.5374 29.1739 46.3368 28.1125 46.0443 27.7447C45.7518 27.3686 45.2336 27.0761 44.8407 26.9591C44.4479 26.8421 43.0856 26.5412 42.7931 26.5412C42.5006 26.5412 41.18 26.6666 40.6451 26.9424C40.1102 27.2182 39.6004 27.5609 39.5335 27.937C39.4666 28.3131 39.2744 28.3883 39.1323 28.2964C38.9903 28.1961 37.9204 26.9424 37.5611 26.5412C37.2017 26.1484 37.3855 25.4296 37.093 24.5103C36.8005 23.5825 36.625 23.5742 36.9426 23.0811C37.2685 22.5963 37.3772 21.9193 37.8034 21.5265C38.2213 21.142 38.8231 20.8328 39.032 20.3648C39.241 19.8967 39.3246 19.5541 39.2744 19.3618C39.2243 19.1696 38.7479 18.7935 38.5139 18.7433C38.2798 18.7016 36.8339 18.6096 35.714 19.5039C34.594 20.3982 33.6914 23.0226 34.0424 23.6828C34.3934 24.3431 35.271 25.0452 35.4716 25.5633C35.6638 26.0815 36.6083 28.7393 37.1515 29.7088C37.7032 30.6783 38.6058 32.1493 40.8958 32.4586C43.1775 32.7678 46.0693 31.7649 46.5374 29.1906V29.1739Z" fill="#8B5E3C"/>
<path d="M42.9602 27.7531C42.9602 27.7531 41.5812 27.7197 41.2887 27.8785C40.9961 28.0373 40.4947 28.639 40.8457 29.0151C41.1967 29.3912 41.4976 29.784 41.8152 29.7172C42.1328 29.6503 42.4504 29.2742 42.8599 29.3411C43.2611 29.4079 43.1441 30.0348 44.3309 29.55C44.7488 29.3829 45.2503 27.6277 42.9519 27.7531H42.9602Z" fill="#D78E69"/>
<path d="M47.5069 23.3151C47.7075 22.5796 47.7075 22.3707 47.6741 21.6853C47.649 21.1755 46.9052 20.323 46.5123 19.9051C46.5374 20.5403 46.5708 21.9611 46.504 22.5462C46.4371 23.1061 46.3285 24.3013 46.2783 25.2625C46.4538 25.1789 46.7046 24.9532 47.2562 24.6106C48.2341 24.0004 47.3063 24.0506 47.5069 23.3151Z" fill="#8B5E3C"/>
<path d="M20.8621 41.2928C20.8621 41.2928 17.636 39.546 19.8341 37.2309C22.0322 34.9158 24.1217 33.3946 26.1694 34.1218C28.217 34.8405 31.3345 36.8631 31.0253 39.195C30.7244 41.5268 31.1423 43.4992 28.5931 43.8419C26.0524 44.1846 20.8454 41.3011 20.8454 41.3011L20.8621 41.2928Z" fill="#D33302"/>
<path d="M34.2263 40.1561C34.2263 40.1561 32.8807 42.2456 33.9755 43.7249C35.0621 45.2043 36.3575 44.9535 36.3575 44.9535C36.3575 44.9535 35.6722 43.6413 35.597 42.5632C35.5217 41.485 34.2263 40.1561 34.2263 40.1561Z" fill="#D33302"/>
<path d="M39.124 38.9025C39.0488 39.0947 37.8369 40.3818 38.4805 41.6689C39.124 42.956 39.5085 43.6079 39.5085 43.6079C39.5085 43.6079 40.3693 42.162 40.2607 41.251C40.152 40.34 39.124 38.8941 39.124 38.8941V38.9025Z" fill="#D33302"/>
<path d="M31.6604 47.9791C30.8497 45.3965 28.5179 40.691 27.0887 39.3538C25.3419 37.7156 22.9098 38.7186 21.28 39.3538C19.6502 39.989 19.4162 42.9644 18.9649 43.3906C18.6306 43.6998 17.6443 46.483 17.1262 47.9791H31.6604Z" fill="#4A8C00"/>
<path d="M51.0089 30.6115C52.2792 31.0377 53.2738 32.0239 53.6666 33.2693C54.0595 32.0239 55.054 31.0377 56.3244 30.6115C55.054 30.1852 54.0595 29.199 53.6666 27.9537C53.2738 29.199 52.2792 30.1852 51.0089 30.6115Z" fill="#91A3BD"/>
<path d="M21.6645 43.2151C22.9349 43.6413 23.9295 44.6276 24.3223 45.8729C24.7151 44.6276 25.7097 43.6413 26.9801 43.2151C25.7097 42.7888 24.7151 41.8026 24.3223 40.5573C23.9295 41.8026 22.9349 42.7888 21.6645 43.2151Z" fill="#CDD9DD"/>
<path d="M40.9376 48.1128H35.739C34.6107 49.2912 32.9392 50.5199 30.5488 51.1383C25.0828 52.5592 23.6787 54.9495 23.6787 54.9495C23.6787 54.9495 22.6256 56.9303 21.9653 58.7356C22.9766 59.5463 24.9491 61.1092 25.5759 61.4603C26.4284 61.9534 27.189 60.8502 27.7155 59.446C28.2421 58.0419 29.6128 56.9554 30.0975 56.7715C30.5906 56.5876 30.6909 57.2396 31.8944 58.5434C33.098 59.8472 35.6471 62.622 35.5635 63.4745C35.5301 63.8255 35.5635 64.1599 35.5468 64.4357C36.6668 64.0345 38.2297 63.3826 39.0571 62.622C40.4278 61.36 41.2218 60.7415 41.4475 60.123C41.6731 59.5045 42.4253 54.306 42.2582 52.9018C42.1662 52.1329 41.5561 49.9766 40.9376 48.1212V48.1128Z" fill="#63A518"/>
<path d="M31.0754 68.3471C31.0754 68.3471 32.0115 68.5895 32.7721 67.6116C33.5243 66.6338 33.7666 65.2882 34.7863 65.1628C35.806 65.0374 35.48 64.327 35.5636 63.4745C35.6472 62.6137 33.098 59.8472 31.8945 58.5434C30.691 57.2396 30.5907 56.5877 30.0976 56.7715C29.6128 56.9554 28.2421 58.0336 27.7156 59.446C27.189 60.8502 26.4285 61.9534 25.576 61.4603C24.7151 60.9672 21.3552 58.2425 21.3552 58.2425C21.3552 58.2425 19.901 63.0315 20.7786 64.8285C21.6561 66.6254 26.487 69.1662 31.0754 68.3555V68.3471Z" fill="#CDD9DD"/>
<path d="M20.8788 48.1128H7.48956C7.52299 49.425 8.74323 54.9829 10.0053 57.4151C11.3676 60.0311 12.8219 60.1147 15.4713 61.3265C16.9674 62.0119 18.0037 62.6471 18.6306 63.065C18.0121 61.8698 17.3017 59.9726 17.1429 58.744C16.959 57.3148 18.5804 51.2888 20.8788 48.1128Z" fill="#4A8C00"/>
<path d="M18.7308 48.1128C16.4324 51.2804 15.8307 59.3875 16.0145 60.8167C16.2402 62.5635 18.7058 63.5664 19.3159 64.093C19.926 64.6279 20.3021 66.1824 21.046 65.798C21.7898 65.4219 21.4388 62.6471 21.4388 60.9003C21.4388 59.1535 23.6787 54.9412 23.6787 54.9412C23.6787 54.9412 25.0828 52.5508 30.5488 51.13C32.9392 50.5115 34.6107 49.2829 35.739 48.1044H18.7308V48.1128Z" fill="#F4AE00"/>
<path d="M28.4844 83.2408C28.4594 83.3745 28.6516 84.1435 27.3144 85.4389C25.9771 86.7344 25.7096 86.6926 23.2775 86.3165C20.8454 85.9404 20.4442 86.375 19.1738 84.9542C17.8951 83.5333 16.7751 83.3327 16.1399 82.2044C15.5047 81.0761 15.3459 81.1848 15.1788 80.2821C15.0116 79.3711 13.8164 79.0786 14.251 78.176C14.6857 77.2733 14.4015 77.3151 15.1537 76.7133C15.9059 76.1116 15.7555 75.3928 16.4157 75.0418C17.076 74.6907 16.7751 74.0388 17.8951 75.3009C19.015 76.5629 17.87 76.4877 20.0012 77.5575C22.1241 78.6273 22.2411 78.7443 23.5951 78.9532C24.9491 79.1622 24.0548 77.6243 25.367 79.9311C26.6792 82.2379 28.4844 83.2492 28.4844 83.2492V83.2408Z" fill="#F4AE00"/>
<path d="M38.0458 74.7409C38.0458 74.7409 36.274 73.9636 34.9534 73.9218C33.6329 73.88 31.3094 76.9724 28.1669 77.5658C25.0243 78.1593 20.9708 77.5658 19.926 76.0196C18.8813 74.4734 19.0568 72.0998 16.6915 71.6903C14.3263 71.2808 12.5962 71.6903 12.5962 71.6903C12.5962 71.6903 15.1955 72.0497 16.6915 74.649C18.1959 77.2482 18.6473 84.3023 24.7067 84.1184C30.7661 83.9345 31.4933 81.5692 32.9977 79.2458C34.5021 76.9223 33.683 74.3314 38.0542 74.7409H38.0458Z" fill="#D63A24"/>
<path d="M38.0458 74.7409C38.0458 74.7409 35.8226 73.6878 34.5856 73.646C33.3487 73.6042 30.2479 76.7802 27.2976 77.3318C24.3473 77.8834 22.8178 76.822 21.8316 75.3761C20.8454 73.9218 19.6836 71.8909 17.4604 71.5064C15.2373 71.1219 12.9556 71.6234 12.9556 71.6234C12.9556 71.6234 15.8139 71.4312 17.2181 73.8633C18.6305 76.2955 19.0568 82.9149 24.7318 82.7477C30.4151 82.5805 31.0921 80.3574 32.5046 78.176C33.917 75.9946 33.9337 74.3481 38.0374 74.7325L38.0458 74.7409Z" fill="#446411"/>
<path d="M26.9216 83.4498C27.2475 82.3632 27.6905 81.5442 27.9161 81.611C28.1418 81.6779 28.0499 82.614 27.7239 83.6921C27.398 84.7703 26.955 85.5977 26.7293 85.5309C26.5037 85.464 26.5956 84.5279 26.9216 83.4498Z" fill="#94B0D5"/>
<path d="M29.4289 82.848C28.451 82.2797 27.7489 81.6612 27.866 81.4606C27.983 81.26 28.8689 81.5525 29.8468 82.1209C30.8246 82.6892 31.5267 83.3077 31.4097 83.5083C31.2927 83.7088 30.4067 83.4163 29.4289 82.848Z" fill="#94B0D5"/>
<path d="M28.3591 83.7005C28.0247 82.6223 27.9328 81.6863 28.1585 81.6194C28.3841 81.5525 28.8271 82.3716 29.1614 83.4498C29.4957 84.5279 29.5877 85.464 29.362 85.5309C29.1363 85.5977 28.6934 84.7786 28.3591 83.7005Z" fill="#94B0D5"/>
<path d="M28.0331 80.8672C28.5513 80.8672 28.9776 81.2934 28.9776 81.8116C28.9776 82.3298 28.5513 82.7561 28.0331 82.7561C27.5149 82.7561 27.0887 82.3298 27.0887 81.8116C27.0887 81.2934 27.5149 80.8672 28.0331 80.8672Z" fill="#FFF200"/>
<path d="M27.7155 64.8452C29.2701 65.6726 30.7243 69.0993 31.184 70.2444L31.5351 67.3358C31.5351 67.3358 30.7661 65.3634 29.0611 64.0094C27.3561 62.6554 25.7514 62.2375 25.7514 62.2375C25.7514 62.2375 23.6118 63.1903 22.6339 64.7616C22.5754 64.8619 22.5504 64.9706 22.5671 65.0876C23.9211 64.4273 26.2863 64.0763 27.7155 64.8452Z" fill="#D78E69"/>
<path d="M14.694 56.8969H12.8302V62.8226H14.694V56.8969Z" fill="#91A3BD"/>
<path d="M7.67346 52.7012L13.6995 51.4058L19.7255 52.7012L18.2461 49.5754L13.6995 49.9682L9.14444 49.5754L7.67346 52.7012Z" fill="#91A3BD"/>
<g style="mix-blend-mode:multiply" opacity="0.5">
<path d="M13.758 51.4141V49.9599L13.6995 49.9682L9.14444 49.5754L7.67346 52.7012L13.6995 51.4058L13.758 51.4141Z" fill="#91A3BD"/>
</g>
<path d="M15.8725 54.6319C15.7555 53.8212 15.7304 52.8433 15.5465 52.5675C15.3627 52.2917 15.2206 52.4004 14.8528 51.9407C14.4851 51.481 13.6493 50.57 13.5574 49.6172C13.5156 49.1659 13.4153 48.5892 13.3234 48.1044H9.06921C9.4286 49.4166 10.1557 51.8905 10.1056 52.3502C10.0387 52.9771 9.94679 54.9746 10.0638 55.4593C10.1808 55.9441 11.8691 58.4514 12.1783 58.5183C12.4792 58.5852 14.1257 58.6353 14.5687 58.5183C14.5687 58.5183 14.3848 59.329 14.8278 59.5129C15.2707 59.6968 15.5967 59.655 15.6385 58.886C15.6803 58.1171 15.4964 58.0753 15.8474 57.3816C16.1985 56.6879 15.9644 56.5709 15.8474 56.0862C15.7304 55.6014 16.0062 55.4343 15.8892 54.6235L15.8725 54.6319Z" fill="#F1A882"/>
<path d="M13.4153 53.5454C12.3204 52.7347 12.1115 53.0774 12.0947 52.1496C12.0697 51.2219 11.8357 50.6619 11.819 49.7844C11.8106 49.4083 11.8942 48.748 11.9861 48.1128H9.06921C9.4286 49.425 10.1557 51.8989 10.1056 52.3586C10.0387 52.9854 9.94679 54.9829 10.0638 55.4677C10.1808 55.9525 11.8691 58.4598 12.1783 58.5267C12.195 58.5267 12.2201 58.535 12.2535 58.5434C12.3622 58.0252 12.5377 57.4652 12.8302 57.39C13.2899 57.273 13.5239 57.3649 13.4989 56.7882C13.4738 56.2115 13.5908 55.0749 13.6159 54.657C13.641 54.2391 14.5185 54.3561 13.432 53.5454H13.4153Z" fill="#D78E69"/>
<path d="M14.694 48.1128H12.6129V50.4112H14.694V48.1128Z" fill="#91A3BD"/>
<path d="M20.8203 76.5044C20.8203 76.5044 20.72 74.3146 20.8203 73.5457C20.9206 72.7684 21.0794 70.7709 21.0794 69.8766C21.0794 68.9823 20.9206 66.7508 21.6561 65.7562C22.4 64.7533 25.8434 63.859 27.7156 64.8536C29.5877 65.8565 31.3261 70.6205 31.3261 70.6205C31.3261 70.6205 32.8723 71.615 32.9392 72.8102C33.0061 74.0054 31.9446 76.1951 30.6492 76.8053C29.3621 77.4154 27.4899 78.0004 25.1748 77.7079C22.8597 77.4154 22.3916 78.0757 20.8287 76.5127L20.8203 76.5044Z" fill="#F1A882"/>
<path d="M21.6561 65.7478C20.9123 66.7508 21.0794 68.974 21.0794 69.8682C21.0794 70.7625 20.9206 72.7684 20.8203 73.5373C20.7785 73.8466 20.7702 74.3815 20.7785 74.9164C21.6645 74.9749 22.9599 74.9582 23.3695 74.4065C24.013 73.5373 23.9127 72.7015 23.9127 71.9243C23.9127 71.147 23.8124 70.4115 23.7874 69.9602C23.7539 69.5088 23.5283 69.0575 23.3695 68.414C23.2107 67.7704 23.3026 66.8343 23.3361 66.1239C23.3611 65.5639 24.5563 65.1377 24.0548 64.5777C22.9516 64.8201 22.0072 65.2631 21.6561 65.7311V65.7478Z" fill="#D78E69"/>
<path d="M20.7785 66.9179C20.7785 66.9179 20.9791 67.9794 21.2716 68.3471C21.5642 68.7232 22.0823 69.0158 22.4752 69.1328C22.868 69.2498 24.2303 69.5507 24.5228 69.5507C24.8153 69.5507 26.1359 69.4253 26.6708 69.1495C27.2057 68.8737 27.7155 68.531 27.7824 68.1549C27.8492 67.7788 28.0415 67.7036 28.1836 67.7955C28.3256 67.8958 29.3954 69.1495 29.7548 69.5507C30.1142 69.9435 29.9303 70.6623 30.2229 71.5816C30.5154 72.5093 30.6909 72.5177 30.3733 73.0108C30.0474 73.4956 29.9387 74.1726 29.5125 74.5654C29.0946 74.9498 28.4928 75.2591 28.2839 75.7271C28.0749 76.1951 27.9913 76.5378 28.0415 76.73C28.0916 76.9223 28.568 77.2984 28.802 77.3485C29.0361 77.3903 30.482 77.4823 31.6019 76.588C32.7219 75.6937 33.6245 73.0693 33.2735 72.409C32.9225 71.7488 32.0449 71.0467 31.8443 70.5285C31.6521 70.0103 30.7076 67.3525 30.1644 66.383C29.6127 65.4135 28.7101 63.9426 26.42 63.6333C24.1384 63.3241 21.2465 64.327 20.7785 66.9012V66.9179Z" fill="#8B5E3C"/>
<path d="M24.3557 68.3388C24.3557 68.3388 25.7347 68.3722 26.0272 68.2134C26.3198 68.0546 26.8212 67.4528 26.4702 67.0767C26.1192 66.7006 25.8183 66.3078 25.5007 66.3747C25.1831 66.4415 24.8655 66.8176 24.456 66.7508C24.0548 66.6839 24.1718 66.0571 22.985 66.5418C22.5671 66.709 22.0656 68.4641 24.364 68.3388H24.3557Z" fill="#D78E69"/>
<path d="M19.809 72.7768C19.6085 73.5123 19.6085 73.7212 19.6419 74.4066C19.667 74.9164 20.4108 75.7689 20.8036 76.1868C20.7786 75.5516 20.7451 74.1308 20.812 73.5457C20.8788 72.9857 20.9875 71.7906 21.0376 70.8294C20.8621 70.913 20.6114 71.1386 20.0598 71.4813C19.0819 72.0914 20.0096 72.0413 19.809 72.7768Z" fill="#8B5E3C"/>
<path d="M46.4538 54.7991C46.4538 54.7991 49.68 56.5459 47.4819 58.861C45.2837 61.1761 43.1943 62.6972 41.1466 61.9701C39.0989 61.2513 35.9815 59.2287 36.2907 56.8969C36.5916 54.5651 36.1737 52.5926 38.7228 52.2499C41.2636 51.9073 46.4706 54.7907 46.4706 54.7907L46.4538 54.7991Z" fill="#D33302"/>
<path d="M33.0896 55.9357C33.0896 55.9357 34.4352 53.8463 33.3404 52.3669C32.2538 50.8876 30.9584 51.1383 30.9584 51.1383C30.9584 51.1383 31.6437 52.4505 31.7189 53.5287C31.7942 54.6068 33.0896 55.9357 33.0896 55.9357Z" fill="#D33302"/>
<path d="M28.1919 57.1894C28.2671 56.9972 29.479 55.7101 28.8355 54.423C28.1919 53.1359 27.8075 52.4839 27.8075 52.4839C27.8075 52.4839 26.9466 53.9298 27.0553 54.8409C27.1639 55.7519 28.1919 57.1978 28.1919 57.1978V57.1894Z" fill="#D33302"/>
<path d="M35.6555 48.1128C36.4662 50.6954 38.798 55.4008 40.2272 56.7381C41.974 58.3762 44.4061 57.3733 46.0359 56.7381C47.6657 56.1029 47.8997 53.1275 48.351 52.7013C48.6853 52.392 49.6716 49.6088 50.1897 48.1128H35.6555Z" fill="#4A8C00"/>
<path d="M16.3071 65.4804C15.0367 65.0542 14.0421 64.0679 13.6493 62.8226C13.2565 64.0679 12.2619 65.0542 10.9915 65.4804C12.2619 65.9067 13.2565 66.8929 13.6493 68.1382C14.0421 66.8929 15.0367 65.9067 16.3071 65.4804Z" fill="#91A3BD"/>
<path d="M45.6515 52.8684C44.3811 52.4421 43.3865 51.4559 42.9937 50.2106C42.6008 51.4559 41.6063 52.4421 40.3359 52.8684C41.6063 53.2946 42.6008 54.2809 42.9937 55.5262C43.3865 54.2809 44.3811 53.2946 45.6515 52.8684Z" fill="#CDD9DD"/>
</g>
<defs>
<clipPath id="clip0_3556_965">
<rect width="65.4895" height="95" fill="white" transform="translate(0.489563 0.545929)"/>
</clipPath>
</defs>
</svg>
