<svg width="66" height="96" viewBox="0 0 66 96" fill="none" xmlns="http://www.w3.org/2000/svg">
<g clip-path="url(#clip0_3556_1505)">
<rect width="65.4895" height="95" transform="translate(0.489563 0.545929)" fill="white"/>
<path d="M4.98944 0.545929L61.4792 0.545929C63.9602 0.545929 65.9791 2.56485 65.9791 5.04582V91.046C65.9791 93.527 63.9602 95.5459 61.4792 95.5459H4.98944C2.50847 95.5459 0.489563 93.527 0.489563 91.046L0.489563 5.04582C0.489563 2.56485 2.50847 0.545929 4.98944 0.545929Z" fill="white"/>
<path d="M4.09656 33.0459C6.72104 33.9208 8.77501 35.9747 9.59659 38.5459C10.4106 35.9747 12.4721 33.9284 15.0966 33.0459C12.4721 32.1711 10.4182 30.1172 9.59659 27.5459C8.77501 30.1172 6.72104 32.1635 4.09656 33.0459Z" fill="#CB0D07"/>
<path d="M51.4895 63.0459C54.114 63.9208 56.168 65.9747 56.9895 68.5459C57.8035 65.9747 59.865 63.9284 62.4895 63.0459C59.865 62.1711 57.8111 60.1172 56.9895 57.5459C56.168 60.1172 54.114 62.1635 51.4895 63.0459Z" fill="#CB0D07"/>
<path d="M9.9882 15.9992C9.58223 16.2892 9.11832 16.4632 8.50935 16.4632C7.90039 16.4632 7.37842 16.3762 6.97244 16.1732C6.56647 15.9703 6.24741 15.7093 5.98642 15.3613C5.75444 15.0133 5.58047 14.6363 5.46448 14.1724C5.34848 13.7084 5.31952 13.2444 5.31952 12.7514V8.63368C5.31952 8.02471 5.43547 7.47375 5.63846 6.98077C5.87044 6.5168 6.16048 6.11083 6.50846 5.79184C6.88544 5.47286 7.29142 5.24088 7.78439 5.06689C8.24837 4.8929 8.7703 4.8349 9.29227 4.8349C10.5682 4.8349 11.5252 5.15388 12.2211 5.79184C12.9171 6.42981 13.265 7.38675 13.265 8.63368V11.9105C13.265 12.7514 13.207 13.4764 13.091 14.0274C12.9751 14.5783 12.8301 15.1003 12.6561 15.5353L9.00227 24.7277H6.74041L10.0172 16.1152L9.93024 16.0282L9.9882 15.9992ZM7.55236 12.8674C7.55236 13.3604 7.72639 13.7374 8.04537 14.0274C8.36435 14.3173 8.7703 14.4623 9.29227 14.4623C9.64025 14.4623 9.90126 14.4043 10.1332 14.2594C10.3652 14.1144 10.5392 13.9694 10.6842 13.7664C10.8292 13.5634 10.9161 13.3314 10.9741 13.0994C11.0321 12.8384 11.0611 12.6064 11.0611 12.3455V8.43069C11.0611 7.93772 10.8872 7.56074 10.5682 7.27076C10.2492 7.00977 9.81427 6.86478 9.3213 6.86478C8.82833 6.86478 8.39329 7.00977 8.07431 7.27076C7.75532 7.56074 7.58138 7.93772 7.58138 8.43069V12.8384L7.55236 12.8674Z" fill="#CB0D07"/>
<path d="M56.1163 80.0923C56.5223 79.8023 56.9862 79.6283 57.5952 79.6283C58.2042 79.6283 58.7261 79.7153 59.1321 79.9183C59.5381 80.1213 59.8571 80.3823 60.1181 80.7303C60.3501 81.0782 60.5241 81.4552 60.6401 81.9192C60.7561 82.3832 60.785 82.8471 60.785 83.3401L60.785 87.4579C60.785 88.0668 60.6691 88.6178 60.4661 89.1108C60.2341 89.5748 59.9441 89.9807 59.5961 90.2997C59.2191 90.6187 58.8131 90.8507 58.3202 91.0247C57.8562 91.1987 57.3342 91.2567 56.8123 91.2567C55.5364 91.2567 54.5794 90.9377 53.8834 90.2997C53.1875 89.6617 52.8395 88.7048 52.8395 87.4579L52.8395 84.1811C52.8395 83.3401 52.8975 82.6152 53.0135 82.0642C53.1295 81.5132 53.2745 80.9913 53.4485 80.5563L57.1023 71.3638L59.3641 71.3638L56.0873 79.9763L56.1743 80.0633L56.1163 80.0923ZM58.5522 83.2241C58.5522 82.7311 58.3782 82.3542 58.0592 82.0642C57.7402 81.7742 57.3343 81.6292 56.8123 81.6292C56.4643 81.6292 56.2033 81.6872 55.9713 81.8322C55.7393 81.9772 55.5653 82.1222 55.4203 82.3252C55.2753 82.5282 55.1884 82.7601 55.1304 82.9921C55.0724 83.2531 55.0434 83.4851 55.0434 83.7461L55.0434 87.6609C55.0434 88.1538 55.2174 88.5308 55.5363 88.8208C55.8553 89.0818 56.2903 89.2268 56.7833 89.2268C57.2762 89.2268 57.7113 89.0818 58.0302 88.8208C58.3492 88.5308 58.5232 88.1538 58.5232 87.6609L58.5232 83.2531L58.5522 83.2241Z" fill="#CB0D07"/>
<path d="M27.4895 48.8494C30.0202 49.693 32.0008 51.6736 32.793 54.1529C33.5779 51.6736 35.5658 49.7003 38.0965 48.8494C35.5658 48.0059 33.5853 46.0253 32.793 43.5459C32.0008 46.0253 30.0202 47.9985 27.4895 48.8494Z" fill="#CB0D07"/>
<path d="M17.4895 23.8494C20.0202 24.693 22.0008 26.6736 22.793 29.1529C23.5779 26.6736 25.5658 24.7003 28.0965 23.8494C25.5658 23.0059 23.5853 21.0253 22.793 18.5459C22.0008 21.0253 20.0202 22.9985 17.4895 23.8494Z" fill="#CB0D07"/>
<path d="M17.4895 40.4564C20.0202 41.3 22.0008 43.2806 22.793 45.7599C23.5779 43.2806 25.5658 41.3073 28.0965 40.4564C25.5658 39.6128 23.5853 37.6323 22.793 35.1529C22.0008 37.6323 20.0202 39.6055 17.4895 40.4564Z" fill="#CB0D07"/>
<path d="M17.4895 57.0634C20.0202 57.907 22.0008 59.8876 22.793 62.3669C23.5779 59.8876 25.5658 57.9143 28.0965 57.0634C25.5658 56.2198 23.5853 54.2393 22.793 51.7599C22.0008 54.2393 20.0202 56.2125 17.4895 57.0634Z" fill="#CB0D07"/>
<path d="M17.4895 73.6704C20.0202 74.514 22.0008 76.4946 22.793 78.9739C23.5779 76.4946 25.5658 74.5213 28.0965 73.6704C25.5658 72.8269 23.5853 70.8463 22.793 68.3669C22.0008 70.8463 20.0202 72.8195 17.4895 73.6704Z" fill="#CB0D07"/>
<path d="M37.4895 73.0634C40.0202 73.907 42.0008 75.8875 42.793 78.3669C43.5779 75.8875 45.5658 73.9143 48.0965 73.0634C45.5658 72.2198 43.5852 70.2393 42.793 67.7599C42.0008 70.2393 40.0202 72.2125 37.4895 73.0634Z" fill="#CB0D07"/>
<path d="M37.4895 23.8494C40.0202 24.693 42.0008 26.6736 42.793 29.1529C43.5779 26.6736 45.5658 24.7003 48.0965 23.8494C45.5658 23.0059 43.5853 21.0253 42.793 18.5459C42.0008 21.0253 40.0202 22.9985 37.4895 23.8494Z" fill="#CB0D07"/>
<path d="M37.4895 40.4564C40.0202 41.3 42.0008 43.2806 42.793 45.7599C43.5779 43.2806 45.5658 41.3073 48.0965 40.4564C45.5658 39.6128 43.5853 37.6323 42.793 35.1529C42.0008 37.6323 40.0202 39.6055 37.4895 40.4564Z" fill="#CB0D07"/>
<path d="M37.4895 57.0634C40.0202 57.907 42.0008 59.8876 42.793 62.3669C43.5779 59.8876 45.5658 57.9143 48.0965 57.0634C45.5658 56.2198 43.5853 54.2393 42.793 51.7599C42.0008 54.2393 40.0202 56.2125 37.4895 57.0634Z" fill="#CB0D07"/>
</g>
<defs>
<clipPath id="clip0_3556_1505">
<rect width="65.4895" height="95" fill="white" transform="translate(0.489563 0.545929)"/>
</clipPath>
</defs>
</svg>
