<svg width="66" height="96" viewBox="0 0 66 96" fill="none" xmlns="http://www.w3.org/2000/svg">
<g clip-path="url(#clip0_3556_820)">
<rect width="65.4895" height="95" transform="translate(0.489563 0.545929)" fill="white"/>
<path d="M4.98944 0.545929L61.4792 0.545929C63.9602 0.545929 65.9791 2.56485 65.9791 5.04582V91.046C65.9791 93.527 63.9602 95.5459 61.4792 95.5459H4.98944C2.50847 95.5459 0.489563 93.527 0.489563 91.046L0.489563 5.04582C0.489563 2.56485 2.50847 0.545929 4.98944 0.545929Z" fill="white"/>
<path d="M4.09656 33.0459C6.72104 33.9208 8.77501 35.9747 9.59659 38.5459C10.4106 35.9747 12.4721 33.9284 15.0966 33.0459C12.4721 32.1711 10.4182 30.1172 9.59659 27.5459C8.77501 30.1172 6.72104 32.1635 4.09656 33.0459Z" fill="#CB0D07"/>
<path d="M51.4896 63.0459C54.114 63.9208 56.168 65.9747 56.9896 68.5459C57.8036 65.9747 59.8651 63.9284 62.4896 63.0459C59.8651 62.1711 57.8112 60.1172 56.9896 57.5459C56.168 60.1172 54.114 62.1635 51.4896 63.0459Z" fill="#CB0D07"/>
<path d="M12.5411 24.5458L9.28043 15.9037L7.53079 19.3234V24.5458H5.48956V6.54581H7.53079V15.506H7.58382L11.9314 6.54581H13.9726L10.4734 13.6504L14.6088 24.5193H12.5411V24.5458Z" fill="#CB0D07"/>
<path d="M54.5573 71.5458L57.818 80.1879L59.5676 76.7682L59.5676 71.5458L61.6088 71.5458L61.6088 89.5458L59.5676 89.5458L59.5676 80.5856L59.5146 80.5856L55.167 89.5458L53.1258 89.5458L56.625 82.4412L52.4895 71.5723L54.5573 71.5723L54.5573 71.5458Z" fill="#CB0D07"/>
<path d="M22.5639 34.5447C22.5639 34.5447 19.7039 35.4804 18.2121 37.7137C16.7203 39.9558 16.9057 41.2004 16.9057 41.2004L12.4921 47.8826H60.8829V43.213C60.8829 43.213 59.7001 42.0655 58.9586 40.4501C58.2171 38.8347 55.7896 37.4312 55.5424 37.3253C55.2953 37.2194 53.2209 34.9508 52.5941 35.039C51.9674 35.1273 22.5728 34.5447 22.5728 34.5447H22.5639Z" fill="#317400"/>
<path d="M49.4428 30.6784C44.6496 29.5926 25.883 30.4224 25.883 30.4224C25.883 30.4224 20.6219 33.6708 20.6749 34.5447C20.7279 35.4186 26.7039 47.2118 27.4101 47.8826H46.5563C46.5563 47.8826 49.3899 42.4804 50.7581 41.3505C52.1263 40.2118 55.1187 36.6367 55.1187 36.6367C55.1187 36.6367 54.2448 31.7641 49.4517 30.6784H49.4428Z" fill="#BA1A00"/>
<path d="M34.6484 32.9911C34.6484 32.9911 39.0973 39.6468 42.7783 42.5775C42.7783 42.5775 46.3798 37.8019 46.3975 32.3291L34.6396 32.9911H34.6484Z" fill="#63A518"/>
<path d="M44.7026 17.314C44.7026 17.314 45.8855 18.3732 45.8237 19.1765C45.7619 19.9886 45.2676 20.8272 45.8237 21.6834C46.3798 22.5397 46.5034 23.1929 46.6005 23.8726C46.6887 24.5611 48.7631 24.5876 48.6484 25.8587C48.5336 27.1387 48.3306 26.9356 49.2486 27.8537C50.1667 28.7717 50.6786 28.9747 50.9611 29.5044C51.2436 30.034 53.9182 32.8322 53.2032 33.0529C52.4882 33.2736 52.4882 33.7061 51.1465 33.0529C49.8048 32.3997 49.7165 33.1765 47.6597 31.4375C45.6118 29.6986 43.2108 26.6443 43.2108 26.6443L42.9283 22.7868L44.7026 17.314Z" fill="#6D4930"/>
<path d="M48.6484 28.8247C46.3268 26.715 44.8615 25.6027 44.3319 24.9318C44.3054 24.8965 44.2789 24.8612 44.2436 24.8259C44.2083 24.8965 44.1906 24.9318 44.1906 24.9318C44.1906 24.9318 43.4492 24.1904 41.5248 23.9962C39.6005 23.802 37.9675 25.5233 37.4996 25.8675C37.0318 26.2118 36.9082 26.1677 36.458 25.3026C36.0166 24.4375 35.4693 22.6103 35.6635 22.0718C35.6724 22.0365 35.69 22.0012 35.6989 21.9482C35.284 22.3102 34.6925 22.8575 34.3571 23.3783C33.8098 24.2257 31.5412 25.6292 31.3823 26.9974C31.2235 28.3656 31.7884 29.5308 33.1831 30.7402C34.5866 31.9495 37.1289 32.8763 36.6963 33.7149C36.2638 34.5535 37.4466 36.1424 38.7531 35.8864C40.0595 35.6393 40.3155 35.2332 40.342 35.3303C40.3685 35.4274 43.202 37.8108 44.0406 35.9129C44.0406 35.9129 42.9813 35.2685 43.5904 35.0743C44.1995 34.889 45.3205 34.4476 45.7531 33.9886C46.1856 33.5207 46.8741 32.9293 46.9977 32.9911C47.1213 33.0529 48.9838 32.7704 48.9838 32.7704C48.9838 32.7704 50.9611 30.9344 48.6307 28.8247H48.6484Z" fill="#8B5E3C"/>
<path d="M38.4971 16.2812C37.7997 16.2988 37.1554 16.343 36.5728 16.4048C36.2108 16.9432 35.5135 18.0731 35.6989 18.6998C35.946 19.5384 35.8578 21.5157 35.6724 22.0542C35.4782 22.6015 36.0255 24.4287 36.4668 25.2849C36.9082 26.15 37.0318 26.1942 37.5084 25.8499C37.9763 25.5056 39.6093 23.7755 41.5337 23.9785C43.458 24.1727 44.1995 24.9142 44.1995 24.9142C44.1995 24.9142 44.7909 23.802 44.8174 22.4691C44.8439 21.1362 44.8439 20.4741 44.9674 19.7768C45.0557 19.2824 45.0822 17.8348 45.091 17.0491C44.2966 16.8108 41.9132 16.2017 38.5147 16.2724L38.4971 16.2812Z" fill="#F1A882"/>
<path d="M45.6825 12.918C45.6825 12.918 49.4164 9.52834 39.9183 9.546C28.081 9.56365 31.7796 14.6128 31.7796 14.6128L44.7468 15.4867L45.6736 12.918H45.6825Z" fill="#317400"/>
<path d="M32.2121 17.6229C32.2121 17.6229 30.5703 13.4653 29.3698 12.0176C29.3698 12.0176 30.8704 11.7175 31.2853 12.15C31.6913 12.5914 32.0532 13.7389 32.0532 13.7389L33.1213 13.4653L32.4416 11.4703L33.6156 10.4552L35.8048 10.7289V13.1387L37.4202 12.9445L36.6787 10.8966L38.6736 9.91675L40.6421 10.5435L40.3685 12.865H41.7632L41.8691 10.9231L44.1907 10.2963L45.3382 11.4439L44.4643 13.3858L45.3382 13.58L46.3798 12.0529C46.3798 12.0529 47.5803 11.5586 48.6484 11.8852C48.6484 11.8852 46.0002 15.3808 45.3647 17.1639C45.3647 17.1639 42.7165 16.2106 38.5059 16.29C34.2953 16.3695 32.2209 17.6317 32.2209 17.6317L32.2121 17.6229Z" fill="#F4AE00"/>
<path d="M44.1906 24.923C44.1906 24.923 44.7821 23.8108 44.8085 22.4779C44.835 21.145 44.835 20.4829 44.9586 19.7856C45.0027 19.5296 45.038 18.9999 45.0557 18.435C44.0229 18.4527 42.4075 18.5939 42.2222 19.2912C41.9485 20.324 42.6194 23.1929 42.6194 23.5107C42.6194 23.696 42.5135 23.9255 42.434 24.1286C43.6963 24.411 44.1995 24.9142 44.1995 24.9142L44.1906 24.923Z" fill="#D78E69"/>
<path d="M39.3268 26.3089C39.3268 26.3089 40.3861 25.0466 41.6925 25.3467C42.999 25.6469 42.9284 26.4325 42.9284 26.4325C42.9284 26.4325 40.1919 26.0882 39.3268 26.3089Z" fill="#D78E69"/>
<path d="M29.1314 30.2547C26.9687 30.2812 25.2032 31.1639 23.9409 32.126C23.7026 32.2761 23.4643 32.4262 23.2348 32.5851C22.3079 33.203 21.4428 33.8562 20.7014 34.4653C20.4454 34.6683 20.207 34.8801 19.9863 35.1096C17.9561 37.1487 17.0822 40.2294 15.4933 42.3656C15.3874 42.6304 15.3079 42.8953 15.255 43.1601C14.9019 44.749 15.3256 46.3379 16.3848 47.9268C17.2676 47.9268 19.033 47.9268 19.7127 48.0327C19.8981 48.0327 20.0835 48.0327 20.2776 48.0327C25.9006 48.0327 36.1755 47.8738 36.1755 47.8738C36.1755 47.8738 36.0784 47.8385 35.9725 47.5031C35.9195 47.3354 35.8577 47.1323 35.7871 46.9028C34.922 44.3959 34.922 40.865 32.9271 38.3139C32.7505 38.0756 32.5563 37.8461 32.3445 37.6254C32.1414 37.4047 31.9208 37.184 31.6824 36.9722C31.5235 36.7339 31.3558 36.5044 31.1793 36.2748C30.1641 34.8978 29.1225 33.6178 29.6963 32.0025C29.6698 31.7288 29.6169 31.464 29.5286 31.2257C29.4403 30.9873 29.3256 30.7755 29.1578 30.5901C29.1402 30.3783 29.1314 30.2547 29.1314 30.2547Z" fill="#E8D1B2"/>
<path d="M19.6509 37.2282C19.1654 38.261 19.6509 39.1613 19.6509 39.1613L20.2688 37.2282H19.6509Z" fill="#4A3323"/>
<path d="M17.9119 40.6002C17.4264 41.633 17.9119 42.5245 17.9119 42.5245L18.5298 40.6002H17.9119Z" fill="#4A3323"/>
<path d="M19.6509 42.4804C19.1654 43.5132 19.6509 44.4047 19.6509 44.4047L20.2688 42.4804H19.6509Z" fill="#4A3323"/>
<path d="M17.7531 44.6078C17.2676 45.6405 17.7531 46.5321 17.7531 46.5321L18.371 44.6078H17.7531Z" fill="#4A3323"/>
<path d="M26.5715 32.9646C26.086 33.9974 26.5715 34.889 26.5715 34.889L27.1894 32.9646H26.5715Z" fill="#4A3323"/>
<path d="M31.4264 45.3669C30.9409 46.3997 31.4264 47.2912 31.4264 47.2912L32.0443 45.3669H31.4264Z" fill="#4A3323"/>
<path d="M25.9271 38.3934C25.4416 39.4262 25.9271 40.3177 25.9271 40.3177L26.545 38.3934H25.9271Z" fill="#4A3323"/>
<path d="M23.376 40.7149C22.8905 41.7477 23.376 42.6393 23.376 42.6393L23.9939 40.7149H23.376Z" fill="#4A3323"/>
<path d="M25.7152 44.4047C25.2297 45.4375 25.7152 46.3291 25.7152 46.3291L26.3331 44.4047H25.7152Z" fill="#4A3323"/>
<path d="M21.3193 45.9142C20.8338 46.947 21.3193 47.8385 21.3193 47.8385L21.9372 45.9142H21.3193Z" fill="#4A3323"/>
<path d="M30.2701 39.3379C29.7846 40.3707 30.2701 41.271 30.2701 41.271L30.888 39.3379H30.2701Z" fill="#4A3323"/>
<path d="M27.719 41.6595C27.2335 42.6922 27.719 43.5838 27.719 43.5838L28.3369 41.6595H27.719Z" fill="#4A3323"/>
<path d="M32.9183 28.8511C31.6736 28.2244 31.5236 26.0706 33.2272 24.923C34.9397 23.7843 35.3457 22.2925 35.7077 21.9394C35.8754 21.2685 35.9372 19.4855 35.7077 18.7087C35.5223 18.0819 36.2196 16.952 36.5816 16.4136C34.3924 16.6696 33.0242 17.2257 32.4857 17.4817L32.3621 17.6229C32.3621 17.6229 32.6446 18.2496 31.8678 18.8411C31.091 19.4325 31.6824 21.8865 30.6585 22.981C29.6345 24.0668 28.231 26.5296 27.3924 27.3682C26.5538 28.2067 25.6535 27.5888 24.8767 28.3921C24.0999 29.2042 23.8792 29.8486 23.1642 30.29C22.4492 30.7313 21.8313 30.4753 20.9574 31.8436C20.0835 33.2118 18.5917 33.8032 19.1566 34.5535C19.7127 35.3038 19.5274 35.86 21.1163 34.8978C22.7052 33.9356 22.7316 32.9381 23.7291 32.7528C24.7266 32.5674 25.318 32.2231 26.4038 31.5699C27.4895 30.9167 27.1541 30.1399 28.1162 30.5724C29.0784 31.005 29.5463 31.4728 30.2966 31.5964C31.0469 31.72 33.5273 31.8436 32.627 32.8146C31.7266 33.7767 31.7531 34.5535 31.7531 34.5535C31.7531 34.5535 37.1465 36.2483 36.8552 32.9999C36.5639 29.7515 34.1805 29.4867 32.9359 28.86L32.9183 28.8511Z" fill="#6D4930"/>
<path d="M34.9397 43.9633C34.9397 43.9633 33.6244 47.3 36.1667 47.8826C36.1667 47.8826 39.6269 47.6443 40.3772 47.2559C41.1276 46.8675 42.0368 46.179 42.4605 46.0819C42.8842 45.9848 45.9472 45.8877 46.0708 45.9053C46.2032 45.923 46.2032 45.6935 46.2032 45.1727C46.2032 44.6519 45.5235 43.8045 45.3205 43.4161C45.1263 43.0277 45.0645 42.2067 44.9321 41.8536C44.7997 41.4917 44.5084 40.9091 43.6257 40.6796C42.7429 40.4501 40.3684 40.353 40.3684 40.353C40.3684 40.353 38.6471 40.1235 37.7291 40.8385C36.8199 41.5535 34.9309 43.9633 34.9309 43.9633H34.9397Z" fill="#F1A882"/>
<path d="M46.0797 45.9053C46.2121 45.923 46.2121 45.6935 46.2121 45.1727C46.2121 44.6519 45.5324 43.8044 45.3294 43.416C45.1352 43.0276 45.0734 42.2067 44.941 41.8536C44.8086 41.4917 44.5173 40.9091 43.6345 40.6796C42.7518 40.4501 40.3773 40.353 40.3773 40.353C40.3773 40.353 40.3508 40.353 40.2979 40.353C40.6509 40.865 41.1276 41.73 41.4807 43.0012C41.825 44.237 42.0015 45.3933 42.0898 46.2496C42.231 46.1701 42.3634 46.1172 42.4605 46.0907C42.8842 45.9936 45.9473 45.8965 46.0709 45.9142L46.0797 45.9053Z" fill="#D78E69"/>
<path d="M54.3155 20.7566C54.3155 20.7566 54.4302 19.9974 53.0179 20.0063C52.6824 20.0063 51.6585 20.0063 51.632 20.174C51.5879 20.2623 51.5349 20.3594 51.4819 20.4741C51.1377 21.2774 52.1705 21.1626 52.1705 21.1626C52.1705 21.1626 52.1705 22.2219 51.9233 24.1904C51.6761 26.1589 51.1289 30.9873 50.7934 32.7086C50.458 34.43 52.0822 35.9306 52.0822 35.9306C52.0822 35.9306 51.5084 37.3253 51.3142 38.4728C51.12 39.6204 51.1553 43.3366 51.1553 43.3366C51.1553 43.3366 50.7316 46.3114 51.7379 46.3114C52.7442 46.3114 53.0885 44.749 53.0885 44.749C53.0885 44.749 53.3004 38.6229 53.0267 37.3783C52.7531 36.1336 52.7442 35.9306 52.7442 35.9306C52.7442 35.9306 53.4416 34.889 53.83 32.9999C54.2184 31.1109 53.6711 26.3972 53.6711 24.5435V21.4892C53.6711 21.4892 53.9447 21.4893 54.3067 20.7566H54.3155Z" fill="#F4AE00"/>
<path d="M50.3609 38.4022C50.6875 38.5346 52.7531 38.4198 53.3092 38.6317C53.8653 38.8436 54.5626 40.2294 54.5626 40.2294C54.5626 40.2294 54.0771 40.0617 53.7152 39.9028C53.3533 39.7351 51.8262 39.3202 51.8262 39.3202C51.8262 39.3202 50.3609 39.3202 50.1314 39.6115C49.893 39.9028 50.6257 40.7855 50.6257 40.7855C50.6257 40.7855 50.202 40.7855 50.1402 41.2446C50.0784 41.7036 50.5463 42.4362 50.5463 42.4362L50.3344 42.6481C50.2373 43.5308 52.1616 44.0163 52.1616 44.0163C52.1616 44.0163 52.7177 44.6342 53.0444 45.6405C53.371 46.6468 54.7392 46.9116 54.7392 46.9116L55.2159 47.9003H57.4227C57.7316 47.6973 58.0053 47.4413 58.1906 47.1147C58.8703 45.9053 58.1906 44.0251 58.1906 44.0251C58.1906 44.0251 57.6698 42.1008 57.3785 41.1916C57.0872 40.2824 56.8224 39.6645 56.0986 39.1702C55.3747 38.6847 54.3861 37.7048 53.5034 37.4753C52.6206 37.2458 49.7606 37.3164 49.7871 37.643C49.8136 37.9696 50.0519 38.2963 50.3785 38.4287L50.3609 38.4022Z" fill="#F1A882"/>
<path d="M54.7391 46.9293L55.1982 47.8826H57.405C57.7139 47.6796 57.9876 47.4236 58.1729 47.097C58.8526 45.8877 58.1729 44.0075 58.1729 44.0075C58.1729 44.0075 57.6521 42.0831 57.3608 41.1739C57.1843 40.6178 57.0166 40.1764 56.7517 39.7969C56.2839 40.2824 55.7984 40.7326 55.7984 41.015C55.7984 41.5005 56.6811 41.4387 55.6395 42.4186C54.5979 43.3984 54.4302 42.7452 54.3507 43.6367C54.2713 44.5283 54.6597 45.7023 54.6597 46.0642C54.6597 46.2584 54.7215 46.5938 54.7391 46.9381V46.9293Z" fill="#D78E69"/>
<path d="M22.9611 35.8423C22.4756 36.8751 22.9611 37.7666 22.9611 37.7666L23.579 35.8423H22.9611Z" fill="#4A3323"/>
<path d="M28.1339 35.4009C27.6484 36.4337 28.1339 37.3253 28.1339 37.3253L28.7518 35.4009H28.1339Z" fill="#4A3323"/>
<path d="M28.8577 45.1638C28.3722 46.1966 28.8577 47.0882 28.8577 47.0882L29.4756 45.1638H28.8577Z" fill="#4A3323"/>
<path d="M49.5311 16.7667C51.1995 17.3228 52.5059 18.6292 53.0267 20.2622C53.5475 18.6292 54.8539 17.3228 56.5223 16.7667C54.8539 16.2106 53.5475 14.9041 53.0267 13.2711C52.5059 14.9041 51.1995 16.2106 49.5311 16.7667Z" fill="#F4AE00"/>
<path d="M44.8085 61.5383C44.8085 61.5383 47.6686 60.6026 49.1604 58.3693C50.6522 56.1272 50.4668 54.8826 50.4668 54.8826L54.8804 48.2004H6.48956V52.87C6.48956 52.87 7.67241 54.0087 8.4139 55.6329C9.15539 57.2571 11.5829 58.6518 11.8389 58.7577C12.086 58.8637 14.1604 61.1323 14.7872 61.044C15.4139 60.9557 44.8085 61.5383 44.8085 61.5383Z" fill="#317400"/>
<path d="M17.9296 65.4046C22.7228 66.4904 41.4895 65.6606 41.4895 65.6606C41.4895 65.6606 46.7505 62.4122 46.6976 61.5383C46.6446 60.6644 40.6686 48.8712 39.9624 48.2004H20.8161C20.8161 48.2004 17.9826 53.6026 16.6144 54.7325C15.2461 55.8712 12.2537 59.4463 12.2537 59.4463C12.2537 59.4463 13.1276 64.3189 17.9208 65.4046H17.9296Z" fill="#BA1A00"/>
<path d="M32.7241 63.1007C32.7241 63.1007 28.2752 56.445 24.5942 53.5144C24.5942 53.5144 20.9927 58.2899 20.975 63.7628L32.7329 63.1007H32.7241Z" fill="#63A518"/>
<path d="M22.6699 78.7691C22.6699 78.7691 21.487 77.7098 21.5488 76.9065C21.6106 76.0944 22.1049 75.2558 21.5488 74.3996C20.9927 73.5433 20.8691 72.8901 20.772 72.2104C20.6837 71.5219 18.6093 71.4954 18.7241 70.2243C18.8388 68.9444 19.0419 69.1474 18.1238 68.2294C17.2058 67.3113 16.6938 67.1083 16.4114 66.5787C16.1289 66.049 13.4542 63.2508 14.1692 63.0301C14.8842 62.8094 14.8842 62.3769 16.226 63.0301C17.5677 63.6833 17.656 62.9065 19.7127 64.6455C21.7607 66.3845 24.1617 69.4387 24.1617 69.4387L24.4441 73.2962L22.6699 78.7691Z" fill="#6D4930"/>
<path d="M18.7241 67.2672C21.0457 69.3769 22.511 70.4891 23.0406 71.16C23.0671 71.1953 23.0936 71.2306 23.1289 71.2659C23.1642 71.1953 23.1818 71.16 23.1818 71.16C23.1818 71.16 23.9233 71.9015 25.8477 72.0957C27.772 72.2899 29.405 70.5686 29.8729 70.2243C30.3407 69.88 30.4643 69.9242 30.9145 70.7892C31.3559 71.6543 31.9031 73.4815 31.7089 74.02C31.7001 74.0553 31.6825 74.0906 31.6736 74.1436C32.0885 73.7817 32.6799 73.2344 33.0154 72.7136C33.5627 71.8662 35.8313 70.4626 35.9902 69.0944C36.149 67.7262 35.5841 66.561 34.1894 65.3517C32.7859 64.1423 30.2436 63.2155 30.6762 62.3769C31.1087 61.5383 29.9258 59.9494 28.6194 60.2054C27.313 60.4526 27.057 60.8586 27.0305 60.7615C27.004 60.6644 24.1705 58.2811 23.3319 60.1789C23.3319 60.1789 24.3912 60.8233 23.7821 61.0175C23.173 61.2029 22.052 61.6442 21.6194 62.1032C21.1869 62.5711 20.4984 63.1625 20.3748 63.1007C20.2512 63.0389 18.3887 63.3214 18.3887 63.3214C18.3887 63.3214 16.4114 65.1575 18.7418 67.2672H18.7241Z" fill="#8B5E3C"/>
<path d="M28.8754 79.8018C29.5728 79.7842 30.2172 79.74 30.7998 79.6783C31.1617 79.1398 31.859 78.0099 31.6737 77.3832C31.4265 76.5446 31.5148 74.5673 31.7001 74.0288C31.8943 73.4815 31.3471 71.6543 30.9057 70.7981C30.4643 69.933 30.3408 69.8889 29.8641 70.2331C29.3962 70.5774 27.7632 72.3075 25.8389 72.1045C23.9145 71.9103 23.173 71.1688 23.173 71.1688C23.173 71.1688 22.5816 72.281 22.5551 73.6139C22.5287 74.9469 22.5287 75.6089 22.4051 76.3062C22.3168 76.8006 22.2903 78.2482 22.2815 79.0339C23.0759 79.2722 25.4593 79.8813 28.8578 79.8107L28.8754 79.8018Z" fill="#F1A882"/>
<path d="M21.69 83.1738C21.69 83.1738 17.9561 86.5635 27.4542 86.5459C39.2915 86.5282 35.5929 81.479 35.5929 81.479L22.6257 80.6051L21.6989 83.1738H21.69Z" fill="#317400"/>
<path d="M35.1604 78.4601C35.1604 78.4601 36.8023 82.6177 38.0028 84.0654C38.0028 84.0654 36.5022 84.3655 36.0873 83.933C35.6812 83.4916 35.3193 82.3441 35.3193 82.3441L34.2512 82.6177L34.9309 84.6127L33.7569 85.6278L31.5677 85.3542V82.9443L29.9524 83.1385L30.6938 85.1865L28.6989 86.1663L26.7304 85.5396L27.0041 83.218H25.6094L25.5034 85.16L23.1819 85.7867L22.0343 84.6392L22.9082 82.6972L22.0343 82.503L20.9927 84.0301C20.9927 84.0301 19.7922 84.5244 18.7241 84.1978C18.7241 84.1978 21.3723 80.7022 22.0078 78.9191C22.0078 78.9191 24.656 79.8725 28.8666 79.793C33.0772 79.7136 35.1516 78.4513 35.1516 78.4513L35.1604 78.4601Z" fill="#F4AE00"/>
<path d="M23.1818 71.16C23.1818 71.16 22.5904 72.2722 22.5639 73.6051C22.5375 74.9381 22.5375 75.6001 22.4139 76.2975C22.3697 76.5534 22.3344 77.0831 22.3168 77.648C23.3496 77.6304 24.9649 77.4891 25.1503 76.7918C25.424 75.759 24.7531 72.8901 24.7531 72.5724C24.7531 72.387 24.859 72.1575 24.9385 71.9545C23.6762 71.672 23.173 71.1688 23.173 71.1688L23.1818 71.16Z" fill="#D78E69"/>
<path d="M28.0457 69.7741C28.0457 69.7741 26.9864 71.0364 25.68 70.7363C24.3735 70.4362 24.4442 69.6505 24.4442 69.6505C24.4442 69.6505 27.1806 69.9948 28.0457 69.7741Z" fill="#D78E69"/>
<path d="M38.2411 65.8284C40.4038 65.8019 42.1692 64.9192 43.4315 63.957C43.6698 63.8069 43.9082 63.6569 44.1377 63.498C45.0645 62.8801 45.9296 62.2268 46.6711 61.6178C46.9271 61.4147 47.1654 61.2029 47.3861 60.9734C49.4163 58.9343 50.2902 55.8536 51.8791 53.7174C51.9851 53.4526 52.0645 53.1878 52.1175 52.923C52.4706 51.3341 52.0469 49.7451 50.9876 48.1562C50.1049 48.1562 48.3394 48.1563 47.6597 48.0503H47.0948C41.4718 48.0503 31.197 48.2092 31.197 48.2092C31.197 48.2092 31.2941 48.2445 31.4 48.58C31.4529 48.7477 31.5147 48.9507 31.5854 49.1802C32.4504 51.6871 32.4504 55.218 34.4454 57.7691C34.6219 58.0074 34.8161 58.2369 35.028 58.4576C35.231 58.6783 35.4517 58.899 35.69 59.1108C35.8489 59.3492 36.0166 59.5787 36.1932 59.8082C37.2083 61.1852 38.2499 62.4652 37.6761 64.0806C37.7026 64.3542 37.7556 64.619 37.8439 64.8574C37.9321 65.0957 38.0469 65.3075 38.2146 65.4929C38.2323 65.7048 38.2411 65.8284 38.2411 65.8284Z" fill="#E8D1B2"/>
<path d="M47.7215 58.8637C48.207 57.8309 47.7215 56.9393 47.7215 56.9393L47.1036 58.8637H47.7215Z" fill="#4A3323"/>
<path d="M49.4605 55.4828C49.946 54.45 49.4605 53.5585 49.4605 53.5585L48.8426 55.4828H49.4605Z" fill="#4A3323"/>
<path d="M47.7215 53.6115C48.207 52.5787 47.7215 51.6871 47.7215 51.6871L47.1036 53.6115H47.7215Z" fill="#4A3323"/>
<path d="M49.6194 51.4841C50.1049 50.4513 49.6194 49.5598 49.6194 49.5598L49.0015 51.4841H49.6194Z" fill="#4A3323"/>
<path d="M40.801 63.1184C41.2865 62.0856 40.801 61.1941 40.801 61.1941L40.1831 63.1184H40.801Z" fill="#4A3323"/>
<path d="M35.946 50.7162C36.4315 49.6834 35.946 48.7918 35.946 48.7918L35.3281 50.7162H35.946Z" fill="#4A3323"/>
<path d="M41.4454 57.6985C41.9309 56.6657 41.4454 55.7741 41.4454 55.7741L40.8275 57.6985H41.4454Z" fill="#4A3323"/>
<path d="M43.9964 55.3681C44.4819 54.3353 43.9964 53.4349 43.9964 53.4349L43.3785 55.3681H43.9964Z" fill="#4A3323"/>
<path d="M41.6572 51.6783C42.1427 50.6455 41.6572 49.754 41.6572 49.754L41.0393 51.6783H41.6572Z" fill="#4A3323"/>
<path d="M46.0532 50.1777C46.5387 49.1449 46.0532 48.2534 46.0532 48.2534L45.4353 50.1777H46.0532Z" fill="#4A3323"/>
<path d="M37.1024 56.754C37.5879 55.7212 37.1024 54.8296 37.1024 54.8296L36.4845 56.754H37.1024Z" fill="#4A3323"/>
<path d="M39.6534 54.4236C40.1389 53.3908 39.6534 52.4904 39.6534 52.4904L39.0355 54.4236H39.6534Z" fill="#4A3323"/>
<path d="M34.4542 67.2319C35.6988 67.8586 35.8489 70.0125 34.1452 71.16C32.4328 72.2987 32.0267 73.7905 31.6648 74.1436C31.4971 74.8145 31.4353 76.5976 31.6648 77.3744C31.8502 78.0011 31.1528 79.131 30.7909 79.6694C32.98 79.4134 34.3483 78.8573 34.8867 78.6013L35.0103 78.4601C35.0103 78.4601 34.7278 77.8334 35.5046 77.2419C36.2814 76.6505 35.69 74.1966 36.714 73.102C37.7379 72.0162 39.1414 69.5534 39.98 68.7149C40.8186 67.8763 41.719 68.4942 42.4958 67.6909C43.2726 66.8788 43.4933 66.2344 44.2083 65.793C44.9233 65.3517 45.5412 65.6077 46.4151 64.2394C47.289 62.8712 48.7808 62.2798 48.2158 61.5295C47.6597 60.7792 47.8451 60.2231 46.2562 61.1852C44.6673 62.1474 44.6408 63.1449 43.6433 63.3302C42.6459 63.5156 42.0544 63.8599 40.9687 64.5131C39.8829 65.1663 40.2184 65.9431 39.2562 65.5106C38.294 65.078 37.8262 64.6102 37.0759 64.4866C36.3256 64.363 33.8451 64.2395 34.7455 63.2685C35.6459 62.3063 35.6194 61.5295 35.6194 61.5295C35.6194 61.5295 30.2259 59.8347 30.5172 63.0831C30.8085 66.3315 33.1919 66.5963 34.4365 67.2231L34.4542 67.2319Z" fill="#6D4930"/>
<path d="M32.4328 52.1197C32.4328 52.1197 33.748 48.783 31.2058 48.2004C31.2058 48.2004 27.7455 48.4387 26.9952 48.8271C26.2449 49.2155 25.3357 49.904 24.912 50.0011C24.4883 50.0982 21.4252 50.1953 21.3017 50.1777C21.1693 50.16 21.1693 50.3895 21.1693 50.9103C21.1693 51.4311 21.8489 52.2786 22.052 52.667C22.2462 53.0553 22.308 53.8763 22.4404 54.2294C22.5728 54.5913 22.8641 55.1739 23.7468 55.4034C24.6295 55.6329 27.004 55.73 27.004 55.73C27.004 55.73 28.7254 55.9595 29.6434 55.2445C30.5526 54.5295 32.4416 52.1197 32.4416 52.1197H32.4328Z" fill="#F1A882"/>
<path d="M21.2928 50.1777C21.1604 50.16 21.1604 50.3896 21.1604 50.9104C21.1604 51.4312 21.8401 52.2786 22.0431 52.667C22.2373 53.0554 22.2991 53.8763 22.4315 54.2294C22.5639 54.5913 22.8552 55.1739 23.7379 55.4034C24.6207 55.6329 26.9952 55.73 26.9952 55.73C26.9952 55.73 27.0217 55.73 27.0746 55.73C26.7215 55.218 26.2449 54.353 25.8918 53.0818C25.5475 51.846 25.371 50.6897 25.2827 49.8334C25.1415 49.9129 25.0091 49.9658 24.912 49.9923C24.4883 50.0894 21.4252 50.1865 21.3016 50.1689L21.2928 50.1777Z" fill="#D78E69"/>
<path d="M13.057 75.3265C13.057 75.3265 12.9422 76.0856 14.3546 76.0768C14.69 76.0768 15.714 76.0768 15.7405 75.9091C15.7846 75.8208 15.8376 75.7237 15.8905 75.6089C16.2348 74.8057 15.202 74.9204 15.202 74.9204C15.202 74.9204 15.202 73.8611 15.4492 71.8927C15.6963 69.9242 16.2436 65.0957 16.5791 63.3744C16.9145 61.6531 15.2903 60.1524 15.2903 60.1524C15.2903 60.1524 15.864 58.7578 16.0582 57.6102C16.2524 56.4627 16.2171 52.7464 16.2171 52.7464C16.2171 52.7464 16.6408 49.7716 15.6345 49.7716C14.6282 49.7716 14.284 51.3341 14.284 51.3341C14.284 51.3341 14.0721 57.4601 14.3458 58.7048C14.6194 59.9494 14.6282 60.1524 14.6282 60.1524C14.6282 60.1524 13.9309 61.1941 13.5425 63.0831C13.1541 64.9721 13.7014 69.6859 13.7014 71.5396V74.5938C13.7014 74.5938 13.4277 74.5938 13.0658 75.3265H13.057Z" fill="#F4AE00"/>
<path d="M17.0116 57.6808C16.685 57.5484 14.6194 57.6632 14.0633 57.4513C13.5072 57.2395 12.8098 55.8536 12.8098 55.8536C12.8098 55.8536 13.2953 56.0213 13.6573 56.1802C14.0192 56.3479 15.5463 56.7628 15.5463 56.7628C15.5463 56.7628 17.0116 56.7628 17.2411 56.4715C17.4794 56.1802 16.7468 55.2975 16.7468 55.2975C16.7468 55.2975 17.1705 55.2975 17.2323 54.8385C17.2941 54.3795 16.8262 53.6468 16.8262 53.6468L17.0381 53.4349C17.1352 52.5522 15.2108 52.0667 15.2108 52.0667C15.2108 52.0667 14.6547 51.4488 14.3281 50.4425C14.0015 49.4362 12.6333 49.1714 12.6333 49.1714L12.1566 48.1827H9.94982C9.64087 48.3858 9.36722 48.6418 9.18185 48.9684C8.50215 50.1777 9.18185 52.0579 9.18185 52.0579C9.18185 52.0579 9.70265 53.9822 9.99395 54.8914C10.2852 55.8006 10.5501 56.4185 11.2739 56.9129C11.9977 57.3984 12.9864 58.3782 13.8691 58.6077C14.7518 58.8372 17.6118 58.7666 17.5854 58.44C17.5589 58.1134 17.3205 57.7868 16.9939 57.6544L17.0116 57.6808Z" fill="#F1A882"/>
<path d="M12.6333 49.1537L12.1743 48.2004H9.96752C9.65857 48.4034 9.38492 48.6594 9.19955 48.986C8.51985 50.1953 9.19955 52.0755 9.19955 52.0755C9.19955 52.0755 9.72036 53.9999 10.0117 54.9091C10.1882 55.4652 10.3559 55.9065 10.6207 56.2861C11.0886 55.8006 11.5741 55.3504 11.5741 55.068C11.5741 54.5825 10.6914 54.6443 11.733 53.6644C12.7746 52.6846 12.9423 53.3378 13.0217 52.4463C13.1012 51.5547 12.7128 50.3807 12.7128 50.0188C12.7128 49.8246 12.651 49.4892 12.6333 49.1449V49.1537Z" fill="#D78E69"/>
<path d="M44.4113 60.2496C44.8968 59.2168 44.4113 58.3252 44.4113 58.3252L43.7934 60.2496H44.4113Z" fill="#4A3323"/>
<path d="M39.2386 60.6909C39.7241 59.6581 39.2386 58.7666 39.2386 58.7666L38.6207 60.6909H39.2386Z" fill="#4A3323"/>
<path d="M38.5148 50.9192C39.0003 49.8864 38.5148 48.9948 38.5148 48.9948L37.8969 50.9192H38.5148Z" fill="#4A3323"/>
<path d="M17.8414 79.3252C16.173 78.769 14.8666 77.4626 14.3458 75.8296C13.825 77.4626 12.5186 78.769 10.8502 79.3252C12.5186 79.8813 13.825 81.1877 14.3458 82.8208C14.8666 81.1877 16.173 79.8813 17.8414 79.3252Z" fill="#F4AE00"/>
</g>
<defs>
<clipPath id="clip0_3556_820">
<rect width="65.4895" height="95" fill="white" transform="translate(0.489563 0.545929)"/>
</clipPath>
</defs>
</svg>
