<svg width="66" height="96" viewBox="0 0 66 96" fill="none" xmlns="http://www.w3.org/2000/svg">
<g clip-path="url(#clip0_3556_1773)">
<rect width="65.4895" height="95" transform="translate(0.489624 0.545929)" fill="white"/>
<path d="M4.9895 0.545929L61.4793 0.545929C63.9602 0.545929 65.9792 2.56485 65.9792 5.04582V91.046C65.9792 93.527 63.9602 95.5459 61.4793 95.5459H4.9895C2.50853 95.5459 0.489624 93.527 0.489624 91.046L0.489624 5.04582C0.489624 2.56485 2.50853 0.545929 4.9895 0.545929Z" fill="white"/>
<path d="M4.09668 33.0459C6.72116 33.9208 8.77513 35.9747 9.59671 38.5459C10.4107 35.9747 12.4722 33.9284 15.0967 33.0459C12.4722 32.1711 10.4183 30.1172 9.59671 27.5459C8.77513 30.1172 6.72116 32.1635 4.09668 33.0459Z" fill="#CB0D07"/>
<path d="M51.4896 63.0459C54.1141 63.9208 56.1681 65.9747 56.9897 68.5459C57.8036 65.9747 59.8652 63.9284 62.4896 63.0459C59.8652 62.1711 57.8112 60.1172 56.9897 57.5459C56.1681 60.1172 54.1141 62.1635 51.4896 63.0459Z" fill="#CB0D07"/>
<path d="M18.4896 23.8494C21.0203 24.693 23.0009 26.6736 23.7932 29.1529C24.578 26.6736 26.5659 24.7003 29.0966 23.8494C26.5659 23.0059 24.5854 21.0253 23.7932 18.5459C23.0009 21.0253 21.0203 22.9985 18.4896 23.8494Z" fill="#CB0D07"/>
<path d="M37.0967 23.8494C39.6274 24.693 41.6079 26.6736 42.4002 29.1529C43.1851 26.6736 45.173 24.7003 47.7037 23.8494C45.173 23.0059 43.1924 21.0253 42.4002 18.5459C41.6079 21.0253 39.6274 22.9985 37.0967 23.8494Z" fill="#CB0D07"/>
<path d="M27.4896 48.4564C30.0203 49.3 32.0009 51.2806 32.7931 53.7599C33.578 51.2806 35.5659 49.3073 38.0966 48.4564C35.5659 47.6128 33.5853 45.6323 32.7931 43.1529C32.0009 45.6323 30.0203 47.6055 27.4896 48.4564Z" fill="#CB0D07"/>
<path d="M18.4896 73.0634C21.0203 73.907 23.0009 75.8875 23.7932 78.3669C24.578 75.8875 26.5659 73.9143 29.0966 73.0634C26.5659 72.2198 24.5854 70.2393 23.7932 67.7599C23.0009 70.2393 21.0203 72.2125 18.4896 73.0634Z" fill="#CB0D07"/>
<path d="M37.0967 73.0634C39.6274 73.907 41.6079 75.8875 42.4002 78.3669C43.1851 75.8875 45.173 73.9143 47.7037 73.0634C45.173 72.2198 43.1924 70.2393 42.4002 67.7599C41.6079 70.2393 39.6274 72.2125 37.0967 73.0634Z" fill="#CB0D07"/>
<path d="M9.57126 24.5459C8.78408 24.5459 8.14268 24.4293 7.64706 24.1961C7.15143 23.9628 6.71411 23.6421 6.42257 23.234C6.10187 22.8258 5.86863 22.3593 5.72286 21.7762C5.57709 21.2223 5.48962 20.6101 5.48962 19.9687L7.73452 19.648C7.73452 20.0561 7.73452 20.4351 7.79283 20.785C7.82199 21.1348 7.90945 21.4264 8.05522 21.6596C8.20099 21.8929 8.37592 22.0969 8.63831 22.2427C8.87155 22.3885 9.2214 22.4468 9.65872 22.4468C10.1543 22.4468 10.5625 22.301 10.8832 21.9803C11.2039 21.6596 11.3788 21.1348 11.408 20.3477V15.2456C11.408 14.1378 10.8541 13.5547 9.74618 13.5547C9.30886 13.5547 8.92986 13.6421 8.63831 13.8462C8.34677 14.0503 8.11353 14.3127 7.96776 14.6625H6.0144V4.54593H13.682V6.55759H7.99691V12.5343H8.14268C8.43423 12.2427 8.78408 12.0386 9.19225 11.8929C9.60041 11.7471 10.0377 11.6888 10.475 11.6888C11.5829 11.6888 12.3992 12.0095 12.8657 12.6217C13.3613 13.234 13.5946 14.0211 13.5946 14.9249V20.2602C13.5946 21.0182 13.478 21.6596 13.2739 22.2136C13.0698 22.7675 12.7783 23.2048 12.3992 23.5255C12.0202 23.8754 11.6121 24.1086 11.1164 24.2835C10.6208 24.4585 10.1252 24.5168 9.57126 24.5168V24.5459Z" fill="#CB0D07"/>
<path d="M56.6004 71.5459C57.3875 71.5459 58.0289 71.6625 58.5246 71.8958C59.0202 72.129 59.4575 72.4497 59.7491 72.8579C60.0698 73.266 60.303 73.7325 60.4488 74.3156C60.5945 74.8695 60.682 75.4818 60.682 76.1232L58.4371 76.4439C58.4371 76.0357 58.4371 75.6567 58.3788 75.3069C58.3496 74.957 58.2622 74.6655 58.1164 74.4322C57.9706 74.199 57.7957 73.9949 57.5333 73.8491C57.3001 73.7034 56.9502 73.6451 56.5129 73.6451C56.0173 73.6451 55.6091 73.7908 55.2884 74.1115C54.9677 74.4322 54.7928 74.957 54.7636 75.7442L54.7636 80.8462C54.7636 81.9541 55.3176 82.5372 56.4254 82.5372C56.8628 82.5372 57.2418 82.4497 57.5333 82.2456C57.8249 82.0416 58.0581 81.7792 58.2039 81.4293L60.1572 81.4293L60.1572 91.5459L52.4896 91.5459L52.4896 89.5343L58.1747 89.5343L58.1747 83.5576L58.0289 83.5576C57.7374 83.8491 57.3875 84.0532 56.9794 84.199C56.5712 84.3448 56.1339 84.4031 55.6966 84.4031C54.5887 84.4031 53.7724 84.0824 53.3059 83.4701C52.8103 82.8579 52.5771 82.0707 52.5771 81.1669L52.5771 75.8316C52.5771 75.0736 52.6937 74.4322 52.8978 73.8783C53.1018 73.3244 53.3934 72.887 53.7724 72.5663C54.1514 72.2165 54.5596 71.9832 55.0552 71.8083C55.5508 71.6334 56.0464 71.5751 56.6004 71.5751L56.6004 71.5459Z" fill="#CB0D07"/>
</g>
<defs>
<clipPath id="clip0_3556_1773">
<rect width="65.4895" height="95" fill="white" transform="translate(0.489624 0.545929)"/>
</clipPath>
</defs>
</svg>
