<svg width="66" height="96" viewBox="0 0 66 96" fill="none" xmlns="http://www.w3.org/2000/svg">
<g clip-path="url(#clip0_3556_805)">
<rect width="65.4895" height="95" transform="translate(0.489624 0.545898)" fill="white"/>
<path d="M4.9895 0.545898L61.4793 0.545898C63.9602 0.545898 65.9792 2.56482 65.9792 5.04579V91.046C65.9792 93.527 63.9602 95.5459 61.4793 95.5459H4.9895C2.50853 95.5459 0.489624 93.527 0.489624 91.046L0.489624 5.04579C0.489624 2.56482 2.50853 0.545898 4.9895 0.545898Z" fill="white"/>
<path d="M9.30288 37.6821C9.93956 34.4634 14.6792 33.5261 14.6616 29.9359C14.6616 28.4857 13.4943 27.3185 12.0441 27.3185C10.7 27.3185 9.65659 28.3089 9.30288 29.5999C8.96686 28.3089 7.90571 27.3185 6.56162 27.3185C5.11141 27.3185 3.94421 28.4857 3.94421 29.9359C3.94421 33.5791 8.64852 34.428 9.30288 37.6821Z" fill="#CB0D07"/>
<path d="M23.5525 28.0817C24.1295 25.1225 28.4943 24.257 28.4869 20.9575C28.4869 19.6259 27.4068 18.5458 26.0752 18.5458C24.8471 18.5458 23.8706 19.4631 23.5599 20.6542C23.2418 19.4705 22.2727 18.5458 21.0372 18.5458C19.7056 18.5458 18.6255 19.6259 18.6255 20.9575C18.6181 24.3013 22.9533 25.0929 23.5599 28.0817H23.5525Z" fill="#CB0D07"/>
<path d="M42.4391 28.0817C43.0162 25.1151 47.381 24.257 47.3736 20.9575C47.3736 19.6259 46.2935 18.5458 44.9618 18.5458C43.7338 18.5458 42.7573 19.4631 42.4465 20.6542C42.1284 19.4705 41.1593 18.5458 39.9313 18.5458C38.5996 18.5458 37.5195 19.6259 37.5195 20.9575C37.5121 24.3013 41.8473 25.0929 42.454 28.0817H42.4391Z" fill="#CB0D07"/>
<path d="M23.5528 68.2114C24.1298 71.178 28.4946 72.0361 28.4872 75.3356C28.4872 76.6672 27.4071 77.7473 26.0754 77.7473C24.8474 77.7473 23.8709 76.83 23.5602 75.6389C23.242 76.83 22.2729 77.7473 21.0375 77.7473C19.7058 77.7473 18.6257 76.6672 18.6257 75.3356C18.6183 71.9918 22.9535 71.2002 23.5602 68.2114H23.5528Z" fill="#CB0D07"/>
<path d="M23.553 42.2914C24.13 45.2579 28.4948 46.1161 28.4874 49.4156C28.4874 50.7472 27.4073 51.8273 26.0757 51.8273C24.8476 51.8273 23.8711 50.9099 23.5604 49.7189C23.2423 50.9099 22.2732 51.8273 21.0377 51.8273C19.7061 51.8273 18.626 50.7472 18.626 49.4156C18.6186 46.0717 22.9538 45.2801 23.5604 42.2914H23.553Z" fill="#CB0D07"/>
<path d="M42.4396 68.3223C43.0167 71.2889 47.3814 72.147 47.374 75.4539C47.374 76.7855 46.2939 77.8656 44.9623 77.8656C43.7343 77.8656 42.7577 76.9483 42.447 75.7572C42.1289 76.9483 41.1598 77.8656 39.9318 77.8656C38.6001 77.8656 37.52 76.7855 37.52 75.4539C37.5126 72.1101 41.8478 71.3259 42.4544 68.3223H42.4396Z" fill="#CB0D07"/>
<path d="M42.4398 42.2911C43.0168 45.2577 47.3816 46.1158 47.3742 49.4153C47.3742 50.7469 46.2941 51.827 44.9624 51.827C43.7344 51.827 42.7579 50.9097 42.4472 49.7186C42.129 50.9097 41.1599 51.827 39.9319 51.827C38.6003 51.827 37.5202 50.7469 37.5202 49.4153C37.5128 46.0714 41.8479 45.2799 42.4546 42.2911H42.4398Z" fill="#CB0D07"/>
<path d="M8.59645 13.5632C9.00243 13.2732 9.46634 13.0992 10.0753 13.0992C10.6843 13.0992 11.2062 13.1862 11.6122 13.3892C12.0182 13.5922 12.3372 13.8532 12.5982 14.2012C12.8302 14.5492 13.0042 14.9261 13.1202 15.3901C13.2362 15.8541 13.2651 16.3181 13.2651 16.811L13.2651 20.9288C13.2651 21.5378 13.1492 22.0887 12.9462 22.5817C12.7142 23.0457 12.4242 23.4516 12.0762 23.7706C11.6992 24.0896 11.2932 24.3216 10.8003 24.4956C10.3363 24.6696 9.81435 24.7276 9.29238 24.7276C8.01646 24.7276 7.05948 24.4086 6.36352 23.7706C5.66757 23.1327 5.31963 22.1757 5.31963 20.9288L5.31963 17.652C5.31963 16.811 5.37762 16.0861 5.49361 15.5351C5.6096 14.9841 5.75458 14.4622 5.92857 14.0272L9.58238 4.83473L11.8442 4.83473L8.56743 13.4472L8.65442 13.5342L8.59645 13.5632ZM11.0323 16.695C11.0323 16.2021 10.8583 15.8251 10.5393 15.5351C10.2203 15.2451 9.81435 15.1001 9.29238 15.1001C8.9444 15.1001 8.68339 15.1581 8.45141 15.3031C8.21942 15.4481 8.04542 15.5931 7.90043 15.7961C7.75544 15.9991 7.66852 16.2311 7.61052 16.4631C7.55252 16.724 7.52353 16.956 7.52353 17.217L7.52353 21.1318C7.52353 21.6248 7.69747 22.0017 8.01645 22.2917C8.33543 22.5527 8.77038 22.6977 9.26336 22.6977C9.75633 22.6977 10.1914 22.5527 10.5104 22.2917C10.8293 22.0017 11.0033 21.6248 11.0033 21.1318L11.0033 16.724L11.0323 16.695Z" fill="#CB0D07"/>
<path d="M56.8022 58.4092C56.1655 61.628 51.4259 62.5653 51.4435 66.1554C51.4435 67.6056 52.6108 68.7729 54.061 68.7729C55.4051 68.7729 56.4485 67.7825 56.8022 66.4914C57.1382 67.7825 58.1994 68.7729 59.5435 68.7729C60.9937 68.7729 62.1609 67.6056 62.1609 66.1554C62.1609 62.5122 57.4566 61.6633 56.8022 58.4092Z" fill="#CB0D07"/>
<path d="M57.5083 82.528C57.1023 82.8179 56.6384 82.9919 56.0294 82.9919C55.4205 82.9919 54.8985 82.9049 54.4925 82.702C54.0865 82.499 53.7675 82.238 53.5065 81.89C53.2745 81.542 53.1005 81.165 52.9846 80.7011C52.8686 80.2371 52.8396 79.7731 52.8396 79.2802V75.1624C52.8396 74.5534 52.9556 74.0025 53.1585 73.5095C53.3905 73.0455 53.6806 72.6395 54.0285 72.3206C54.4055 72.0016 54.8115 71.7696 55.3045 71.5956C55.7684 71.4216 56.2904 71.3636 56.8124 71.3636C58.0883 71.3636 59.0453 71.6826 59.7412 72.3206C60.4372 72.9585 60.7851 73.9155 60.7851 75.1624V78.4392C60.7851 79.2802 60.7271 80.0051 60.6111 80.5561C60.4951 81.1071 60.3502 81.629 60.1762 82.064L56.5224 91.2565H54.2605L57.5373 82.644L57.4503 82.557L57.5083 82.528ZM55.0724 79.3961C55.0724 79.8891 55.2465 80.2661 55.5654 80.5561C55.8844 80.8461 56.2904 80.9911 56.8124 80.9911C57.1603 80.9911 57.4213 80.9331 57.6533 80.7881C57.8853 80.6431 58.0593 80.4981 58.2043 80.2951C58.3493 80.0921 58.4362 79.8601 58.4942 79.6281C58.5522 79.3672 58.5812 79.1352 58.5812 78.8742V74.9594C58.5812 74.4664 58.4073 74.0895 58.0883 73.7995C57.7693 73.5385 57.3344 73.3935 56.8414 73.3935C56.3484 73.3935 55.9134 73.5385 55.5944 73.7995C55.2754 74.0895 55.1015 74.4664 55.1015 74.9594V79.3672L55.0724 79.3961Z" fill="#CB0D07"/>
</g>
<defs>
<clipPath id="clip0_3556_805">
<rect width="65.4895" height="95" fill="white" transform="translate(0.489624 0.545898)"/>
</clipPath>
</defs>
</svg>
