<svg width="66" height="96" viewBox="0 0 66 96" fill="none" xmlns="http://www.w3.org/2000/svg">
<g clip-path="url(#clip0_3556_1760)">
<rect width="65.4895" height="95" transform="translate(0.489624 0.545898)" fill="white"/>
<path d="M4.9895 0.545898L61.4793 0.545898C63.9602 0.545898 65.9792 2.56482 65.9792 5.04579V91.046C65.9792 93.527 63.9602 95.5459 61.4793 95.5459H4.9895C2.50853 95.5459 0.489624 93.527 0.489624 91.046L0.489624 5.04579C0.489624 2.56482 2.50853 0.545898 4.9895 0.545898Z" fill="white"/>
<path d="M9.57126 24.5459C8.78408 24.5459 8.14268 24.4293 7.64706 24.196C7.15143 23.9628 6.71411 23.6421 6.42257 23.2339C6.10187 22.8258 5.86863 22.3593 5.72286 21.7762C5.57709 21.2223 5.48962 20.61 5.48962 19.9686L7.73452 19.6479C7.73452 20.0561 7.73452 20.4351 7.79283 20.785C7.82199 21.1348 7.90945 21.4264 8.05522 21.6596C8.20099 21.8928 8.37592 22.0969 8.63831 22.2427C8.87155 22.3885 9.2214 22.4468 9.65872 22.4468C10.1543 22.4468 10.5625 22.301 10.8832 21.9803C11.2039 21.6596 11.3788 21.1348 11.408 20.3476V15.2456C11.408 14.1377 10.8541 13.5546 9.74618 13.5546C9.30886 13.5546 8.92986 13.6421 8.63831 13.8462C8.34677 14.0503 8.11353 14.3127 7.96776 14.6625H6.0144V4.5459H13.682V6.55756H7.99691V12.5342H8.14268C8.43423 12.2427 8.78408 12.0386 9.19225 11.8928C9.60041 11.7471 10.0377 11.6888 10.475 11.6888C11.5829 11.6888 12.3992 12.0095 12.8657 12.6217C13.3613 13.2339 13.5946 14.0211 13.5946 14.9249V20.2602C13.5946 21.0182 13.478 21.6596 13.2739 22.2135C13.0698 22.7675 12.7783 23.2048 12.3992 23.5255C12.0202 23.8753 11.6121 24.1086 11.1164 24.2835C10.6208 24.4584 10.1252 24.5167 9.57126 24.5167V24.5459Z" fill="#CB0D07"/>
<path d="M56.6004 71.5459C57.3875 71.5459 58.0289 71.6625 58.5246 71.8958C59.0202 72.129 59.4575 72.4497 59.7491 72.8579C60.0698 73.266 60.303 73.7325 60.4488 74.3156C60.5945 74.8695 60.682 75.4818 60.682 76.1232L58.4371 76.4439C58.4371 76.0357 58.4371 75.6567 58.3788 75.3068C58.3496 74.957 58.2622 74.6654 58.1164 74.4322C57.9706 74.199 57.7957 73.9949 57.5333 73.8491C57.3001 73.7033 56.9502 73.645 56.5129 73.645C56.0173 73.645 55.6091 73.7908 55.2884 74.1115C54.9677 74.4322 54.7928 74.957 54.7636 75.7442L54.7636 80.8462C54.7636 81.9541 55.3176 82.5372 56.4254 82.5372C56.8628 82.5372 57.2418 82.4497 57.5333 82.2456C57.8249 82.0415 58.0581 81.7791 58.2039 81.4293L60.1572 81.4293L60.1572 91.5459L52.4896 91.5459L52.4896 89.5342L58.1747 89.5342L58.1747 83.5576L58.0289 83.5576C57.7374 83.8491 57.3875 84.0532 56.9794 84.199C56.5712 84.3447 56.1339 84.403 55.6966 84.403C54.5887 84.403 53.7724 84.0823 53.3059 83.4701C52.8103 82.8579 52.5771 82.0707 52.5771 81.1669L52.5771 75.8316C52.5771 75.0736 52.6937 74.4322 52.8978 73.8783C53.1018 73.3243 53.3934 72.887 53.7724 72.5663C54.1514 72.2165 54.5596 71.9832 55.0552 71.8083C55.5508 71.6334 56.0464 71.5751 56.6004 71.5751L56.6004 71.5459Z" fill="#CB0D07"/>
<path d="M9.30288 37.6821C9.93956 34.4634 14.6792 33.5261 14.6616 29.9359C14.6616 28.4857 13.4943 27.3185 12.0441 27.3185C10.7 27.3185 9.65659 28.3089 9.30288 29.5999C8.96686 28.3089 7.90571 27.3185 6.56162 27.3185C5.11141 27.3185 3.94421 28.4857 3.94421 29.9359C3.94421 33.5791 8.64852 34.428 9.30288 37.6821Z" fill="#CB0D07"/>
<path d="M23.5525 28.0817C24.1295 25.1225 28.4943 24.257 28.4869 20.9575C28.4869 19.6259 27.4068 18.5458 26.0752 18.5458C24.8471 18.5458 23.8706 19.4631 23.5599 20.6542C23.2418 19.4705 22.2727 18.5458 21.0372 18.5458C19.7056 18.5458 18.6255 19.6259 18.6255 20.9575C18.6181 24.3013 22.9533 25.0929 23.5599 28.0817H23.5525Z" fill="#CB0D07"/>
<path d="M42.4391 28.0817C43.0162 25.1151 47.381 24.257 47.3736 20.9575C47.3736 19.6259 46.2935 18.5458 44.9618 18.5458C43.7338 18.5458 42.7573 19.4631 42.4465 20.6542C42.1284 19.4705 41.1593 18.5458 39.9313 18.5458C38.5996 18.5458 37.5195 19.6259 37.5195 20.9575C37.5121 24.3013 41.8473 25.0929 42.454 28.0817H42.4391Z" fill="#CB0D07"/>
<path d="M23.5528 68.2114C24.1298 71.178 28.4946 72.0361 28.4872 75.3356C28.4872 76.6672 27.4071 77.7473 26.0754 77.7473C24.8474 77.7473 23.8709 76.83 23.5602 75.6389C23.242 76.83 22.2729 77.7473 21.0375 77.7473C19.7058 77.7473 18.6257 76.6672 18.6257 75.3356C18.6183 71.9918 22.9535 71.2002 23.5602 68.2114H23.5528Z" fill="#CB0D07"/>
<path d="M42.4396 68.3223C43.0167 71.2889 47.3814 72.147 47.374 75.4539C47.374 76.7855 46.2939 77.8656 44.9623 77.8656C43.7343 77.8656 42.7577 76.9483 42.447 75.7572C42.1289 76.9483 41.1598 77.8656 39.9318 77.8656C38.6001 77.8656 37.52 76.7855 37.52 75.4539C37.5126 72.1101 41.8478 71.3259 42.4544 68.3223H42.4396Z" fill="#CB0D07"/>
<path d="M33.57 51.827C32.993 48.8605 28.6282 48.0023 28.6356 44.7028C28.6356 43.3712 29.7157 42.2911 31.0473 42.2911C32.2754 42.2911 33.2519 43.2085 33.5626 44.3995C33.8807 43.2085 34.8498 42.2911 36.0779 42.2911C37.4095 42.2911 38.4896 43.3712 38.4896 44.7028C38.497 48.0467 34.1618 48.8383 33.5552 51.827L33.57 51.827Z" fill="#CB0D07"/>
<path d="M56.8022 58.4092C56.1655 61.628 51.4259 62.5653 51.4435 66.1554C51.4435 67.6056 52.6108 68.7729 54.061 68.7729C55.4051 68.7729 56.4485 67.7825 56.8022 66.4914C57.1382 67.7825 58.1994 68.7729 59.5435 68.7729C60.9937 68.7729 62.1609 67.6056 62.1609 66.1554C62.1609 62.5122 57.4566 61.6633 56.8022 58.4092Z" fill="#CB0D07"/>
</g>
<defs>
<clipPath id="clip0_3556_1760">
<rect width="65.4895" height="95" fill="white" transform="translate(0.489624 0.545898)"/>
</clipPath>
</defs>
</svg>
