<svg width="66" height="96" viewBox="0 0 66 96" fill="none" xmlns="http://www.w3.org/2000/svg">
<g clip-path="url(#clip0_3556_1856)">
<rect width="65.4895" height="95" transform="translate(0.489624 0.545898)" fill="white"/>
<path d="M4.9895 0.545898L61.4793 0.545898C63.9602 0.545898 65.9792 2.56482 65.9792 5.04579V91.046C65.9792 93.527 63.9602 95.5459 61.4793 95.5459H4.9895C2.50853 95.5459 0.489624 93.527 0.489624 91.046L0.489624 5.04579C0.489624 2.56482 2.50853 0.545898 4.9895 0.545898Z" fill="white"/>
<path d="M9.84077 6.70961C9.19749 6.70961 8.72965 7.00201 8.46649 7.52832C8.20334 8.05464 8.05714 8.84411 8.05714 9.89674V10.0722L5.80566 9.66286V9.54588C5.80566 8.78564 5.89339 8.11309 6.03959 7.49906C6.18579 6.88502 6.4197 6.35868 6.77058 5.92008C7.09222 5.48149 7.53082 5.13068 8.05714 4.89676C8.58346 4.66284 9.19749 4.5459 9.92848 4.5459C10.6595 4.5459 11.3028 4.66281 11.7998 4.86749C12.3261 5.07217 12.7355 5.36453 13.0572 5.74465C13.3788 6.12477 13.6127 6.59261 13.7589 7.11892C13.9051 7.67448 13.9636 8.25935 13.9636 8.93187C13.9636 10.5108 13.6127 12.0313 12.8817 13.4933L8.43727 22.4698H13.8174V24.5459H5.86416V22.5868L11.0103 12.2944C11.2735 11.7681 11.449 11.2418 11.5075 10.657C11.5659 10.1014 11.5952 9.5166 11.5952 8.96104C11.5952 8.69789 11.5952 8.43473 11.5367 8.14233C11.5074 7.84994 11.4197 7.61602 11.3028 7.41134C11.1858 7.20666 11.0104 7.002 10.7765 6.88505C10.5425 6.73885 10.2209 6.68035 9.81154 6.68035L9.84077 6.70961Z" fill="#CB0D07"/>
<path d="M56.6124 89.3822C57.2556 89.3822 57.7235 89.0898 57.9866 88.5635C58.2498 88.0372 58.396 87.2477 58.396 86.1951L58.396 86.0196L60.6475 86.4289L60.6475 86.5459C60.6475 87.3062 60.5597 87.9787 60.4135 88.5927C60.2673 89.2068 60.0334 89.7331 59.6825 90.1717C59.3609 90.6103 58.9223 90.9611 58.396 91.195C57.8697 91.429 57.2556 91.5459 56.5246 91.5459C55.7936 91.5459 55.1504 91.429 54.6533 91.2243C54.127 91.0196 53.7176 90.7273 53.396 90.3471C53.0743 89.967 52.8404 89.4992 52.6942 88.9729C52.548 88.4173 52.4895 87.8324 52.4895 87.1599C52.4895 85.581 52.8404 84.0605 53.5714 82.5985L58.0159 73.622L52.6357 73.622L52.6357 71.5459L60.589 71.5459L60.589 73.505L55.4428 83.7974C55.1796 84.3237 55.0041 84.85 54.9457 85.4348C54.8872 85.9904 54.858 86.5752 54.858 87.1308C54.858 87.3939 54.858 87.6571 54.9164 87.9495C54.9457 88.2419 55.0334 88.4758 55.1504 88.6805C55.2673 88.8851 55.4427 89.0898 55.6767 89.2068C55.9106 89.353 56.2322 89.4115 56.6416 89.4115L56.6124 89.3822Z" fill="#CB0D07"/>
<path d="M9.30288 37.6821C9.93956 34.4634 14.6792 33.5261 14.6616 29.9359C14.6616 28.4857 13.4943 27.3185 12.0441 27.3185C10.7 27.3185 9.65659 28.3089 9.30288 29.5999C8.96686 28.3089 7.90571 27.3185 6.56162 27.3185C5.11141 27.3185 3.94421 28.4857 3.94421 29.9359C3.94421 33.5791 8.64852 34.428 9.30288 37.6821Z" fill="#CB0D07"/>
<path d="M33.4166 28.0817C33.9937 25.1225 38.3585 24.257 38.3511 20.9575C38.3511 19.6259 37.271 18.5458 35.9393 18.5458C34.7113 18.5458 33.7348 19.4631 33.424 20.6542C33.1059 19.4705 32.1368 18.5458 30.9014 18.5458C29.5697 18.5458 28.4896 19.6259 28.4896 20.9575C28.4822 24.3013 32.8174 25.0929 33.424 28.0817H33.4166Z" fill="#CB0D07"/>
<path d="M33.4166 68.2114C33.9937 71.178 38.3585 72.0361 38.3511 75.3356C38.3511 76.6672 37.271 77.7473 35.9393 77.7473C34.7113 77.7473 33.7348 76.83 33.424 75.6389C33.1059 76.83 32.1368 77.7473 30.9014 77.7473C29.5697 77.7473 28.4896 76.6672 28.4896 75.3356C28.4822 71.9918 32.8174 71.2002 33.424 68.2114H33.4166Z" fill="#CB0D07"/>
<path d="M56.8022 58.4092C56.1655 61.628 51.4259 62.5653 51.4435 66.1554C51.4435 67.6056 52.6108 68.7729 54.061 68.7729C55.4051 68.7729 56.4485 67.7825 56.8022 66.4914C57.1382 67.7825 58.1994 68.7729 59.5435 68.7729C60.9937 68.7729 62.1609 67.6056 62.1609 66.1554C62.1609 62.5122 57.4566 61.6633 56.8022 58.4092Z" fill="#CB0D07"/>
</g>
<defs>
<clipPath id="clip0_3556_1856">
<rect width="65.4895" height="95" fill="white" transform="translate(0.489624 0.545898)"/>
</clipPath>
</defs>
</svg>
