<svg width="66" height="96" viewBox="0 0 66 96" fill="none" xmlns="http://www.w3.org/2000/svg">
<g clip-path="url(#clip0_3556_789)">
<rect width="65.4895" height="95" transform="translate(0.489624 0.545898)" fill="white"/>
<path d="M4.9895 0.545898L61.4793 0.545898C63.9602 0.545898 65.9792 2.56482 65.9792 5.04579V91.046C65.9792 93.527 63.9602 95.5459 61.4793 95.5459H4.9895C2.50853 95.5459 0.489624 93.527 0.489624 91.046L0.489624 5.04579C0.489624 2.56482 2.50853 0.545898 4.9895 0.545898Z" fill="white"/>
<path d="M8.8646 24.5458H6.48605L11.9825 6.58117H7.64315V8.97056H5.48962V4.54578H14.4896V6.40418L8.89677 24.5458H8.8646Z" fill="#CB0D07"/>
<path d="M57.1147 71.5458L59.4932 71.5458L53.9968 89.5104L58.3361 89.5104L58.3361 87.121L60.4896 87.121L60.4896 91.5458L51.4896 91.5458L51.4896 89.6874L57.0825 71.5458L57.1147 71.5458Z" fill="#CB0D07"/>
<path d="M9.30288 37.6821C9.93956 34.4634 14.6792 33.5261 14.6616 29.9359C14.6616 28.4857 13.4943 27.3185 12.0441 27.3185C10.7 27.3185 9.65659 28.3089 9.30288 29.5999C8.96686 28.3089 7.90571 27.3185 6.56162 27.3185C5.11141 27.3185 3.94421 28.4857 3.94421 29.9359C3.94421 33.5791 8.64852 34.428 9.30288 37.6821Z" fill="#CB0D07"/>
<path d="M56.8022 58.4092C56.1655 61.628 51.4259 62.5653 51.4435 66.1554C51.4435 67.6056 52.6108 68.7729 54.061 68.7729C55.4051 68.7729 56.4485 67.7825 56.8022 66.4914C57.1382 67.7825 58.1994 68.7729 59.5435 68.7729C60.9937 68.7729 62.1609 67.6056 62.1609 66.1554C62.1609 62.5122 57.4566 61.6633 56.8022 58.4092Z" fill="#CB0D07"/>
<path d="M23.5525 28.0818C24.1295 25.1226 28.4943 24.2571 28.4869 20.9576C28.4869 19.626 27.4068 18.5459 26.0752 18.5459C24.8471 18.5459 23.8706 19.4632 23.5599 20.6543C23.2418 19.4706 22.2727 18.5459 21.0372 18.5459C19.7056 18.5459 18.6255 19.626 18.6255 20.9576C18.6181 24.3015 22.9533 25.093 23.5599 28.0818H23.5525Z" fill="#CB0D07"/>
<path d="M42.4391 28.0818C43.0162 25.1152 47.381 24.2571 47.3736 20.9576C47.3736 19.626 46.2935 18.5459 44.9618 18.5459C43.7338 18.5459 42.7573 19.4632 42.4465 20.6543C42.1284 19.4706 41.1593 18.5459 39.9313 18.5459C38.5996 18.5459 37.5195 19.626 37.5195 20.9576C37.5121 24.3015 41.8473 25.093 42.454 28.0818H42.4391Z" fill="#CB0D07"/>
<path d="M23.5528 67.2115C24.1298 70.1781 28.4946 71.0363 28.4872 74.3357C28.4872 75.6674 27.4071 76.7474 26.0754 76.7474C24.8474 76.7474 23.8709 75.8301 23.5602 74.639C23.242 75.8301 22.2729 76.7474 21.0375 76.7474C19.7058 76.7474 18.6257 75.6674 18.6257 74.3357C18.6183 70.9919 22.9535 70.2003 23.5602 67.2115H23.5528Z" fill="#CB0D07"/>
<path d="M42.4471 51.8271C41.8701 48.8605 37.5053 48.0024 37.5127 44.7029C37.5127 43.3713 38.5928 42.2912 39.9244 42.2912C41.1525 42.2912 42.129 43.2085 42.4397 44.3996C42.7578 43.2085 43.727 42.2912 44.9624 42.2912C46.294 42.2912 47.3741 43.3713 47.3741 44.7029C47.3815 48.0468 43.0464 48.8383 42.4397 51.8271L42.4471 51.8271Z" fill="#CB0D07"/>
<path d="M42.4396 67.3224C43.0167 70.289 47.3814 71.1472 47.374 74.454C47.374 75.7857 46.2939 76.8657 44.9623 76.8657C43.7343 76.8657 42.7577 75.9484 42.447 74.7573C42.1289 75.9484 41.1598 76.8657 39.9318 76.8657C38.6001 76.8657 37.52 75.7857 37.52 74.454C37.5126 71.1102 41.8478 70.326 42.4544 67.3224H42.4396Z" fill="#CB0D07"/>
<path d="M23.5605 51.8274C22.9835 48.8608 18.6187 48.0027 18.6261 44.7032C18.6261 43.3716 19.7062 42.2915 21.0378 42.2915C22.2659 42.2915 23.2424 43.2088 23.5531 44.3999C23.8712 43.2088 24.8403 42.2915 26.0684 42.2915C27.4 42.2915 28.4801 43.3716 28.4801 44.7032C28.4875 48.0471 24.1523 48.8386 23.5457 51.8274L23.5605 51.8274Z" fill="#CB0D07"/>
<path d="M33.424 40.0818C32.847 37.1152 28.4822 36.2571 28.4896 32.9576C28.4896 31.626 29.5697 30.5459 30.9013 30.5459C32.1294 30.5459 33.1059 31.4632 33.4166 32.6543C33.7347 31.4632 34.7038 30.5459 35.9319 30.5459C37.2635 30.5459 38.3436 31.626 38.3436 32.9576C38.351 36.3015 34.0158 37.093 33.4092 40.0818L33.424 40.0818Z" fill="#CB0D07"/>
</g>
<defs>
<clipPath id="clip0_3556_789">
<rect width="65.4895" height="95" fill="white" transform="translate(0.489624 0.545898)"/>
</clipPath>
</defs>
</svg>
