<svg width="66" height="96" viewBox="0 0 66 96" fill="none" xmlns="http://www.w3.org/2000/svg">
<g clip-path="url(#clip0_3556_561)">
<rect width="65.4895" height="95" transform="translate(0.489563 0.545898)" fill="white"/>
<path d="M4.98944 0.545898L61.4792 0.545898C63.9602 0.545898 65.9791 2.56482 65.9791 5.04579V91.046C65.9791 93.527 63.9602 95.5459 61.4792 95.5459H4.98944C2.50847 95.5459 0.489563 93.527 0.489563 91.046L0.489563 5.04579C0.489563 2.56482 2.50847 0.545898 4.98944 0.545898Z" fill="white"/>
<path d="M43.7376 14.3377C43.4598 14.355 43.5726 13.6953 43.3209 13.3828C43.3035 13.3654 43.2862 13.3567 43.2688 13.348C43.3556 13.3741 43.4511 13.3828 43.5466 13.3654C43.8331 13.2959 43.998 13.0095 43.9285 12.723C43.8591 12.4365 43.5726 12.2716 43.2862 12.341C42.9997 12.4105 42.8348 12.697 42.9042 12.9834C42.9389 13.1136 43.0171 13.2178 43.1212 13.2873C42.8434 13.2439 42.4702 13.4869 42.2271 13.3914C41.9319 13.2699 42.1316 12.6796 41.6889 12.4105C41.7583 12.4192 41.8278 12.4105 41.8972 12.4018C42.1837 12.3324 42.3486 12.0459 42.2792 11.7594C42.2097 11.4729 41.9232 11.308 41.6368 11.3775C41.3503 11.4469 41.1854 11.7334 41.2548 12.0198C41.2895 12.1587 41.3763 12.2716 41.4892 12.341C41.1159 12.3237 41.0551 13.0268 40.3173 12.9661C39.4926 12.8966 40.0829 11.8549 39.0933 11.7594C39.0672 11.7594 39.0585 11.7594 39.0325 11.7594C39.1887 11.0823 40.1871 10.874 40.1784 10.11C40.1784 9.79752 39.9266 9.54578 39.6141 9.54578C39.3276 9.54578 39.1019 9.7628 39.0238 10.0406C38.9457 9.7628 38.72 9.54578 38.4335 9.54578C38.121 9.54578 37.8692 9.79752 37.8692 10.11C37.8692 10.8826 38.8589 11.0736 39.0151 11.7594C38.1297 11.7247 38.4335 12.7404 37.8258 12.9661C37.2182 13.1918 37.0966 12.315 36.6626 12.3844C36.9317 12.3063 37.0966 12.0285 37.0272 11.7507C36.9577 11.4643 36.6713 11.2993 36.3848 11.3688C36.0983 11.4382 35.9334 11.7247 36.0028 12.0112C36.0723 12.289 36.3414 12.4452 36.6192 12.3931C36.2025 12.532 36.4369 13.4001 36.0897 13.5911C35.7598 13.7647 35.5775 13.2699 35.1781 13.2786C35.3604 13.157 35.4646 12.9313 35.4125 12.7056C35.3431 12.4192 35.0566 12.2542 34.7701 12.3237C34.4837 12.3931 34.3187 12.6796 34.3882 12.9661C34.449 13.2178 34.692 13.3741 34.9438 13.3567C34.666 13.5824 34.8917 14.1901 34.8396 14.3637C34.7875 14.5547 34.4837 14.4505 34.1538 14.5373C33.8239 14.6241 33.9455 15.2144 33.9455 15.2144C33.9455 15.2144 36.0462 14.7023 38.8589 14.3984C41.6715 14.0859 43.998 15.579 43.998 15.579C43.998 15.579 44.6751 14.8498 44.5883 14.4939C44.5015 14.138 44.0154 14.3377 43.7376 14.355V14.3377Z" fill="#FFC33E"/>
<path d="M45.0744 13.9818C45.0224 13.7908 44.8227 13.6692 44.6317 13.7213C44.4407 13.7734 44.3192 13.9731 44.3713 14.1641C44.4234 14.355 44.623 14.4766 44.814 14.4245C45.005 14.3724 45.1265 14.1727 45.0744 13.9818Z" fill="#FFC33E"/>
<path d="M34.1799 14.2075C34.1278 14.0165 33.9281 13.8949 33.7371 13.947C33.5461 13.9991 33.4246 14.1988 33.4767 14.3898C33.5288 14.5807 33.7284 14.7023 33.9194 14.6502C34.1104 14.5981 34.2319 14.3984 34.1799 14.2075Z" fill="#FFC33E"/>
<path d="M30.8377 21.1696C30.8377 21.1696 29.0147 25.3972 27.8081 26.5778C26.5927 27.7584 22.6255 27.9667 19.6219 32.9149C19.1705 33.6528 15.8718 43.0282 15.8284 44.4953C15.7849 45.9623 21.9311 45.4762 21.9311 45.4762L55.4135 46.9607C55.4135 46.9607 56.0906 43.332 54.9273 40.9361C53.7641 38.5401 51.047 32.0728 49.4757 30.3019C47.9044 28.531 45.4998 21.4647 45.4998 21.4647L30.8377 21.1696Z" fill="#D8EFF6"/>
<path d="M29.3532 37.5939C29.3532 37.5939 30.3689 36.6216 31.7665 36.8734C33.1642 37.1165 32.5478 37.5418 33.8934 38.0019C35.2476 38.462 35.1261 42.7504 37.5394 42.6289C39.9527 42.5073 39.6054 38.87 41.0812 38.2971C42.557 37.7241 43.0952 36.6824 44.6925 36.83C46.2898 36.9776 46.3418 36.4307 46.9408 36.9255C47.5398 37.4203 53.0262 36.856 53.7727 38.4881C54.5193 40.1201 55.5089 47.9763 55.5089 47.9763C50.8559 48.0458 25.5683 47.9156 25.5683 47.9156H18.5541C18.5541 47.9156 25.7854 37.264 29.3532 37.6026V37.5939Z" fill="#D82F00"/>
<path d="M37.8432 47.985C31.3759 46.3269 29.3359 42.8893 28.1987 41.2399C26.4972 38.7658 23.7801 36.4914 20.7331 36.4914H20.5768C20.5768 36.4914 17.5645 39.7902 16.5662 41.9431C15.7676 43.6619 15.4898 46.7002 15.4724 47.9156L37.8519 47.9937L37.8432 47.985Z" fill="#1066A0"/>
<path d="M41.0899 15.6224C41.0899 15.6224 44.1803 15.1537 45.2133 15.2058C45.3869 15.2058 45.5606 15.2492 45.7342 15.3099C45.9078 15.3707 46.0727 15.4488 46.2377 15.5443C49.059 17.5843 48.1909 21.0567 46.1075 24.069C45.9425 24.2687 45.795 24.5031 45.6734 24.7635C45.5779 27.1334 46.446 29.7377 48.6683 31.6562C48.8333 31.8819 48.9982 32.1076 49.1545 32.3246C49.6406 32.9843 50.1181 33.592 50.5782 34.1215C50.7691 34.3733 50.9514 34.6164 51.0903 34.8594C51.6546 35.8143 51.6546 36.6824 49.9184 37.5505C48.6163 38.2016 47.7482 38.1148 46.7499 36.5522C46.5762 36.2831 45.1439 35.9185 44.9616 35.6147C44.7098 34.0781 43.8417 34.0781 43.0518 33.4705C42.7653 33.3923 42.4788 33.3316 42.175 33.2795C41.8712 33.2361 41.5587 33.21 41.2375 33.21C41.2375 32.6284 41.142 32.0555 41.0638 31.4825C41.0291 31.1961 40.9944 30.9183 40.977 30.6405C40.3694 28.8609 43.8417 27.9928 41.6715 26.0483C41.6541 25.7444 41.6368 25.4232 41.6194 25.076C41.4197 21.3171 41.0899 15.6224 41.0899 15.6224Z" fill="#EACDA1"/>
<path d="M34.692 14.8672C34.64 14.9627 34.3448 15.2405 33.4767 15.2926C32.6086 15.3447 31.4975 15.3707 30.8551 16.4819C30.2127 17.593 30.9332 17.6451 30.1866 19.1469C29.4487 20.6574 29.3967 20.7529 29.9609 22.0377C30.5252 23.3224 30.013 24.1385 30.0825 25.1975C30.1519 26.2566 29.9609 26.8816 29.3619 27.0466C28.7716 27.2202 27.5303 26.925 27.8341 27.9147C28.1292 28.9043 28.9713 30.4755 28.5025 30.4148C28.0337 30.354 26.3496 28.1577 25.3427 28.1838C24.327 28.2098 22.6255 29.2949 22.7991 30.6058C22.9728 31.9166 22.6776 32.7586 21.5144 32.5329C20.3511 32.3072 17.7555 33.4705 18.1809 34.8334C18.5976 36.1963 19.6653 38.5141 18.4326 38.1408C17.1999 37.7675 17.7381 36.2657 17.7381 36.2657C17.7381 36.2657 15.9846 37.2554 16.7485 38.4881C17.5124 39.7208 18.3285 39.4516 18.3285 39.4516C18.3285 39.4516 17.0697 41.2573 18.2069 41.6479C19.3441 42.0472 20.0386 40.7104 20.0386 40.7104C20.0386 40.7104 18.6844 40.3892 19.3615 40.0333C20.0386 39.6773 20.707 40.0246 21.3494 39.3562C21.9918 38.6877 22.2609 37.8457 22.2609 37.8457C22.2609 37.8457 22.695 40.6757 23.4328 39.4864C24.1707 38.2971 24.8652 39.3214 24.8652 39.3214C24.8652 39.3214 26.7577 40.3718 27.5737 39.4864C28.3897 38.6009 28.1727 37.7589 28.7282 38.6356C29.2838 39.5124 29.9262 34.1563 29.7526 34.9983C29.579 35.8404 30.9853 37.5418 31.8794 36.014C32.7735 34.4861 31.4367 33.2708 32.4958 33.0451C33.5548 32.8194 34.9698 32.2812 34.692 30.8488C34.4229 29.4165 35.0827 27.689 35.0827 27.689L36.7407 21.5602L37.1574 14.8585H34.692V14.8672Z" fill="#EACDA1"/>
<path d="M36.298 15.3707C36.298 15.3707 35.3084 16.2822 34.8396 17.35C34.3708 18.409 33.85 20.6574 33.7805 21.5776C33.7024 22.4891 33.5808 23.7304 33.6329 23.878C33.685 24.0256 32.7909 22.9405 32.7909 22.9405C32.7909 22.9405 32.5218 23.8259 33.086 24.5985C33.6503 25.3625 33.9454 25.293 33.9454 25.293C33.9454 25.293 34.5878 28.3053 36.298 29.4686C38.0081 30.6318 40.5951 30.9964 42.1055 29.1474C43.616 27.2983 44.3105 25.7357 44.3105 25.7357C44.3105 25.7357 44.6491 24.3294 44.7011 23.3398C44.7532 22.3502 44.3105 20.1539 44.3105 20.1539C44.3105 20.1539 43.7376 18.9733 43.6855 18.3222C43.6334 17.6798 42.991 16.0478 41.2374 15.3794C39.4839 14.7109 37.8519 14.7109 36.298 15.3794V15.3707Z" fill="#F1A882"/>
<path d="M41.5066 31.795L41.8364 29.4251C40.2999 30.9356 37.904 30.545 36.298 29.4512C35.7598 29.0866 35.3344 28.5397 34.9958 27.9667C34.8222 28.505 34.4837 29.7724 34.692 30.8662C34.9611 32.2985 33.5548 32.8454 32.4957 33.0625C31.4367 33.2882 30.612 33.2534 29.7178 34.79C29.6223 34.9636 29.4053 37.7502 29.3011 37.8457C29.796 38.6183 32.8256 37.6026 33.6069 38.0453C34.7962 38.7137 35.0653 40.2503 35.0653 40.2503L38.121 47.5162L40.6645 40.2503C40.6645 40.2503 40.5864 39.2954 41.0986 38.5054C41.6107 37.7241 46.9669 37.1946 46.9582 36.9168C46.9495 35.5192 41.5152 31.7864 41.5152 31.7864L41.5066 31.795Z" fill="#D78E69"/>
<path d="M42.0969 29.1386C43.6074 27.2896 44.3019 25.727 44.3019 25.727C44.3019 25.727 44.6404 24.3207 44.6925 23.3311C44.7446 22.3415 44.3019 20.1452 44.3019 20.1452C44.3019 20.1452 43.7289 18.9646 43.6768 18.3135C43.6508 17.9229 43.3904 17.1589 42.8001 16.4731C43.182 18.0791 43.1647 19.2424 43.1039 19.8848C42.6612 19.7459 42.1577 19.7111 41.6021 19.9021C39.5534 20.5966 39.8659 22.5932 39.918 22.9144C39.9701 23.2356 40.4909 24.3207 40.4649 24.5464C40.4389 24.7721 40.0222 24.9892 40.0222 24.9892L39.701 26.0482C39.701 26.0482 39.5447 26.4302 39.6315 26.5951C39.7183 26.7601 39.7357 27.0379 39.7357 27.0379C39.7357 27.0379 39.3798 27.2983 39.4839 27.55C39.5881 27.8018 39.6576 27.8712 39.6576 27.8712C39.6576 27.8712 39.6055 28.5136 39.6055 28.6178C39.6055 28.722 40.2131 29.7376 39.918 30.3887C40.7253 30.2585 41.4892 29.8765 42.0882 29.1473L42.0969 29.1386Z" fill="#D78E69"/>
<path d="M40.7427 10.9347C40.76 10.8566 40.76 10.8045 40.76 10.8045C40.76 10.8045 40.7514 10.8566 40.7427 10.9347Z" fill="#F4AE00"/>
<path d="M43.7897 14.8672L43.7203 15.0755C43.7203 15.0755 39.3971 13.2525 33.9455 15.1971C33.9455 15.1971 35.4299 15.0755 36.8623 16.1346C38.2947 17.1937 39.5274 17.9663 39.5274 17.9663C39.5274 17.9663 40.517 16.8812 42.175 16.3256C43.8331 15.77 44.597 15.5443 43.7897 14.8759V14.8672Z" fill="#D8EFF6"/>
<path d="M35.4125 14.7543C36.9664 15.4228 39.4665 17.0808 39.4665 17.0808C40.7079 16.0652 42.7393 15.2318 43.425 14.9714C42.4788 14.6502 39.345 13.7734 35.4125 14.763V14.7543Z" fill="#E13F00"/>
<path d="M49.3715 41.9344C49.3715 41.9344 47.6614 42.7243 47.5919 43.3841C47.5225 44.0438 48.0694 44.4952 48.0694 44.4952C48.0694 44.4952 47.3575 46.7957 48.0694 46.8478C48.7812 46.8912 49.8316 46.2314 49.8316 46.2314C49.8316 46.2314 50.691 47.5857 51.2466 47.0127C51.8022 46.4398 51.9584 46.2922 51.9584 46.2922C51.9584 46.2922 53.7467 47.1603 53.8682 46.4485C53.9898 45.7366 53.7467 45.0248 53.7467 45.0248C53.7467 45.0248 54.8145 45.5717 54.7624 44.5039C54.719 43.4362 54.4499 43.2278 54.4499 43.2278C54.4499 43.2278 55.2572 41.7521 54.7624 41.4048C54.2589 41.0489 51.2466 41.4048 51.2466 41.4048L49.3802 41.943L49.3715 41.9344Z" fill="#D8EFF6"/>
<path d="M55.3614 28.3921C55.3614 28.3921 53.547 29.4251 53.1564 30.5971C53.0349 30.9617 52.922 31.4304 52.8178 31.9079C52.8178 31.8037 52.8092 31.6995 52.8005 31.604C52.6876 29.6422 53.1738 26.3781 53.495 26.5083L53.2606 26.6212C53.2172 26.7427 52.1407 29.564 52.2623 31.6474C52.297 32.177 52.3057 32.7239 52.3144 33.2274C52.1755 32.5069 51.915 31.5867 51.4549 30.8401C50.5695 29.3991 49.658 29.0258 49.658 29.0258C49.658 29.0258 49.4757 30.545 49.9965 32.3419C50.4306 33.8177 51.8282 34.2517 52.3144 34.3559C52.297 35.198 52.2709 35.7796 52.2709 35.7883L52.8092 35.823C52.8092 35.823 52.8613 34.9723 52.8613 33.8437C53.5471 33.4618 54.8752 32.5503 55.2572 31.2394C55.7694 29.4859 55.3614 28.4181 55.3614 28.4181V28.3921Z" fill="#63A518"/>
<path d="M53.0001 26.0656C53.2172 24.9458 54.8752 24.6159 54.8665 23.3658C54.8665 22.8624 54.4585 22.4543 53.955 22.4543C53.4863 22.4543 53.1217 22.8016 53.0001 23.253C52.8786 22.8016 52.514 22.4543 52.0452 22.4543C51.5417 22.4543 51.1337 22.8624 51.1337 23.3658C51.1337 24.6333 52.7744 24.9284 53.0001 26.0656Z" fill="#CB0D07"/>
<path d="M52.8352 26.1264C51.7154 25.9094 51.3855 24.2513 50.1354 24.26C49.6319 24.26 49.2239 24.668 49.2239 25.1715C49.2239 25.6403 49.5712 26.0049 50.0226 26.1264C49.5712 26.2479 49.2239 26.6125 49.2239 27.0813C49.2239 27.5848 49.6319 27.9928 50.1354 27.9928C51.4029 27.9928 51.698 26.3521 52.8352 26.1264Z" fill="#CB0D07"/>
<path d="M53.0002 26.2827C52.7831 27.4025 51.1251 27.7324 51.1338 28.9824C51.1338 29.4859 51.5418 29.8939 52.0453 29.8939C52.514 29.8939 52.8786 29.5467 53.0002 29.0953C53.1217 29.5467 53.4863 29.8939 53.9551 29.8939C54.4586 29.8939 54.8666 29.4859 54.8666 28.9824C54.8666 27.715 53.2259 27.4199 53.0002 26.2827Z" fill="#CB0D07"/>
<path d="M53.1564 26.2219C54.2763 26.4389 54.6062 28.097 55.8562 28.0883C56.3597 28.0883 56.7677 27.6803 56.7677 27.1768C56.7677 26.708 56.4205 26.3434 55.9691 26.2219C56.4205 26.1003 56.7677 25.7357 56.7677 25.267C56.7677 24.7635 56.3597 24.3555 55.8562 24.3555C54.5888 24.3555 54.2936 25.9962 53.1564 26.2219Z" fill="#CB0D07"/>
<path d="M53.8596 26.1958C53.8596 26.6646 53.469 27.0466 52.9915 27.0466C52.514 27.0466 52.1321 26.6646 52.1321 26.1958C52.1321 25.7271 52.5227 25.3451 52.9915 25.3451C53.4603 25.3451 53.8596 25.7271 53.8596 26.1958Z" fill="#FFFF59"/>
<path d="M54.0766 33.6354C53.8422 33.0625 52.1581 32.2291 51.7501 31.9687C51.3421 31.7082 50.4914 31.3697 50.3612 31.5433C50.2309 31.7169 49.9097 32.0728 50.3612 32.394C50.8126 32.7152 52.3491 33.6962 52.3491 33.6962C52.3491 33.6962 52.6269 34.5295 52.6443 34.6164C52.6703 34.7032 52.6703 34.9983 52.6703 34.9983C52.6703 34.9983 52.1321 34.4601 51.5418 34.3559C50.9428 34.2518 50.1355 34.4861 49.276 34.6771L49.2153 34.7032C49.2153 34.7032 48.0173 36.0834 47.9565 36.1702C47.8958 36.2571 48.0954 36.4654 48.1996 36.5696C48.3038 36.6737 48.4687 36.5696 48.4687 36.5696C48.4687 36.5696 48.3211 37.646 48.2517 38.054C48.1909 38.462 48.3819 38.9308 48.3819 38.9308C48.3819 38.9308 49.0851 38.1842 49.276 38.2276C49.467 38.271 50.0226 38.5228 49.7448 38.9308C49.467 39.3388 48.9982 40.7017 48.8767 41.1965C48.7552 41.6913 48.6771 44.1046 49.441 44.3998C50.2136 44.7036 52.3231 44.3477 52.4272 43.0108C52.4272 43.0108 52.4012 41.6479 52.7918 40.7277C53.1738 39.8076 54.0766 37.9932 54.0766 37.5852C54.0766 37.1772 54.311 34.2084 54.0766 33.6354Z" fill="#F1A882"/>
<path d="M39.8919 18.4437C39.8919 18.6608 39.7183 18.8257 39.51 18.8257C39.3016 18.8257 39.128 18.6521 39.128 18.4437C39.128 18.2354 39.3016 18.0618 39.51 18.0618C39.7183 18.0618 39.8919 18.2354 39.8919 18.4437Z" fill="#D8EFF6"/>
<path d="M34.5879 33.0798C34.5879 33.2708 34.4316 33.4271 34.2406 33.4271C34.0496 33.4271 33.8934 33.2708 33.8934 33.0798C33.8934 32.8888 34.0496 32.7326 34.2406 32.7326C34.4316 32.7326 34.5879 32.8888 34.5879 33.0798Z" fill="#D8EFF6"/>
<path d="M34.5878 33.7482C34.5878 33.5659 34.7354 33.427 34.909 33.427C35.0826 33.427 35.2302 33.5746 35.2302 33.7482C35.2302 33.9218 35.0826 34.0694 34.909 34.0694C34.7354 34.0694 34.5878 33.9218 34.5878 33.7482Z" fill="#D8EFF6"/>
<path d="M35.1955 34.3646C35.1955 34.1823 35.3431 34.0347 35.5254 34.0347C35.7077 34.0347 35.8552 34.1823 35.8552 34.3646C35.8552 34.5469 35.7077 34.6945 35.5254 34.6945C35.3431 34.6945 35.1955 34.5469 35.1955 34.3646Z" fill="#D8EFF6"/>
<path d="M35.864 35.007C35.864 34.8334 36.0028 34.6945 36.1765 34.6945C36.3501 34.6945 36.489 34.8334 36.489 35.007C36.489 35.1806 36.3501 35.3195 36.1765 35.3195C36.0028 35.3195 35.864 35.1806 35.864 35.007Z" fill="#D8EFF6"/>
<path d="M38.4161 35.3195C38.4161 35.1546 38.5463 35.0244 38.7113 35.0244C38.8762 35.0244 39.0064 35.1546 39.0064 35.3195C39.0064 35.4844 38.8762 35.6147 38.7113 35.6147C38.5463 35.6147 38.4161 35.4844 38.4161 35.3195Z" fill="#D8EFF6"/>
<path d="M41.741 34.026C41.9327 34.026 42.0882 33.8706 42.0882 33.6788C42.0882 33.487 41.9327 33.3315 41.741 33.3315C41.5492 33.3315 41.3937 33.487 41.3937 33.6788C41.3937 33.8706 41.5492 34.026 41.741 34.026Z" fill="#D8EFF6"/>
<path d="M42.4354 33.4271C42.6272 33.4271 42.7827 33.2716 42.7827 33.0798C42.7827 32.888 42.6272 32.7326 42.4354 32.7326C42.2437 32.7326 42.0882 32.888 42.0882 33.0798C42.0882 33.2716 42.2437 33.4271 42.4354 33.4271Z" fill="#D8EFF6"/>
<path d="M40.0829 35.007C40.0048 34.8681 40.0482 34.6858 40.1957 34.599C40.3346 34.5208 40.5169 34.5642 40.6037 34.7118C40.6819 34.8507 40.6385 35.033 40.4909 35.1198C40.352 35.198 40.1697 35.1545 40.0829 35.007Z" fill="#D8EFF6"/>
<path d="M36.7233 35.3195C36.7233 35.1546 36.8536 35.0244 37.0185 35.0244C37.1834 35.0244 37.3136 35.1546 37.3136 35.3195C37.3136 35.4844 37.1834 35.6147 37.0185 35.6147C36.8536 35.6147 36.7233 35.4844 36.7233 35.3195Z" fill="#D8EFF6"/>
<path d="M37.5394 35.3803C37.5394 35.2153 37.6696 35.0851 37.8345 35.0851C37.9995 35.0851 38.1297 35.2153 38.1297 35.3803C38.1297 35.5452 37.9995 35.6754 37.8345 35.6754C37.6696 35.6754 37.5394 35.5452 37.5394 35.3803Z" fill="#D8EFF6"/>
<path d="M40.7947 34.217C40.7947 34.0521 40.9249 33.9218 41.0899 33.9218C41.2548 33.9218 41.3851 34.0521 41.3851 34.217C41.3851 34.3819 41.2548 34.5121 41.0899 34.5121C40.9249 34.5121 40.7947 34.3819 40.7947 34.217Z" fill="#D8EFF6"/>
<path d="M39.2756 35.0851C39.2756 34.9202 39.4058 34.7899 39.5707 34.7899C39.7357 34.7899 39.8659 34.9202 39.8659 35.0851C39.8659 35.25 39.7357 35.3803 39.5707 35.3803C39.4058 35.3803 39.2756 35.25 39.2756 35.0851Z" fill="#D8EFF6"/>
<path d="M23.5197 81.7539C23.7975 81.7366 23.6846 82.3963 23.9364 82.7088C23.9537 82.7262 23.9711 82.7349 23.9884 82.7435C23.9016 82.7175 23.8061 82.7088 23.7107 82.7262C23.4242 82.7956 23.2592 83.0821 23.3287 83.3686C23.3981 83.655 23.6846 83.82 23.9711 83.7505C24.2576 83.6811 24.4225 83.3946 24.353 83.1081C24.3183 82.9779 24.2402 82.8738 24.136 82.8043C24.4138 82.8477 24.7871 82.6046 25.0301 82.7001C25.3253 82.8217 25.1256 83.412 25.5684 83.6811C25.4989 83.6724 25.4295 83.6811 25.36 83.6898C25.0736 83.7592 24.9086 84.0457 24.9781 84.3322C25.0475 84.6186 25.334 84.7836 25.6205 84.7141C25.9069 84.6447 26.0719 84.3582 26.0024 84.0717C25.9677 83.9328 25.8809 83.82 25.768 83.7505C26.1413 83.7679 26.2021 83.0647 26.94 83.1255C27.7647 83.195 27.1743 84.2367 28.164 84.3322C28.19 84.3322 28.1987 84.3322 28.2247 84.3322C28.0685 85.0093 27.0789 85.2176 27.0789 85.9815C27.0789 86.294 27.3306 86.5458 27.6431 86.5458C27.9296 86.5458 28.1553 86.3288 28.2334 86.051C28.3115 86.3288 28.5373 86.5458 28.8237 86.5458C29.1362 86.5458 29.388 86.294 29.388 85.9815C29.388 85.2089 28.3984 85.0179 28.2421 84.3322C29.1276 84.3669 28.8237 83.3512 29.4314 83.1255C30.0391 82.8998 30.1606 83.7766 30.5946 83.7071C30.3255 83.7853 30.1606 84.063 30.23 84.3408C30.2995 84.6273 30.586 84.7922 30.8724 84.7228C31.1589 84.6534 31.3238 84.3669 31.2544 84.0804C31.185 83.8026 30.9158 83.6464 30.638 83.6984C31.0547 83.5596 30.8203 82.6915 31.1676 82.5005C31.4975 82.3269 31.6798 82.8217 32.0791 82.813C31.8968 82.9345 31.7926 83.1602 31.8447 83.3859C31.9141 83.6724 32.2006 83.8373 32.4871 83.7679C32.7736 83.6985 32.9385 83.412 32.8691 83.1255C32.8083 82.8738 32.5652 82.7175 32.3135 82.7349C32.5913 82.5092 32.3656 81.9015 32.4176 81.7279C32.4697 81.5369 32.7736 81.6411 33.1034 81.5543C33.4333 81.4674 33.3118 80.8771 33.3118 80.8771C33.3118 80.8771 31.211 81.3893 28.3984 81.6932C25.5857 82.0057 23.2592 80.5125 23.2592 80.5125C23.2592 80.5125 22.5821 81.2417 22.6689 81.5977C22.7558 81.9536 23.2419 81.7539 23.511 81.7366L23.5197 81.7539Z" fill="#FFC33E"/>
<path d="M22.1828 82.1185C22.2349 82.3095 22.4346 82.431 22.6255 82.3789C22.8165 82.3269 22.9381 82.1272 22.886 81.9362C22.8339 81.7452 22.6342 81.6237 22.4432 81.6758C22.2523 81.7279 22.1307 81.9275 22.1828 82.1185Z" fill="#FFC33E"/>
<path d="M33.0774 81.8841C33.1295 82.0751 33.3292 82.1966 33.5201 82.1445C33.7111 82.0925 33.8326 81.8928 33.7806 81.7018C33.7285 81.5108 33.5288 81.3893 33.3378 81.4414C33.1469 81.4935 33.0253 81.6931 33.0774 81.8841Z" fill="#FFC33E"/>
<path d="M36.4196 74.922C36.4196 74.922 38.2426 70.6944 39.4492 69.5138C40.6646 68.3332 44.6318 68.1248 47.6354 63.1767C48.0868 62.4388 51.3855 53.0634 51.4289 51.5963C51.4723 50.1292 45.3262 50.6154 45.3262 50.6154L11.8438 49.1309C11.8438 49.1309 11.1667 52.7596 12.33 55.1555C13.4932 57.5514 16.2103 64.0187 17.7816 65.7897C19.3528 67.5606 21.7575 74.6269 21.7575 74.6269L36.4196 74.922Z" fill="#D8EFF6"/>
<path d="M37.904 58.4977C37.904 58.4977 36.8883 59.4699 35.4907 59.2182C34.0931 58.9751 34.7094 58.5497 33.3639 58.0897C32.0096 57.6296 32.1312 53.3412 29.7179 53.4627C27.3046 53.5842 27.6518 57.2216 26.176 57.7945C24.7003 58.3674 24.1621 59.4092 22.5648 59.2616C20.9675 59.114 20.9154 59.6609 20.3077 59.1661C19.7087 58.6713 14.2224 59.2355 13.4758 57.6035C12.7293 55.9802 11.7396 48.1152 11.7396 48.1152C16.3926 48.0458 41.6802 48.176 41.6802 48.176H48.6944C48.6944 48.176 41.4632 58.8275 37.8953 58.489L37.904 58.4977Z" fill="#D82F00"/>
<path d="M29.414 48.1152C35.8813 49.7733 37.9213 53.211 39.0585 54.8603C40.76 57.3344 43.4772 59.6088 46.5242 59.6088H46.6804C46.6804 59.6088 49.6927 56.3101 50.691 54.1572C51.4897 52.4384 51.7675 49.4 51.7848 48.1847L29.4053 48.1066L29.414 48.1152Z" fill="#1066A0"/>
<path d="M26.1674 80.4778C26.1674 80.4778 23.077 80.9466 22.0439 80.8945C21.8703 80.8945 21.6967 80.8511 21.5231 80.799C21.3494 80.7382 21.1845 80.6601 21.0196 80.5646C18.1983 78.5246 19.0664 75.0522 21.1498 72.0399C21.3147 71.8403 21.4623 71.6059 21.5838 71.3455C21.6793 68.9756 20.8112 66.3713 18.5889 64.4528C18.424 64.2271 18.259 64.0014 18.1028 63.7844C17.6166 63.1246 17.1392 62.5169 16.6791 61.9874C16.4881 61.7356 16.3058 61.4926 16.1669 61.2495C15.6027 60.2946 15.6026 59.4265 17.3388 58.5584C18.641 57.9074 19.5091 57.9942 20.5074 59.5567C20.681 59.8258 22.1134 60.1904 22.2957 60.4943C22.5474 62.0308 23.4155 62.0308 24.2055 62.6385C24.4919 62.7166 24.7784 62.7774 25.0823 62.8294C25.3861 62.8729 25.6986 62.8989 26.0198 62.8989C26.0198 63.4805 26.1153 64.0535 26.1934 64.6264C26.2281 64.9129 26.2629 65.1907 26.2802 65.4685C26.8879 67.2481 23.4155 68.1161 25.5857 70.0607C25.6031 70.3645 25.6205 70.6857 25.6378 71.0329C25.8375 74.7918 26.1674 80.4865 26.1674 80.4865V80.4778Z" fill="#EACDA1"/>
<path d="M32.5652 81.2244C32.6173 81.1289 32.9125 80.8511 33.7806 80.799C34.6487 80.7469 35.7598 80.7209 36.4022 79.6097C37.0446 78.4986 36.3241 78.4465 37.0707 76.9447C37.8172 75.4429 37.8606 75.3387 37.2964 74.0539C36.7321 72.7691 37.2443 71.9531 37.1748 70.8941C37.1054 69.835 37.2964 69.21 37.8953 69.045C38.4856 68.8714 39.727 69.1666 39.4232 68.1769C39.128 67.1873 38.286 65.616 38.7548 65.6768C39.2235 65.7376 40.9076 67.9339 41.9146 67.9078C42.9303 67.8818 44.6318 66.7967 44.4581 65.4858C44.2845 64.175 44.5797 63.333 45.7429 63.5587C46.9062 63.7844 49.5018 62.6211 49.0764 61.2582C48.6597 59.8953 47.592 57.5775 48.8246 57.9508C50.0573 58.324 49.5191 59.8259 49.5191 59.8259C49.5191 59.8259 51.2727 58.8362 50.5088 57.6035C49.7448 56.3708 48.9288 56.6399 48.9288 56.6399C48.9288 56.6399 50.1876 54.8343 49.0504 54.4437C47.9132 54.0443 47.2187 55.3812 47.2187 55.3812C47.2187 55.3812 48.5729 55.7024 47.8958 56.0583C47.2187 56.4142 46.5502 56.067 45.9079 56.7354C45.2655 57.4039 44.9963 58.2459 44.9963 58.2459C44.9963 58.2459 44.5623 55.4159 43.8244 56.6052C43.0865 57.7945 42.3921 56.7702 42.3921 56.7702C42.3921 56.7702 40.4996 55.7198 39.6836 56.6052C38.8676 57.4907 39.0846 58.3327 38.529 57.456C37.9735 56.5792 37.3311 61.9353 37.5047 61.0933C37.6783 60.2512 36.272 58.5498 35.3779 60.0776C34.4837 61.6054 35.8206 62.8208 34.7615 63.0465C33.7024 63.2722 32.2874 63.8104 32.5652 65.2428C32.8343 66.6751 32.1746 68.4026 32.1746 68.4026L30.5165 74.5314L30.0999 81.2331H32.5652V81.2244Z" fill="#EACDA1"/>
<path d="M30.9592 80.7209C30.9592 80.7209 31.9489 79.8094 32.4176 78.7416C32.8864 77.6826 33.4073 75.4342 33.4767 74.514C33.5548 73.6025 33.6764 72.3611 33.6243 72.2136C33.5722 72.066 34.4663 73.1511 34.4663 73.1511C34.4663 73.1511 34.7355 72.2656 34.1712 71.493C33.6069 70.7291 33.3118 70.7986 33.3118 70.7986C33.3118 70.7986 32.6694 67.7863 30.9592 66.623C29.2491 65.4598 26.6622 65.0952 25.1517 66.9442C23.6412 68.7933 22.9467 70.3558 22.9467 70.3558C22.9467 70.3558 22.6082 71.7622 22.5561 72.7518C22.504 73.7414 22.9467 75.9377 22.9467 75.9377C22.9467 75.9377 23.5197 77.1183 23.5717 77.7694C23.6238 78.4118 24.2662 80.0438 26.0198 80.7122C27.7733 81.3806 29.4053 81.3806 30.9592 80.7122V80.7209Z" fill="#F1A882"/>
<path d="M25.7507 64.2965L25.4208 66.6664C26.9573 65.156 29.3532 65.5466 30.9592 66.6404C31.4974 67.005 31.9228 67.5519 32.2614 68.1248C32.435 67.5866 32.7735 66.3192 32.5652 65.2254C32.2961 63.793 33.7024 63.2461 34.7615 63.0291C35.8206 62.8034 36.6452 62.8381 37.5394 61.3016C37.6349 61.128 37.8519 58.3414 37.9561 58.2459C37.4612 57.4733 34.4316 58.489 33.6503 58.0463C32.461 57.3778 32.1919 55.8413 32.1919 55.8413L29.1362 48.5753L26.5927 55.8413C26.5927 55.8413 26.6708 56.7962 26.1587 57.5862C25.6465 58.3675 20.2903 58.897 20.299 59.1748C20.3077 60.5724 25.742 64.3052 25.742 64.3052L25.7507 64.2965Z" fill="#D78E69"/>
<path d="M25.1604 66.9616C23.6499 68.8106 22.9554 70.3732 22.9554 70.3732C22.9554 70.3732 22.6168 71.7795 22.5647 72.7691C22.5127 73.7588 22.9554 75.955 22.9554 75.955C22.9554 75.955 23.5283 77.1356 23.5804 77.7867C23.6065 78.1774 23.8669 78.9413 24.4572 79.6271C24.0752 78.0211 24.0926 76.8579 24.1534 76.2155C24.5961 76.3544 25.0996 76.3891 25.6552 76.1981C27.7039 75.5036 27.3914 73.507 27.3393 73.1858C27.2872 72.8646 26.7663 71.7795 26.7924 71.5538C26.8184 71.3281 27.2351 71.1111 27.2351 71.1111L27.5563 70.052C27.5563 70.052 27.7125 69.67 27.6257 69.5051C27.5389 69.3402 27.5216 69.0624 27.5216 69.0624C27.5216 69.0624 27.8775 68.8019 27.7733 68.5502C27.6691 68.2984 27.5997 68.229 27.5997 68.229C27.5997 68.229 27.6518 67.5866 27.6518 67.4824C27.6518 67.3783 27.0441 66.3626 27.3393 65.7115C26.5319 65.8417 25.768 66.2237 25.169 66.9529L25.1604 66.9616Z" fill="#D78E69"/>
<path d="M26.5146 85.1569C26.4973 85.235 26.4973 85.2871 26.4973 85.2871C26.4973 85.2871 26.5059 85.235 26.5146 85.1569Z" fill="#F4AE00"/>
<path d="M23.4676 81.2244L23.537 81.016C23.537 81.016 27.8601 82.839 33.3118 80.8945C33.3118 80.8945 31.8273 81.016 30.395 79.957C28.9626 78.8979 27.7299 78.1253 27.7299 78.1253C27.7299 78.1253 26.7403 79.2104 25.0822 79.766C23.4242 80.3216 22.6603 80.5473 23.4676 81.2157V81.2244Z" fill="#D8EFF6"/>
<path d="M31.8447 81.3372C30.2908 80.6688 27.7907 79.0107 27.7907 79.0107C26.5493 80.0264 24.518 80.8598 23.8322 81.1202C24.7784 81.4414 27.9123 82.3182 31.8447 81.3286V81.3372Z" fill="#E13F00"/>
<path d="M17.8858 54.1572C17.8858 54.1572 19.5959 53.3672 19.6654 52.7075C19.7348 52.0477 19.1879 51.5963 19.1879 51.5963C19.1879 51.5963 19.8997 49.2958 19.1879 49.2438C18.4761 49.2004 17.4257 49.8601 17.4257 49.8601C17.4257 49.8601 16.5663 48.5059 16.0107 49.0788C15.4551 49.6518 15.2988 49.7993 15.2988 49.7993C15.2988 49.7993 13.5106 48.9312 13.389 49.6431C13.2675 50.3549 13.5106 51.0668 13.5106 51.0668C13.5106 51.0668 12.4428 50.5199 12.4949 51.5876C12.5383 52.6554 12.8074 52.8637 12.8074 52.8637C12.8074 52.8637 12.0001 54.3395 12.4949 54.6867C12.9984 55.0426 16.0107 54.6867 16.0107 54.6867L17.8771 54.1485L17.8858 54.1572Z" fill="#D8EFF6"/>
<path d="M11.8959 67.7081C11.8959 67.7081 13.7102 66.6751 14.1008 65.5032C14.2224 65.1386 14.3352 64.6698 14.4394 64.1924C14.4394 64.2965 14.4481 64.4007 14.4568 64.4962C14.5696 66.4581 14.0835 69.7221 13.7623 69.5919L13.9967 69.4791C14.0401 69.3575 15.1165 66.5362 14.995 64.4528C14.9603 63.9233 14.9516 63.3764 14.9429 62.8729C15.0818 63.5934 15.3422 64.5136 15.8023 65.2601C16.6878 66.7012 17.5993 67.0744 17.5993 67.0744C17.5993 67.0744 17.7816 65.5553 17.2607 63.7583C16.8267 62.2825 15.429 61.8485 14.9429 61.7443C14.9603 60.9023 14.9863 60.3207 14.9863 60.312L14.4481 60.2773C14.4481 60.2773 14.396 61.128 14.396 62.2565C13.7102 62.6385 12.382 63.55 12.0001 64.8608C11.4879 66.6143 11.8959 67.6821 11.8959 67.6821V67.7081Z" fill="#63A518"/>
<path d="M14.2571 70.026C14.04 71.1458 12.382 71.4757 12.3907 72.7257C12.3907 73.2292 12.7987 73.6372 13.3022 73.6372C13.7709 73.6372 14.1355 73.29 14.2571 72.8386C14.3786 73.29 14.7432 73.6372 15.212 73.6372C15.7155 73.6372 16.1235 73.2292 16.1235 72.7257C16.1235 71.4583 14.4828 71.1632 14.2571 70.026Z" fill="#CB0D07"/>
<path d="M14.4221 69.9652C15.5419 70.1822 15.8718 71.8403 17.1218 71.8316C17.6253 71.8316 18.0333 71.4236 18.0333 70.9201C18.0333 70.4513 17.6861 70.0867 17.2347 69.9652C17.6861 69.8437 18.0333 69.4791 18.0333 69.0103C18.0333 68.5068 17.6253 68.0988 17.1218 68.0988C15.8544 68.0988 15.5593 69.7395 14.4221 69.9652Z" fill="#CB0D07"/>
<path d="M14.2571 69.8089C14.4741 68.6891 16.1322 68.3592 16.1235 67.1092C16.1235 66.6057 15.7155 66.1977 15.212 66.1977C14.7432 66.1977 14.3786 66.5449 14.2571 66.9963C14.1356 66.5449 13.771 66.1977 13.3022 66.1977C12.7987 66.1977 12.3907 66.6057 12.3907 67.1092C12.3907 68.3766 14.0314 68.6717 14.2571 69.8089Z" fill="#CB0D07"/>
<path d="M14.1008 69.8697C12.981 69.6527 12.6511 67.9946 11.4011 68.0033C10.8976 68.0033 10.4896 68.4113 10.4896 68.9148C10.4896 69.3836 10.8368 69.7482 11.2882 69.8697C10.8368 69.9912 10.4896 70.3558 10.4896 70.8246C10.4896 71.3281 10.8976 71.7361 11.4011 71.7361C12.6685 71.7361 12.9636 70.0954 14.1008 69.8697Z" fill="#CB0D07"/>
<path d="M13.3977 69.8957C13.3977 69.427 13.7883 69.045 14.2658 69.045C14.7433 69.045 15.1252 69.427 15.1252 69.8957C15.1252 70.3645 14.7346 70.7465 14.2658 70.7465C13.797 70.7465 13.3977 70.3645 13.3977 69.8957Z" fill="#FFFF59"/>
<path d="M13.1806 62.4562C13.415 63.0291 15.0991 63.8625 15.5071 64.1229C15.9152 64.3833 16.7659 64.7219 16.8961 64.5483C17.0263 64.3747 17.3475 64.0187 16.8961 63.6976C16.4447 63.3764 14.9082 62.3954 14.9082 62.3954C14.9082 62.3954 14.6304 61.562 14.613 61.4752C14.587 61.3884 14.587 61.0933 14.587 61.0933C14.587 61.0933 15.1252 61.6315 15.7155 61.7357C16.3145 61.8398 17.1218 61.6054 17.9812 61.4145L18.042 61.3884C18.042 61.3884 19.24 60.0082 19.3007 59.9213C19.3615 59.8345 19.1618 59.6262 19.0577 59.522C18.9535 59.4178 18.7885 59.522 18.7885 59.522C18.7885 59.522 18.9361 58.4456 19.0056 58.0376C19.0663 57.6296 18.8753 57.1608 18.8753 57.1608C18.8753 57.1608 18.1722 57.9074 17.9812 57.864C17.7902 57.8205 17.2347 57.5688 17.5124 57.1608C17.7902 56.7528 18.259 55.3899 18.3805 54.8951C18.5021 54.4003 18.5802 51.987 17.8163 51.6918C17.0437 51.388 14.9342 51.7439 14.83 53.0808C14.83 53.0808 14.8561 54.4437 14.4654 55.3638C14.0835 56.284 13.1806 58.0983 13.1806 58.5063C13.1806 58.9143 12.9463 61.8832 13.1806 62.4562Z" fill="#F1A882"/>
<path d="M27.7473 78.0298C27.9583 78.0298 28.1293 77.8588 28.1293 77.6478C28.1293 77.4369 27.9583 77.2659 27.7473 77.2659C27.5364 77.2659 27.3654 77.4369 27.3654 77.6478C27.3654 77.8588 27.5364 78.0298 27.7473 78.0298Z" fill="#D8EFF6"/>
<path d="M32.6694 63.0117C32.6694 62.8207 32.8257 62.6645 33.0167 62.6645C33.2077 62.6645 33.3639 62.8207 33.3639 63.0117C33.3639 63.2027 33.2077 63.359 33.0167 63.359C32.8257 63.359 32.6694 63.2027 32.6694 63.0117Z" fill="#D8EFF6"/>
<path d="M32.6694 62.3433C32.6694 62.5256 32.5218 62.6645 32.3482 62.6645C32.1746 62.6645 32.027 62.5169 32.027 62.3433C32.027 62.1697 32.1746 62.0221 32.3482 62.0221C32.5218 62.0221 32.6694 62.1697 32.6694 62.3433Z" fill="#D8EFF6"/>
<path d="M32.0617 61.7356C32.0617 61.9179 31.9141 62.0655 31.7318 62.0655C31.5495 62.0655 31.402 61.9179 31.402 61.7356C31.402 61.5533 31.5495 61.4058 31.7318 61.4058C31.9141 61.4058 32.0617 61.5533 32.0617 61.7356Z" fill="#D8EFF6"/>
<path d="M31.3933 61.0846C31.3933 61.2582 31.2544 61.3971 31.0808 61.3971C30.9071 61.3971 30.7682 61.2582 30.7682 61.0846C30.7682 60.911 30.9071 60.7721 31.0808 60.7721C31.2544 60.7721 31.3933 60.911 31.3933 61.0846Z" fill="#D8EFF6"/>
<path d="M28.8411 60.7721C28.8411 60.937 28.7109 61.0672 28.5459 61.0672C28.381 61.0672 28.2508 60.937 28.2508 60.7721C28.2508 60.6071 28.381 60.4769 28.5459 60.4769C28.7109 60.4769 28.8411 60.6071 28.8411 60.7721Z" fill="#D8EFF6"/>
<path d="M25.5163 62.76C25.7081 62.76 25.8635 62.6045 25.8635 62.4128C25.8635 62.221 25.7081 62.0655 25.5163 62.0655C25.3245 62.0655 25.1691 62.221 25.1691 62.4128C25.1691 62.6045 25.3245 62.76 25.5163 62.76Z" fill="#D8EFF6"/>
<path d="M24.8305 63.3677C25.0223 63.3677 25.1778 63.2122 25.1778 63.0204C25.1778 62.8287 25.0223 62.6732 24.8305 62.6732C24.6387 62.6732 24.4833 62.8287 24.4833 63.0204C24.4833 63.2122 24.6387 63.3677 24.8305 63.3677Z" fill="#D8EFF6"/>
<path d="M27.183 61.0846C27.2612 61.2235 27.2177 61.4058 27.0702 61.4926C26.9313 61.5707 26.749 61.5273 26.6622 61.3797C26.584 61.2408 26.6274 61.0585 26.775 60.9717C26.9139 60.8936 27.0962 60.937 27.183 61.0846Z" fill="#D8EFF6"/>
<path d="M30.5339 60.7721C30.5339 60.937 30.4037 61.0672 30.2388 61.0672C30.0738 61.0672 29.9436 60.937 29.9436 60.7721C29.9436 60.6071 30.0738 60.4769 30.2388 60.4769C30.4037 60.4769 30.5339 60.6071 30.5339 60.7721Z" fill="#D8EFF6"/>
<path d="M29.7179 60.7113C29.7179 60.8762 29.5877 61.0064 29.4227 61.0064C29.2578 61.0064 29.1276 60.8762 29.1276 60.7113C29.1276 60.5464 29.2578 60.4161 29.4227 60.4161C29.5877 60.4161 29.7179 60.5464 29.7179 60.7113Z" fill="#D8EFF6"/>
<path d="M26.4712 61.8832C26.4712 62.0482 26.341 62.1784 26.1761 62.1784C26.0111 62.1784 25.8809 62.0482 25.8809 61.8832C25.8809 61.7183 26.0111 61.5881 26.1761 61.5881C26.341 61.5881 26.4712 61.7183 26.4712 61.8832Z" fill="#D8EFF6"/>
<path d="M27.9904 61.0065C27.9904 61.1714 27.8602 61.3016 27.6952 61.3016C27.5303 61.3016 27.4001 61.1714 27.4001 61.0065C27.4001 60.8415 27.5303 60.7113 27.6952 60.7113C27.8602 60.7113 27.9904 60.8415 27.9904 61.0065Z" fill="#D8EFF6"/>
<path d="M13.4782 19.3993C13.4782 20.5515 13.3245 21.4988 12.9917 22.2158L14.3999 23.3424L13.427 24.5458L12.0699 23.4704C11.4298 23.9825 10.5593 24.2385 9.48387 24.2385C8.05001 24.2385 7.02584 23.8545 6.41133 23.0607C5.79682 22.267 5.48956 21.2428 5.48956 19.9626V11.4106C5.48956 10.7961 5.54077 10.2072 5.64318 9.61832C5.7456 9.02942 5.95043 8.51733 6.23208 8.05645C6.51373 7.59556 6.9234 7.2371 7.43549 6.95545C7.94759 6.6738 8.61333 6.54578 9.45828 6.54578C10.3032 6.54578 11.0201 6.6738 11.5322 6.90424C12.0699 7.13468 12.454 7.49315 12.7357 7.90282C13.0173 8.3381 13.1965 8.85019 13.299 9.41349C13.4014 10.0024 13.427 10.6425 13.427 11.3338V19.3737L13.4782 19.3993ZM11.5066 11.0522C11.5066 10.7449 11.5066 10.4377 11.4554 10.1304C11.4042 9.82316 11.3274 9.54151 11.1994 9.25986C11.0713 9.00381 10.8665 8.77337 10.5849 8.61974C10.3032 8.44051 9.94473 8.3637 9.50946 8.3637C9.02297 8.3637 8.63891 8.49172 8.35726 8.72216C8.10121 8.9526 7.89639 9.25986 7.76837 9.59272C7.64034 9.92558 7.56354 10.284 7.53793 10.6425C7.53793 11.0266 7.51231 11.3338 7.51231 11.5643V19.9626C7.51231 20.2186 7.5123 20.4747 7.58912 20.7563C7.64032 21.038 7.74277 21.294 7.8964 21.55C8.05002 21.8061 8.25484 22.0109 8.51088 22.1646C8.76693 22.3182 9.09981 22.395 9.53509 22.395C9.97036 22.395 10.3032 22.3182 10.5849 22.1646L9.09981 20.9355L10.0728 19.7577L11.4298 20.8587C11.5322 20.5003 11.5835 20.0906 11.5835 19.6041V11.001L11.5066 11.0522Z" fill="#CB0D07"/>
<path d="M53.501 76.6923C53.501 75.5401 53.6546 74.5927 53.9874 73.8758L52.5792 72.7492L53.5522 71.5458L54.9092 72.6212C55.5493 72.1091 56.4199 71.853 57.4953 71.853C58.9291 71.853 59.9533 72.2371 60.5678 73.0308C61.1823 73.8246 61.4896 74.8488 61.4896 76.129L61.4896 84.6809C61.4896 85.2954 61.4384 85.8843 61.3359 86.4732C61.2335 87.0621 61.0287 87.5742 60.747 88.0351C60.4654 88.496 60.0557 88.8545 59.5436 89.1361C59.0315 89.4178 58.3658 89.5458 57.5208 89.5458C56.6759 89.5458 55.959 89.4178 55.4469 89.1873C54.9092 88.9569 54.5251 88.5984 54.2435 88.1887C53.9618 87.7535 53.7826 87.2414 53.6802 86.6781C53.5777 86.0892 53.5522 85.449 53.5522 84.7577L53.5522 76.7179L53.501 76.6923ZM55.4725 85.0394C55.4725 85.3466 55.4725 85.6539 55.5237 85.9611C55.5749 86.2684 55.6517 86.55 55.7798 86.8317C55.9078 87.0877 56.1126 87.3182 56.3942 87.4718C56.6759 87.651 57.0344 87.7279 57.4697 87.7279C57.9562 87.7279 58.3402 87.5998 58.6219 87.3694C58.8779 87.1389 59.0827 86.8317 59.2108 86.4988C59.3388 86.166 59.4156 85.8075 59.4412 85.449C59.4412 85.065 59.4668 84.7577 59.4668 84.5273L59.4668 76.129C59.4668 75.8729 59.4668 75.6169 59.39 75.3353C59.3388 75.0536 59.2364 74.7976 59.0827 74.5415C58.9291 74.2855 58.7243 74.0806 58.4682 73.927C58.2122 73.7734 57.8793 73.6966 57.444 73.6966C57.0088 73.6966 56.6759 73.7734 56.3942 73.927L57.8793 75.156L56.9064 76.3338L55.5493 75.2328C55.4469 75.5913 55.3957 76.001 55.3957 76.4875L55.3957 85.0906L55.4725 85.0394Z" fill="#CB0D07"/>
<path d="M9.30288 37.6822C9.93956 34.4634 14.6792 33.5261 14.6616 29.936C14.6616 28.4858 13.4943 27.3185 12.0441 27.3185C10.7 27.3185 9.65659 28.3089 9.30288 29.6C8.96686 28.3089 7.90571 27.3185 6.56162 27.3185C5.11141 27.3185 3.94421 28.4858 3.94421 29.936C3.94421 33.5792 8.64852 34.4281 9.30288 37.6822Z" fill="#CB0D07"/>
<path d="M57.1309 58.4092C56.4942 61.6279 51.7545 62.5653 51.7722 66.1554C51.7722 67.6056 52.9395 68.7728 54.3897 68.7728C55.7338 68.7728 56.7772 67.7824 57.1309 66.4914C57.4669 67.7824 58.5281 68.7728 59.8722 68.7728C61.3224 68.7728 62.4896 67.6056 62.4896 66.1554C62.4896 62.5122 57.7853 61.6633 57.1309 58.4092Z" fill="#CB0D07"/>
</g>
<defs>
<clipPath id="clip0_3556_561">
<rect width="65.4895" height="95" fill="white" transform="translate(0.489563 0.545898)"/>
</clipPath>
</defs>
</svg>
