<svg width="66" height="96" viewBox="0 0 66 96" fill="none" xmlns="http://www.w3.org/2000/svg">
<g clip-path="url(#clip0_3556_772)">
<rect width="65.4895" height="95" transform="translate(0.489624 0.545898)" fill="white"/>
<path d="M4.9895 0.545898L61.4793 0.545898C63.9602 0.545898 65.9792 2.56482 65.9792 5.04579V91.046C65.9792 93.527 63.9602 95.5459 61.4793 95.5459H4.9895C2.50853 95.5459 0.489624 93.527 0.489624 91.046L0.489624 5.04579C0.489624 2.56482 2.50853 0.545898 4.9895 0.545898Z" fill="white"/>
<path d="M13.4896 10.9712C13.4896 11.6948 13.3437 12.3026 13.0517 12.7947C12.7597 13.3157 12.4093 13.7209 11.9422 14.0393C12.4093 14.3576 12.7597 14.7629 13.0517 15.2838C13.3437 15.8048 13.4896 16.4126 13.4896 17.1362V20.7542C13.4896 21.362 13.3728 21.9119 13.1684 22.404C12.9348 22.8671 12.6429 23.2723 12.2925 23.5906C11.913 23.909 11.5042 24.1406 11.0078 24.3142C10.5115 24.4879 10.0152 24.5458 9.48962 24.5458C8.96407 24.5458 8.43847 24.4589 7.97131 24.3142C7.47496 24.1695 7.06619 23.909 6.68663 23.5906C6.30707 23.2723 6.01513 22.8671 5.81075 22.404C5.57717 21.9409 5.48962 21.3909 5.48962 20.7542V17.1362C5.48962 16.4126 5.63556 15.8048 5.89834 15.2838C6.16111 14.7629 6.54069 14.3576 7.00785 14.0393C6.54069 13.7209 6.16111 13.3157 5.89834 12.7947C5.63556 12.2737 5.48962 11.6659 5.48962 10.9712V8.36633C5.48962 7.72957 5.60637 7.17964 5.81075 6.71654C6.04433 6.2245 6.30707 5.84824 6.68663 5.52986C7.06619 5.21148 7.47496 4.95099 7.97131 4.80627C8.46767 4.66155 8.96407 4.54578 9.48962 4.54578C10.0152 4.54578 10.5407 4.63261 11.0078 4.80627C11.475 4.97993 11.913 5.21148 12.2925 5.52986C12.6721 5.84824 12.964 6.25345 13.1684 6.71654C13.3728 7.17964 13.4896 7.72957 13.4896 8.36633V10.9712ZM11.2415 8.19267C11.2415 7.70062 11.0663 7.32436 10.7451 7.00598C10.4239 6.71654 9.98598 6.57183 9.48962 6.57183C8.99327 6.57183 8.55525 6.71654 8.23408 7.00598C7.91291 7.29541 7.73778 7.70062 7.73778 8.19267V11.4054C7.73778 11.8974 7.91291 12.3027 8.23408 12.5921C8.55525 12.8815 8.99327 13.0552 9.48962 13.0552C9.98598 13.0552 10.4239 12.9105 10.7451 12.5921C11.0663 12.3027 11.2415 11.8974 11.2415 11.4054V8.19267ZM11.2415 16.6152C11.2415 16.1232 11.0663 15.718 10.7451 15.3996C10.4239 15.0812 9.98598 14.9076 9.48962 14.9076C8.99327 14.9076 8.55525 15.0812 8.23408 15.3996C7.91291 15.718 7.73778 16.1232 7.73778 16.6152V20.8989C7.73778 21.3909 7.91291 21.7672 8.23408 22.0277C8.55525 22.2882 8.99327 22.4329 9.48962 22.4329C9.98598 22.4329 10.4239 22.2882 10.7451 22.0277C11.0663 21.7672 11.2415 21.362 11.2415 20.8989V16.6152Z" fill="#CB0D07"/>
<path d="M60.4896 77.9712C60.4896 78.6948 60.3437 79.3026 60.0517 79.7947C59.7597 80.3157 59.4093 80.7209 58.9422 81.0393C59.4093 81.3576 59.7597 81.7629 60.0517 82.2838C60.3437 82.8048 60.4896 83.4126 60.4896 84.1362V87.7542C60.4896 88.362 60.3728 88.9119 60.1684 89.404C59.9348 89.8671 59.6429 90.2723 59.2925 90.5906C58.913 90.909 58.5042 91.1406 58.0078 91.3142C57.5115 91.4879 57.0152 91.5458 56.4896 91.5458C55.9641 91.5458 55.4385 91.4589 54.9713 91.3142C54.475 91.1695 54.0662 90.909 53.6866 90.5906C53.3071 90.2723 53.0151 89.8671 52.8108 89.404C52.5772 88.9409 52.4896 88.3909 52.4896 87.7542V84.1362C52.4896 83.4126 52.6356 82.8048 52.8983 82.2838C53.1611 81.7629 53.5407 81.3576 54.0078 81.0393C53.5407 80.7209 53.1611 80.3157 52.8983 79.7947C52.6356 79.2737 52.4896 78.6659 52.4896 77.9712V75.3663C52.4896 74.7296 52.6064 74.1796 52.8108 73.7165C53.0443 73.2245 53.3071 72.8482 53.6866 72.5299C54.0662 72.2115 54.475 71.951 54.9713 71.8063C55.4677 71.6616 55.9641 71.5458 56.4896 71.5458C57.0152 71.5458 57.5407 71.6326 58.0078 71.8063C58.475 71.9799 58.913 72.2115 59.2925 72.5299C59.6721 72.8482 59.964 73.2534 60.1684 73.7165C60.3728 74.1796 60.4896 74.7296 60.4896 75.3663V77.9712ZM58.2415 75.1927C58.2415 74.7006 58.0663 74.3244 57.7451 74.006C57.4239 73.7165 56.986 73.5718 56.4896 73.5718C55.9933 73.5718 55.5552 73.7165 55.2341 74.006C54.9129 74.2954 54.7378 74.7006 54.7378 75.1927V78.4054C54.7378 78.8974 54.9129 79.3027 55.2341 79.5921C55.5552 79.8815 55.9933 80.0552 56.4896 80.0552C56.986 80.0552 57.4239 79.9105 57.7451 79.5921C58.0663 79.3027 58.2415 78.8974 58.2415 78.4054V75.1927ZM58.2415 83.6152C58.2415 83.1232 58.0663 82.718 57.7451 82.3996C57.4239 82.0812 56.986 81.9076 56.4896 81.9076C55.9933 81.9076 55.5552 82.0812 55.2341 82.3996C54.9129 82.718 54.7378 83.1232 54.7378 83.6152V87.8989C54.7378 88.3909 54.9129 88.7672 55.2341 89.0277C55.5552 89.2882 55.9933 89.4329 56.4896 89.4329C56.986 89.4329 57.4239 89.2882 57.7451 89.0277C58.0663 88.7672 58.2415 88.362 58.2415 87.8989V83.6152Z" fill="#CB0D07"/>
<path d="M9.30288 37.6821C9.93956 34.4634 14.6792 33.5261 14.6616 29.9359C14.6616 28.4857 13.4943 27.3185 12.0441 27.3185C10.7 27.3185 9.65659 28.3089 9.30288 29.5999C8.96686 28.3089 7.90571 27.3185 6.56162 27.3185C5.11141 27.3185 3.94421 28.4857 3.94421 29.9359C3.94421 33.5791 8.64852 34.428 9.30288 37.6821Z" fill="#CB0D07"/>
<path d="M23.5525 28.0817C24.1295 25.1225 28.4943 24.257 28.4869 20.9575C28.4869 19.6259 27.4068 18.5458 26.0752 18.5458C24.8471 18.5458 23.8706 19.4631 23.5599 20.6542C23.2418 19.4705 22.2727 18.5458 21.0372 18.5458C19.7056 18.5458 18.6255 19.6259 18.6255 20.9575C18.6181 24.3013 22.9533 25.0929 23.5599 28.0817H23.5525Z" fill="#CB0D07"/>
<path d="M42.4391 28.0817C43.0162 25.1151 47.381 24.257 47.3736 20.9575C47.3736 19.6259 46.2935 18.5458 44.9618 18.5458C43.7338 18.5458 42.7573 19.4631 42.4465 20.6542C42.1284 19.4705 41.1593 18.5458 39.9313 18.5458C38.5996 18.5458 37.5195 19.6259 37.5195 20.9575C37.5121 24.3013 41.8473 25.0929 42.454 28.0817H42.4391Z" fill="#CB0D07"/>
<path d="M23.5528 67.2114C24.1298 70.178 28.4946 71.0361 28.4872 74.3356C28.4872 75.6672 27.4071 76.7473 26.0754 76.7473C24.8474 76.7473 23.8709 75.83 23.5602 74.6389C23.242 75.83 22.2729 76.7473 21.0375 76.7473C19.7058 76.7473 18.6257 75.6672 18.6257 74.3356C18.6183 70.9918 22.9535 70.2002 23.5602 67.2114H23.5528Z" fill="#CB0D07"/>
<path d="M42.4471 51.827C41.8701 48.8604 37.5053 48.0022 37.5127 44.7028C37.5127 43.3712 38.5928 42.2911 39.9244 42.2911C41.1525 42.2911 42.129 43.2084 42.4397 44.3995C42.7578 43.2084 43.727 42.2911 44.9624 42.2911C46.294 42.2911 47.3741 43.3712 47.3741 44.7028C47.3815 48.0466 43.0464 48.8382 42.4397 51.827L42.4471 51.827Z" fill="#CB0D07"/>
<path d="M42.4396 67.3223C43.0167 70.2889 47.3814 71.147 47.374 74.4539C47.374 75.7855 46.2939 76.8656 44.9623 76.8656C43.7343 76.8656 42.7577 75.9483 42.447 74.7572C42.1289 75.9483 41.1598 76.8656 39.9318 76.8656C38.6001 76.8656 37.52 75.7855 37.52 74.4539C37.5126 71.1101 41.8478 70.3259 42.4544 67.3223H42.4396Z" fill="#CB0D07"/>
<path d="M23.5605 51.8273C22.9835 48.8607 18.6187 48.0026 18.6261 44.7031C18.6261 43.3715 19.7062 42.2914 21.0378 42.2914C22.2659 42.2914 23.2424 43.2087 23.5531 44.3998C23.8712 43.2087 24.8403 42.2914 26.0684 42.2914C27.4 42.2914 28.4801 43.3715 28.4801 44.7031C28.4875 48.0469 24.1523 48.8385 23.5457 51.8273L23.5605 51.8273Z" fill="#CB0D07"/>
<path d="M33.424 40.0817C32.847 37.1151 28.4822 36.2569 28.4896 32.9575C28.4896 31.6259 29.5697 30.5458 30.9013 30.5458C32.1294 30.5458 33.1059 31.4631 33.4166 32.6542C33.7347 31.4631 34.7038 30.5458 35.9319 30.5458C37.2635 30.5458 38.3436 31.6259 38.3436 32.9575C38.351 36.3013 34.0158 37.0929 33.4092 40.0817L33.424 40.0817Z" fill="#CB0D07"/>
<path d="M33.4092 54.5458C33.9863 57.5123 38.351 58.3705 38.3436 61.67C38.3436 63.0016 37.2635 64.0817 35.9319 64.0817C34.7039 64.0817 33.7274 63.1643 33.4166 61.9733C33.0985 63.1643 32.1294 64.0817 30.9014 64.0817C29.5697 64.0817 28.4896 63.0016 28.4896 61.67C28.4822 58.3261 32.8174 57.5345 33.424 54.5458H33.4092Z" fill="#CB0D07"/>
<path d="M56.8022 58.4092C56.1655 61.628 51.4259 62.5653 51.4435 66.1554C51.4435 67.6056 52.6108 68.7729 54.061 68.7729C55.4051 68.7729 56.4485 67.7825 56.8022 66.4914C57.1382 67.7825 58.1994 68.7729 59.5435 68.7729C60.9937 68.7729 62.1609 67.6056 62.1609 66.1554C62.1609 62.5122 57.4566 61.6633 56.8022 58.4092Z" fill="#CB0D07"/>
</g>
<defs>
<clipPath id="clip0_3556_772">
<rect width="65.4895" height="95" fill="white" transform="translate(0.489624 0.545898)"/>
</clipPath>
</defs>
</svg>
