<svg width="66" height="96" viewBox="0 0 66 96" fill="none" xmlns="http://www.w3.org/2000/svg">
<g clip-path="url(#clip0_3556_749)">
<rect width="65.4895" height="95" transform="translate(0.489563 0.545898)" fill="white"/>
<path d="M4.98944 0.545898L61.4792 0.545898C63.9602 0.545898 65.9791 2.56482 65.9791 5.04579V91.046C65.9791 93.527 63.9602 95.5459 61.4792 95.5459H4.98944C2.50847 95.5459 0.489563 93.527 0.489563 91.046L0.489563 5.04579C0.489563 2.56482 2.50847 0.545898 4.98944 0.545898Z" fill="white"/>
<path d="M60.8311 71.7282L60.8311 87.3056L63.3839 85.2477L63.3839 87.3838L60.8571 89.4156L58.7992 89.4156L58.7992 71.7542L60.805 71.7542L60.8311 71.7282Z" fill="#CB0D07"/>
<path d="M50.4896 74.9582C50.4896 74.4112 50.5937 73.9163 50.7761 73.4734C50.9584 73.0566 51.245 72.6919 51.5576 72.4054C51.8962 72.1189 52.2609 71.9105 52.7038 71.7542C53.1205 71.5979 53.5894 71.5458 54.0583 71.5458C54.5272 71.5458 54.996 71.6239 55.4128 71.7542C55.8557 71.8844 56.2203 72.1189 56.559 72.4054C56.8976 72.6919 57.1582 73.0566 57.3405 73.4734C57.5229 73.8902 57.627 74.3851 57.627 74.9582L57.627 86.1073C57.627 86.6804 57.5229 87.1753 57.3405 87.5921C57.1582 88.0349 56.8716 88.3736 56.559 88.6601C56.2203 88.9466 55.8557 89.1811 55.4128 89.3113C54.97 89.4676 54.5272 89.5458 54.0583 89.5458C53.0163 89.5458 52.1567 89.2592 51.4794 88.6601C50.8022 88.061 50.4896 87.2013 50.4896 86.1073L50.4896 74.9582ZM52.4953 86.1854C52.4953 86.6283 52.6516 86.993 52.9382 87.2534C53.2247 87.5139 53.6155 87.6702 54.0583 87.6702C54.5011 87.6702 54.8918 87.54 55.1784 87.2534C55.4649 86.993 55.6213 86.6283 55.6213 86.1854L55.6213 74.8801C55.6213 74.4372 55.4649 74.0725 55.1784 73.8121C54.8658 73.5516 54.5011 73.3953 54.0583 73.3953C53.6155 73.3953 53.2247 73.5255 52.9382 73.8121C52.6516 74.0725 52.4953 74.4372 52.4953 74.8801L52.4953 86.1854Z" fill="#CB0D07"/>
<path d="M5.04233 24.3634V8.78595L2.48956 10.8438V8.7078L5.01634 6.67596H7.07417V24.3373H5.06841L5.04233 24.3634Z" fill="#CB0D07"/>
<path d="M15.3839 21.1333C15.3839 21.6804 15.2797 22.1753 15.0974 22.6181C14.915 23.0349 14.6284 23.3996 14.3158 23.6862C13.9772 23.9727 13.6125 24.1811 13.1697 24.3374C12.7529 24.4937 12.284 24.5458 11.8151 24.5458C11.3462 24.5458 10.8774 24.4676 10.4606 24.3374C10.0178 24.2071 9.65307 23.9727 9.31443 23.6862C8.97579 23.3996 8.71525 23.0349 8.5329 22.6181C8.35056 22.2013 8.2464 21.7064 8.2464 21.1333V9.98427C8.2464 9.41119 8.35056 8.91625 8.5329 8.49947C8.71525 8.05663 9.00184 7.71799 9.31443 7.43145C9.65307 7.14491 10.0178 6.91047 10.4606 6.78022C10.9034 6.62392 11.3462 6.54578 11.8151 6.54578C12.8571 6.54578 13.7167 6.83232 14.394 7.43145C15.0713 8.03058 15.3839 8.89021 15.3839 9.98427V21.1333ZM13.3781 9.90612C13.3781 9.46329 13.2218 9.0986 12.9352 8.83811C12.6487 8.57761 12.258 8.42132 11.8151 8.42132C11.3723 8.42132 10.9816 8.55157 10.695 8.83811C10.4085 9.0986 10.2522 9.46329 10.2522 9.90612V21.2115C10.2522 21.6543 10.4085 22.019 10.695 22.2795C11.0076 22.54 11.3723 22.6963 11.8151 22.6963C12.258 22.6963 12.6487 22.566 12.9352 22.2795C13.2218 22.019 13.3781 21.6543 13.3781 21.2115V9.90612Z" fill="#CB0D07"/>
<path d="M9.30288 37.6821C9.93956 34.4634 14.6792 33.5261 14.6616 29.9359C14.6616 28.4857 13.4943 27.3185 12.0441 27.3185C10.7 27.3185 9.65659 28.3089 9.30288 29.5999C8.96686 28.3089 7.90571 27.3185 6.56162 27.3185C5.11141 27.3185 3.94421 28.4857 3.94421 29.9359C3.94421 33.5791 8.64852 34.428 9.30288 37.6821Z" fill="#CB0D07"/>
<path d="M56.8022 58.4092C56.1655 61.628 51.4259 62.5653 51.4435 66.1554C51.4435 67.6056 52.6108 68.7729 54.061 68.7729C55.4051 68.7729 56.4485 67.7825 56.8022 66.4914C57.1382 67.7825 58.1994 68.7729 59.5435 68.7729C60.9937 68.7729 62.1609 67.6056 62.1609 66.1554C62.1609 62.5122 57.4566 61.6633 56.8022 58.4092Z" fill="#CB0D07"/>
<path d="M23.5527 30.0637C24.1297 27.0971 28.4945 26.239 28.4871 22.9321C28.4871 21.6005 27.407 20.5204 26.0754 20.5204C24.8473 20.5204 23.8708 21.4377 23.5601 22.6288C23.242 21.4377 22.2729 20.5204 21.0374 20.5204C19.7058 20.5204 18.6257 21.6005 18.6257 22.9321C18.6183 26.276 22.9535 27.0675 23.5601 30.0637H23.5527Z" fill="#CB0D07"/>
<path d="M23.5524 45.9837C24.1295 43.0246 28.4943 42.159 28.4869 38.8596C28.4869 37.5279 27.4068 36.4478 26.0751 36.4478C24.8471 36.4478 23.8706 37.3652 23.5599 38.5562C23.2417 37.3726 22.2726 36.4478 21.0372 36.4478C19.7055 36.4478 18.6254 37.5279 18.6254 38.8596C18.618 42.2034 22.9532 42.995 23.5599 45.9837H23.5524Z" fill="#CB0D07"/>
<path d="M42.4391 29.9526C43.0161 26.986 47.3809 26.1279 47.3735 22.821C47.3735 21.4894 46.2934 20.4093 44.9618 20.4093C43.7337 20.4093 42.7572 21.3266 42.4465 22.5177C42.1284 21.3266 41.1593 20.4093 39.9312 20.4093C38.5996 20.4093 37.5195 21.4894 37.5195 22.821C37.5121 26.1723 41.8473 26.9564 42.4539 29.9526H42.4391Z" fill="#CB0D07"/>
<path d="M42.4391 45.9837C43.0161 43.0172 47.3809 42.159 47.3735 38.8596C47.3735 37.5279 46.2934 36.4478 44.9618 36.4478C43.7337 36.4478 42.7572 37.3652 42.4465 38.5562C42.1284 37.3726 41.1593 36.4478 39.9312 36.4478C38.5996 36.4478 37.5195 37.5279 37.5195 38.8596C37.5121 42.2034 41.8473 42.995 42.4539 45.9837H42.4391Z" fill="#CB0D07"/>
<path d="M32.7925 37.0891C33.3696 34.1225 37.7343 33.2644 37.7269 29.9575C37.7269 28.6259 36.6468 27.5458 35.3152 27.5458C34.0871 27.5458 33.1106 28.4631 32.7999 29.6542C32.4818 28.4631 31.5127 27.5458 30.2846 27.5458C28.953 27.5458 27.8729 28.6259 27.8729 29.9575C27.8581 33.3013 32.2007 34.0929 32.8073 37.0891H32.7925Z" fill="#CB0D07"/>
<path d="M32.8073 58.5458C32.2302 61.5123 27.8655 62.3705 27.8729 65.6774C27.8729 67.009 28.953 68.0891 30.2846 68.0891C31.5127 68.0891 32.4892 67.1717 32.7999 65.9807C33.118 67.1717 34.0871 68.0891 35.3152 68.0891C36.6468 68.0891 37.7269 67.009 37.7269 65.6774C37.7417 62.3335 33.3991 61.5419 32.7925 58.5458L32.8073 58.5458Z" fill="#CB0D07"/>
<path d="M23.5526 66.1135C24.1297 69.08 28.4944 69.9382 28.487 73.2376C28.487 74.5693 27.4069 75.6494 26.0753 75.6494C24.8473 75.6494 23.8707 74.732 23.56 73.541C23.2419 74.732 22.2728 75.6494 21.0373 75.6494C19.7057 75.6494 18.6256 74.5693 18.6256 73.2376C18.6182 69.8938 22.9534 69.1022 23.56 66.1135H23.5526Z" fill="#CB0D07"/>
<path d="M23.553 50.1934C24.13 53.16 28.4948 54.0181 28.4874 57.3176C28.4874 58.6492 27.4073 59.7293 26.0757 59.7293C24.8476 59.7293 23.8711 58.812 23.5604 57.6209C23.2423 58.812 22.2732 59.7293 21.0377 59.7293C19.7061 59.7293 18.626 58.6492 18.626 57.3176C18.6186 53.9738 22.9538 53.1822 23.5604 50.1934H23.553Z" fill="#CB0D07"/>
<path d="M42.4396 66.2244C43.0167 69.191 47.3814 70.0491 47.374 73.356C47.374 74.6876 46.2939 75.7677 44.9623 75.7677C43.7343 75.7677 42.7577 74.8504 42.447 73.6593C42.1289 74.8504 41.1598 75.7677 39.9318 75.7677C38.6001 75.7677 37.52 74.6876 37.52 73.356C37.5126 70.0121 41.8478 69.2279 42.4544 66.2244H42.4396Z" fill="#CB0D07"/>
<path d="M42.4397 50.1931C43.0167 53.1597 47.3815 54.0179 47.3741 57.3173C47.3741 58.649 46.294 59.729 44.9624 59.729C43.7343 59.729 42.7578 58.8117 42.4471 57.6206C42.129 58.8117 41.1599 59.729 39.9318 59.729C38.6002 59.729 37.5201 58.649 37.5201 57.3173C37.5127 53.9735 41.8479 53.1819 42.4545 50.1931H42.4397Z" fill="#CB0D07"/>
</g>
<defs>
<clipPath id="clip0_3556_749">
<rect width="65.4895" height="95" fill="white" transform="translate(0.489563 0.545898)"/>
</clipPath>
</defs>
</svg>
