<svg width="66" height="96" viewBox="0 0 66 96" fill="none" xmlns="http://www.w3.org/2000/svg">
<g clip-path="url(#clip0_3556_495)">
<rect width="65.4895" height="95" transform="translate(0.489563 0.545898)" fill="white"/>
<path d="M4.98944 0.545898L61.4792 0.545898C63.9602 0.545898 65.9791 2.56482 65.9791 5.04579V91.046C65.9791 93.527 63.9602 95.5459 61.4792 95.5459H4.98944C2.50847 95.5459 0.489563 93.527 0.489563 91.046L0.489563 5.04579C0.489563 2.56482 2.50847 0.545898 4.98944 0.545898Z" fill="white"/>
<path d="M12.0825 24.5458L11.2595 20.5369H7.25062L6.45416 24.5458H4.48956L8.31257 6.54578H10.2241L14.1002 24.5458H12.0825ZM9.18868 10.236L8.44531 14.4307L7.59576 18.652H10.9143L10.0382 14.3776L9.32142 10.236H9.21523H9.18868Z" fill="#CB0D07"/>
<path d="M54.5072 71.5458L55.3302 75.5546L59.3391 75.5546L60.1356 71.5458L62.1002 71.5458L58.2771 89.5458L56.3656 89.5458L52.4895 71.5458L54.5072 71.5458ZM57.401 85.8555L58.1444 81.6608L58.994 77.4396L55.6754 77.4396L56.5515 81.7139L57.2683 85.8555L57.3745 85.8555L57.401 85.8555Z" fill="#CB0D07"/>
<path d="M33.0796 56.9458C34.0996 51.7358 41.7696 50.2258 41.7496 44.4158C41.7496 42.0758 39.8496 40.1758 37.5096 40.1758C35.3496 40.1758 33.6396 41.7858 33.0796 43.8758C32.5196 41.7858 30.8096 40.1758 28.6496 40.1758C26.3096 40.1758 24.4196 42.0758 24.4096 44.4158C24.3896 50.2958 32.0196 51.6758 33.0796 56.9458Z" fill="#CB0D07"/>
<path d="M9.30288 37.6822C9.93956 34.4634 14.6792 33.5261 14.6616 29.936C14.6616 28.4858 13.4943 27.3185 12.0441 27.3185C10.7 27.3185 9.65659 28.3089 9.30288 29.6C8.96686 28.3089 7.90571 27.3185 6.56162 27.3185C5.11141 27.3185 3.94421 28.4858 3.94421 29.936C3.94421 33.5792 8.64852 34.4281 9.30288 37.6822Z" fill="#CB0D07"/>
<path d="M57.1309 58.4092C56.4942 61.6279 51.7545 62.5653 51.7722 66.1554C51.7722 67.6056 52.9395 68.7728 54.3897 68.7728C55.7338 68.7728 56.7772 67.7824 57.1309 66.4914C57.4669 67.7824 58.5281 68.7728 59.8722 68.7728C61.3224 68.7728 62.4896 67.6056 62.4896 66.1554C62.4896 62.5122 57.7853 61.6633 57.1309 58.4092Z" fill="#CB0D07"/>
</g>
<defs>
<clipPath id="clip0_3556_495">
<rect width="65.4895" height="95" fill="white" transform="translate(0.489563 0.545898)"/>
</clipPath>
</defs>
</svg>
