<svg width="66" height="96" viewBox="0 0 66 96" fill="none" xmlns="http://www.w3.org/2000/svg">
<g clip-path="url(#clip0_3556_651)">
<rect width="65.4895" height="95" transform="translate(0.489563 0.545898)" fill="white"/>
<path d="M4.98944 0.545898L61.4792 0.545898C63.9602 0.545898 65.9791 2.56482 65.9791 5.04579V91.046C65.9791 93.527 63.9602 95.5459 61.4792 95.5459H4.98944C2.50847 95.5459 0.489563 93.527 0.489563 91.046L0.489563 5.04579C0.489563 2.56482 2.50847 0.545898 4.98944 0.545898Z" fill="white"/>
<path d="M35.7746 65.1258C35.7746 65.1258 38.2895 64.7765 39.4945 64.0605C40.6995 63.3357 42.9699 62.4451 43.4851 62.2355C44.0003 62.0259 44.3408 62.0958 44.5155 61.991C44.6901 61.8862 48.4711 58.6204 49.1261 58.2711C49.781 57.9305 50.2962 58.1139 50.6716 57.1097C51.0471 56.1055 54.1034 48.6919 54.1732 48.1331H9.0368V57.5027C9.0368 57.5027 10.3379 60.3144 12.355 60.751C14.3721 61.1876 22.4494 64.4185 23.1392 64.3923C23.8291 64.3574 35.7746 65.1171 35.7746 65.1171V65.1258Z" fill="#E13F00"/>
<path d="M35.4341 65.3703C35.4341 65.1957 34.5608 62.122 32.9367 61.3186C31.3125 60.5153 29.2866 60.6463 29.2866 60.6463L33.74 48.6745L27.3743 50.1328L29.2866 60.655C29.2866 60.655 24.0474 60.917 23.5409 63.5803L35.4428 65.3791L35.4341 65.3703Z" fill="#61A04B"/>
<path d="M24.0823 60.2271C24.0823 60.2271 23.2702 59.4761 23.0781 58.5593C22.886 57.6424 23.0956 57.1883 23.0956 57.1883C23.0956 57.1883 23.8116 57.7908 24.0474 58.5418C24.2831 59.284 24.0823 60.2358 24.0823 60.2358V60.2271Z" fill="#E6E7E8"/>
<path d="M22.9558 65.9729C23.2789 65.8943 21.8818 61.406 23.0956 58.5855C24.3093 55.7738 25.9335 55.6777 26.2828 54.3941C26.6321 53.1105 33.7662 50.5257 33.7662 50.5257L41.1711 48.1506H22.5018C22.5018 48.1506 14.6516 48.9452 12.5209 50.6131C10.3903 52.2809 8.43428 57.1709 10.2331 59.3452C12.0319 61.5108 17.2625 62.7245 17.8563 63.3533C18.4588 63.982 19.9869 66.7151 22.9558 65.9816V65.9729Z" fill="#1066A0"/>
<path d="M25.6278 68.7671L32.8231 68.9243C32.8231 68.9243 32.8668 68.9156 32.9454 68.8894C33.478 68.7409 35.9405 67.6319 35.9143 65.5886C35.8794 63.2571 35.4952 61.467 31.8451 60.6288C28.1951 59.7905 25.4619 60.131 23.5234 62.4188C21.5849 64.7067 23.0693 68.2432 25.6191 68.7496L25.6278 68.7671Z" fill="#D1D3D4"/>
<path d="M29.2517 85.8385C33.1822 85.8385 36.3684 83.3325 36.3684 80.2412C36.3684 77.1499 33.1822 74.6439 29.2517 74.6439C25.3213 74.6439 22.135 77.1499 22.135 80.2412C22.135 83.3325 25.3213 85.8385 29.2517 85.8385Z" fill="#E13F00"/>
<path d="M35.1546 72.6617C35.1546 72.6617 37.9577 74.6526 38.2022 78.1804C38.4467 81.7082 36.2112 83.734 32.4389 84.0921C28.6667 84.4501 26.7107 84.4501 24.0823 83.0355C21.4539 81.6209 21.3666 81.9178 21.0086 80.5293C20.6506 79.1409 20.5545 79.0798 20.2576 78.0232C19.9607 76.9666 19.1399 76.8793 19.7424 75.6743C20.3449 74.4692 21.8818 73.4738 22.6939 73.4126C23.506 73.3515 35.1546 72.6617 35.1546 72.6617Z" fill="#63A518"/>
<path d="M21.8556 77.5517C23.3051 78.7916 28.1864 79.9967 30.9021 80.4071C33.6178 80.8175 35.2157 78.8178 36.7264 78.2502C37.5385 77.9446 37.9227 78.9139 38.0973 79.9617C38.2109 79.4204 38.2458 78.8353 38.2021 78.1891C37.9576 74.6613 35.1546 72.6704 35.1546 72.6704C35.1546 72.6704 34.2465 72.7228 32.9192 72.8014C30.3607 73.4039 27.8633 73.9628 27.5227 73.9628C26.7979 73.9628 22.9383 73.8143 21.2181 74.7487C19.4979 75.683 20.406 76.3204 21.8468 77.5517H21.8556Z" fill="#4A8C00"/>
<path d="M34.718 79.1148C34.4298 79.1322 34.1417 79.2545 33.9059 79.4728C33.8011 79.5776 33.7138 79.6911 33.6527 79.8133C33.5479 80.0055 33.4431 80.1976 33.3383 80.3809C33.0764 80.8525 32.5612 81.8217 32.2992 82.3107C33.6876 82.922 35.7484 84.4327 36.7264 82.6251C36.901 82.6251 37.0844 82.5552 37.2241 82.4243C37.3464 82.302 37.4162 82.1536 37.4337 82.0051C37.5996 81.9615 37.7568 81.8829 37.8965 81.7519C38.0799 81.5772 38.1847 81.3502 38.2021 81.1232C38.3942 81.0533 38.5776 80.9398 38.7348 80.7826C39.3111 80.2238 39.3722 79.3505 38.8745 78.8353C38.7872 78.748 38.6824 78.6782 38.5776 78.617C38.6999 78.3114 38.6562 77.9709 38.4292 77.7351C38.1148 77.4033 37.5559 77.4295 37.1892 77.7875C37.1543 77.8224 37.1281 77.8574 37.0931 77.8923C36.7264 77.5692 36.1326 77.6041 35.7309 77.9883C35.5825 78.1281 35.4864 78.294 35.434 78.4773C35.2594 78.521 35.0935 78.6083 34.9538 78.7393C34.8403 78.8441 34.7617 78.9751 34.7093 79.106L34.718 79.1148Z" fill="#D1D3D4"/>
<path d="M18.5723 60.8559C18.5723 60.8559 19.6376 62.1133 19.7599 61.1266C19.8821 60.1311 19.7162 60.1311 20.0305 59.3103C20.3449 58.4895 20.0829 57.8346 20.0305 57.3194C19.9782 56.8129 20.1004 56.2803 19.8384 55.4769C19.5677 54.6735 19.7249 54.5338 19.3756 54.3417C19.0351 54.1496 18.5723 54.4902 18.5723 54.4902C18.5723 54.4902 18.5024 53.5471 18.2317 52.8398C17.961 52.1325 16.8433 49.2421 16.6076 49.1024C16.3631 48.954 14.7738 49.5914 14.7738 49.5914C14.8175 49.7486 13.8482 51.5387 13.8482 51.8967C13.8482 52.2547 14.2324 55.5817 14.0403 56.2104C13.8482 56.8391 14.2062 57.9044 14.4071 58.2712C14.5992 58.6379 15.2279 61.0131 16.0749 61.2488C16.9219 61.4933 18.5723 60.8646 18.5723 60.8646V60.8559Z" fill="#F1A882"/>
<path d="M18.4501 48.1506H17.2538V54.8744H18.4501V48.1506Z" fill="#711A11"/>
<path d="M18.4588 59.3365H17.0179V69.2824H18.4588V59.3365Z" fill="#711A11"/>
<path d="M43.3105 48.1506C42.6206 48.6396 41.7561 49.2247 41.2933 49.4168C40.49 49.7573 37.8005 50.6305 37.8005 50.6305C37.8005 50.6305 37.8267 50.9711 37.8005 51.722C37.7743 52.473 38.3593 53.4161 38.141 54.3417C37.9227 55.2673 38.4816 55.2673 38.4816 55.2673C38.4816 55.2673 41.5116 55.3895 42.3325 55.145C43.1533 54.9005 46.1397 52.6739 47.6416 51.1719C47.6416 51.1719 48.8903 49.4342 47.8599 48.1593H43.3105V48.1506Z" fill="#F1A882"/>
<path d="M41.3894 52.0801C41.2147 51.2156 41.0314 50.2988 40.8655 49.5827C39.8001 49.9844 37.8005 50.6306 37.8005 50.6306C37.8005 50.6306 37.8267 50.9711 37.8005 51.7221C37.7743 52.4731 38.3593 53.4161 38.141 54.3417C37.9227 55.2674 38.4816 55.2674 38.4816 55.2674C38.4816 55.2674 40.8218 55.3634 41.9482 55.215C41.922 54.3679 41.6339 53.2852 41.3894 52.0889V52.0801Z" fill="#D78E69"/>
<path d="M13.6473 49.9843C13.6473 50.351 14.2324 55.5729 14.0403 56.2016C13.8482 56.8303 14.2062 57.8956 14.407 58.2624C14.5555 58.5418 14.9572 59.9913 15.516 60.7685C15.5335 60.3057 15.5859 59.8603 15.9526 59.6682C16.6512 59.3015 16.7298 59.5198 16.4591 58.7252C16.1884 57.9218 15.8478 58.0179 15.9526 56.9351C16.0487 55.8435 16.1273 56.1928 16.1971 55.2934C16.267 54.394 14.9397 50.1415 14.7738 49.5913C14.6253 49.6612 13.6473 49.6263 13.6473 49.993V49.9843Z" fill="#D78E69"/>
<path d="M33.9409 79.0099C33.9409 79.0099 34.9887 75.7441 34.753 73.0197C34.753 73.0197 35.5912 74.2596 35.8619 73.727C36.1326 73.1943 35.4253 71.7797 35.0848 71.4042C34.753 71.0375 34.5434 70.8366 34.4299 70.7144C34.3164 70.5921 33.8099 67.597 31.8539 66.4531C29.8979 65.3092 26.9726 65.8506 25.6977 67.5621C24.4228 69.2823 24.2831 71.3344 24.2831 71.3344C24.2831 71.3344 23.4448 71.1685 23.2702 71.64C23.1043 72.1115 22.493 74.2946 22.493 74.2946C22.493 74.2946 23.9775 73.7619 24.0037 73.6396C24.0386 73.5174 24.5102 74.3906 24.5102 75.1678C24.5102 75.9449 24.7809 78.093 24.711 78.2328C24.6411 78.3637 24.711 79.2457 24.711 79.2457C24.711 79.2457 25.6017 80.2062 28.9898 80.3896C32.3691 80.573 33.9409 79.0099 33.9409 79.0099Z" fill="#F1A882"/>
<path d="M24.0124 73.6397C24.0474 73.5175 24.5189 74.3907 24.5189 75.1679C24.5189 75.945 24.7896 78.0931 24.7197 78.2328C24.6499 78.3638 24.7197 79.2458 24.7197 79.2458C24.7197 79.2458 25.0166 79.5601 25.916 79.8658L25.7589 76.1459C25.7589 76.1459 27.9768 76.6174 28.3174 75.6394C28.6492 74.6614 29.0247 72.88 28.8588 72.2077C28.6929 71.5353 27.9506 71.6313 28.3174 71.1685C28.6841 70.697 29.1644 70.7145 29.2081 70.4263C29.243 70.1382 29.243 69.7889 29.243 69.1165C29.243 68.4441 28.8588 67.8678 28.9898 66.7937C29.0247 66.5143 29.1207 66.1912 29.2168 65.8594C27.8284 65.9293 26.4574 66.5318 25.689 67.5622C24.4141 69.2824 24.2744 71.3345 24.2744 71.3345C24.2744 71.3345 23.4361 71.1685 23.2615 71.6401C23.0956 72.1116 22.4843 74.2946 22.4843 74.2946C22.4843 74.2946 23.9688 73.762 23.995 73.6397H24.0124Z" fill="#D78E69"/>
<path d="M28.9898 80.3897C30.5179 80.477 32.9367 80.1015 33.4606 79.368C33.5916 78.8354 32.6223 78.6957 32.046 78.425C30.9632 77.9098 30.8846 77.1501 30.1337 77.3946C29.374 77.6391 29.2081 76.9318 28.003 77.0191C26.9639 77.0977 25.6977 78.3726 25.4707 79.6911C26.0994 79.9705 27.1997 80.2849 28.9898 80.381V80.3897Z" fill="#EACDA1"/>
<path d="M35.8619 73.727C35.5912 74.2684 34.7529 73.0197 34.7529 73.0197C34.9538 75.3076 33.6963 78.5821 33.4693 79.368C33.4693 79.368 36.2723 77.4906 36.7613 76.5213C37.1193 75.7966 36.3946 74.0152 35.8968 73.1333C35.9405 73.369 35.9405 73.5699 35.8619 73.7183V73.727Z" fill="#EACDA1"/>
<path d="M22.0477 77.281C22.3621 78.4598 25.689 79.7871 25.689 79.7871C25.689 79.7871 25.4183 79.4291 24.8594 78.4773C24.7808 78.3463 24.5102 75.945 24.5102 75.1678C24.5102 74.3907 24.0386 73.5174 24.0037 73.6397C23.9688 73.7619 22.493 74.2946 22.493 74.2946C22.493 74.2946 22.8685 72.9237 23.113 72.1203C22.8161 72.1552 22.5367 72.2076 22.3271 72.2949C21.4888 72.6442 22.0302 73.1682 21.6023 74.2597C21.1832 75.3425 21.7246 76.1022 22.039 77.2723L22.0477 77.281Z" fill="#EACDA1"/>
<path d="M25.6977 67.5622C26.9726 65.8507 29.9066 65.3093 31.8539 66.4532C32.5175 66.8461 33.0152 67.4486 33.3907 68.0861L33.4693 66.3571C33.4693 66.3571 32.2817 63.8248 29.208 63.851C26.1343 63.8772 25.2873 66.2349 25.2873 66.2349L25.3921 67.9988C25.4794 67.8503 25.5755 67.7106 25.689 67.5622H25.6977Z" fill="#D78E69"/>
<path d="M36.1414 61.6418C36.1414 61.6418 36.543 60.6114 37.3289 60.0962C38.1148 59.581 38.6125 59.6072 38.6125 59.6072C38.6125 59.6072 38.3157 60.4979 37.7044 60.9869C37.1019 61.4759 36.1414 61.6418 36.1414 61.6418Z" fill="#E6E7E8"/>
<path d="M34.3425 60.1835C34.3425 60.1835 34.6045 59.1095 35.3031 58.4895C36.0104 57.8695 36.5081 57.8258 36.5081 57.8258C36.5081 57.8258 36.3335 58.7514 35.8008 59.319C35.2681 59.8866 34.3425 60.1835 34.3425 60.1835Z" fill="#E6E7E8"/>
<path d="M32.0722 59.6595C32.0722 59.6595 31.8713 58.5767 32.273 57.721C32.6747 56.8652 33.1113 56.6295 33.1113 56.6295C33.1113 56.6295 33.3209 57.5463 33.0676 58.2798C32.8057 59.0133 32.0809 59.6595 32.0809 59.6595H32.0722Z" fill="#E6E7E8"/>
<path d="M27.0599 59.3277C27.0599 59.3277 26.3613 58.472 26.2915 57.5377C26.2216 56.6033 26.4923 56.1754 26.4923 56.1754C26.4923 56.1754 27.121 56.874 27.2607 57.6424C27.3917 58.4109 27.0686 59.3277 27.0686 59.3277H27.0599Z" fill="#E6E7E8"/>
<path d="M37.3813 63.6764C37.3813 63.6764 37.783 62.646 38.5689 62.1308C39.3548 61.6156 39.8525 61.6418 39.8525 61.6418C39.8525 61.6418 39.5556 62.5324 38.9444 63.0214C38.3419 63.5104 37.3813 63.6764 37.3813 63.6764Z" fill="#E6E7E8"/>
<path d="M50.855 59.4675C50.5319 60.0088 51.0821 59.9914 49.3618 61.1178C47.6416 62.2443 47.2137 61.8688 45.3538 62.4189C43.4938 62.969 42.8215 62.5062 42.446 62.6634C42.0705 62.8206 41.5116 61.7902 41.6688 60.7773C41.826 59.7644 41.7823 58.2624 42.935 58.1402C44.0876 58.0179 44.4107 57.625 45.9563 57.5289C47.5019 57.4329 48.3926 57.3543 49.3618 57.5289C50.3398 57.7036 51.4051 58.5331 50.855 59.4587V59.4675Z" fill="#D1D3D4"/>
<path d="M50.2176 57.7473C50.2176 57.7473 51.606 55.0752 50.7066 55.0228C49.8072 54.9704 50.2176 57.7473 50.2176 57.7473Z" fill="#E6E7E8"/>
<path d="M48.899 57.2931C48.899 57.2931 49.9731 54.4814 49.0737 54.5338C48.1743 54.5862 48.899 57.2931 48.899 57.2931Z" fill="#E6E7E8"/>
<path d="M47.4408 57.2931C47.4408 57.2931 48.2529 54.3941 47.3622 54.5251C46.4715 54.656 47.4408 57.2931 47.4408 57.2931Z" fill="#E6E7E8"/>
<path d="M45.9825 57.3106C45.9825 57.3106 46.4977 54.3417 45.6245 54.5688C44.7513 54.7958 45.9825 57.3106 45.9825 57.3106Z" fill="#E6E7E8"/>
<path d="M44.4282 57.5726C44.4282 57.5726 44.8211 54.5862 43.9566 54.8481C43.1009 55.1101 44.4282 57.5726 44.4282 57.5726Z" fill="#E6E7E8"/>
<path d="M42.8913 58.0091C42.8913 58.0091 43.3279 55.0315 42.4634 55.276C41.599 55.5205 42.8913 58.0091 42.8913 58.0091Z" fill="#E6E7E8"/>
<path d="M51.0995 58.4807C51.0995 58.4807 52.488 55.8087 51.5885 55.7563C50.6891 55.7039 51.0995 58.4807 51.0995 58.4807Z" fill="#E6E7E8"/>
<path d="M18.4588 69.2824C18.4588 69.2824 19.1748 70.6883 18.7295 72.1815C18.2842 73.6747 18.3366 74.1811 18.5985 74.4518C18.8605 74.7312 20.0655 73.989 20.0655 73.989C20.0655 73.989 20.8252 76.6174 20.4235 77.4644C20.0219 78.3114 18.354 76.0061 18.1445 77.2286C17.9436 78.4511 19.4892 78.9576 19.1748 80.2063C18.8605 81.455 17.28 86.5458 17.28 86.5458L17.734 69.2737H18.4588V69.2824Z" fill="#91A3BD"/>
<g style="mix-blend-mode:multiply" opacity="0.5">
<path d="M17.018 69.2824C17.018 69.2824 16.2234 70.6446 16.5814 72.1553C16.9394 73.6659 16.8608 74.1724 16.5814 74.4343C16.302 74.6963 15.1493 73.9017 15.1493 73.9017C15.1493 73.9017 14.2412 76.4864 14.5992 77.3509C14.9572 78.2154 16.7473 75.9974 16.887 77.2286C17.0267 78.4599 15.4462 78.8877 15.6995 80.1539C15.944 81.42 17.2887 86.5196 17.2887 86.5196L17.7428 69.2824H17.0267H17.018Z" fill="#91A3BD"/>
</g>
<path d="M31.8626 82.1099C31.8626 81.3415 32.1246 80.7215 32.4389 80.7215C32.7533 80.7215 33.0153 81.3415 33.0153 82.1099C33.0153 82.8783 32.7533 83.4983 32.4389 83.4983C32.1246 83.4983 31.8626 82.8783 31.8626 82.1099Z" fill="#E13F00"/>
<path d="M30.3345 30.957C30.3345 30.957 27.8197 31.3063 26.6146 32.0223C25.4096 32.7471 23.1392 33.6377 22.624 33.8473C22.1088 34.0569 21.7683 33.987 21.5937 34.0918C21.419 34.1966 17.638 37.4624 16.9831 37.8117C16.3282 38.1523 15.813 37.9689 15.4375 38.9731C15.062 39.9773 12.0058 47.3909 11.9359 47.9497H57.0723V38.5801C57.0723 38.5801 55.7712 35.7684 53.7541 35.3318C51.737 34.8952 43.6598 31.6643 42.9699 31.6905C42.2801 31.7254 30.3345 30.9657 30.3345 30.9657V30.957Z" fill="#E13F00"/>
<path d="M30.6838 30.7212C30.6838 30.8958 31.557 33.9696 33.1812 34.7729C34.8054 35.5763 36.8312 35.4453 36.8312 35.4453L32.3778 47.417L38.7435 45.9588L36.8312 35.4366C36.8312 35.4366 42.0705 35.1746 42.577 32.5113L30.675 30.7125L30.6838 30.7212Z" fill="#61A04B"/>
<path d="M42.0268 35.8645C42.0268 35.8645 42.8389 36.6154 43.031 37.5323C43.2319 38.4492 43.0136 38.9033 43.0136 38.9033C43.0136 38.9033 42.2975 38.3007 42.0618 37.5498C41.826 36.8075 42.0268 35.8557 42.0268 35.8557V35.8645Z" fill="#E6E7E8"/>
<path d="M43.1533 30.1187C42.8302 30.1973 44.2273 34.6856 43.0136 37.5061C41.7998 40.3178 40.1756 40.4139 39.8263 41.6975C39.4771 42.9811 32.3429 45.5746 32.3429 45.5746L24.938 47.9497H43.6074C43.6074 47.9497 51.4575 47.1551 53.5882 45.4872C55.7188 43.8194 57.6748 38.9294 55.876 36.7551C54.0772 34.5895 48.8466 33.3758 48.2529 32.747C47.6503 32.1183 46.1222 29.3852 43.1533 30.1187Z" fill="#1066A0"/>
<path d="M40.4813 27.3157L33.286 27.1585C33.286 27.1585 33.2423 27.1672 33.1637 27.1934C32.6311 27.3419 30.1686 28.4508 30.1948 30.4942C30.2297 32.8256 30.6139 34.6157 34.264 35.454C37.914 36.2923 40.6472 35.9517 42.5857 33.6639C44.5242 31.3761 43.0398 27.8396 40.49 27.3331L40.4813 27.3157Z" fill="#D1D3D4"/>
<path d="M36.8574 21.439C40.7879 21.439 43.9741 18.933 43.9741 15.8417C43.9741 12.7504 40.7879 10.2444 36.8574 10.2444C32.927 10.2444 29.7407 12.7504 29.7407 15.8417C29.7407 18.933 32.927 21.439 36.8574 21.439Z" fill="#E13F00"/>
<path d="M30.9545 23.4211C30.9545 23.4211 28.1515 21.4302 27.907 17.9024C27.6625 14.3746 29.8979 12.3488 33.6702 11.9907C37.4425 11.6327 39.3985 11.6327 42.0269 13.0473C44.6552 14.4619 44.7426 14.1651 45.1006 15.5535C45.4586 16.9419 45.5546 17.003 45.8515 18.0596C46.1572 19.1162 46.9692 19.2035 46.3667 20.4085C45.7642 21.6136 44.2274 22.609 43.4153 22.6702C42.6032 22.7313 30.9545 23.4211 30.9545 23.4211Z" fill="#63A518"/>
<path d="M44.2623 18.5399C42.8127 17.2999 37.9315 16.0949 35.2158 15.6845C32.5001 15.2741 30.9021 17.2737 29.3914 17.8413C28.5794 18.1469 28.1951 17.1777 28.0205 16.1298C27.907 16.6712 27.8721 17.2562 27.9157 17.9024C28.1602 21.4302 30.9632 23.4211 30.9632 23.4211C30.9632 23.4211 31.8714 23.3687 33.1987 23.2902C35.7572 22.6876 38.2546 22.1288 38.5951 22.1288C39.3199 22.1288 43.1795 22.2772 44.8997 21.3429C46.62 20.4086 45.7118 19.7711 44.271 18.5399H44.2623Z" fill="#4A8C00"/>
<path d="M31.7666 16.5839C32.0548 16.5664 32.3429 16.4442 32.5787 16.2259C32.6835 16.1211 32.7708 16.0076 32.8319 15.8853C32.9367 15.6932 33.0415 15.5011 33.1463 15.3177C33.4082 14.8462 33.9234 13.8769 34.1854 13.3879C32.797 12.7767 30.7362 11.266 29.7582 13.0736C29.5836 13.0736 29.4002 13.1434 29.2605 13.2744C29.1382 13.3966 29.0684 13.5451 29.0509 13.6935C28.885 13.7372 28.7278 13.8158 28.5881 13.9468C28.4047 14.1214 28.3 14.3484 28.2825 14.5755C28.0904 14.6453 27.907 14.7589 27.7498 14.916C27.1735 15.4749 27.1124 16.3481 27.6101 16.8633C27.6974 16.9506 27.8022 17.0205 27.907 17.0816C27.7847 17.3872 27.8284 17.7278 28.0554 17.9635C28.3698 18.2954 28.9287 18.2692 29.2954 17.9112C29.3303 17.8762 29.3565 17.8413 29.3915 17.8064C29.7582 18.1295 30.352 18.0945 30.7537 17.7103C30.9021 17.5706 30.9982 17.4047 31.0506 17.2213C31.2252 17.1777 31.3911 17.0903 31.5308 16.9594C31.6444 16.8546 31.723 16.7236 31.7753 16.5926L31.7666 16.5839Z" fill="#D1D3D4"/>
<path d="M47.5368 35.2357C47.5368 35.2357 46.4715 33.9782 46.3492 34.965C46.227 35.9604 46.3929 35.9604 46.0786 36.7813C45.7642 37.6021 46.0262 38.257 46.0786 38.7722C46.1309 39.2787 46.0087 39.8113 46.2707 40.6147C46.5414 41.418 46.3842 41.5577 46.7335 41.7498C47.074 41.942 47.5368 41.6014 47.5368 41.6014C47.5368 41.6014 47.6067 42.5445 47.8774 43.2518C48.1481 43.9591 49.2658 46.8494 49.5016 46.9891C49.7461 47.1376 51.3353 46.5001 51.3353 46.5001C51.2916 46.343 52.2609 44.5529 52.2609 44.1948C52.2609 43.8368 51.8767 40.5099 52.0688 39.8812C52.2609 39.2525 51.9029 38.1871 51.7021 37.8204C51.51 37.4536 50.8812 35.0785 50.0342 34.8427C49.1872 34.5982 47.5368 35.2269 47.5368 35.2269V35.2357Z" fill="#F1A882"/>
<path d="M48.8554 41.2172H47.6591V47.941H48.8554V41.2172Z" fill="#711A11"/>
<path d="M49.0999 26.8092H47.6591V36.7551H49.0999V26.8092Z" fill="#711A11"/>
<path d="M22.8075 47.9407C23.4973 47.4517 24.3618 46.8667 24.8246 46.6746C25.6279 46.334 28.3174 45.4608 28.3174 45.4608C28.3174 45.4608 28.2912 45.1203 28.3174 44.3693C28.3436 43.6183 27.7586 42.6753 27.9769 41.7497C28.1952 40.824 27.6363 40.8241 27.6363 40.8241C27.6363 40.8241 24.6063 40.7018 23.7855 40.9463C22.9646 41.1908 19.9782 43.4175 18.4763 44.9194C18.4763 44.9194 17.2276 46.6571 18.258 47.932H22.8075V47.9407Z" fill="#F1A882"/>
<path d="M24.7198 44.0028C24.8944 44.8673 25.0778 45.7842 25.2437 46.5002C26.309 46.0985 28.3087 45.4524 28.3087 45.4524C28.3087 45.4524 28.2825 45.1118 28.3087 44.3608C28.3349 43.6099 27.7499 42.6668 27.9682 41.7412C28.1865 40.8156 27.6276 40.8156 27.6276 40.8156C27.6276 40.8156 25.2874 40.7195 24.1609 40.868C24.1871 41.715 24.4753 42.7978 24.7198 43.9941V44.0028Z" fill="#D78E69"/>
<path d="M52.4618 46.1073C52.4618 45.7405 51.8767 40.5187 52.0688 39.89C52.2609 39.2613 51.9029 38.1959 51.7021 37.8292C51.5536 37.5498 51.1519 36.1002 50.5931 35.3231C50.5756 35.7859 50.5232 36.2312 50.1565 36.4233C49.4579 36.7901 49.3793 36.5718 49.65 37.3664C49.9207 38.1697 50.2613 38.0737 50.1565 39.1565C50.0604 40.248 49.9818 39.8987 49.912 40.7981C49.8421 41.6975 51.1694 45.9501 51.3353 46.5002C51.4838 46.4303 52.4618 46.4653 52.4618 46.0985V46.1073Z" fill="#D78E69"/>
<path d="M32.1683 17.0816C32.1683 17.0816 31.1204 20.3474 31.3562 23.0718C31.3562 23.0718 30.5179 21.8319 30.2472 22.3645C29.9765 22.8972 30.6838 24.3118 31.0244 24.6873C31.3562 25.054 31.5658 25.2549 31.6793 25.3771C31.7928 25.4994 32.2993 28.4945 34.2553 29.6384C36.2113 30.7823 39.1365 30.2409 40.4114 28.5294C41.6863 26.8092 41.826 24.7571 41.826 24.7571C41.826 24.7571 42.6643 24.923 42.839 24.4515C43.0049 23.98 43.6161 21.7969 43.6161 21.7969C43.6161 21.7969 42.1316 22.3296 42.1055 22.4519C42.0705 22.5741 41.599 21.7009 41.599 20.9237C41.599 20.1466 41.3283 17.9985 41.3982 17.8587C41.468 17.7278 41.3982 16.8458 41.3982 16.8458C41.3982 16.8458 40.5075 15.8853 37.1194 15.7019C33.7401 15.5185 32.1683 17.0816 32.1683 17.0816Z" fill="#F1A882"/>
<path d="M42.0967 22.4431C42.0618 22.5654 41.5902 21.6922 41.5902 20.915C41.5902 20.1378 41.3195 17.9897 41.3894 17.85C41.4593 17.719 41.3894 16.8371 41.3894 16.8371C41.3894 16.8371 41.0925 16.5227 40.1931 16.2171L40.3503 19.937C40.3503 19.937 38.1323 19.4655 37.7918 20.4435C37.4599 21.4215 37.0845 23.2028 37.2504 23.8752C37.4163 24.5476 38.1585 24.4515 37.7918 24.9143C37.425 25.3858 36.9447 25.3684 36.9011 25.6565C36.8662 25.9447 36.8661 26.294 36.8661 26.9664C36.8661 27.6387 37.2504 28.2151 37.1194 29.2891C37.0845 29.5685 36.9884 29.8916 36.8924 30.2235C38.2808 30.1536 39.6517 29.5511 40.4201 28.5207C41.695 26.8005 41.8347 24.7484 41.8347 24.7484C41.8347 24.7484 42.673 24.9143 42.8477 24.4428C43.0136 23.9712 43.6248 21.7882 43.6248 21.7882C43.6248 21.7882 42.1404 22.3209 42.1142 22.4431H42.0967Z" fill="#D78E69"/>
<path d="M37.1194 15.702C35.5913 15.6146 33.1725 15.9901 32.6486 16.7236C32.5176 17.2563 33.4868 17.396 34.0632 17.6667C35.146 18.1819 35.2245 18.9416 35.9755 18.6971C36.7352 18.4526 36.9011 19.1599 38.1062 19.0726C39.1453 18.994 40.4114 17.7191 40.6385 16.4005C40.0098 16.1211 38.9095 15.8067 37.1194 15.7107V15.702Z" fill="#EACDA1"/>
<path d="M30.2559 22.3645C30.5266 21.8231 31.3649 23.0718 31.3649 23.0718C31.1641 20.784 32.4215 17.5095 32.6485 16.7236C32.6485 16.7236 29.8455 18.601 29.3565 19.5702C28.9985 20.295 29.7233 22.0764 30.221 22.9583C30.1773 22.7226 30.1773 22.5217 30.2559 22.3733V22.3645Z" fill="#EACDA1"/>
<path d="M44.0614 18.8106C43.747 17.6317 40.4201 16.3044 40.4201 16.3044C40.4201 16.3044 40.6908 16.6625 41.2497 17.6143C41.3282 17.7452 41.5989 20.1466 41.5989 20.9237C41.5989 21.7009 42.0705 22.5741 42.1054 22.4519C42.1403 22.3296 43.6161 21.797 43.6161 21.797C43.6161 21.797 43.2406 23.1679 42.9961 23.9713C43.293 23.9363 43.5724 23.8839 43.782 23.7966C44.6203 23.4473 44.0789 22.9234 44.5067 21.8319C44.9259 20.7491 44.3845 19.9894 44.0701 18.8193L44.0614 18.8106Z" fill="#EACDA1"/>
<path d="M40.4202 28.5208C39.1453 30.2323 36.2113 30.7736 34.264 29.6297C33.6004 29.2368 33.1026 28.6343 32.7271 27.9968L32.6486 29.7258C32.6486 29.7258 33.8361 32.2581 36.9098 32.2319C39.9835 32.2057 40.8306 29.848 40.8306 29.848L40.7258 28.0841C40.6385 28.2326 40.5424 28.3723 40.4289 28.5208H40.4202Z" fill="#D78E69"/>
<path d="M29.9678 34.4498C29.9678 34.4498 29.5661 35.4802 28.7802 35.9954C27.9943 36.5106 27.4966 36.4844 27.4966 36.4844C27.4966 36.4844 27.7935 35.5937 28.4047 35.1047C29.0072 34.6157 29.9678 34.4498 29.9678 34.4498Z" fill="#E6E7E8"/>
<path d="M31.7666 35.9081C31.7666 35.9081 31.5046 36.9821 30.8061 37.6021C30.0987 38.2221 29.601 38.2658 29.601 38.2658C29.601 38.2658 29.7757 37.3401 30.3083 36.7726C30.841 36.205 31.7666 35.9081 31.7666 35.9081Z" fill="#E6E7E8"/>
<path d="M34.0369 36.432C34.0369 36.432 34.2378 37.5148 33.8361 38.3705C33.4432 39.2263 32.9978 39.4621 32.9978 39.4621C32.9978 39.4621 32.7883 38.5452 33.0415 37.8117C33.3034 37.0782 34.0282 36.432 34.0282 36.432H34.0369Z" fill="#E6E7E8"/>
<path d="M39.058 36.7638C39.058 36.7638 39.7565 37.6196 39.8264 38.5539C39.8962 39.4883 39.6255 39.9161 39.6255 39.9161C39.6255 39.9161 38.9968 39.2176 38.8571 38.4491C38.7261 37.6807 39.0492 36.7638 39.0492 36.7638H39.058Z" fill="#E6E7E8"/>
<path d="M28.7366 32.4065C28.7366 32.4065 28.3349 33.4369 27.549 33.9521C26.7631 34.476 26.2654 34.4411 26.2654 34.4411C26.2654 34.4411 26.5623 33.5504 27.1735 33.0614C27.776 32.5724 28.7366 32.4065 28.7366 32.4065Z" fill="#E6E7E8"/>
<path d="M15.2541 36.6241C15.5772 36.0827 15.0271 36.1002 16.7473 34.9737C18.4676 33.8473 18.8954 34.2228 20.7554 33.6726C22.6153 33.1225 23.2877 33.5853 23.6632 33.4281C24.0387 33.271 24.5975 34.3014 24.4403 35.3143C24.2832 36.3272 24.3268 37.8291 23.1742 37.9514C22.0215 38.0736 21.6984 38.4666 20.1529 38.5626C18.6073 38.6587 17.7166 38.7373 16.7473 38.5626C15.7693 38.388 14.704 37.5584 15.2541 36.6328V36.6241Z" fill="#D1D3D4"/>
<path d="M15.8916 38.3444C15.8916 38.3444 14.5032 41.0164 15.4026 41.0688C16.302 41.1212 15.8916 38.3444 15.8916 38.3444Z" fill="#E6E7E8"/>
<path d="M17.2101 38.7985C17.2101 38.7985 16.1361 41.6102 17.0355 41.5578C17.9349 41.5054 17.2101 38.7985 17.2101 38.7985Z" fill="#E6E7E8"/>
<path d="M18.6684 38.7897C18.6684 38.7897 17.8563 41.6887 18.747 41.5578C19.6376 41.4268 18.6684 38.7897 18.6684 38.7897Z" fill="#E6E7E8"/>
<path d="M20.1354 38.7722C20.1354 38.7722 19.6202 41.7411 20.4934 41.5141C21.3666 41.287 20.1354 38.7722 20.1354 38.7722Z" fill="#E6E7E8"/>
<path d="M21.681 38.519C21.681 38.519 21.288 41.5054 22.1525 41.2434C23.0083 40.9815 21.681 38.519 21.681 38.519Z" fill="#E6E7E8"/>
<path d="M23.2266 38.0737C23.2266 38.0737 22.79 41.0513 23.6545 40.8068C24.5189 40.5623 23.2266 38.0737 23.2266 38.0737Z" fill="#E6E7E8"/>
<path d="M15.0096 37.6109C15.0096 37.6109 13.6212 40.2829 14.5206 40.3353C15.42 40.3877 15.0096 37.6109 15.0096 37.6109Z" fill="#E6E7E8"/>
<path d="M47.6591 26.8092C47.6591 26.8092 46.943 25.4033 47.3884 23.9101C47.8337 22.417 47.7813 21.9105 47.5194 21.6398C47.2574 21.3604 46.0524 22.1026 46.0524 22.1026C46.0524 22.1026 45.2927 19.4742 45.6943 18.6272C46.096 17.7802 47.7639 20.0855 47.9734 18.863C48.1743 17.6405 46.6287 17.134 46.9431 15.8853C47.2574 14.6279 48.8379 9.54578 48.8379 9.54578L48.3838 26.8179H47.6591V26.8092Z" fill="#91A3BD"/>
<g style="mix-blend-mode:multiply" opacity="0.5">
<path d="M49.0999 26.8093C49.0999 26.8093 49.8945 25.4471 49.5365 23.9364C49.1785 22.4258 49.2571 21.9193 49.5365 21.6574C49.8159 21.3954 50.9686 22.19 50.9686 22.19C50.9686 22.19 51.8767 19.6053 51.5187 18.7408C51.1607 17.8763 49.3706 20.0943 49.2309 18.8631C49.0912 17.6318 50.6717 17.204 50.4184 15.9378C50.1652 14.6717 48.8292 9.57208 48.8292 9.57208L48.3751 26.8093H49.0912H49.0999Z" fill="#91A3BD"/>
</g>
<path d="M34.6307 13.5975C34.6307 14.3659 34.3688 14.9859 34.0544 14.9859C33.7401 14.9859 33.4781 14.3659 33.4781 13.5975C33.4781 12.829 33.7401 12.209 34.0544 12.209C34.3688 12.209 34.6307 12.829 34.6307 13.5975Z" fill="#E13F00"/>
<path d="M12.4896 6.54578V19.7965C12.4896 21.3446 12.1703 22.5254 11.5562 23.3388C10.9176 24.1522 9.95971 24.5458 8.65796 24.5458C7.97024 24.5458 7.35621 24.4146 6.81586 24.126C6.27551 23.8373 5.83342 23.4175 5.48956 22.8402L6.88954 21.6332C7.06147 21.8956 7.30711 22.158 7.65097 22.3679C7.97027 22.5778 8.3141 22.6828 8.65796 22.6828C9.37024 22.6828 9.86147 22.4467 10.1562 21.9481C10.4509 21.4758 10.5983 20.8461 10.5983 20.0589V6.54578H12.4896Z" fill="#CB0D07"/>
<path d="M54.4896 89.5458L54.4896 76.295C54.4896 74.7469 54.8089 73.5662 55.4229 72.7528C56.0615 71.9394 57.0194 71.5458 58.3212 71.5458C59.0089 71.5458 59.6229 71.677 60.1633 71.9656C60.7036 72.2542 61.1457 72.6741 61.4896 73.2513L60.0896 74.4583C59.9177 74.1959 59.672 73.9335 59.3282 73.7236C59.0089 73.5137 58.665 73.4088 58.3212 73.4088C57.6089 73.4088 57.1177 73.6449 56.8229 74.1434C56.5282 74.6157 56.3808 75.2455 56.3808 76.0327L56.3808 89.5458L54.4896 89.5458Z" fill="#CB0D07"/>
<path d="M9.30288 37.6821C9.93956 34.4634 14.6792 33.5261 14.6616 29.9359C14.6616 28.4857 13.4943 27.3185 12.0441 27.3185C10.7 27.3185 9.65659 28.3089 9.30288 29.5999C8.96686 28.3089 7.90571 27.3185 6.56162 27.3185C5.11141 27.3185 3.94421 28.4857 3.94421 29.9359C3.94421 33.5791 8.64852 34.428 9.30288 37.6821Z" fill="#CB0D07"/>
<path d="M56.8022 58.4092C56.1655 61.628 51.4259 62.5653 51.4435 66.1554C51.4435 67.6056 52.6108 68.7729 54.061 68.7729C55.4051 68.7729 56.4485 67.7825 56.8022 66.4914C57.1382 67.7825 58.1994 68.7729 59.5435 68.7729C60.9937 68.7729 62.1609 67.6056 62.1609 66.1554C62.1609 62.5122 57.4566 61.6633 56.8022 58.4092Z" fill="#CB0D07"/>
</g>
<defs>
<clipPath id="clip0_3556_651">
<rect width="65.4895" height="95" fill="white" transform="translate(0.489563 0.545898)"/>
</clipPath>
</defs>
</svg>
