<svg width="66" height="96" viewBox="0 0 66 96" fill="none" xmlns="http://www.w3.org/2000/svg">
<g clip-path="url(#clip0_3556_1896)">
<rect width="65.4895" height="95" transform="translate(0.489624 0.545898)" fill="white"/>
<path d="M4.9895 0.545898L61.4793 0.545898C63.9602 0.545898 65.9792 2.56482 65.9792 5.04579V91.046C65.9792 93.527 63.9602 95.5459 61.4793 95.5459H4.9895C2.50853 95.5459 0.489624 93.527 0.489624 91.046L0.489624 5.04579C0.489624 2.56482 2.50853 0.545898 4.9895 0.545898Z" fill="white"/>
<path d="M9.30288 37.6821C9.93956 34.4634 14.6792 33.5261 14.6616 29.9359C14.6616 28.4857 13.4943 27.3185 12.0441 27.3185C10.7 27.3185 9.65659 28.3089 9.30288 29.5999C8.96686 28.3089 7.90571 27.3185 6.56162 27.3185C5.11141 27.3185 3.94421 28.4857 3.94421 29.9359C3.94421 33.5791 8.64852 34.428 9.30288 37.6821Z" fill="#CB0D07"/>
<path d="M23.5525 28.0817C24.1295 25.1225 28.4943 24.257 28.4869 20.9575C28.4869 19.6259 27.4068 18.5458 26.0752 18.5458C24.8471 18.5458 23.8706 19.4631 23.5599 20.6542C23.2418 19.4705 22.2727 18.5458 21.0372 18.5458C19.7056 18.5458 18.6255 19.6259 18.6255 20.9575C18.6181 24.3013 22.9533 25.0929 23.5599 28.0817H23.5525Z" fill="#CB0D07"/>
<path d="M42.4391 28.0817C43.0162 25.1151 47.381 24.257 47.3736 20.9575C47.3736 19.6259 46.2935 18.5458 44.9618 18.5458C43.7338 18.5458 42.7573 19.4631 42.4465 20.6542C42.1284 19.4705 41.1593 18.5458 39.9313 18.5458C38.5996 18.5458 37.5195 19.6259 37.5195 20.9575C37.5121 24.3013 41.8473 25.0929 42.454 28.0817H42.4391Z" fill="#CB0D07"/>
<path d="M23.5528 68.2114C24.1298 71.178 28.4946 72.0361 28.4872 75.3356C28.4872 76.6672 27.4071 77.7473 26.0754 77.7473C24.8474 77.7473 23.8709 76.83 23.5602 75.6389C23.242 76.83 22.2729 77.7473 21.0375 77.7473C19.7058 77.7473 18.6257 76.6672 18.6257 75.3356C18.6183 71.9918 22.9535 71.2002 23.5602 68.2114H23.5528Z" fill="#CB0D07"/>
<path d="M42.4396 68.3223C43.0167 71.2889 47.3814 72.147 47.374 75.4539C47.374 76.7855 46.2939 77.8656 44.9623 77.8656C43.7343 77.8656 42.7577 76.9483 42.447 75.7572C42.1289 76.9483 41.1598 77.8656 39.9318 77.8656C38.6001 77.8656 37.52 76.7855 37.52 75.4539C37.5126 72.1101 41.8478 71.3259 42.4544 68.3223H42.4396Z" fill="#CB0D07"/>
<path d="M56.8022 58.4092C56.1655 61.628 51.4259 62.5653 51.4435 66.1554C51.4435 67.6056 52.6108 68.7729 54.061 68.7729C55.4051 68.7729 56.4485 67.7825 56.8022 66.4914C57.1382 67.7825 58.1994 68.7729 59.5435 68.7729C60.9937 68.7729 62.1609 67.6056 62.1609 66.1554C62.1609 62.5122 57.4566 61.6633 56.8022 58.4092Z" fill="#CB0D07"/>
<path d="M12.6607 21.3896V24.5459H10.3893V21.3896H4.48962V19.3542L8.67841 4.5459H10.9203L6.70201 19.3542H10.3893V13.8085H12.6607V19.3542H14.0766V21.3896H12.6607Z" fill="#CB0D07"/>
<path d="M53.9056 74.7022L53.9056 71.5459L56.177 71.5459L56.177 74.7022L62.0767 74.7022L62.0767 76.7376L57.8879 91.5459L55.646 91.5459L59.8643 76.7376L56.177 76.7376L56.177 82.2833L53.9056 82.2833L53.9056 76.7376L52.4896 76.7376L52.4896 74.7022L53.9056 74.7022Z" fill="#CB0D07"/>
</g>
<defs>
<clipPath id="clip0_3556_1896">
<rect width="65.4895" height="95" fill="white" transform="translate(0.489624 0.545898)"/>
</clipPath>
</defs>
</svg>
