<svg width="66" height="96" viewBox="0 0 66 96" fill="none" xmlns="http://www.w3.org/2000/svg">
<g clip-path="url(#clip0_3556_1812)">
<rect width="65.4895" height="95" transform="translate(0.489624 0.545898)" fill="white"/>
<path d="M4.9895 0.545898L61.4793 0.545898C63.9602 0.545898 65.9792 2.56482 65.9792 5.04579V91.046C65.9792 93.527 63.9602 95.5459 61.4793 95.5459H4.9895C2.50853 95.5459 0.489624 93.527 0.489624 91.046L0.489624 5.04579C0.489624 2.56482 2.50853 0.545898 4.9895 0.545898Z" fill="white"/>
<path d="M13.8651 20.3262C13.8651 21.0777 13.7495 21.7135 13.5183 22.2627C13.2871 22.8118 12.9981 23.2453 12.6223 23.5632C12.2466 23.9101 11.842 24.1413 11.3507 24.3147C10.8593 24.4881 10.368 24.5459 9.81887 24.5459C9.03852 24.5459 8.40269 24.4303 7.88246 24.1991C7.36222 23.9679 6.95758 23.6499 6.63966 23.2742C6.32174 22.8696 6.11947 22.4072 6.00386 21.858C5.88825 21.3089 5.85933 20.702 5.88823 20.0083L8.11367 19.6904C8.02697 20.5286 8.11366 21.2222 8.37378 21.7135C8.63389 22.2338 9.12521 22.465 9.84775 22.465C10.3391 22.465 10.7437 22.3205 11.0905 22.0025C11.4374 21.6846 11.6108 21.1644 11.6108 20.3841V17.4361C11.6108 16.6557 11.4663 16.0777 11.1484 15.7309C10.8304 15.384 10.3102 15.2106 9.61658 15.2106H8.74952V13.2742H9.67435C10.368 13.2742 10.8593 13.1008 11.1773 12.7829C11.4663 12.465 11.6397 11.9158 11.6397 11.1644V8.64994C11.6397 8.41873 11.6397 8.15862 11.553 7.9274C11.4952 7.69619 11.4374 7.46497 11.3218 7.29156C11.2062 7.11815 11.0617 6.94474 10.8304 6.82914C10.6281 6.71353 10.3391 6.65573 10.0212 6.65573C9.35646 6.65573 8.86513 6.91584 8.57611 7.40717C8.25819 7.8985 8.11367 8.56324 8.11367 9.40139L5.88823 9.08347C5.88823 8.44763 6.00384 7.8407 6.20615 7.29156C6.40846 6.74243 6.66857 6.2511 7.01539 5.84648C7.36222 5.44185 7.79573 5.12393 8.31596 4.89272C8.83619 4.66151 9.47203 4.5459 10.1657 4.5459C10.8593 4.5459 11.4374 4.66151 11.8998 4.86382C12.3622 5.06613 12.7379 5.38405 13.027 5.73087C13.316 6.10659 13.5183 6.51122 13.6339 7.00255C13.7495 7.49388 13.8073 7.98521 13.8073 8.53434V10.5286C13.8073 10.9043 13.8073 11.2511 13.7784 11.6268C13.7495 11.9736 13.6917 12.2916 13.5761 12.6095C13.4605 12.8985 13.316 13.1875 13.0848 13.4476C12.8536 13.7077 12.5645 13.939 12.1599 14.1413V14.228C12.5356 14.4014 12.8246 14.6037 13.0558 14.806C13.2582 15.0372 13.4316 15.2684 13.5472 15.5575C13.6628 15.8465 13.7206 16.1644 13.7495 16.5401C13.7495 16.9158 13.7784 17.3205 13.7784 17.754V20.2973L13.8651 20.3262Z" fill="#CB0D07"/>
<path d="M52.4896 75.7656C52.4896 75.0141 52.6052 74.3783 52.8365 73.8291C53.0677 73.28 53.3567 72.8465 53.7324 72.5286C54.1081 72.1817 54.5128 71.9505 55.0041 71.7771C55.4954 71.6037 55.9867 71.5459 56.5359 71.5459C57.3162 71.5459 57.9521 71.6615 58.4723 71.8927C58.9925 72.1239 59.3972 72.4419 59.7151 72.8176C60.033 73.2222 60.2353 73.6846 60.3509 74.2338C60.4665 74.7829 60.4954 75.3898 60.4665 76.0835L58.2411 76.4014C58.3278 75.5632 58.2411 74.8696 57.981 74.3783C57.7208 73.858 57.2295 73.6268 56.507 73.6268C56.0157 73.6268 55.611 73.7713 55.2642 74.0893C54.9174 74.4072 54.744 74.9274 54.744 75.7077L54.744 78.6557C54.744 79.4361 54.8885 80.0141 55.2064 80.3609C55.5243 80.7077 56.0445 80.8812 56.7382 80.8812L57.6052 80.8812L57.6052 82.8176L56.6804 82.8176C55.9867 82.8176 55.4954 82.991 55.1775 83.3089C54.8885 83.6268 54.715 84.176 54.715 84.9274L54.715 87.4419C54.715 87.6731 54.715 87.9332 54.8017 88.1644C54.8596 88.3956 54.9174 88.6268 55.033 88.8002C55.1486 88.9736 55.2931 89.1471 55.5243 89.2627C55.7266 89.3783 56.0156 89.4361 56.3335 89.4361C56.9983 89.4361 57.4896 89.176 57.7786 88.6846C58.0965 88.1933 58.2411 87.5286 58.2411 86.6904L60.4665 87.0083C60.4665 87.6442 60.3509 88.2511 60.1486 88.8002C59.9463 89.3494 59.6862 89.8407 59.3393 90.2453C58.9925 90.6499 58.559 90.9679 58.0388 91.1991C57.5185 91.4303 56.8827 91.5459 56.1891 91.5459C55.4954 91.5459 54.9174 91.4303 54.4549 91.228C53.9925 91.0257 53.6168 90.7077 53.3278 90.3609C53.0388 89.9852 52.8364 89.5806 52.7208 89.0893C52.6052 88.5979 52.5474 88.1066 52.5474 87.5575L52.5474 85.5632C52.5474 85.1875 52.5474 84.8407 52.5763 84.465C52.6052 84.1182 52.663 83.8002 52.7786 83.4823C52.8942 83.1933 53.0387 82.9043 53.27 82.6442C53.5012 82.384 53.7902 82.1528 54.1948 81.9505L54.1948 81.8638C53.8191 81.6904 53.5301 81.4881 53.2989 81.2858C53.0966 81.0546 52.9232 80.8234 52.8076 80.5343C52.692 80.2453 52.6341 79.9274 52.6052 79.5517C52.6052 79.176 52.5763 78.7713 52.5763 78.3378L52.5763 75.7945L52.4896 75.7656Z" fill="#CB0D07"/>
<path d="M9.30288 37.6821C9.93956 34.4634 14.6792 33.5261 14.6616 29.9359C14.6616 28.4857 13.4943 27.3185 12.0441 27.3185C10.7 27.3185 9.65659 28.3089 9.30288 29.5999C8.96686 28.3089 7.90571 27.3185 6.56162 27.3185C5.11141 27.3185 3.94421 28.4857 3.94421 29.9359C3.94421 33.5791 8.64852 34.428 9.30288 37.6821Z" fill="#CB0D07"/>
<path d="M33.4166 28.0817C33.9937 25.1225 38.3585 24.257 38.3511 20.9575C38.3511 19.6259 37.271 18.5458 35.9393 18.5458C34.7113 18.5458 33.7348 19.4631 33.424 20.6542C33.1059 19.4705 32.1368 18.5458 30.9014 18.5458C29.5697 18.5458 28.4896 19.6259 28.4896 20.9575C28.4822 24.3013 32.8174 25.0929 33.424 28.0817H33.4166Z" fill="#CB0D07"/>
<path d="M33.4166 68.2114C33.9937 71.178 38.3585 72.0361 38.3511 75.3356C38.3511 76.6672 37.271 77.7473 35.9393 77.7473C34.7113 77.7473 33.7348 76.83 33.424 75.6389C33.1059 76.83 32.1368 77.7473 30.9014 77.7473C29.5697 77.7473 28.4896 76.6672 28.4896 75.3356C28.4822 71.9918 32.8174 71.2002 33.424 68.2114H33.4166Z" fill="#CB0D07"/>
<path d="M33.57 51.827C32.993 48.8605 28.6282 48.0023 28.6356 44.7028C28.6356 43.3712 29.7157 42.2911 31.0473 42.2911C32.2754 42.2911 33.2519 43.2085 33.5626 44.3995C33.8807 43.2085 34.8498 42.2911 36.0779 42.2911C37.4095 42.2911 38.4896 43.3712 38.4896 44.7028C38.497 48.0467 34.1618 48.8383 33.5552 51.827L33.57 51.827Z" fill="#CB0D07"/>
<path d="M56.8022 58.4092C56.1655 61.628 51.4259 62.5653 51.4435 66.1554C51.4435 67.6056 52.6108 68.7729 54.061 68.7729C55.4051 68.7729 56.4485 67.7825 56.8022 66.4914C57.1382 67.7825 58.1994 68.7729 59.5435 68.7729C60.9937 68.7729 62.1609 67.6056 62.1609 66.1554C62.1609 62.5122 57.4566 61.6633 56.8022 58.4092Z" fill="#CB0D07"/>
</g>
<defs>
<clipPath id="clip0_3556_1812">
<rect width="65.4895" height="95" fill="white" transform="translate(0.489624 0.545898)"/>
</clipPath>
</defs>
</svg>
