<svg width="66" height="96" viewBox="0 0 66 96" fill="none" xmlns="http://www.w3.org/2000/svg">
<g clip-path="url(#clip0_3556_504)">
<rect width="65.4895" height="95" transform="translate(0.489563 0.545898)" fill="white"/>
<path d="M4.98944 0.545898L61.4792 0.545898C63.9602 0.545898 65.9791 2.56482 65.9791 5.04579V91.046C65.9791 93.527 63.9602 95.5459 61.4792 95.5459H4.98944C2.50847 95.5459 0.489563 93.527 0.489563 91.046L0.489563 5.04579C0.489563 2.56482 2.50847 0.545898 4.98944 0.545898Z" fill="white"/>
<path d="M11.3258 57.6782C11.8392 58.6124 11.6961 59.353 12.7145 60.607C13.7329 61.861 14.5661 62.3239 16.0557 63.1571C17.537 63.9903 31.5416 65.6567 32.4674 63.1571C33.3932 60.6491 34.5041 59.1678 35.0175 58.3346C35.5309 57.5014 41.6495 53.7899 44.8897 52.6284C48.1384 51.467 52.2118 49.4976 52.2118 49.4976C52.2118 49.4976 50.6801 54.0339 50.2677 55.2038C49.8469 56.3736 48.9716 58.141 48.9716 58.141C48.9716 58.141 53.651 56.2726 54.1139 55.0944C54.5768 53.9161 54.5768 48.0668 54.5768 48.0668H8.48956V53.0829C8.48956 53.0829 10.804 56.7271 11.3174 57.6697L11.3258 57.6782Z" fill="#4A7FAD"/>
<path d="M52.2202 49.506C52.2202 49.506 48.1384 51.4754 44.8981 52.6368C41.6495 53.7983 35.5309 57.5014 35.0259 58.343C34.6387 58.9743 33.915 59.9674 33.1827 61.4907C33.4521 62.063 33.6877 62.5175 33.8645 62.7531C34.6977 63.8641 38.0389 64.3775 38.0389 64.3775C38.0389 64.3775 45.1674 63.4938 46.1437 62.8036C47.12 62.1219 48.98 58.1579 48.98 58.1579C48.98 58.1579 49.8637 56.3989 50.2761 55.2206C50.6969 54.0508 52.2202 49.5144 52.2202 49.5144V49.506Z" fill="#E13F00"/>
<path d="M8.49799 48.0753V53.0913C8.49799 53.0913 10.8124 56.7355 11.3258 57.6782C11.8392 58.6124 11.6961 59.353 12.7145 60.607C13.7329 61.861 14.5661 62.3239 16.0557 63.1571C17.0994 63.7463 24.3205 64.7394 28.8484 64.4196L30.3297 59.7233L28.4865 56.9375C27.788 57.1816 24.1269 59.0248 23.058 59.7233C21.9892 60.4218 18.3281 60.8427 18.0083 60.4218C17.6801 60.001 18.8415 61.4234 16.5271 58.6039C14.2042 55.7845 13.1858 55.7172 12.8155 54.6147C12.4452 53.5121 11.8392 52.6116 12.8155 52.7799C13.7918 52.9567 16.0642 54.177 16.1567 53.5879C16.2493 52.9987 15.3909 52.8052 13.2026 50.9284C11.8645 49.7837 12.3863 48.7486 13.0175 48.0753H8.51482H8.49799Z" fill="#1066A0"/>
<path d="M22.6288 79.9811C24.1101 77.1533 26.1973 72.7853 29.8331 72.7853C33.4689 72.7853 35.9685 77.1449 37.0458 80.1579C38.6533 84.6606 33.4689 84.8541 29.8415 84.8541C26.2141 84.8541 20.3396 84.3576 22.6372 79.9811H22.6288Z" fill="#316694"/>
<path d="M12.1506 48.0753C12.6556 48.9842 13.7581 49.6575 14.8943 50.5917C16.1904 51.6606 17.2088 52.4349 19.3128 52.7378C21.4085 53.0324 23.0076 51.9888 24.472 50.2298C25.1789 49.3714 26.6939 48.6307 28.0657 48.0837H12.1591L12.1506 48.0753Z" fill="#E13F00"/>
<path d="M13.27 63.2413C13.8338 64.0745 15.0794 63.6705 15.879 64.731C16.6785 65.7914 18.4628 66.2964 18.8752 66.33C19.2876 66.3637 20.4322 67.3989 20.3396 68.9054C20.2386 70.4203 22.1659 71.0684 22.4016 72.76C22.6372 74.4517 22.5531 75.6552 23.4873 77.0355C23.4873 77.0355 26.5087 77.9192 29.9762 77.936C33.4436 77.9612 36.3052 77.0355 36.3052 77.0355C36.3052 77.0355 37.374 74.8052 37.4077 73.5596C37.4413 72.314 38.5018 72.0446 38.7459 70.2688C38.9815 68.493 38.1231 67.8534 39.2761 67.4157C40.4291 66.9781 41.7925 67.9544 42.7436 67.037C43.6946 66.1196 44.8813 65.4379 45.2011 65.1349C45.5293 64.8319 47.4566 65.1686 47.4566 63.5022C47.4566 61.8358 47.3052 60.9857 46.3625 61.5412C45.4115 62.1051 45.3273 62.8205 43.7535 62.9046C42.1797 62.9972 42.2133 62.9635 41.1445 62.4586C40.0756 61.9536 38.8637 61.0615 37.879 61.8105C36.9027 62.5511 35.4467 64.0072 35.0596 63.8304C34.6724 63.6537 24.2952 64.125 24.0932 63.8304C23.8828 63.5358 23.5293 61.962 21.8966 62.0798C20.2638 62.1977 19.3128 62.972 18.3113 62.7026C17.3013 62.4333 16.6196 62.8541 15.8201 62.6437C15.0205 62.4333 12.7061 62.4081 13.27 63.2329V63.2413Z" fill="#6D6E71"/>
<path d="M36.3052 77.0355C36.3052 77.0355 37.7359 81.0332 39.1414 82.1357C39.1414 82.1357 37.1889 82.0768 37.029 81.698C36.8691 81.3193 37.1384 80.646 36.6502 80.2757C36.1537 79.9054 35.2868 80.4945 35.4804 81.1173C35.6824 81.7401 36.4314 81.9926 36.4314 81.9926L35.7834 83.516L34.1843 82.6154C34.1843 82.6154 34.8071 82.0431 34.5462 81.353C34.2769 80.6629 32.7704 80.6629 32.8966 81.6644C33.0229 82.6659 33.8056 82.6659 33.8056 82.6659L32.6778 84.0798L31.4659 83.011C31.4659 83.011 32.1139 82.5481 32.0045 81.9505C31.9035 81.353 31.3396 81.0921 30.8851 81.1089C30.4307 81.1257 30.2118 81.5297 30.195 82.0263C30.1782 82.5313 30.9104 83.0783 30.9104 83.0783L29.5049 84.3492L28.5033 83.011C28.5033 83.011 29.0588 82.6575 29.042 82.0094C29.0252 81.353 28.5034 81.1762 28.1162 81.1762C27.7291 81.1762 27.2493 81.2772 27.2157 81.9674C27.1736 82.6491 27.687 83.0026 27.687 83.0026L26.3909 83.7937L25.5577 82.5733C25.5577 82.5733 26.2057 82.405 26.2815 81.8495C26.3656 81.2941 26.1131 80.9743 25.6923 80.7891C25.2631 80.6124 24.7666 80.8143 24.6151 81.3193C24.4636 81.8243 24.9601 82.5397 24.9601 82.5397L23.6893 83.0783L23.1506 81.8495C23.1506 81.8495 23.8997 81.7149 23.9418 81.0584C23.9838 80.402 23.6724 80.2589 23.2348 80.0653C22.7972 79.8717 22.3006 81.5718 22.3006 81.5718L20.3649 82.0263C20.3649 82.0263 22.8897 79.4509 23.5125 77.0439C23.5125 77.0439 26.534 77.9276 30.0014 77.9444C33.4689 77.9697 36.3304 77.0439 36.3304 77.0439L36.3052 77.0355Z" fill="#F4AE00"/>
<path d="M23.2937 64.0997C23.5209 64.9245 23.6556 65.2275 23.6304 66.3216C23.5967 67.4157 24.0259 68.2489 23.7819 69.1411C23.5967 69.8144 24.2027 71.1189 24.6656 71.9184C25.0611 70.7486 26.5508 69.1411 26.5508 69.1411C26.5508 69.1411 26.9127 69.2084 27.5187 69.5282C28.1162 69.848 29.4123 69.9406 29.9341 70.0079C30.4643 70.0753 30.8178 69.9406 31.449 69.7723C32.0802 69.6039 33.0818 69.0906 33.0902 69.1411C33.107 69.1916 33.41 69.3767 33.7298 70.2267C34.016 71.001 34.6304 71.809 35.0848 72.7684C35.2195 72.2803 35.4804 71.3798 35.7581 70.4961C36.1705 69.1831 36.1874 68.1395 36.12 67.1632C36.0611 66.187 36.6503 64.6384 36.2715 63.4769C35.8928 62.3239 35.817 62.9131 35.5561 61.9704C35.2952 61.0278 36.1621 60.3124 35.5898 59.2604C35.0091 58.2084 33.8056 58.8059 33.8056 58.8059C33.8056 58.8059 34.0328 57.8297 33.1996 57.6361C33.1996 57.6361 33.0565 56.3652 32.4253 56.2979C31.7941 56.2306 31.2975 56.6766 31.2975 56.6766C31.2975 56.6766 30.0351 56.5841 29.3197 56.6766C28.6043 56.7692 28.9831 57.4509 28.192 57.594C27.4008 57.7287 26.5171 58.9153 25.8017 59.3867C25.0864 59.858 24.4888 60.1946 24.5561 60.9857C24.6151 61.7769 24.3878 61.9452 24.2363 62.1303C24.0848 62.3155 23.9586 62.7279 23.9586 63.1066C23.9586 63.4854 23.0581 63.275 23.2853 64.0997H23.2937Z" fill="#BAC2CC"/>
<path d="M29.8331 68.9054C29.8331 68.9054 31.0534 68.9475 31.449 68.594C31.8446 68.2405 32.1391 67.9291 32.1391 67.6682C32.1391 67.6682 31.3901 67.8449 31.0534 67.6682C30.7168 67.4915 30.3044 67.4157 29.8331 67.4157C29.3618 67.4157 28.2677 67.8702 28.2677 67.8702L27.3671 67.542C27.3671 67.542 28.0236 68.5519 28.6548 68.7286C29.286 68.9054 29.8331 68.9054 29.8331 68.9054Z" fill="#D78E69"/>
<path d="M25.2126 77.4394C26.4161 77.6751 28.1414 77.9276 29.9846 77.9444C32.1055 77.9612 33.9991 77.6162 35.1437 77.3553C35.2784 76.4547 35.6066 73.9888 35.2363 73.0967C34.7734 71.9941 34.058 71.102 33.7382 70.2436C33.4184 69.3851 33.1154 69.2084 33.0986 69.1579C33.0817 69.1074 32.0886 69.6208 31.4574 69.7891C30.8262 69.9574 30.4727 70.0921 29.9425 70.0247C29.4123 69.9574 28.1246 69.8564 27.527 69.545C26.9295 69.2252 26.5592 69.1579 26.5592 69.1579C26.5592 69.1579 24.6487 71.2198 24.5814 72.3644C24.514 73.5091 24.3625 74.3591 24.5814 75.2175C24.7328 75.8319 24.7244 76.7072 25.2126 77.4394Z" fill="#F1A882"/>
<path d="M24.5729 75.2175C24.5729 75.2175 24.5729 75.2428 24.5814 75.2596C25.1621 75.4953 26.0121 75.7899 26.677 75.7899C27.7963 75.7899 29.1429 75.2849 29.2103 74.1487C29.2776 73.0041 29.2523 72.0278 29.0083 71.3461C28.8736 70.9758 28.7305 70.3782 28.6211 69.8564C28.2003 69.7891 27.7879 69.6881 27.5186 69.545C26.9211 69.2252 26.5507 69.1579 26.5507 69.1579C26.5507 69.1579 24.6403 71.2198 24.5729 72.3645C24.5056 73.5091 24.3541 74.3591 24.5729 75.2175Z" fill="#D78E69"/>
<path d="M21.2486 50.6085C21.2486 50.6085 21.2906 47.9238 23.26 48.5297C25.2294 49.1273 22.7046 53.5879 22.7046 53.5879L21.5936 58.8901C21.5936 58.8901 21.6189 60.4134 21.1307 61.2971C20.6426 62.1724 19.7925 63.7968 20.2302 64.5458C20.6678 65.2948 21.2738 65.4127 21.2738 65.4127C21.2738 65.4127 20.6763 66.1028 19.9525 65.5978C19.9525 65.5978 20.3901 66.7088 19.4896 66.936C19.4896 66.936 20.2975 67.9291 19.7168 69.4356C19.1361 70.9421 18.4712 72.9031 18.286 74.2413C18.1009 75.5795 18.7742 76.7156 18.7742 76.7156L17.7558 76.1349L16.5776 75.9919H15.3067C15.3067 75.9919 16.8553 73.9972 17.0909 72.7769C17.3182 71.5565 16.9984 69.9574 17.3182 68.7792C17.638 67.6009 18.3618 66.7929 18.3618 66.7929C18.3618 66.7929 18.0841 66.2543 18.4796 65.5473C18.4796 65.5473 17.1414 65.2023 17.2761 64.5458C17.2761 64.5458 17.7811 64.9498 18.3197 64.1839C18.8499 63.418 19.1782 63.0056 19.1782 61.6843C19.1782 60.3629 19.2455 58.9574 19.2455 58.9574L21.257 50.6085H21.2486Z" fill="#F4AE00"/>
<path d="M21.7283 50.4402C21.7283 50.4402 21.703 50.415 21.6778 50.3897C21.4421 50.1541 20.4826 49.2283 19.4222 49.5818C18.2355 49.9773 17.6211 51.7616 17.4781 52.4349C17.3434 53.1082 17.032 55.1365 16.8553 55.8014C16.6869 56.4747 17.8315 58.1579 18.0756 58.6545C18.3197 59.151 17.6296 59.7233 19.2791 59.7233C20.9287 59.7233 21.8713 59.4792 22.5615 58.8985C23.2516 58.3178 22.8224 57.493 22.8224 57.493C22.8224 57.493 23.0496 57.1311 23.3526 56.4831C23.664 55.8266 23.6471 55.4479 23.7818 54.7325C23.9165 54.0087 24.0259 53.6636 23.7818 53.6636C23.5377 53.6636 23.0075 53.6805 22.957 53.5458C22.9065 53.4112 22.7634 51.5007 21.7198 50.4571L21.7283 50.4402Z" fill="#F1A882"/>
<path d="M19.4306 49.5817C18.2439 49.9773 17.6296 51.7615 17.4865 52.4348C17.3518 53.1081 17.0404 55.1365 16.8637 55.8013C16.7627 56.2137 17.1498 57.0049 17.5286 57.6782C17.6716 57.0301 17.8316 56.2053 17.7811 55.8013C17.6885 55.086 17.8989 54.3201 18.4039 53.6973C18.9088 53.0745 19.3549 52.5443 19.8009 52.5443C20.0871 52.5443 21.5179 52.3759 22.5867 51.8878C22.41 51.3828 22.1407 50.8526 21.7367 50.4486C21.7367 50.4486 21.7114 50.4234 21.6862 50.3981C21.4505 50.1625 20.4911 49.2367 19.4306 49.5902V49.5817Z" fill="#D78E69"/>
<path d="M33.6204 54.0929C33.6204 51.1219 36.0359 48.7065 39.0068 48.7065C41.9777 48.7065 44.3932 51.1219 44.3932 54.0929C44.3932 57.0638 41.9777 59.4792 39.0068 59.4792C36.0359 59.4792 33.6204 57.0722 33.6204 54.0929Z" fill="url(#paint0_radial_3556_504)"/>
<path d="M43.2065 48.0753H35.2195C34.8323 48.799 34.3358 49.7669 34.0075 50.4907C33.4184 51.7952 33.3258 54.076 33.4773 54.1349C33.6288 54.1938 33.8056 54.9681 34.4284 55.086C35.0512 55.2038 35.8339 55.187 36.0274 54.6062C36.221 54.0339 36.6839 51.4081 37.0963 50.6927C37.5087 49.9773 38.4597 49.2956 38.4597 49.2956C38.4597 49.2956 37.4834 52.1655 37.273 53.5795C37.0626 54.9934 37.5424 55.3721 38.0473 55.1365C38.5523 54.9008 38.7038 52.6453 39.2677 51.3997C39.8316 50.1541 41.0435 48.8243 41.5821 49.4892C42.1124 50.1541 43.6609 54.8924 44.6372 53.5795C44.6372 53.5795 43.804 49.0852 43.2738 48.1426C43.257 48.1173 43.2401 48.0921 43.2233 48.0668L43.2065 48.0753Z" fill="#F1A882"/>
<path d="M35.2111 48.0753C34.8239 48.7991 34.3274 49.7669 33.9991 50.4907C33.41 51.7952 33.3174 54.076 33.4689 54.1349C33.6204 54.1938 33.7971 54.9681 34.4199 55.086C34.4452 55.086 34.4704 55.0944 34.4957 55.1028C34.7145 53.8319 35.1858 51.4754 35.9601 50.1372C36.3304 49.4976 36.9532 48.7654 37.6181 48.0753H35.2195H35.2111Z" fill="#D78E69"/>
<path d="M41.2202 58.9659C41.5401 60.607 39.4865 61.9536 40.1851 63.6453C40.4628 64.327 41.2455 64.6552 41.9272 64.3775C42.5584 64.125 42.8614 63.4517 42.7772 62.77C43.1896 63.3086 43.8798 63.5779 44.5026 63.3255C45.1843 63.0477 45.5125 62.2734 45.2348 61.5833C44.5447 59.8664 42.1544 60.3714 41.2202 58.9659Z" fill="#F4AE00"/>
<path d="M17.0404 75.7814C16.4597 77.3468 14.0022 77.4226 13.7076 79.2321C13.5898 79.9559 14.0779 80.646 14.8101 80.7638C15.4834 80.8732 16.0978 80.4608 16.3755 79.838C16.4429 80.5113 16.8889 81.1005 17.5622 81.2099C18.286 81.3277 18.9761 80.8396 19.094 80.1074C19.397 78.281 17.0993 77.4647 17.0404 75.773V75.7814Z" fill="#F4AE00"/>
<path d="M28.941 85.7126C28.941 85.2497 29.2524 84.8794 29.6311 84.8794C30.0098 84.8794 30.3212 85.2497 30.3212 85.7126C30.3212 86.1755 30.0098 86.5458 29.6311 86.5458C29.2524 86.5458 28.941 86.1755 28.941 85.7126Z" fill="#F4AE00"/>
<path d="M55.7887 38.4134C55.2753 37.4792 55.4184 36.7386 54.4001 35.4846C53.3817 34.2305 52.5485 33.7676 51.0588 32.9344C49.5776 32.1012 35.573 30.4348 34.6472 32.9344C33.7214 35.4425 32.6105 36.9237 32.0971 37.7569C31.5837 38.5901 25.4651 42.3017 22.2248 43.4631C18.9762 44.6246 14.9027 46.594 14.9027 46.594C14.9027 46.594 16.4345 42.0576 16.8469 40.8878C17.2677 39.7179 18.143 37.9505 18.143 37.9505C18.143 37.9505 13.4636 39.8189 13.0007 40.9972C12.5378 42.1754 12.5378 48.0247 12.5378 48.0247H58.625V43.0087C58.625 43.0087 56.3105 39.3644 55.7971 38.4218L55.7887 38.4134Z" fill="#4A7FAD"/>
<path d="M14.8943 46.5855C14.8943 46.5855 18.9762 44.6161 22.2165 43.4547C25.4651 42.2933 31.5837 38.5901 32.0887 37.7485C32.4758 37.1173 33.1996 36.1242 33.9318 34.6008C33.6625 34.0285 33.4269 33.5741 33.2501 33.3384C32.4169 32.2275 29.0757 31.7141 29.0757 31.7141C29.0757 31.7141 21.9471 32.5978 20.9709 33.2879C19.9946 33.9696 18.1262 37.9337 18.1262 37.9337C18.1262 37.9337 17.2425 39.6927 16.8301 40.8709C16.4093 42.0408 14.8859 46.5771 14.8859 46.5771L14.8943 46.5855Z" fill="#E13F00"/>
<path d="M58.6166 48.0079V42.9918C58.6166 42.9918 56.3021 39.3476 55.7887 38.405C55.2753 37.4708 55.4184 36.7302 54.4001 35.4761C53.3817 34.2221 52.5485 33.7592 51.0588 32.926C50.0152 32.3369 42.7941 31.3438 38.2662 31.6636L36.7849 36.3598L38.6281 39.1456C39.3266 38.9015 42.9877 37.0584 44.0565 36.3598C45.1254 35.6613 48.7864 35.2405 49.1063 35.6613C49.4345 36.0821 48.273 34.6598 50.5875 37.4792C52.9104 40.2986 53.9287 40.366 54.2991 41.4685C54.6694 42.571 55.2753 43.4715 54.2991 43.3032C53.3228 43.1265 51.0504 41.9061 50.9578 42.4953C50.8652 43.0844 51.7237 43.278 53.9119 45.1548C55.2501 46.2994 54.7283 47.3346 54.0971 48.0079H58.5997H58.6166Z" fill="#1066A0"/>
<path d="M44.4773 16.1104C42.9961 18.9383 40.9089 23.3063 37.2731 23.3063C33.6372 23.3063 31.1376 18.9467 30.0604 15.9337C28.4529 11.431 33.6373 11.2374 37.2646 11.2374C40.892 11.2374 46.7666 11.734 44.4689 16.1104H44.4773Z" fill="#316694"/>
<path d="M54.964 48.0079C54.459 47.0989 53.3565 46.4256 52.2203 45.4914C50.9242 44.4226 49.9058 43.6483 47.8018 43.3453C45.7061 43.0507 44.107 44.0943 42.6426 45.8533C41.9357 46.7118 40.4207 47.4524 39.0489 47.9995H54.9555L54.964 48.0079Z" fill="#E13F00"/>
<path d="M53.8362 32.8418C53.2723 32.0086 52.0267 32.4126 51.2271 31.3522C50.4276 30.2917 48.6433 29.7867 48.231 29.7531C47.8186 29.7194 46.674 28.6842 46.7665 27.1777C46.8675 25.6628 44.9402 25.0147 44.7046 23.3231C44.4689 21.6314 44.5531 20.4279 43.6189 19.0476C43.6189 19.0476 40.5974 18.1639 37.13 18.1471C33.6625 18.1219 30.801 19.0476 30.801 19.0476C30.801 19.0476 29.7321 21.2779 29.6984 22.5235C29.6648 23.7691 28.6043 24.0385 28.3603 25.8143C28.1246 27.5901 28.9831 28.2297 27.83 28.6674C26.677 29.105 25.3136 28.1287 24.3626 29.0461C23.4115 29.9635 22.2248 30.6452 21.905 30.9482C21.5768 31.2512 19.6495 30.9145 19.6495 32.5809C19.6495 34.2473 19.801 35.0974 20.7436 34.5419C21.6946 33.978 21.7788 33.2626 23.3526 33.1785C24.9264 33.0943 24.8928 33.1196 25.9616 33.6245C27.0305 34.1295 28.2424 35.0216 29.2271 34.2726C30.2034 33.532 31.6594 32.076 32.0466 32.2527C32.4337 32.4294 42.8109 31.9581 43.0129 32.2527C43.2233 32.5473 43.5768 34.1211 45.2095 34.0033C46.8423 33.8854 47.7933 33.1111 48.7948 33.3805C49.8048 33.6498 50.4865 33.229 51.286 33.4394C52.0856 33.6498 54.4 33.675 53.8362 32.8502V32.8418Z" fill="#6D6E71"/>
<path d="M30.801 19.0477C30.801 19.0477 29.3702 15.05 27.9647 13.9475C27.9647 13.9475 29.9173 14.0064 30.0772 14.3851C30.2371 14.7638 29.9678 15.4371 30.4559 15.8075C30.9525 16.1778 31.8193 15.5886 31.6258 14.9658C31.4238 14.343 30.6747 14.0905 30.6747 14.0905L31.3228 12.5672L32.9219 13.4677C32.9219 13.4677 32.2991 14.0401 32.56 14.7302C32.8293 15.4203 34.3358 15.4203 34.2096 14.4188C34.0833 13.4173 33.3006 13.4173 33.3006 13.4173L34.4284 12.0033L35.6403 13.0722C35.6403 13.0722 34.9923 13.5351 35.1017 14.1326C35.2027 14.7302 35.7666 14.9911 36.221 14.9743C36.6755 14.9574 36.8943 14.5534 36.9112 14.0569C36.928 13.5519 36.1958 13.0049 36.1958 13.0049L37.6013 11.734L38.6028 13.0722C38.6028 13.0722 38.0474 13.4257 38.0642 14.0737C38.081 14.7302 38.6028 14.9069 38.99 14.9069C39.3771 14.9069 39.8568 14.8059 39.8905 14.1158C39.9326 13.4341 39.4192 13.0806 39.4192 13.0806L40.7153 12.2895L41.5485 13.5098C41.5485 13.5098 40.9004 13.6782 40.8247 14.2336C40.7405 14.7891 40.993 15.1089 41.4138 15.2941C41.8431 15.4708 42.3396 15.2688 42.4911 14.7638C42.6426 14.2589 42.146 13.5435 42.146 13.5435L43.4169 13.0049L43.9555 14.2336C43.9555 14.2336 43.2065 14.3683 43.1644 15.0248C43.1223 15.6812 43.4337 15.8243 43.8714 16.0179C44.309 16.2114 44.8056 14.5114 44.8056 14.5114L46.7413 14.0569C46.7413 14.0569 44.2164 16.6322 43.5936 19.0393C43.5936 19.0393 40.5722 18.1556 37.1047 18.1388C33.6373 18.1135 30.7757 19.0393 30.7757 19.0393L30.801 19.0477Z" fill="#F4AE00"/>
<path d="M43.8124 31.9834C43.5852 31.1586 43.4505 30.8556 43.4758 29.7615C43.5095 28.6674 43.0802 27.8342 43.3243 26.9421C43.5095 26.2688 42.9035 24.9643 42.4406 24.1647C42.045 25.3346 40.5554 26.9421 40.5554 26.9421C40.5554 26.9421 40.1935 26.8748 39.5875 26.5549C38.9899 26.2351 37.6938 26.1425 37.172 26.0752C36.6418 26.0079 36.2883 26.1425 35.6571 26.3109C35.0259 26.4792 34.0244 26.9926 34.016 26.9421C33.9991 26.8916 33.6961 26.7064 33.3763 25.8564C33.0902 25.0821 32.4758 24.2741 32.0213 23.3147C31.8867 23.8028 31.6258 24.7034 31.348 25.5871C30.9356 26.9 30.9188 27.9436 30.9861 28.9199C31.045 29.8962 30.4559 31.4448 30.8346 32.6062C31.2134 33.7592 31.2891 33.1701 31.55 34.1127C31.8109 35.0553 30.944 35.7707 31.5163 36.8227C32.0971 37.8748 33.3006 37.2772 33.3006 37.2772C33.3006 37.2772 33.0733 38.2535 33.9065 38.4471C33.9065 38.4471 34.0496 39.7179 34.6808 39.7852C35.3121 39.8526 35.8086 39.4065 35.8086 39.4065C35.8086 39.4065 37.071 39.4991 37.7864 39.4065C38.5018 39.3139 38.1231 38.6322 38.9142 38.4891C39.7053 38.3545 40.589 37.1678 41.3044 36.6965C42.0198 36.2252 42.6173 35.8885 42.55 35.0974C42.4911 34.3063 42.7183 34.138 42.8698 33.9528C43.0213 33.7676 43.1476 33.3552 43.1476 32.9765C43.1476 32.5978 44.0481 32.8082 43.8209 31.9834H43.8124Z" fill="#BAC2CC"/>
<path d="M37.273 27.1862C37.273 27.1862 36.0527 27.1441 35.6571 27.4976C35.2615 27.851 34.967 28.1624 34.967 28.4233C34.967 28.4233 35.716 28.2466 36.0611 28.4233C36.3977 28.6001 36.8101 28.6758 37.2814 28.6758C37.7527 28.6758 38.8469 28.2214 38.8469 28.2214L39.7474 28.5496C39.7474 28.5496 39.0909 27.5396 38.4597 27.3629C37.8285 27.1862 37.2814 27.1862 37.2814 27.1862H37.273Z" fill="#D78E69"/>
<path d="M41.9019 18.6521C40.6984 18.4165 38.9731 18.164 37.13 18.1471C35.0091 18.1303 33.1154 18.4754 31.9708 18.7363C31.8362 19.6368 31.5079 22.1028 31.8782 22.9949C32.3411 24.0974 33.0565 24.9895 33.3763 25.848C33.6961 26.7064 33.9991 26.8832 34.016 26.9337C34.0328 26.9842 35.0259 26.4708 35.6571 26.3025C36.2883 26.1341 36.6418 25.9995 37.172 26.0668C37.7023 26.1341 38.9899 26.2351 39.5875 26.5465C40.185 26.8663 40.5554 26.9337 40.5554 26.9337C40.5554 26.9337 42.4658 24.8717 42.5332 23.7271C42.6005 22.5825 42.752 21.7324 42.5332 20.874C42.3817 20.2596 42.3901 19.3843 41.9019 18.6521Z" fill="#F1A882"/>
<path d="M42.5332 20.874C42.5332 20.874 42.5332 20.8488 42.5248 20.8319C41.944 20.5963 41.094 20.3017 40.4291 20.3017C39.3098 20.3017 37.9632 20.8067 37.8958 21.9429C37.8285 23.0875 37.8538 24.0637 38.0978 24.7455C38.2325 25.1158 38.3756 25.7133 38.485 26.2351C38.9058 26.3025 39.3182 26.4035 39.5875 26.5465C40.185 26.8663 40.5554 26.9337 40.5554 26.9337C40.5554 26.9337 42.4658 24.8717 42.5332 23.7271C42.6005 22.5825 42.752 21.7325 42.5332 20.874Z" fill="#D78E69"/>
<path d="M45.8576 45.4746C45.8576 45.4746 45.8155 48.1594 43.8461 47.5534C41.8767 46.9559 44.4016 42.4953 44.4016 42.4953L45.5125 37.193C45.5125 37.193 45.4873 35.6697 45.9754 34.786C46.4636 33.9107 47.3136 32.2864 46.876 31.5373C46.4383 30.7883 45.8323 30.6705 45.8323 30.6705C45.8323 30.6705 46.4299 29.9803 47.1537 30.4853C47.1537 30.4853 46.716 29.3744 47.6166 29.1471C47.6166 29.1471 46.8086 28.154 47.3893 26.6475C47.9701 25.141 48.6349 23.18 48.8201 21.8419C49.0053 20.5037 48.332 19.3675 48.332 19.3675L49.3503 19.9482L50.5286 20.0913H51.7994C51.7994 20.0913 50.2509 22.0859 50.0152 23.3063C49.788 24.5266 50.1078 26.1257 49.788 27.304C49.4681 28.4823 48.7444 29.2902 48.7444 29.2902C48.7444 29.2902 49.0221 29.8289 48.6265 30.5358C48.6265 30.5358 49.9647 30.8809 49.83 31.5373C49.83 31.5373 49.3251 31.1334 48.7864 31.8992C48.2562 32.6651 47.928 33.0775 47.928 34.3989C47.928 35.7202 47.8606 37.1257 47.8606 37.1257L45.8492 45.4746H45.8576Z" fill="#F4AE00"/>
<path d="M45.3779 45.6429C45.3779 45.6429 45.4031 45.6682 45.4284 45.6934C45.664 45.9291 46.6235 46.8549 47.6839 46.5014C48.8706 46.1058 49.485 44.3216 49.6281 43.6483C49.7627 42.975 50.0741 40.9467 50.2509 40.2818C50.4192 39.6085 49.2746 37.9252 49.0305 37.4287C48.7864 36.9321 49.4766 36.3598 47.827 36.3598C46.1774 36.3598 45.2348 36.6039 44.5447 37.1846C43.8545 37.7653 44.2838 38.5901 44.2838 38.5901C44.2838 38.5901 44.0565 38.952 43.7535 39.6001C43.4421 40.2565 43.459 40.6353 43.3243 41.3507C43.1897 42.0744 43.0802 42.4195 43.3243 42.4195C43.5684 42.4195 44.0986 42.4027 44.1491 42.5373C44.1996 42.672 44.3427 44.5825 45.3863 45.6261L45.3779 45.6429Z" fill="#F1A882"/>
<path d="M47.6839 46.5014C48.8706 46.1058 49.485 44.3216 49.6281 43.6483C49.7627 42.975 50.0741 40.9467 50.2509 40.2818C50.3519 39.8694 49.9647 39.0783 49.586 38.405C49.4429 39.053 49.283 39.8778 49.3335 40.2818C49.4261 40.9972 49.2157 41.763 48.7107 42.3858C48.2057 43.0086 47.7597 43.5389 47.3136 43.5389C47.0274 43.5389 45.5967 43.7072 44.5278 44.1953C44.7046 44.7003 44.9739 45.2305 45.3779 45.6345C45.3779 45.6345 45.4031 45.6598 45.4284 45.685C45.664 45.9207 46.6235 46.8464 47.6839 46.493V46.5014Z" fill="#D78E69"/>
<path d="M33.4858 41.9903C33.4858 44.9612 31.0703 47.3767 28.0994 47.3767C25.1285 47.3767 22.713 44.9612 22.713 41.9903C22.713 39.0194 25.1285 36.6039 28.0994 36.6039C31.0703 36.6039 33.4858 39.011 33.4858 41.9903Z" fill="url(#paint1_radial_3556_504)"/>
<path d="M23.9081 48.0079H31.8951C32.2822 47.2841 32.7788 46.3162 33.107 45.5924C33.6962 44.2879 33.7887 42.0071 33.6373 41.9482C33.4858 41.8893 33.309 41.115 32.6862 40.9972C32.0634 40.8793 31.2807 40.8962 31.0871 41.4769C30.8936 42.0492 30.4307 44.6751 30.0183 45.3904C29.6059 46.1058 28.6549 46.7875 28.6549 46.7875C28.6549 46.7875 29.6311 43.9176 29.8415 42.5037C30.052 41.0897 29.5722 40.711 29.0673 40.9467C28.5623 41.1823 28.4108 43.4379 27.8469 44.6835C27.283 45.9291 26.0711 47.2588 25.5324 46.594C25.0022 45.9291 23.4536 41.1907 22.4774 42.5037C22.4774 42.5037 23.3106 46.9979 23.8408 47.9406C23.8576 47.9658 23.8744 47.991 23.8913 48.0163L23.9081 48.0079Z" fill="#F1A882"/>
<path d="M31.8951 48.0079C32.2822 47.2841 32.7788 46.3162 33.107 45.5924C33.6961 44.2879 33.7887 42.0071 33.6372 41.9482C33.4857 41.8893 33.309 41.115 32.6862 40.9972C32.661 40.9972 32.6357 40.9888 32.6105 40.9803C32.3916 42.2512 31.9203 44.6077 31.146 45.9459C30.7757 46.5855 30.1529 47.3178 29.488 48.0079H31.8867H31.8951Z" fill="#D78E69"/>
<path d="M25.8859 37.1173C25.5661 35.4761 27.6197 34.1295 26.9211 32.4379C26.6434 31.7562 25.8607 31.4279 25.179 31.7057C24.5478 31.9581 24.2448 32.6314 24.3289 33.3132C23.9165 32.7745 23.2264 32.5052 22.6036 32.7577C21.9219 33.0354 21.5937 33.8097 21.8714 34.4998C22.5615 36.2167 24.9517 35.7118 25.8859 37.1173Z" fill="#F4AE00"/>
<path d="M50.0657 20.3017C50.6464 18.7363 53.104 18.6605 53.3985 16.8511C53.5163 16.1273 53.0282 15.4371 52.296 15.3193C51.6227 15.2099 51.0083 15.6223 50.7306 16.2451C50.6632 15.5718 50.2172 14.9827 49.5439 14.8732C48.8201 14.7554 48.13 15.2436 48.0121 15.9758C47.7092 17.8021 50.0068 18.6185 50.0657 20.3101V20.3017Z" fill="#F4AE00"/>
<path d="M38.1736 10.379C38.1736 10.8419 37.8622 11.2122 37.4835 11.2122C37.1047 11.2122 36.7933 10.8419 36.7933 10.379C36.7933 9.91609 37.1047 9.54578 37.4835 9.54578C37.8622 9.54578 38.1736 9.91609 38.1736 10.379Z" fill="#F4AE00"/>
<path d="M9.30288 37.6822C9.93956 34.4634 14.6792 33.5261 14.6616 29.936C14.6616 28.4858 13.4943 27.3185 12.0441 27.3185C10.7 27.3185 9.65659 28.3089 9.30288 29.6C8.96686 28.3089 7.90571 27.3185 6.56162 27.3185C5.11141 27.3185 3.94421 28.4858 3.94421 29.936C3.94421 33.5792 8.64852 34.4281 9.30288 37.6822Z" fill="#CB0D07"/>
<path d="M57.1309 58.4092C56.4942 61.6279 51.7545 62.5653 51.7722 66.1554C51.7722 67.6056 52.9395 68.7728 54.3897 68.7728C55.7338 68.7728 56.7772 67.7824 57.1309 66.4914C57.4669 67.7824 58.5281 68.7728 59.8722 68.7728C61.3224 68.7728 62.4896 67.6056 62.4896 66.1554C62.4896 62.5122 57.7853 61.6633 57.1309 58.4092Z" fill="#CB0D07"/>
<path d="M12.5411 24.5458L9.28043 15.9037L7.53079 19.3234V24.5458H5.48956V6.54578H7.53079V15.506H7.58382L11.9314 6.54578H13.9726L10.4734 13.6503L14.6088 24.5193H12.5411V24.5458Z" fill="#CB0D07"/>
<path d="M54.5573 71.5458L57.818 80.1879L59.5676 76.7682L59.5676 71.5458L61.6088 71.5458L61.6088 89.5458L59.5676 89.5458L59.5676 80.5855L59.5146 80.5855L55.167 89.5458L53.1258 89.5458L56.625 82.4412L52.4895 71.5723L54.5573 71.5723L54.5573 71.5458Z" fill="#CB0D07"/>
</g>
<defs>
<radialGradient id="paint0_radial_3556_504" cx="0" cy="0" r="1" gradientUnits="userSpaceOnUse" gradientTransform="translate(41.0099 56.5251) rotate(180) scale(5.38638 5.38638)">
<stop stop-color="#FEF2C6"/>
<stop offset="0.1" stop-color="#FEE795"/>
<stop offset="0.19" stop-color="#FEDD6B"/>
<stop offset="0.29" stop-color="#FDD548"/>
<stop offset="0.39" stop-color="#FDCE2E"/>
<stop offset="0.49" stop-color="#FDCA1B"/>
<stop offset="0.59" stop-color="#FDC70F"/>
<stop offset="0.7" stop-color="#FDC70C"/>
<stop offset="1" stop-color="#FF7539"/>
</radialGradient>
<radialGradient id="paint1_radial_3556_504" cx="0" cy="0" r="1" gradientUnits="userSpaceOnUse" gradientTransform="translate(26.0963 39.5664) scale(5.38638 5.38638)">
<stop stop-color="#FEF2C6"/>
<stop offset="0.1" stop-color="#FEE795"/>
<stop offset="0.19" stop-color="#FEDD6B"/>
<stop offset="0.29" stop-color="#FDD548"/>
<stop offset="0.39" stop-color="#FDCE2E"/>
<stop offset="0.49" stop-color="#FDCA1B"/>
<stop offset="0.59" stop-color="#FDC70F"/>
<stop offset="0.7" stop-color="#FDC70C"/>
<stop offset="1" stop-color="#FF7539"/>
</radialGradient>
<clipPath id="clip0_3556_504">
<rect width="65.4895" height="95" fill="white" transform="translate(0.489563 0.545898)"/>
</clipPath>
</defs>
</svg>
