<svg width="66" height="96" viewBox="0 0 66 96" fill="none" xmlns="http://www.w3.org/2000/svg">
<g clip-path="url(#clip0_3556_1947)">
<rect width="65.4895" height="95" transform="translate(0.489563 0.545898)" fill="white"/>
<path d="M4.98944 0.546021L61.4792 0.546021C63.9602 0.546021 65.9791 2.56495 65.9791 5.04591V91.0461C65.9791 93.5271 63.9602 95.546 61.4792 95.546H4.98944C2.50847 95.546 0.489563 93.5271 0.489563 91.0461L0.489563 5.04591C0.489563 2.56495 2.50847 0.546021 4.98944 0.546021Z" fill="white"/>
<path d="M9.30288 37.6823C9.93956 34.4635 14.6792 33.5262 14.6616 29.9361C14.6616 28.4859 13.4943 27.3186 12.0441 27.3186C10.7 27.3186 9.65659 28.309 9.30288 29.6C8.96686 28.309 7.90571 27.3186 6.56162 27.3186C5.11141 27.3186 3.94421 28.4859 3.94421 29.9361C3.94421 33.5793 8.64852 34.4282 9.30288 37.6823Z" fill="#CB0D07"/>
<path d="M23.5526 30.0638C24.1297 27.0972 28.4944 26.2391 28.487 22.9322C28.487 21.6006 27.4069 20.5205 26.0753 20.5205C24.8473 20.5205 23.8707 21.4378 23.56 22.6289C23.2419 21.4378 22.2728 20.5205 21.0373 20.5205C19.7057 20.5205 18.6256 21.6006 18.6256 22.9322C18.6182 26.2761 22.9534 27.0677 23.56 30.0638H23.5526Z" fill="#CB0D07"/>
<path d="M23.5524 45.9839C24.1294 43.0247 28.4942 42.1592 28.4868 38.8597C28.4868 37.5281 27.4067 36.448 26.0751 36.448C24.847 36.448 23.8705 37.3653 23.5598 38.5564C23.2417 37.3727 22.2726 36.448 21.0371 36.448C19.7055 36.448 18.6254 37.5281 18.6254 38.8597C18.618 42.2035 22.9532 42.9951 23.5598 45.9839H23.5524Z" fill="#CB0D07"/>
<path d="M42.439 29.9527C43.0161 26.9862 47.3808 26.128 47.3734 22.8211C47.3734 21.4895 46.2933 20.4094 44.9617 20.4094C43.7337 20.4094 42.7571 21.3268 42.4464 22.5178C42.1283 21.3268 41.1592 20.4094 39.9311 20.4094C38.5995 20.4094 37.5194 21.4895 37.5194 22.8211C37.512 26.1724 41.8472 26.9566 42.4538 29.9527H42.439Z" fill="#CB0D07"/>
<path d="M42.439 45.9839C43.0161 43.0173 47.3808 42.1592 47.3734 38.8597C47.3734 37.5281 46.2933 36.448 44.9617 36.448C43.7337 36.448 42.7571 37.3653 42.4464 38.5564C42.1283 37.3727 41.1592 36.448 39.9311 36.448C38.5995 36.448 37.5194 37.5281 37.5194 38.8597C37.512 42.2035 41.8472 42.9951 42.4538 45.9839H42.439Z" fill="#CB0D07"/>
<path d="M32.7925 52.5533C33.3695 49.5867 37.7343 48.7286 37.7269 45.4217C37.7269 44.0901 36.6468 43.01 35.3151 43.01C34.0871 43.01 33.1106 43.9273 32.7998 45.1184C32.4817 43.9273 31.5126 43.01 30.2846 43.01C28.9529 43.01 27.8728 44.0901 27.8728 45.4217C27.858 48.7656 32.2006 49.5572 32.8073 52.5533H32.7925Z" fill="#CB0D07"/>
<path d="M23.5526 66.1136C24.1297 69.0801 28.4944 69.9383 28.487 73.2378C28.487 74.5694 27.4069 75.6495 26.0753 75.6495C24.8473 75.6495 23.8707 74.7321 23.56 73.5411C23.2419 74.7321 22.2728 75.6495 21.0373 75.6495C19.7057 75.6495 18.6256 74.5694 18.6256 73.2378C18.6182 69.8939 22.9534 69.1023 23.56 66.1136H23.5526Z" fill="#CB0D07"/>
<path d="M23.5529 50.1935C24.1299 53.1601 28.4947 54.0183 28.4873 57.3177C28.4873 58.6493 27.4072 59.7294 26.0756 59.7294C24.8475 59.7294 23.871 58.8121 23.5603 57.621C23.2422 58.8121 22.273 59.7294 21.0376 59.7294C19.706 59.7294 18.6259 58.6493 18.6259 57.3177C18.6185 53.9739 22.9536 53.1823 23.5603 50.1935H23.5529Z" fill="#CB0D07"/>
<path d="M42.4395 66.2245C43.0165 69.1911 47.3813 70.0492 47.3739 73.3561C47.3739 74.6877 46.2938 75.7678 44.9622 75.7678C43.7341 75.7678 42.7576 74.8505 42.4469 73.6594C42.1288 74.8505 41.1597 75.7678 39.9316 75.7678C38.6 75.7678 37.5199 74.6877 37.5199 73.3561C37.5125 70.0122 41.8477 69.2281 42.4543 66.2245H42.4395Z" fill="#CB0D07"/>
<path d="M42.4396 50.1933C43.0167 53.1598 47.3814 54.018 47.374 57.3175C47.374 58.6491 46.2939 59.7292 44.9623 59.7292C43.7343 59.7292 42.7577 58.8118 42.447 57.6208C42.1289 58.8118 41.1598 59.7292 39.9318 59.7292C38.6001 59.7292 37.52 58.6491 37.52 57.3175C37.5126 53.9736 41.8478 53.182 42.4544 50.1933H42.4396Z" fill="#CB0D07"/>
<path d="M9.9882 15.9992C9.58223 16.2892 9.11832 16.4632 8.50935 16.4632C7.90039 16.4632 7.37842 16.3762 6.97244 16.1732C6.56647 15.9702 6.24741 15.7092 5.98642 15.3612C5.75444 15.0132 5.58047 14.6363 5.46448 14.1723C5.34848 13.7083 5.31952 13.2443 5.31952 12.7514V8.63362C5.31952 8.02465 5.43547 7.47368 5.63846 6.98071C5.87044 6.51674 6.16048 6.11076 6.50846 5.79178C6.88544 5.4728 7.29142 5.24082 7.78439 5.06683C8.24837 4.89284 8.7703 4.83484 9.29227 4.83484C10.5682 4.83484 11.5252 5.15382 12.2211 5.79178C12.9171 6.42975 13.265 7.38669 13.265 8.63362V11.9104C13.265 12.7514 13.207 13.4763 13.091 14.0273C12.9751 14.5783 12.8301 15.1002 12.6561 15.5352L9.00227 24.7277H6.74041L10.0172 16.1152L9.93024 16.0282L9.9882 15.9992ZM7.55236 12.8674C7.55236 13.3603 7.72639 13.7373 8.04537 14.0273C8.36435 14.3173 8.7703 14.4623 9.29227 14.4623C9.64025 14.4623 9.90126 14.4043 10.1332 14.2593C10.3652 14.1143 10.5392 13.9693 10.6842 13.7663C10.8292 13.5633 10.9161 13.3313 10.9741 13.0994C11.0321 12.8384 11.0611 12.6064 11.0611 12.3454V8.43063C11.0611 7.93766 10.8872 7.56068 10.5682 7.2707C10.2492 7.00971 9.81427 6.86472 9.3213 6.86472C8.82833 6.86472 8.39329 7.00971 8.07431 7.2707C7.75532 7.56068 7.58138 7.93766 7.58138 8.43063V12.8384L7.55236 12.8674Z" fill="#CB0D07"/>
<path d="M56.8022 58.4093C56.1655 61.6281 51.4259 62.5654 51.4435 66.1555C51.4435 67.6057 52.6108 68.773 54.061 68.773C55.4051 68.773 56.4485 67.7826 56.8022 66.4916C57.1382 67.7826 58.1994 68.773 59.5435 68.773C60.9937 68.773 62.1609 67.6057 62.1609 66.1555C62.1609 62.5124 57.4566 61.6635 56.8022 58.4093Z" fill="#CB0D07"/>
<path d="M56.1163 80.0923C56.5223 79.8023 56.9862 79.6283 57.5952 79.6283C58.2042 79.6283 58.7261 79.7153 59.1321 79.9183C59.5381 80.1213 59.8571 80.3823 60.1181 80.7302C60.3501 81.0782 60.5241 81.4552 60.6401 81.9192C60.7561 82.3831 60.785 82.8471 60.785 83.3401L60.785 87.4578C60.785 88.0668 60.6691 88.6178 60.4661 89.1107C60.2341 89.5747 59.9441 89.9807 59.5961 90.2997C59.2191 90.6187 58.8131 90.8506 58.3202 91.0246C57.8562 91.1986 57.3342 91.2566 56.8123 91.2566C55.5364 91.2566 54.5794 90.9376 53.8834 90.2997C53.1875 89.6617 52.8395 88.7048 52.8395 87.4578L52.8395 84.181C52.8395 83.3401 52.8975 82.6151 53.0135 82.0642C53.1295 81.5132 53.2745 80.9912 53.4485 80.5562L57.1023 71.3638L59.3641 71.3638L56.0873 79.9763L56.1743 80.0633L56.1163 80.0923ZM58.5522 83.2241C58.5522 82.7311 58.3782 82.3541 58.0592 82.0642C57.7402 81.7742 57.3343 81.6292 56.8123 81.6292C56.4643 81.6292 56.2033 81.6872 55.9713 81.8322C55.7393 81.9772 55.5653 82.1222 55.4203 82.3251C55.2753 82.5281 55.1884 82.7601 55.1304 82.9921C55.0724 83.2531 55.0434 83.4851 55.0434 83.7461L55.0434 87.6608C55.0434 88.1538 55.2174 88.5308 55.5363 88.8208C55.8553 89.0817 56.2903 89.2267 56.7833 89.2267C57.2762 89.2267 57.7113 89.0817 58.0302 88.8208C58.3492 88.5308 58.5232 88.1538 58.5232 87.6608L58.5232 83.2531L58.5522 83.2241Z" fill="#CB0D07"/>
</g>
<defs>
<clipPath id="clip0_3556_1947">
<rect width="65.4895" height="95" fill="white" transform="translate(0.489563 0.545898)"/>
</clipPath>
</defs>
</svg>
