<svg width="66" height="96" viewBox="0 0 66 96" fill="none" xmlns="http://www.w3.org/2000/svg">
<g clip-path="url(#clip0_3556_1845)">
<rect width="65.4895" height="95" transform="translate(0.489624 0.545914)" fill="white"/>
<path d="M4.9895 0.545914L61.4793 0.545914C63.9602 0.545914 65.9792 2.56484 65.9792 5.04581V91.046C65.9792 93.527 63.9602 95.5459 61.4793 95.5459H4.9895C2.50853 95.5459 0.489624 93.527 0.489624 91.046L0.489624 5.04581C0.489624 2.56484 2.50853 0.545914 4.9895 0.545914Z" fill="white"/>
<path d="M13.865 32.21C13.3468 31.558 12.1097 31.09 11.324 29.9699C10.555 28.8498 10.0033 27.5459 10.0033 27.5459C10.0033 27.5459 9.4517 28.8498 8.6827 29.9699C7.9137 31.09 6.65986 31.558 6.14163 32.21C5.824 32.6112 5.48962 33.1964 5.48962 33.7648C5.48962 34.8012 6.32548 35.6371 7.36196 35.6371C8.18111 35.6371 9.38481 34.818 9.81947 33.9654C9.66901 35.1022 9.16747 37.4259 7.71306 38.5459C8.3316 38.2617 9.13405 38.0946 10.0201 38.0946C10.9061 38.0946 11.6583 38.245 12.2601 38.4958C10.8224 37.3757 10.3377 35.0687 10.1872 33.9486C10.6218 34.8012 11.8256 35.6204 12.6447 35.6204C13.6812 35.6204 14.517 34.7845 14.517 33.748C14.517 33.1796 14.1994 32.5946 13.865 32.1933V32.21Z" fill="black"/>
<path d="M53.1417 63.8818C53.6599 64.5338 54.897 65.0019 55.6827 66.1219C56.4517 67.242 57.0034 68.5459 57.0034 68.5459C57.0034 68.5459 57.555 67.242 58.324 66.1219C59.093 65.0019 60.3469 64.5338 60.8651 63.8818C61.1827 63.4806 61.5171 62.8954 61.5171 62.3271C61.5171 61.2906 60.6812 60.4547 59.6448 60.4547C58.8256 60.4547 57.6219 61.2739 57.1872 62.1265C57.3377 60.9897 57.8392 58.666 59.2937 57.5459C58.6751 57.8301 57.8727 57.9973 56.9866 57.9973C56.1006 57.9973 55.3484 57.8468 54.7466 57.5961C56.1843 58.7161 56.6691 61.0231 56.8195 62.1432C56.3849 61.2906 55.1812 60.4715 54.362 60.4715C53.3255 60.4715 52.4897 61.3073 52.4897 62.3438C52.4897 62.9122 52.8073 63.4973 53.1417 63.8985L53.1417 63.8818Z" fill="black"/>
<path d="M37.1137 23.3641C36.5801 22.6971 35.2854 22.2106 34.4928 21.0492C33.7002 19.8956 33.1352 18.5459 33.1352 18.5459C33.1352 18.5459 32.5702 19.8878 31.7776 21.0492C30.985 22.2027 29.6903 22.6892 29.1567 23.3641C28.8192 23.7879 28.4896 24.3921 28.4896 24.9728C28.4896 26.04 29.3528 26.8954 30.4122 26.8954C31.2597 26.8954 32.4917 26.0557 32.9469 25.1768C32.7821 26.3461 32.2799 28.7552 30.7653 29.9009C31.3931 29.6105 32.2328 29.4379 33.1509 29.4379C34.069 29.4379 34.838 29.5948 35.458 29.8616C33.9748 28.7081 33.4805 26.3225 33.3157 25.169C33.7708 26.0479 35.0028 26.8954 35.8582 26.8954C36.9254 26.8954 37.7808 26.0322 37.7808 24.9728C37.7808 24.3921 37.4433 23.7879 37.1137 23.3641Z" fill="black"/>
<path d="M37.1137 73.7277C36.5801 74.3948 35.2854 74.8813 34.4928 76.0427C33.7002 77.1962 33.1352 78.5459 33.1352 78.5459C33.1352 78.5459 32.5702 77.2041 31.7776 76.0427C30.985 74.8891 29.6903 74.4026 29.1567 73.7277C28.8192 73.304 28.4896 72.6997 28.4896 72.119C28.4896 71.0518 29.3528 70.1886 30.4122 70.1886C31.2597 70.1886 32.4917 71.0283 32.9469 71.915C32.7821 70.7458 32.2799 68.3367 30.7653 67.191C31.3931 67.4813 32.2328 67.654 33.1509 67.654C34.069 67.654 34.838 67.4892 35.458 67.2302C33.9748 68.3838 33.4805 70.7693 33.3157 71.9229C33.7708 71.0361 35.0028 70.1965 35.8582 70.1965C36.9254 70.1965 37.7808 71.0597 37.7808 72.1269C37.7808 72.7076 37.4433 73.3118 37.1137 73.7356V73.7277Z" fill="black"/>
<path d="M37.1059 47.8397C36.5802 47.1726 35.2854 46.6861 34.4928 45.5247C33.7002 44.3712 33.1352 43.0215 33.1352 43.0215C33.1352 43.0215 32.5702 44.3633 31.7776 45.5247C30.985 46.6783 29.6903 47.1648 29.1567 47.8397C28.8192 48.2634 28.4896 48.8677 28.4896 49.4484C28.4896 50.5156 29.3528 51.3709 30.4201 51.3709C31.2676 51.3709 32.4996 50.5313 32.9547 49.6524C32.7899 50.8216 32.2877 53.2307 30.7732 54.3764C31.401 54.0939 32.2406 53.9134 33.1587 53.9134C34.0769 53.9134 34.8459 54.0782 35.4658 54.3372C33.9827 53.1836 33.4883 50.7981 33.3236 49.6445C33.7787 50.5234 35.0107 51.3709 35.866 51.3709C36.9254 51.3709 37.7965 50.5077 37.7965 49.4484C37.7965 48.8677 37.459 48.2634 37.1294 47.8397H37.1059Z" fill="black"/>
<path d="M13.8651 20.3263C13.8651 21.0777 13.7495 21.7135 13.5183 22.2627C13.2871 22.8118 12.9981 23.2453 12.6223 23.5633C12.2466 23.9101 11.842 24.1413 11.3507 24.3147C10.8593 24.4881 10.368 24.5459 9.81887 24.5459C9.03852 24.5459 8.40269 24.4303 7.88246 24.1991C7.36222 23.9679 6.95758 23.65 6.63966 23.2742C6.32174 22.8696 6.11947 22.4072 6.00386 21.8581C5.88825 21.3089 5.85933 20.702 5.88823 20.0083L8.11367 19.6904C8.02697 20.5286 8.11366 21.2222 8.37378 21.7135C8.63389 22.2338 9.12521 22.465 9.84775 22.465C10.3391 22.465 10.7437 22.3205 11.0905 22.0026C11.4374 21.6846 11.6108 21.1644 11.6108 20.3841V17.4361C11.6108 16.6557 11.4663 16.0777 11.1484 15.7309C10.8304 15.3841 10.3102 15.2107 9.61658 15.2107H8.74952V13.2742H9.67435C10.368 13.2742 10.8593 13.1008 11.1773 12.7829C11.4663 12.465 11.6397 11.9159 11.6397 11.1644V8.64996C11.6397 8.41875 11.6397 8.15863 11.553 7.92742C11.4952 7.6962 11.4374 7.46499 11.3218 7.29158C11.2062 7.11817 11.0617 6.94476 10.8304 6.82915C10.6281 6.71354 10.3391 6.65574 10.0212 6.65574C9.35646 6.65574 8.86513 6.91586 8.57611 7.40719C8.25819 7.89852 8.11367 8.56326 8.11367 9.40141L5.88823 9.08349C5.88823 8.44765 6.00384 7.84071 6.20615 7.29158C6.40846 6.74245 6.66857 6.25112 7.01539 5.84649C7.36222 5.44187 7.79573 5.12395 8.31596 4.89273C8.83619 4.66152 9.47203 4.54591 10.1657 4.54591C10.8593 4.54591 11.4374 4.66152 11.8998 4.86383C12.3622 5.06615 12.7379 5.38406 13.027 5.73089C13.316 6.10661 13.5183 6.51123 13.6339 7.00256C13.7495 7.49389 13.8073 7.98522 13.8073 8.53435V10.5286C13.8073 10.9043 13.8073 11.2511 13.7784 11.6268C13.7495 11.9737 13.6917 12.2916 13.5761 12.6095C13.4605 12.8985 13.316 13.1875 13.0848 13.4476C12.8536 13.7078 12.5645 13.939 12.1599 14.1413V14.228C12.5356 14.4014 12.8246 14.6037 13.0558 14.806C13.2582 15.0372 13.4316 15.2685 13.5472 15.5575C13.6628 15.8465 13.7206 16.1644 13.7495 16.5401C13.7495 16.9159 13.7784 17.3205 13.7784 17.754V20.2974L13.8651 20.3263Z" fill="black"/>
<path d="M52.4896 75.7656C52.4896 75.0141 52.6052 74.3783 52.8365 73.8291C53.0677 73.28 53.3567 72.8465 53.7324 72.5286C54.1081 72.1818 54.5128 71.9505 55.0041 71.7771C55.4954 71.6037 55.9867 71.5459 56.5359 71.5459C57.3162 71.5459 57.9521 71.6615 58.4723 71.8927C58.9925 72.1239 59.3972 72.4419 59.7151 72.8176C60.033 73.2222 60.2353 73.6846 60.3509 74.2338C60.4665 74.7829 60.4954 75.3898 60.4665 76.0835L58.2411 76.4014C58.3278 75.5633 58.2411 74.8696 57.981 74.3783C57.7208 73.8581 57.2295 73.6268 56.507 73.6268C56.0157 73.6268 55.611 73.7713 55.2642 74.0893C54.9174 74.4072 54.744 74.9274 54.744 75.7078L54.744 78.6557C54.744 79.4361 54.8885 80.0141 55.2064 80.3609C55.5243 80.7078 56.0445 80.8812 56.7382 80.8812L57.6052 80.8812L57.6052 82.8176L56.6804 82.8176C55.9867 82.8176 55.4954 82.991 55.1775 83.3089C54.8885 83.6268 54.715 84.176 54.715 84.9274L54.715 87.4419C54.715 87.6731 54.715 87.9332 54.8017 88.1644C54.8596 88.3956 54.9174 88.6268 55.033 88.8002C55.1486 88.9737 55.2931 89.1471 55.5243 89.2627C55.7266 89.3783 56.0156 89.4361 56.3335 89.4361C56.9983 89.4361 57.4896 89.176 57.7786 88.6846C58.0965 88.1933 58.2411 87.5286 58.2411 86.6904L60.4665 87.0083C60.4665 87.6442 60.3509 88.2511 60.1486 88.8002C59.9463 89.3494 59.6862 89.8407 59.3393 90.2453C58.9925 90.65 58.559 90.9679 58.0388 91.1991C57.5185 91.4303 56.8827 91.5459 56.1891 91.5459C55.4954 91.5459 54.9174 91.4303 54.4549 91.228C53.9925 91.0257 53.6168 90.7078 53.3278 90.3609C53.0388 89.9852 52.8364 89.5806 52.7208 89.0893C52.6052 88.5979 52.5474 88.1066 52.5474 87.5575L52.5474 85.5633C52.5474 85.1875 52.5474 84.8407 52.5763 84.465C52.6052 84.1182 52.663 83.8002 52.7786 83.4823C52.8942 83.1933 53.0387 82.9043 53.27 82.6442C53.5012 82.3841 53.7902 82.1529 54.1948 81.9505L54.1948 81.8638C53.8191 81.6904 53.5301 81.4881 53.2989 81.2858C53.0966 81.0546 52.9232 80.8234 52.8076 80.5344C52.692 80.2453 52.6341 79.9274 52.6052 79.5517C52.6052 79.176 52.5763 78.7713 52.5763 78.3378L52.5763 75.7945L52.4896 75.7656Z" fill="black"/>
</g>
<defs>
<clipPath id="clip0_3556_1845">
<rect width="65.4895" height="95" fill="white" transform="translate(0.489624 0.545914)"/>
</clipPath>
</defs>
</svg>
