<svg width="66" height="96" viewBox="0 0 66 96" fill="none" xmlns="http://www.w3.org/2000/svg">
<g clip-path="url(#clip0_3556_1107)">
<rect width="65.4895" height="95" transform="translate(0.489563 0.545914)" fill="white"/>
<path d="M4.98944 0.545914L61.4792 0.545914C63.9602 0.545914 65.9791 2.56484 65.9791 5.04581V91.046C65.9791 93.527 63.9602 95.5459 61.4792 95.5459H4.98944C2.50847 95.5459 0.489563 93.527 0.489563 91.046L0.489563 5.04581C0.489563 2.56484 2.50847 0.545914 4.98944 0.545914Z" fill="white"/>
<path d="M12.4896 6.54579V19.7965C12.4896 21.3446 12.1703 22.5254 11.5562 23.3388C10.9176 24.1522 9.95971 24.5458 8.65796 24.5458C7.97024 24.5458 7.35621 24.4146 6.81586 24.126C6.27551 23.8373 5.83342 23.4175 5.48956 22.8403L6.88954 21.6333C7.06147 21.8956 7.30711 22.158 7.65097 22.3679C7.97027 22.5779 8.3141 22.6828 8.65796 22.6828C9.37024 22.6828 9.86147 22.4467 10.1562 21.9481C10.4509 21.4758 10.5983 20.8461 10.5983 20.0589V6.54579H12.4896Z" fill="black"/>
<path d="M54.4896 89.5458L54.4896 76.2951C54.4896 74.747 54.8089 73.5662 55.4229 72.7528C56.0615 71.9394 57.0194 71.5458 58.3212 71.5458C59.0089 71.5458 59.6229 71.677 60.1633 71.9656C60.7036 72.2542 61.1457 72.6741 61.4896 73.2513L60.0896 74.4583C59.9177 74.1959 59.672 73.9335 59.3282 73.7236C59.0089 73.5137 58.665 73.4088 58.3212 73.4088C57.6089 73.4088 57.1177 73.6449 56.8229 74.1435C56.5282 74.6158 56.3808 75.2455 56.3808 76.0327L56.3808 89.5458L54.4896 89.5458Z" fill="black"/>
<path d="M13.865 32.21C13.3467 31.558 12.1096 31.09 11.3239 29.9699C10.5549 28.8498 10.0033 27.5459 10.0033 27.5459C10.0033 27.5459 9.45163 28.8498 8.68264 29.9699C7.91364 31.09 6.6598 31.558 6.14156 32.21C5.82393 32.6112 5.48956 33.1964 5.48956 33.7648C5.48956 34.8012 6.32542 35.6371 7.3619 35.6371C8.18105 35.6371 9.38475 34.818 9.8194 33.9654C9.66895 35.1022 9.16741 37.4259 7.713 38.5459C8.33154 38.2617 9.13398 38.0946 10.02 38.0946C10.906 38.0946 11.6582 38.245 12.2601 38.4958C10.8224 37.3757 10.3376 35.0687 10.1871 33.9486C10.6218 34.8012 11.8255 35.6204 12.6446 35.6204C13.6811 35.6204 14.517 34.7845 14.517 33.748C14.517 33.1796 14.1993 32.5946 13.865 32.1933V32.21Z" fill="black"/>
<path d="M53.1416 63.8818C53.6598 64.5338 54.8969 65.0019 55.6826 66.1219C56.4516 67.242 57.0033 68.5459 57.0033 68.5459C57.0033 68.5459 57.5549 67.242 58.3239 66.1219C59.0929 65.0019 60.3467 64.5338 60.865 63.8818C61.1826 63.4806 61.517 62.8954 61.517 62.3271C61.517 61.2906 60.6811 60.4547 59.6446 60.4547C58.8255 60.4547 57.6218 61.2739 57.1871 62.1265C57.3376 60.9897 57.8391 58.666 59.2935 57.5459C58.675 57.8301 57.8725 57.9973 56.9865 57.9973C56.1005 57.9973 55.3483 57.8468 54.7465 57.5961C56.1842 58.7161 56.6689 61.0231 56.8194 62.1432C56.3847 61.2906 55.181 60.4715 54.3619 60.4715C53.3254 60.4715 52.4896 61.3073 52.4896 62.3438C52.4896 62.9122 52.8072 63.4973 53.1416 63.8985L53.1416 63.8818Z" fill="black"/>
<path d="M35.5933 16.2489C36.0451 16.0276 36.4138 15.6496 36.5982 15.1426C36.6812 14.9121 36.7181 14.6816 36.7181 14.4511C36.7181 14.0916 36.7273 13.7228 36.7365 13.3632C36.755 12.469 36.7549 10.6251 36.7549 9.70321C33.9892 9.70321 29.3796 8.7813 29.3427 12.2201C29.0569 12.3399 28.8264 12.5612 28.7066 12.8746C28.6144 13.142 28.6328 13.4093 28.725 13.6583C28.4945 13.8334 28.3102 14.0731 28.1995 14.3681C28.052 14.7646 28.0889 15.1794 28.2456 15.539C28.0059 15.7787 27.8031 16.0737 27.674 16.4148C27.2223 17.6686 27.8676 19.0423 29.1122 19.5032C29.3335 19.5862 29.5548 19.6139 29.776 19.6323C29.8405 20.1855 30.2093 20.6833 30.7625 20.8861C31.5553 21.1719 32.4311 20.7663 32.7169 19.9734C32.7446 19.8997 32.763 19.8259 32.7723 19.7429C33.6481 19.9919 34.57 19.5309 34.8927 18.6643C35.0033 18.3508 35.0217 18.0282 34.9572 17.7239C35.1969 17.5488 35.3905 17.2998 35.5011 16.9956C35.5933 16.7559 35.6118 16.507 35.5841 16.2673L35.5933 16.2489Z" fill="#CDD9DD"/>
<path d="M51.5241 37.3147L52.1234 32.4839C52.1234 32.4839 56.7237 33.7561 59.0193 35.7567C61.3057 37.7573 61.4255 39.6933 61.4532 40.5875C61.4808 41.4818 61.4532 47.9998 61.4532 47.9998H52.9439L51.5333 37.3147H51.5241Z" fill="#9E1F63"/>
<path d="M28.218 47.9168L13.8083 48.009C13.8083 48.009 14.6934 44.266 17.5145 43.2427C20.3355 42.2194 26.328 44.266 26.577 44.6164C26.8351 44.9667 28.2088 47.9168 28.2088 47.9168H28.218Z" fill="#9E1F63"/>
<path d="M31.205 31.8385C31.205 31.8385 27.2592 31.1286 26.4203 31.8385C25.5813 32.5484 23.9495 38.5409 25.0374 40.3847C26.1252 42.2286 33.2886 46.4971 33.5743 46.451C33.8694 46.4141 36.46 47.9998 36.46 47.9998H53.5524L52.9162 37.2871L46.9238 32.9448L31.1866 31.8478L31.205 31.8385Z" fill="#EBE200"/>
<path d="M36.0819 27.9019C36.1188 28.0218 35.2245 29.5429 32.929 30.3727C30.6334 31.2024 27.1485 31.562 27.8676 32.4562C28.5867 33.3505 30.071 33.4427 30.1632 33.498C30.2554 33.5533 29.0569 35.6092 29.776 35.9411C30.4951 36.2638 31.9333 35.6461 31.9333 35.6461C31.9333 35.6461 31.3156 37.3516 31.9333 37.5729C32.551 37.7941 33.6481 37.1119 33.6481 37.1119C33.6481 37.1119 33.2608 39.2231 34.0353 39.4075C34.8097 39.5826 35.7316 38.4211 35.7316 38.4211C35.7316 38.4211 35.9436 40.4124 36.8379 40.3847C37.7322 40.3571 37.6676 38.7437 37.9073 38.7437C38.147 38.7437 39.8987 39.6103 39.8987 38.7714C39.8987 37.9324 39.5668 36.7708 39.7512 36.7708C39.9355 36.7708 40.71 37.0105 41.4198 37.0105C42.1297 37.0105 42.7013 36.7431 42.7013 36.7431C42.7013 36.7431 42.2865 38.7529 42.7013 39.0018C43.1162 39.2508 44.7572 38.2367 44.7572 38.2367C44.7572 38.2367 44.37 39.8131 45.1721 40.1727C45.9741 40.5322 46.8131 39.4536 46.8131 39.4536C46.8131 39.4536 47.7719 38.1445 49.1363 37.3424C50.51 36.5403 50.4731 32.1889 50.4731 32.0967C50.4731 32.0045 49.5143 31.1747 48.4449 29.3586C47.3754 27.5424 46.2138 26.5928 44.4622 27.0077C42.7013 27.4225 36.0911 27.9019 36.0911 27.9019H36.0819Z" fill="#CDD9DD"/>
<path d="M50.7682 43.2335C50.6114 43.4916 48.8598 46.4878 49.6526 46.8105C50.4455 47.1332 51.2568 46.2482 51.2568 46.2482C51.2568 46.2482 51.2383 47.502 52.1234 47.502C53.0084 47.502 54.0686 46.663 54.0686 46.663C54.0686 46.663 54.6956 47.8799 55.6267 47.2715C56.5578 46.663 56.272 45.8241 56.272 45.8241C56.272 45.8241 58.6506 46.8382 58.3556 45.7134C58.0698 44.5795 57.7655 44.1462 57.7655 44.1462C57.7655 44.1462 59.2222 44.4965 58.9917 43.2335C58.7612 41.9705 57.2585 41.4265 57.2585 41.574C57.2585 41.7215 57.7748 39.9238 56.3642 39.9238C54.9537 39.9238 51.7638 41.6017 50.7774 43.2335H50.7682Z" fill="#CDD9DD"/>
<path d="M18.7867 44.1093C21.7645 43.8419 25.5352 47.926 25.5352 47.926L48.3804 47.9998C36.6535 46.9765 32.1546 44.1001 29.2874 42.5973C25.7749 40.7535 26.5401 34.8716 26.7429 33.3597C26.9549 31.8477 29.4533 32.0413 29.4533 32.0413C26.7705 29.8656 26.6876 30.9074 25.4338 31.1194C24.1799 31.3315 21.2667 34.3369 20.4277 35.3234C19.598 36.3098 17.5052 38.5132 16.0486 40.3847C14.592 42.2654 13.8176 47.8338 13.8176 47.8338C13.8176 47.8338 15.8181 44.3766 18.7959 44.1093H18.7867Z" fill="#BC4288"/>
<path d="M36.9301 21.3563C36.9301 21.3563 32.2376 21.6513 31.5277 19.4479C30.8178 17.2445 31.205 13.2249 33.6573 11.7775C36.1096 10.3209 36.7918 8.82741 41.4291 9.92449C46.0571 11.0216 47.5507 10.8464 47.8733 12.4137C48.196 13.9717 48.491 14.276 49.1732 14.9582C49.8462 15.6312 50.2795 15.8063 50.2519 17.1615C50.2242 18.526 50.8327 19.0607 50.7774 20.1209C50.7221 21.1904 51.1093 21.7527 49.8739 22.5732C48.6293 23.3938 48.3158 23.6519 47.8457 24.1036C47.3847 24.5554 36.9394 21.3563 36.9394 21.3563H36.9301Z" fill="#9E1F63"/>
<path d="M50.7681 20.1209C50.8234 19.0515 50.215 18.526 50.2426 17.1616C50.2703 15.7971 49.8462 15.6312 49.164 14.9582C48.491 14.2852 48.1867 13.9809 47.8641 12.4137C47.5506 10.8741 46.1032 11.0216 41.6503 9.97981C42.056 10.4592 42.5354 10.9202 43.0701 11.1691C44.3792 11.7775 46.2323 13.2987 46.9053 14.0823C47.5783 14.866 49.0349 15.7326 48.1867 16.8481C47.3386 17.9636 47.3017 17.2261 45.6976 18.2126C44.1026 19.199 43.0885 20.1486 43.107 21.6513C43.107 22.0293 43.1623 22.5733 43.2452 23.1817C45.5408 23.7994 47.6336 24.2972 47.8272 24.0944C48.2882 23.6427 48.6108 23.3845 49.8554 22.564C51.1 21.7435 50.7036 21.1811 50.7589 20.1117L50.7681 20.1209Z" fill="#770A48"/>
<path d="M48.869 44.4873L50.3993 33.8852C50.3993 33.8852 51.7177 33.0555 52.4737 33.498C53.2389 33.9405 51.4135 40.7259 51.4135 40.7259L50.5653 45.0497L48.869 44.4873Z" fill="#91A3BD"/>
<path d="M50.2427 32.4101L53.5155 12.386L54.8062 10.7542L55.6267 12.8654L53.0177 32.9449L50.2427 32.4101Z" fill="#91A3BD"/>
<g style="mix-blend-mode:multiply" opacity="0.5">
<path d="M53.0176 32.9449L55.6267 12.8654L54.8061 10.7542L51.5241 32.6498L53.0176 32.9449Z" fill="#91A3BD"/>
</g>
<path d="M45.9834 31.3223V34.2355L52.4 33.3874L57.4244 36.107L57.7563 33.2583L52.5014 31.8662L45.9834 31.3223Z" fill="#91A3BD"/>
<path d="M50.8603 45.0496C50.8603 45.7134 50.3256 46.2574 49.6526 46.2574C48.9796 46.2574 48.4449 45.7226 48.4449 45.0496C48.4449 44.3766 48.9888 43.8419 49.6526 43.8419C50.3164 43.8419 50.8603 44.3766 50.8603 45.0496Z" fill="#CB0D07"/>
<path d="M34.7175 16.5255C34.7175 16.5255 34.109 20.5727 34.3672 22.6009C34.6161 24.6291 35.1139 26.5467 35.6118 27.8927C36.1096 29.2387 37.3173 29.8472 39.659 29.8841C42.0007 29.921 42.9318 28.8515 43.992 27.2566C45.0614 25.6617 45.2366 24.4447 45.2366 24.4447C45.2366 24.4447 46.0202 24.5185 46.8039 23.4491C47.5875 22.3796 47.9378 21.0336 47.2648 20.7847C46.5918 20.5358 46.4074 20.7847 46.4074 20.7847C46.4074 20.7847 46.0571 21.9556 45.6607 22.4534C45.2735 22.9512 44.4161 23.5505 44.4161 23.0619C44.4161 22.5733 44.5912 20.8216 44.5912 20.6096C44.5912 20.3975 44.204 19.2912 44.0934 19.1898C43.9828 19.0884 43.6693 19.2267 43.6693 18.2679C43.6693 17.3091 43.7431 16.2396 43.7431 16.2396C43.7431 16.2396 41.6503 14.8199 38.8016 14.8568C35.9621 14.8936 34.7175 16.5255 34.7175 16.5255Z" fill="#F1A882"/>
<path d="M45.7529 24.3433C45.4486 24.4724 45.2366 24.4539 45.2366 24.4539C45.2366 24.4539 45.0614 25.6617 43.992 27.2658C42.9226 28.8607 42.0007 29.9302 39.659 29.8933C38.525 29.8749 37.6584 29.7273 37.0038 29.4231C37.2528 32.4839 41.0972 34.0327 41.0972 34.0327L45.8451 29.2848C45.3103 27.7729 45.5408 25.634 45.7529 24.3433Z" fill="#D78E69"/>
<path d="M37.4925 28.5381C37.6677 27.7544 37.6031 27.9388 37.6308 27.0814C37.6677 26.2332 37.5109 26.4084 37.3081 26.0489C37.1053 25.6985 37.345 25.2283 37.345 25.2283C37.345 25.2283 37.345 24.6291 37.2067 24.1589C37.0684 23.698 36.8195 23.7348 36.6535 23.5689C36.4968 23.4122 36.2479 23.1633 36.46 22.6286C36.672 22.0938 37.2436 20.8124 37.2067 19.3926C37.179 18.4154 35.5473 18.2125 34.5147 18.1757C34.3672 19.5309 34.2197 21.4024 34.3672 22.5917C34.6161 24.6199 35.114 26.5375 35.6118 27.8835C35.9068 28.6856 36.46 29.2203 37.3358 29.5337C37.4187 29.2018 37.4095 28.8792 37.4925 28.5196V28.5381Z" fill="#D78E69"/>
<path d="M38.8109 14.8568C37.64 14.8752 36.7457 15.161 36.0912 15.4929C36.1742 15.7971 36.3586 16.1659 36.7181 16.5992C37.6769 17.77 37.8244 17.9821 38.3499 17.77C38.8846 17.558 40.4611 17.0601 40.9682 16.6729C41.2171 16.4793 41.678 15.9446 42.0284 15.4191C41.1802 15.1149 40.0739 14.8475 38.8109 14.8568Z" fill="#45200D"/>
<path d="M48.4449 20.7939C48.4634 20.3514 47.44 20.0472 46.4444 19.1621C45.4487 18.2771 45.5962 17.7423 45.1629 16.3595C44.7388 14.9766 43.7431 16.2488 43.7431 16.2488C43.7431 16.2488 43.6694 17.3183 43.6694 18.2771C43.6694 19.2359 43.9921 19.0976 44.0935 19.199C44.2041 19.3096 44.5913 20.4067 44.5913 20.6187C44.5913 20.8308 44.4161 22.5732 44.4161 23.071C44.4161 23.5689 45.2643 22.9604 45.6607 22.4626C46.0479 21.9647 46.4075 20.7939 46.4075 20.7939C46.4075 20.7939 46.5826 20.545 47.2649 20.7939C47.9379 21.0428 47.5875 22.3981 46.8039 23.4583C46.0203 24.5277 45.2366 24.4539 45.2366 24.4539C45.2366 24.4539 45.1352 25.1638 44.6005 26.224C44.6835 26.2793 44.7665 26.3346 44.8494 26.3807C46.1309 27.1644 45.882 26.3439 46.9145 25.8091C47.9471 25.2744 47.4124 25.0993 47.3386 24.3525C47.2649 23.6058 48.4357 21.2456 48.4449 20.8031V20.7939Z" fill="#45200D"/>
<path d="M34.3672 22.6009C34.1736 21.0613 34.4778 18.3693 34.6346 17.1523C34.441 17.2814 34.2197 17.4935 34.0077 17.8438C33.5098 18.6551 33.3347 19.0515 33.3347 19.8351C33.3347 20.6188 33.6573 20.2961 32.8553 21.0982C32.0532 21.9002 31.7766 22.7115 32.551 23.532C33.1318 24.1405 34.0722 24.1589 34.5792 24.0391C34.4963 23.5689 34.4225 23.0987 34.358 22.6101L34.3672 22.6009Z" fill="#45200D"/>
<path d="M50.9065 43.5008C50.9065 43.5008 52.1326 45.5475 53.8474 45.2156C55.5621 44.8837 55.9678 43.7037 55.7189 42.9661C55.4607 42.2286 55.3593 40.8641 55.4607 39.9975C55.5621 39.1309 55.4331 38.0799 55.2026 37.0013C54.9721 35.9226 53.9488 33.5994 53.6907 33.2675C53.4325 32.9356 51.8007 32.6037 51.0079 32.8619C50.215 33.12 49.0165 33.3689 48.8874 33.9866C48.7584 34.6043 48.4542 34.9546 49.0811 34.9177C49.708 34.8809 51.349 34.0604 51.4965 34.0604C51.644 34.0604 52.0589 34.5766 52.1142 34.7241C52.1695 34.8809 52.5751 34.8993 51.7085 35.1113C50.8419 35.3142 49.2747 35.4986 48.869 36.107C48.4634 36.7247 48.4634 37.0013 48.4634 38.126C48.4634 39.2508 48.5187 40.3571 48.4634 40.6797C48.4081 41.0116 49.0257 40.5507 49.4314 41.0117C49.837 41.4726 50.9157 43.4916 50.9157 43.4916L50.9065 43.5008Z" fill="#F1A882"/>
<path d="M53.8474 45.2156C55.5621 44.8837 55.9678 43.7037 55.7189 42.9661C55.4607 42.2286 55.3593 40.8641 55.4607 39.9975C55.5437 39.2784 55.47 38.4487 55.3132 37.5729C54.8615 38.8451 54.2715 40.4769 53.7921 40.8918C53.1375 41.4634 50.9987 42.035 50.2335 42.2931C50.5838 42.9108 50.8972 43.5008 50.8972 43.5008C50.8972 43.5008 52.1234 45.5475 53.8382 45.2156H53.8474Z" fill="#D78E69"/>
<path d="M17.4223 47.9814C17.4223 47.7048 20.2803 29.4876 29.9604 23.4306C35.5841 19.9089 26.199 47.9814 26.199 47.9814H17.4223Z" fill="#D9AF5D"/>
<g opacity="0.42">
<path d="M24.4197 47.9906L24.3183 47.9629C31.1497 28.7962 30.5505 24.8965 29.5732 24.2696C29.2045 24.0299 28.7804 24.3064 28.7619 24.3157L28.6974 24.2419C28.6974 24.2419 29.1953 23.9192 29.6286 24.1958C30.6242 24.8319 31.2603 28.7685 24.4105 47.9906H24.4197Z" fill="#231F20"/>
</g>
<path d="M23.9311 29.7642C23.9311 29.7642 25.8118 27.9112 26.2451 29.2111C26.6784 30.511 26.494 31.7095 25.0742 32.7974C23.6453 33.8852 21.6078 35.4801 22.0872 36.8815C22.5666 38.2828 24.1892 40.4954 23.2212 41.3159C22.2532 42.1364 19.4782 43.3718 20.0867 44.5426C20.6951 45.7042 17.4223 47.9814 17.4223 47.9814C17.4223 47.9814 19.5059 35.8858 23.9311 29.7735V29.7642Z" fill="#EFCA89"/>
<path d="M31.1681 24.0114C31.2972 24.2142 31.2234 24.4724 30.9929 24.5922C30.7717 24.7121 30.4767 24.6383 30.3476 24.4355C30.2185 24.2327 30.2923 23.9745 30.5228 23.8547C30.744 23.7348 31.039 23.8086 31.1681 24.0114Z" fill="#EFCA89"/>
<path d="M31.3986 26.3992C31.5277 26.602 31.4539 26.8602 31.2235 26.98C31.0022 27.0999 30.7072 27.0261 30.5781 26.8233C30.4491 26.6205 30.5228 26.3623 30.7533 26.2425C30.9746 26.1226 31.2696 26.1964 31.3986 26.3992Z" fill="#EFCA89"/>
<path d="M30.8916 29.7734C31.0206 29.9763 30.9469 30.2344 30.7164 30.3542C30.4951 30.4741 30.2001 30.4003 30.071 30.1975C29.942 29.9947 30.0157 29.7365 30.2462 29.6167C30.4675 29.4968 30.7625 29.5706 30.8916 29.7734Z" fill="#EFCA89"/>
<path d="M29.8498 34.5305C29.9789 34.7334 29.9051 34.9915 29.6746 35.1113C29.4534 35.2312 29.1584 35.1574 29.0293 34.9546C28.9002 34.7518 28.974 34.4937 29.2045 34.3738C29.4257 34.254 29.7207 34.3277 29.8498 34.5305Z" fill="#EFCA89"/>
<path d="M28.2365 39.7855C28.3655 39.9883 28.2918 40.2464 28.0613 40.3663C27.84 40.4861 27.545 40.4124 27.416 40.2096C27.2869 40.0067 27.3606 39.7486 27.5911 39.6288C27.8124 39.5089 28.1074 39.5827 28.2365 39.7855Z" fill="#EFCA89"/>
<path d="M26.2451 45.9808C26.3741 46.1836 26.3004 46.4417 26.0699 46.5616C25.8486 46.6814 25.5536 46.6077 25.4246 46.4049C25.2955 46.202 25.3692 45.9439 25.5997 45.8241C25.821 45.7042 26.116 45.778 26.2451 45.9808Z" fill="#EFCA89"/>
<path d="M40.7192 11.9712C40.5256 11.7315 40.0647 11.5563 39.7789 11.1322C39.4931 10.7173 39.2903 10.2287 39.2903 10.2287C39.2903 10.2287 39.0874 10.7173 38.8016 11.1322C38.5158 11.5471 38.0457 11.7222 37.8613 11.9712C37.7414 12.1279 37.6216 12.3399 37.6216 12.5519C37.6216 12.9391 37.935 13.2434 38.313 13.2434C38.6173 13.2434 39.0598 12.9392 39.2257 12.6257C39.1704 13.0498 38.986 13.9164 38.4329 14.3313C38.6634 14.2299 38.9584 14.1653 39.2903 14.1653C39.6221 14.1653 39.8987 14.2206 40.12 14.322C39.5853 13.9072 39.4009 13.0498 39.3456 12.6257C39.5115 12.9484 39.954 13.2526 40.2583 13.2526C40.6455 13.2526 40.9497 12.9392 40.9497 12.5612C40.9497 12.3491 40.8299 12.1371 40.71 11.9804L40.7192 11.9712Z" fill="#E6E7E8"/>
<path d="M43.1254 41.3988C42.8949 41.113 42.351 40.9102 42.0099 40.4124C41.6688 39.9145 41.4291 39.343 41.4291 39.343C41.4291 39.343 41.1894 39.9145 40.8483 40.4124C40.5072 40.901 39.954 41.113 39.7328 41.3988C39.5853 41.5832 39.447 41.8414 39.447 42.0811C39.447 42.5328 39.8157 42.9016 40.2675 42.9016C40.627 42.9016 41.1525 42.542 41.3461 42.164C41.2724 42.6619 41.0603 43.6944 40.415 44.1831C40.6823 44.0632 41.0419 43.9894 41.4291 43.9894C41.8163 43.9894 42.1482 44.054 42.4155 44.1738C41.7794 43.6852 41.5674 42.6619 41.5029 42.1732C41.6965 42.5512 42.2219 42.9108 42.5815 42.9108C43.0332 42.9108 43.402 42.542 43.402 42.0903C43.402 41.8414 43.2637 41.5832 43.1162 41.4081L43.1254 41.3988Z" fill="black"/>
<path d="M31.3617 79.843C30.91 80.0642 30.5412 80.4422 30.3568 80.9492C30.2738 81.1797 30.237 81.4102 30.237 81.6407C30.237 82.0002 30.2277 82.369 30.2185 82.7286C30.2001 83.6228 30.2001 85.4667 30.2001 86.3886C32.9658 86.3886 37.5754 87.3105 37.6123 83.8717C37.8981 83.7519 38.1286 83.5306 38.2484 83.2172C38.3406 82.9498 38.3222 82.6825 38.23 82.4335C38.4605 82.2584 38.6449 82.0187 38.7555 81.7237C38.903 81.3273 38.8661 80.9124 38.7094 80.5528C38.9491 80.3131 39.1519 80.0181 39.281 79.677C39.7327 78.4232 39.0874 77.0495 37.8428 76.5886C37.6215 76.5056 37.4003 76.4779 37.179 76.4595C37.1145 75.9063 36.7457 75.4085 36.1926 75.2057C35.3997 74.9199 34.5239 75.3255 34.2381 76.1184C34.2104 76.1921 34.192 76.2659 34.1828 76.3489C33.307 76.1 32.385 76.5609 32.0624 77.4275C31.9517 77.741 31.9333 78.0636 31.9978 78.3679C31.7581 78.543 31.5645 78.792 31.4539 79.0962C31.3617 79.3359 31.3433 79.5848 31.3709 79.8245L31.3617 79.843Z" fill="#CDD9DD"/>
<path d="M15.4309 58.7678L14.8317 63.5987C14.8317 63.5987 10.2313 62.3265 7.93572 60.3259C5.64936 58.3253 5.52951 56.3893 5.50186 55.495C5.4742 54.6008 5.50186 48.0828 5.50186 48.0828H14.0112L15.4217 58.7678H15.4309Z" fill="#9E1F63"/>
<path d="M38.7371 48.175L53.1467 48.0828C53.1467 48.0828 52.2616 51.8258 49.4406 52.8491C46.6195 53.8725 40.627 51.8258 40.3781 51.4755C40.1199 51.1251 38.7463 48.175 38.7463 48.175H38.7371Z" fill="#9E1F63"/>
<path d="M35.7501 64.2441C35.7501 64.2441 39.6959 64.9539 40.5348 64.2441C41.3738 63.5342 43.0056 57.5417 41.9177 55.6979C40.8298 53.854 33.6665 49.5855 33.3807 49.6316C33.0857 49.6685 30.4951 48.0828 30.4951 48.0828H13.4027L14.0388 58.7955L20.0313 63.1378L35.7685 64.2349L35.7501 64.2441Z" fill="#EBE200"/>
<path d="M30.8639 68.1807C30.827 68.0608 31.7213 66.5396 34.0168 65.7099C36.3124 64.8802 39.7973 64.5207 39.0782 63.6264C38.3591 62.7321 36.8748 62.6399 36.7826 62.5846C36.6904 62.5293 37.8889 60.4734 37.1698 60.1415C36.4507 59.8189 35.0125 60.4365 35.0125 60.4365C35.0125 60.4365 35.6302 58.731 35.0125 58.5097C34.3948 58.2885 33.2977 58.9707 33.2977 58.9707C33.2977 58.9707 33.6849 56.8595 32.9105 56.6751C32.1361 56.4999 31.2142 57.6616 31.2142 57.6616C31.2142 57.6616 31.0022 55.6702 30.1079 55.6979C29.2136 55.7255 29.2782 57.3389 29.0385 57.3389C28.7988 57.3389 27.0471 56.4723 27.0471 57.3112C27.0471 58.1502 27.379 59.3026 27.1946 59.3026C27.0102 59.3026 26.2358 59.0629 25.526 59.0629C24.8161 59.0629 24.2445 59.3302 24.2445 59.3302C24.2445 59.3302 24.6594 57.3204 24.2445 57.0715C23.8296 56.8226 22.1886 57.8367 22.1886 57.8367C22.1886 57.8367 22.5758 56.2602 21.7737 55.9007C20.9717 55.5411 20.1327 56.6198 20.1327 56.6198C20.1327 56.6198 19.1739 57.9289 17.8095 58.731C16.4358 59.5331 16.4727 63.8845 16.4727 63.9767C16.4727 64.0689 17.4315 64.8986 18.5009 66.7148C19.5704 68.531 20.732 69.4806 22.4836 69.0657C24.2445 68.6509 30.8547 68.1715 30.8547 68.1715L30.8639 68.1807Z" fill="#CDD9DD"/>
<path d="M16.1869 52.8491C16.3436 52.591 18.0953 49.5948 17.3024 49.2721C16.5096 48.9494 15.6983 49.8344 15.6983 49.8344C15.6983 49.8344 15.7167 48.5806 14.8317 48.5806C13.9466 48.5806 12.8864 49.4196 12.8864 49.4196C12.8864 49.4196 12.2595 48.2027 11.3284 48.8111C10.3973 49.4196 10.683 50.2585 10.683 50.2585C10.683 50.2585 8.3045 49.2444 8.59951 50.3692C8.88531 51.5031 9.18954 51.9364 9.18954 51.9364C9.18954 51.9364 7.73291 51.5861 7.96339 52.8491C8.19387 54.1122 9.6966 54.6561 9.6966 54.5086C9.6966 54.3611 9.18033 56.1588 10.5909 56.1588C12.0014 56.1588 15.1912 54.4809 16.1777 52.8491H16.1869Z" fill="#CDD9DD"/>
<path d="M48.1684 51.9825C45.1906 52.2499 41.4199 48.1658 41.4199 48.1658L18.5747 48.092C30.3015 49.1154 34.8005 51.9917 37.6677 53.4945C41.1802 55.3383 40.415 61.2202 40.2122 62.7321C40.0001 64.2441 37.5017 64.0505 37.5017 64.0505C40.1845 66.2262 40.2675 65.1844 41.5213 64.9724C42.7751 64.7603 45.6884 61.7549 46.5273 60.7684C47.3571 59.782 49.4498 57.5786 50.9065 55.7071C52.3631 53.8264 53.1375 48.258 53.1375 48.258C53.1375 48.258 51.1369 51.7152 48.1591 51.9825H48.1684Z" fill="#BC4288"/>
<path d="M30.0249 74.7355C30.0249 74.7355 34.7175 74.4405 35.4274 76.6439C36.1373 78.8473 35.7501 82.8669 33.2977 84.3143C30.8454 85.7709 30.1632 87.2644 25.526 86.1673C20.8979 85.0702 19.4044 85.2454 19.0817 83.6782C18.7591 82.1201 18.464 81.8159 17.7818 81.1337C17.1088 80.4607 16.6755 80.2855 16.7032 78.9303C16.7308 77.5658 16.1224 77.0311 16.1777 75.9709C16.233 74.9015 15.8458 74.3391 17.0812 73.5186C18.3258 72.6981 18.6392 72.4399 19.1094 71.9882C19.5704 71.5365 30.0157 74.7355 30.0157 74.7355H30.0249Z" fill="#9E1F63"/>
<path d="M16.1869 75.9709C16.1316 77.0403 16.74 77.5658 16.7124 78.9302C16.6847 80.2947 17.1088 80.4606 17.791 81.1336C18.464 81.8066 18.7683 82.1109 19.0909 83.6782C19.4044 85.2178 20.8518 85.0702 25.3047 86.112C24.899 85.6326 24.4196 85.1716 23.8849 84.9227C22.5758 84.3143 20.7227 82.7931 20.0497 82.0095C19.3767 81.2258 17.9201 80.3592 18.7683 79.2437C19.6164 78.1282 19.6533 78.8657 21.2575 77.8793C22.8524 76.8928 23.8665 75.9432 23.848 74.4405C23.848 74.0625 23.7927 73.5186 23.7098 72.9101C21.4142 72.2924 19.3214 71.7946 19.1278 71.9974C18.6669 72.4491 18.3442 72.7073 17.0996 73.5278C15.855 74.3483 16.2514 74.9107 16.1961 75.9801L16.1869 75.9709Z" fill="#770A48"/>
<path d="M18.086 51.6045L16.5557 62.2066C16.5557 62.2066 15.2373 63.0364 14.4813 62.5938C13.7162 62.1513 15.5415 55.366 15.5415 55.366L16.3897 51.0421L18.086 51.6045Z" fill="#91A3BD"/>
<path d="M16.7124 63.6817L13.4304 83.7058L12.1489 85.3284L11.3284 83.2264L13.9374 63.147L16.7124 63.6817Z" fill="#91A3BD"/>
<g style="mix-blend-mode:multiply" opacity="0.5">
<path d="M13.9374 63.147L11.3284 83.2264L12.1489 85.3284L15.4309 63.4328L13.9374 63.147Z" fill="#91A3BD"/>
</g>
<path d="M20.9717 64.7696V61.8471L14.5551 62.6952L9.53062 59.9848L9.18951 62.8335L14.4537 64.2256L20.9717 64.7696Z" fill="#91A3BD"/>
<path d="M16.0947 51.0422C16.0947 50.3784 16.6294 49.8344 17.3024 49.8344C17.9754 49.8344 18.5102 50.3692 18.5102 51.0422C18.5102 51.7152 17.9662 52.2499 17.3024 52.2499C16.6387 52.2499 16.0947 51.7152 16.0947 51.0422Z" fill="#CB0D07"/>
<path d="M32.2283 79.5572C32.2283 79.5572 32.8368 75.5099 32.5786 73.4817C32.3297 71.4535 31.8319 69.5359 31.3341 68.1899C30.8362 66.8439 29.6285 66.2354 27.2868 66.1985C24.9452 66.1616 24.014 67.2311 22.9538 68.826C21.8844 70.4209 21.7092 71.6379 21.7092 71.6379C21.7092 71.6379 20.9256 71.5641 20.1419 72.6335C19.3583 73.703 19.008 75.049 19.681 75.2979C20.354 75.5468 20.5384 75.2979 20.5384 75.2979C20.5384 75.2979 20.8887 74.127 21.2851 73.6292C21.6723 73.1314 22.5297 72.5321 22.5297 73.0208C22.5297 73.5094 22.3546 75.261 22.3546 75.473C22.3546 75.6851 22.7418 76.7914 22.8524 76.8928C22.963 76.9942 23.2765 76.8559 23.2765 77.8147C23.2765 78.7735 23.2027 79.843 23.2027 79.843C23.2027 79.843 25.2955 81.2627 28.1442 81.2258C30.9837 81.189 32.2283 79.5572 32.2283 79.5572Z" fill="#F1A882"/>
<path d="M21.2022 71.7485C21.5064 71.6194 21.7185 71.6379 21.7185 71.6379C21.7185 71.6379 21.8936 70.4301 22.9631 68.826C24.0325 67.2311 24.9544 66.1616 27.2961 66.1985C28.43 66.217 29.2966 66.3645 29.9512 66.6687C29.7023 63.6079 25.8579 62.0591 25.8579 62.0591L21.11 66.807C21.6447 68.3189 21.4142 70.4578 21.2022 71.7485Z" fill="#D78E69"/>
<path d="M29.4625 67.5538C29.2874 68.3374 29.3519 68.153 29.3243 69.0104C29.2874 69.8586 29.4441 69.6834 29.6469 70.0429C29.8498 70.3933 29.61 70.8634 29.61 70.8634C29.61 70.8634 29.6101 71.4627 29.7483 71.9329C29.8866 72.3938 30.1355 72.357 30.3015 72.5229C30.4582 72.6796 30.7071 72.9286 30.4951 73.4633C30.2831 73.998 29.7115 75.2795 29.7483 76.6992C29.776 77.6764 31.4078 77.8793 32.4403 77.9162C32.5879 76.5609 32.7354 74.6894 32.5879 73.5001C32.3389 71.4719 31.8411 69.5543 31.3433 68.2083C31.0482 67.4063 30.4951 66.8715 29.6193 66.5581C29.5363 66.89 29.5455 67.2127 29.4625 67.5722V67.5538Z" fill="#D78E69"/>
<path d="M28.1442 81.2258C29.315 81.2074 30.2093 80.9216 30.8639 80.5897C30.7809 80.2855 30.5965 79.9167 30.237 79.4834C29.2782 78.3126 29.1307 78.1005 28.6052 78.3126C28.0705 78.5246 26.494 79.0225 25.9869 79.4097C25.738 79.6033 25.277 80.138 24.9267 80.6635C25.7749 80.9677 26.8812 81.2351 28.1442 81.2258Z" fill="#45200D"/>
<path d="M18.5101 75.2979C18.4917 75.7404 19.515 76.0446 20.5107 76.9297C21.5064 77.8147 21.3589 78.3494 21.7922 79.7323C22.2163 81.1152 23.2119 79.843 23.2119 79.843C23.2119 79.843 23.2857 78.7735 23.2857 77.8147C23.2857 76.8559 22.963 76.9942 22.8616 76.8928C22.751 76.7822 22.3638 75.6851 22.3638 75.473C22.3638 75.261 22.5389 73.5186 22.5389 73.0208C22.5389 72.5229 21.6908 73.1314 21.2943 73.6292C20.9071 74.127 20.5476 75.2979 20.5476 75.2979C20.5476 75.2979 20.3724 75.5468 19.6902 75.2979C19.0172 75.049 19.3675 73.6937 20.1512 72.6335C20.9348 71.5641 21.7184 71.6379 21.7184 71.6379C21.7184 71.6379 21.8198 70.928 22.3545 69.8678C22.2716 69.8125 22.1886 69.7571 22.1056 69.711C20.8241 68.9274 21.0731 69.7479 20.0405 70.2826C19.008 70.8174 19.5427 70.9925 19.6164 71.7393C19.6902 72.486 18.5194 74.8461 18.5101 75.2887V75.2979Z" fill="#45200D"/>
<path d="M32.5879 73.4817C32.7815 75.0213 32.4772 77.7133 32.3205 78.9302C32.5141 78.8012 32.7354 78.5891 32.9474 78.2388C33.4452 77.4275 33.6204 77.0311 33.6204 76.2475C33.6204 75.4638 33.2977 75.7865 34.0998 74.9844C34.9019 74.1823 35.1785 73.3711 34.404 72.5506C33.8232 71.9421 32.8829 71.9237 32.3758 72.0435C32.4588 72.5137 32.5325 72.9839 32.5971 73.4725L32.5879 73.4817Z" fill="#45200D"/>
<path d="M16.0487 52.591C16.0487 52.591 14.8225 50.5443 13.1077 50.8762C11.393 51.2081 10.9873 52.3882 11.2362 53.1257C11.4944 53.8632 11.5958 55.2277 11.4944 56.0943C11.393 56.9609 11.522 58.0119 11.7525 59.0905C11.983 60.1692 13.0063 62.4924 13.2644 62.8243C13.5226 63.1562 15.1544 63.4881 15.9472 63.2299C16.7401 62.9718 17.9386 62.7229 18.0677 62.1052C18.1967 61.4875 18.501 61.1372 17.874 61.1741C17.2471 61.2109 15.6061 62.0314 15.4586 62.0314C15.3111 62.0314 14.8963 61.5152 14.8409 61.3677C14.7856 61.2109 14.38 61.1925 15.2466 60.9805C16.1132 60.7776 17.6804 60.5932 18.0861 59.9848C18.4917 59.3671 18.4917 59.0905 18.4917 57.9658C18.4917 56.841 18.4364 55.7347 18.4917 55.4121C18.547 55.0802 17.9294 55.5411 17.5237 55.0802C17.1181 54.6192 16.0394 52.6002 16.0394 52.6002L16.0487 52.591Z" fill="#F1A882"/>
<path d="M13.0985 50.8762C11.3837 51.2081 10.9781 52.3882 11.227 53.1257C11.4851 53.8632 11.5866 55.2277 11.4851 56.0943C11.4022 56.8134 11.4759 57.6431 11.6326 58.5189C12.0844 57.2467 12.6744 55.6149 13.1538 55.2C13.8084 54.6284 15.9472 54.0568 16.7124 53.7987C16.3621 53.181 16.0486 52.591 16.0486 52.591C16.0486 52.591 14.8225 50.5443 13.1077 50.8762H13.0985Z" fill="#D78E69"/>
<path d="M49.5236 48.1104C49.5236 48.387 46.6656 66.6042 36.9855 72.6612C31.3617 76.1829 40.7469 48.1104 40.7469 48.1104H49.5236Z" fill="#D9AF5D"/>
<g opacity="0.42">
<path d="M42.5262 48.1012L42.6276 48.1289C35.7962 67.2956 36.3954 71.1953 37.3726 71.8222C37.7414 72.0619 38.1655 71.7854 38.1839 71.7761L38.2485 71.8499C38.2485 71.8499 37.7506 72.1726 37.3173 71.896C36.3216 71.2599 35.6855 67.3233 42.5354 48.1012H42.5262Z" fill="#231F20"/>
</g>
<path d="M43.0241 66.3184C43.0241 66.3184 41.1433 68.1714 40.71 66.8715C40.2767 65.5716 40.4611 64.3731 41.8809 63.2853C43.3099 62.1974 45.3473 60.6025 44.8679 59.2011C44.3885 57.7998 42.7659 55.5872 43.7339 54.7667C44.702 53.9462 47.4677 52.7108 46.8685 51.54C46.26 50.3784 49.5328 48.1012 49.5328 48.1012C49.5328 48.1012 47.4493 60.1968 43.0241 66.3092V66.3184Z" fill="#EFCA89"/>
<path d="M35.787 72.0804C35.6579 71.8775 35.7317 71.6194 35.9621 71.4995C36.1834 71.3797 36.4784 71.4535 36.6075 71.6563C36.7366 71.8591 36.6628 72.1172 36.4323 72.2371C36.2111 72.3569 35.9161 72.2832 35.787 72.0804Z" fill="#EFCA89"/>
<path d="M35.5472 69.6926C35.4182 69.4898 35.4919 69.2316 35.7224 69.1118C35.9437 68.9919 36.2387 69.0657 36.3678 69.2685C36.4968 69.4713 36.4231 69.7295 36.1926 69.8493C35.9713 69.9692 35.6763 69.8954 35.5472 69.6926Z" fill="#EFCA89"/>
<path d="M36.0543 66.3092C35.9253 66.1063 35.999 65.8482 36.2295 65.7284C36.4508 65.6085 36.7458 65.6822 36.8748 65.8851C37.0039 66.0879 36.9301 66.346 36.6997 66.4659C36.4784 66.5857 36.1834 66.512 36.0543 66.3092Z" fill="#EFCA89"/>
<path d="M37.1053 61.5613C36.9762 61.3584 37.05 61.1003 37.2805 60.9805C37.5017 60.8606 37.7967 60.9344 37.9258 61.1372C38.0549 61.34 37.9811 61.5981 37.7506 61.718C37.5201 61.8378 37.2344 61.7641 37.1053 61.5613Z" fill="#EFCA89"/>
<path d="M38.7187 56.3063C38.5896 56.1035 38.6634 55.8454 38.8939 55.7255C39.1151 55.6057 39.4101 55.6794 39.5392 55.8822C39.6683 56.085 39.5945 56.3432 39.364 56.463C39.1336 56.5829 38.8478 56.5092 38.7187 56.3063Z" fill="#EFCA89"/>
<path d="M40.71 50.111C40.581 49.9082 40.6547 49.65 40.8852 49.5302C41.1065 49.4103 41.4015 49.4841 41.5305 49.6869C41.6596 49.8898 41.5858 50.1479 41.3554 50.2677C41.1249 50.3876 40.8391 50.3138 40.71 50.111Z" fill="#EFCA89"/>
<path d="M26.2359 84.1207C26.4295 84.3604 26.8904 84.5355 27.1762 84.9596C27.462 85.3745 27.6648 85.8631 27.6648 85.8631C27.6648 85.8631 27.8676 85.3745 28.1534 84.9596C28.4392 84.5447 28.9094 84.3696 29.0938 84.1207C29.2136 83.9639 29.3335 83.7519 29.3335 83.5398C29.3335 83.1526 29.0201 82.8484 28.6421 82.8484C28.3378 82.8484 27.8953 83.1526 27.7294 83.4661C27.7847 83.042 27.9691 82.1754 28.5222 81.7605C28.2917 81.862 27.9967 81.9265 27.6648 81.9265C27.3329 81.9265 27.0564 81.8712 26.8351 81.7698C27.3698 82.1846 27.5542 83.042 27.6095 83.4661C27.4436 83.1434 27.001 82.8392 26.6968 82.8392C26.3096 82.8392 26.0054 83.1527 26.0054 83.5306C26.0054 83.7427 26.1252 83.9547 26.2451 84.1115L26.2359 84.1207Z" fill="#E6E7E8"/>
<path d="M23.8296 54.693C24.0601 54.9788 24.604 55.1816 24.9451 55.6794C25.2862 56.1773 25.5259 56.7488 25.5259 56.7488C25.5259 56.7488 25.7657 56.1773 26.1068 55.6794C26.4479 55.1908 27.001 54.9788 27.2223 54.693C27.3698 54.5086 27.5081 54.2504 27.5081 54.0107C27.5081 53.559 27.1393 53.1902 26.6876 53.1902C26.328 53.1902 25.8025 53.5498 25.6089 53.9278C25.6827 53.4299 25.8947 52.3974 26.5401 51.9088C26.2727 52.0286 25.9132 52.1024 25.5259 52.1024C25.1387 52.1024 24.8068 52.0378 24.5395 51.918C25.1756 52.4066 25.3877 53.4299 25.4522 53.9186C25.2586 53.5406 24.7331 53.181 24.3735 53.181C23.9218 53.181 23.553 53.5498 23.553 54.0015C23.553 54.2504 23.6913 54.5086 23.8388 54.6837L23.8296 54.693Z" fill="black"/>
</g>
<defs>
<clipPath id="clip0_3556_1107">
<rect width="65.4895" height="95" fill="white" transform="translate(0.489563 0.545914)"/>
</clipPath>
</defs>
</svg>
