<svg width="66" height="96" viewBox="0 0 66 96" fill="none" xmlns="http://www.w3.org/2000/svg">
<g clip-path="url(#clip0_3556_1471)">
<rect width="65.4895" height="95" transform="translate(0.489563 0.545914)" fill="white"/>
<path d="M4.98944 0.545914L61.4792 0.545914C63.9602 0.545914 65.9791 2.56484 65.9791 5.04581V91.046C65.9791 93.527 63.9602 95.5459 61.4792 95.5459H4.98944C2.50847 95.5459 0.489563 93.527 0.489563 91.046L0.489563 5.04581C0.489563 2.56484 2.50847 0.545914 4.98944 0.545914Z" fill="white"/>
<path d="M12.0825 24.5458L11.2595 20.5369H7.25062L6.45416 24.5458H4.48956L8.31257 6.54579H10.2241L14.1002 24.5458H12.0825ZM9.18868 10.2361L8.44531 14.4307L7.59576 18.652H10.9143L10.0382 14.3776L9.32142 10.2361H9.21523H9.18868Z" fill="black"/>
<path d="M54.5072 71.5458L55.3302 75.5546L59.3391 75.5546L60.1356 71.5458L62.1002 71.5458L58.2771 89.5458L56.3656 89.5458L52.4895 71.5458L54.5072 71.5458ZM57.401 85.8555L58.1444 81.6608L58.994 77.4396L55.6754 77.4396L56.5515 81.7139L57.2683 85.8555L57.3745 85.8555L57.401 85.8555Z" fill="black"/>
<path d="M39.6696 46.6659C38.7896 45.5559 36.6496 44.7459 35.3296 42.8359C34.0196 40.9259 33.0796 38.6959 33.0796 38.6959C33.0796 38.6959 32.1396 40.9259 30.8296 42.8359C29.5196 44.7559 27.3696 45.5559 26.4896 46.6659C25.9296 47.3659 25.3796 48.3659 25.3796 49.3259C25.3796 51.0859 26.8096 52.5159 28.5696 52.5159C29.9796 52.5159 32.0096 51.1259 32.7696 49.6659C32.4996 51.6059 31.6596 55.5959 29.1496 57.4959C30.1896 57.0259 31.5796 56.7359 33.0996 56.7359C34.6196 56.7359 35.8896 57.0059 36.9196 57.4359C34.4596 55.5259 33.6396 51.5759 33.3696 49.6559C34.1296 51.1159 36.1596 52.5159 37.5796 52.5159C39.3396 52.5159 40.7696 51.0859 40.7696 49.3259C40.7696 48.3659 40.2196 47.3659 39.6596 46.6659H39.6696Z" fill="black"/>
<path d="M13.865 32.21C13.3467 31.558 12.1096 31.09 11.3239 29.9699C10.5549 28.8498 10.0033 27.5459 10.0033 27.5459C10.0033 27.5459 9.45163 28.8498 8.68264 29.9699C7.91364 31.09 6.6598 31.558 6.14156 32.21C5.82393 32.6112 5.48956 33.1964 5.48956 33.7648C5.48956 34.8012 6.32542 35.6371 7.3619 35.6371C8.18105 35.6371 9.38475 34.818 9.8194 33.9654C9.66895 35.1022 9.16741 37.4259 7.713 38.5459C8.33154 38.2617 9.13398 38.0946 10.02 38.0946C10.906 38.0946 11.6582 38.245 12.2601 38.4958C10.8224 37.3757 10.3376 35.0687 10.1871 33.9486C10.6218 34.8012 11.8255 35.6204 12.6446 35.6204C13.6811 35.6204 14.517 34.7845 14.517 33.748C14.517 33.1796 14.1993 32.5946 13.865 32.1933V32.21Z" fill="black"/>
<path d="M53.1416 63.8818C53.6598 64.5338 54.8969 65.0019 55.6826 66.1219C56.4516 67.242 57.0033 68.5459 57.0033 68.5459C57.0033 68.5459 57.5549 67.242 58.3239 66.1219C59.0929 65.0019 60.3467 64.5338 60.865 63.8818C61.1826 63.4806 61.517 62.8954 61.517 62.3271C61.517 61.2906 60.6811 60.4547 59.6446 60.4547C58.8255 60.4547 57.6218 61.2739 57.1871 62.1265C57.3376 60.9897 57.8391 58.666 59.2935 57.5459C58.675 57.8301 57.8725 57.9973 56.9865 57.9973C56.1005 57.9973 55.3483 57.8468 54.7465 57.5961C56.1842 58.7161 56.6689 61.0231 56.8194 62.1432C56.3847 61.2906 55.181 60.4715 54.3619 60.4715C53.3254 60.4715 52.4896 61.3073 52.4896 62.3438C52.4896 62.9122 52.8072 63.4973 53.1416 63.8985L53.1416 63.8818Z" fill="black"/>
</g>
<defs>
<clipPath id="clip0_3556_1471">
<rect width="65.4895" height="95" fill="white" transform="translate(0.489563 0.545914)"/>
</clipPath>
</defs>
</svg>
