<svg width="66" height="96" viewBox="0 0 66 96" fill="none" xmlns="http://www.w3.org/2000/svg">
<g clip-path="url(#clip0_3556_1719)">
<rect width="65.4895" height="95" transform="translate(0.489563 0.545914)" fill="white"/>
<path d="M4.98944 0.545914L61.4792 0.545914C63.9602 0.545914 65.9791 2.56484 65.9791 5.04581V91.046C65.9791 93.527 63.9602 95.5459 61.4792 95.5459H4.98944C2.50847 95.5459 0.489563 93.527 0.489563 91.046L0.489563 5.04581C0.489563 2.56484 2.50847 0.545914 4.98944 0.545914Z" fill="white"/>
<path d="M13.865 32.21C13.3467 31.558 12.1096 31.09 11.3239 29.9699C10.5549 28.8498 10.0033 27.5459 10.0033 27.5459C10.0033 27.5459 9.45163 28.8498 8.68264 29.9699C7.91364 31.09 6.6598 31.558 6.14156 32.21C5.82393 32.6112 5.48956 33.1964 5.48956 33.7648C5.48956 34.8012 6.32542 35.6371 7.3619 35.6371C8.18105 35.6371 9.38475 34.818 9.8194 33.9654C9.66895 35.1022 9.16741 37.4259 7.713 38.5459C8.33154 38.2617 9.13398 38.0946 10.02 38.0946C10.906 38.0946 11.6582 38.245 12.2601 38.4958C10.8224 37.3757 10.3376 35.0687 10.1871 33.9486C10.6218 34.8012 11.8255 35.6204 12.6446 35.6204C13.6811 35.6204 14.517 34.7845 14.517 33.748C14.517 33.1796 14.1993 32.5946 13.865 32.1933V32.21Z" fill="black"/>
<path d="M53.1416 63.8818C53.6598 64.5338 54.8969 65.0019 55.6826 66.1219C56.4516 67.242 57.0033 68.5459 57.0033 68.5459C57.0033 68.5459 57.5549 67.242 58.3239 66.1219C59.0929 65.0019 60.3467 64.5338 60.865 63.8818C61.1826 63.4806 61.517 62.8954 61.517 62.3271C61.517 61.2906 60.6811 60.4547 59.6446 60.4547C58.8255 60.4547 57.6218 61.2739 57.1871 62.1265C57.3376 60.9897 57.8391 58.666 59.2935 57.5459C58.675 57.8301 57.8725 57.9973 56.9865 57.9973C56.1005 57.9973 55.3483 57.8468 54.7465 57.5961C56.1842 58.7161 56.6689 61.0231 56.8194 62.1432C56.3847 61.2906 55.181 60.4715 54.3619 60.4715C53.3254 60.4715 52.4896 61.3073 52.4896 62.3438C52.4896 62.9122 52.8072 63.4973 53.1416 63.8985L53.1416 63.8818Z" fill="black"/>
<path d="M27.8472 23.3641C27.3214 22.6971 26.0266 22.2106 25.2341 21.0492C24.4415 19.8956 23.8765 18.5459 23.8765 18.5459C23.8765 18.5459 23.3115 19.8878 22.5189 21.0492C21.7263 22.2027 20.4316 22.6892 19.8979 23.3641C19.5605 23.7879 19.2309 24.3921 19.2309 24.9728C19.2309 26.04 20.0941 26.8954 21.1613 26.8954C22.0088 26.8954 23.2408 26.0557 23.696 25.1768C23.5312 26.3461 23.029 28.7552 21.5145 29.9009C22.1422 29.6105 22.9819 29.4379 23.9 29.4379C24.8181 29.4379 25.5872 29.5948 26.2071 29.8616C24.724 28.7081 24.2296 26.3225 24.0648 25.169C24.52 26.0479 25.752 26.8954 26.6073 26.8954C27.6667 26.8954 28.5378 26.0322 28.5378 24.9728C28.5378 24.3921 28.2003 23.7879 27.8707 23.3641H27.8472Z" fill="black"/>
<path d="M27.8472 39.7191C27.3214 39.0521 26.0266 38.5655 25.2341 37.4042C24.4415 36.2506 23.8765 34.9009 23.8765 34.9009C23.8765 34.9009 23.3115 36.2428 22.5189 37.4042C21.7263 38.5577 20.4316 39.0442 19.8979 39.7191C19.5605 40.1428 19.2309 40.7471 19.2309 41.3278C19.2309 42.395 20.0941 43.2503 21.1613 43.2503C22.0088 43.2503 23.2408 42.4107 23.696 41.5318C23.5312 42.701 23.029 45.1101 21.5145 46.2558C22.1422 45.9733 22.9819 45.7929 23.9 45.7929C24.8181 45.7929 25.5872 45.9576 26.2071 46.2166C24.724 45.063 24.2296 42.6775 24.0648 41.524C24.52 42.4028 25.752 43.2503 26.6073 43.2503C27.6667 43.2503 28.5378 42.3871 28.5378 41.3278C28.5378 40.7471 28.2003 40.1428 27.8707 39.7191H27.8472Z" fill="black"/>
<path d="M19.9215 57.7926C20.4472 58.4596 21.7421 58.9461 22.5346 60.1075C23.3272 61.2611 23.8922 62.6108 23.8922 62.6108C23.8922 62.6108 24.4572 61.2689 25.2498 60.1075C26.0424 58.954 27.3371 58.4674 27.8707 57.7926C28.2082 57.3688 28.5378 56.7646 28.5378 56.1839C28.5378 55.1167 27.6746 54.2613 26.6073 54.2613C25.7598 54.2613 24.5278 55.101 24.0727 55.9799C24.2375 54.8106 24.7397 52.4015 26.2542 51.2558C25.6264 51.5383 24.7868 51.7188 23.8687 51.7188C22.9505 51.7188 22.1815 51.554 21.5616 51.2951C23.0447 52.4486 23.5391 54.8342 23.7039 55.9877C23.2487 55.1088 22.0167 54.2613 21.1614 54.2613C20.102 54.2613 19.2309 55.1245 19.2309 56.1839C19.2309 56.7646 19.5684 57.3688 19.898 57.7926L19.9215 57.7926Z" fill="black"/>
<path d="M27.8472 74.1475C27.3214 74.8146 26.0266 75.3011 25.2341 76.4625C24.4415 77.616 23.8765 78.9657 23.8765 78.9657C23.8765 78.9657 23.3115 77.6239 22.5189 76.4625C21.7263 75.3089 20.4316 74.8224 19.8979 74.1475C19.5605 73.7238 19.2309 73.1195 19.2309 72.5388C19.2309 71.4716 20.0941 70.6084 21.1613 70.6084C22.0088 70.6084 23.2408 71.4481 23.696 72.3348C23.5312 71.1656 23.029 68.7565 21.5145 67.6108C22.1422 67.9011 22.9819 68.0738 23.9 68.0738C24.8181 68.0738 25.5872 67.909 26.2071 67.65C24.724 68.8036 24.2296 71.1891 24.0648 72.3427C24.52 71.4559 25.752 70.6163 26.6073 70.6163C27.6667 70.6163 28.5378 71.4795 28.5378 72.5467C28.5378 73.1274 28.2003 73.7316 27.8707 74.1554L27.8472 74.1475Z" fill="black"/>
<path d="M38.1059 33.3641C37.5801 32.6971 36.2853 32.2106 35.4927 31.0492C34.7002 29.8956 34.1352 28.5459 34.1352 28.5459C34.1352 28.5459 33.5701 29.8878 32.7776 31.0492C31.985 32.2027 30.6902 32.6892 30.1566 33.3641C29.8192 33.7879 29.4896 34.3921 29.4896 34.9728C29.4896 36.04 30.3528 36.8954 31.42 36.8954C32.2675 36.8954 33.4995 36.0557 33.9546 35.1768C33.7899 36.3461 33.2877 38.7552 31.7731 39.9009C32.4009 39.6184 33.2406 39.4379 34.1587 39.4379C35.0768 39.4379 35.8458 39.6027 36.4658 39.8616C34.9826 38.7081 34.4883 36.3225 34.3235 35.169C34.7786 36.0479 36.0106 36.8954 36.866 36.8954C37.9254 36.8954 38.7964 36.0322 38.7964 34.9728C38.7964 34.3921 38.459 33.7879 38.1294 33.3641H38.1059Z" fill="black"/>
<path d="M30.1801 64.0827C30.7059 64.7497 32.0007 65.2362 32.7933 66.3976C33.5859 67.5512 34.1508 68.9009 34.1508 68.9009C34.1508 68.9009 34.7159 67.559 35.5085 66.3976C36.301 65.2441 37.5958 64.7575 38.1294 64.0827C38.4668 63.6589 38.7964 63.0547 38.7964 62.474C38.7964 61.4068 37.9332 60.5514 36.866 60.5514C36.0185 60.5514 34.7865 61.3911 34.3314 62.27C34.4962 61.1007 34.9984 58.6916 36.5129 57.5459C35.8851 57.8284 35.0455 58.0089 34.1273 58.0089C33.2092 58.0089 32.4402 57.8441 31.8202 57.5852C33.3034 58.7387 33.7977 61.1243 33.9625 62.2778C33.5074 61.3989 32.2754 60.5514 31.42 60.5514C30.3606 60.5514 29.4896 61.4146 29.4896 62.474C29.4896 63.0547 29.827 63.6589 30.1566 64.0827L30.1801 64.0827Z" fill="black"/>
<path d="M48.1137 74.0827C47.5801 74.7497 46.2853 75.2362 45.4927 76.3976C44.7002 77.5511 44.1351 78.9009 44.1351 78.9009C44.1351 78.9009 43.5701 77.559 42.7776 76.3976C41.985 75.2441 40.6902 74.7575 40.1566 74.0827C39.8192 73.6589 39.4896 73.0547 39.4896 72.474C39.4896 71.4068 40.3528 70.5436 41.4121 70.5436C42.2596 70.5436 43.4917 71.3832 43.9468 72.27C43.782 71.1007 43.2798 68.6916 41.7653 67.5459C42.3931 67.8363 43.2327 68.0089 44.1508 68.0089C45.069 68.0089 45.838 67.8441 46.4579 67.5852C44.9748 68.7387 44.4804 71.1243 44.3156 72.2778C44.7708 71.3911 46.0028 70.5514 46.8581 70.5514C47.9254 70.5514 48.7807 71.4146 48.7807 72.4818C48.7807 73.0625 48.4433 73.6668 48.1137 74.0905V74.0827Z" fill="black"/>
<path d="M48.1059 23.3641C47.5801 22.6971 46.2853 22.2106 45.4927 21.0492C44.7002 19.8956 44.1352 18.5459 44.1352 18.5459C44.1352 18.5459 43.5701 19.8878 42.7776 21.0492C41.985 22.2027 40.6902 22.6892 40.1566 23.3641C39.8192 23.7879 39.4896 24.3921 39.4896 24.9728C39.4896 26.04 40.3528 26.8954 41.42 26.8954C42.2675 26.8954 43.4995 26.0557 43.9546 25.1768C43.7899 26.3461 43.2877 28.7552 41.7731 29.9009C42.4009 29.6105 43.2406 29.4379 44.1587 29.4379C45.0768 29.4379 45.8458 29.5948 46.4658 29.8616C44.9826 28.7081 44.4883 26.3225 44.3235 25.169C44.7786 26.0479 46.0106 26.8954 46.866 26.8954C47.9254 26.8954 48.7964 26.0322 48.7964 24.9728C48.7964 24.3921 48.459 23.7879 48.1294 23.3641H48.1059Z" fill="black"/>
<path d="M48.1059 39.7191C47.5801 39.0521 46.2853 38.5655 45.4927 37.4042C44.7002 36.2506 44.1352 34.9009 44.1352 34.9009C44.1352 34.9009 43.5701 36.2428 42.7776 37.4042C41.985 38.5577 40.6902 39.0442 40.1566 39.7191C39.8192 40.1428 39.4896 40.7471 39.4896 41.3278C39.4896 42.395 40.3528 43.2503 41.42 43.2503C42.2675 43.2503 43.4995 42.4107 43.9546 41.5318C43.7899 42.701 43.2877 45.1101 41.7731 46.2558C42.4009 45.9733 43.2406 45.7929 44.1587 45.7929C45.0768 45.7929 45.8458 45.9576 46.4658 46.2166C44.9826 45.063 44.4883 42.6775 44.3235 41.524C44.7786 42.4028 46.0106 43.2503 46.866 43.2503C47.9254 43.2503 48.7964 42.3871 48.7964 41.3278C48.7964 40.7471 48.459 40.1428 48.1294 39.7191H48.1059Z" fill="black"/>
<path d="M40.1801 57.7926C40.7059 58.4596 42.0007 58.9461 42.7933 60.1075C43.5859 61.2611 44.1508 62.6108 44.1508 62.6108C44.1508 62.6108 44.7159 61.2689 45.5085 60.1075C46.301 58.954 47.5958 58.4674 48.1294 57.7926C48.4668 57.3688 48.7964 56.7646 48.7964 56.1839C48.7964 55.1167 47.9332 54.2613 46.866 54.2613C46.0185 54.2613 44.7865 55.101 44.3314 55.9799C44.4962 54.8106 44.9984 52.4015 46.5129 51.2558C45.8851 51.5383 45.0455 51.7188 44.1273 51.7188C43.2092 51.7188 42.4402 51.554 41.8202 51.2951C43.3034 52.4486 43.7977 54.8342 43.9625 55.9877C43.5074 55.1088 42.2754 54.2613 41.42 54.2613C40.3606 54.2613 39.4896 55.1245 39.4896 56.1839C39.4896 56.7646 39.827 57.3688 40.1566 57.7926L40.1801 57.7926Z" fill="black"/>
<path d="M60.8311 71.7282L60.8311 87.3056L63.3839 85.2477L63.3839 87.3838L60.8571 89.4156L58.7992 89.4156L58.7992 71.7542L60.805 71.7542L60.8311 71.7282Z" fill="black"/>
<path d="M50.4896 74.9582C50.4896 74.4112 50.5937 73.9163 50.7761 73.4734C50.9584 73.0566 51.245 72.692 51.5576 72.4054C51.8962 72.1189 52.2609 71.9105 52.7038 71.7542C53.1205 71.5979 53.5894 71.5458 54.0583 71.5458C54.5272 71.5458 54.996 71.6239 55.4128 71.7542C55.8557 71.8844 56.2203 72.1189 56.559 72.4054C56.8976 72.692 57.1582 73.0566 57.3405 73.4734C57.5229 73.8902 57.627 74.3852 57.627 74.9582L57.627 86.1073C57.627 86.6804 57.5229 87.1753 57.3405 87.5921C57.1582 88.0349 56.8716 88.3736 56.559 88.6601C56.2203 88.9467 55.8557 89.1811 55.4128 89.3113C54.97 89.4676 54.5272 89.5458 54.0583 89.5458C53.0163 89.5458 52.1567 89.2592 51.4794 88.6601C50.8022 88.061 50.4896 87.2014 50.4896 86.1073L50.4896 74.9582ZM52.4953 86.1854C52.4953 86.6283 52.6516 86.993 52.9382 87.2535C53.2247 87.514 53.6155 87.6702 54.0583 87.6702C54.5011 87.6702 54.8918 87.54 55.1784 87.2535C55.4649 86.993 55.6213 86.6283 55.6213 86.1854L55.6213 74.8801C55.6213 74.4373 55.4649 74.0726 55.1784 73.8121C54.8658 73.5516 54.5011 73.3953 54.0583 73.3953C53.6155 73.3953 53.2247 73.5255 52.9382 73.8121C52.6516 74.0726 52.4953 74.4373 52.4953 74.8801L52.4953 86.1854Z" fill="black"/>
<path d="M5.04233 24.3634V8.78596L2.48956 10.8439V8.70782L5.01634 6.67598H7.07417V24.3373H5.06841L5.04233 24.3634Z" fill="black"/>
<path d="M15.3839 21.1333C15.3839 21.6804 15.2797 22.1753 15.0974 22.6182C14.915 23.0349 14.6284 23.3996 14.3158 23.6862C13.9772 23.9727 13.6125 24.1811 13.1697 24.3374C12.7529 24.4937 12.284 24.5458 11.8151 24.5458C11.3462 24.5458 10.8774 24.4676 10.4606 24.3374C10.0178 24.2072 9.65307 23.9727 9.31443 23.6862C8.97579 23.3996 8.71525 23.0349 8.5329 22.6182C8.35056 22.2014 8.2464 21.7064 8.2464 21.1333V9.98429C8.2464 9.4112 8.35056 8.91627 8.5329 8.49948C8.71525 8.05665 9.00184 7.71801 9.31443 7.43146C9.65307 7.14492 10.0178 6.91048 10.4606 6.78023C10.9034 6.62394 11.3462 6.54579 11.8151 6.54579C12.8571 6.54579 13.7167 6.83233 14.394 7.43146C15.0713 8.0306 15.3839 8.89022 15.3839 9.98429V21.1333ZM13.3781 9.90614C13.3781 9.4633 13.2218 9.09861 12.9352 8.83812C12.6487 8.57763 12.258 8.42134 11.8151 8.42134C11.3723 8.42134 10.9816 8.55158 10.695 8.83812C10.4085 9.09861 10.2522 9.4633 10.2522 9.90614V21.2115C10.2522 21.6543 10.4085 22.019 10.695 22.2795C11.0076 22.54 11.3723 22.6963 11.8151 22.6963C12.258 22.6963 12.6487 22.5661 12.9352 22.2795C13.2218 22.019 13.3781 21.6543 13.3781 21.2115V9.90614Z" fill="black"/>
</g>
<defs>
<clipPath id="clip0_3556_1719">
<rect width="65.4895" height="95" fill="white" transform="translate(0.489563 0.545914)"/>
</clipPath>
</defs>
</svg>
