<svg width="66" height="96" viewBox="0 0 66 96" fill="none" xmlns="http://www.w3.org/2000/svg">
<g clip-path="url(#clip0_3556_1698)">
<rect width="65.4895" height="95" transform="translate(0.489563 0.545914)" fill="white"/>
<path d="M4.98944 0.545914L61.4792 0.545914C63.9602 0.545914 65.9791 2.56484 65.9791 5.04581V91.046C65.9791 93.527 63.9602 95.5459 61.4792 95.5459H4.98944C2.50847 95.5459 0.489563 93.527 0.489563 91.046L0.489563 5.04581C0.489563 2.56484 2.50847 0.545914 4.98944 0.545914Z" fill="white"/>
<path d="M13.865 32.21C13.3467 31.558 12.1096 31.09 11.3239 29.9699C10.5549 28.8498 10.0033 27.5459 10.0033 27.5459C10.0033 27.5459 9.45163 28.8498 8.68264 29.9699C7.91364 31.09 6.6598 31.558 6.14156 32.21C5.82393 32.6112 5.48956 33.1964 5.48956 33.7648C5.48956 34.8012 6.32542 35.6371 7.3619 35.6371C8.18105 35.6371 9.38475 34.818 9.8194 33.9654C9.66895 35.1022 9.16741 37.4259 7.713 38.5459C8.33154 38.2617 9.13398 38.0946 10.02 38.0946C10.906 38.0946 11.6582 38.245 12.2601 38.4958C10.8224 37.3757 10.3376 35.0687 10.1871 33.9486C10.6218 34.8012 11.8255 35.6204 12.6446 35.6204C13.6811 35.6204 14.517 34.7845 14.517 33.748C14.517 33.1796 14.1993 32.5946 13.865 32.1933V32.21Z" fill="black"/>
<path d="M53.1416 63.8818C53.6598 64.5338 54.8969 65.0019 55.6826 66.1219C56.4516 67.242 57.0033 68.5459 57.0033 68.5459C57.0033 68.5459 57.5549 67.242 58.3239 66.1219C59.0929 65.0019 60.3467 64.5338 60.865 63.8818C61.1826 63.4806 61.517 62.8954 61.517 62.3271C61.517 61.2906 60.6811 60.4547 59.6446 60.4547C58.8255 60.4547 57.6218 61.2739 57.1871 62.1265C57.3376 60.9897 57.8391 58.666 59.2935 57.5459C58.675 57.8301 57.8725 57.9973 56.9865 57.9973C56.1005 57.9973 55.3483 57.8468 54.7465 57.5961C56.1842 58.7161 56.6689 61.0231 56.8194 62.1432C56.3847 61.2906 55.181 60.4715 54.3619 60.4715C53.3254 60.4715 52.4896 61.3073 52.4896 62.3438C52.4896 62.9122 52.8072 63.4973 53.1416 63.8985L53.1416 63.8818Z" fill="black"/>
<path d="M27.8471 23.3641C27.3214 22.6971 26.0266 22.2106 25.234 21.0492C24.4414 19.8956 23.8764 18.5459 23.8764 18.5459C23.8764 18.5459 23.3114 19.8878 22.5188 21.0492C21.7263 22.2027 20.4315 22.6892 19.8979 23.3641C19.5604 23.7879 19.2308 24.3921 19.2308 24.9728C19.2308 26.04 20.094 26.8954 21.1613 26.8954C22.0088 26.8954 23.2408 26.0557 23.6959 25.1768C23.5311 26.3461 23.0289 28.7552 21.5144 29.9009C22.1422 29.6105 22.9818 29.4379 23.9 29.4379C24.8181 29.4379 25.5871 29.5948 26.207 29.8616C24.7239 28.7081 24.2296 26.3225 24.0648 25.169C24.5199 26.0479 25.7519 26.8954 26.6073 26.8954C27.6666 26.8954 28.5377 26.0322 28.5377 24.9728C28.5377 24.3921 28.2002 23.7879 27.8707 23.3641H27.8471Z" fill="black"/>
<path d="M27.8471 39.7191C27.3214 39.0521 26.0266 38.5655 25.234 37.4042C24.4414 36.2506 23.8764 34.9009 23.8764 34.9009C23.8764 34.9009 23.3114 36.2428 22.5188 37.4042C21.7263 38.5577 20.4315 39.0442 19.8979 39.7191C19.5604 40.1428 19.2308 40.7471 19.2308 41.3278C19.2308 42.395 20.094 43.2503 21.1613 43.2503C22.0088 43.2503 23.2408 42.4107 23.6959 41.5318C23.5311 42.701 23.0289 45.1101 21.5144 46.2558C22.1422 45.9733 22.9818 45.7929 23.9 45.7929C24.8181 45.7929 25.5871 45.9576 26.207 46.2166C24.7239 45.063 24.2296 42.6775 24.0648 41.524C24.5199 42.4028 25.7519 43.2503 26.6073 43.2503C27.6666 43.2503 28.5377 42.3871 28.5377 41.3278C28.5377 40.7471 28.2002 40.1428 27.8707 39.7191H27.8471Z" fill="black"/>
<path d="M19.9214 57.7926C20.4472 58.4596 21.742 58.9461 22.5346 60.1075C23.3271 61.2611 23.8921 62.6108 23.8921 62.6108C23.8921 62.6108 24.4572 61.2689 25.2497 60.1075C26.0423 58.954 27.3371 58.4674 27.8707 57.7926C28.2081 57.3688 28.5377 56.7646 28.5377 56.1839C28.5377 55.1167 27.6745 54.2613 26.6073 54.2613C25.7598 54.2613 24.5278 55.101 24.0726 55.9799C24.2374 54.8106 24.7396 52.4015 26.2541 51.2558C25.6264 51.5383 24.7867 51.7188 23.8686 51.7188C22.9505 51.7188 22.1814 51.554 21.5615 51.2951C23.0446 52.4486 23.539 54.8342 23.7038 55.9877C23.2487 55.1088 22.0166 54.2613 21.1613 54.2613C20.1019 54.2613 19.2309 55.1245 19.2309 56.1839C19.2309 56.7646 19.5683 57.3688 19.8979 57.7926L19.9214 57.7926Z" fill="black"/>
<path d="M27.8471 74.1475C27.3214 74.8146 26.0266 75.3011 25.234 76.4625C24.4414 77.616 23.8764 78.9657 23.8764 78.9657C23.8764 78.9657 23.3114 77.6239 22.5188 76.4625C21.7263 75.3089 20.4315 74.8224 19.8979 74.1475C19.5604 73.7238 19.2308 73.1195 19.2308 72.5388C19.2308 71.4716 20.094 70.6084 21.1613 70.6084C22.0088 70.6084 23.2408 71.4481 23.6959 72.3348C23.5311 71.1656 23.0289 68.7565 21.5144 67.6108C22.1422 67.9011 22.9818 68.0738 23.9 68.0738C24.8181 68.0738 25.5871 67.909 26.207 67.65C24.7239 68.8036 24.2296 71.1891 24.0648 72.3427C24.5199 71.4559 25.7519 70.6163 26.6073 70.6163C27.6666 70.6163 28.5377 71.4795 28.5377 72.5467C28.5377 73.1274 28.2002 73.7316 27.8707 74.1554L27.8471 74.1475Z" fill="black"/>
<path d="M38.1058 49.3641C37.58 48.6971 36.2852 48.2106 35.4927 47.0492C34.7001 45.8956 34.1351 44.5459 34.1351 44.5459C34.1351 44.5459 33.5701 45.8878 32.7775 47.0492C31.9849 48.2027 30.6902 48.6892 30.1565 49.3641C29.8191 49.7879 29.4895 50.3921 29.4895 50.9728C29.4895 52.04 30.3527 52.8954 31.4199 52.8954C32.2674 52.8954 33.4994 52.0557 33.9546 51.1768C33.7898 52.3461 33.2876 54.7552 31.7731 55.9009C32.4009 55.6184 33.2405 55.4379 34.1586 55.4379C35.0767 55.4379 35.8458 55.6027 36.4657 55.8616C34.9826 54.7081 34.4882 52.3225 34.3234 51.169C34.7786 52.0479 36.0106 52.8954 36.8659 52.8954C37.9253 52.8954 38.7964 52.0322 38.7964 50.9728C38.7964 50.3921 38.4589 49.7879 38.1293 49.3641H38.1058Z" fill="black"/>
<path d="M9.9882 15.9992C9.58223 16.2892 9.11832 16.4632 8.50935 16.4632C7.90039 16.4632 7.37842 16.3762 6.97244 16.1732C6.56647 15.9702 6.24741 15.7092 5.98642 15.3612C5.75444 15.0133 5.58047 14.6363 5.46448 14.1723C5.34848 13.7083 5.31952 13.2444 5.31952 12.7514V8.63363C5.31952 8.02467 5.43547 7.4737 5.63846 6.98073C5.87044 6.51676 6.16048 6.11078 6.50846 5.7918C6.88544 5.47282 7.29142 5.24083 7.78439 5.06684C8.24837 4.89285 8.7703 4.83485 9.29227 4.83485C10.5682 4.83485 11.5252 5.15384 12.2211 5.7918C12.9171 6.42976 13.265 7.38671 13.265 8.63363V11.9104C13.265 12.7514 13.207 13.4764 13.091 14.0273C12.9751 14.5783 12.8301 15.1003 12.6561 15.5352L9.00227 24.7277H6.74041L10.0172 16.1152L9.93024 16.0282L9.9882 15.9992ZM7.55236 12.8674C7.55236 13.3604 7.72639 13.7373 8.04537 14.0273C8.36435 14.3173 8.7703 14.4623 9.29227 14.4623C9.64025 14.4623 9.90126 14.4043 10.1332 14.2593C10.3652 14.1143 10.5392 13.9693 10.6842 13.7663C10.8292 13.5633 10.9161 13.3314 10.9741 13.0994C11.0321 12.8384 11.0611 12.6064 11.0611 12.3454V8.43064C11.0611 7.93767 10.8872 7.56069 10.5682 7.27071C10.2492 7.00973 9.81427 6.86474 9.3213 6.86474C8.82833 6.86474 8.39329 7.00973 8.07431 7.27071C7.75532 7.56069 7.58138 7.93767 7.58138 8.43064V12.8384L7.55236 12.8674Z" fill="black"/>
<path d="M56.1163 80.0923C56.5223 79.8023 56.9862 79.6283 57.5952 79.6283C58.2042 79.6283 58.7261 79.7153 59.1321 79.9183C59.5381 80.1213 59.8571 80.3822 60.1181 80.7302C60.3501 81.0782 60.5241 81.4552 60.6401 81.9191C60.7561 82.3831 60.785 82.8471 60.785 83.3401L60.785 87.4578C60.785 88.0668 60.6691 88.6178 60.4661 89.1107C60.2341 89.5747 59.9441 89.9807 59.5961 90.2997C59.2191 90.6186 58.8131 90.8506 58.3202 91.0246C57.8562 91.1986 57.3342 91.2566 56.8123 91.2566C55.5364 91.2566 54.5794 90.9376 53.8834 90.2997C53.1875 89.6617 52.8395 88.7048 52.8395 87.4578L52.8395 84.181C52.8395 83.3401 52.8975 82.6151 53.0135 82.0641C53.1295 81.5132 53.2745 80.9912 53.4485 80.5562L57.1023 71.3638L59.3641 71.3638L56.0873 79.9763L56.1743 80.0633L56.1163 80.0923ZM58.5522 83.2241C58.5522 82.7311 58.3782 82.3541 58.0592 82.0641C57.7402 81.7742 57.3343 81.6292 56.8123 81.6292C56.4643 81.6292 56.2033 81.6872 55.9713 81.8322C55.7393 81.9771 55.5653 82.1221 55.4203 82.3251C55.2753 82.5281 55.1884 82.7601 55.1304 82.9921C55.0724 83.2531 55.0434 83.4851 55.0434 83.746L55.0434 87.6608C55.0434 88.1538 55.2174 88.5308 55.5363 88.8207C55.8553 89.0817 56.2903 89.2267 56.7833 89.2267C57.2762 89.2267 57.7113 89.0817 58.0302 88.8207C58.3492 88.5308 58.5232 88.1538 58.5232 87.6608L58.5232 83.2531L58.5522 83.2241Z" fill="black"/>
<path d="M48.1136 74.0827C47.58 74.7497 46.2852 75.2362 45.4927 76.3976C44.7001 77.5511 44.1351 78.9009 44.1351 78.9009C44.1351 78.9009 43.5701 77.559 42.7775 76.3976C41.9849 75.2441 40.6902 74.7575 40.1565 74.0827C39.8191 73.6589 39.4895 73.0547 39.4895 72.474C39.4895 71.4068 40.3527 70.5436 41.4121 70.5436C42.2596 70.5436 43.4916 71.3832 43.9467 72.27C43.7819 71.1007 43.2797 68.6916 41.7652 67.5459C42.393 67.8363 43.2326 68.0089 44.1508 68.0089C45.0689 68.0089 45.8379 67.8441 46.4579 67.5852C44.9747 68.7387 44.4804 71.1243 44.3156 72.2778C44.7707 71.3911 46.0027 70.5514 46.8581 70.5514C47.9253 70.5514 48.7807 71.4146 48.7807 72.4818C48.7807 73.0625 48.4432 73.6668 48.1136 74.0905V74.0827Z" fill="black"/>
<path d="M48.1058 23.3641C47.58 22.6971 46.2852 22.2106 45.4927 21.0492C44.7001 19.8956 44.1351 18.5459 44.1351 18.5459C44.1351 18.5459 43.5701 19.8878 42.7775 21.0492C41.9849 22.2027 40.6902 22.6892 40.1565 23.3641C39.8191 23.7879 39.4895 24.3921 39.4895 24.9728C39.4895 26.04 40.3527 26.8954 41.4199 26.8954C42.2674 26.8954 43.4994 26.0557 43.9546 25.1768C43.7898 26.3461 43.2876 28.7552 41.7731 29.9009C42.4009 29.6105 43.2405 29.4379 44.1586 29.4379C45.0767 29.4379 45.8458 29.5948 46.4657 29.8616C44.9826 28.7081 44.4882 26.3225 44.3234 25.169C44.7786 26.0479 46.0106 26.8954 46.8659 26.8954C47.9253 26.8954 48.7964 26.0322 48.7964 24.9728C48.7964 24.3921 48.4589 23.7879 48.1293 23.3641H48.1058Z" fill="black"/>
<path d="M48.1058 39.7191C47.58 39.0521 46.2852 38.5655 45.4927 37.4042C44.7001 36.2506 44.1351 34.9009 44.1351 34.9009C44.1351 34.9009 43.5701 36.2428 42.7775 37.4042C41.9849 38.5577 40.6902 39.0442 40.1565 39.7191C39.8191 40.1428 39.4895 40.7471 39.4895 41.3278C39.4895 42.395 40.3527 43.2503 41.4199 43.2503C42.2674 43.2503 43.4994 42.4107 43.9546 41.5318C43.7898 42.701 43.2876 45.1101 41.7731 46.2558C42.4009 45.9733 43.2405 45.7929 44.1586 45.7929C45.0767 45.7929 45.8458 45.9576 46.4657 46.2166C44.9826 45.063 44.4882 42.6775 44.3234 41.524C44.7786 42.4028 46.0106 43.2503 46.8659 43.2503C47.9253 43.2503 48.7964 42.3871 48.7964 41.3278C48.7964 40.7471 48.4589 40.1428 48.1293 39.7191H48.1058Z" fill="black"/>
<path d="M40.1801 57.7926C40.7058 58.4596 42.0007 58.9461 42.7932 60.1075C43.5858 61.2611 44.1508 62.6108 44.1508 62.6108C44.1508 62.6108 44.7158 61.2689 45.5084 60.1075C46.301 58.954 47.5957 58.4674 48.1293 57.7926C48.4668 57.3688 48.7964 56.7646 48.7964 56.1839C48.7964 55.1167 47.9332 54.2613 46.8659 54.2613C46.0184 54.2613 44.7864 55.101 44.3313 55.9799C44.4961 54.8106 44.9983 52.4015 46.5128 51.2558C45.885 51.5383 45.0454 51.7188 44.1273 51.7188C43.2091 51.7188 42.4401 51.554 41.8202 51.2951C43.3033 52.4486 43.7977 54.8342 43.9625 55.9877C43.5073 55.1088 42.2753 54.2613 41.42 54.2613C40.3606 54.2613 39.4895 55.1245 39.4895 56.1839C39.4895 56.7646 39.827 57.3688 40.1566 57.7926L40.1801 57.7926Z" fill="black"/>
</g>
<defs>
<clipPath id="clip0_3556_1698">
<rect width="65.4895" height="95" fill="white" transform="translate(0.489563 0.545914)"/>
</clipPath>
</defs>
</svg>
