<svg width="66" height="96" viewBox="0 0 66 96" fill="none" xmlns="http://www.w3.org/2000/svg">
<g clip-path="url(#clip0_3556_1886)">
<rect width="65.4895" height="95" transform="translate(0.489624 0.545914)" fill="white"/>
<path d="M4.9895 0.545914L61.4793 0.545914C63.9602 0.545914 65.9792 2.56484 65.9792 5.04581V91.046C65.9792 93.527 63.9602 95.5459 61.4793 95.5459H4.9895C2.50853 95.5459 0.489624 93.527 0.489624 91.046L0.489624 5.04581C0.489624 2.56484 2.50853 0.545914 4.9895 0.545914Z" fill="white"/>
<path d="M13.865 32.21C13.3468 31.558 12.1097 31.09 11.324 29.9699C10.555 28.8498 10.0033 27.5459 10.0033 27.5459C10.0033 27.5459 9.4517 28.8498 8.6827 29.9699C7.9137 31.09 6.65986 31.558 6.14163 32.21C5.824 32.6112 5.48962 33.1964 5.48962 33.7648C5.48962 34.8012 6.32548 35.6371 7.36196 35.6371C8.18111 35.6371 9.38481 34.818 9.81947 33.9654C9.66901 35.1022 9.16747 37.4259 7.71306 38.5459C8.3316 38.2617 9.13405 38.0946 10.0201 38.0946C10.9061 38.0946 11.6583 38.245 12.2601 38.4958C10.8224 37.3757 10.3377 35.0687 10.1872 33.9486C10.6218 34.8012 11.8256 35.6204 12.6447 35.6204C13.6812 35.6204 14.517 34.7845 14.517 33.748C14.517 33.1796 14.1994 32.5946 13.865 32.1933V32.21Z" fill="black"/>
<path d="M53.1417 63.8818C53.6599 64.5338 54.897 65.0019 55.6827 66.1219C56.4517 67.242 57.0034 68.5459 57.0034 68.5459C57.0034 68.5459 57.555 67.242 58.324 66.1219C59.093 65.0019 60.3469 64.5338 60.8651 63.8818C61.1827 63.4806 61.5171 62.8954 61.5171 62.3271C61.5171 61.2906 60.6812 60.4547 59.6448 60.4547C58.8256 60.4547 57.6219 61.2739 57.1872 62.1265C57.3377 60.9897 57.8392 58.666 59.2937 57.5459C58.6751 57.8301 57.8727 57.9973 56.9866 57.9973C56.1006 57.9973 55.3484 57.8468 54.7466 57.5961C56.1843 58.7161 56.6691 61.0231 56.8195 62.1432C56.3849 61.2906 55.1812 60.4715 54.362 60.4715C53.3255 60.4715 52.4897 61.3073 52.4897 62.3438C52.4897 62.9122 52.8073 63.4973 53.1417 63.8985L53.1417 63.8818Z" fill="black"/>
<path d="M37.1137 23.3641C36.5801 22.6971 35.2854 22.2106 34.4928 21.0492C33.7002 19.8956 33.1352 18.5459 33.1352 18.5459C33.1352 18.5459 32.5702 19.8878 31.7776 21.0492C30.985 22.2027 29.6903 22.6892 29.1567 23.3641C28.8192 23.7879 28.4896 24.3921 28.4896 24.9728C28.4896 26.04 29.3528 26.8954 30.4122 26.8954C31.2597 26.8954 32.4917 26.0557 32.9469 25.1768C32.7821 26.3461 32.2799 28.7552 30.7653 29.9009C31.3931 29.6105 32.2328 29.4379 33.1509 29.4379C34.069 29.4379 34.838 29.5948 35.458 29.8616C33.9748 28.7081 33.4805 26.3225 33.3157 25.169C33.7708 26.0479 35.0028 26.8954 35.8582 26.8954C36.9254 26.8954 37.7808 26.0322 37.7808 24.9728C37.7808 24.3921 37.4433 23.7879 37.1137 23.3641Z" fill="black"/>
<path d="M37.1137 73.7277C36.5801 74.3948 35.2854 74.8813 34.4928 76.0427C33.7002 77.1962 33.1352 78.5459 33.1352 78.5459C33.1352 78.5459 32.5702 77.2041 31.7776 76.0427C30.985 74.8891 29.6903 74.4026 29.1567 73.7277C28.8192 73.304 28.4896 72.6997 28.4896 72.119C28.4896 71.0518 29.3528 70.1886 30.4122 70.1886C31.2597 70.1886 32.4917 71.0283 32.9469 71.915C32.7821 70.7458 32.2799 68.3367 30.7653 67.191C31.3931 67.4813 32.2328 67.654 33.1509 67.654C34.069 67.654 34.838 67.4892 35.458 67.2302C33.9748 68.3838 33.4805 70.7693 33.3157 71.9229C33.7708 71.0361 35.0028 70.1965 35.8582 70.1965C36.9254 70.1965 37.7808 71.0597 37.7808 72.1269C37.7808 72.7076 37.4433 73.3118 37.1137 73.7356V73.7277Z" fill="black"/>
<path d="M9.84077 6.70963C9.19749 6.70963 8.72965 7.00202 8.46649 7.52834C8.20334 8.05466 8.05714 8.84412 8.05714 9.89675V10.0722L5.80566 9.66288V9.54589C5.80566 8.78566 5.89339 8.11311 6.03959 7.49907C6.18579 6.88504 6.4197 6.35869 6.77058 5.9201C7.09222 5.4815 7.53082 5.1307 8.05714 4.89678C8.58346 4.66286 9.19749 4.54591 9.92848 4.54591C10.6595 4.54591 11.3028 4.66283 11.7998 4.86751C12.3261 5.07219 12.7355 5.36455 13.0572 5.74467C13.3788 6.12478 13.6127 6.59262 13.7589 7.11894C13.9051 7.6745 13.9636 8.25937 13.9636 8.93188C13.9636 10.5108 13.6127 12.0313 12.8817 13.4933L8.43727 22.4698H13.8174V24.5459H5.86416V22.5868L11.0103 12.2944C11.2735 11.7681 11.449 11.2418 11.5075 10.657C11.5659 10.1015 11.5952 9.51662 11.5952 8.96106C11.5952 8.6979 11.5952 8.43475 11.5367 8.14235C11.5074 7.84995 11.4197 7.61603 11.3028 7.41136C11.1858 7.20668 11.0104 7.00202 10.7765 6.88506C10.5425 6.73886 10.2209 6.68036 9.81154 6.68036L9.84077 6.70963Z" fill="black"/>
<path d="M56.6124 89.3822C57.2556 89.3822 57.7235 89.0898 57.9866 88.5635C58.2498 88.0372 58.396 87.2477 58.396 86.1951L58.396 86.0196L60.6475 86.429L60.6475 86.5459C60.6475 87.3062 60.5597 87.9787 60.4135 88.5928C60.2673 89.2068 60.0334 89.7331 59.6825 90.1717C59.3609 90.6103 58.9223 90.9611 58.396 91.1951C57.8697 91.429 57.2556 91.5459 56.5246 91.5459C55.7936 91.5459 55.1504 91.429 54.6533 91.2243C54.127 91.0196 53.7176 90.7273 53.396 90.3472C53.0743 89.967 52.8404 89.4992 52.6942 88.9729C52.548 88.4173 52.4895 87.8325 52.4895 87.1599C52.4895 85.581 52.8404 84.0605 53.5714 82.5985L58.0159 73.622L52.6357 73.622L52.6357 71.5459L60.589 71.5459L60.589 73.505L55.4428 83.7974C55.1796 84.3237 55.0041 84.85 54.9457 85.4348C54.8872 85.9904 54.858 86.5752 54.858 87.1308C54.858 87.3939 54.858 87.6571 54.9164 87.9495C54.9457 88.2419 55.0334 88.4758 55.1504 88.6805C55.2673 88.8852 55.4427 89.0898 55.6767 89.2068C55.9106 89.353 56.2322 89.4115 56.6416 89.4115L56.6124 89.3822Z" fill="black"/>
</g>
<defs>
<clipPath id="clip0_3556_1886">
<rect width="65.4895" height="95" fill="white" transform="translate(0.489624 0.545914)"/>
</clipPath>
</defs>
</svg>
