<svg width="66" height="96" viewBox="0 0 66 96" fill="none" xmlns="http://www.w3.org/2000/svg">
<g clip-path="url(#clip0_3556_1799)">
<rect width="65.4895" height="95" transform="translate(0.489624 0.545914)" fill="white"/>
<path d="M4.9895 0.545914L61.4793 0.545914C63.9602 0.545914 65.9792 2.56484 65.9792 5.04581V91.046C65.9792 93.527 63.9602 95.5459 61.4793 95.5459H4.9895C2.50853 95.5459 0.489624 93.527 0.489624 91.046L0.489624 5.04581C0.489624 2.56484 2.50853 0.545914 4.9895 0.545914Z" fill="white"/>
<path d="M13.865 32.21C13.3468 31.558 12.1097 31.09 11.324 29.9699C10.555 28.8498 10.0033 27.5459 10.0033 27.5459C10.0033 27.5459 9.4517 28.8498 8.6827 29.9699C7.9137 31.09 6.65986 31.558 6.14163 32.21C5.824 32.6112 5.48962 33.1964 5.48962 33.7648C5.48962 34.8012 6.32548 35.6371 7.36196 35.6371C8.18111 35.6371 9.38481 34.818 9.81947 33.9654C9.66901 35.1022 9.16747 37.4259 7.71306 38.5459C8.3316 38.2617 9.13405 38.0946 10.0201 38.0946C10.9061 38.0946 11.6583 38.245 12.2601 38.4958C10.8224 37.3757 10.3377 35.0687 10.1872 33.9486C10.6218 34.8012 11.8256 35.6204 12.6447 35.6204C13.6812 35.6204 14.517 34.7845 14.517 33.748C14.517 33.1796 14.1994 32.5946 13.865 32.1933V32.21Z" fill="black"/>
<path d="M53.1417 63.8818C53.6599 64.5338 54.897 65.0019 55.6827 66.1219C56.4517 67.242 57.0034 68.5459 57.0034 68.5459C57.0034 68.5459 57.555 67.242 58.324 66.1219C59.093 65.0019 60.3469 64.5338 60.8651 63.8818C61.1827 63.4806 61.5171 62.8954 61.5171 62.3271C61.5171 61.2906 60.6812 60.4547 59.6448 60.4547C58.8256 60.4547 57.6219 61.2739 57.1872 62.1265C57.3377 60.9897 57.8392 58.666 59.2937 57.5459C58.6751 57.8301 57.8727 57.9973 56.9866 57.9973C56.1006 57.9973 55.3484 57.8468 54.7466 57.5961C56.1843 58.7161 56.6691 61.0231 56.8195 62.1432C56.3849 61.2906 55.1812 60.4715 54.362 60.4715C53.3255 60.4715 52.4897 61.3073 52.4897 62.3438C52.4897 62.9122 52.8073 63.4973 53.1417 63.8985L53.1417 63.8818Z" fill="black"/>
<path d="M27.8473 23.3641C27.3215 22.6971 26.0267 22.2106 25.2341 21.0492C24.4415 19.8956 23.8766 18.5459 23.8766 18.5459C23.8766 18.5459 23.3115 19.8878 22.519 21.0492C21.7264 22.2027 20.4316 22.6892 19.898 23.3641C19.5606 23.7879 19.231 24.3921 19.231 24.9728C19.231 26.04 20.0942 26.8954 21.1614 26.8954C22.0089 26.8954 23.2409 26.0557 23.696 25.1768C23.5312 26.3461 23.029 28.7552 21.5145 29.9009C22.1423 29.6105 22.9819 29.4379 23.9001 29.4379C24.8182 29.4379 25.5872 29.5948 26.2072 29.8616C24.724 28.7081 24.2297 26.3225 24.0649 25.169C24.52 26.0479 25.752 26.8954 26.6074 26.8954C27.6668 26.8954 28.5378 26.0322 28.5378 24.9728C28.5378 24.3921 28.2004 23.7879 27.8708 23.3641H27.8473Z" fill="black"/>
<path d="M47.8812 23.3641C47.3476 22.6971 46.0528 22.2106 45.2602 21.0492C44.4677 19.8956 43.9026 18.5459 43.9026 18.5459C43.9026 18.5459 43.3376 19.8878 42.5451 21.0492C41.7525 22.2027 40.4577 22.6892 39.9241 23.3641C39.5867 23.7879 39.2571 24.3921 39.2571 24.9728C39.2571 26.04 40.1203 26.8954 41.1797 26.8954C42.0272 26.8954 43.2592 26.0557 43.7143 25.1768C43.5495 26.3461 43.0473 28.7552 41.5328 29.9009C42.1606 29.6105 43.0002 29.4379 43.9183 29.4379C44.8365 29.4379 45.6055 29.5948 46.2254 29.8616C44.7423 28.7081 44.2479 26.3225 44.0832 25.169C44.5383 26.0479 45.7703 26.8954 46.6257 26.8954C47.6929 26.8954 48.5482 26.0322 48.5482 24.9728C48.5482 24.3921 48.2108 23.7879 47.8812 23.3641Z" fill="black"/>
<path d="M27.8473 73.7277C27.3215 74.3948 26.0267 74.8813 25.2341 76.0427C24.4415 77.1962 23.8766 78.5459 23.8766 78.5459C23.8766 78.5459 23.3115 77.2041 22.519 76.0427C21.7264 74.8891 20.4316 74.4026 19.898 73.7277C19.5606 73.304 19.231 72.6997 19.231 72.119C19.231 71.0518 20.0942 70.1886 21.1614 70.1886C22.0089 70.1886 23.2409 71.0283 23.696 71.915C23.5312 70.7458 23.029 68.3367 21.5145 67.191C22.1423 67.4813 22.9819 67.654 23.9001 67.654C24.8182 67.654 25.5872 67.4892 26.2072 67.2302C24.724 68.3838 24.2297 70.7693 24.0649 71.9229C24.52 71.0361 25.752 70.1965 26.6074 70.1965C27.6668 70.1965 28.5378 71.0597 28.5378 72.1269C28.5378 72.7076 28.2004 73.3118 27.8708 73.7356L27.8473 73.7277Z" fill="black"/>
<path d="M47.8812 73.7277C47.3476 74.3948 46.0528 74.8813 45.2602 76.0427C44.4677 77.1962 43.9026 78.5459 43.9026 78.5459C43.9026 78.5459 43.3376 77.2041 42.5451 76.0427C41.7525 74.8891 40.4577 74.4026 39.9241 73.7277C39.5867 73.304 39.2571 72.6997 39.2571 72.119C39.2571 71.0518 40.1203 70.1886 41.1797 70.1886C42.0272 70.1886 43.2592 71.0283 43.7143 71.915C43.5495 70.7458 43.0473 68.3367 41.5328 67.191C42.1606 67.4813 43.0002 67.654 43.9183 67.654C44.8365 67.654 45.6055 67.4892 46.2254 67.2302C44.7423 68.3838 44.2479 70.7693 44.0832 71.9229C44.5383 71.0361 45.7703 70.1965 46.6257 70.1965C47.6929 70.1965 48.5482 71.0597 48.5482 72.1269C48.5482 72.7076 48.2108 73.3118 47.8812 73.7356V73.7277Z" fill="black"/>
<path d="M37.1059 47.8397C36.5802 47.1726 35.2854 46.6861 34.4928 45.5247C33.7002 44.3712 33.1352 43.0215 33.1352 43.0215C33.1352 43.0215 32.5702 44.3633 31.7776 45.5247C30.985 46.6783 29.6903 47.1648 29.1567 47.8397C28.8192 48.2634 28.4896 48.8677 28.4896 49.4484C28.4896 50.5156 29.3528 51.3709 30.4201 51.3709C31.2676 51.3709 32.4996 50.5313 32.9547 49.6524C32.7899 50.8216 32.2877 53.2307 30.7732 54.3764C31.401 54.0939 32.2406 53.9134 33.1587 53.9134C34.0769 53.9134 34.8459 54.0782 35.4658 54.3372C33.9827 53.1836 33.4883 50.7981 33.3236 49.6445C33.7787 50.5234 35.0107 51.3709 35.866 51.3709C36.9254 51.3709 37.7965 50.5077 37.7965 49.4484C37.7965 48.8677 37.459 48.2634 37.1294 47.8397H37.1059Z" fill="black"/>
<path d="M9.57126 24.5459C8.78408 24.5459 8.14268 24.4293 7.64706 24.1961C7.15143 23.9628 6.71411 23.6421 6.42257 23.234C6.10187 22.8258 5.86863 22.3593 5.72286 21.7762C5.57709 21.2223 5.48962 20.6101 5.48962 19.9687L7.73452 19.648C7.73452 20.0561 7.73452 20.4351 7.79283 20.785C7.82199 21.1348 7.90945 21.4264 8.05522 21.6596C8.20099 21.8929 8.37592 22.0969 8.63831 22.2427C8.87155 22.3885 9.2214 22.4468 9.65872 22.4468C10.1543 22.4468 10.5625 22.301 10.8832 21.9803C11.2039 21.6596 11.3788 21.1348 11.408 20.3477V15.2456C11.408 14.1377 10.8541 13.5547 9.74618 13.5547C9.30886 13.5547 8.92986 13.6421 8.63831 13.8462C8.34677 14.0503 8.11353 14.3127 7.96776 14.6625H6.0144V4.54591H13.682V6.55758H7.99691V12.5343H8.14268C8.43423 12.2427 8.78408 12.0386 9.19225 11.8929C9.60041 11.7471 10.0377 11.6888 10.475 11.6888C11.5829 11.6888 12.3992 12.0095 12.8657 12.6217C13.3613 13.234 13.5946 14.0211 13.5946 14.9249V20.2602C13.5946 21.0182 13.478 21.6596 13.2739 22.2136C13.0698 22.7675 12.7783 23.2048 12.3992 23.5255C12.0202 23.8754 11.6121 24.1086 11.1164 24.2835C10.6208 24.4584 10.1252 24.5168 9.57126 24.5168V24.5459Z" fill="black"/>
<path d="M56.6004 71.5459C57.3875 71.5459 58.0289 71.6625 58.5246 71.8958C59.0202 72.129 59.4575 72.4497 59.7491 72.8579C60.0698 73.266 60.303 73.7325 60.4488 74.3156C60.5945 74.8695 60.682 75.4818 60.682 76.1232L58.4371 76.4439C58.4371 76.0357 58.4371 75.6567 58.3788 75.3068C58.3496 74.957 58.2622 74.6654 58.1164 74.4322C57.9706 74.199 57.7957 73.9949 57.5333 73.8491C57.3001 73.7033 56.9502 73.645 56.5129 73.645C56.0173 73.645 55.6091 73.7908 55.2884 74.1115C54.9677 74.4322 54.7928 74.957 54.7636 75.7442L54.7636 80.8462C54.7636 81.9541 55.3176 82.5372 56.4254 82.5372C56.8628 82.5372 57.2418 82.4497 57.5333 82.2456C57.8249 82.0415 58.0581 81.7792 58.2039 81.4293L60.1572 81.4293L60.1572 91.5459L52.4896 91.5459L52.4896 89.5343L58.1747 89.5343L58.1747 83.5576L58.0289 83.5576C57.7374 83.8491 57.3875 84.0532 56.9794 84.199C56.5712 84.3447 56.1339 84.4031 55.6966 84.4031C54.5887 84.4031 53.7724 84.0824 53.3059 83.4701C52.8103 82.8579 52.5771 82.0707 52.5771 81.1669L52.5771 75.8316C52.5771 75.0736 52.6937 74.4322 52.8978 73.8783C53.1018 73.3243 53.3934 72.887 53.7724 72.5663C54.1514 72.2165 54.5596 71.9832 55.0552 71.8083C55.5508 71.6334 56.0464 71.5751 56.6004 71.5751L56.6004 71.5459Z" fill="black"/>
</g>
<defs>
<clipPath id="clip0_3556_1799">
<rect width="65.4895" height="95" fill="white" transform="translate(0.489624 0.545914)"/>
</clipPath>
</defs>
</svg>
