<svg width="66" height="96" viewBox="0 0 66 96" fill="none" xmlns="http://www.w3.org/2000/svg">
<g clip-path="url(#clip0_3556_1269)">
<rect width="65.4895" height="95" transform="translate(0.489563 0.545914)" fill="white"/>
<path d="M4.98944 0.545914L61.4792 0.545914C63.9602 0.545914 65.9791 2.56484 65.9791 5.04581V91.046C65.9791 93.527 63.9602 95.5459 61.4792 95.5459H4.98944C2.50847 95.5459 0.489563 93.527 0.489563 91.046L0.489563 5.04581C0.489563 2.56484 2.50847 0.545914 4.98944 0.545914Z" fill="white"/>
<path d="M13.865 32.21C13.3467 31.558 12.1096 31.09 11.3239 29.9699C10.5549 28.8498 10.0033 27.5459 10.0033 27.5459C10.0033 27.5459 9.45163 28.8498 8.68264 29.9699C7.91364 31.09 6.6598 31.558 6.14156 32.21C5.82393 32.6112 5.48956 33.1964 5.48956 33.7648C5.48956 34.8012 6.32542 35.6371 7.3619 35.6371C8.18105 35.6371 9.38475 34.818 9.8194 33.9654C9.66895 35.1022 9.16741 37.4259 7.713 38.5459C8.33154 38.2617 9.13398 38.0946 10.02 38.0946C10.906 38.0946 11.6582 38.245 12.2601 38.4958C10.8224 37.3757 10.3376 35.0687 10.1871 33.9486C10.6218 34.8012 11.8255 35.6204 12.6446 35.6204C13.6811 35.6204 14.517 34.7845 14.517 33.748C14.517 33.1796 14.1993 32.5946 13.865 32.1933V32.21Z" fill="black"/>
<path d="M53.1416 63.8818C53.6598 64.5338 54.8969 65.0019 55.6826 66.1219C56.4516 67.242 57.0033 68.5459 57.0033 68.5459C57.0033 68.5459 57.5549 67.242 58.3239 66.1219C59.0929 65.0019 60.3467 64.5338 60.865 63.8818C61.1826 63.4806 61.517 62.8954 61.517 62.3271C61.517 61.2906 60.6811 60.4547 59.6446 60.4547C58.8255 60.4547 57.6218 61.2739 57.1871 62.1265C57.3376 60.9897 57.8391 58.666 59.2935 57.5459C58.675 57.8301 57.8725 57.9973 56.9865 57.9973C56.1005 57.9973 55.3483 57.8468 54.7465 57.5961C56.1842 58.7161 56.6689 61.0231 56.8194 62.1432C56.3847 61.2906 55.181 60.4715 54.3619 60.4715C53.3254 60.4715 52.4896 61.3073 52.4896 62.3438C52.4896 62.9122 52.8072 63.4973 53.1416 63.8985L53.1416 63.8818Z" fill="black"/>
<path d="M12.5411 24.5458L9.28043 15.9037L7.53079 19.3234V24.5458H5.48956V6.54579H7.53079V15.506H7.58382L11.9314 6.54579H13.9726L10.4734 13.6504L14.6088 24.5193H12.5411V24.5458Z" fill="black"/>
<path d="M54.5573 71.5458L57.818 80.1879L59.5676 76.7682L59.5676 71.5458L61.6088 71.5458L61.6088 89.5458L59.5676 89.5458L59.5676 80.5856L59.5146 80.5856L55.167 89.5458L53.1258 89.5458L56.625 82.4412L52.4895 71.5723L54.5573 71.5723L54.5573 71.5458Z" fill="black"/>
<path d="M62.3499 46.8938L61.9205 41.463C61.9205 41.463 60.4532 38.2869 59.3169 36.6765C58.1807 35.066 55.1566 32.4088 54.7808 32.3193C54.4051 32.2298 37.2896 28.7316 35.2497 28.6869C33.2188 28.6421 25.5602 31.9614 25.5602 31.9614C24.7908 32.364 21.5878 34.9586 20.4068 35.8444C19.2258 36.7301 17.5707 41.5078 16.8102 42.1699C16.1302 42.7604 13.8756 45.2029 13.1956 46.8938H62.341H62.3499Z" fill="#BC4288"/>
<path d="M35.3034 33.2051C35.3034 33.2051 37.6564 46.9296 37.7817 46.9028C37.898 46.867 40.94 32.5788 40.94 32.5788L35.3034 33.2051Z" fill="#D33302"/>
<path d="M62.3499 46.8938L61.9205 41.463C61.9205 41.463 60.4532 38.2869 59.3169 36.6765C58.1806 35.066 55.1566 32.4088 54.7808 32.3193C54.6377 32.2835 52.1146 31.7646 48.9206 31.1294C48.7596 33.4466 48.6969 35.6297 49.1264 38.26C49.6721 41.6062 50.0569 42.8677 50.4863 45.9902C50.531 46.3212 50.54 46.6164 50.531 46.8849H62.3588L62.3499 46.8938Z" fill="#9E1F63"/>
<path d="M26.956 28.8837C26.956 28.8837 26.1507 28.1679 25.4439 28.8837C24.7282 29.5994 24.6387 29.0626 23.8424 30.3062C23.0372 31.5499 24.0214 30.3957 22.241 31.6393C20.4605 32.883 21.9725 31.3709 20.4605 32.8829C18.9485 34.395 19.4853 33.5092 17.8749 34.8423C16.2734 36.1754 15.9155 37.0701 15.7366 37.8664C15.5576 38.6716 14.7613 38.8416 14.5824 40.0942C14.4035 41.3378 15.1192 42.0535 14.5824 42.6798C14.0456 43.3061 13.2493 43.1272 13.3388 44.3708C13.4283 45.6144 13.2583 45.4623 14.4124 46.8849H34.1403C34.1403 46.8849 31.5905 38.1348 29.6311 36.8017C27.6717 35.4686 26.3386 32.883 26.607 31.7288C26.8754 30.5747 26.9649 28.8837 26.9649 28.8837H26.956Z" fill="#E8D1B2"/>
<path d="M17.4365 35.9339C16.9444 36.9806 17.4365 37.8843 17.4365 37.8843L18.0628 35.9339H17.4365Z" fill="#4A3323"/>
<path d="M15.6739 39.3516C15.1818 40.3984 15.6739 41.302 15.6739 41.302L16.3002 39.3516H15.6739Z" fill="#4A3323"/>
<path d="M17.4365 41.2573C16.9444 42.3041 17.4365 43.2077 17.4365 43.2077L18.0628 41.2573H17.4365Z" fill="#4A3323"/>
<path d="M15.5129 43.4135C15.0208 44.4603 15.5129 45.3639 15.5129 45.3639L16.1392 43.4135H15.5129Z" fill="#4A3323"/>
<path d="M24.4508 31.6214C23.9587 32.6682 24.4508 33.5719 24.4508 33.5719L25.0771 31.6214H24.4508Z" fill="#4A3323"/>
<path d="M29.3717 44.1829C28.8796 45.2297 29.3717 46.1333 29.3717 46.1333L29.9979 44.1829H29.3717Z" fill="#4A3323"/>
<path d="M23.7977 37.1149C23.3056 38.1616 23.7977 39.0653 23.7977 39.0653L24.424 37.1149H23.7977Z" fill="#4A3323"/>
<path d="M21.212 39.4768C20.72 40.5236 21.212 41.4273 21.212 41.4273L21.8383 39.4768H21.212Z" fill="#4A3323"/>
<path d="M23.583 43.2077C23.0909 44.2545 23.583 45.1581 23.583 45.1581L24.2092 43.2077H23.583Z" fill="#4A3323"/>
<path d="M19.1275 44.7376C18.6354 45.7844 19.1275 46.688 19.1275 46.688L19.7537 44.7376H19.1275Z" fill="#4A3323"/>
<path d="M28.1996 38.0722C27.7075 39.119 28.1996 40.0226 28.1996 40.0226L28.8259 38.0722H28.1996Z" fill="#4A3323"/>
<path d="M25.6139 40.4252C25.1218 41.472 25.6139 42.3756 25.6139 42.3756L26.2402 40.4252H25.6139Z" fill="#4A3323"/>
<path d="M33.1383 16.0091C33.1383 16.0091 32.0378 17.208 32.0378 18.7827C32.0378 20.3573 31.8141 22.1198 31.4026 22.594C30.991 23.0682 29.479 26.1549 28.629 26.6559C27.7791 27.1569 26.2313 25.797 23.574 27.7474C21.8562 29.009 23.4041 29.0626 21.6415 29.6263C19.879 30.19 19.1453 32.9903 19.1453 33.9656C19.1453 34.9408 21.2836 35.406 22.8315 34.6008C24.3793 33.8045 24.5045 32.8203 26.1686 32.4177C27.8417 32.0062 27.5912 30.8699 29.318 30.8431C31.0537 30.8162 33.4156 30.9057 33.5141 29.7695C33.6125 28.6421 35.375 24.9739 35.5092 24.8397C35.6434 24.7055 33.1383 15.9912 33.1383 15.9912V16.0091Z" fill="#45200D"/>
<path d="M25.7034 35.1644C24.7371 34.4039 24.415 32.8561 24.3077 32.0956C24.6119 32.6772 25.4171 33.2229 25.9718 33.2229C26.6697 33.2229 27.2333 32.6593 27.2333 31.9614C27.2333 31.5767 27.0186 31.183 26.7949 30.9057C26.446 30.4673 25.596 30.1452 25.0771 29.3937C24.5582 28.6332 24.1824 27.7564 24.1824 27.7564C24.1824 27.7564 23.8067 28.6332 23.2877 29.3937C22.7688 30.1542 21.9189 30.4673 21.5699 30.9057C21.3463 31.183 21.1315 31.5767 21.1315 31.9614C21.1315 32.6593 21.6952 33.2229 22.393 33.2229C22.9477 33.2229 23.753 32.6682 24.0572 32.0956C23.9498 32.8561 23.6188 34.395 22.6614 35.1644C20.4247 35.8176 18.7964 37.8843 18.7964 40.3268C18.7964 43.2972 21.2031 45.7128 24.1824 45.7128C27.1617 45.7128 29.5685 43.2972 29.5685 40.3268C29.5685 37.8753 27.9312 35.8176 25.6944 35.1644H25.7034Z" fill="url(#paint0_radial_3556_1269)"/>
<path d="M21.8204 46.8938H28.4769C28.4233 46.357 28.2443 45.9365 28.0027 45.5786C27.7075 45.1492 27.5107 44.3887 27.4749 43.5298C27.4391 42.6709 27.3138 41.4183 26.7502 41.3199C26.5623 41.2841 26.2581 41.9462 26.1686 42.9393C26.0881 43.9324 26.3834 45.7397 26.1686 45.7934C25.9539 45.8381 25.9181 45.5428 25.6587 44.8897C25.3903 44.2276 24.5671 41.6599 24.5403 40.9978C24.5045 40.3357 23.6456 40.7383 23.6456 40.7383C23.6456 40.7383 23.3861 40.4789 22.6883 40.3089C21.9994 40.1479 22.393 41.7583 22.2588 42.653C22.1246 43.5477 22.6883 45.5607 22.6883 45.5607C22.6883 45.5607 22.223 45.0955 21.6952 44.4066C21.1673 43.7177 21.2299 42.0625 21.1136 41.2036C20.9973 40.3447 20.6752 39.9779 20.1742 39.9779C19.6732 39.9779 19.9774 42.8856 20.1742 44.2008C20.3084 45.0865 21.221 46.2407 21.8204 46.9028V46.8938Z" fill="#F1A882"/>
<path d="M46.845 29.9752C46.2813 28.6511 45.2166 27.1927 45.6371 25.9849C46.0576 24.7771 46.675 23.9182 46.2008 23.4171C45.7803 22.9787 45.0914 21.592 43.1946 21.1267C43.1141 21.3862 43.0336 21.6278 42.962 21.9051C42.7741 22.6835 42.622 23.2471 42.2463 23.6229C41.8705 23.9987 40.9221 24.8666 40.4121 24.795C39.9022 24.7145 39.3564 24.1687 38.8285 23.5871C38.3007 23.0056 37.9607 23.2293 36.9228 23.0772C35.885 22.9251 34.9993 23.435 34.6951 23.8734C34.3909 24.3118 33.7288 24.3297 33.7288 24.3297C33.7288 24.3297 32.1362 24.3029 32.0826 25.5107C32.0289 26.7185 32.6283 29.4563 32.0826 30.02C31.5458 30.5836 30.8747 31.6751 31.1431 32.534C31.4115 33.3929 33.1383 33.1782 33.6572 33.3214C34.1761 33.4645 32.9683 33.6435 35.0887 34.2071C37.2091 34.7708 36.8602 33.9387 37.9517 33.9118C39.0343 33.885 39.5801 34.2787 40.0006 34.4039C40.4211 34.5292 41.5305 34.7976 41.951 34.4039C42.3715 34.0103 43.2036 33.3214 44.313 33.053C45.4224 32.7845 45.494 32.9277 46.1382 32.5072C46.7823 32.0867 47.4176 31.2904 46.8539 29.9663L46.845 29.9752Z" fill="#572B16"/>
<path d="M37.5133 24.3655C37.5133 24.3655 36.6902 24.0255 36.1086 24.3655C35.5271 24.7055 35.0976 25.3855 34.9545 25.4123C34.8113 25.4302 36.3323 25.8328 36.9407 25.797C37.558 25.7612 38.7122 25.5107 38.7122 25.5107C38.7122 25.5107 38.3095 24.6876 37.5133 24.3655Z" fill="#D78E69"/>
<path d="M42.9888 16.7875C41.9152 16.6354 40.7431 16.5101 39.6069 16.4743C36.7975 16.3759 33.9793 16.7249 32.9683 16.868C33.0756 17.5301 33.2725 18.8453 33.183 19.391C33.0577 20.1426 33.0667 22.8624 33.7287 24.3297C33.7287 24.3297 34.3908 24.3118 34.695 23.8734C34.9992 23.4351 35.885 22.9251 36.9228 23.0772C37.9606 23.2293 38.3006 23.0056 38.8285 23.5871C39.3564 24.1776 39.9111 24.7234 40.4121 24.795C40.9221 24.8666 41.8704 23.9987 42.2462 23.6229C42.622 23.2471 42.7741 22.6746 42.962 21.9051C43.1498 21.1267 43.454 20.6347 43.4719 19.4268C43.4898 18.219 43.454 17.8432 43.0156 17.1633C42.9351 17.0291 42.9351 16.9038 42.9799 16.7785L42.9888 16.7875Z" fill="#F1A882"/>
<path d="M33.0667 17.5211C33.1562 18.1832 33.2457 18.9884 33.183 19.391C33.0578 20.1426 33.0667 22.8624 33.7288 24.3297C33.7288 24.3297 34.3909 24.3118 34.695 23.8734C34.8293 23.6766 35.0887 23.4708 35.4198 23.3098C35.5003 22.7193 35.5987 22.0214 35.6971 21.4578C35.8671 20.4557 36.386 19.3463 35.6971 18.3353C35.1782 17.5748 33.7467 17.5032 33.0757 17.5122L33.0667 17.5211Z" fill="#D78E69"/>
<path d="M42.7204 14.8728C42.6309 14.8997 41.432 17.709 41.9957 18.9079C42.5593 20.1068 43.4182 21.6814 43.7403 23.1935C44.0535 24.7055 43.2572 27.2017 44.2056 28.6511C45.1539 30.1005 45.9681 30.3152 44.9929 31.2009C44.0177 32.0867 44.5813 34.3234 46.6033 34.1624C48.6164 34.0013 49.9763 32.0151 50.6384 32.2746C51.3005 32.5251 50.6384 31.9883 52.8125 33.5003C54.9866 35.0123 56.6597 35.0034 57.0354 34.6187C57.4112 34.225 56.9996 32.5251 55.8365 31.8988C54.6734 31.2636 54.4856 30.2257 53.8235 29.6263C53.1614 29.0269 51.9625 29.7605 51.3362 28.6511C50.701 27.5417 50.8352 26.0386 50.1732 24.8576C49.5111 23.6676 49.35 23.1308 48.3748 21.7441C47.3996 20.3573 47.4801 18.9079 47.0149 17.539C46.5497 16.1701 42.7383 14.8728 42.7383 14.8728H42.7204Z" fill="#45200D"/>
<path d="M32.5835 16.9217C32.5835 16.9217 31.9483 12.994 29.5327 11.2941C29.5327 11.2941 30.5526 10.6589 31.5904 10.7036C32.6283 10.7483 33.7198 11.0615 33.6214 11.3388C33.5319 11.6251 33.2904 13.3519 34.3819 13.1819C35.4734 13.0208 35.1155 12.4482 35.0887 12.0725C35.0618 11.6967 33.9972 11.0525 33.9972 11.0525C33.9972 11.0525 35.0171 8.4758 36.5023 8.54738C37.9964 8.61895 39.5532 9.8715 39.5532 10.292C39.5532 10.7125 38.6317 11.142 38.748 11.8309C38.8643 12.5198 39.1774 12.654 39.8395 12.7256C40.5016 12.7971 40.8058 12.2961 40.761 11.8488C40.7163 11.4014 40.2421 10.7125 40.2868 10.4262C40.3316 10.1399 41.942 8.55631 43.293 8.84261C44.644 9.12891 45.7534 10.6857 45.5118 11.1151C45.2792 11.5446 44.2145 12.0098 44.4024 12.7256C44.5903 13.4324 46.0576 13.6739 46.2455 13.0119C46.4334 12.3498 46.2455 11.4014 46.2455 11.4014C46.2455 11.4014 49.5827 10.7662 50.4774 11.7593C50.4774 11.7593 47.5249 15.3023 47.006 17.5301C47.006 17.5301 43.1051 16.5817 39.6069 16.4654C36.1086 16.3491 32.5835 16.9127 32.5835 16.9127V16.9217Z" fill="#F4AE00"/>
<path d="M50.7905 34.6187L55.1298 13.8797L54.2619 11.8667L52.6425 13.4861L48.3659 34.6187H50.7905Z" fill="#91A3BD"/>
<g style="mix-blend-mode:multiply" opacity="0.5">
<path d="M50.7905 34.6187L55.1298 13.8797L54.2619 11.8667L49.6453 34.6187H50.7905Z" fill="#91A3BD"/>
</g>
<path d="M48.3659 36.6228C48.3659 36.6228 47.9991 35.3076 46.7733 35.2807C45.5387 35.2628 44.4471 35.6207 44.4471 35.6207L43.9461 34.0639L45.136 32.874C45.136 32.874 45.2076 34.0192 46.2812 34.0192C47.3459 34.0192 49.2964 33.4645 49.2964 33.4645L50.8084 33.7419C50.8084 33.7419 51.6762 34.6634 52.4546 34.9318C53.233 35.2002 54.5124 34.8244 54.5124 34.8244L55.1476 36.2112L54.1635 37.1954C54.1635 37.1954 51.2826 36.0323 50.4952 36.3991C49.7079 36.7659 50.0747 40.3715 49.69 41.6062C49.3053 42.8409 48.3838 44.5318 48.3838 44.5318C48.3838 44.5318 49.4306 46.6165 47.0865 46.4644C44.7334 46.3123 46.6123 44.0308 46.6123 44.0308C46.6123 44.0308 46.2902 43.2166 46.8896 41.1588C47.4801 39.1011 48.3927 36.6228 48.3927 36.6228H48.3659Z" fill="#F4AE00"/>
<path d="M50.5937 35.8802C50.5937 35.8802 48.5449 35.7102 47.8559 36.1128C47.167 36.5154 46.7018 36.9359 46.7644 37.3654C46.8271 37.7948 46.5407 38.0543 47.0597 37.929C47.5875 37.7948 48.2764 37.1059 48.5091 37.1059C48.7417 37.1059 49.3322 37.0433 49.6632 37.5354C49.9943 38.0274 50.4058 38.3406 49.9942 38.3942C49.5827 38.439 47.9186 37.929 47.3907 38.0632C46.8628 38.1974 46.2723 38.2958 46.3886 38.6716C46.505 39.0474 46.505 39.3516 46.505 39.3516C46.505 39.3516 46.0755 40.3089 46.1739 40.3715C46.2723 40.4341 46.2455 40.7652 46.156 41.2662C46.0755 41.7583 46.2902 41.973 46.4513 42.143C46.6123 42.304 48.7148 42.7514 48.9117 43.2524C49.1085 43.7445 48.3659 44.2455 48.3659 44.2455C48.3659 44.2455 49.3143 45.5965 49.5111 46.026C49.699 46.4554 52.4099 46.7149 53.1704 46.187C53.9309 45.6591 53.7609 44.0398 53.5641 43.0198C53.3672 41.9999 53.3314 40.3447 53.3314 39.9868C53.3314 39.6289 51.041 36.3454 50.5937 35.8981V35.8802Z" fill="#F1A882"/>
<path d="M53.1704 46.1781C53.9309 45.6502 53.7609 44.0308 53.5641 43.0109C53.3672 41.9909 53.3314 40.3357 53.3314 39.9779C53.3314 39.8884 53.1972 39.6379 53.0004 39.2979C52.8394 39.9242 52.5799 40.6489 52.1504 41.293C51.1573 42.7782 50.1016 44.2813 49.3143 44.2008C49.0011 44.1739 48.6791 44.165 48.3838 44.2277L48.3659 44.2366C48.3659 44.2366 49.3143 45.5876 49.5111 46.017C49.699 46.4465 52.4099 46.7059 53.1704 46.1781Z" fill="#D78E69"/>
<path d="M41.0831 37.9559C40.4031 37.8306 39.75 37.938 39.1953 38.2153C38.3006 38.6537 37.2359 38.6537 36.3412 38.2153C35.7865 37.9469 35.1334 37.8396 34.4534 37.9559C33.2635 38.1706 32.2793 39.11 32.0288 40.3C31.6173 42.2772 33.1114 44.0129 35.0081 44.0129C35.5002 44.0129 35.9565 43.8966 36.3681 43.6908C37.2359 43.2524 38.2917 43.2524 39.1685 43.6908C39.58 43.8966 40.0363 44.0129 40.5284 44.0129C42.4251 44.0129 43.9193 42.2772 43.5077 40.3C43.2572 39.11 42.273 38.1706 41.0831 37.9559Z" fill="#EBE200"/>
<path d="M39.088 40.8726C38.909 40.6489 38.4885 40.4878 38.2201 40.1121C37.9606 39.7274 37.7728 39.2889 37.7728 39.2889C37.7728 39.2889 37.5849 39.7363 37.3254 40.1121C37.0659 40.4968 36.6365 40.6578 36.4576 40.8726C36.3502 41.0157 36.2339 41.2125 36.2339 41.4094C36.2339 41.7583 36.5202 42.0446 36.8691 42.0446C37.1465 42.0446 37.558 41.7672 37.7101 41.472C37.6564 41.8567 37.4865 42.653 36.9854 43.0377C37.1912 42.9393 37.4686 42.8856 37.7728 42.8856C38.077 42.8856 38.3275 42.9393 38.5332 43.0287C38.0412 42.644 37.8801 41.8567 37.8264 41.472C37.9785 41.7672 38.3811 42.0446 38.6674 42.0446C39.0164 42.0446 39.3027 41.7583 39.3027 41.4094C39.3027 41.2125 39.1953 41.0157 39.079 40.8726H39.088Z" fill="black"/>
<path d="M38.2649 13.3966C38.0949 13.1819 37.6833 13.0298 37.4328 12.6629C37.1823 12.2961 37.0033 11.8667 37.0033 11.8667C37.0033 11.8667 36.8244 12.2961 36.5739 12.6629C36.3234 13.0298 35.9118 13.1908 35.7418 13.3966C35.6345 13.5308 35.5271 13.7276 35.5271 13.9066C35.5271 14.2466 35.8045 14.5239 36.1444 14.5239C36.4128 14.5239 36.8065 14.2555 36.9497 13.9781C36.896 14.3539 36.7349 15.1144 36.2518 15.4812C36.4486 15.3918 36.717 15.3381 37.0123 15.3381C37.3075 15.3381 37.5491 15.3918 37.7459 15.4723C37.2717 15.1055 37.1107 14.345 37.066 13.9781C37.2091 14.2555 37.6028 14.5239 37.8712 14.5239C38.2112 14.5239 38.4885 14.2466 38.4885 13.9066C38.4885 13.7187 38.3812 13.5308 38.2738 13.3966H38.2649Z" fill="black"/>
<path d="M8.49854 47.198L8.92799 52.6288C8.92799 52.6288 10.3953 55.8049 11.5315 57.4154C12.6678 59.0258 15.6918 61.683 16.0676 61.7725C16.4434 61.862 33.5588 65.3602 35.5987 65.4049C37.6297 65.4497 45.2882 62.1304 45.2882 62.1304C46.0576 61.7278 49.2606 59.1332 50.4416 58.2474C51.6226 57.3617 53.2778 52.584 54.0383 51.9219C54.7183 51.3315 56.9729 48.8889 57.6528 47.198H8.50748H8.49854Z" fill="#BC4288"/>
<path d="M35.545 60.8868C35.545 60.8868 33.192 47.1622 33.0667 47.1891C32.9504 47.2249 29.9084 61.513 29.9084 61.513L35.545 60.8868Z" fill="#D33302"/>
<path d="M8.49851 47.198L8.92797 52.6288C8.92797 52.6288 10.3953 55.8049 11.5315 57.4154C12.6678 59.0258 15.6918 61.683 16.0676 61.7725C16.2107 61.8083 18.7338 62.3272 21.9278 62.9624C22.0889 60.6452 22.1515 58.4621 21.722 55.8317C21.1763 52.4856 20.7916 51.2241 20.3621 48.1016C20.3174 47.7706 20.3084 47.4753 20.3174 47.2069H8.48956L8.49851 47.198Z" fill="#9E1F63"/>
<path d="M43.8925 65.2081C43.8925 65.2081 44.6977 65.9239 45.4045 65.2081C46.1113 64.4924 46.2097 65.0292 47.006 63.7856C47.8112 62.5419 46.8271 63.6961 48.6075 62.4525C50.388 61.2089 48.8759 62.7209 50.3879 61.2088C51.9 59.6968 51.3632 60.5826 52.9736 59.2495C54.5751 57.9164 54.933 57.0217 55.1119 56.2254C55.2909 55.4202 56.0871 55.2502 56.2661 53.9976C56.445 52.754 55.7293 52.0383 56.2661 51.412C56.8029 50.7857 57.5992 50.9646 57.5097 49.721C57.4202 48.4774 57.5902 48.6295 56.4361 47.2069H36.7081C36.7081 47.2069 39.258 55.957 41.2174 57.2901C43.1767 58.6232 44.5098 61.2088 44.2414 62.363C43.973 63.5172 43.8836 65.2081 43.8836 65.2081H43.8925Z" fill="#E8D1B2"/>
<path d="M53.412 58.1579C53.9041 57.1112 53.412 56.2075 53.412 56.2075L52.7857 58.1579H53.412Z" fill="#4A3323"/>
<path d="M55.1656 54.7402C55.6577 53.6935 55.1656 52.7898 55.1656 52.7898L54.5393 54.7402H55.1656Z" fill="#4A3323"/>
<path d="M53.412 52.8346C53.9041 51.7878 53.412 50.8841 53.412 50.8841L52.7857 52.8346H53.412Z" fill="#4A3323"/>
<path d="M55.3356 50.6783C55.8276 49.6316 55.3356 48.7279 55.3356 48.7279L54.7093 50.6783H55.3356Z" fill="#4A3323"/>
<path d="M46.3887 62.4793C46.8808 61.4325 46.3887 60.5289 46.3887 60.5289L45.7624 62.4793H46.3887Z" fill="#4A3323"/>
<path d="M41.4768 49.9089C41.9689 48.8621 41.4768 47.9585 41.4768 47.9585L40.8505 49.9089H41.4768Z" fill="#4A3323"/>
<path d="M47.0418 56.977C47.5339 55.9302 47.0418 55.0265 47.0418 55.0265L46.4155 56.977H47.0418Z" fill="#4A3323"/>
<path d="M49.6274 54.6239C50.1195 53.5772 49.6274 52.6735 49.6274 52.6735L49.0012 54.6239H49.6274Z" fill="#4A3323"/>
<path d="M47.2655 50.8841C47.7576 49.8373 47.2655 48.9337 47.2655 48.9337L46.6392 50.8841H47.2655Z" fill="#4A3323"/>
<path d="M51.721 49.3542C52.2131 48.3074 51.721 47.4038 51.721 47.4038L51.0947 49.3542H51.721Z" fill="#4A3323"/>
<path d="M42.6489 56.0196C43.1409 54.9729 42.6489 54.0692 42.6489 54.0692L42.0226 56.0196H42.6489Z" fill="#4A3323"/>
<path d="M45.2346 53.6666C45.7266 52.6198 45.2346 51.7162 45.2346 51.7162L44.6083 53.6666H45.2346Z" fill="#4A3323"/>
<path d="M37.7012 78.0827C37.7012 78.0827 38.8017 76.8838 38.8017 75.3092C38.8017 73.7345 39.0254 71.972 39.4369 71.4978C39.8485 71.0236 41.3605 67.9369 42.2105 67.4359C43.0604 66.9349 44.6082 68.2948 47.2655 66.3444C48.9833 65.0829 47.4354 65.0292 49.198 64.4655C50.9605 63.9019 51.6942 61.1015 51.6942 60.1263C51.6942 59.1511 49.5559 58.6858 48.008 59.4911C46.4602 60.2873 46.335 61.2715 44.6709 61.6741C42.9978 62.0857 43.2483 63.2219 41.5215 63.2487C39.7858 63.2756 37.4239 63.1861 37.3254 64.3224C37.227 65.4497 35.4645 69.1179 35.3303 69.2521C35.1961 69.3863 37.7012 78.1006 37.7012 78.1006V78.0827Z" fill="#45200D"/>
<path d="M45.145 58.9274C46.1113 59.6879 46.4334 61.2357 46.5408 61.9962C46.2366 61.4146 45.4313 60.8689 44.8766 60.8689C44.1788 60.8689 43.6151 61.4325 43.6151 62.1304C43.6151 62.5151 43.8298 62.9087 44.0535 63.1861C44.4024 63.6245 45.2524 63.9466 45.7713 64.6981C46.2902 65.4586 46.666 66.3354 46.666 66.3354C46.666 66.3354 47.0418 65.4586 47.5607 64.6981C48.0796 63.9376 48.9296 63.6245 49.2785 63.1861C49.5022 62.9087 49.7169 62.5151 49.7169 62.1304C49.7169 61.4325 49.1532 60.8689 48.4554 60.8689C47.9007 60.8689 47.0955 61.4236 46.7913 61.9962C46.8986 61.2357 47.2297 59.6968 48.187 58.9274C50.4237 58.2743 52.052 56.2075 52.052 53.765C52.052 50.7946 49.6453 48.379 46.666 48.379C43.6867 48.379 41.28 50.7946 41.28 53.765C41.28 56.2165 42.9173 58.2743 45.154 58.9274H45.145Z" fill="url(#paint1_radial_3556_1269)"/>
<path d="M49.019 47.198H42.3625C42.4162 47.7348 42.5952 48.1553 42.8367 48.5132C43.132 48.9426 43.3288 49.7031 43.3646 50.562C43.4004 51.4209 43.5256 52.6735 44.0893 52.7719C44.2772 52.8077 44.5814 52.1456 44.6709 51.1525C44.7514 50.1594 44.4561 48.3521 44.6709 48.2985C44.8856 48.2537 44.9214 48.549 45.1808 49.2021C45.4492 49.8642 46.2723 52.4319 46.2992 53.094C46.335 53.7561 47.1939 53.3535 47.1939 53.3535C47.1939 53.3535 47.4533 53.6129 48.1512 53.7829C48.8401 53.944 48.4464 52.3335 48.5807 51.4388C48.7149 50.5441 48.1512 48.5311 48.1512 48.5311C48.1512 48.5311 48.6164 48.9963 49.1443 49.6852C49.6722 50.3741 49.6095 52.0293 49.7259 52.8882C49.8422 53.7471 50.1642 54.114 50.6653 54.114C51.1663 54.114 50.8621 51.2062 50.6653 49.891C50.5311 49.0053 49.6185 47.8511 49.019 47.1891V47.198Z" fill="#F1A882"/>
<path d="M23.9946 64.1166C24.5582 65.4407 25.6229 66.8991 25.2024 68.1069C24.7819 69.3147 24.1646 70.1736 24.6387 70.6747C25.0592 71.1131 25.7482 72.4998 27.6449 72.9651C27.7254 72.7056 27.8059 72.4641 27.8775 72.1867C28.0654 71.4083 28.2175 70.8447 28.5933 70.4689C28.969 70.0931 29.9174 69.2253 30.4274 69.2968C30.9374 69.3774 31.4831 69.9231 32.011 70.5047C32.5389 71.0862 32.8788 70.8625 33.9167 71.0146C34.9545 71.1667 35.8403 70.6568 36.1445 70.2184C36.4487 69.78 37.1107 69.7621 37.1107 69.7621C37.1107 69.7621 38.7033 69.7889 38.757 68.5811C38.8106 67.3732 38.2112 64.6355 38.757 64.0719C39.2938 63.5082 39.9648 62.4167 39.6964 61.5578C39.428 60.6989 37.7012 60.9136 37.1823 60.7704C36.6634 60.6183 37.8712 60.4484 35.7508 59.8847C33.6304 59.3211 33.9793 60.1531 32.8878 60.1799C31.8052 60.2068 31.2595 59.8131 30.8389 59.6879C30.4184 59.5626 29.309 59.2942 28.8885 59.6879C28.468 60.0815 27.636 60.7704 26.5265 61.0388C25.4171 61.3072 25.3455 61.1641 24.7014 61.5846C24.0572 62.0051 23.422 62.8014 23.9856 64.1255L23.9946 64.1166Z" fill="#572B16"/>
<path d="M33.3262 69.7263C33.3262 69.7263 34.1493 70.0663 34.7309 69.7263C35.3124 69.3863 35.7419 68.7064 35.885 68.6795C36.0282 68.6616 34.5072 68.259 33.8988 68.2948C33.2815 68.3306 32.1273 68.5811 32.1273 68.5811C32.1273 68.5811 32.5299 69.4042 33.3262 69.7263Z" fill="#D78E69"/>
<path d="M27.8596 77.3043C28.9333 77.4564 30.1053 77.5817 31.2416 77.6174C34.0509 77.7159 36.8692 77.3669 37.8802 77.2238C37.7728 76.5617 37.576 75.2465 37.6654 74.7008C37.7907 73.9492 37.7818 71.2294 37.1197 69.7621C37.1197 69.7621 36.4576 69.78 36.1534 70.2184C35.8492 70.6568 34.9635 71.1667 33.9256 71.0146C32.8878 70.8625 32.5478 71.0862 32.02 70.5047C31.4921 69.9142 30.9374 69.3684 30.4364 69.2968C29.9264 69.2253 28.978 70.0931 28.6022 70.4689C28.2265 70.8446 28.0744 71.4173 27.8865 72.1867C27.6986 72.9651 27.3944 73.4571 27.3765 74.665C27.3586 75.8728 27.3944 76.2486 27.8328 76.9285C27.9133 77.0627 27.9133 77.188 27.8686 77.3133L27.8596 77.3043Z" fill="#F1A882"/>
<path d="M37.7728 76.5707C37.6833 75.9086 37.5938 75.1034 37.6565 74.7008C37.7817 73.9493 37.7728 71.2294 37.1107 69.7621C37.1107 69.7621 36.4486 69.78 36.1444 70.2184C36.0102 70.4152 35.7508 70.621 35.4197 70.782C35.3392 71.3725 35.2408 72.0704 35.1424 72.6341C34.9724 73.6361 34.4535 74.7455 35.1424 75.7565C35.6613 76.517 37.0928 76.5886 37.7638 76.5796L37.7728 76.5707Z" fill="#D78E69"/>
<path d="M28.1191 79.219C28.2085 79.1921 29.4074 76.3828 28.8438 75.1839C28.2801 73.985 27.4212 72.4104 27.0991 70.8984C26.786 69.3863 27.5822 66.8901 26.6339 65.4407C25.6855 63.9913 24.8713 63.7766 25.8465 62.8909C26.8218 62.0051 26.2581 59.7684 24.2361 59.9294C22.223 60.0905 20.8631 62.0767 20.201 61.8172C19.539 61.5667 20.201 62.1035 18.0269 60.5915C15.8528 59.0795 14.1798 59.0884 13.804 59.4731C13.4282 59.8668 13.8398 61.5667 15.0029 62.193C16.166 62.8282 16.3539 63.8661 17.0159 64.4655C17.678 65.065 18.8769 64.3313 19.5032 65.4407C20.1384 66.5501 20.0042 68.0532 20.6663 69.2342C21.3284 70.4242 21.4894 70.961 22.4646 72.3477C23.4398 73.7345 23.3593 75.1839 23.8245 76.5528C24.2898 77.9216 28.1012 79.219 28.1012 79.219H28.1191Z" fill="#45200D"/>
<path d="M38.2648 77.1701C38.2648 77.1701 38.9001 81.0978 41.3157 82.7977C41.3157 82.7977 40.2958 83.433 39.2579 83.3882C38.2201 83.3435 37.1286 83.0304 37.227 82.753C37.3165 82.4667 37.558 80.74 36.4665 80.9099C35.375 81.071 35.7329 81.6436 35.7597 82.0194C35.7865 82.3951 36.8512 83.0393 36.8512 83.0393C36.8512 83.0393 35.8313 85.616 34.3461 85.5444C32.852 85.4729 31.2952 84.2203 31.2952 83.7998C31.2952 83.3793 32.2167 82.9498 32.1004 82.2609C31.9841 81.572 31.671 81.4378 31.0089 81.3662C30.3468 81.2946 30.0426 81.7957 30.0874 82.243C30.1321 82.6904 30.6063 83.3793 30.5616 83.6656C30.5168 83.9519 28.9064 85.5355 27.5554 85.2492C26.2044 84.9629 25.095 83.4061 25.3366 82.9767C25.5692 82.5472 26.6339 82.082 26.446 81.3662C26.2581 80.6594 24.7908 80.4178 24.6029 81.0799C24.415 81.742 24.6029 82.6904 24.6029 82.6904C24.6029 82.6904 21.2657 83.3256 20.371 82.3325C20.371 82.3325 23.3235 78.7895 23.8424 76.5617C23.8424 76.5617 27.7433 77.5101 31.2415 77.6264C34.7398 77.7427 38.2648 77.1791 38.2648 77.1791V77.1701Z" fill="#F4AE00"/>
<path d="M20.049 59.4821L15.7097 80.2121L16.5776 82.2251L18.2059 80.6057L22.4825 59.4821H20.049Z" fill="#91A3BD"/>
<g style="mix-blend-mode:multiply" opacity="0.5">
<path d="M20.049 59.4821L15.7097 80.2121L16.5776 82.2251L21.1942 59.4821H20.049Z" fill="#91A3BD"/>
</g>
<path d="M22.4825 57.469C22.4825 57.469 22.8493 58.7842 24.075 58.8111C25.3097 58.829 26.4012 58.4711 26.4012 58.4711L26.9023 60.0278L25.7123 61.2178C25.7123 61.2178 25.6408 60.0726 24.5671 60.0726C23.5024 60.0726 21.552 60.6273 21.552 60.6273L20.04 60.3499C20.04 60.3499 19.1721 59.4284 18.3938 59.16C17.6154 58.8916 16.336 59.2674 16.336 59.2674L15.7007 57.8806L16.6849 56.8964C16.6849 56.8964 19.5658 58.0595 20.3531 57.6927C21.1405 57.3259 20.7736 53.7203 21.1584 52.4856C21.5431 51.2509 22.4646 49.56 22.4646 49.56C22.4646 49.56 21.4178 47.4753 23.7619 47.6274C26.1149 47.7795 24.2361 50.061 24.2361 50.061C24.2361 50.061 24.5582 50.8751 23.9587 52.9329C23.3682 54.9907 22.4557 57.469 22.4557 57.469H22.4825Z" fill="#F4AE00"/>
<path d="M20.2548 58.2116C20.2548 58.2116 22.3036 58.3816 22.9925 57.979C23.6814 57.5764 24.1467 57.1559 24.084 56.7264C24.0214 56.297 24.3077 56.0376 23.7888 56.1628C23.2609 56.297 22.572 56.9859 22.3394 56.9859C22.1068 56.9859 21.5163 57.0486 21.1852 56.5565C20.8542 56.0644 20.4426 55.7512 20.8542 55.6976C21.2658 55.6528 22.9299 56.1628 23.4578 56.0286C23.9856 55.8944 24.5761 55.796 24.4598 55.4202C24.3435 55.0444 24.3435 54.7403 24.3435 54.7403C24.3435 54.7403 24.7729 53.7829 24.6745 53.7203C24.5761 53.6577 24.603 53.3266 24.6924 52.8256C24.7729 52.3335 24.5582 52.1188 24.3972 51.9488C24.2361 51.7878 22.1336 51.3404 21.9368 50.8394C21.7399 50.3473 22.4825 49.8463 22.4825 49.8463C22.4825 49.8463 21.5342 48.4953 21.3373 48.0658C21.1494 47.6364 18.4385 47.3769 17.6781 47.9048C16.9176 48.4327 17.0876 50.0521 17.2844 51.072C17.4812 52.092 17.517 53.7471 17.517 54.105C17.517 54.4629 19.8074 57.7464 20.2548 58.1937V58.2116Z" fill="#F1A882"/>
<path d="M17.6781 47.9137C16.9176 48.4416 17.0876 50.061 17.2844 51.0809C17.4812 52.1009 17.517 53.7561 17.517 54.1139C17.517 54.2034 17.6512 54.4539 17.848 54.7939C18.0091 54.1676 18.2685 53.4429 18.698 52.7988C19.6911 51.3136 20.7468 49.8105 21.5342 49.891C21.8473 49.9178 22.1694 49.9268 22.4646 49.8642L22.4825 49.8552C22.4825 49.8552 21.5342 48.5042 21.3373 48.0748C21.1494 47.6453 18.4385 47.3859 17.6781 47.9137Z" fill="#D78E69"/>
<path d="M29.7564 56.1449C30.4363 56.2701 31.0894 56.1628 31.6442 55.8854C32.5388 55.4471 33.6035 55.4471 34.4982 55.8854C35.0529 56.1539 35.706 56.2612 36.386 56.1449C37.5759 55.9302 38.5601 54.9907 38.8106 53.8008C39.2222 51.8235 37.7281 50.0878 35.8313 50.0878C35.3392 50.0878 34.8829 50.2041 34.4714 50.4099C33.6035 50.8483 32.5478 50.8483 31.671 50.4099C31.2594 50.2041 30.8031 50.0878 30.3111 50.0878C28.4143 50.0878 26.9202 51.8235 27.3317 53.8008C27.5823 54.9907 28.5664 55.9302 29.7564 56.1449Z" fill="#EBE200"/>
<path d="M31.7515 53.2193C31.9305 53.4429 32.351 53.604 32.6194 53.9797C32.8788 54.3645 33.0667 54.8028 33.0667 54.8028C33.0667 54.8028 33.2546 54.3555 33.5141 53.9797C33.7735 53.595 34.203 53.434 34.3819 53.2193C34.4893 53.0761 34.6056 52.8793 34.6056 52.6824C34.6056 52.3335 34.3193 52.0472 33.9704 52.0472C33.693 52.0472 33.2814 52.3246 33.1294 52.6198C33.183 52.2351 33.353 51.4388 33.8541 51.0541C33.6483 51.1525 33.3709 51.2062 33.0667 51.2062C32.7625 51.2062 32.512 51.1525 32.3062 51.063C32.7983 51.4478 32.9594 52.2351 33.013 52.6198C32.8609 52.3246 32.4583 52.0472 32.172 52.0472C31.8231 52.0472 31.5368 52.3335 31.5368 52.6824C31.5368 52.8793 31.6442 53.0761 31.7605 53.2193H31.7515Z" fill="black"/>
<path d="M32.5746 80.6952C32.7446 80.9099 33.1562 81.062 33.4067 81.4289C33.6572 81.7957 33.8361 82.2251 33.8361 82.2251C33.8361 82.2251 34.0151 81.7957 34.2656 81.4289C34.5161 81.062 34.9277 80.901 35.0977 80.6952C35.205 80.561 35.3124 80.3642 35.3124 80.1852C35.3124 79.8452 35.035 79.5679 34.695 79.5679C34.4266 79.5679 34.033 79.8363 33.8898 80.1137C33.9435 79.7379 34.1045 78.9774 34.5877 78.6106C34.3908 78.7 34.1224 78.7537 33.8272 78.7537C33.5319 78.7537 33.2904 78.7 33.0935 78.6195C33.5677 78.9863 33.7288 79.7468 33.7735 80.1137C33.6304 79.8363 33.2367 79.5679 32.9683 79.5679C32.6283 79.5679 32.351 79.8452 32.351 80.1852C32.351 80.3731 32.4583 80.561 32.5657 80.6952H32.5746Z" fill="black"/>
</g>
<defs>
<radialGradient id="paint0_radial_3556_1269" cx="0" cy="0" r="1" gradientUnits="userSpaceOnUse" gradientTransform="translate(24.1914 36.7301) scale(7.40804 7.40803)">
<stop stop-color="#FEF2C6"/>
<stop offset="0.1" stop-color="#FEE795"/>
<stop offset="0.19" stop-color="#FEDD6B"/>
<stop offset="0.29" stop-color="#FDD548"/>
<stop offset="0.39" stop-color="#FDCE2E"/>
<stop offset="0.49" stop-color="#FDCA1B"/>
<stop offset="0.59" stop-color="#FDC70F"/>
<stop offset="0.7" stop-color="#FDC70C"/>
<stop offset="1" stop-color="#FF7539"/>
</radialGradient>
<radialGradient id="paint1_radial_3556_1269" cx="0" cy="0" r="1" gradientUnits="userSpaceOnUse" gradientTransform="translate(46.6481 57.3617) rotate(180) scale(7.40804 7.40804)">
<stop stop-color="#FEF2C6"/>
<stop offset="0.1" stop-color="#FEE795"/>
<stop offset="0.19" stop-color="#FEDD6B"/>
<stop offset="0.29" stop-color="#FDD548"/>
<stop offset="0.39" stop-color="#FDCE2E"/>
<stop offset="0.49" stop-color="#FDCA1B"/>
<stop offset="0.59" stop-color="#FDC70F"/>
<stop offset="0.7" stop-color="#FDC70C"/>
<stop offset="1" stop-color="#FF7539"/>
</radialGradient>
<clipPath id="clip0_3556_1269">
<rect width="65.4895" height="95" fill="white" transform="translate(0.489563 0.545914)"/>
</clipPath>
</defs>
</svg>
