<svg width="66" height="96" viewBox="0 0 66 96" fill="none" xmlns="http://www.w3.org/2000/svg">
<g clip-path="url(#clip0_3556_1745)">
<rect width="65.4895" height="95" transform="translate(0.489624 0.545914)" fill="white"/>
<path d="M4.9895 0.545914L61.4793 0.545914C63.9602 0.545914 65.9792 2.56484 65.9792 5.04581V91.046C65.9792 93.527 63.9602 95.5459 61.4793 95.5459H4.9895C2.50853 95.5459 0.489624 93.527 0.489624 91.046L0.489624 5.04581C0.489624 2.56484 2.50853 0.545914 4.9895 0.545914Z" fill="white"/>
<path d="M8.82094 13.5632C9.22692 13.2732 9.69083 13.0992 10.2998 13.0992C10.9088 13.0992 11.4307 13.1862 11.8367 13.3892C12.2427 13.5922 12.5617 13.8532 12.8227 14.2012C13.0547 14.5492 13.2287 14.9261 13.3447 15.3901C13.4607 15.8541 13.4896 16.3181 13.4896 16.811L13.4896 20.9288C13.4896 21.5378 13.3737 22.0887 13.1707 22.5817C12.9387 23.0457 12.6487 23.4516 12.3007 23.7706C11.9237 24.0896 11.5177 24.3216 11.0247 24.4956C10.5608 24.6696 10.0388 24.7276 9.51687 24.7276C8.24094 24.7276 7.28397 24.4086 6.58801 23.7706C5.89205 23.1327 5.54412 22.1757 5.54412 20.9288L5.54412 17.652C5.54412 16.811 5.60211 16.0861 5.7181 15.5351C5.83409 14.9841 5.97907 14.4622 6.15306 14.0272L9.80687 4.83473L12.0687 4.83473L8.79191 13.4472L8.8789 13.5342L8.82094 13.5632ZM11.2568 16.695C11.2568 16.2021 11.0828 15.8251 10.7638 15.5351C10.4448 15.2451 10.0388 15.1001 9.51687 15.1001C9.16889 15.1001 8.90788 15.1581 8.67589 15.3031C8.44391 15.4481 8.26991 15.5931 8.12492 15.7961C7.97993 15.9991 7.893 16.2311 7.83501 16.4631C7.77701 16.724 7.74802 16.956 7.74802 17.217L7.74802 21.1318C7.74802 21.6248 7.92196 22.0017 8.24094 22.2917C8.55992 22.5527 8.99487 22.6977 9.48784 22.6977C9.98081 22.6977 10.4159 22.5527 10.7348 22.2917C11.0538 22.0017 11.2278 21.6248 11.2278 21.1318L11.2278 16.724L11.2568 16.695Z" fill="black"/>
<path d="M57.5083 82.528C57.1023 82.818 56.6384 82.992 56.0294 82.992C55.4205 82.992 54.8985 82.905 54.4925 82.702C54.0865 82.499 53.7675 82.238 53.5065 81.89C53.2745 81.5421 53.1005 81.1651 52.9846 80.7011C52.8686 80.2371 52.8396 79.7732 52.8396 79.2802V75.1624C52.8396 74.5535 52.9556 74.0025 53.1585 73.5095C53.3905 73.0455 53.6806 72.6396 54.0285 72.3206C54.4055 72.0016 54.8115 71.7696 55.3045 71.5956C55.7684 71.4216 56.2904 71.3636 56.8124 71.3636C58.0883 71.3636 59.0453 71.6826 59.7412 72.3206C60.4372 72.9586 60.7851 73.9155 60.7851 75.1624V78.4392C60.7851 79.2802 60.7271 80.0051 60.6111 80.5561C60.4951 81.1071 60.3502 81.629 60.1762 82.064L56.5224 91.2565H54.2605L57.5373 82.644L57.4503 82.557L57.5083 82.528ZM55.0724 79.3962C55.0724 79.8892 55.2465 80.2661 55.5654 80.5561C55.8844 80.8461 56.2904 80.9911 56.8124 80.9911C57.1603 80.9911 57.4213 80.9331 57.6533 80.7881C57.8853 80.6431 58.0593 80.4981 58.2043 80.2951C58.3493 80.0921 58.4362 79.8602 58.4942 79.6282C58.5522 79.3672 58.5812 79.1352 58.5812 78.8742V74.9594C58.5812 74.4665 58.4073 74.0895 58.0883 73.7995C57.7693 73.5385 57.3344 73.3935 56.8414 73.3935C56.3484 73.3935 55.9134 73.5385 55.5944 73.7995C55.2754 74.0895 55.1015 74.4665 55.1015 74.9594V79.3672L55.0724 79.3962Z" fill="black"/>
<path d="M13.865 32.21C13.3468 31.558 12.1097 31.09 11.324 29.9699C10.555 28.8498 10.0033 27.5459 10.0033 27.5459C10.0033 27.5459 9.4517 28.8498 8.6827 29.9699C7.9137 31.09 6.65986 31.558 6.14163 32.21C5.824 32.6112 5.48962 33.1964 5.48962 33.7648C5.48962 34.8012 6.32548 35.6371 7.36196 35.6371C8.18111 35.6371 9.38481 34.818 9.81947 33.9654C9.66901 35.1022 9.16747 37.4259 7.71306 38.5459C8.3316 38.2617 9.13405 38.0946 10.0201 38.0946C10.9061 38.0946 11.6583 38.245 12.2601 38.4958C10.8224 37.3757 10.3377 35.0687 10.1872 33.9486C10.6218 34.8012 11.8256 35.6204 12.6447 35.6204C13.6812 35.6204 14.517 34.7845 14.517 33.748C14.517 33.1796 14.1994 32.5946 13.865 32.1933V32.21Z" fill="black"/>
<path d="M53.1417 63.8818C53.6599 64.5338 54.897 65.0019 55.6827 66.1219C56.4517 67.242 57.0034 68.5459 57.0034 68.5459C57.0034 68.5459 57.555 67.242 58.324 66.1219C59.093 65.0019 60.3469 64.5338 60.8651 63.8818C61.1827 63.4806 61.5171 62.8954 61.5171 62.3271C61.5171 61.2906 60.6812 60.4547 59.6448 60.4547C58.8256 60.4547 57.6219 61.2739 57.1872 62.1265C57.3377 60.9897 57.8392 58.666 59.2937 57.5459C58.6751 57.8301 57.8727 57.9973 56.9866 57.9973C56.1006 57.9973 55.3484 57.8468 54.7466 57.5961C56.1843 58.7161 56.6691 61.0231 56.8195 62.1432C56.3849 61.2906 55.1812 60.4715 54.362 60.4715C53.3255 60.4715 52.4897 61.3073 52.4897 62.3438C52.4897 62.9122 52.8073 63.4973 53.1417 63.8985L53.1417 63.8818Z" fill="black"/>
<path d="M27.8473 23.3641C27.3215 22.6971 26.0267 22.2106 25.2341 21.0492C24.4415 19.8956 23.8766 18.5459 23.8766 18.5459C23.8766 18.5459 23.3115 19.8878 22.519 21.0492C21.7264 22.2027 20.4316 22.6892 19.898 23.3641C19.5606 23.7879 19.231 24.3921 19.231 24.9728C19.231 26.04 20.0942 26.8954 21.1614 26.8954C22.0089 26.8954 23.2409 26.0557 23.696 25.1768C23.5312 26.3461 23.029 28.7552 21.5145 29.9009C22.1423 29.6105 22.9819 29.4379 23.9001 29.4379C24.8182 29.4379 25.5872 29.5948 26.2072 29.8616C24.724 28.7081 24.2297 26.3225 24.0649 25.169C24.52 26.0479 25.752 26.8954 26.6074 26.8954C27.6668 26.8954 28.5378 26.0322 28.5378 24.9728C28.5378 24.3921 28.2004 23.7879 27.8708 23.3641H27.8473Z" fill="black"/>
<path d="M47.8813 23.3641C47.3477 22.6971 46.0529 22.2106 45.2604 21.0492C44.4678 19.8956 43.9028 18.5459 43.9028 18.5459C43.9028 18.5459 43.3378 19.8878 42.5452 21.0492C41.7526 22.2027 40.4579 22.6892 39.9242 23.3641C39.5868 23.7879 39.2572 24.3921 39.2572 24.9728C39.2572 26.04 40.1204 26.8954 41.1798 26.8954C42.0273 26.8954 43.2593 26.0557 43.7144 25.1768C43.5496 26.3461 43.0474 28.7552 41.5329 29.9009C42.1607 29.6105 43.0003 29.4379 43.9185 29.4379C44.8366 29.4379 45.6056 29.5948 46.2256 29.8616C44.7424 28.7081 44.2481 26.3225 44.0833 25.169C44.5384 26.0479 45.7704 26.8954 46.6258 26.8954C47.693 26.8954 48.5484 26.0322 48.5484 24.9728C48.5484 24.3921 48.2109 23.7879 47.8813 23.3641Z" fill="black"/>
<path d="M27.8473 73.7277C27.3215 74.3948 26.0267 74.8813 25.2341 76.0427C24.4415 77.1962 23.8766 78.5459 23.8766 78.5459C23.8766 78.5459 23.3115 77.2041 22.519 76.0427C21.7264 74.8891 20.4316 74.4026 19.898 73.7277C19.5606 73.304 19.231 72.6997 19.231 72.119C19.231 71.0518 20.0942 70.1886 21.1614 70.1886C22.0089 70.1886 23.2409 71.0283 23.696 71.915C23.5312 70.7458 23.029 68.3367 21.5145 67.191C22.1423 67.4813 22.9819 67.654 23.9001 67.654C24.8182 67.654 25.5872 67.4892 26.2072 67.2302C24.724 68.3838 24.2297 70.7693 24.0649 71.9229C24.52 71.0361 25.752 70.1965 26.6074 70.1965C27.6668 70.1965 28.5378 71.0597 28.5378 72.1269C28.5378 72.7076 28.2004 73.3118 27.8708 73.7356L27.8473 73.7277Z" fill="black"/>
<path d="M47.8813 73.7277C47.3477 74.3948 46.0529 74.8813 45.2604 76.0427C44.4678 77.1962 43.9028 78.5459 43.9028 78.5459C43.9028 78.5459 43.3378 77.2041 42.5452 76.0427C41.7526 74.8891 40.4579 74.4026 39.9242 73.7277C39.5868 73.304 39.2572 72.6997 39.2572 72.119C39.2572 71.0518 40.1204 70.1886 41.1798 70.1886C42.0273 70.1886 43.2593 71.0283 43.7144 71.915C43.5496 70.7458 43.0474 68.3367 41.5329 67.191C42.1607 67.4813 43.0003 67.654 43.9185 67.654C44.8366 67.654 45.6056 67.4892 46.2256 67.2302C44.7424 68.3838 44.2481 70.7693 44.0833 71.9229C44.5384 71.0361 45.7704 70.1965 46.6258 70.1965C47.693 70.1965 48.5484 71.0597 48.5484 72.1269C48.5484 72.7076 48.2109 73.3118 47.8813 73.7356V73.7277Z" fill="black"/>
<path d="M27.8473 47.8397C27.3215 47.1726 26.0267 46.6861 25.2341 45.5247C24.4415 44.3712 23.8766 43.0215 23.8766 43.0215C23.8766 43.0215 23.3115 44.3633 22.519 45.5247C21.7264 46.6783 20.4316 47.1648 19.898 47.8397C19.5606 48.2634 19.231 48.8677 19.231 49.4484C19.231 50.5156 20.0942 51.3709 21.1614 51.3709C22.0089 51.3709 23.2409 50.5313 23.696 49.6524C23.5312 50.8216 23.029 53.2307 21.5145 54.3764C22.1423 54.0939 22.9819 53.9134 23.9001 53.9134C24.8182 53.9134 25.5872 54.0782 26.2072 54.3372C24.724 53.1836 24.2297 50.7981 24.0649 49.6445C24.52 50.5234 25.752 51.3709 26.6074 51.3709C27.6668 51.3709 28.5378 50.5077 28.5378 49.4484C28.5378 48.8677 28.2004 48.2634 27.8708 47.8397H27.8473Z" fill="black"/>
<path d="M47.8813 47.8397C47.3477 47.1726 46.0529 46.6861 45.2604 45.5247C44.4678 44.3712 43.9028 43.0215 43.9028 43.0215C43.9028 43.0215 43.3378 44.3633 42.5452 45.5247C41.7526 46.6783 40.4579 47.1648 39.9242 47.8397C39.5868 48.2634 39.2572 48.8677 39.2572 49.4484C39.2572 50.5156 40.1204 51.3709 41.1798 51.3709C42.0273 51.3709 43.2593 50.5313 43.7144 49.6524C43.5496 50.8216 43.0474 53.2307 41.5329 54.3764C42.1607 54.0939 43.0003 53.9134 43.9185 53.9134C44.8366 53.9134 45.6056 54.0782 46.2256 54.3372C44.7424 53.1836 44.2481 50.7981 44.0833 49.6445C44.5384 50.5234 45.7704 51.3709 46.6258 51.3709C47.693 51.3709 48.5484 50.5077 48.5484 49.4484C48.5484 48.8677 48.2109 48.2634 47.8813 47.8397Z" fill="black"/>
</g>
<defs>
<clipPath id="clip0_3556_1745">
<rect width="65.4895" height="95" fill="white" transform="translate(0.489624 0.545914)"/>
</clipPath>
</defs>
</svg>
