<svg width="66" height="96" viewBox="0 0 66 96" fill="none" xmlns="http://www.w3.org/2000/svg">
<g clip-path="url(#clip0_3556_1190)">
<rect width="65.4895" height="95" transform="translate(0.489563 0.545914)" fill="white"/>
<path d="M4.98944 0.545914L61.4792 0.545914C63.9602 0.545914 65.9791 2.56484 65.9791 5.04581V91.046C65.9791 93.527 63.9602 95.5459 61.4792 95.5459H4.98944C2.50847 95.5459 0.489563 93.527 0.489563 91.046L0.489563 5.04581C0.489563 2.56484 2.50847 0.545914 4.98944 0.545914Z" fill="white"/>
<path d="M13.865 32.21C13.3467 31.558 12.1096 31.09 11.3239 29.9699C10.5549 28.8498 10.0033 27.5459 10.0033 27.5459C10.0033 27.5459 9.45163 28.8498 8.68264 29.9699C7.91364 31.09 6.6598 31.558 6.14156 32.21C5.82393 32.6112 5.48956 33.1964 5.48956 33.7648C5.48956 34.8012 6.32542 35.6371 7.3619 35.6371C8.18105 35.6371 9.38475 34.818 9.8194 33.9654C9.66895 35.1022 9.16741 37.4259 7.713 38.5459C8.33154 38.2617 9.13398 38.0946 10.02 38.0946C10.906 38.0946 11.6582 38.245 12.2601 38.4958C10.8224 37.3757 10.3376 35.0687 10.1871 33.9486C10.6218 34.8012 11.8255 35.6204 12.6446 35.6204C13.6811 35.6204 14.517 34.7845 14.517 33.748C14.517 33.1796 14.1993 32.5946 13.865 32.1933V32.21Z" fill="black"/>
<path d="M53.1416 63.8818C53.6598 64.5338 54.8969 65.0019 55.6826 66.1219C56.4516 67.242 57.0033 68.5459 57.0033 68.5459C57.0033 68.5459 57.5549 67.242 58.3239 66.1219C59.0929 65.0019 60.3467 64.5338 60.865 63.8818C61.1826 63.4806 61.517 62.8954 61.517 62.3271C61.517 61.2906 60.6811 60.4547 59.6446 60.4547C58.8255 60.4547 57.6218 61.2739 57.1871 62.1265C57.3376 60.9897 57.8391 58.666 59.2935 57.5459C58.675 57.8301 57.8725 57.9973 56.9865 57.9973C56.1005 57.9973 55.3483 57.8468 54.7465 57.5961C56.1842 58.7161 56.6689 61.0231 56.8194 62.1432C56.3847 61.2906 55.181 60.4715 54.3619 60.4715C53.3254 60.4715 52.4896 61.3073 52.4896 62.3438C52.4896 62.9122 52.8072 63.4973 53.1416 63.8985L53.1416 63.8818Z" fill="black"/>
<path d="M13.4782 19.3993C13.4782 20.5515 13.3245 21.4989 12.9917 22.2158L14.3999 23.3424L13.427 24.5458L12.0699 23.4704C11.4298 23.9825 10.5593 24.2385 9.48387 24.2385C8.05001 24.2385 7.02584 23.8545 6.41133 23.0607C5.79682 22.267 5.48956 21.2428 5.48956 19.9626V11.4107C5.48956 10.7961 5.54077 10.2072 5.64318 9.61834C5.7456 9.02943 5.95043 8.51734 6.23208 8.05646C6.51373 7.59558 6.9234 7.23712 7.43549 6.95547C7.94759 6.67382 8.61333 6.54579 9.45828 6.54579C10.3032 6.54579 11.0201 6.67382 11.5322 6.90426C12.0699 7.1347 12.454 7.49316 12.7357 7.90283C13.0173 8.33811 13.1965 8.8502 13.299 9.4135C13.4014 10.0024 13.427 10.6425 13.427 11.3338V19.3737L13.4782 19.3993ZM11.5066 11.0522C11.5066 10.7449 11.5066 10.4377 11.4554 10.1304C11.4042 9.82317 11.3274 9.54152 11.1994 9.25987C11.0713 9.00383 10.8665 8.77339 10.5849 8.61976C10.3032 8.44053 9.94473 8.36371 9.50946 8.36371C9.02297 8.36371 8.63891 8.49174 8.35726 8.72218C8.10121 8.95262 7.89639 9.25987 7.76837 9.59273C7.64034 9.92559 7.56354 10.2841 7.53793 10.6425C7.53793 11.0266 7.51231 11.3338 7.51231 11.5643V19.9626C7.51231 20.2186 7.5123 20.4747 7.58912 20.7563C7.64032 21.038 7.74277 21.294 7.8964 21.5501C8.05002 21.8061 8.25484 22.0109 8.51088 22.1646C8.76693 22.3182 9.09981 22.395 9.53509 22.395C9.97036 22.395 10.3032 22.3182 10.5849 22.1646L9.09981 20.9356L10.0728 19.7577L11.4298 20.8587C11.5322 20.5003 11.5835 20.0906 11.5835 19.6041V11.001L11.5066 11.0522Z" fill="black"/>
<path d="M53.501 76.6923C53.501 75.5401 53.6546 74.5927 53.9874 73.8758L52.5792 72.7492L53.5522 71.5458L54.9092 72.6212C55.5493 72.1091 56.4199 71.853 57.4953 71.853C58.9291 71.853 59.9533 72.2371 60.5678 73.0309C61.1823 73.8246 61.4896 74.8488 61.4896 76.129L61.4896 84.6809C61.4896 85.2954 61.4384 85.8843 61.3359 86.4732C61.2335 87.0621 61.0287 87.5742 60.747 88.0351C60.4654 88.496 60.0557 88.8545 59.5436 89.1361C59.0315 89.4178 58.3658 89.5458 57.5208 89.5458C56.6759 89.5458 55.959 89.4178 55.4469 89.1873C54.9092 88.9569 54.5251 88.5984 54.2435 88.1887C53.9618 87.7535 53.7826 87.2414 53.6802 86.6781C53.5777 86.0892 53.5522 85.4491 53.5522 84.7577L53.5522 76.7179L53.501 76.6923ZM55.4725 85.0394C55.4725 85.3466 55.4725 85.6539 55.5237 85.9612C55.5749 86.2684 55.6517 86.5501 55.7798 86.8317C55.9078 87.0878 56.1126 87.3182 56.3942 87.4718C56.6759 87.6511 57.0344 87.7279 57.4697 87.7279C57.9562 87.7279 58.3402 87.5998 58.6219 87.3694C58.8779 87.139 59.0827 86.8317 59.2108 86.4988C59.3388 86.166 59.4156 85.8075 59.4412 85.4491C59.4412 85.065 59.4668 84.7577 59.4668 84.5273L59.4668 76.129C59.4668 75.873 59.4668 75.6169 59.39 75.3353C59.3388 75.0536 59.2364 74.7976 59.0827 74.5415C58.9291 74.2855 58.7243 74.0806 58.4682 73.927C58.2122 73.7734 57.8793 73.6966 57.444 73.6966C57.0088 73.6966 56.6759 73.7734 56.3942 73.927L57.8793 75.156L56.9064 76.3338L55.5493 75.2328C55.4469 75.5913 55.3957 76.001 55.3957 76.4875L55.3957 85.0906L55.4725 85.0394Z" fill="black"/>
<path d="M38.8613 27.9828C38.8613 27.9828 37.0492 30.464 34.7353 32.3969C32.4214 34.3298 29.2618 37.6752 27.394 39.4222C25.6191 41.0763 18.8539 44.8678 16.5214 46.113V47.9344H36.1942L40.8314 39.5151L42.2717 29.5811L38.8613 27.9828Z" fill="#CDD9DD"/>
<path d="M23.6025 36.0582L18.2963 27.8434L19.3557 28.0014L19.9411 27.0163L20.7589 27.6018L21.5767 26.4402L22.5989 27.1093L23.6211 26.2729L24.5411 27.1371L25.5819 26.4402L26.4089 27.3416L27.4218 26.7561L28.156 28.0664L29.5127 27.6854L29.5964 28.9957L30.9624 28.7169L30.9159 30.0086L31.9474 30.4454L31.6129 31.5326L32.8302 32.0437L32.0961 33.0752L33.4157 33.7164L32.57 34.6364L33.5737 35.5378L32.6723 36.5322L33.2949 37.6566L32.3098 38.2978L32.8488 39.5244L31.7709 39.8125L31.8824 41.1786L23.6025 36.0582Z" fill="#F4AE00"/>
<path d="M23.5746 36.0768L18.2313 27.7969H18.3056L19.3464 27.9549L19.9318 26.9606L20.7496 27.5367L21.5674 26.3751L21.5953 26.3937L22.5989 27.0442L23.6211 26.2079L23.6397 26.2264L24.5318 27.0721L25.5819 26.3659L25.6004 26.3844L26.3996 27.2673L27.4218 26.6725L27.4404 26.7004L28.1653 27.9828L29.5313 27.6018L29.6149 28.9121L30.9903 28.624L30.9438 29.9436L31.9753 30.3803V30.4082L31.6408 31.4676L32.8674 31.9787L32.1333 33.0195L33.4621 33.6607L32.6072 34.5993L33.6108 35.5007L32.7094 36.5043L33.332 37.6287L33.3042 37.6473L32.3377 38.2699L32.8767 39.5151H32.8395L31.7894 39.8032L31.901 41.2064L31.8452 41.1693L23.556 36.0397L23.5746 36.0768ZM18.3707 27.8899L23.6304 36.0304L31.8452 41.1135L31.743 39.7939H31.7709L32.8024 39.5058L32.2727 38.2792L32.3005 38.2606L33.2577 37.638L32.6351 36.5229L32.6537 36.5043L33.5272 35.5285L32.5236 34.6271L32.5514 34.5993L33.3692 33.7072L32.0496 33.0753L32.7838 32.0437L31.5757 31.5419L31.9102 30.4547L30.8973 30.0179V29.99L30.9438 28.7355L29.5778 29.0143L29.4941 27.704L28.156 28.0757V28.0479L27.4218 26.7747L26.4089 27.3602L25.5911 26.4588L24.5411 27.1557L24.5225 27.1371L23.6304 26.2915L22.6175 27.1186L22.5989 27.1L21.6045 26.4495L20.7868 27.6111L19.969 27.0349L19.3929 28.0014H19.365L18.38 27.8527L18.3707 27.8899Z" fill="#231F20"/>
<path d="M23.5653 36.0675L19.3278 28.0107L19.3929 27.9828L23.4259 35.6493L20.7217 27.6111L20.7868 27.5832L23.6304 36.0396L23.5653 36.0675Z" fill="#231F20"/>
<path d="M23.5653 36.0861V36.0582L22.571 27.1093L22.636 27.1L23.6025 35.7237L24.5039 27.1372L24.5689 27.1465L23.6304 36.114L23.5653 36.0861Z" fill="#231F20"/>
<path d="M23.5653 36.0304L26.3717 27.3323L26.4368 27.3509L23.7419 35.7423L28.1281 28.0479L28.1838 28.085L23.6211 36.0954L23.5653 36.0304Z" fill="#231F20"/>
<path d="M23.6211 36.0861L23.5746 36.0303L29.5684 28.9771L29.6242 29.0236L23.8905 35.7702L30.8973 29.9807L30.9438 30.0365L23.6211 36.0861Z" fill="#231F20"/>
<path d="M23.6118 36.0861L23.5839 36.021L31.5943 31.5048L31.6222 31.5698L23.9649 35.891L32.0868 33.0474L32.1054 33.1124L23.6118 36.0861Z" fill="#231F20"/>
<path d="M23.6025 36.021L32.57 34.6086L32.5793 34.6736L23.937 36.0396L32.6815 36.495L32.6722 36.5693L23.6397 36.0954L23.6025 36.021Z" fill="#231F20"/>
<path d="M23.5839 36.0861L23.6118 36.021L32.3191 38.2606L32.3005 38.3257L23.9742 36.1883L31.7894 39.7846L31.7616 39.8497L23.5839 36.0861Z" fill="#231F20"/>
<path d="M26.3903 32.0716C24.7455 30.91 22.5896 30.9937 21.0563 32.1274L23.5839 36.0397L27.4683 38.4372C27.4683 38.4372 27.4869 38.4186 27.4869 38.4093C28.9366 36.3556 28.4533 33.512 26.3996 32.0623L26.3903 32.0716Z" fill="#9E1F63"/>
<path d="M46.3605 47.9344L44.7343 40.2028L37.4023 39.859C37.4023 39.859 34.0104 44.7934 34.0104 45.5462C34.0104 45.8807 34.2427 46.8936 34.5401 47.9344H46.3605Z" fill="#EBE200"/>
<path d="M35.5995 47.9344C34.9304 46.8843 34.4193 45.0351 35.1906 43.9013C36.6868 41.7175 37.0399 40.3515 38.1829 40.2864C39.3259 40.2121 43.136 40.621 43.7586 39.5988C44.3812 38.5766 44.3533 37.6752 44.3533 37.6752L42.6342 37.3313C42.1695 37.5822 41.5469 37.8053 41.1566 38.0747C40.5897 38.4836 40.4411 39.2828 40.2831 40.1656C40.1716 40.1842 40.0601 40.1935 39.9486 40.2028C37.1979 40.305 36.6868 38.781 36.6868 38.781C36.6868 38.781 34.9676 40.5188 33.5644 41.8662C32.2913 43.0836 30.5071 46.7078 30.4327 47.9437H35.5902L35.5995 47.9344Z" fill="#9E1F63"/>
<path d="M41.203 11.4788L40.5618 9.54591C40.5618 9.54591 41.584 10.7447 42.2252 10.8004C42.8664 10.8562 43.2474 9.6853 43.2474 9.6853C43.2474 9.6853 43.2939 10.9398 44.2975 11.2C45.3012 11.4602 45.8959 10.5124 45.8959 10.5124C45.8959 10.5124 45.3105 11.674 46.249 12.3152C47.1876 12.9564 48.3585 12.2408 48.3585 12.2408C48.3585 12.2408 47.6058 13.3281 47.9589 13.7091C48.312 14.0808 49.3714 14.1923 49.3714 14.1923L47.6244 14.8242C47.6244 14.8242 45.2826 12.1386 41.203 11.4788Z" fill="#F4AE00"/>
<path d="M46.7694 18.4205C47.2434 18.7272 47.6615 19.4799 47.6615 19.4799C48.1912 19.0153 48.6187 18.7179 48.9625 18.5227C48.944 18.3369 48.9254 18.2161 48.9254 18.2161C48.9254 18.2161 48.6001 16.023 48.1912 15.168C47.7824 14.3224 43.1267 11.0978 40.5526 11.0978C37.9785 11.0978 37.2722 11.8598 37.2722 11.8598L38.1086 12.5846C39.1772 13.0214 39.8277 14.2759 40.2831 14.3781C41.2217 14.5733 44.0002 13.7091 45.1153 14.6755C46.0074 15.4468 46.5557 17.1195 46.7694 18.4112V18.4205Z" fill="#9E1F63"/>
<path d="M41.1659 38.0655C41.9837 37.48 43.9166 37.1269 43.0059 36.2534C42.0952 35.3799 41.1008 33.735 41.8629 32.685C42.6249 31.6349 44.1489 32.2203 44.0838 30.9565C44.0281 29.702 42.5877 28.0293 43.3497 26.8584C44.1117 25.6875 44.6971 25.2786 44.1117 24.5445C43.5263 23.8103 43.9073 22.7881 44.1117 22.0261C44.3161 21.2641 43.963 20.3906 43.2939 20.6508C42.6249 20.911 42.6713 21.2455 42.0301 21.0132C41.3889 20.7809 40.1902 20.4835 40.1065 19.6658C40.0229 18.848 38.378 19.3312 38.471 17.8165C38.471 17.8165 37.328 16.4969 37.2722 16.0044C37.2165 15.5026 36.631 15.1216 35.869 15.2424C35.107 15.3632 33.0905 15.5026 33.0905 15.5026C33.0905 15.5026 33.0905 15.5026 33.0719 15.4747C32.7838 15.8557 32.4771 16.3854 32.4028 16.943C32.2634 18.0209 32.3935 19.6565 32.6444 20.0839C32.8953 20.5114 32.8767 21.1898 32.6444 21.8682C32.4121 22.5465 31.8824 24.0055 32.0497 24.3958C32.2169 24.7768 32.9789 24.6932 33.0905 24.6932C33.202 24.6932 33.4343 26.0034 33.4715 26.0685C33.5086 26.1335 33.9175 26.022 34.1312 26.4123C34.345 26.7933 34.5123 27.1557 34.5123 27.3044C34.5123 27.4531 34.5494 28.1315 34.5123 28.9957C34.4658 29.8692 35.5902 30.0179 36.6961 29.6927C37.8019 29.3767 38.4524 28.8006 39.01 29.6276C39.5582 30.4547 40.8778 33.2332 40.2366 34.1439C39.6047 35.0546 36.6961 38.7903 36.6961 38.7903C36.6961 38.7903 37.2072 40.3143 39.9578 40.2121C40.0693 40.2121 40.1809 40.1935 40.2924 40.1749C40.4503 39.2921 40.599 38.4836 41.1659 38.0841V38.0655Z" fill="#F1A882"/>
<path d="M36.6961 38.781C36.6961 38.781 37.2072 40.305 39.9578 40.2028C40.0693 40.2028 40.1809 40.1842 40.2924 40.1656C40.4504 39.2828 40.599 38.4743 41.1659 38.0747C41.9837 37.4893 43.9166 37.1362 43.0059 36.2627C42.0952 35.3891 41.1008 33.7443 41.8629 32.6942C42.6249 31.6442 44.1489 32.2296 44.0838 30.9658C44.0281 29.7112 42.5877 28.0385 43.3497 26.8676C44.1117 25.6968 44.6972 25.2879 44.1117 24.5538C43.805 24.1727 43.7679 23.7174 43.8236 23.2621C43.2475 23.5873 42.7921 23.801 42.7921 23.801C41.4726 26.8119 37.7461 29.321 37.7461 29.321C38.2665 29.1444 38.6568 29.1072 39.0007 29.6276C39.549 30.4547 40.8685 33.2332 40.2273 34.1439C39.5954 35.0546 36.6868 38.7903 36.6868 38.7903L36.6961 38.781Z" fill="#D78E69"/>
<path d="M43.0895 47.9344H55.8949C55.8392 47.5627 55.8206 47.0888 55.8949 46.5869C56.0715 45.3882 54.724 45.0072 54.724 43.604C54.724 42.2008 55.0772 41.6432 54.7798 41.3458C54.4917 41.0577 52.0291 38.3628 51.7039 37.2756C51.3786 36.1883 50.3285 33.735 50.3285 33.735C50.3285 33.735 50.3843 34.9059 48.9811 34.7015C47.5779 34.497 45.8494 34.116 45.9052 35.1383C45.9609 36.1605 46.6672 37.6845 45.3755 38.1212C44.0838 38.558 45.2268 39.0319 44.1488 40.082C43.8329 40.3887 43.3311 40.7232 42.7828 41.0299C42.5877 41.8198 42.4761 42.6468 42.5505 43.4739C42.7363 45.8621 42.7921 47.1259 43.0988 47.9251L43.0895 47.9344Z" fill="#9E1F63"/>
<path d="M26.0837 47.9344C24.9593 46.2896 23.5096 46.048 23.5096 46.048L22.2272 45.825L19.7739 46.7914L19.5695 47.9251H26.0837V47.9344Z" fill="#9E1F63"/>
<path d="M23.3702 46.048L22.348 44.0407C22.348 44.0407 22.6268 42.4609 22.8591 41.7175C23.0914 40.9834 23.1564 40.1749 23.3702 40.0634C23.5839 39.9612 24.1787 39.924 24.253 40.3143C24.3273 40.7046 23.6211 41.5781 24.0764 41.4388C24.5318 41.2994 25.2009 40.4165 24.9221 39.9984C24.6433 39.5802 24.6433 38.7717 24.6433 38.7717C24.6433 38.7717 25.0893 38.3814 24.9871 37.6473C24.8849 36.9131 24.3273 35.9932 24.3273 35.9932C24.3273 35.9932 23.4817 35.7144 22.8498 35.9932C22.2179 36.2719 21.7625 36.272 21.7625 36.272C21.7625 36.272 22.2179 35.1847 23.1657 35.1847C24.1136 35.1847 26.3253 34.7294 26.1859 34.4134C26.0465 34.0975 23.6583 33.7815 22.9148 33.8465C22.1807 33.9209 21.0842 35.1475 20.1363 36.6622C19.1884 38.177 18.761 39.8311 18.7981 42.1822C18.8353 44.5425 19.7832 47.2839 19.7832 47.2839C19.7832 47.2839 21.6789 48.0924 23.3702 46.0573V46.048Z" fill="#F1A882"/>
<path d="M60.467 42.1915C58.9802 40.0263 61.768 37.2384 59.7794 35.3798C59.7143 35.1568 59.6214 34.9431 59.5099 34.7386C58.9616 33.7164 57.8929 32.8894 56.9636 32.4805C55.8485 31.9787 55.8764 31.3375 55.0586 29.9622C54.2409 28.5868 51.6017 27.0349 49.5852 26.1614C47.5686 25.2879 46.9181 20.6043 46.8624 19.3126C46.8159 18.2347 46.3977 16.4133 45.6172 15.2795C45.4592 15.0565 45.2919 14.8521 45.106 14.6941C43.1731 13.0958 41.3146 14.9543 39.3538 12.8077C39.1773 12.5568 38.9635 12.3338 38.7219 12.1386C36.5381 10.3544 31.9846 10.7818 31.6501 14.9915C31.6315 15.2888 31.6501 15.5862 31.7059 15.8929C31.7616 16.1995 31.8731 16.5062 32.0218 16.8222C32.2541 16.9337 32.4864 16.9987 32.7188 17.008C32.9511 17.0266 33.1834 16.9987 33.425 16.943C33.6573 16.9244 33.899 16.8222 34.1499 16.6921C34.4008 16.562 34.661 16.3947 34.9304 16.2274C35.0791 16.1624 35.2371 16.1159 35.3858 16.0694C36.3244 15.8185 37.328 16.3947 37.5603 17.3333C38.1643 19.768 41.7699 22.1469 44.0281 20.9668C44.1768 21.2455 44.2139 21.6544 44.1117 22.0354C42.4762 23.8661 41.7328 24.4422 41.677 26.6911C41.677 27.007 42.3554 29.0979 42.3182 29.3953C42.1974 29.767 42.0952 30.1294 42.0023 30.4733C41.9093 30.8171 41.835 31.1423 41.7607 31.4676C41.612 31.8486 41.5097 32.3132 41.4447 32.7872C41.4075 33.0195 41.3889 33.2611 41.3611 33.4841C41.3146 34.4785 42.2439 36.337 40.6827 37.0526C40.469 37.2756 40.2273 37.4707 39.9764 37.6566C38.7405 38.5952 37.3559 39.2456 38.5175 40.9834C38.6754 41.1414 38.8799 41.2715 39.1215 41.3737C39.3631 41.4759 39.6512 41.5689 39.9578 41.6339C43.1546 42.842 44.0838 40.0541 46.0539 38.8646C46.2398 38.6323 46.4256 38.4093 46.6208 38.2049C46.7788 38.0376 46.946 37.8796 47.1133 37.7402C47.2899 37.6008 47.4664 37.4893 47.6616 37.3964C48.2563 37.3778 48.7581 37.4243 49.167 37.5079C49.5759 37.6008 49.9011 37.7402 50.152 37.9261C50.3286 39.1434 50.4308 40.3143 50.7282 41.4295C50.8025 41.7082 50.8862 41.9777 50.9884 42.2472C52.0849 44.0686 53.4045 47.1352 56.118 47.9809C56.4154 48.0738 56.7406 48.1389 57.0752 48.176C60.8201 48.3991 61.7494 45.6112 60.6622 42.9906C60.5321 42.5074 60.4577 42.1915 60.4577 42.1915H60.467Z" fill="#45200D"/>
<path d="M47.6615 19.4799C47.6615 19.4799 46.6672 17.6492 45.9981 18.532C45.329 19.4148 45.0595 19.7494 45.0038 20.6229C44.883 22.5651 45.0038 22.8996 45.9981 22.5837C46.9924 22.2584 47.4013 21.6451 47.1132 22.4908C46.8159 23.3364 46.3234 23.513 46.8159 24.2192C47.3177 24.9255 48.9439 25.8269 49.0833 26.2079C49.2227 26.5889 46.1747 26.8212 47.7823 27.5553C49.39 28.2895 50.3007 28.085 50.9419 27.4066C51.5831 26.7376 51.7318 24.4236 52.3172 25.9384C52.9026 27.4624 52.2893 28.4846 53.2279 28.8656C54.1665 29.2466 55.04 28.3638 55.1887 29.5997C55.3374 30.8264 55.2165 31.1795 55.1887 31.3003C55.1608 31.4211 56.7406 33.3819 57.2052 31.7371C57.6698 30.1016 58.9894 29.6834 57.2052 28.9864C55.421 28.2801 54.1293 28.5218 55.1236 26.8769C56.1179 25.2414 54.9749 24.5352 53.1907 23.7174C51.4065 22.8996 50.0869 23.2528 49.9382 22.5465C49.7896 21.8403 49.6316 22.7696 50.4029 21.608C51.1742 20.4556 52.215 18.8015 51.2206 18.7365C50.2263 18.6807 50.2263 17.2403 47.6522 19.4706L47.6615 19.4799Z" fill="#DA1C5C"/>
<path d="M44.6786 24.2006C44.5578 24.0426 44.2511 23.9311 44.0653 23.6617C43.8794 23.3922 43.7493 23.0762 43.7493 23.0762C43.7493 23.0762 43.6192 23.3922 43.4334 23.6617C43.2475 23.9311 42.9408 24.0426 42.82 24.2006C42.7457 24.3028 42.662 24.4422 42.662 24.5723C42.662 24.8232 42.8665 25.0184 43.1081 25.0184C43.3032 25.0184 43.5913 24.8232 43.7028 24.6188C43.6657 24.8883 43.5449 25.4552 43.1917 25.7247C43.3404 25.6596 43.5356 25.6131 43.7493 25.6131C43.963 25.6131 44.1396 25.6503 44.2883 25.7153C43.9445 25.4459 43.8236 24.8883 43.7865 24.6188C43.898 24.8232 44.1768 25.0184 44.3812 25.0184C44.6321 25.0184 44.8273 24.8139 44.8273 24.5723C44.8273 24.4329 44.7529 24.2935 44.6693 24.2006H44.6786Z" fill="#F4AE00"/>
<path d="M40.2645 43.9664C40.0414 43.6876 39.5117 43.4925 39.1865 43.0092C38.8612 42.5353 38.6289 41.9777 38.6289 41.9777C38.6289 41.9777 38.3966 42.5353 38.0621 43.0092C37.7368 43.4832 37.1978 43.6876 36.9841 43.9664C36.8447 44.143 36.7053 44.3939 36.7053 44.6355C36.7053 45.0722 37.0584 45.4346 37.5045 45.4346C37.8576 45.4346 38.3594 45.0908 38.5546 44.7191C38.4895 45.2023 38.2758 46.1966 37.6532 46.6706C37.9134 46.5498 38.2572 46.4847 38.6382 46.4847C39.0192 46.4847 39.3352 46.5498 39.5954 46.6613C38.9821 46.1874 38.7776 45.2023 38.7126 44.7191C38.8984 45.0815 39.4095 45.4346 39.7626 45.4346C40.1994 45.4346 40.5618 45.0815 40.5618 44.6355C40.5618 44.3939 40.4224 44.143 40.283 43.9664H40.2645Z" fill="black"/>
<path d="M36.9563 18.7643C37.0213 19.0803 37.328 19.2847 37.6439 19.229C37.9599 19.1639 38.1643 18.8573 38.1086 18.5413C38.0435 18.2254 37.7369 18.0116 37.4209 18.0767C37.1049 18.1417 36.8912 18.4484 36.9563 18.7643Z" fill="#D8EFF6"/>
<path d="M37.8763 17.77C37.9413 18.086 38.248 18.2904 38.564 18.2347C38.8799 18.1696 39.0843 17.8629 39.0286 17.547C38.9635 17.231 38.6569 17.0173 38.3409 17.0823C38.025 17.1474 37.8205 17.4541 37.8763 17.77Z" fill="#D8EFF6"/>
<path d="M35.7018 19.1361C35.7668 19.452 36.0735 19.6565 36.3895 19.6007C36.7054 19.5357 36.9098 19.229 36.8541 18.913C36.789 18.5971 36.4824 18.3833 36.1664 18.4484C35.8505 18.5134 35.646 18.8201 35.7018 19.1361Z" fill="#D8EFF6"/>
<path d="M34.3264 19.2569C34.3915 19.5728 34.6981 19.7865 35.0141 19.7215C35.33 19.6564 35.5345 19.3498 35.4787 19.0338C35.4137 18.7179 35.107 18.5134 34.7911 18.5692C34.4751 18.6342 34.2707 18.9409 34.3264 19.2569Z" fill="#D8EFF6"/>
<path d="M32.9697 19.2569C33.0347 19.5728 33.3414 19.7772 33.6573 19.7215C33.9733 19.6564 34.1777 19.3498 34.122 19.0338C34.0569 18.7179 33.7503 18.5134 33.4343 18.5692C33.1183 18.6342 32.9139 18.9409 32.9697 19.2569Z" fill="#D8EFF6"/>
<path d="M31.8638 18.8108C31.9103 19.071 32.1612 19.2383 32.4214 19.1825C32.6816 19.1361 32.8489 18.8851 32.7931 18.625C32.7466 18.3648 32.4957 18.1975 32.2355 18.2439C31.9753 18.2997 31.8081 18.5506 31.8545 18.8015L31.8638 18.8108Z" fill="#D8EFF6"/>
<path d="M26.7248 68.109C26.7248 68.109 28.5369 65.6278 30.8508 63.6949C33.1647 61.762 36.3243 58.4166 38.1921 56.6696C39.9671 55.0155 46.7322 51.224 49.0647 49.9788V48.1574H29.3919L24.7548 56.5767L23.3144 66.5107L26.7248 68.109Z" fill="#CDD9DD"/>
<path d="M41.9836 60.0336L47.2898 68.2484L46.2211 68.0904L45.645 69.0755L44.8272 68.49L44.0094 69.6516L42.9779 68.9918L41.9557 69.8189L41.045 68.9547L39.9949 69.6516L39.1772 68.7502L38.1643 69.3357L37.4301 68.0254L36.0734 68.4064L35.9898 67.0961L34.6237 67.3749L34.6609 66.0832L33.6387 65.6464L33.9732 64.5592L32.7559 64.0481L33.49 63.0166L32.1704 62.3754L33.0161 61.4554L32.0125 60.554L32.9046 59.5597L32.2819 58.4352L33.2763 57.8033L32.7373 56.5674L33.8153 56.2793L33.7037 54.9133L41.9836 60.0336Z" fill="#F4AE00"/>
<path d="M42.0115 60.015L47.3548 68.2949H47.2805L46.2397 68.1369L45.6543 69.1312L44.8365 68.5551L44.0187 69.7167L43.9908 69.6981L42.9872 69.0476L41.965 69.8839L41.9464 69.8654L41.0543 69.0197L40.0042 69.726L39.9857 69.7074L39.1865 68.8246L38.1643 69.4193L38.1457 69.3914L37.4209 68.109L36.0548 68.49L35.9712 67.1797L34.5958 67.4678L34.6423 66.1483L33.6108 65.7115V65.6836L33.9453 64.6242L32.7187 64.1131L33.4528 63.0723L32.124 62.4311L32.9789 61.4926L31.9753 60.5912L32.8767 59.5876L32.2541 58.4631L32.2819 58.4445L33.2484 57.8219L32.7094 56.5767H32.7466L33.7967 56.2886L33.6851 54.8854L33.7409 54.9226L42.0301 60.0522L42.0115 60.015ZM47.2154 68.202L41.9557 60.0615L33.7409 54.9783L33.8431 56.2979H33.8152L32.7837 56.586L33.3134 57.8126L33.2856 57.8312L32.3284 58.4538L32.951 59.5689L32.9324 59.5876L32.0589 60.5633L33.0625 61.4647L33.0347 61.4926L32.2262 62.3847L33.5458 63.0166L32.8116 64.0481L34.0197 64.5499L33.6851 65.6371L34.6981 66.0739V66.1018L34.6516 67.3563L36.0176 67.0775L36.1013 68.3878L37.4394 68.0161V68.044L38.1736 69.3171L39.1865 68.7317L40.0042 69.6331L41.0543 68.9361L41.0729 68.9547L41.965 69.8003L42.9779 68.9732L42.9965 68.9918L43.9908 69.6423L44.8086 68.4807L45.6264 69.0569L46.2025 68.0904H46.2304L47.2154 68.2391V68.202Z" fill="#231F20"/>
<path d="M42.0208 60.0243L46.2583 68.0812L46.1933 68.109L42.1602 60.4425L44.8644 68.4807L44.7901 68.5086L41.9557 60.0522L42.0208 60.0243Z" fill="#231F20"/>
<path d="M42.0208 60.0057V60.0336L43.0151 68.9825L42.9501 68.9918L41.9836 60.3681L41.0822 68.9547L41.0079 68.9454L41.9557 59.9778L42.0208 60.0057Z" fill="#231F20"/>
<path d="M42.0115 60.0615L39.2144 68.7595L39.14 68.7409L41.8442 60.3495L37.458 68.044L37.393 68.0068L41.9651 59.9964L42.0115 60.0615Z" fill="#231F20"/>
<path d="M41.9651 60.0057L42.0115 60.0615L36.0177 67.1147L35.9619 67.0682L41.6956 60.3217L34.6888 66.1111L34.6423 66.0553L41.9651 60.0057Z" fill="#231F20"/>
<path d="M41.9743 60.0057L42.0022 60.0708L33.9918 64.5871L33.9547 64.522L41.6212 60.2009L33.4993 63.0445L33.4714 62.9794L41.9743 60.0057Z" fill="#231F20"/>
<path d="M41.9836 60.0708L33.016 61.4926L33.0068 61.4182L41.649 60.0522L32.9045 59.5968L32.9138 59.5225L41.9464 59.9964L41.9836 60.0708Z" fill="#231F20"/>
<path d="M42.0022 60.0057L41.9743 60.0708L33.267 57.8312L33.2855 57.7661L41.6119 59.9035L33.7966 56.3072L33.8245 56.2421L42.0022 60.0057Z" fill="#231F20"/>
<path d="M39.1958 64.0202C40.8406 65.1818 42.9965 65.0982 44.5299 63.9644L42.0022 60.0522L38.1178 57.6546C38.1178 57.6546 38.0993 57.6732 38.0993 57.6825C36.6496 59.7362 37.1328 62.5798 39.1865 64.0295L39.1958 64.0202Z" fill="#9E1F63"/>
<path d="M19.2256 48.1574L20.8518 55.889L28.1838 56.2328C28.1838 56.2328 31.5757 51.2984 31.5757 50.5457C31.5757 50.2111 31.3434 49.1982 31.046 48.1574H19.2256Z" fill="#EBE200"/>
<path d="M29.9867 48.1574C30.6557 49.2075 31.1668 51.0568 30.3955 52.1905C28.8994 54.3743 28.5463 55.7403 27.4033 55.8054C26.2603 55.8797 22.4502 55.4708 21.8276 56.493C21.205 57.5153 21.2329 58.4167 21.2329 58.4167L22.952 58.7605C23.4167 58.5096 24.0393 58.2866 24.4296 58.0171C24.9964 57.6082 25.1451 56.809 25.3031 55.9262C25.4146 55.9076 25.5261 55.8983 25.6376 55.889C28.3883 55.7868 28.8994 57.3108 28.8994 57.3108C28.8994 57.3108 30.6186 55.5731 32.0218 54.2256C33.2949 53.0083 35.0791 49.3841 35.1534 48.1481H29.9959L29.9867 48.1574Z" fill="#9E1F63"/>
<path d="M24.3831 84.613L25.0243 86.5459C25.0243 86.5459 24.0021 85.3472 23.3609 85.2914C22.7197 85.2356 22.3387 86.4065 22.3387 86.4065C22.3387 86.4065 22.2922 85.152 21.2886 84.8918C20.285 84.6316 19.6902 85.5795 19.6902 85.5795C19.6902 85.5795 20.2757 84.4179 19.3371 83.7767C18.3985 83.1355 17.2276 83.851 17.2276 83.851C17.2276 83.851 17.9804 82.7638 17.6272 82.3828C17.2741 82.011 16.2147 81.8995 16.2147 81.8995L17.9618 81.2676C17.9618 81.2676 20.3036 83.9532 24.3831 84.613Z" fill="#F4AE00"/>
<path d="M18.8074 77.6713C18.3335 77.3647 17.9153 76.6119 17.9153 76.6119C17.3856 77.0766 16.9582 77.3739 16.6143 77.5691C16.6329 77.7549 16.6515 77.8758 16.6515 77.8758C16.6515 77.8758 16.9767 80.0689 17.3856 80.9238C17.7945 81.7694 22.4502 84.994 25.0243 84.994C27.5984 84.994 28.3046 84.232 28.3046 84.232L27.4683 83.5072C26.3996 83.0704 25.7491 81.8159 25.2938 81.7137C24.3552 81.5185 21.5767 82.3828 20.4615 81.4163C19.5694 80.645 19.0212 78.9723 18.8074 77.6806V77.6713Z" fill="#9E1F63"/>
<path d="M24.4203 58.0263C23.6025 58.6118 21.6696 58.9649 22.5803 59.8384C23.491 60.712 24.4853 62.3568 23.7233 63.4069C22.9613 64.457 21.4373 63.8715 21.5023 65.1353C21.5581 66.3899 22.9985 68.0626 22.2365 69.2335C21.4745 70.4044 20.889 70.8132 21.4745 71.5474C22.0599 72.2815 21.6789 73.3037 21.4745 74.0657C21.27 74.8277 21.6232 75.7012 22.2922 75.441C22.9613 75.1808 22.9149 74.8463 23.5561 75.0786C24.1973 75.3109 25.396 75.6083 25.4797 76.4261C25.5633 77.2438 27.2081 76.7606 27.1152 78.2753C27.1152 78.2753 28.2582 79.5949 28.314 80.0874C28.3697 80.5892 28.9552 80.9703 29.7172 80.8494C30.4792 80.7286 32.4957 80.5892 32.4957 80.5892C32.4957 80.5892 32.4957 80.5892 32.5143 80.6171C32.8024 80.2361 33.109 79.7064 33.1834 79.1488C33.3228 78.0709 33.1927 76.4354 32.9418 76.0079C32.6909 75.5804 32.7094 74.9021 32.9418 74.2237C33.1741 73.5453 33.7038 72.0863 33.5365 71.696C33.3692 71.315 32.6072 71.3987 32.4957 71.3987C32.3842 71.3987 32.1519 70.0884 32.1147 70.0233C32.0775 69.9583 31.6687 70.0698 31.4549 69.6795C31.2412 69.2985 31.0739 68.9361 31.0739 68.7874C31.0739 68.6387 31.0367 67.9603 31.0739 67.0961C31.1204 66.2226 29.9959 66.0739 28.8901 66.3991C27.7843 66.7151 27.1338 67.2913 26.5762 66.4642C26.0279 65.6371 24.7084 62.8586 25.3496 61.9479C25.9815 61.0372 28.8901 57.3015 28.8901 57.3015C28.8901 57.3015 28.379 55.7775 25.6283 55.8797C25.5168 55.8797 25.4053 55.8983 25.2938 55.9169C25.1358 56.7997 24.9871 57.6082 24.4203 58.0078V58.0263Z" fill="#F1A882"/>
<path d="M28.8901 57.3108C28.8901 57.3108 28.379 55.7868 25.6283 55.889C25.5168 55.889 25.4053 55.9076 25.2938 55.9262C25.1358 56.809 24.9871 57.6175 24.4203 58.0171C23.6025 58.6025 21.6696 58.9556 22.5803 59.8291C23.491 60.7027 24.4853 62.3475 23.7233 63.3976C22.9613 64.4476 21.4373 63.8622 21.5023 65.126C21.5581 66.3806 22.9985 68.0533 22.2365 69.2242C21.4745 70.395 20.889 70.8039 21.4745 71.538C21.7811 71.9191 21.8183 72.3744 21.7625 72.8298C22.3387 72.5045 22.794 72.2908 22.794 72.2908C24.1136 69.2799 27.84 66.7708 27.84 66.7708C27.3196 66.9474 26.9293 66.9846 26.5855 66.4642C26.0372 65.6371 24.7176 62.8586 25.3588 61.9479C25.9908 61.0372 28.8994 57.3015 28.8994 57.3015L28.8901 57.3108Z" fill="#D78E69"/>
<path d="M22.4966 48.1574H9.69118C9.74694 48.5291 9.76553 49.0031 9.69118 49.5049C9.51462 50.7036 10.8621 51.0846 10.8621 52.4879C10.8621 53.8911 10.509 54.4486 10.8063 54.746C11.0944 55.0341 13.557 57.729 13.8822 58.8162C14.2075 59.9035 15.2576 62.3568 15.2576 62.3568C15.2576 62.3568 15.2018 61.1859 16.605 61.3904C18.0082 61.5948 19.7367 61.9758 19.6809 60.9536C19.6252 59.9314 18.9189 58.4073 20.2106 57.9706C21.5023 57.5338 20.3593 57.0599 21.4373 56.0098C21.7439 55.7032 22.255 55.3686 22.8033 55.062C22.9985 54.2721 23.11 53.445 23.0356 52.618C22.8498 50.2297 22.794 48.9659 22.4874 48.1667L22.4966 48.1574Z" fill="#9E1F63"/>
<path d="M39.5024 48.1574C40.6269 49.8022 42.0765 50.0438 42.0765 50.0438L43.359 50.2669L45.8123 49.3004L46.0167 48.1667H39.5024V48.1574Z" fill="#9E1F63"/>
<path d="M42.2159 50.0439L43.2381 52.0511C43.2381 52.0511 42.9594 53.6309 42.727 54.3743C42.4947 55.1084 42.4297 55.9169 42.2159 56.0284C42.0022 56.1306 41.4075 56.1678 41.3331 55.7775C41.2588 55.3872 41.965 54.5137 41.5097 54.6531C41.0543 54.7925 40.3853 55.6753 40.664 56.0935C40.9428 56.5116 40.9428 57.3201 40.9428 57.3201C40.9428 57.3201 40.4968 57.7104 40.599 58.4445C40.7012 59.1787 41.2588 60.0987 41.2588 60.0987C41.2588 60.0987 42.1044 60.3774 42.7363 60.0987C43.3682 59.8199 43.8236 59.8199 43.8236 59.8199C43.8236 59.8199 43.3682 60.9071 42.4204 60.9071C41.4725 60.9071 39.2608 61.3625 39.4002 61.6784C39.5396 61.9944 41.9279 62.3103 42.6713 62.2453C43.4054 62.1709 44.502 60.9443 45.4498 59.4296C46.3977 57.9148 46.8252 56.2607 46.788 53.9097C46.7508 51.5493 45.8029 48.8079 45.8029 48.8079C45.8029 48.8079 43.9072 47.9995 42.2159 50.0346V50.0439Z" fill="#F1A882"/>
<path d="M5.10986 53.9004C6.5967 56.0656 3.80887 58.8534 5.79753 60.712C5.86258 60.935 5.9555 61.1487 6.06701 61.3532C6.61529 62.3754 7.68396 63.2024 8.61324 63.6113C9.72838 64.1131 9.70049 64.7543 10.5183 66.1297C11.336 67.505 13.9752 69.0569 15.9917 69.9304C18.0082 70.8039 18.6587 75.4875 18.7145 76.7792C18.761 77.8572 19.1791 79.6785 19.9597 80.8123C20.1177 81.0353 20.285 81.2397 20.4708 81.3977C22.4037 82.9961 24.2623 81.1375 26.2231 83.2842C26.3996 83.5351 26.6134 83.7581 26.855 83.9532C29.0388 85.7374 33.5922 85.31 33.9268 81.1003C33.9454 80.803 33.9268 80.5056 33.871 80.1989C33.8153 79.8923 33.7038 79.5856 33.5551 79.2697C33.3228 79.1581 33.0904 79.0931 32.8581 79.0838C32.6258 79.0652 32.3935 79.0931 32.1519 79.1489C31.9195 79.1674 31.6779 79.2696 31.427 79.3997C31.1761 79.5298 30.9159 79.6971 30.6464 79.8644C30.4977 79.9294 30.3398 79.9759 30.1911 80.0224C29.2525 80.2733 28.2489 79.6971 28.0166 78.7586C27.4125 76.3239 23.8069 73.9449 21.5488 75.1251C21.4001 74.8463 21.3629 74.4374 21.4652 74.0564C23.1007 72.2257 23.8441 71.6496 23.8999 69.41C23.8999 69.094 23.2215 67.0032 23.2587 66.7058C23.3795 66.3341 23.4817 65.9717 23.5746 65.6279C23.6675 65.284 23.7419 64.9588 23.8162 64.6335C23.9649 64.2525 24.0671 63.7879 24.1322 63.3139C24.1694 63.0816 24.1879 62.84 24.2158 62.617C24.2623 61.6227 23.333 59.7641 24.8942 59.0486C25.1079 58.8255 25.3495 58.6304 25.6004 58.4445C26.8364 57.506 28.221 56.8555 27.0594 55.1177C26.9014 54.9597 26.697 54.8296 26.4554 54.7274C26.2138 54.6159 25.9257 54.5323 25.619 54.4672C22.4223 53.2592 21.493 56.047 19.523 57.2365C19.3371 57.4688 19.1512 57.6918 18.9561 57.8963C18.7981 58.0635 18.6309 58.2215 18.4636 58.3516C18.2963 58.4817 18.1105 58.6025 17.9153 58.6954C17.3206 58.714 16.8188 58.6676 16.4099 58.5839C16.001 58.491 15.6758 58.3516 15.4249 58.1658C15.2483 56.9484 15.1461 55.7775 14.8487 54.6624C14.7743 54.3836 14.6907 54.1141 14.5885 53.8446C13.4919 52.0232 12.1724 48.9566 9.45887 48.111C9.1615 48.018 8.83626 47.953 8.50172 47.9158C4.75673 47.6928 3.82745 50.4806 4.9147 53.1012C5.0448 53.5844 5.11914 53.9004 5.11914 53.9004H5.10986Z" fill="#45200D"/>
<path d="M17.9246 76.6119C17.9246 76.6119 18.9189 78.4426 19.588 77.5598C20.2571 76.677 20.5266 76.3424 20.5823 75.4689C20.7031 73.5267 20.5823 73.1922 19.588 73.5081C18.5937 73.8334 18.1848 74.4467 18.4729 73.6011C18.7702 72.7554 19.2628 72.5789 18.7702 71.8726C18.2684 71.1664 16.6422 70.265 16.5028 69.884C16.3634 69.5029 19.4114 69.2706 17.8038 68.5365C16.1961 67.8024 15.2854 68.0068 14.6442 68.6852C14.003 69.3543 13.8544 71.6682 13.2689 70.1535C12.6835 68.6294 13.2968 67.6072 12.3582 67.2262C11.4197 66.8452 10.5461 67.728 10.3974 66.4921C10.2488 65.2654 10.3696 64.9123 10.3974 64.7915C10.4253 64.6707 8.84555 62.7099 8.38091 64.3548C7.91627 65.9903 6.5967 66.4085 8.38091 67.1054C10.1651 67.8117 11.4568 67.57 10.4625 69.2149C9.46816 70.8504 10.6112 71.5566 12.3954 72.3744C14.1796 73.1922 15.4992 72.8391 15.6479 73.5453C15.7965 74.2516 15.9545 73.3223 15.1832 74.4839C14.4119 75.6362 13.3711 77.2903 14.3655 77.3554C15.3598 77.4111 15.3598 78.8515 17.9339 76.6212L17.9246 76.6119Z" fill="#DA1C5C"/>
<path d="M20.9076 71.8912C21.0284 72.0492 21.3351 72.1607 21.5209 72.4302C21.7068 72.6996 21.8369 73.0156 21.8369 73.0156C21.8369 73.0156 21.967 72.6996 22.1528 72.4302C22.3387 72.1607 22.6453 72.0492 22.7662 71.8912C22.8405 71.789 22.9241 71.6496 22.9241 71.5195C22.9241 71.2686 22.7197 71.0734 22.4781 71.0734C22.2829 71.0734 21.9949 71.2686 21.8833 71.473C21.9205 71.2035 22.0413 70.6366 22.3945 70.3672C22.2458 70.4322 22.0506 70.4787 21.8369 70.4787C21.6231 70.4787 21.4466 70.4415 21.2979 70.3765C21.6417 70.6459 21.7625 71.2035 21.7997 71.473C21.6882 71.2686 21.4094 71.0734 21.205 71.0734C20.9541 71.0734 20.7589 71.2779 20.7589 71.5195C20.7589 71.6589 20.8333 71.7983 20.9169 71.8912H20.9076Z" fill="#F4AE00"/>
<path d="M25.3217 52.1255C25.5447 52.4042 26.0744 52.5994 26.3996 53.0826C26.7249 53.5565 26.9572 54.1141 26.9572 54.1141C26.9572 54.1141 27.1895 53.5565 27.5241 53.0826C27.8493 52.6087 28.3883 52.4042 28.602 52.1255C28.7414 51.9489 28.8808 51.698 28.8808 51.4564C28.8808 51.0196 28.5277 50.6572 28.0816 50.6572C27.7285 50.6572 27.2267 51.001 27.0315 51.3727C27.0966 50.8895 27.3103 49.8952 27.9329 49.4212C27.6727 49.5421 27.3289 49.6071 26.9479 49.6071C26.5669 49.6071 26.2509 49.542 25.9907 49.4305C26.6041 49.9045 26.8085 50.8895 26.8736 51.3727C26.6877 51.0103 26.1766 50.6572 25.8235 50.6572C25.3867 50.6572 25.0243 51.0103 25.0243 51.4564C25.0243 51.698 25.1637 51.9489 25.3031 52.1255H25.3217Z" fill="black"/>
<path d="M28.6299 77.3275C28.5649 77.0115 28.2582 76.8071 27.9422 76.8628C27.6263 76.9279 27.4218 77.2345 27.4776 77.5505C27.5426 77.8664 27.8493 78.0802 28.1653 78.0151C28.4812 77.9501 28.695 77.6434 28.6299 77.3275Z" fill="#D8EFF6"/>
<path d="M27.7099 78.3218C27.6449 78.0059 27.3382 77.8014 27.0223 77.8572C26.7063 77.9222 26.5019 78.2289 26.5576 78.5448C26.6227 78.8608 26.9293 79.0745 27.2453 79.0095C27.5612 78.9444 27.7657 78.6378 27.7099 78.3218Z" fill="#D8EFF6"/>
<path d="M29.8751 76.9558C29.8101 76.6398 29.5034 76.4354 29.1875 76.4911C28.8715 76.5562 28.6671 76.8628 28.7228 77.1788C28.7879 77.4947 29.0945 77.6992 29.4105 77.6434C29.7264 77.5784 29.9309 77.2717 29.8751 76.9558Z" fill="#D8EFF6"/>
<path d="M31.2598 76.835C31.1947 76.519 30.8881 76.3053 30.5721 76.3703C30.2562 76.4354 30.0517 76.742 30.1075 77.058C30.1725 77.3739 30.4792 77.5784 30.7952 77.5226C31.1111 77.4576 31.3155 77.1509 31.2598 76.835Z" fill="#D8EFF6"/>
<path d="M32.6165 76.835C32.5515 76.519 32.2448 76.3146 31.9289 76.3703C31.6129 76.4354 31.4085 76.742 31.4642 77.058C31.5293 77.3739 31.8359 77.5784 32.1519 77.5226C32.4679 77.4576 32.6723 77.1509 32.6165 76.835Z" fill="#D8EFF6"/>
<path d="M33.7131 77.281C33.6666 77.0208 33.4157 76.8535 33.1555 76.9093C32.8953 76.9558 32.728 77.2067 32.7838 77.4669C32.8303 77.7271 33.0812 77.8943 33.3414 77.8386C33.6016 77.7828 33.7688 77.5319 33.7224 77.281H33.7131Z" fill="#D8EFF6"/>
</g>
<defs>
<clipPath id="clip0_3556_1190">
<rect width="65.4895" height="95" fill="white" transform="translate(0.489563 0.545914)"/>
</clipPath>
</defs>
</svg>
