<svg width="20" height="21" viewBox="0 0 20 21" fill="none" xmlns="http://www.w3.org/2000/svg">
<rect y="0.580078" width="20" height="20" rx="10" fill="url(#paint0_linear_4548_559)"/>
<path d="M9.64779 16.9537V4.42627H10.4503V16.9537H9.64779ZM11.9624 8.43407C11.9168 8.0067 11.7243 7.67394 11.385 7.43579C11.049 7.19764 10.6118 7.07856 10.0735 7.07856C9.69509 7.07856 9.37049 7.13565 9.09971 7.24984C8.82894 7.36402 8.62178 7.51898 8.47824 7.71472C8.33469 7.91046 8.26129 8.13393 8.25803 8.38514C8.25803 8.59393 8.30533 8.77499 8.39994 8.92832C8.49781 9.08165 8.62994 9.21214 8.79632 9.3198C8.9627 9.42419 9.14702 9.51228 9.34928 9.58405C9.55155 9.65582 9.75545 9.71618 9.96098 9.76511L10.9005 10C11.279 10.0881 11.6427 10.2072 11.9918 10.3572C12.3441 10.5073 12.6589 10.6965 12.9362 10.9249C13.2168 11.1532 13.4386 11.4289 13.6018 11.7519C13.7649 12.0749 13.8464 12.4533 13.8464 12.8872C13.8464 13.4744 13.6964 13.9915 13.3962 14.4384C13.0961 14.8821 12.6622 15.2296 12.0946 15.4808C11.5302 15.7287 10.8467 15.8527 10.0442 15.8527C9.26446 15.8527 8.58753 15.732 8.01335 15.4905C7.44244 15.2491 6.9955 14.8968 6.67252 14.4335C6.35281 13.9703 6.17991 13.4059 6.15381 12.7404H7.93995C7.96605 13.0894 8.07371 13.3798 8.26292 13.6114C8.45214 13.8431 8.69845 14.016 9.00184 14.1301C9.30851 14.2443 9.65105 14.3014 10.0295 14.3014C10.4242 14.3014 10.77 14.2427 11.0669 14.1252C11.3671 14.0045 11.6019 13.8382 11.7716 13.6261C11.9412 13.4108 12.0277 13.1596 12.0309 12.8725C12.0277 12.6115 11.951 12.3962 11.8009 12.2266C11.6509 12.0537 11.4405 11.9101 11.1697 11.7959C10.9022 11.6785 10.589 11.5741 10.2301 11.4827L9.08993 11.1891C8.26455 10.9771 7.61208 10.6557 7.13252 10.2251C6.65621 9.79121 6.41806 9.2154 6.41806 8.49769C6.41806 7.9072 6.57791 7.39012 6.89763 6.94644C7.2206 6.50276 7.65939 6.15858 8.21399 5.9139C8.76859 5.66596 9.39659 5.54199 10.098 5.54199C10.8092 5.54199 11.4323 5.66596 11.9673 5.9139C12.5056 6.15858 12.9281 6.4995 13.2347 6.93665C13.5414 7.37054 13.6996 7.86968 13.7094 8.43407H11.9624Z" fill="white"/>
<defs>
<linearGradient id="paint0_linear_4548_559" x1="-0.846153" y1="7.80757" x2="23.1735" y2="-2.1613" gradientUnits="userSpaceOnUse">
<stop stop-color="#2D83EC"/>
<stop offset="1" stop-color="#1AC9FF"/>
</linearGradient>
</defs>
</svg>
