<svg width="16" height="17" viewBox="0 0 16 17" fill="none" xmlns="http://www.w3.org/2000/svg">
<path d="M10.16 1.83301H7.564C6.388 1.83301 5.456 1.83301 4.72733 1.93167C3.97667 2.03301 3.36933 2.24634 2.89067 2.72701C2.41133 3.20767 2.19867 3.81767 2.098 4.57101C2 5.30301 2 6.23834 2 7.41901V11.311C2 12.3163 2.61333 13.1777 3.48467 13.539C3.44 12.9323 3.44 12.0823 3.44 11.3743V8.03434C3.44 7.18034 3.44 6.44367 3.51867 5.85434C3.60333 5.22234 3.794 4.61701 4.28333 4.12567C4.77267 3.63434 5.376 3.44301 6.00533 3.35767C6.592 3.27901 7.32533 3.27901 8.17667 3.27901H10.2233C11.074 3.27901 11.806 3.27901 12.3933 3.35767C12.2174 2.90854 11.9102 2.52283 11.5118 2.25086C11.1135 1.97889 10.6424 1.83328 10.16 1.83301Z" fill="white"/>
<path d="M4.40002 8.09752C4.40002 6.28019 4.40002 5.37152 4.96269 4.80685C5.52469 4.24219 6.42936 4.24219 8.24002 4.24219H10.16C11.97 4.24219 12.8754 4.24219 13.438 4.80685C14.0007 5.37152 14 6.28019 14 8.09752V11.3109C14 13.1282 14 14.0369 13.438 14.6015C12.8754 15.1662 11.97 15.1662 10.16 15.1662H8.24002C6.43002 15.1662 5.52469 15.1662 4.96269 14.6015C4.40002 14.0369 4.40002 13.1282 4.40002 11.3109V8.09752Z" fill="white"/>
</svg>
