<svg width="10" height="10" viewBox="0 0 10 10" fill="none" xmlns="http://www.w3.org/2000/svg">
<path d="M4.70033 8.08007L8.3982 4.3822C7.77611 4.12232 7.21111 3.74283 6.73526 3.26524C6.25744 2.78928 5.87777 2.22411 5.6178 1.6018L1.91993 5.29967C1.63144 5.58816 1.48694 5.73265 1.36295 5.89165C1.21665 6.07938 1.09109 6.28239 0.988462 6.49713C0.901965 6.67912 0.837468 6.87311 0.708472 7.2601L0.0274968 9.30153C-0.00384524 9.395 -0.00849529 9.49536 0.0140692 9.59132C0.0366336 9.68729 0.0855182 9.77506 0.155228 9.84477C0.224938 9.91448 0.312709 9.96337 0.408677 9.98593C0.504644 10.0085 0.605003 10.0038 0.698473 9.9725L2.7399 9.29153C3.12739 9.16253 3.32088 9.09803 3.50287 9.01154C3.71853 8.90887 3.92036 8.78405 4.10835 8.63705C4.26734 8.51306 4.41184 8.36856 4.70033 8.08007ZM9.42416 3.35624C9.79286 2.98754 10 2.48747 10 1.96604C10 1.44461 9.79286 0.944544 9.42416 0.57584C9.05546 0.207136 8.55539 3.88493e-09 8.03396 0C7.51253 -3.88493e-09 7.01246 0.207136 6.64376 0.57584L6.20027 1.01932L6.21927 1.07482C6.43776 1.70019 6.79541 2.26777 7.26524 2.73476C7.74619 3.21865 8.33365 3.58335 8.98068 3.79972L9.42416 3.35624Z" fill="white"/>
</svg>
