<svg width="34" height="34" viewBox="0 0 34 34" fill="none" xmlns="http://www.w3.org/2000/svg">
<path d="M12.7501 21.2501H8.35839C7.79172 21.2501 7.37239 20.9966 7.10039 20.4894C6.82839 19.9822 6.85814 19.4921 7.18964 19.0189L17.7792 3.78972C18.0153 3.45917 18.3223 3.22919 18.7001 3.09981C19.0778 2.97042 19.4674 2.97608 19.8688 3.11681C20.2702 3.25753 20.5653 3.50544 20.7542 3.86056C20.9431 4.21567 21.0139 4.59344 20.9667 4.99389L19.8334 14.1668H25.323C25.9369 14.1668 26.368 14.4383 26.6164 14.9814C26.8648 15.5244 26.7878 16.0321 26.3855 16.5043L14.7334 30.4585C14.4737 30.7654 14.1549 30.9661 13.7771 31.0606C13.3994 31.155 13.0334 31.1196 12.6792 30.9543C12.3251 30.789 12.0479 30.5354 11.8476 30.1936C11.6474 29.8517 11.5704 29.4796 11.6167 29.0772L12.7501 21.2501Z" fill="white"/>
</svg>
