<svg width="7" height="11" viewBox="0 0 7 11" fill="none" xmlns="http://www.w3.org/2000/svg">
<path d="M2.54033 7.2207C2.47404 7.2207 2.4203 7.16696 2.4203 7.10068V7.10068C2.42338 6.54362 2.4757 6.10044 2.57726 5.77113C2.6819 5.44182 2.82963 5.17714 3.02044 4.9771C3.21126 4.77397 3.44362 4.58777 3.71753 4.4185C3.90527 4.30155 4.073 4.17383 4.22073 4.03533C4.37153 3.89376 4.49002 3.7368 4.57619 3.56445C4.66237 3.38903 4.70546 3.1936 4.70546 2.97816C4.70546 2.73503 4.64852 2.52421 4.53465 2.3457C4.42077 2.1672 4.26689 2.02871 4.073 1.93022C3.88218 1.83174 3.66829 1.78249 3.43131 1.78249C3.21279 1.78249 3.00505 1.8302 2.80808 1.9256C2.61419 2.01793 2.45261 2.15951 2.32335 2.35032V2.35032C2.08704 2.7019 1.77906 3.06587 1.35544 3.06587H1.3219C0.853724 3.06587 0.459445 2.67161 0.596092 2.22382C0.666336 1.99363 0.765054 1.78497 0.892245 1.59783C1.16308 1.20389 1.52009 0.90844 1.96327 0.71147C2.40953 0.5145 2.90195 0.416016 3.44054 0.416016C4.02837 0.416016 4.54542 0.519117 4.99168 0.72532C5.44101 0.931522 5.79033 1.22544 6.03962 1.60707C6.29198 1.98562 6.41817 2.43496 6.41817 2.95508C6.41817 3.30593 6.36123 3.61985 6.24736 3.89684C6.13656 4.17383 5.97806 4.42004 5.77186 4.63548C5.56566 4.85091 5.32099 5.04327 5.03784 5.21254C4.78855 5.36642 4.58389 5.52646 4.42385 5.69265C4.26689 5.85884 4.14994 6.05427 4.073 6.27894C3.99913 6.50053 3.96066 6.77444 3.95759 7.10068V7.10068C3.95759 7.16696 3.90385 7.2207 3.83756 7.2207H2.54033ZM3.22357 10.1014C2.94658 10.1014 2.70806 10.0029 2.50801 9.80593C2.30796 9.60896 2.20794 9.3689 2.20794 9.08576C2.20794 8.80877 2.30796 8.57179 2.50801 8.37482C2.70806 8.17785 2.94658 8.07937 3.22357 8.07937C3.49748 8.07937 3.73446 8.17785 3.9345 8.37482C4.13763 8.57179 4.23919 8.80877 4.23919 9.08576C4.23919 9.2735 4.19149 9.44431 4.09608 9.59819C4.00375 9.75207 3.88064 9.87518 3.72676 9.96751C3.57596 10.0568 3.40823 10.1014 3.22357 10.1014Z" fill="white"/>
</svg>
