<svg width="26" height="26" viewBox="0 0 26 26" fill="none" xmlns="http://www.w3.org/2000/svg">
<g clip-path="url(#clip0_4548_520)">
<path d="M7.69344 20.9507C9.97779 20.9507 11.93 19.3229 13.0023 18.2011C14.0758 19.3229 16.0225 20.9507 18.3068 20.9507C22.2398 20.9507 24.9894 18.2077 24.9894 14.2824C24.9894 9.95457 21.5766 7.1566 18.276 4.45212C16.7176 3.17411 15.103 1.85431 13.8657 0.38714C13.7633 0.266041 13.6358 0.16868 13.4921 0.101825C13.3483 0.03497 13.1917 0.000223413 13.0331 0L12.9693 0C12.8106 0.000358899 12.6539 0.0351603 12.51 0.102001C12.366 0.168841 12.2383 0.266127 12.1357 0.38714C10.8972 1.85212 9.28379 3.17301 7.72533 4.45102C4.42364 7.1555 1.00977 9.95237 1.00977 14.2813C1.01087 18.2077 3.75824 20.9507 7.69344 20.9507Z" fill="white"/>
<path d="M8.9187 25.9999C11.6187 25.522 14.3816 25.522 17.0816 25.9999C14.3816 21.9393 13.0002 14.0854 13.0002 14.0854C13.0002 14.0854 11.6397 21.9393 8.9187 25.9999Z" fill="white"/>
</g>
<defs>
<clipPath id="clip0_4548_520">
<rect width="26" height="26" fill="white"/>
</clipPath>
</defs>
</svg>
