<svg width="13" height="13" viewBox="0 0 13 13" fill="none" xmlns="http://www.w3.org/2000/svg">
<path d="M11.4698 7.13646C11.4977 6.93333 11.5116 6.72344 11.5116 6.5C11.5116 6.28333 11.4977 6.06667 11.4629 5.86354L12.8759 4.79375C12.9368 4.74493 12.9784 4.67709 12.9936 4.60178C13.0088 4.52646 12.9967 4.44835 12.9594 4.38073L11.623 2.13281C11.5834 2.06501 11.5206 2.01291 11.4455 1.98567C11.3704 1.95843 11.2878 1.95779 11.2123 1.98386L9.54872 2.63386C9.20069 2.37656 8.83178 2.1599 8.42111 1.9974L8.17053 0.277606C8.1582 0.2001 8.11771 0.129465 8.05641 0.0785275C7.9951 0.0275898 7.91705 -0.000271852 7.83643 1.9997e-06H5.16357C4.99652 1.9997e-06 4.86427 0.115106 4.83643 0.277606L4.58585 1.9974C4.17518 2.1599 3.79931 2.38333 3.45824 2.63386L1.79467 1.98386C1.64154 1.92969 1.46752 1.98386 1.384 2.13281L0.0545311 4.38073C-0.0289955 4.52292 -0.00115341 4.69896 0.138058 4.79375L1.55105 5.86354C1.51625 6.06667 1.4884 6.29011 1.4884 6.5C1.4884 6.7099 1.50233 6.93333 1.53713 7.13646L0.124136 8.20625C0.0632484 8.25507 0.021645 8.32292 0.00641449 8.39823C-0.00881599 8.47354 0.00326887 8.55166 0.04061 8.61927L1.37704 10.8672C1.46056 11.0161 1.63458 11.0635 1.78771 11.0161L3.45128 10.3661C3.79931 10.6234 4.16822 10.8401 4.57889 11.0026L4.82947 12.7224C4.86427 12.8849 4.99652 13 5.16357 13H7.83643C8.00348 13 8.14269 12.8849 8.16357 12.7224L8.41415 11.0026C8.82482 10.8401 9.20069 10.6234 9.54176 10.3661L11.2053 11.0161C11.3585 11.0703 11.5325 11.0161 11.616 10.8672L12.9524 8.61927C13.036 8.47031 13.0012 8.30104 12.8689 8.20625L11.4698 7.13646ZM6.5 8.9375C5.12181 8.9375 3.9942 7.84063 3.9942 6.5C3.9942 5.15938 5.12181 4.0625 6.5 4.0625C7.87819 4.0625 9.0058 5.15938 9.0058 6.5C9.0058 7.84063 7.87819 8.9375 6.5 8.9375Z" fill="#4D4D4D"/>
</svg>
