<svg width="26" height="26" viewBox="0 0 26 26" fill="none" xmlns="http://www.w3.org/2000/svg">
<path fill-rule="evenodd" clip-rule="evenodd" d="M11.2191 2.04183C10.2849 2.18337 9.1942 2.65968 8.4377 3.25658C7.49122 4.00335 6.76998 5.09333 6.45135 6.25836C6.24439 7.01507 6.22874 8.23531 6.41661 8.9685C6.58481 9.62502 6.87999 10.281 7.25313 10.8277C7.62536 11.3729 8.43329 12.1522 8.94585 12.4603L9.3096 12.679L9.27394 12.8964C9.19563 13.3738 8.80643 13.8321 8.34385 13.9914C7.80285 14.1777 6.75777 14.6744 6.24629 14.9883C4.62861 15.9808 3.57613 17.2065 3.16004 18.5827C3.05611 18.9264 3.02962 19.1837 3.00755 20.0614C2.98995 20.7633 3.00319 21.2045 3.04648 21.3613C3.12582 21.6485 3.3917 21.9565 3.68711 22.1034C3.89596 22.2072 4.05355 22.2119 7.37817 22.2119C10.7326 22.2119 10.8587 22.2081 11.0748 22.1006C11.3491 21.9642 11.5604 21.7014 11.645 21.3914C11.7117 21.1469 11.7092 21.1312 11.4747 20.312C11.3755 19.9657 11.3588 19.7812 11.3785 19.2503C11.4066 18.4918 11.5293 18.0832 11.908 17.4877C12.2912 16.8852 12.7444 16.4984 13.444 16.1768C13.7692 16.0273 14.0999 15.8891 14.1788 15.8698C14.406 15.8143 14.8611 15.4472 15.0688 15.1523C15.4482 14.6131 15.4682 14.0642 15.1322 13.408C14.7943 12.7481 14.7928 12.7576 15.2741 12.4486C16.158 11.8812 16.8538 11.1101 17.3305 10.1699C18.9657 6.94422 17.1362 3.07481 13.5477 2.16962C12.9264 2.01288 11.8134 1.9518 11.2191 2.04183ZM17.1305 14.6172C16.822 14.8538 16.8086 14.9324 16.8086 16.5061V17.9584L15.2724 17.9757C13.5726 17.9948 13.5419 18.001 13.3091 18.3732C13.2151 18.5234 13.1973 18.6562 13.1972 19.2101C13.1969 19.94 13.2583 20.1632 13.513 20.3585C13.6663 20.476 13.7173 20.4796 15.2398 20.4796H16.8086V21.9632C16.8086 23.5708 16.8212 23.6462 17.1305 23.8833C17.2683 23.989 17.3582 24 18.083 24C18.7172 24 18.916 23.9812 19.0403 23.9097C19.3516 23.7304 19.3575 23.699 19.3883 22.0442L19.417 20.5076L20.9935 20.4796C22.6912 20.4495 22.7234 20.4438 22.9074 20.1403C22.9796 20.0211 23 19.831 23 19.278C23 18.4738 22.9405 18.279 22.6408 18.1023C22.4713 18.0023 22.3242 17.9915 20.9219 17.9757L19.3883 17.9584V16.4464V14.9344L19.1658 14.7175L18.9432 14.5005H18.113C17.3578 14.5005 17.2689 14.5111 17.1305 14.6172Z" fill="white"/>
</svg>
