<svg width="24" height="23" viewBox="0 0 24 23" fill="none" xmlns="http://www.w3.org/2000/svg">
<path fill-rule="evenodd" clip-rule="evenodd" d="M5.0968 0.681526C4.21791 1.1231 3.63589 1.70981 3.36886 2.42301C3.13506 3.04798 3.11636 3.05567 1.72688 3.11084L0.321289 3.16659V3.83942V4.51226L1.74439 4.56839C3.03975 4.61933 3.17784 4.66413 3.28211 5.06571C3.46218 5.75892 4.16617 6.50558 5.05084 6.94157C6.74375 7.77608 8.90288 7.09037 9.81839 5.42789L10.2669 4.61318L17.1335 4.56282L23.9999 4.51226V3.83942V3.16659L17.1351 3.11372L10.2703 3.06105L9.7368 2.12812C9.34581 1.44452 8.97014 1.08619 8.33081 0.787064C7.2995 0.304738 5.9351 0.260139 5.0968 0.681526ZM5.32284 2.61602C4.58721 3.32692 4.6095 4.26331 5.37995 5.00766C6.35196 5.94655 7.9438 5.59706 8.36942 4.35097C8.96994 2.59276 6.69082 1.29457 5.32284 2.61602ZM15.8417 8.37106C15.0028 8.79244 14.4238 9.35513 14.0541 10.1079L13.7363 10.7548L7.02869 10.8056L0.321289 10.8561V11.529V12.2018L7.03526 12.2979L13.7494 12.394L14.1201 13.0621C15.2398 15.08 17.9431 15.6188 19.6561 14.1657C20.0533 13.8291 20.4986 13.2747 20.6461 12.9338C20.9117 12.3194 20.9272 12.3137 22.457 12.2579L23.9999 12.2018V11.529V10.8561L22.4496 10.7998C20.9698 10.7462 20.89 10.7198 20.6958 10.2231C20.4154 9.50565 19.5495 8.65019 18.783 8.33338C17.9338 7.98216 16.5809 7.99965 15.8417 8.37106ZM16.0317 10.2708C14.9178 11.3467 15.6901 13.2591 17.2385 13.2591C18.2149 13.2591 18.7074 12.9665 19.0449 12.1864C19.2912 11.6166 19.2912 11.4413 19.0449 10.8715C18.7074 10.0914 18.2149 9.79881 17.2385 9.79881C16.7411 9.79881 16.3698 9.94395 16.0317 10.2708ZM8.67843 16.0306C7.9434 16.3476 7.08102 17.2167 6.80763 17.9159L6.60288 18.4397L3.46198 18.4926L0.321289 18.5457V19.2185V19.8913L3.46198 19.9444L6.60288 19.9972L6.80763 20.5211C7.29413 21.7653 8.70987 22.6788 10.1515 22.6788C11.6255 22.6788 12.9219 21.875 13.4798 20.6155L13.755 19.994L18.8773 19.9427L23.9999 19.8913V19.2185V18.5457L18.87 18.4943L13.7401 18.443L13.5345 17.9176C13.2522 17.1956 12.3882 16.3405 11.6197 16.0229C10.8159 15.6905 9.45863 15.6942 8.67843 16.0306ZM8.86846 17.9603C8.5089 18.3075 8.37996 18.6399 8.37996 19.2185C8.37996 19.7971 8.5089 20.1295 8.86846 20.4767C9.22781 20.8241 9.57185 20.9486 10.1708 20.9486C11.2908 20.9486 11.9616 20.3006 11.9616 19.2185C11.9616 18.1364 11.2908 17.4883 10.1708 17.4883C9.57185 17.4883 9.22781 17.6129 8.86846 17.9603Z" fill="white"/>
</svg>
