<svg width="12" height="12" viewBox="0 0 12 12" fill="none" xmlns="http://www.w3.org/2000/svg">
<g clip-path="url(#clip0_4688_503)">
<path d="M7.89787 7.37944L7.8981 7.37961C7.92689 7.40117 7.93209 7.44139 7.91125 7.46907L7.90965 7.47121C7.89806 7.48682 7.88065 7.49604 7.85852 7.49604L7.85805 7.49604C7.84462 7.49606 7.83156 7.4917 7.82084 7.48362L7.82013 7.48309L5.96112 6.08882L5.9603 6.08821C5.94517 6.07692 5.93521 6.05811 5.93521 6.037V3.24846C5.93521 3.21236 5.96387 3.18369 5.99998 3.18369C6.03608 3.18369 6.06474 3.21236 6.06474 3.24846V5.8046V6.0046L6.22474 6.1246L7.89787 7.37944Z" fill="white" stroke="white" stroke-width="0.8"/>
<path d="M5.91611 11C8.67754 11 10.9161 8.76142 10.9161 6C10.9161 3.23858 8.67754 1 5.91611 1C3.15469 1 0.916115 3.23858 0.916115 6C0.916115 8.76142 3.15469 11 5.91611 11Z" stroke="white" stroke-width="0.8" stroke-linecap="round" stroke-linejoin="round"/>
</g>
<defs>
<clipPath id="clip0_4688_503">
<rect width="12" height="12" fill="white"/>
</clipPath>
</defs>
</svg>
