<svg width="18" height="17" viewBox="0 0 18 17" fill="none" xmlns="http://www.w3.org/2000/svg">
<path d="M17.661 3.8901L9.81501 16.3841C9.71904 16.5354 9.58627 16.6599 9.42911 16.746C9.27195 16.8321 9.09554 16.8769 8.91636 16.8763C8.73718 16.8757 8.56107 16.8297 8.40449 16.7426C8.24792 16.6554 8.11598 16.5301 8.02102 16.3781L0.328016 3.8841C0.112094 3.53436 -0.00153249 3.13112 1.56103e-05 2.7201C0.00922894 2.11291 0.259239 1.53424 0.695059 1.11136C1.13088 0.688474 1.71682 0.456014 2.32402 0.4651H15.686C16.963 0.4641 18 1.4701 18 2.7141C18 3.1271 17.884 3.5351 17.661 3.8901ZM2.21802 3.4701L7.94102 12.2961V2.5821H2.81602C2.22402 2.5821 1.95902 2.9741 2.21802 3.4721M10.058 12.2981L15.783 3.4701C16.048 2.9731 15.777 2.5801 15.184 2.5801H10.06L10.058 12.2981Z" fill="white"/>
</svg>
