<svg width="18" height="18" viewBox="0 0 18 18" fill="none" xmlns="http://www.w3.org/2000/svg">
<path d="M9 15.4L0 6.52L3.433 1H14.567L18 6.52L9 15.4ZM9.9 7.3V6.202C11.52 6.282 13.032 6.598 13.5 7.007C12.956 7.484 11.007 7.831 9 7.831C6.993 7.831 5.044 7.484 4.5 7.007C4.963 6.597 6.48 6.287 8.1 6.197V7.3H9.9ZM4.5 7.003V7.664C4.963 8.074 6.475 8.384 8.1 8.474V10.9H9.9V8.47C11.52 8.389 13.036 8.074 13.5 7.664V6.346C13.036 5.936 11.52 5.621 9.9 5.536V4.6H12.6V3.25H5.4V4.6H8.1V5.536C6.475 5.621 4.963 5.936 4.5 6.346V7.003Z" fill="white"/>
<rect x="10" y="9" width="8" height="8" rx="4" fill="white"/>
<path d="M16.6964 12.0436L14.299 15.85C14.2697 15.8961 14.2291 15.9341 14.1811 15.9603C14.1331 15.9865 14.0792 16.0002 14.0244 16C13.9697 15.9998 13.9159 15.9858 13.868 15.9593C13.8202 15.9327 13.7799 15.8945 13.7509 15.8482L11.4002 12.0417C11.3342 11.9352 11.2995 11.8123 11.3 11.6871C11.3028 11.5021 11.3792 11.3258 11.5124 11.197C11.6455 11.0681 11.8246 10.9973 12.0101 11.0001H16.0929C16.4831 10.9998 16.8 11.3063 16.8 11.6853C16.8 11.8111 16.7645 11.9354 16.6964 12.0436ZM11.9777 11.9156L13.7264 14.6046V11.6451H12.1604C11.9795 11.6451 11.8986 11.7639 11.9777 11.9156ZM14.3733 14.6052L16.1226 11.9156C16.2035 11.7642 16.1207 11.6444 15.9395 11.6444H14.3739L14.3733 14.6052Z" fill="#23A8F6"/>
</svg>
