<svg width="15" height="14" viewBox="0 0 15 14" fill="none" xmlns="http://www.w3.org/2000/svg">
<path d="M13.5 3.03516V1.53516C13.5 0.707906 12.8273 0.0351562 12 0.0351562H2.25C1.0095 0.0351562 0 1.04466 0 2.28516V11.2852C0 12.9359 1.3455 13.5352 2.25 13.5352H13.5C14.3273 13.5352 15 12.8624 15 12.0352V4.53516C15 3.70791 14.3273 3.03516 13.5 3.03516ZM12 9.78516H10.5V6.78516H12V9.78516ZM2.25 3.03516C2.05689 3.02652 1.87455 2.94373 1.74096 2.80402C1.60736 2.66431 1.5328 2.47846 1.5328 2.28516C1.5328 2.09185 1.60736 1.906 1.74096 1.76629C1.87455 1.62659 2.05689 1.54379 2.25 1.53516H12V3.03516H2.25Z" fill="white"/>
</svg>
