<svg width="294" height="212" viewBox="0 0 294 212" fill="none" xmlns="http://www.w3.org/2000/svg">
<path d="M148.291 186.006C147.638 186.049 146.929 186.107 146.171 186.177C145.901 186.204 145.625 186.23 145.341 186.261C145.186 186.276 145.03 186.294 144.871 186.311C144.035 186.401 143.149 186.507 142.219 186.624C142.009 186.651 141.795 186.678 141.579 186.706C140.652 186.826 139.687 186.96 138.692 187.104C138.377 187.149 138.06 187.197 137.738 187.244C137.578 187.267 137.417 187.292 137.256 187.316C137.052 187.347 136.846 187.378 136.64 187.409C136.513 187.43 136.385 187.448 136.257 187.469C135.804 187.539 135.346 187.609 134.885 187.683C132.499 188.062 129.998 188.489 127.456 188.95C126.838 189.061 126.215 189.175 125.591 189.292C125.272 189.35 124.952 189.409 124.635 189.471C124.497 189.496 124.357 189.523 124.217 189.55C123.401 189.702 122.585 189.859 121.769 190.019C108.862 192.539 96.2841 195.627 93.5913 197.469C93.7458 182.617 91.5599 162.082 82.2496 150.512C72.8569 138.841 55.0584 131.541 41.5617 138.058C29.8327 143.725 22.4714 155.557 17.978 166.419C16.0949 170.968 14.7146 175.346 13.7257 179.03C13.3012 180.61 12.951 182.063 12.6626 183.346C12.4874 183.338 12.3123 183.326 12.1351 183.305C11.8508 183.274 11.5644 183.231 11.2781 183.171C11.276 183.14 11.274 183.111 11.274 183.08C11.2595 182.751 11.243 182.409 11.2286 182.056V182.05C11.206 181.486 11.1833 180.89 11.1627 180.27C11.1545 180.021 11.1462 179.767 11.138 179.508C11.1318 179.306 11.1256 179.102 11.1215 178.896C11.0226 175.047 11.0185 170.356 11.3131 165.204C11.9847 153.394 14.216 139.166 20.4256 127.134C21.602 124.856 22.9206 122.655 24.3957 120.564C24.7995 119.995 25.2136 119.433 25.6401 118.879C26.0666 118.327 26.5054 117.783 26.9566 117.247C27.4098 116.713 27.8734 116.188 28.3493 115.671C28.6666 115.329 28.9901 114.989 29.3197 114.655C29.4845 114.488 29.6514 114.322 29.8183 114.157C35.0142 109.045 41.6112 105.081 49.9799 102.959C61.1011 100.141 72.5294 99.9883 83.5435 102.088C83.9226 102.16 84.2996 102.234 84.6787 102.312H84.6807C85.0578 102.391 85.4348 102.471 85.8118 102.553C86.3784 102.677 86.9429 102.807 87.5074 102.943C87.8824 103.035 88.2553 103.128 88.6302 103.223C90.128 103.606 91.6155 104.031 93.0907 104.498C93.4595 104.616 93.8262 104.733 94.1929 104.855C95.1118 105.16 96.0245 105.479 96.9331 105.813C97.6583 106.081 98.3814 106.359 99.1004 106.645H99.1025C100.001 107.006 100.895 107.381 101.781 107.768C101.781 107.768 101.782 107.768 101.783 107.768C106.221 109.715 110.508 112.035 114.585 114.692C114.911 114.902 115.236 115.119 115.562 115.337C116.856 116.207 118.127 117.109 119.375 118.044C120 118.512 120.618 118.988 121.23 119.474C122.146 120.201 123.051 120.947 123.941 121.71C125.719 123.236 127.439 124.835 129.094 126.504C129.646 127.06 130.19 127.625 130.727 128.195C131.801 129.337 132.845 130.509 133.857 131.71C134.065 131.957 134.271 132.204 134.475 132.454C136.824 135.32 138.966 138.375 140.68 141.655C140.68 141.655 140.683 141.655 140.683 141.657C140.979 142.228 141.263 142.804 141.533 143.388C141.735 143.826 141.931 144.267 142.116 144.714C142.629 145.944 143.074 147.197 143.468 148.468C143.627 148.975 143.777 149.486 143.919 149.999C144.564 152.308 145.067 154.663 145.52 157.016C145.893 158.934 146.21 160.974 146.482 163.084C146.597 163.986 146.707 164.901 146.81 165.826V165.83C147.115 168.605 147.356 171.461 147.56 174.285C147.562 174.285 147.56 174.287 147.56 174.287C147.718 176.483 147.854 178.663 147.98 180.771C148.087 182.58 148.186 184.335 148.287 186.006H148.291Z" fill="white"/>
<path d="M121.763 190.02C121.763 190.02 121.766 190.02 121.767 190.019V190.022H121.763V190.02Z" fill="#D8F6FF"/>
<path d="M148.291 186.006C147.638 186.049 146.929 186.107 146.171 186.177C145.901 186.204 145.625 186.23 145.341 186.261C145.186 186.276 145.029 186.294 144.871 186.311C144.034 186.401 143.148 186.507 142.219 186.624C142.007 186.651 141.795 186.678 141.579 186.706C140.651 186.826 139.687 186.96 138.692 187.104C138.377 187.149 138.06 187.197 137.738 187.244C137.577 187.267 137.417 187.292 137.256 187.316C137.052 187.347 136.846 187.378 136.64 187.409C136.512 187.43 136.385 187.448 136.257 187.469C135.804 187.539 135.346 187.609 134.885 187.683C132.499 188.062 129.998 188.489 127.455 188.95C126.835 189.061 126.215 189.177 125.591 189.292C125.274 189.352 124.954 189.412 124.635 189.471C124.497 189.496 124.357 189.523 124.217 189.55C123.401 189.704 122.585 189.861 121.769 190.019C121.777 189.432 122.529 128.243 61.0515 122.501C33.3679 119.913 21.0435 145.194 15.6353 165.379C14.2158 170.676 13.2742 175.62 12.6562 179.617C12.446 180.96 12.275 182.197 12.1349 183.305C11.8506 183.274 11.5642 183.231 11.2779 183.171C11.2758 183.14 11.2737 183.111 11.2737 183.08C11.2573 182.751 11.2428 182.409 11.2284 182.056V182.05C11.2037 181.484 11.181 180.89 11.1604 180.27C11.1522 180.021 11.1439 179.765 11.1378 179.508C11.1316 179.306 11.1254 179.102 11.1213 178.896C11.0203 175.047 11.0183 170.358 11.3108 165.206C11.6054 160.038 12.1988 154.408 13.2928 148.703C14.6979 141.366 16.9333 133.904 20.4254 127.134C21.5997 124.856 22.9183 122.655 24.3955 120.564C24.7972 119.995 25.2113 119.433 25.6399 118.879C26.0664 118.327 26.5052 117.783 26.9564 117.247C27.4076 116.713 27.8711 116.188 28.3491 115.671C28.6664 115.329 28.9899 114.989 29.3195 114.655C29.4843 114.488 29.6512 114.322 29.8181 114.157C35.014 109.045 41.611 105.081 49.9797 102.959C61.1009 100.141 72.5292 99.9883 83.5433 102.088C83.9223 102.16 84.2994 102.234 84.6785 102.312H84.6805C85.0575 102.391 85.4346 102.469 85.8116 102.553C86.3782 102.677 86.9427 102.807 87.5072 102.943C87.8822 103.033 88.2551 103.128 88.63 103.223C90.1278 103.606 91.6153 104.031 93.0905 104.498C93.4593 104.614 93.828 104.733 94.1927 104.855C95.1116 105.158 96.0243 105.477 96.9328 105.813C97.658 106.078 98.3812 106.357 99.1002 106.645H99.1023C100.001 107.003 100.895 107.376 101.781 107.768C101.781 107.768 101.781 107.768 101.783 107.768C106.22 109.713 110.508 112.031 114.585 114.692C114.911 114.902 115.236 115.119 115.562 115.337C116.855 116.205 118.127 117.107 119.375 118.044C119.999 118.512 120.617 118.988 121.229 119.474C122.148 120.199 123.053 120.945 123.941 121.71C125.719 123.236 127.439 124.835 129.093 126.504C129.646 127.058 130.189 127.622 130.727 128.195C131.801 129.337 132.845 130.509 133.857 131.71C134.065 131.957 134.271 132.204 134.475 132.454C136.83 135.322 138.972 138.375 140.68 141.655C140.68 141.655 140.682 141.655 140.682 141.657C140.979 142.226 141.263 142.804 141.533 143.388C141.735 143.826 141.931 144.267 142.116 144.714C142.629 145.944 143.074 147.197 143.468 148.468C143.626 148.975 143.775 149.486 143.919 149.999C144.56 152.308 145.06 154.663 145.52 157.016C145.893 158.934 146.21 160.974 146.482 163.084C146.599 163.986 146.709 164.901 146.809 165.826V165.83C147.114 168.605 147.355 171.461 147.559 174.285C147.561 174.285 147.559 174.287 147.559 174.287C147.718 176.483 147.854 178.663 147.98 180.771C148.087 182.58 148.186 184.335 148.287 186.006H148.291Z" fill="#D8F6FF"/>
<path d="M282.889 178.036C282.85 179.944 282.782 181.663 282.714 183.15C282.498 183.197 282.277 183.234 282.057 183.261C281.995 183.27 281.933 183.278 281.869 183.284C281.694 183.307 281.519 183.319 281.342 183.327C281.053 182.046 280.705 180.595 280.281 179.019C279.29 175.335 277.912 170.957 276.031 166.408C272.157 157.043 266.148 146.956 257.045 140.725C256.872 140.606 256.697 140.488 256.522 140.373C256.347 140.256 256.17 140.14 255.991 140.027C255.828 139.924 255.665 139.821 255.5 139.72C255.335 139.619 255.168 139.52 255.004 139.421C254.67 139.223 254.332 139.032 253.992 138.844C253.485 138.566 252.968 138.3 252.445 138.047C251.571 137.625 250.681 137.262 249.775 136.953C249.661 136.916 249.548 136.877 249.435 136.84C248.944 136.681 248.452 136.537 247.953 136.411C247.951 136.411 247.951 136.409 247.949 136.409C247.62 136.325 247.288 136.246 246.954 136.176C246.952 136.176 246.95 136.176 246.948 136.174C241.433 134.998 235.53 135.669 229.955 137.653C229.112 137.954 228.278 138.284 227.452 138.642C227.287 138.717 227.12 138.789 226.955 138.863C226.133 139.23 225.324 139.627 224.526 140.052C224.366 140.138 224.205 140.225 224.046 140.311C223.412 140.655 222.785 141.02 222.171 141.399C221.555 141.778 220.95 142.172 220.354 142.582C220.056 142.788 219.761 142.996 219.468 143.208C219.03 143.523 218.599 143.849 218.177 144.182H218.175C217.892 144.405 217.612 144.629 217.338 144.858H217.336C216.784 145.316 216.244 145.785 215.721 146.267H215.719C215.325 146.63 214.94 146.997 214.565 147.372C213.56 148.373 212.616 149.418 211.745 150.499C211.604 150.674 211.464 150.851 211.326 151.031C211.052 151.387 210.784 151.752 210.523 152.125C210.523 152.127 210.521 152.127 210.521 152.129C210.259 152.5 210.004 152.881 209.754 153.268C209.754 153.27 209.752 153.272 209.752 153.272C209.503 153.66 209.26 154.053 209.023 154.455C208.547 155.262 208.096 156.095 207.667 156.954C207.237 157.809 206.833 158.691 206.452 159.591C206.069 160.491 205.708 161.412 205.368 162.352C205.197 162.822 205.034 163.295 204.876 163.773C202.249 171.65 201.017 180.601 200.584 188.805C200.572 189.055 200.559 189.302 200.547 189.549C200.419 192.295 200.378 194.953 200.405 197.448V197.452C200.405 197.452 200.403 197.452 200.403 197.45C200.339 197.407 200.269 197.362 200.195 197.316C200.121 197.271 200.038 197.226 199.952 197.178C199.865 197.131 199.772 197.084 199.676 197.038C199.628 197.013 199.579 196.991 199.527 196.966C199.476 196.941 199.424 196.917 199.371 196.894C199.15 196.793 198.907 196.688 198.643 196.581C197.747 196.218 196.616 195.831 195.293 195.423C194.929 195.31 194.55 195.196 194.156 195.081C194.014 195.04 193.872 194.999 193.728 194.957C193.454 194.877 193.173 194.799 192.887 194.718C192.601 194.638 192.31 194.558 192.014 194.477C191.987 194.471 191.958 194.463 191.931 194.455C191.764 194.409 191.595 194.364 191.424 194.319C186.146 192.905 179.242 191.372 172.241 190.004C170.371 189.64 168.494 189.288 166.637 188.952C166.067 188.849 165.5 188.748 164.936 188.647C164.532 188.575 164.128 188.505 163.728 188.435C156.557 187.192 149.96 186.265 145.705 185.989C146.241 177.076 146.768 165.766 148.472 156.999C149.282 152.815 150.238 148.631 151.876 144.697C153.864 139.936 156.818 135.637 160.137 131.693C180.388 107.669 213.362 95.1731 244.018 102.942C274.288 110.615 281.387 142.409 282.683 165.193C282.957 169.973 282.974 174.355 282.893 178.036H282.889Z" fill="white"/>
<path d="M281.869 183.284C281.694 183.307 281.519 183.319 281.342 183.327C281.054 182.046 280.705 180.596 280.281 179.019C279.29 175.336 277.912 170.958 276.031 166.409C272.157 157.043 266.148 146.956 257.045 140.726C256.872 140.604 256.697 140.487 256.522 140.373C256.347 140.256 256.17 140.14 255.991 140.027C255.828 139.922 255.665 139.819 255.5 139.72C255.335 139.617 255.171 139.518 255.004 139.421C254.67 139.222 254.334 139.03 253.992 138.845C253.485 138.566 252.968 138.301 252.445 138.047C251.571 137.625 250.681 137.262 249.775 136.953C249.662 136.916 249.548 136.877 249.435 136.84C248.945 136.681 248.45 136.539 247.954 136.411C247.952 136.411 247.952 136.409 247.949 136.409C247.62 136.325 247.286 136.249 246.954 136.177C246.952 136.177 246.95 136.177 246.948 136.174C246.654 136.113 246.359 136.057 246.062 136.006C245.98 135.991 245.9 135.977 245.817 135.962C245.564 135.919 245.308 135.882 245.051 135.847C244.923 135.83 244.793 135.812 244.665 135.797C244.455 135.773 244.243 135.748 244.031 135.727C243.85 135.709 243.668 135.694 243.485 135.68C243.39 135.672 243.297 135.666 243.203 135.659C242.883 135.639 242.562 135.622 242.241 135.612C242.203 135.612 242.168 135.61 242.133 135.608C230.87 135.295 218.89 141.634 211.755 150.499C202.445 162.07 200.261 182.604 200.415 197.457C200.411 197.453 200.407 197.45 200.401 197.446C200.337 197.403 200.267 197.36 200.191 197.314C200.117 197.269 200.034 197.224 199.948 197.176C199.861 197.129 199.768 197.082 199.672 197.036C199.624 197.01 199.575 196.987 199.523 196.964C199.472 196.94 199.42 196.915 199.367 196.892C199.146 196.789 198.903 196.684 198.639 196.579C197.743 196.216 196.612 195.829 195.289 195.421C194.925 195.308 194.546 195.194 194.152 195.079C194.01 195.038 193.868 194.997 193.724 194.956C193.45 194.875 193.169 194.797 192.883 194.717C192.597 194.636 192.306 194.556 192.01 194.475C191.983 194.469 191.954 194.461 191.927 194.453C191.76 194.407 191.591 194.362 191.42 194.317C186.142 192.908 179.234 191.836 172.237 190.47C172.233 190.47 168.327 189.597 168.323 189.595V189.591C168.315 188.756 171.603 128.218 232.957 122.488C260.639 119.901 272.963 145.182 278.371 165.366C279.791 170.663 280.73 175.608 281.348 179.605C281.558 180.944 281.731 182.176 281.869 183.282V183.284Z" fill="#D8F6FF"/>
<path d="M170.716 184.462C170.646 184.858 170.574 185.254 170.502 185.649L156.132 185.254C156.128 185.291 156.124 185.326 156.118 185.363C156.107 185.458 156.095 185.554 156.08 185.649L108.647 187.74C108.647 187.74 145.66 107.652 107.547 11.4384C107.549 11.4384 107.549 11.4384 107.551 11.4425C107.555 11.4445 107.557 11.4487 107.562 11.4507C107.671 11.5393 108.258 12.0152 109.236 12.8702C120.875 23.0108 188.13 86.4624 170.716 184.462Z" fill="white"/>
<path d="M170.717 184.463L163.05 184.333L145.248 184.086C180.305 98.684 120.317 22.7781 107.562 11.4509C107.671 11.5395 108.258 12.0154 109.237 12.8704C120.875 23.0109 188.13 86.4626 170.717 184.463Z" fill="#D8F6FF"/>
<path d="M105.831 25.4564C112.72 27.426 119.903 23.4374 121.874 16.5458C123.844 9.65428 119.853 2.47224 112.964 0.502642C106.074 -1.46696 98.8921 2.52169 96.9204 9.41323C94.9508 16.3027 98.9415 23.4868 105.831 25.4564Z" fill="white"/>
<path d="M101.049 22.9223C102.411 24.0657 104.018 24.9372 105.831 25.4564C112.723 27.426 119.903 23.4373 121.874 16.5458C122.707 13.6388 122.482 10.6782 121.413 8.0802C121.413 8.0802 116.221 15.8638 111.173 19.2529C106.132 22.6297 101.051 22.9223 101.051 22.9223H101.049Z" fill="#D8F6FF"/>
<path fill-rule="evenodd" clip-rule="evenodd" d="M203.361 211.506L141.801 211.508C141.378 211.506 140.962 211.506 140.556 211.508H90.4964C90.4964 211.508 86.9404 197.545 88.5247 195.333C89.0831 194.558 89.7733 193.897 90.4943 193.279C96.2012 188.392 103.618 186.179 110.885 184.51C135.239 178.917 149.928 178.016 170.78 181.986C174.6 182.672 178.636 183.513 182.973 184.51C186.03 185.213 189.117 186.012 192.089 187.067C196.181 188.515 200.059 190.448 203.361 193.279C204.084 193.897 204.774 194.558 205.333 195.333C206.905 197.527 203.417 211.287 203.361 211.506Z" fill="white"/>
<path fill-rule="evenodd" clip-rule="evenodd" d="M203.553 211.485L141.993 211.487C141.57 211.485 141.154 211.485 140.748 211.487H118.485C156.82 207.523 184.833 197.609 188.177 185.754C189.56 186.141 190.934 186.568 192.281 187.046C196.373 188.494 200.25 190.427 203.553 193.258C204.276 193.876 204.966 194.537 205.525 195.312C207.097 197.506 203.609 211.266 203.553 211.485Z" fill="#D8F6FF"/>
<path d="M277.452 185.437C284.341 187.407 291.523 183.418 293.495 176.527C295.465 169.635 291.474 162.453 284.585 160.483C277.695 158.514 270.513 162.503 268.541 169.394C266.572 176.284 270.562 183.468 277.452 185.437Z" fill="white"/>
<path d="M272.67 182.903C274.032 184.047 275.639 184.918 277.452 185.437C284.343 187.407 291.523 183.418 293.495 176.527C294.327 173.62 294.103 170.659 293.034 168.061C293.034 168.061 287.842 175.845 282.794 179.234C277.753 182.611 272.672 182.903 272.672 182.903H272.67Z" fill="#D8F6FF"/>
<path d="M9.41317 185.437C16.3027 187.407 23.4847 183.418 25.4564 176.527C27.426 169.635 23.4352 162.453 16.5458 160.483C9.65628 158.514 2.47424 162.503 0.502581 169.394C-1.46702 176.284 2.52369 183.468 9.41317 185.437Z" fill="white"/>
<path d="M4.63132 182.903C5.99314 184.047 7.60014 184.918 9.41316 185.437C16.3047 187.407 23.4847 183.418 25.4563 176.527C26.2887 173.62 26.0641 170.659 24.9948 168.061C24.9948 168.061 19.803 175.845 14.7554 179.234C9.71396 182.611 4.63338 182.903 4.63338 182.903H4.63132Z" fill="#D8F6FF"/>
</svg>
