<svg width="30" height="30" viewBox="0 0 30 30" fill="none" xmlns="http://www.w3.org/2000/svg">
<g clip-path="url(#clip0_746_9562)">
<path d="M0.688477 15.2023C0.688477 7.10106 7.19444 0.533691 15.22 0.533691C23.2455 0.533691 29.7514 7.10106 29.7514 15.2023C29.7514 23.3036 23.2455 29.8709 15.22 29.8709C7.19444 29.8709 0.688477 23.3036 0.688477 15.2023Z" fill="#23A9F7"/>
<g clip-path="url(#clip1_746_9562)">
<path d="M18.8108 25.3303C18.8108 25.3303 18.8098 25.3303 18.8093 25.3298V25.3308H18.8108V25.3303Z" fill="#D8F6FF"/>
<path d="M15.7934 20.2037C15.7412 20.2072 15.6846 20.2118 15.624 20.2174C15.6025 20.2195 15.5804 20.2217 15.5577 20.2241C15.5453 20.2253 15.5328 20.2268 15.5202 20.2281C15.4533 20.2353 15.3825 20.2437 15.3083 20.2531C15.2915 20.2553 15.2744 20.2574 15.2571 20.2597C15.183 20.2692 15.106 20.2799 15.0265 20.2915C15.0013 20.2951 14.976 20.2989 14.9503 20.3027C14.9374 20.3045 14.9246 20.3064 14.9118 20.3084C14.8955 20.3109 14.879 20.3134 14.8625 20.3158C14.8523 20.3175 14.8421 20.319 14.8319 20.3206C14.7957 20.3262 14.7592 20.3318 14.7223 20.3377C14.5317 20.368 14.3318 20.4021 14.1287 20.439C14.0793 20.4478 14.0296 20.4569 13.9797 20.4663C13.9542 20.4709 13.9287 20.4757 13.9034 20.4806C13.8923 20.4826 13.8811 20.4847 13.87 20.4869C13.8048 20.499 13.7396 20.5115 13.6744 20.5244C12.6431 20.7257 11.6382 20.9725 11.423 21.1196C11.4354 19.9329 11.2607 18.2923 10.5169 17.3679C9.76643 16.4353 8.34438 15.8521 7.26603 16.3728C6.32891 16.8256 5.74077 17.771 5.38175 18.6388C5.2313 19.0023 5.12101 19.352 5.042 19.6464C5.00809 19.7726 4.98011 19.8887 4.95706 19.9912C4.94307 19.9906 4.92908 19.9896 4.91492 19.9879C4.89221 19.9855 4.86933 19.982 4.84645 19.9772C4.84628 19.9748 4.84612 19.9725 4.84612 19.97C4.84497 19.9436 4.84365 19.9163 4.8425 19.8882V19.8877C4.84069 19.8426 4.83888 19.795 4.83723 19.7455C4.83657 19.7255 4.83591 19.7053 4.83525 19.6846C4.83476 19.6684 4.83427 19.6521 4.83394 19.6357C4.82604 19.3282 4.82571 18.9534 4.84925 18.5417C4.90291 17.5981 5.08118 16.4614 5.57731 15.5C5.6713 15.318 5.77665 15.1422 5.89451 14.9751C5.92677 14.9297 5.95986 14.8847 5.99393 14.8405C6.02801 14.7963 6.06307 14.7529 6.09912 14.7101C6.13533 14.6675 6.17237 14.6255 6.21039 14.5842C6.23574 14.5568 6.26159 14.5297 6.28792 14.503C6.30109 14.4897 6.31443 14.4763 6.32776 14.4632C6.7429 14.0548 7.26998 13.7381 7.93862 13.5685C8.82717 13.3433 9.74026 13.3312 10.6203 13.4989C10.6505 13.5047 10.6807 13.5106 10.711 13.5168H10.7111C10.7412 13.5231 10.7714 13.5295 10.8015 13.5361C10.8468 13.546 10.8919 13.5563 10.937 13.5672C10.9669 13.5746 10.9967 13.582 11.0267 13.5896C11.1463 13.6202 11.2652 13.6541 11.3831 13.6915C11.4125 13.7009 11.4418 13.7103 11.4711 13.72C11.5445 13.7443 11.6175 13.7698 11.69 13.7965C11.748 13.8179 11.8058 13.8401 11.8632 13.863H11.8634C11.9351 13.8918 12.0066 13.9218 12.0774 13.9527C12.0774 13.9527 12.0774 13.9527 12.0775 13.9527C12.4321 14.1083 12.7747 14.2936 13.1004 14.506C13.1264 14.5228 13.1524 14.54 13.1784 14.5575C13.2818 14.627 13.3834 14.6991 13.4831 14.7738C13.533 14.8112 13.5824 14.8492 13.6313 14.888C13.7045 14.9461 13.7768 15.0057 13.8479 15.0666C13.99 15.1886 14.1274 15.3163 14.2596 15.4497C14.3037 15.4941 14.3472 15.5392 14.3901 15.5848C14.4759 15.676 14.5593 15.7697 14.6402 15.8656C14.6568 15.8854 14.6732 15.9051 14.6895 15.9251C14.8772 16.154 15.0484 16.3981 15.1853 16.6602C15.1853 16.6602 15.1855 16.6602 15.1855 16.6604C15.2092 16.706 15.2319 16.7521 15.2535 16.7986C15.2696 16.8337 15.2853 16.8689 15.3001 16.9046C15.3411 17.0029 15.3766 17.103 15.4081 17.2046C15.4207 17.2451 15.4327 17.2859 15.4441 17.3269C15.4956 17.5114 15.5358 17.6995 15.572 17.8875C15.6018 18.0408 15.6272 18.2037 15.6489 18.3723C15.6581 18.4444 15.6668 18.5175 15.6751 18.5914V18.5917C15.6994 18.8134 15.7187 19.0416 15.735 19.2673C15.7351 19.2673 15.735 19.2674 15.735 19.2674C15.7476 19.4429 15.7585 19.6171 15.7685 19.7855C15.7771 19.93 15.785 20.0702 15.7931 20.2037H15.7934Z" fill="white"/>
<path d="M13.6738 20.5247C13.6738 20.5247 13.6748 20.5247 13.6753 20.5242V20.5252H13.6738V20.5247Z" fill="#D8F6FF"/>
<path d="M15.7932 20.2037C15.7411 20.2072 15.6844 20.2118 15.6239 20.2174C15.6023 20.2195 15.5802 20.2217 15.5575 20.2241C15.5452 20.2253 15.5327 20.2268 15.52 20.2281C15.4532 20.2353 15.3824 20.2437 15.3081 20.2531C15.2912 20.2553 15.2742 20.2574 15.2569 20.2597C15.1829 20.2692 15.1058 20.2799 15.0263 20.2915C15.0011 20.2951 14.9758 20.2989 14.9501 20.3027C14.9373 20.3045 14.9244 20.3064 14.9116 20.3084C14.8953 20.3109 14.8788 20.3134 14.8624 20.3158C14.8522 20.3175 14.842 20.319 14.8318 20.3206C14.7955 20.3262 14.759 20.3318 14.7221 20.3377C14.5315 20.368 14.3317 20.4021 14.1286 20.439C14.079 20.4478 14.0295 20.4571 13.9796 20.4663C13.9542 20.4711 13.9287 20.4758 13.9032 20.4806C13.8922 20.4826 13.881 20.4847 13.8698 20.4869C13.8046 20.4992 13.7394 20.5117 13.6742 20.5244C13.6749 20.4775 13.735 15.5886 8.82306 15.1298C6.61122 14.9231 5.62653 16.943 5.19443 18.5557C5.08102 18.9789 5.00579 19.3739 4.95641 19.6933C4.93962 19.8006 4.92595 19.8994 4.91476 19.9879C4.89205 19.9855 4.86916 19.982 4.84628 19.9772C4.84612 19.9748 4.84595 19.9725 4.84595 19.97C4.84464 19.9436 4.84349 19.9163 4.84233 19.8882V19.8877C4.84036 19.8424 4.83855 19.795 4.8369 19.7455C4.83624 19.7255 4.83558 19.7051 4.83509 19.6846C4.8346 19.6684 4.8341 19.6521 4.83377 19.6357C4.82571 19.3282 4.82554 18.9535 4.84892 18.5418C4.87246 18.129 4.91986 17.6791 5.00727 17.2233C5.11953 16.6372 5.29813 16.0409 5.57715 15.5C5.67097 15.318 5.77632 15.1422 5.89435 14.9751C5.92644 14.9297 5.95953 14.8847 5.99377 14.8405C6.02784 14.7963 6.06291 14.7529 6.09895 14.7101C6.135 14.6675 6.17204 14.6255 6.21023 14.5842C6.23558 14.5568 6.26142 14.5297 6.28776 14.503C6.30093 14.4897 6.31426 14.4763 6.3276 14.4632C6.74274 14.0548 7.26981 13.7381 7.93845 13.5685C8.82701 13.3433 9.74009 13.3312 10.6201 13.4989C10.6504 13.5047 10.6805 13.5106 10.7108 13.5168H10.711C10.7411 13.5231 10.7712 13.5294 10.8013 13.5361C10.8466 13.546 10.8917 13.5563 10.9368 13.5672C10.9668 13.5745 10.9966 13.582 11.0265 13.5896C11.1462 13.6202 11.265 13.6541 11.3829 13.6915C11.4124 13.7007 11.4418 13.7103 11.471 13.72C11.5444 13.7442 11.6173 13.7697 11.6899 13.7965C11.7478 13.8177 11.8056 13.84 11.863 13.863H11.8632C11.935 13.8917 12.0064 13.9214 12.0772 13.9527C12.0772 13.9527 12.0773 13.9527 12.0774 13.9527C12.4319 14.1081 12.7745 14.2933 13.1002 14.506C13.1263 14.5228 13.1523 14.54 13.1783 14.5575C13.2816 14.6268 13.3832 14.6989 13.483 14.7738C13.5328 14.8112 13.5822 14.8492 13.6311 14.888C13.7045 14.946 13.7768 15.0056 13.8477 15.0666C13.9898 15.1886 14.1272 15.3163 14.2594 15.4497C14.3035 15.494 14.347 15.5391 14.39 15.5848C14.4757 15.676 14.5592 15.7697 14.64 15.8656C14.6566 15.8854 14.6731 15.9051 14.6894 15.9251C14.8775 16.1542 15.0487 16.3981 15.1852 16.6602C15.1852 16.6602 15.1853 16.6602 15.1853 16.6604C15.209 16.7058 15.2318 16.7521 15.2533 16.7986C15.2695 16.8337 15.2851 16.8689 15.2999 16.9046C15.3409 17.0029 15.3765 17.103 15.4079 17.2046C15.4206 17.2451 15.4324 17.2859 15.4439 17.3269C15.4951 17.5114 15.5351 17.6995 15.5718 17.8875C15.6016 18.0408 15.627 18.2037 15.6487 18.3723C15.6581 18.4444 15.6668 18.5175 15.6749 18.5914V18.5917C15.6993 18.8134 15.7185 19.0416 15.7348 19.2673C15.735 19.2673 15.7348 19.2674 15.7348 19.2674C15.7475 19.4429 15.7583 19.6171 15.7684 19.7855C15.7769 19.93 15.7848 20.0702 15.7929 20.2037H15.7932Z" fill="white"/>
<path d="M26.5475 19.5671C26.5444 19.7195 26.539 19.8568 26.5335 19.9757C26.5163 19.9794 26.4986 19.9824 26.481 19.9845C26.4761 19.9852 26.4712 19.9859 26.4661 19.9864C26.4521 19.9882 26.4381 19.9892 26.4239 19.9898C26.4009 19.8874 26.3731 19.7715 26.3391 19.6456C26.26 19.3513 26.1498 19.0015 25.9996 18.638C25.6901 17.8897 25.2099 17.0838 24.4827 16.586C24.4689 16.5765 24.4549 16.5671 24.4409 16.5579C24.4269 16.5485 24.4127 16.5393 24.3984 16.5302C24.3854 16.522 24.3724 16.5138 24.3592 16.5057C24.3461 16.4976 24.3327 16.4897 24.3196 16.4818C24.2929 16.466 24.2659 16.4507 24.2387 16.4357C24.1982 16.4135 24.1569 16.3923 24.1151 16.372C24.0453 16.3383 23.9742 16.3093 23.9018 16.2846C23.8927 16.2817 23.8837 16.2785 23.8746 16.2756C23.8354 16.2629 23.7961 16.2514 23.7563 16.2413C23.7561 16.2413 23.7561 16.2412 23.7559 16.2412C23.7296 16.2344 23.7031 16.2282 23.6764 16.2226C23.6763 16.2226 23.6761 16.2226 23.6759 16.2224C23.2353 16.1284 22.7637 16.1821 22.3183 16.3406C22.2509 16.3646 22.1843 16.391 22.1183 16.4196C22.1051 16.4255 22.0917 16.4313 22.0786 16.4372C22.0129 16.4665 21.9482 16.4983 21.8845 16.5322C21.8717 16.5391 21.8588 16.546 21.8462 16.5529C21.7955 16.5804 21.7454 16.6096 21.6964 16.6399C21.6471 16.6702 21.5987 16.7016 21.5512 16.7343C21.5273 16.7508 21.5038 16.7674 21.4804 16.7844C21.4453 16.8096 21.4109 16.8356 21.3772 16.8622H21.377C21.3545 16.88 21.3321 16.898 21.3102 16.9162H21.31C21.2659 16.9528 21.2228 16.9903 21.181 17.0288H21.1808C21.1494 17.0578 21.1186 17.0871 21.0886 17.1171C21.0083 17.1971 20.9329 17.2805 20.8633 17.3669C20.8521 17.3809 20.8409 17.3951 20.8299 17.4094C20.808 17.4379 20.7866 17.467 20.7657 17.4968C20.7657 17.497 20.7655 17.497 20.7655 17.4971C20.7446 17.5268 20.7242 17.5572 20.7043 17.5882C20.7043 17.5883 20.7041 17.5885 20.7041 17.5885C20.6842 17.6194 20.6648 17.6509 20.6458 17.683C20.6078 17.7475 20.5718 17.814 20.5375 17.8827C20.5031 17.951 20.4708 18.0214 20.4404 18.0934C20.4098 18.1653 20.381 18.2389 20.3538 18.3139C20.3402 18.3515 20.3271 18.3893 20.3145 18.4275C20.1046 19.0568 20.0062 19.772 19.9716 20.4275C19.9706 20.4474 19.9696 20.4672 19.9686 20.4869C19.9584 20.7064 19.9551 20.9187 19.9573 21.118V21.1184C19.9573 21.1184 19.9571 21.1184 19.9571 21.1182C19.952 21.1147 19.9464 21.1111 19.9405 21.1075C19.9346 21.1039 19.928 21.1003 19.9211 21.0965C19.9141 21.0927 19.9067 21.0889 19.899 21.0853C19.8952 21.0833 19.8913 21.0815 19.8871 21.0795C19.883 21.0775 19.8789 21.0756 19.8746 21.0738C19.857 21.0657 19.8376 21.0573 19.8165 21.0487C19.7449 21.0198 19.6546 20.9888 19.5489 20.9562C19.5197 20.9472 19.4895 20.9381 19.458 20.9289C19.4467 20.9256 19.4353 20.9223 19.4238 20.919C19.4019 20.9126 19.3795 20.9064 19.3566 20.8999C19.3337 20.8935 19.3105 20.8871 19.2868 20.8807C19.2847 20.8802 19.2824 20.8795 19.2802 20.8789C19.2669 20.8752 19.2534 20.8716 19.2397 20.868C18.818 20.7551 18.2664 20.6326 17.7071 20.5233C17.5576 20.4942 17.4076 20.466 17.2593 20.4392C17.2137 20.431 17.1685 20.4229 17.1234 20.4148C17.0911 20.4091 17.0588 20.4035 17.0269 20.3979C16.4539 20.2986 15.9268 20.2245 15.5869 20.2025C15.6297 19.4904 15.6719 18.5867 15.808 17.8863C15.8727 17.552 15.9491 17.2176 16.0799 16.9034C16.2388 16.523 16.4748 16.1795 16.74 15.8644C18.3579 13.9449 20.9925 12.9465 23.4419 13.5673C25.8603 14.1803 26.4275 16.7205 26.5311 18.5409C26.553 18.9228 26.5543 19.2729 26.5479 19.5671H26.5475Z" fill="white"/>
<path d="M26.4659 19.9864C26.4519 19.9882 26.4379 19.9892 26.4237 19.9898C26.4007 19.8874 26.3729 19.7715 26.339 19.6456C26.2598 19.3513 26.1497 19.0015 25.9994 18.6381C25.6899 17.8897 25.2097 17.0838 24.4825 16.586C24.4687 16.5763 24.4547 16.567 24.4407 16.5579C24.4267 16.5485 24.4125 16.5393 24.3982 16.5302C24.3852 16.5218 24.3722 16.5136 24.359 16.5057C24.3459 16.4975 24.3327 16.4896 24.3194 16.4818C24.2927 16.4659 24.2659 16.4506 24.2385 16.4358C24.1981 16.4135 24.1567 16.3923 24.1149 16.3721C24.0451 16.3383 23.974 16.3093 23.9016 16.2846C23.8925 16.2817 23.8835 16.2786 23.8744 16.2756C23.8353 16.2629 23.7958 16.2516 23.7561 16.2414C23.7559 16.2414 23.7559 16.2412 23.7558 16.2412C23.7294 16.2344 23.7027 16.2283 23.6762 16.2226C23.6761 16.2226 23.6759 16.2226 23.6758 16.2224C23.6522 16.2175 23.6287 16.213 23.605 16.2089C23.5984 16.2078 23.592 16.2066 23.5854 16.2055C23.5651 16.202 23.5447 16.199 23.5241 16.1963C23.5139 16.1949 23.5036 16.1935 23.4934 16.1923C23.4766 16.1903 23.4596 16.1883 23.4427 16.1867C23.4282 16.1852 23.4137 16.1841 23.399 16.1829C23.3915 16.1823 23.3841 16.1818 23.3765 16.1813C23.351 16.1796 23.3253 16.1783 23.2996 16.1775C23.2967 16.1775 23.2939 16.1773 23.2911 16.1772C22.3911 16.1521 21.434 16.6586 20.8639 17.3669C20.12 18.2914 19.9456 19.932 19.9579 21.1187C19.9576 21.1184 19.9572 21.1182 19.9568 21.1179C19.9517 21.1144 19.9461 21.111 19.94 21.1073C19.934 21.1037 19.9275 21.1001 19.9205 21.0963C19.9136 21.0925 19.9062 21.0887 19.8985 21.0851C19.8947 21.083 19.8907 21.0812 19.8866 21.0794C19.8825 21.0774 19.8784 21.0754 19.8741 21.0736C19.8565 21.0654 19.8371 21.057 19.816 21.0486C19.7444 21.0196 19.654 20.9887 19.5484 20.9561C19.5192 20.947 19.4889 20.938 19.4575 20.9287C19.4461 20.9255 19.4348 20.9222 19.4233 20.9189C19.4014 20.9124 19.379 20.9062 19.3561 20.8998C19.3332 20.8934 19.31 20.8869 19.2863 20.8805C19.2842 20.88 19.2819 20.8794 19.2797 20.8787C19.2664 20.8751 19.2529 20.8715 19.2392 20.8678C18.8175 20.7552 18.2656 20.6697 17.7066 20.5605C17.7062 20.5605 17.3941 20.4907 17.3938 20.4906V20.4902C17.3931 20.4236 17.6559 15.5867 22.5579 15.1289C24.7696 14.9222 25.7543 16.9421 26.1864 18.5548C26.2998 18.978 26.3748 19.373 26.4242 19.6924C26.441 19.7994 26.4548 19.8978 26.4659 19.9862V19.9864Z" fill="white"/>
<path d="M17.5851 20.0805C17.5795 20.1121 17.5738 20.1437 17.568 20.1753L16.4199 20.1437C16.4196 20.1467 16.4192 20.1495 16.4187 20.1524C16.4179 20.16 16.4169 20.1677 16.4158 20.1753L12.626 20.3424C12.626 20.3424 15.5832 13.9436 12.5381 6.25635C12.5383 6.25635 12.5383 6.25635 12.5384 6.25668C12.5387 6.25684 12.5389 6.25717 12.5392 6.25734C12.548 6.26441 12.5949 6.30244 12.6731 6.37075C13.6029 7.18095 18.9764 12.2506 17.5851 20.0805Z" fill="white"/>
<path d="M17.5852 20.0805L16.9727 20.0701L15.5503 20.0504C18.3513 13.227 13.5584 7.16234 12.5393 6.25732C12.548 6.2644 12.5949 6.30243 12.6731 6.37074C13.603 7.18094 18.9765 12.2506 17.5852 20.0805Z" fill="white"/>
<path d="M12.4008 7.37622C12.9512 7.53358 13.5251 7.2149 13.6826 6.66428C13.84 6.11367 13.5211 5.53984 12.9707 5.38248C12.4202 5.22511 11.8464 5.5438 11.6889 6.09441C11.5315 6.64486 11.8503 7.21885 12.4008 7.37622Z" fill="white"/>
<path d="M12.0188 7.17363C12.1276 7.26499 12.256 7.33462 12.4009 7.3761C12.9515 7.53347 13.5251 7.21478 13.6827 6.66417C13.7492 6.43191 13.7312 6.19536 13.6458 5.98779C13.6458 5.98779 13.231 6.60968 12.8277 6.88046C12.4249 7.15026 12.019 7.17363 12.019 7.17363H12.0188Z" fill="white"/>
<path fill-rule="evenodd" clip-rule="evenodd" d="M20.1932 22.2409L15.2747 22.2411C15.241 22.2409 15.2077 22.2409 15.1753 22.2411H11.1756C11.1756 22.2411 10.8915 21.1255 11.0181 20.9487C11.0627 20.8868 11.1178 20.834 11.1755 20.7846C11.6314 20.3942 12.224 20.2174 12.8046 20.084C14.7504 19.6371 15.9241 19.5652 17.5901 19.8824C17.8953 19.9372 18.2177 20.0044 18.5642 20.084C18.8085 20.1402 19.0551 20.204 19.2926 20.2883C19.6195 20.404 19.9293 20.5584 20.1932 20.7846C20.251 20.834 20.3061 20.8868 20.3507 20.9487C20.4763 21.124 20.1976 22.2235 20.1932 22.2409Z" fill="white"/>
<path fill-rule="evenodd" clip-rule="evenodd" d="M20.2085 22.2394L15.29 22.2396C15.2563 22.2394 15.2231 22.2394 15.1906 22.2396H13.4119C16.4747 21.9228 18.7129 21.1308 18.9801 20.1836C19.0905 20.2145 19.2003 20.2486 19.308 20.2868C19.6349 20.4025 19.9447 20.5569 20.2085 20.7831C20.2663 20.8325 20.3215 20.8853 20.3661 20.9472C20.4917 21.1225 20.213 22.2219 20.2085 22.2394Z" fill="white"/>
<path d="M26.1127 20.1582C26.6632 20.3156 27.237 19.9969 27.3945 19.4463C27.5519 18.8957 27.233 18.3218 26.6826 18.1645C26.1321 18.0071 25.5583 18.3258 25.4008 18.8764C25.2434 19.4268 25.5623 20.0008 26.1127 20.1582Z" fill="white"/>
<path d="M25.7307 19.9559C25.8395 20.0472 25.9679 20.1168 26.1128 20.1583C26.6634 20.3157 27.237 19.997 27.3946 19.4464C27.4611 19.2141 27.4431 18.9776 27.3577 18.77C27.3577 18.77 26.9429 19.3919 26.5396 19.6627C26.1368 19.9325 25.7309 19.9559 25.7309 19.9559H25.7307Z" fill="white"/>
<path d="M4.69718 20.1582C5.24763 20.3156 5.82146 19.9969 5.97899 19.4463C6.13635 18.8957 5.81751 18.3218 5.26706 18.1645C4.71661 18.0071 4.14278 18.3258 3.98525 18.8764C3.82788 19.4268 4.14673 20.0008 4.69718 20.1582Z" fill="white"/>
<path d="M4.31543 19.9559C4.42424 20.0472 4.55263 20.1168 4.69749 20.1583C5.2481 20.3157 5.82176 19.997 5.97929 19.4464C6.04579 19.2141 6.02785 18.9776 5.94242 18.77C5.94242 18.77 5.52761 19.3919 5.12432 19.6627C4.72152 19.9325 4.31559 19.9559 4.31559 19.9559H4.31543Z" fill="white"/>
</g>
</g>
<defs>
<clipPath id="clip0_746_9562">
<rect width="29.063" height="29.3372" fill="white" transform="translate(0.688965 0.533447)"/>
</clipPath>
<clipPath id="clip1_746_9562">
<rect width="23.4898" height="19.9881" fill="white" transform="translate(3.94507 5.34229)"/>
</clipPath>
</defs>
</svg>
