<svg width="128" height="157" viewBox="0 0 128 157" fill="none" xmlns="http://www.w3.org/2000/svg">
<g clip-path="url(#clip0_5369_826)">
<path d="M118.851 66.2872C111.532 57.0552 93.7336 50.3183 82.7551 34.4326C71.8597 18.547 64.0416 0 64.0416 0C64.0416 0 56.2235 18.547 45.3281 34.4326C34.4328 50.4014 16.551 57.0552 9.23197 66.2872C4.5744 72.1092 0 80.4263 0 88.4107C0 103.049 11.8934 114.942 26.5315 114.942C38.2586 114.942 55.1423 103.381 61.4633 91.2385C59.2177 107.374 52.2313 140.559 31.3554 156.361C40.0052 152.452 51.566 150.04 64.2079 150.04C76.8499 150.04 87.4126 152.286 95.9792 155.862C75.5192 139.977 68.6992 107.124 66.4536 91.1552C72.7745 103.298 89.6582 114.942 101.469 114.942C116.107 114.942 128 103.049 128 88.4107C128 80.4263 123.426 72.1092 118.768 66.2872H118.851Z" fill="white"/>
<path d="M60.208 150.04C60.8955 150.04 61.5768 150.047 62.252 150.061C50.3759 150.295 39.5571 152.655 31.3555 156.361C32.4855 155.506 33.572 154.596 34.6221 153.645C42.0598 151.367 50.8367 150.04 60.208 150.04Z" fill="#D8F6FF"/>
<path d="M66.5 91.5C67 94.5 67.2085 96.1301 67.6641 98.6064C70.8332 115.832 78.3309 142.16 95.9795 155.862C93.8075 154.956 91.5071 154.134 89.0771 153.413C70.865 136.803 68.6358 106.688 66.5 91.5Z" fill="#D8F6FF"/>
<path d="M64.042 0C64.0667 0.0585666 71.8768 18.5721 82.7549 34.4326C93.7334 50.3183 111.533 57.0551 118.852 66.2871H118.768C123.425 72.1091 128 80.4267 128 88.4111C128 103.049 116.107 114.942 101.469 114.942C100.872 114.942 100.263 114.91 99.6426 114.853C113.266 113.744 124 102.317 124 88.4111C124 80.4267 119.425 72.1091 114.768 66.2871H114.852C107.533 57.0551 89.7334 50.3183 78.7549 34.4326C71.1412 23.3318 65.5 7.5 64.042 0Z" fill="#D8F6FF"/>
</g>
<defs>
<clipPath id="clip0_5369_826">
<rect width="128" height="156.361" fill="white"/>
</clipPath>
</defs>
</svg>
