<svg width="30" height="30" viewBox="0 0 30 30" fill="none" xmlns="http://www.w3.org/2000/svg">
<mask id="mask0_5369_744" style="mask-type:luminance" maskUnits="userSpaceOnUse" x="0" y="0" width="30" height="30">
<path d="M29.7525 0.533203H0.689453V29.8704H29.7525V0.533203Z" fill="white"/>
</mask>
<g mask="url(#mask0_5369_744)">
<path d="M0.689453 15.2018C0.689453 7.10057 7.19542 0.533203 15.221 0.533203C23.2465 0.533203 29.7524 7.10057 29.7524 15.2018C29.7524 23.3031 23.2465 29.8704 15.221 29.8704C7.19542 29.8704 0.689453 23.3031 0.689453 15.2018Z" fill="#23A9F7"/>
</g>
<g clip-path="url(#clip0_5369_744)">
<path d="M21.8564 13.4787C20.9415 12.2979 18.7167 11.4361 17.3444 9.40424C15.9825 7.37232 15.0052 5 15.0052 5C15.0052 5 14.0279 7.37232 12.666 9.40424C11.3041 11.4468 9.06888 12.2979 8.154 13.4787C7.5718 14.2234 7 15.2872 7 16.3085C7 18.1808 8.48668 19.7021 10.3164 19.7021C11.7823 19.7021 13.8928 18.2234 14.6829 16.6702C14.4022 18.734 13.5289 22.9787 10.9194 25C12.0007 24.5 13.4457 24.1915 15.026 24.1915C16.6062 24.1915 17.9266 24.4787 18.9974 24.9361C16.4399 22.9042 15.5874 18.7021 15.3067 16.6596C16.0968 18.2128 18.2073 19.7021 19.6836 19.7021C21.5133 19.7021 23 18.1808 23 16.3085C23 15.2872 22.4282 14.2234 21.846 13.4787H21.8564Z" fill="white"/>
<path d="M14.5265 24.1915C14.6124 24.1915 14.6976 24.1924 14.782 24.1941C13.2975 24.2241 11.9451 24.5259 10.9199 25C11.0612 24.8906 11.197 24.7742 11.3282 24.6525C12.258 24.3611 13.3551 24.1915 14.5265 24.1915Z" fill="#D8F6FF"/>
<path d="M15.313 16.7037C15.3755 17.0874 15.4015 17.2959 15.4585 17.6126C15.8546 19.8159 16.7919 23.1835 18.9979 24.9362C18.7264 24.8202 18.4389 24.7151 18.1351 24.6229C15.8586 22.4983 15.58 18.6464 15.313 16.7037Z" fill="#D8F6FF"/>
<path d="M15.0057 5C15.0088 5.00749 15.9851 7.37554 17.3448 9.40424C18.7172 11.4361 20.9421 12.2979 21.8569 13.4787H21.8464C22.4286 14.2234 23.0005 15.2873 23.0005 16.3086C23.0005 18.1809 21.5138 19.7021 19.6841 19.7021C19.6095 19.7021 19.5333 19.6981 19.4558 19.6907C21.1587 19.5489 22.5005 18.0873 22.5005 16.3086C22.5005 15.2873 21.9286 14.2234 21.3464 13.4787H21.3569C20.4421 12.2979 18.2172 11.4361 16.8448 9.40424C15.8931 7.98434 15.188 5.95932 15.0057 5Z" fill="#D8F6FF"/>
</g>
<defs>
<clipPath id="clip0_5369_744">
<rect width="16" height="20" fill="white" transform="translate(7 5)"/>
</clipPath>
</defs>
</svg>
