<svg width="81" height="81" viewBox="0 0 81 81" fill="none" xmlns="http://www.w3.org/2000/svg">
<g clip-path="url(#clip0_1273_4000)">
<path d="M37.2403 48.7236H43.3412C43.6121 48.7236 43.8501 48.8254 44.0526 49.0289C44.2568 49.2325 44.3583 49.4695 44.3583 49.7407V55.8419C44.3583 56.1131 44.2565 56.3504 44.0526 56.5536C43.8501 56.7568 43.6121 56.8586 43.3412 56.8586H37.2403C36.9692 56.8586 36.7321 56.7565 36.5288 56.5536C36.3256 56.3504 36.2236 56.1131 36.2236 55.8419V49.7407C36.2236 49.4695 36.3252 49.2325 36.5288 49.0289C36.7321 48.8259 36.9695 48.7236 37.2403 48.7236Z" fill="white"/>
<path d="M51.1957 28.8627C50.5007 27.5826 49.6028 26.5027 48.501 25.6213C47.3999 24.7402 46.1619 24.0366 44.7895 23.5114C43.4169 22.9865 42.0528 22.7236 40.6967 22.7236C35.5452 22.7236 31.6137 24.9776 28.902 29.4855C28.7666 29.7057 28.7198 29.9429 28.7621 30.1972C28.8047 30.4511 28.936 30.663 29.1563 30.8325L33.3253 34.0102C33.5456 34.1456 33.7575 34.2133 33.9609 34.2133C34.2661 34.2133 34.5285 34.0775 34.7491 33.8064C35.969 32.2814 36.8759 31.307 37.4689 30.8831C38.1978 30.3918 39.1126 30.1463 40.2142 30.1463C41.2479 30.1463 42.1585 30.4175 42.9469 30.9593C43.7348 31.5017 44.1284 32.1288 44.1284 32.8406C44.1284 33.6367 43.917 34.281 43.4932 34.7725C43.0696 35.2638 42.3576 35.7381 41.3576 36.1958C40.0361 36.7889 38.8239 37.7083 37.7229 38.9539C36.621 40.1996 36.0705 41.5257 36.0705 42.9322V44.0761C36.0705 44.3984 36.159 44.716 36.3373 45.0295C36.5154 45.3432 36.7313 45.4998 36.9857 45.4998H43.0865C43.3577 45.4998 43.5947 45.3688 43.7982 45.1052C44.0011 44.8433 44.1032 44.5678 44.1032 44.2801C44.1032 43.8566 44.3363 43.2883 44.8019 42.5769C45.268 41.8651 45.8483 41.3138 46.5436 40.9239C47.2042 40.5512 47.7206 40.2508 48.0938 40.0217C48.4674 39.7933 48.9543 39.4239 49.5561 38.9158C50.1576 38.4073 50.6237 37.903 50.9537 37.4033C51.2843 36.9034 51.5811 36.2551 51.8437 35.4584C52.1069 34.662 52.238 33.8061 52.238 32.8911C52.2378 31.4845 51.8901 30.1415 51.1957 28.8627Z" fill="white"/>
<path fill-rule="evenodd" clip-rule="evenodd" d="M36.655 6.96372C33.1596 7.32099 29.7126 8.22972 26.4545 9.68837L23.5941 3.29945C27.5436 1.53127 31.717 0.43197 35.9432 0L36.655 6.96372ZM53.665 9.68837C50.407 8.22972 46.9599 7.32099 43.4646 6.96372L44.1763 9.53674e-07C48.4025 0.431972 52.576 1.53127 56.5254 3.29945L53.665 9.68837ZM20.567 13.092C19.1573 14.1139 17.8082 15.2611 16.5346 16.5346C15.2611 17.8082 14.1139 19.1573 13.092 20.567L7.42443 16.4587C8.66217 14.7512 10.0493 13.1205 11.5849 11.5849C13.1205 10.0493 14.7511 8.66217 16.4587 7.42443L20.567 13.092ZM63.5849 16.5346C62.3113 15.2611 60.9622 14.1139 59.5525 13.092L63.6608 7.42443C65.3684 8.66217 66.999 10.0493 68.5346 11.5849C70.0702 13.1205 71.4573 14.7511 72.6951 16.4587L67.0275 20.567C66.0056 19.1573 64.8584 17.8082 63.5849 16.5346ZM9.68837 26.4545C8.22972 29.7125 7.32099 33.1596 6.96372 36.655L9.53674e-07 35.9432C0.431972 31.717 1.53127 27.5436 3.29945 23.5941L9.68837 26.4545ZM73.1558 36.655C72.7985 33.1596 71.8898 29.7126 70.4311 26.4545L76.8201 23.5941C78.5882 27.5436 79.6875 31.717 80.1195 35.9432L73.1558 36.655ZM6.96372 43.4645C7.32099 46.9599 8.22972 50.407 9.68837 53.665L3.29945 56.5254C1.53127 52.576 0.43197 48.4025 0 44.1763L6.96372 43.4645ZM70.4311 53.665C71.8898 50.407 72.7985 46.9599 73.1558 43.4646L80.1195 44.1763C79.6875 48.4025 78.5882 52.576 76.8201 56.5254L70.4311 53.665ZM13.092 59.5525C14.1139 60.9622 15.2611 62.3113 16.5346 63.5849C17.8082 64.8584 19.1573 66.0056 20.567 67.0275L16.4587 72.6951C14.7512 71.4573 13.1205 70.0702 11.5849 68.5346C10.0493 66.999 8.66217 65.3684 7.42443 63.6608L13.092 59.5525ZM63.5849 63.5849C64.8584 62.3113 66.0056 60.9622 67.0275 59.5525L72.6951 63.6608C71.4573 65.3684 70.0702 66.999 68.5346 68.5346C66.999 70.0702 65.3684 71.4573 63.6608 72.6951L59.5525 67.0275C60.9622 66.0056 62.3113 64.8584 63.5849 63.5849ZM26.4545 70.4311C29.7125 71.8898 33.1596 72.7985 36.655 73.1558L35.9432 80.1195C31.717 79.6875 27.5436 78.5882 23.5941 76.8201L26.4545 70.4311ZM43.4645 73.1558C46.9599 72.7985 50.407 71.8898 53.665 70.4311L56.5254 76.8201C52.576 78.5882 48.4025 79.6875 44.1763 80.1195L43.4645 73.1558Z" fill="white"/>
</g>
<defs>
<clipPath id="clip0_1273_4000">
<rect width="80.1195" height="80.1195" fill="white"/>
</clipPath>
</defs>
</svg>
