<svg width="20" height="20" viewBox="0 0 20 20" fill="none" xmlns="http://www.w3.org/2000/svg">
<g clip-path="url(#clip0_1273_3454)">
<path d="M18.2163 10.1927L18.3691 3.4992C18.3808 2.98569 18.0031 2.5868 17.5819 2.6816C16.7585 2.8665 14.494 3.30083 12.4315 2.13007C9.60847 0.527639 7.22994 2.13248 6.48703 2.74006L6.48585 1.9281C6.48553 1.72894 6.40612 1.53806 6.26508 1.39745C6.12404 1.25684 5.93292 1.178 5.73376 1.17829C5.5346 1.1786 5.34371 1.25801 5.20309 1.39904C5.06247 1.54008 4.98363 1.7312 4.98392 1.93037L5.00894 18.32C5.0091 18.4186 5.02869 18.5163 5.06659 18.6073C5.10448 18.6984 5.15994 18.7811 5.2298 18.8508C5.29966 18.9204 5.38255 18.9756 5.47374 19.0132C5.56493 19.0508 5.66263 19.07 5.76127 19.0699C5.85991 19.0697 5.95755 19.0501 6.04861 19.0122C6.13968 18.9743 6.22239 18.9189 6.29202 18.849C6.36165 18.7792 6.41684 18.6963 6.45444 18.6051C6.49203 18.5139 6.5113 18.4162 6.51114 18.3175L6.50005 11.1036C7.22057 10.4797 9.44699 8.91758 12.2405 10.5034C14.6316 11.8607 17.0129 11.2097 17.7371 10.9563C18.0186 10.8577 18.2085 10.5441 18.2163 10.1927Z" fill="white"/>
</g>
<defs>
<clipPath id="clip0_1273_3454">
<rect width="20" height="20" fill="white"/>
</clipPath>
</defs>
</svg>
