<svg width="32" height="32" viewBox="0 0 32 32" fill="none" xmlns="http://www.w3.org/2000/svg">
<g clip-path="url(#clip0_4298_400)">
<path fill-rule="evenodd" clip-rule="evenodd" d="M5.90083 10.0831H3.5C1.568 10.0831 0 11.6452 0 13.5699V18.551C0 19.4758 0.368749 20.3627 1.02513 21.0166C1.6815 21.6705 2.57174 22.0378 3.5 22.0378H6.944L13.524 27.6565C13.7422 27.8417 14.0089 27.9607 14.2928 27.9998C14.5767 28.0388 14.8659 27.996 15.1262 27.8766C15.3865 27.7572 15.6071 27.5661 15.7619 27.3259C15.9167 27.0857 15.9994 26.8063 16 26.5208V20.1823L13 17.1823V23.2731L8.476 19.4078C8.204 19.1767 7.858 19.0491 7.5 19.0491H3.5C3.224 19.0491 3 18.826 3 18.551V13.5699C3 13.4378 3.05268 13.3111 3.14645 13.2177C3.24021 13.1243 3.36739 13.0718 3.5 13.0718H7.5C7.85812 13.0715 8.20431 12.9436 8.476 12.7112L8.50451 12.6868L5.90083 10.0831ZM24.8589 20.676L22.5912 18.4083C22.8617 17.655 23.0005 16.8602 23.0005 16.0585C23.0005 15.1426 22.8194 14.2358 22.4676 13.3897C22.1158 12.5435 21.6001 11.7747 20.95 11.1272C20.6686 10.8469 20.5105 10.4666 20.5105 10.0702C20.5105 9.67374 20.6686 9.29353 20.95 9.0132C21.2314 8.73286 21.613 8.57538 22.011 8.57538C22.409 8.57538 22.7906 8.73286 23.072 9.0132L23.07 9.01519C24.9447 10.8834 25.9979 13.4169 25.9979 16.0585C25.9979 17.6816 25.6003 19.2638 24.8589 20.676ZM29.1892 25.0801C29.031 24.8733 28.8574 24.6745 28.6682 24.4853L27.0558 22.8729C27.4228 22.2819 27.7423 21.661 28.0105 21.016C28.6639 19.4446 29.0002 17.7604 29.0002 16.0595C29.0002 14.3586 28.6639 12.6744 28.0105 11.103C27.3571 9.5316 26.3993 8.10383 25.192 6.9012C24.9111 6.62102 24.7533 6.24121 24.7533 5.84521C24.7533 5.44921 24.9111 5.06741 25.192 4.78722C25.4732 4.50738 25.8545 4.3502 26.252 4.3502C26.6495 4.3502 27.0308 4.50738 27.312 4.78722C28.7978 6.26736 29.9764 8.02456 30.7806 9.95849C31.5847 11.8924 31.9986 13.9652 31.9986 16.0585C31.9986 18.1518 31.5847 20.2246 30.7806 22.1585C30.3527 23.1874 29.8189 24.1663 29.1892 25.0801ZM16 11.8171L10.8939 6.711L13.524 4.46444C13.7419 4.27895 14.0086 4.15954 14.2925 4.12035C14.5764 4.08115 14.8657 4.12381 15.126 4.24328C15.3867 4.36253 15.6075 4.55373 15.7624 4.79422C15.9173 5.0347 15.9998 5.31439 16 5.60014V11.8171Z" fill="black"/>
<rect x="0.0917969" y="2.02979" width="2.74105" height="42" rx="1.37052" transform="rotate(-45 0.0917969 2.02979)" fill="black"/>
</g>
<defs>
<clipPath id="clip0_4298_400">
<rect width="32" height="32" fill="white"/>
</clipPath>
</defs>
</svg>
