<svg id="ejNrXWI4dsJ1" xmlns="http://www.w3.org/2000/svg" xmlns:xlink="http://www.w3.org/1999/xlink" viewBox="0 0 141 142" shape-rendering="geometricPrecision" text-rendering="geometricPrecision" project-id="35770615baef4f5b8980c63e9dcea1da" export-id="32095522757e4229b152cc413282a6fe" cached="false">
  <style>
    <![CDATA[
#ejNrXWI4dsJ2_to {animation: ejNrXWI4dsJ2_to__to 2000ms linear infinite normal forwards}@keyframes ejNrXWI4dsJ2_to__to { 0% {transform: translate(101.759605px,39.333326px);animation-timing-function: cubic-bezier(0.55,0.055,0.675,0.19)} 25% {transform: translate(88.11945px,52.973493px)} 50% {transform: translate(88.11945px,52.973493px);animation-timing-function: cubic-bezier(0.215,0.61,0.355,1)} 75% {transform: translate(101.759605px,39.333326px)} 100% {transform: translate(101.759605px,39.333326px)}} #ejNrXWI4dsJ3_to {animation: ejNrXWI4dsJ3_to__to 2000ms linear infinite normal forwards}@keyframes ejNrXWI4dsJ3_to__to { 0% {transform: translate(47.23396px,94.666733px);animation-timing-function: cubic-bezier(0.55,0.055,0.675,0.19)} 25% {transform: translate(63.246329px,78.654377px)} 50% {transform: translate(63.246329px,78.654377px);animation-timing-function: cubic-bezier(0.215,0.61,0.355,1)} 75% {transform: translate(47.23396px,94.666733px)} 100% {transform: translate(47.23396px,94.666733px)}} #ejNrXWI4dsJ4_to {animation: ejNrXWI4dsJ4_to__to 2000ms linear infinite normal forwards}@keyframes ejNrXWI4dsJ4_to__to { 0% {transform: translate(42.253835px,34.563136px)} 20% {transform: translate(42.253835px,34.563136px);animation-timing-function: cubic-bezier(0.215,0.61,0.355,1)} 50% {transform: translate(35.29466px,26.799647px)} 100% {transform: translate(35.29466px,26.799647px)}} #ejNrXWI4dsJ4_ts {animation: ejNrXWI4dsJ4_ts__ts 2000ms linear infinite normal forwards}@keyframes ejNrXWI4dsJ4_ts__ts { 0% {transform: scale(0.747959,0.747959)} 19.5% {transform: scale(0.747959,0.747959);animation-timing-function: cubic-bezier(0.215,0.61,0.355,1)} 50% {transform: scale(1.000401,1.000401)} 100% {transform: scale(1.000401,1.000401)}} #ejNrXWI4dsJ4 {animation: ejNrXWI4dsJ4_c_o 2000ms linear infinite normal forwards}@keyframes ejNrXWI4dsJ4_c_o { 0% {opacity: 0} 20% {opacity: 0} 30% {opacity: 1} 50% {opacity: 0} 100% {opacity: 0}} #ejNrXWI4dsJ5_to {animation: ejNrXWI4dsJ5_to__to 2000ms linear infinite normal forwards}@keyframes ejNrXWI4dsJ5_to__to { 0% {transform: translate(109.015877px,101.663996px)} 20% {transform: translate(109.015877px,101.663996px);animation-timing-function: cubic-bezier(0.215,0.61,0.355,1)} 50% {transform: translate(114.549356px,107.059725px)} 100% {transform: translate(114.549356px,107.059725px)}} #ejNrXWI4dsJ5_ts {animation: ejNrXWI4dsJ5_ts__ts 2000ms linear infinite normal forwards}@keyframes ejNrXWI4dsJ5_ts__ts { 0% {transform: scale(0.76,0.76)} 20% {transform: scale(0.76,0.76);animation-timing-function: cubic-bezier(0.215,0.61,0.355,1)} 50% {transform: scale(1,1)} 100% {transform: scale(1,1)}} #ejNrXWI4dsJ5 {animation: ejNrXWI4dsJ5_c_o 2000ms linear infinite normal forwards}@keyframes ejNrXWI4dsJ5_c_o { 0% {opacity: 0} 20% {opacity: 0} 30% {opacity: 1} 50% {opacity: 0} 100% {opacity: 0}} #ejNrXWI4dsJ6_to {animation: ejNrXWI4dsJ6_to__to 2000ms linear infinite normal forwards}@keyframes ejNrXWI4dsJ6_to__to { 0% {transform: translate(40.257583px,42.70569px)} 20% {transform: translate(40.257583px,42.70569px);animation-timing-function: cubic-bezier(0.215,0.61,0.355,1)} 50% {transform: translate(32.330647px,41.787834px)} 100% {transform: translate(32.330647px,41.787834px)}} #ejNrXWI4dsJ6_ts {animation: ejNrXWI4dsJ6_ts__ts 2000ms linear infinite normal forwards}@keyframes ejNrXWI4dsJ6_ts__ts { 0% {transform: rotate(-30.335282deg) scale(0.637403,0.637404)} 20% {transform: rotate(-30.335282deg) scale(0.637403,0.637404);animation-timing-function: cubic-bezier(0.215,0.61,0.355,1)} 50% {transform: rotate(-30.335282deg) scale(0.842403,0.842404)} 100% {transform: rotate(-30.335282deg) scale(0.842403,0.842404)}} #ejNrXWI4dsJ6 {animation: ejNrXWI4dsJ6_c_o 2000ms linear infinite normal forwards}@keyframes ejNrXWI4dsJ6_c_o { 0% {opacity: 0} 20% {opacity: 0} 30% {opacity: 1} 50% {opacity: 0} 100% {opacity: 0}} #ejNrXWI4dsJ7_to {animation: ejNrXWI4dsJ7_to__to 2000ms linear infinite normal forwards}@keyframes ejNrXWI4dsJ7_to__to { 0% {transform: translate(111.170825px,93.686535px)} 20% {transform: translate(111.170825px,93.686535px);animation-timing-function: cubic-bezier(0.215,0.61,0.355,1)} 50% {transform: translate(116.806866px,93.25848px)} 100% {transform: translate(116.806866px,93.25848px)}} #ejNrXWI4dsJ7_ts {animation: ejNrXWI4dsJ7_ts__ts 2000ms linear infinite normal forwards}@keyframes ejNrXWI4dsJ7_ts__ts { 0% {transform: rotate(-26.753595deg) scale(0.640381,0.640381)} 19.5% {transform: rotate(-26.753595deg) scale(0.640381,0.640381);animation-timing-function: cubic-bezier(0.215,0.61,0.355,1)} 50% {transform: rotate(-26.753595deg) scale(0.813975,0.813975)} 100% {transform: rotate(-26.753595deg) scale(0.813975,0.813975)}} #ejNrXWI4dsJ7 {animation: ejNrXWI4dsJ7_c_o 2000ms linear infinite normal forwards}@keyframes ejNrXWI4dsJ7_c_o { 0% {opacity: 0} 20% {opacity: 0} 30% {opacity: 1} 50% {opacity: 0} 100% {opacity: 0}} #ejNrXWI4dsJ8_to {animation: ejNrXWI4dsJ8_to__to 2000ms linear infinite normal forwards}@keyframes ejNrXWI4dsJ8_to__to { 0% {transform: translate(50.941906px,33.370764px)} 19.5% {transform: translate(50.941906px,33.370764px);animation-timing-function: cubic-bezier(0.215,0.61,0.355,1)} 50% {transform: translate(50.608152px,26.027919px)} 100% {transform: translate(50.608152px,26.027919px)}} #ejNrXWI4dsJ8_ts {animation: ejNrXWI4dsJ8_ts__ts 2000ms linear infinite normal forwards}@keyframes ejNrXWI4dsJ8_ts__ts { 0% {transform: scale(0.413798,0.413798)} 19.5% {transform: scale(0.413798,0.413798);animation-timing-function: cubic-bezier(0.215,0.61,0.355,1)} 50% {transform: scale(0.687548,0.687548)} 100% {transform: scale(0.687548,0.687548)}} #ejNrXWI4dsJ8 {animation: ejNrXWI4dsJ8_c_o 2000ms linear infinite normal forwards}@keyframes ejNrXWI4dsJ8_c_o { 0% {opacity: 0} 20% {opacity: 0} 30% {opacity: 1} 50% {opacity: 0} 100% {opacity: 0}} #ejNrXWI4dsJ9_to {animation: ejNrXWI4dsJ9_to__to 2000ms linear infinite normal forwards}@keyframes ejNrXWI4dsJ9_to__to { 0% {transform: translate(99.754812px,105.144823px)} 19.5% {transform: translate(99.754812px,105.144823px);animation-timing-function: cubic-bezier(0.215,0.61,0.355,1)} 50% {transform: translate(99.601509px,109.711042px)} 100% {transform: translate(99.601509px,109.711042px)}} #ejNrXWI4dsJ9_ts {animation: ejNrXWI4dsJ9_ts__ts 2000ms linear infinite normal forwards}@keyframes ejNrXWI4dsJ9_ts__ts { 0% {transform: rotate(8.968269deg) scale(0.732039,0.732037)} 19.5% {transform: rotate(8.968269deg) scale(0.732039,0.732037);animation-timing-function: cubic-bezier(0.215,0.61,0.355,1)} 50% {transform: rotate(8.968269deg) scale(0.952521,0.952519)} 100% {transform: rotate(8.968269deg) scale(0.952521,0.952519)}} #ejNrXWI4dsJ9 {animation: ejNrXWI4dsJ9_c_o 2000ms linear infinite normal forwards}@keyframes ejNrXWI4dsJ9_c_o { 0% {opacity: 0} 20% {opacity: 0} 30% {opacity: 1} 50% {opacity: 0} 100% {opacity: 0}} #ejNrXWI4dsJ16_tr {animation: ejNrXWI4dsJ16_tr__tr 2000ms linear infinite normal forwards}@keyframes ejNrXWI4dsJ16_tr__tr { 0% {transform: translate(135.33781px,207.03926px) rotate(720deg);animation-timing-function: cubic-bezier(0.415,0.08,0.115,0.955)} 100% {transform: translate(135.33781px,207.03926px) rotate(532.987013deg)}} #ejNrXWI4dsJ16 {animation: ejNrXWI4dsJ16_f_p 2000ms linear infinite normal forwards}@keyframes ejNrXWI4dsJ16_f_p { 0% {fill: #d2dbed} 100% {fill: #d2dbed}} #ejNrXWI4dsJ17_tr {animation: ejNrXWI4dsJ17_tr__tr 2000ms linear infinite normal forwards}@keyframes ejNrXWI4dsJ17_tr__tr { 0% {transform: translate(11.12px,29.9px) rotate(-720deg);animation-timing-function: cubic-bezier(0.415,0.08,0.115,0.955)} 100% {transform: translate(11.12px,29.9px) rotate(-532.987013deg)}}
]]>
  </style>
  <g id="ejNrXWI4dsJ2_to" transform="translate(101.759605,39.333326)">
    <path d="M133.019,41.3333c5.321,5.3334,5.321,14,0,18.6667L115.812,77.2474c-.781.7833-2.05.7833-2.832,0L63.9281,28.0792c-.7788-.7807-.7789-2.0444,0-2.8251L81.1415,8c5.3208-5.33333,13.967-5.33333,18.6226,0L110.32,18.5808c.781.7832,2.05.7832,2.832,0L130.273,1.41923c.781-.783275,2.05-.783276,2.832,0l6.486,6.50156c.779.78067.779,2.04442,0,2.82511L122.456,27.9208c-.778.7807-.778,2.0444,0,2.8251l10.563,10.5874Z" transform="translate(-101.759605,-39.333326)" fill="#fff"/>
  </g>
  <g id="ejNrXWI4dsJ3_to" transform="translate(47.23396,94.666733)">
    <path d="M93.0832,81.4122c.7556-.7843.7447-2.029-.0245-2.8L86.548,72.0861c-.7815-.7833-2.0504-.7833-2.8318,0L67.9253,87.9143c-.7814.7832-2.0503.7832-2.8318,0L53.9517,76.746c-.7789-.7806-.7789-2.0444,0-2.825L69.7559,58.0794c.7788-.7807.7788-2.0444,0-2.8251l-6.4862-6.5016c-.7815-.7833-2.0504-.7833-2.8318,0L44.599,64.629c-.7624.7643-1.9939.7855-2.7822.048L34.6691,57.99c-.7884-.7375-2.0198-.7163-2.7823.048L14.6321,75.3335c-5.32078,5.3333-5.32078,14,0,18.6667L25.1946,104.588c.7788.78.7788,2.044,0,2.825L1.40921,131.254c-.778823.781-.778822,2.045,0,2.825l6.48623,6.502c.78143.783,2.05033.783,2.83176,0l23.772-23.828c.7814-.784,2.0503-.784,2.8318,0l10.5558,10.581c5.3207,5.333,13.967,5.333,18.6226,0l17.2135-17.255c.7788-.78.7788-2.044,0-2.825l-6.5174-6.533c-.7692-.7705-.7801-2.0152-.0246-2.7995L93.0832,81.4122Z" transform="translate(-47.23396,-94.666733)" fill="#fff"/>
  </g>
  <g id="ejNrXWI4dsJ4_to" transform="translate(42.253835,34.563136)">
    <g id="ejNrXWI4dsJ4_ts" transform="scale(0.747959,0.747959)">
      <path id="ejNrXWI4dsJ4" d="M49.9584,20.9519l-2.4539,2.6426-2.0665-3.7356c-.263-.4149-.8511-.4705-1.1849-.1109L41.191,23.0455c-.2551.2748-.2682.6976-.0298.9873l4.8155,5.8362c.2894.3497.8206.3654,1.129.0334l2.524-2.7182l3.4737,5.1916c.2716.4056.8457.4441,1.171.0937.1786-.1923.248-.4691.1675-.7315l-3.219-10.4946c-.1663-.5511-.8711-.7152-1.2645-.2915Z" transform="translate(-47.732922,-26.108991)" opacity="0" fill="#fff"/>
    </g>
  </g>
  <g id="ejNrXWI4dsJ5_to" transform="translate(109.015877,101.663996)">
    <g id="ejNrXWI4dsJ5_ts" transform="scale(0.76,0.76)">
      <path id="ejNrXWI4dsJ5" d="M118.632,100.427l2.164-2.8852l2.446,3.4982c.305.385.896.379,1.19-.014l2.7-3.5998c.225-.3.194-.7219-.074-.985l-5.4-5.2995c-.325-.3175-.855-.2774-1.127.0851l-2.225,2.9677-3.998-4.799c-.313-.375-.888-.3531-1.175.0294-.157.2101-.197.4926-.09.745l4.301,10.1001c.223.53.941.619,1.288.157Z" transform="translate(-120.132511,-95.225304)" opacity="0" fill="#fff"/>
    </g>
  </g>
  <g id="ejNrXWI4dsJ6_to" transform="translate(40.257583,42.70569)">
    <g id="ejNrXWI4dsJ6_ts" transform="rotate(-30.335282) scale(0.637403,0.637404)">
      <path id="ejNrXWI4dsJ6" d="M42.9933,33.9018l-1.0012,2.4705-2.4091-2.0381c-.2907-.2175-.7116-.1014-.8478.2346l-1.2493,3.0827c-.1041.2569-.002.5525.2388.69l4.8602,2.7672c.2918.1656.663.0369.7888-.2735l1.0298-2.5411l3.7638,2.6743c.2942.2089.7009.0847.8337-.2429.0728-.1798.0481-.3892-.0765-.5493L43.9436,33.771c-.2597-.337-.7898-.2652-.9503.1308Z" transform="translate(-43.243484,-37.368811)" opacity="0" fill="#fff"/>
    </g>
  </g>
  <g id="ejNrXWI4dsJ7_to" transform="translate(111.170825,93.686535)">
    <g id="ejNrXWI4dsJ7_ts" transform="rotate(-26.753595) scale(0.640381,0.640381)">
      <path id="ejNrXWI4dsJ7" d="M124.202,86.8185l.737-2.5617l2.609,1.7744c.312.1859.719.0263.819-.3222l.919-3.1966c.077-.2664-.056-.5496-.309-.6611l-5.124-2.2428c-.307-.1341-.663.0328-.756.3547l-.758,2.635-4.023-2.2652c-.314-.177-.706-.0108-.803.3288-.054.1865-.007.3922.133.5384l5.625,5.848c.293.3079.813.181.931-.2297Z" transform="translate(-123.399479,-83.390533)" opacity="0" fill="#fff"/>
    </g>
  </g>
  <g id="ejNrXWI4dsJ8_to" transform="translate(50.941906,33.370764)">
    <g id="ejNrXWI4dsJ8_ts" transform="scale(0.413798,0.413798)">
      <path id="ejNrXWI4dsJ8" d="M63.1571,14.7315l-2.6536.2527.6953-3.078c.0587-.3582-.2386-.678-.5996-.6436l-3.3113.3154c-.2759.0263-.4909.2533-.5017.5304l-.2101,5.5888c-.0122.3353.2734.6051.6068.5734l2.7295-.26-.6341,4.5734c-.0495.3574.2486.6608.6004.6273.1932-.0184.3675-.1371.452-.3215l3.3812-7.3758c.1791-.386-.1294-.823-.5548-.7825Z" transform="translate(-60.169769,-17.236946)" opacity="0" fill="#fff"/>
    </g>
  </g>
  <g id="ejNrXWI4dsJ9_to" transform="translate(99.754812,105.144823)">
    <g id="ejNrXWI4dsJ9_ts" transform="rotate(8.968269) scale(0.732039,0.732037)">
      <path id="ejNrXWI4dsJ9" d="M106.158,107.996l2.612-.529-.369,3.134c-.02.362.309.649.664.577l3.26-.661c.272-.055.462-.303.444-.58l-.377-5.58c-.023-.335-.335-.573-.664-.507l-2.687.545.152-4.6147c.011-.3606-.317-.6311-.663-.5609-.19.0385-.351.1748-.416.3671l-2.59,7.6895c-.137.403.215.805.634.72Z" transform="translate(-109.132057,-105.198696)" opacity="0" fill="#fff"/>
    </g>
  </g>
</svg>
