<svg width="512" height="512" viewBox="0 0 512 512" fill="none" xmlns="http://www.w3.org/2000/svg">
<path d="M0 256C0 114.615 114.615 0 256 0C397.385 0 512 114.615 512 256C512 397.385 397.385 512 256 512C114.615 512 0 397.385 0 256Z" fill="#23A9F7"/>
<path d="M372.17 201.554C382.057 211.432 382.057 227.484 372.17 236.127L337.566 270.7L241.17 174.39L275.774 139.817C285.66 129.939 301.726 129.939 310.377 139.817L332.623 162.042L369.698 125L387 142.286L349.925 179.329L372.17 201.554ZM300.491 273.169L283.189 255.883L248.585 290.455L222.632 264.526L257.236 229.953L239.934 212.667L205.33 247.239L186.792 229.953L152.189 264.526C142.302 274.404 142.302 290.455 152.189 299.099L174.434 321.324L125 370.714L142.302 388L191.736 338.61L213.981 360.836C223.868 370.714 239.934 370.714 248.585 360.836L283.189 326.263L265.887 308.977L300.491 273.169Z" fill="white"/>
</svg>
