<svg width="513" height="513" viewBox="0 0 513 513" fill="none" xmlns="http://www.w3.org/2000/svg">
<path d="M0.155762 256.221C0.155762 114.836 114.771 0.220703 256.156 0.220703C397.541 0.220703 512.156 114.836 512.156 256.221C512.156 397.606 397.541 512.221 256.156 512.221C114.771 512.221 0.155762 397.606 0.155762 256.221Z" fill="#23A9F7"/>
<path d="M201.054 379.318H321.812V334.034C321.812 317.429 315.9 303.215 304.076 291.391C292.251 279.567 278.037 273.655 261.433 273.655C244.829 273.655 230.615 279.567 218.79 291.391C206.966 303.215 201.054 317.429 201.054 334.034V379.318ZM261.433 243.465C278.037 243.465 292.251 237.553 304.076 225.729C315.9 213.904 321.812 199.69 321.812 183.086V137.802H201.054V183.086C201.054 199.69 206.966 213.904 218.79 225.729C230.615 237.553 244.829 243.465 261.433 243.465ZM155.77 409.507C147.433 409.507 140.675 402.749 140.675 394.412C140.675 386.076 147.433 379.318 155.77 379.318H170.865V334.034C170.865 318.687 174.452 304.282 181.627 290.817C188.802 277.353 198.8 266.6 211.62 258.56C198.79 250.509 188.792 239.757 181.627 226.302C174.462 212.848 170.875 198.442 170.865 183.086V137.802H155.77C147.433 137.802 140.675 131.044 140.675 122.707C140.675 114.37 147.433 107.612 155.77 107.612H367.096C375.433 107.612 382.191 114.37 382.191 122.707C382.191 131.044 375.433 137.802 367.096 137.802H352.001V183.086C352.001 198.432 348.419 212.838 341.254 226.302C334.089 239.767 324.086 250.519 311.246 258.56C324.076 266.61 334.079 277.368 341.254 290.832C348.429 304.297 352.012 318.697 352.001 334.034V379.318H367.096C375.433 379.318 382.191 386.076 382.191 394.412C382.191 402.749 375.433 409.507 367.096 409.507H155.77Z" fill="white"/>
</svg>
