<svg width="58" height="84" viewBox="0 0 58 84" fill="none" xmlns="http://www.w3.org/2000/svg">
<path d="M0.14502 7.83031H1.14502L1.14502 4.04692C1.14502 2.41629 2.47366 1.08765 4.10427 1.08765L7.21071 1.08765V0.0876465L13.4236 0.0876465V1.08765H19.6365V0.0876465L25.8493 0.0876465V1.08765L32.0622 1.08765V0.0876465L38.2751 0.0876465V1.08765L44.4879 1.08765V0.0876465L50.7008 0.0876465V1.08765L53.8073 1.08765C55.4379 1.08765 56.7665 2.41629 56.7665 4.04692V7.83031H57.7665V15.3971H56.7665V22.9639H57.7665V30.5307H56.7665V38.0975H57.7665V45.6643H56.7665V53.2311H57.7665V60.7979H56.7665V68.3647H57.7665V75.9315H56.7665V79.7149C56.7665 81.3455 55.4379 82.6742 53.8073 82.6742H50.7008V83.6742H44.4879V82.6742H38.2751V83.6742H32.0622V82.6742H25.8493V83.6742H19.6365V82.6742H13.4236V83.6742H7.21071V82.6742H4.10427C2.47366 82.6742 1.14502 81.3455 1.14502 79.7149V75.9315H0.14502L0.14502 68.3647H1.14502V60.7979H0.14502L0.14502 53.2311H1.14502V45.6643H0.14502L0.14502 38.0975H1.14502L1.14502 30.5307H0.14502L0.14502 22.9639H1.14502L1.14502 15.3971H0.14502L0.14502 7.83031Z" stroke="white" stroke-width="2" stroke-dasharray="7 7"/>
<g clip-path="url(#clip0_400_18001)">
<path d="M18.1797 35.4783V41.4783H24.1797" stroke="white" stroke-width="1.99832" stroke-linecap="round" stroke-linejoin="round"/>
<path d="M40.1807 51.4783V45.4783H34.1807" stroke="white" stroke-width="1.99832" stroke-linecap="round" stroke-linejoin="round"/>
<path d="M37.6697 40.4783C37.1625 39.0451 36.3006 37.7637 35.1642 36.7538C34.0279 35.7438 32.6542 35.0381 31.1714 34.7026C29.6886 34.3671 28.1449 34.4127 26.6845 34.8351C25.2241 35.2576 23.8944 36.0431 22.8197 37.1183L18.1797 41.4783M40.1797 45.4783L35.5397 49.8383C34.4649 50.9136 33.1353 51.6991 31.6749 52.1216C30.2144 52.544 28.6708 52.5896 27.188 52.2541C25.7052 51.9186 24.3315 51.2129 23.1952 50.2029C22.0588 49.1929 21.1969 47.9116 20.6897 46.4783" stroke="white" stroke-width="1.99832" stroke-linecap="round" stroke-linejoin="round"/>
</g>
<defs>
<clipPath id="clip0_400_18001">
<rect width="24" height="24" fill="white" transform="translate(17.1807 31.4783)"/>
</clipPath>
</defs>
</svg>
