<svg width="32" height="32" viewBox="0 0 32 32" fill="none" xmlns="http://www.w3.org/2000/svg">
<g clip-path="url(#clip0_4298_400)">
<path d="M15.126 4.24328C15.3867 4.36253 15.6075 4.55373 15.7624 4.79422C15.9173 5.0347 15.9998 5.31439 16 5.60014V26.5208C15.9994 26.8063 15.9167 27.0857 15.7619 27.3259C15.6071 27.5661 15.3865 27.7572 15.1262 27.8766C14.8659 27.996 14.5767 28.0388 14.2928 27.9997C14.0089 27.9607 13.7422 27.8417 13.524 27.6565L6.944 22.0378H3.5C2.57174 22.0378 1.6815 21.6705 1.02513 21.0166C0.368749 20.3627 0 19.4758 0 18.551V13.5699C0 11.6452 1.568 10.0831 3.5 10.0831H6.946L13.524 4.46444C13.7419 4.27895 14.0086 4.15954 14.2925 4.12035C14.5764 4.08115 14.8657 4.12381 15.126 4.24328ZM13 8.84782L8.476 12.7112C8.20431 12.9436 7.85812 13.0715 7.5 13.0718H3.5C3.36739 13.0718 3.24021 13.1243 3.14645 13.2177C3.05268 13.3111 3 13.4378 3 13.5699V18.551C3 18.826 3.224 19.0491 3.5 19.0491H7.5C7.858 19.0491 8.204 19.1767 8.476 19.4078L13 23.2731V8.84782ZM25.192 4.78722C25.4733 4.50738 25.8545 4.3502 26.252 4.3502C26.6495 4.3502 27.0307 4.50738 27.312 4.78722C28.7978 6.26736 29.9764 8.02456 30.7806 9.95849C31.5847 11.8924 31.9986 13.9652 31.9986 16.0585C31.9986 18.1518 31.5847 20.2246 30.7806 22.1585C29.9764 24.0924 28.7978 25.8496 27.312 27.3298C27.0277 27.594 26.6515 27.738 26.2627 27.7313C25.8739 27.7246 25.503 27.5678 25.228 27.2939C24.9531 27.02 24.7956 26.6504 24.7889 26.2631C24.7822 25.8758 24.9267 25.501 25.192 25.2178C26.3993 24.0151 27.3571 22.5874 28.0105 21.016C28.6639 19.4446 29.0002 17.7604 29.0002 16.0595C29.0002 14.3586 28.6639 12.6744 28.0105 11.103C27.3571 9.5316 26.3993 8.10383 25.192 6.9012C24.9111 6.62102 24.7533 6.24121 24.7533 5.84521C24.7533 5.44921 24.9111 5.06741 25.192 4.78722ZM23.072 9.0132L23.07 9.01519C24.9447 10.8834 25.9979 13.4169 25.9979 16.0585C25.9979 18.7001 24.9447 21.2336 23.07 23.1018C22.8867 23.2985 22.6535 23.4423 22.395 23.518C22.1365 23.5938 21.8622 23.5986 21.6012 23.5322C21.3401 23.4657 21.1019 23.3303 20.9116 23.1402C20.7214 22.9501 20.5861 22.7125 20.52 22.4522C20.4534 22.1925 20.4582 21.9196 20.5338 21.6623C20.6095 21.405 20.7532 21.1727 20.95 20.9898C21.6001 20.3422 22.1158 19.5734 22.4676 18.7273C22.8194 17.8812 23.0005 16.9743 23.0005 16.0585C23.0005 15.1426 22.8194 14.2358 22.4676 13.3897C22.1158 12.5435 21.6001 11.7747 20.95 11.1272C20.6686 10.8469 20.5105 10.4666 20.5105 10.0702C20.5105 9.67374 20.6686 9.29353 20.95 9.0132C21.2314 8.73286 21.613 8.57538 22.011 8.57538C22.409 8.57538 22.7906 8.73286 23.072 9.0132Z" fill="black"/>
</g>
<defs>
<clipPath id="clip0_4298_400">
<rect width="32" height="32" fill="white"/>
</clipPath>
</defs>
</svg>
