<svg width="18" height="18" viewBox="0 0 18 18" fill="none" xmlns="http://www.w3.org/2000/svg">
<g clip-path="url(#clip0_5341_533)">
<path d="M0.749023 3V7.5H5.24902" stroke="#F0F0F0" stroke-width="1.99832" stroke-linecap="round" stroke-linejoin="round"/>
<path d="M17.25 15V10.5H12.75" stroke="#F0F0F0" stroke-width="1.99832" stroke-linecap="round" stroke-linejoin="round"/>
<path d="M15.3665 6.75018C14.9861 5.67527 14.3397 4.71423 13.4874 3.95674C12.6352 3.19925 11.6049 2.67 10.4928 2.41837C9.38069 2.16674 8.22296 2.20093 7.12763 2.51776C6.0323 2.83458 5.03508 3.42371 4.22902 4.23018L0.749023 7.50018M17.249 10.5002L13.769 13.7702C12.963 14.5766 11.9657 15.1658 10.8704 15.4826C9.77509 15.7994 8.61735 15.8336 7.50524 15.582C6.39312 15.3304 5.36287 14.8011 4.51062 14.0436C3.65837 13.2861 3.0119 12.3251 2.63152 11.2502" stroke="#F0F0F0" stroke-width="1.99832" stroke-linecap="round" stroke-linejoin="round"/>
</g>
<defs>
<clipPath id="clip0_5341_533">
<rect width="18" height="18" fill="white"/>
</clipPath>
</defs>
</svg>
