<svg width="129" height="129" viewBox="0 0 129 129" fill="none" xmlns="http://www.w3.org/2000/svg">
<path d="M108.422 48.6334C93.7521 48.6334 81.6071 63.1665 66.1871 67.6697C71.0314 48.2241 84.6092 39.2176 84.6092 20.659C84.6092 9.53742 75.6028 0.530945 64.4813 0.530945C53.3598 0.530945 44.3534 9.53742 44.3534 20.659C44.3534 39.2176 57.9312 48.2241 62.7755 67.6697C47.3555 63.1665 35.2105 48.6334 20.541 48.6334C9.41948 48.6334 0.413078 57.6398 0.413078 68.6931C0.413078 79.7464 9.41948 88.8209 20.541 88.8209C35.347 88.8209 47.6284 73.9467 63.2532 69.6482C63.2532 69.7847 63.2532 69.8531 63.2532 69.9895C62.3662 78.723 57.9994 113.657 37.8715 128.872C44.9675 125.665 54.4515 123.687 64.8225 123.687C75.1935 123.687 83.8587 125.529 90.8864 128.531C71.0314 113.043 66.8011 78.1772 65.9824 69.7848C81.4706 74.288 93.5474 88.8209 108.285 88.8209C119.407 88.8209 128.413 79.8147 128.413 68.6931C128.413 57.5716 119.407 48.6334 108.285 48.6334H108.422Z" fill="black"/>
</svg>
