<svg width="129" height="157" viewBox="0 0 129 157" fill="none" xmlns="http://www.w3.org/2000/svg">
<path d="M119.689 66.5811C112.37 57.3491 94.5709 50.6121 83.5924 34.7265C72.697 18.8409 64.8789 0.293884 64.8789 0.293884C64.8789 0.293884 57.0609 18.8409 46.1655 34.7265C35.2701 50.6953 17.3884 57.3491 10.0693 66.5811C5.41175 72.4031 0.837341 80.7202 0.837341 88.7046C0.837341 103.343 12.7308 115.236 27.3689 115.236C39.096 115.236 55.9796 103.675 62.3006 91.5324C60.055 107.668 53.0687 140.853 32.1928 156.655C40.8425 152.746 52.4033 150.334 65.0453 150.334C77.6873 150.334 88.25 152.58 96.8166 156.156C76.3565 140.27 69.5365 107.418 67.2909 91.4491C73.6119 103.592 90.4956 115.236 102.306 115.236C116.944 115.236 128.837 103.343 128.837 88.7046C128.837 80.7202 124.263 72.4031 119.605 66.5811H119.689Z" fill="black"/>
</svg>
